<?xml version="1.0" encoding="utf-8"?>
<!-- Generator: Adobe Illustrator 23.1.0, SVG Export Plug-In . SVG Version: 6.00 Build 0)  -->
<svg version="1.1" id="Layer_1" xmlns="http://www.w3.org/2000/svg" xmlns:xlink="http://www.w3.org/1999/xlink" x="0px" y="0px"
	 viewBox="0 0 83.69 84.01" style="enable-background:new 0 0 83.69 84.01;" xml:space="preserve">
<style type="text/css">
	.st0{fill:#FFFFFF;}
</style>
<g>
	<path class="st0" d="M45.16,3.14l0.88,8.67l-2.29-0.1l-0.05-1.55l-0.8-0.04l-0.21,1.54l-2.31-0.11l1.54-8.56L45.16,3.14z
		 M43.72,8.62c-0.07-0.98-0.13-2.19-0.17-3.63c-0.3,1.64-0.5,2.84-0.6,3.6L43.72,8.62z"/>
	<path class="st0" d="M49.96,3.86l-1.31,6.77l1.34,0.26l-0.33,1.69l-3.54-0.68l1.63-8.46L49.96,3.86z"/>
	<path class="st0" d="M59.49,7.01l-3.14,8.03l-1.82-0.71l2.12-5.42l-2.84,5.13l-1.29-0.51l1.3-5.59l-2.07,5.29l-1.82-0.71l3.14-8.03
		l2.7,1.06c-0.11,0.51-0.25,1.11-0.42,1.8l-0.5,2.16l1.94-3.56L59.49,7.01z"/>
	<path class="st0" d="M62.97,15.15c-0.47,0.72-0.83,1.23-1.06,1.51c-0.23,0.28-0.52,0.48-0.86,0.62c-0.34,0.13-0.71,0.16-1.1,0.1
		c-0.39-0.07-0.79-0.23-1.2-0.5c-0.39-0.25-0.69-0.54-0.92-0.87s-0.35-0.68-0.37-1.05c-0.02-0.38,0.05-0.72,0.21-1.04
		c0.16-0.32,0.48-0.85,0.97-1.59l0.81-1.23c0.47-0.72,0.83-1.23,1.06-1.51c0.23-0.28,0.52-0.48,0.86-0.62
		c0.34-0.13,0.71-0.16,1.1-0.1c0.39,0.07,0.79,0.23,1.2,0.5c0.39,0.25,0.69,0.54,0.92,0.87c0.22,0.33,0.35,0.68,0.37,1.05
		c0.02,0.38-0.05,0.72-0.21,1.04s-0.48,0.85-0.97,1.59L62.97,15.15z M62.64,11.55c0.22-0.34,0.34-0.56,0.37-0.68
		s-0.02-0.21-0.14-0.29c-0.1-0.06-0.2-0.08-0.3-0.03c-0.1,0.04-0.27,0.25-0.52,0.62l-2.2,3.37c-0.27,0.42-0.43,0.69-0.46,0.81
		c-0.03,0.12,0.02,0.22,0.14,0.3c0.13,0.08,0.25,0.08,0.36-0.01c0.11-0.09,0.3-0.35,0.58-0.77L62.64,11.55z"/>
	<path class="st0" d="M70.96,15.63l-5.92,6.26l-1.43-1.35l1.84-3.65l-2.69,2.85l-1.36-1.29l5.92-6.26l1.36,1.29l-1.75,3.68
		l2.67-2.82L70.96,15.63z"/>
	<path class="st0" d="M72.35,17.19l1,1.35c0.64,0.87,1.04,1.49,1.18,1.86c0.15,0.37,0.19,0.7,0.12,0.99
		c-0.07,0.29-0.19,0.54-0.39,0.75c-0.19,0.21-0.62,0.55-1.28,1.03l-2.43,1.79c-0.62,0.46-1.06,0.74-1.31,0.83s-0.49,0.12-0.72,0.06
		c-0.23-0.06-0.44-0.18-0.65-0.36c-0.21-0.18-0.47-0.48-0.79-0.92l-1.68-2.27L72.35,17.19z M72.49,19.87l-4.56,3.36
		c0.19,0.26,0.36,0.38,0.51,0.36s0.45-0.2,0.92-0.54l2.7-1.99c0.31-0.23,0.51-0.39,0.58-0.48c0.07-0.09,0.11-0.18,0.09-0.28
		C72.72,20.22,72.64,20.07,72.49,19.87z"/>
	<path class="st0" d="M77.46,25.03l1.55,3.46l-1.57,0.71l-0.64-1.42l-1.49,0.67l0.57,1.26l-1.5,0.67l-0.57-1.26l-3.3,1.48
		l-0.92-2.04L77.46,25.03z"/>
	<path class="st0" d="M80.11,31.93l-6.6,2l0.39,1.3l-1.65,0.5l-1.04-3.45l8.25-2.5L80.11,31.93z"/>
	<path class="st0" d="M81.47,38.88l-8.36,2.46l-0.32-2.27l1.52-0.33l-0.11-0.79l-1.55,0.08l-0.32-2.29l8.69-0.06L81.47,38.88z
		 M75.82,38.47c0.95-0.25,2.13-0.53,3.54-0.84c-1.67,0-2.88,0.03-3.64,0.08L75.82,38.47z"/>
	<path class="st0" d="M81.54,46.99l-3.85-1.4l-4.77,1.27l0.07-2.31l3.72-0.8l-3.69-0.11l0.07-2.24l8.61,0.26l-0.07,2.24l-3.35-0.1
		l3.32,1.1L81.54,46.99z"/>
	<path class="st0" d="M81.29,48.54l-0.69,3.67l-1.69-0.32l0.28-1.47l-1.61-0.3l-0.26,1.38l-1.61-0.3l0.26-1.38l-1.86-0.35l-0.3,1.62
		l-1.69-0.32l0.72-3.82L81.29,48.54z"/>
	<path class="st0" d="M76.11,57.59l0.69-1.96l0.6,0.21c0.28,0.1,0.47,0.14,0.56,0.11c0.09-0.02,0.16-0.09,0.2-0.21
		c0.04-0.13,0.03-0.24-0.05-0.34c-0.08-0.1-0.23-0.19-0.44-0.26c-0.27-0.1-0.49-0.13-0.65-0.11c-0.16,0.02-0.4,0.16-0.71,0.42
		c-0.89,0.74-1.56,1.17-2,1.29c-0.44,0.12-1.06,0.04-1.86-0.25c-0.58-0.21-0.98-0.42-1.21-0.66s-0.36-0.58-0.41-1.03
		c-0.05-0.45,0.02-0.94,0.2-1.45c0.2-0.57,0.48-1.01,0.83-1.33s0.72-0.49,1.1-0.5c0.37-0.01,0.87,0.1,1.48,0.31l0.53,0.19
		l-0.69,1.96l-0.99-0.35c-0.3-0.11-0.51-0.15-0.62-0.13s-0.18,0.11-0.23,0.25s-0.03,0.26,0.05,0.37s0.24,0.2,0.46,0.28
		c0.48,0.17,0.81,0.21,1.01,0.14c0.19-0.08,0.56-0.32,1.09-0.73c0.53-0.4,0.91-0.66,1.13-0.78c0.22-0.12,0.49-0.18,0.8-0.19
		s0.69,0.06,1.12,0.21c0.62,0.22,1.05,0.46,1.28,0.72s0.37,0.6,0.4,1.01c0.04,0.41-0.03,0.87-0.21,1.37
		c-0.19,0.55-0.45,0.98-0.76,1.31c-0.31,0.32-0.63,0.5-0.94,0.53c-0.31,0.03-0.79-0.07-1.44-0.3L76.11,57.59z"/>
	<path class="st0" d="M74.6,65.6l-7.96-3.54l1.23-1.93l1.37,0.73l0.43-0.68l-1.23-0.94l1.24-1.96l6.66,5.59L74.6,65.6z M70.56,61.62
		c0.88,0.43,1.96,0.98,3.24,1.65c-1.27-1.08-2.21-1.85-2.82-2.3L70.56,61.62z"/>
	<path class="st0" d="M71.59,69.39l-5.22-4.5l-0.89,1.03l-1.31-1.13l2.35-2.73l6.53,5.62L71.59,69.39z"/>
	<path class="st0" d="M64.17,76.09l-5.42-6.7l1.52-1.23l3.66,4.52l-3.06-5.01l1.08-0.87l4.22,3.9l-3.58-4.42l1.52-1.23l5.42,6.7
		l-2.25,1.83c-0.39-0.35-0.85-0.77-1.36-1.26l-1.63-1.5l2.13,3.45L64.17,76.09z"/>
	<path class="st0" d="M55.34,75.1c-0.4-0.77-0.66-1.33-0.79-1.66s-0.17-0.69-0.11-1.05c0.06-0.36,0.21-0.7,0.46-1.01
		c0.25-0.31,0.59-0.57,1.03-0.8c0.41-0.21,0.81-0.33,1.21-0.37s0.76,0.03,1.1,0.2c0.34,0.17,0.61,0.4,0.8,0.69
		c0.2,0.3,0.5,0.84,0.91,1.63l0.67,1.31c0.39,0.77,0.66,1.33,0.79,1.66c0.13,0.34,0.16,0.69,0.11,1.05s-0.21,0.7-0.46,1.01
		c-0.25,0.31-0.59,0.57-1.03,0.8c-0.41,0.21-0.81,0.33-1.21,0.37c-0.4,0.03-0.76-0.03-1.1-0.2s-0.6-0.4-0.8-0.69
		c-0.2-0.3-0.5-0.84-0.91-1.63L55.34,75.1z M58.62,76.6c0.18,0.36,0.32,0.58,0.41,0.65s0.2,0.09,0.32,0.02
		c0.1-0.05,0.16-0.13,0.18-0.24c0.01-0.11-0.08-0.36-0.28-0.75l-1.84-3.58c-0.23-0.45-0.39-0.71-0.48-0.8s-0.2-0.09-0.33-0.03
		c-0.13,0.07-0.19,0.17-0.17,0.31c0.02,0.14,0.15,0.43,0.38,0.89L58.62,76.6z"/>
	<path class="st0" d="M50.96,81.81l-2.5-8.25l1.88-0.57l2.25,3.41l-1.14-3.75l1.79-0.54l2.5,8.25l-1.79,0.54l-2.33-3.35l1.13,3.71
		L50.96,81.81z"/>
	<path class="st0" d="M48.9,82.24l-1.67,0.19c-1.08,0.12-1.81,0.16-2.2,0.1c-0.39-0.06-0.7-0.18-0.92-0.39
		c-0.22-0.2-0.38-0.44-0.46-0.71c-0.08-0.27-0.17-0.81-0.26-1.62l-0.35-3c-0.09-0.77-0.11-1.29-0.07-1.55
		c0.04-0.27,0.15-0.48,0.31-0.65c0.16-0.17,0.37-0.29,0.63-0.38c0.26-0.09,0.65-0.16,1.18-0.23l2.81-0.32L48.9,82.24z M46.51,81.03
		l-0.65-5.63c-0.32,0.04-0.51,0.12-0.57,0.26c-0.06,0.14-0.06,0.49,0.01,1.06l0.38,3.33c0.04,0.39,0.09,0.63,0.12,0.74
		s0.1,0.18,0.2,0.22C46.1,81.05,46.27,81.06,46.51,81.03z"/>
	<path class="st0" d="M39.59,82.77l-3.78-0.37l0.17-1.72l1.55,0.15l0.16-1.63l-1.38-0.13l0.16-1.63l1.38,0.13l0.35-3.6l2.23,0.22
		L39.59,82.77z"/>
	<path class="st0" d="M32.28,81.66l1.53-6.72l-1.33-0.3l0.38-1.68l3.51,0.8l-1.91,8.4L32.28,81.66z"/>
	<path class="st0" d="M25.57,79.4l1.99-8.48l2.13,0.85l-0.46,1.48l0.74,0.3l0.7-1.39l2.15,0.86l-4.25,7.58L25.57,79.4z M28.73,74.7
		c-0.26,0.95-0.6,2.11-1.02,3.49c0.82-1.45,1.4-2.52,1.74-3.2L28.73,74.7z"/>
	<path class="st0" d="M18.47,75.42l3.13-2.64l1.27-4.76l1.97,1.21l-1.16,3.62l1.93-3.15l1.91,1.17l-4.51,7.34l-1.91-1.17l1.75-2.85
		l-2.6,2.33L18.47,75.42z"/>
	<path class="st0" d="M17.26,74.44l-2.84-2.42l1.12-1.31l1.14,0.97l1.06-1.24l-1.06-0.91l1.06-1.25l1.06,0.91l1.23-1.44l-1.25-1.07
		l1.12-1.31l2.96,2.52L17.26,74.44z"/>
	<path class="st0" d="M11.98,65.47l1.36,1.58l-0.48,0.42c-0.23,0.2-0.35,0.34-0.38,0.43s0,0.19,0.08,0.28
		c0.09,0.1,0.2,0.14,0.33,0.12s0.28-0.1,0.45-0.25c0.22-0.19,0.36-0.36,0.42-0.51c0.06-0.15,0.06-0.43-0.02-0.82
		c-0.2-1.14-0.25-1.94-0.13-2.38c0.12-0.44,0.5-0.94,1.14-1.49c0.46-0.4,0.85-0.64,1.17-0.72c0.31-0.08,0.68-0.03,1.1,0.15
		c0.42,0.18,0.81,0.48,1.16,0.89c0.39,0.45,0.64,0.92,0.75,1.38c0.11,0.47,0.07,0.87-0.11,1.2c-0.18,0.33-0.51,0.7-1,1.13
		l-0.43,0.37l-1.36-1.58l0.79-0.68c0.24-0.21,0.38-0.37,0.41-0.47s0-0.21-0.1-0.33c-0.1-0.11-0.21-0.16-0.35-0.14
		s-0.29,0.11-0.47,0.26c-0.38,0.33-0.59,0.6-0.62,0.81c-0.03,0.21,0.01,0.64,0.09,1.3c0.08,0.66,0.12,1.12,0.12,1.36
		c-0.01,0.25-0.08,0.51-0.23,0.79c-0.15,0.28-0.39,0.57-0.74,0.87c-0.5,0.43-0.92,0.68-1.26,0.75c-0.34,0.07-0.7,0.02-1.08-0.15
		c-0.38-0.17-0.74-0.46-1.09-0.86c-0.38-0.44-0.63-0.88-0.76-1.31c-0.13-0.43-0.12-0.79,0.01-1.08c0.13-0.29,0.45-0.66,0.97-1.1
		L11.98,65.47z"/>
	<path class="st0" d="M5.76,60.18l7.02-5.17l1.07,2.02l-1.31,0.83l0.38,0.71l1.43-0.61l1.08,2.05l-8.15,3.02L5.76,60.18z
		 M11.22,58.64c-0.81,0.56-1.82,1.22-3.04,2c1.56-0.57,2.7-1.01,3.4-1.31L11.22,58.64z"/>
	<path class="st0" d="M3.96,55.7l6.49-2.31L10,52.1l1.62-0.58l1.21,3.4l-8.12,2.89L3.96,55.7z"/>
	<path class="st0" d="M1.83,45.9l8.51-1.38l0.31,1.93l-5.74,0.93l5.87-0.16L11,48.6l-5.48,1.72l5.61-0.9l0.31,1.93l-8.51,1.38
		l-0.46-2.86c0.5-0.17,1.09-0.35,1.77-0.55l2.11-0.66L2.3,48.78L1.83,45.9z"/>
	<path class="st0" d="M7.06,38.75c0.86,0.04,1.48,0.09,1.83,0.14s0.68,0.2,0.97,0.43c0.29,0.23,0.5,0.53,0.65,0.9
		c0.14,0.37,0.2,0.8,0.18,1.29c-0.02,0.46-0.11,0.87-0.28,1.23c-0.17,0.36-0.41,0.65-0.72,0.86s-0.65,0.33-1,0.35
		s-0.98,0.02-1.86-0.02l-1.47-0.07c-0.86-0.04-1.48-0.09-1.83-0.14s-0.68-0.2-0.97-0.43c-0.29-0.23-0.5-0.53-0.65-0.9
		c-0.14-0.37-0.2-0.8-0.18-1.29c0.02-0.46,0.11-0.87,0.28-1.23c0.17-0.36,0.41-0.65,0.72-0.85c0.31-0.21,0.65-0.33,1-0.36
		c0.36-0.03,0.98-0.02,1.86,0.02L7.06,38.75z M4.14,40.87c-0.4-0.02-0.66-0.01-0.77,0.03c-0.11,0.04-0.17,0.13-0.18,0.27
		c-0.01,0.12,0.04,0.21,0.12,0.27c0.09,0.07,0.35,0.11,0.8,0.13l4.02,0.18c0.5,0.02,0.81,0.02,0.93-0.02
		c0.12-0.04,0.18-0.13,0.19-0.28c0.01-0.15-0.06-0.25-0.19-0.3c-0.13-0.05-0.45-0.08-0.96-0.11L4.14,40.87z"/>
	<path class="st0" d="M3.41,31.62l8.4,1.91l-0.43,1.92L7.3,35.71l3.82,0.87l-0.41,1.83L2.3,36.5l0.41-1.83l4.06-0.37L3,33.45
		L3.41,31.62z"/>
	<path class="st0" d="M4.05,29.63l0.66-1.54c0.42-1,0.76-1.65,1-1.96c0.24-0.31,0.5-0.51,0.79-0.61c0.29-0.09,0.57-0.11,0.84-0.05
		c0.28,0.06,0.79,0.26,1.54,0.58l2.78,1.18c0.71,0.3,1.17,0.54,1.38,0.71c0.21,0.17,0.35,0.37,0.41,0.59
		c0.06,0.22,0.07,0.47,0.02,0.74c-0.05,0.27-0.18,0.65-0.39,1.14l-1.11,2.6L4.05,29.63z M6.28,28.15l5.21,2.22
		c0.13-0.3,0.15-0.5,0.06-0.62c-0.09-0.12-0.4-0.29-0.93-0.52l-3.08-1.31c-0.36-0.15-0.59-0.24-0.7-0.26
		c-0.11-0.02-0.21,0-0.29,0.06C6.47,27.78,6.38,27.92,6.28,28.15z"/>
	<path class="st0" d="M8.2,21.27l2.19-3.1l1.41,1l-0.9,1.27l1.33,0.94l0.8-1.13l1.34,0.95l-0.8,1.13l2.95,2.09l-1.3,1.83L8.2,21.27z
		"/>
	<path class="st0" d="M12.81,15.46l5.07,4.67l0.92-1l1.27,1.17l-2.44,2.65l-6.34-5.83L12.81,15.46z"/>
	<path class="st0" d="M18.08,10.77l6.38,5.93l-1.79,1.43L21.61,17l-0.63,0.5l0.86,1.29l-1.81,1.45l-4.49-7.44L18.08,10.77z
		 M20.61,15.84c-0.7-0.69-1.54-1.56-2.53-2.61c0.85,1.43,1.49,2.46,1.92,3.1L20.61,15.84z"/>
	<path class="st0" d="M25.06,6.56l0.75,4.03l3.51,3.46l-2.03,1.12l-2.58-2.8l1.78,3.24l-1.96,1.08l-4.15-7.55l1.96-1.08l1.61,2.93
		l-0.74-3.41L25.06,6.56z"/>
	<path class="st0" d="M26.5,6l3.51-1.27l0.59,1.62L29.2,6.86l0.55,1.54l1.32-0.48l0.56,1.54l-1.32,0.48l0.64,1.78l1.55-0.56
		l0.59,1.62l-3.65,1.32L26.5,6z"/>
	<path class="st0" d="M36.92,5.87l-2.04,0.4l-0.12-0.63c-0.06-0.29-0.12-0.47-0.19-0.54S34.41,5,34.29,5.02
		c-0.13,0.03-0.22,0.1-0.27,0.22c-0.05,0.12-0.05,0.29-0.01,0.51c0.06,0.28,0.13,0.49,0.24,0.62c0.1,0.13,0.34,0.26,0.72,0.4
		c1.09,0.39,1.8,0.75,2.13,1.07c0.33,0.32,0.57,0.9,0.73,1.73c0.12,0.6,0.13,1.06,0.05,1.37s-0.31,0.61-0.68,0.88
		s-0.82,0.46-1.35,0.56c-0.59,0.11-1.11,0.1-1.57-0.04c-0.46-0.14-0.79-0.37-0.98-0.69c-0.2-0.32-0.36-0.8-0.48-1.43l-0.11-0.55
		l2.04-0.4l0.2,1.03c0.06,0.32,0.13,0.52,0.21,0.59c0.07,0.08,0.19,0.1,0.33,0.08c0.15-0.03,0.24-0.11,0.29-0.24
		c0.05-0.13,0.05-0.31,0.01-0.53c-0.1-0.5-0.23-0.81-0.39-0.94c-0.17-0.13-0.56-0.32-1.18-0.57c-0.62-0.26-1.03-0.45-1.24-0.58
		c-0.21-0.13-0.4-0.33-0.57-0.59c-0.17-0.27-0.3-0.62-0.39-1.07c-0.13-0.65-0.14-1.14-0.03-1.47c0.11-0.33,0.33-0.62,0.67-0.86
		c0.34-0.24,0.77-0.41,1.29-0.51c0.57-0.11,1.08-0.11,1.51-0.01c0.44,0.11,0.75,0.29,0.94,0.54c0.19,0.25,0.34,0.72,0.47,1.39
		L36.92,5.87z"/>
</g>
</svg>
