<?xml version="1.0" encoding="utf-8"?>
<!-- Generator: Adobe Illustrator 23.1.0, SVG Export Plug-In . SVG Version: 6.00 Build 0)  -->
<svg version="1.1" id="Layer_1" xmlns="http://www.w3.org/2000/svg" xmlns:xlink="http://www.w3.org/1999/xlink" x="0px" y="0px"
	 viewBox="0 0 90 90" style="enable-background:new 0 0 90 90;" xml:space="preserve">
<style type="text/css">
	.st0{fill:#FFFFFF;}
</style>
<g>
	<path class="st0" d="M36.45,5.41l1.88-0.2c0.59-0.06,1.05-0.07,1.36-0.01c0.31,0.06,0.58,0.22,0.8,0.48
		c0.22,0.26,0.36,0.7,0.43,1.33c0.05,0.42,0.01,0.72-0.1,0.91c-0.11,0.18-0.36,0.34-0.74,0.47c0.45,0.05,0.76,0.18,0.94,0.39
		c0.18,0.21,0.29,0.55,0.35,1.02l0.07,0.67c0.05,0.49,0.04,0.86-0.05,1.1c-0.09,0.25-0.25,0.43-0.48,0.54
		c-0.23,0.11-0.73,0.21-1.49,0.29l-2.18,0.23L36.45,5.41z M38.46,6.45l0.17,1.61c0.08-0.01,0.14-0.02,0.19-0.02
		c0.18-0.02,0.3-0.08,0.34-0.17c0.04-0.1,0.04-0.36-0.01-0.79c-0.02-0.23-0.06-0.38-0.11-0.47s-0.11-0.14-0.18-0.15
		C38.79,6.43,38.66,6.43,38.46,6.45z M38.76,9.18l0.22,2.02c0.26-0.04,0.43-0.1,0.49-0.18s0.08-0.27,0.05-0.56l-0.07-0.67
		c-0.03-0.31-0.09-0.49-0.16-0.55C39.21,9.18,39.04,9.16,38.76,9.18z"/>
	<path class="st0" d="M42.32,4.9l1.34,0.05c0.89,0.03,1.49,0.09,1.81,0.17c0.31,0.08,0.56,0.27,0.75,0.56
		c0.19,0.29,0.27,0.75,0.25,1.36c-0.02,0.57-0.11,0.94-0.25,1.13s-0.43,0.3-0.84,0.32c0.37,0.11,0.62,0.24,0.74,0.4
		c0.12,0.16,0.2,0.31,0.22,0.44s0.03,0.49,0.01,1.08l-0.07,1.92l-1.76-0.06l0.09-2.42c0.01-0.39-0.01-0.63-0.07-0.73
		c-0.06-0.09-0.22-0.15-0.48-0.16l-0.12,3.28l-1.89-0.07L42.32,4.9z M44.17,6.21l-0.06,1.62c0.21,0.01,0.36-0.02,0.45-0.07
		c0.09-0.06,0.14-0.24,0.15-0.56l0.01-0.4c0.01-0.23-0.03-0.38-0.11-0.46C44.53,6.26,44.39,6.22,44.17,6.21z"/>
	<path class="st0" d="M51.57,10.18c-0.13,0.72-0.24,1.22-0.33,1.52c-0.09,0.29-0.24,0.55-0.47,0.76c-0.22,0.22-0.5,0.36-0.83,0.44
		c-0.33,0.08-0.69,0.08-1.1,0c-0.38-0.07-0.71-0.2-1-0.38s-0.49-0.41-0.63-0.7s-0.2-0.58-0.18-0.88c0.02-0.3,0.09-0.82,0.23-1.56
		l0.22-1.22c0.13-0.72,0.24-1.22,0.33-1.52c0.09-0.29,0.24-0.55,0.47-0.76c0.22-0.21,0.5-0.36,0.83-0.44
		c0.33-0.08,0.69-0.08,1.1-0.01c0.38,0.07,0.72,0.2,1,0.38c0.28,0.18,0.49,0.41,0.63,0.7s0.2,0.58,0.18,0.88
		C52,7.7,51.92,8.22,51.79,8.96L51.57,10.18z M50.13,7.49c0.06-0.33,0.08-0.55,0.06-0.65c-0.02-0.1-0.09-0.16-0.2-0.18
		c-0.1-0.02-0.18,0.01-0.24,0.07c-0.07,0.07-0.13,0.28-0.2,0.65l-0.61,3.34c-0.08,0.42-0.11,0.67-0.09,0.78
		c0.02,0.1,0.09,0.17,0.21,0.19c0.13,0.02,0.22-0.02,0.27-0.12c0.06-0.11,0.12-0.37,0.2-0.79L50.13,7.49z"/>
	<path class="st0" d="M60.73,8.91l-3.38,6.49l-2.21-0.84c0.2-1.12,0.47-2.38,0.83-3.77c-0.29,0.54-0.91,1.67-1.85,3.37l-2.19-0.84
		l1.8-7.1l1.72,0.66l-0.72,2.44l-0.69,2.36c0.52-1.16,1.27-2.65,2.27-4.48l1.83,0.7c-0.05,0.21-0.27,0.98-0.66,2.31l-0.79,2.66
		c0.73-1.61,1.51-3.15,2.34-4.64L60.73,8.91z"/>
	<path class="st0" d="M65.54,11.87l-3.79,6.21l-1.41-0.86l0.88-3.33L59.5,16.7l-1.35-0.82l3.79-6.21l1.35,0.82l-0.8,3.35l1.71-2.79
		L65.54,11.87z"/>
	<path class="st0" d="M68.33,13.97l0.99,0.91c0.66,0.6,1.08,1.04,1.26,1.3c0.19,0.26,0.26,0.57,0.21,0.91
		c-0.04,0.34-0.28,0.74-0.7,1.2c-0.38,0.42-0.69,0.65-0.93,0.7c-0.24,0.05-0.52-0.05-0.85-0.3c0.21,0.32,0.31,0.58,0.3,0.79
		s-0.05,0.36-0.11,0.48s-0.3,0.39-0.69,0.82l-1.3,1.41l-1.29-1.19l1.64-1.78c0.26-0.29,0.4-0.48,0.42-0.59s-0.07-0.25-0.26-0.43
		l-2.22,2.41l-1.39-1.28L68.33,13.97z M68.88,16.17l-1.09,1.19c0.16,0.14,0.29,0.22,0.39,0.24c0.1,0.01,0.26-0.1,0.48-0.33
		l0.27-0.29c0.16-0.17,0.23-0.31,0.22-0.42C69.12,16.44,69.04,16.32,68.88,16.17z"/>
	<path class="st0" d="M73.58,19.29l-5.5,4.76l-1.24-1.43l5.5-4.76L73.58,19.29z"/>
	<path class="st0" d="M74.37,25.81l-1.06-1.56l1.04-0.71c0.3-0.21,0.48-0.35,0.54-0.44c0.05-0.08,0.04-0.18-0.04-0.3
		c-0.09-0.13-0.19-0.18-0.3-0.15c-0.12,0.03-0.33,0.15-0.63,0.35l-2.79,1.9c-0.29,0.2-0.47,0.35-0.54,0.44s-0.06,0.2,0.03,0.32
		c0.08,0.12,0.18,0.16,0.29,0.14c0.11-0.02,0.34-0.15,0.67-0.37l0.76-0.51l1.06,1.56l-0.23,0.16c-0.62,0.42-1.09,0.68-1.41,0.77
		c-0.32,0.09-0.68,0.05-1.08-0.12c-0.4-0.17-0.75-0.47-1.05-0.91c-0.31-0.46-0.49-0.89-0.52-1.3c-0.04-0.41,0.06-0.76,0.29-1.06
		c0.23-0.3,0.64-0.64,1.23-1.04l1.76-1.19c0.43-0.29,0.77-0.5,1.01-0.62c0.24-0.12,0.51-0.17,0.81-0.16c0.3,0.01,0.6,0.11,0.89,0.29
		c0.29,0.18,0.55,0.44,0.79,0.78c0.31,0.46,0.48,0.9,0.51,1.32c0.03,0.42-0.06,0.77-0.26,1.04c-0.2,0.27-0.58,0.6-1.15,0.98
		L74.37,25.81z"/>
	<path class="st0" d="M77.69,25.32l1.4,2.82l-1.3,0.65l-0.56-1.13l-1.24,0.61l0.53,1.06l-1.24,0.62l-0.53-1.06l-1.43,0.71l0.62,1.24
		l-1.3,0.65l-1.46-2.94L77.69,25.32z"/>
	<path class="st0" d="M80.27,31.15l0.93,3.06l-1.39,0.42l-0.38-1.25l-1.32,0.4l0.34,1.12l-1.32,0.4l-0.34-1.12l-2.92,0.89
		l-0.55-1.81L80.27,31.15z"/>
	<path class="st0" d="M81.79,37.15l-5.72,1.06l0.21,1.13l-1.43,0.27l-0.56-2.99l7.15-1.33L81.79,37.15z"/>
	<path class="st0" d="M82.35,42.98l-7.21,1.45l-0.1-1.93l1.3-0.17l-0.03-0.68L75,41.61l-0.1-1.95l7.31,0.59L82.35,42.98z
		 M77.63,42.21c0.82-0.14,1.83-0.29,3.04-0.44c-1.4-0.12-2.42-0.19-3.07-0.21L77.63,42.21z"/>
	<path class="st0" d="M81.93,49.69l-3.17-1.39l-4.08,0.8l0.19-1.95l3.18-0.46l-3.1-0.3l0.18-1.88l7.24,0.69l-0.18,1.88l-2.81-0.27
		l2.73,1.11L81.93,49.69z"/>
	<path class="st0" d="M81.68,50.87l-0.72,3.07l-1.42-0.33l0.29-1.23l-1.34-0.32l-0.27,1.15l-1.35-0.32l0.27-1.15l-1.56-0.37
		l-0.32,1.35l-1.42-0.33l0.75-3.19L81.68,50.87z"/>
	<path class="st0" d="M79.93,57.15l-0.77,1.72c-0.24,0.54-0.47,0.94-0.68,1.18c-0.21,0.24-0.48,0.39-0.82,0.45s-0.79-0.04-1.36-0.3
		c-0.39-0.17-0.63-0.35-0.73-0.54c-0.1-0.19-0.11-0.48-0.03-0.88c-0.27,0.36-0.54,0.56-0.81,0.61c-0.27,0.05-0.63-0.02-1.06-0.22
		l-0.62-0.27c-0.45-0.2-0.76-0.4-0.93-0.6c-0.17-0.2-0.25-0.43-0.22-0.69s0.19-0.74,0.5-1.43l0.89-2L79.93,57.15z M75.51,57.25
		l-1.86-0.83c-0.1,0.25-0.13,0.42-0.09,0.52c0.04,0.1,0.19,0.21,0.46,0.33l0.62,0.28c0.28,0.13,0.47,0.17,0.56,0.14
		S75.39,57.5,75.51,57.25z M78.02,58.37l-1.48-0.66c-0.03,0.08-0.05,0.13-0.07,0.17c-0.08,0.17-0.08,0.3-0.02,0.38
		c0.06,0.08,0.29,0.21,0.68,0.39c0.21,0.09,0.36,0.14,0.46,0.14s0.17-0.03,0.22-0.08C77.88,58.66,77.94,58.54,78.02,58.37z"/>
	<path class="st0" d="M77.38,62.54l-0.72,1.13c-0.48,0.75-0.84,1.24-1.07,1.47c-0.23,0.23-0.52,0.35-0.86,0.36
		c-0.35,0.01-0.78-0.15-1.3-0.48c-0.48-0.31-0.76-0.57-0.84-0.8c-0.09-0.22-0.04-0.52,0.16-0.89c-0.28,0.26-0.52,0.41-0.72,0.43
		c-0.2,0.02-0.36,0.01-0.49-0.03c-0.13-0.04-0.44-0.23-0.93-0.54l-1.61-1.04l0.95-1.48l2.03,1.31c0.33,0.21,0.55,0.32,0.66,0.31
		c0.11,0,0.24-0.11,0.38-0.33l-2.76-1.78l1.03-1.59L77.38,62.54z M75.31,63.45l-1.36-0.88c-0.12,0.18-0.17,0.32-0.17,0.42
		s0.14,0.24,0.41,0.42l0.34,0.22c0.19,0.13,0.34,0.17,0.45,0.14C75.08,63.74,75.19,63.63,75.31,63.45z"/>
	<path class="st0" d="M68.08,67.78c-0.55-0.48-0.92-0.84-1.13-1.07c-0.21-0.23-0.34-0.49-0.41-0.79c-0.07-0.3-0.05-0.61,0.05-0.93
		s0.29-0.63,0.56-0.94c0.26-0.29,0.54-0.51,0.84-0.66c0.3-0.15,0.61-0.21,0.92-0.18c0.32,0.03,0.6,0.13,0.85,0.3s0.65,0.5,1.21,1
		l0.93,0.82c0.55,0.48,0.92,0.84,1.13,1.07c0.21,0.23,0.34,0.49,0.41,0.79c0.07,0.3,0.05,0.61-0.05,0.93
		c-0.1,0.32-0.29,0.63-0.56,0.94c-0.26,0.29-0.54,0.51-0.84,0.66c-0.3,0.15-0.61,0.21-0.92,0.18c-0.32-0.03-0.6-0.13-0.85-0.3
		c-0.25-0.17-0.65-0.5-1.21-1L68.08,67.78z M71.12,67.95c0.25,0.22,0.43,0.35,0.52,0.39s0.18,0.01,0.26-0.08
		c0.07-0.07,0.09-0.16,0.06-0.25s-0.17-0.26-0.46-0.51l-2.54-2.25c-0.32-0.28-0.52-0.44-0.62-0.48c-0.1-0.04-0.19-0.01-0.27,0.08
		c-0.08,0.1-0.1,0.2-0.04,0.3s0.25,0.29,0.57,0.58L71.12,67.95z"/>
	<path class="st0" d="M64.43,76.27l-3.8-6.26l1.86-1.45c0.86,0.75,1.79,1.64,2.79,2.66c-0.32-0.53-0.96-1.64-1.93-3.33l1.85-1.44
		l5.13,5.22l-1.45,1.13l-1.72-1.88l-1.66-1.82c0.72,1.04,1.61,2.46,2.65,4.26l-1.55,1.21c-0.15-0.15-0.7-0.74-1.64-1.77l-1.86-2.06
		c1,1.46,1.92,2.92,2.76,4.4L64.43,76.27z"/>
	<path class="st0" d="M59.4,78.85l-3.34-6.46l1.47-0.76l2.39,2.49l-1.52-2.94l1.41-0.73l3.34,6.46l-1.4,0.73l-2.45-2.42l1.5,2.91
		L59.4,78.85z"/>
	<path class="st0" d="M56.16,80.14l-1.29,0.37c-0.86,0.25-1.45,0.38-1.77,0.41c-0.32,0.02-0.62-0.08-0.89-0.29
		c-0.27-0.22-0.49-0.62-0.67-1.22c-0.16-0.54-0.2-0.93-0.12-1.15c0.08-0.23,0.31-0.42,0.7-0.57c-0.38,0.02-0.66-0.03-0.83-0.15
		s-0.28-0.23-0.35-0.34s-0.18-0.46-0.35-1.02l-0.54-1.84l1.69-0.49l0.67,2.32c0.11,0.37,0.21,0.6,0.29,0.67
		c0.08,0.07,0.25,0.07,0.5,0l-0.92-3.15l1.82-0.53L56.16,80.14z M54,79.47l-0.45-1.55c-0.2,0.06-0.34,0.13-0.4,0.21
		c-0.07,0.08-0.05,0.27,0.04,0.58l0.11,0.38c0.06,0.22,0.15,0.35,0.25,0.4C53.63,79.54,53.79,79.53,54,79.47z"/>
	<path class="st0" d="M48.89,81.88l-1.24-7.17l1.86-0.32l1.24,7.17L48.89,81.88z"/>
	<path class="st0" d="M42.93,79.21l1.89-0.11l0.08,1.26c0.02,0.37,0.06,0.59,0.1,0.68c0.05,0.09,0.14,0.13,0.27,0.12
		c0.16-0.01,0.25-0.07,0.29-0.18s0.04-0.35,0.02-0.72l-0.2-3.37c-0.02-0.35-0.06-0.58-0.1-0.69c-0.05-0.1-0.15-0.15-0.29-0.14
		c-0.14,0.01-0.23,0.07-0.27,0.18c-0.04,0.11-0.04,0.36-0.02,0.76l0.05,0.91l-1.89,0.11l-0.02-0.28c-0.04-0.75-0.02-1.29,0.06-1.61
		c0.09-0.32,0.31-0.61,0.65-0.87c0.35-0.26,0.79-0.4,1.32-0.44c0.55-0.03,1.01,0.04,1.39,0.22c0.37,0.18,0.63,0.44,0.76,0.79
		c0.14,0.35,0.23,0.88,0.27,1.59l0.13,2.12c0.03,0.52,0.04,0.92,0.02,1.18s-0.11,0.52-0.28,0.77s-0.4,0.46-0.71,0.62
		c-0.31,0.16-0.67,0.25-1.07,0.27c-0.56,0.03-1.02-0.05-1.4-0.24s-0.63-0.45-0.76-0.76c-0.13-0.31-0.22-0.81-0.26-1.49L42.93,79.21z
		"/>
	<path class="st0" d="M41.71,82.32l-3.15-0.21l0.1-1.45l1.26,0.09l0.09-1.38l-1.18-0.08l0.09-1.38l1.18,0.08l0.11-1.6l-1.38-0.09
		l0.1-1.45l3.27,0.22L41.71,82.32z"/>
	<path class="st0" d="M35.41,81.63l-3.12-0.71l0.32-1.42l1.28,0.29l0.31-1.34l-1.14-0.26l0.31-1.35l1.14,0.26l0.68-2.98l1.84,0.42
		L35.41,81.63z"/>
	<path class="st0" d="M29.49,80l1.88-5.5l-1.09-0.37l0.47-1.38l2.88,0.98l-2.35,6.88L29.49,80z"/>
	<path class="st0" d="M24.15,77.66l2.24-7l1.73,0.85l-0.49,1.22l0.61,0.3l0.68-1.12l1.75,0.86l-4.07,6.1L24.15,77.66z M27.11,73.9
		c-0.28,0.78-0.64,1.74-1.09,2.87c0.79-1.16,1.34-2.03,1.67-2.58L27.11,73.9z"/>
	<path class="st0" d="M18.49,74.05l2.75-2.1l1.27-3.96l1.61,1.1l-1.12,3.01l1.76-2.58l1.56,1.07l-4.1,6.01l-1.56-1.07l1.59-2.33
		l-2.29,1.86L18.49,74.05z"/>
	<path class="st0" d="M17.61,73.3l-2.35-2.1l0.97-1.09l0.94,0.84l0.92-1.03l-0.88-0.79l0.92-1.03l0.88,0.79l1.06-1.19l-1.04-0.92
		L20,65.69l2.45,2.18L17.61,73.3z"/>
	<path class="st0" d="M12.95,68.8l-1.16-1.49c-0.37-0.47-0.61-0.85-0.72-1.15c-0.12-0.3-0.12-0.61-0.01-0.93
		c0.11-0.32,0.41-0.68,0.91-1.06c0.34-0.26,0.61-0.39,0.82-0.39c0.21,0,0.48,0.13,0.79,0.38c-0.19-0.41-0.24-0.74-0.16-1
		c0.09-0.26,0.31-0.54,0.69-0.83l0.53-0.41c0.39-0.3,0.71-0.48,0.97-0.54c0.26-0.06,0.49-0.01,0.71,0.13
		c0.22,0.14,0.56,0.51,1.03,1.11l1.34,1.73L12.95,68.8z M12.77,66.55l1.28-0.99c-0.05-0.06-0.09-0.11-0.12-0.15
		c-0.11-0.15-0.22-0.21-0.33-0.2c-0.1,0.02-0.33,0.16-0.67,0.42c-0.18,0.14-0.29,0.25-0.34,0.34s-0.06,0.17-0.04,0.24
		C12.58,66.28,12.65,66.39,12.77,66.55z M14.94,64.86l1.61-1.25c-0.17-0.21-0.31-0.31-0.41-0.33c-0.1-0.01-0.27,0.07-0.5,0.25
		l-0.54,0.42c-0.25,0.19-0.37,0.33-0.39,0.43C14.69,64.47,14.77,64.63,14.94,64.86z"/>
	<path class="st0" d="M9.39,64.02l-0.65-1.17c-0.43-0.78-0.7-1.32-0.79-1.63c-0.09-0.31-0.07-0.62,0.08-0.93
		c0.15-0.31,0.5-0.62,1.04-0.92c0.49-0.28,0.86-0.4,1.1-0.37c0.24,0.03,0.48,0.21,0.71,0.55c-0.1-0.37-0.12-0.65-0.04-0.84
		s0.16-0.33,0.26-0.42c0.1-0.09,0.4-0.28,0.92-0.56l1.68-0.93l0.86,1.53l-2.11,1.18c-0.34,0.19-0.54,0.33-0.59,0.43
		s-0.01,0.26,0.11,0.49l2.86-1.6l0.92,1.65L9.39,64.02z M9.55,61.76l1.41-0.79c-0.1-0.19-0.2-0.3-0.29-0.35
		c-0.09-0.05-0.28,0.01-0.56,0.17l-0.35,0.19c-0.2,0.11-0.31,0.22-0.34,0.33C9.4,61.42,9.45,61.57,9.55,61.76z"/>
	<path class="st0" d="M9.15,53.34c0.69-0.25,1.18-0.42,1.47-0.49c0.3-0.07,0.6-0.07,0.89,0.01c0.3,0.08,0.56,0.25,0.8,0.49
		c0.23,0.24,0.42,0.56,0.56,0.94c0.14,0.37,0.2,0.71,0.19,1.05c-0.01,0.33-0.1,0.63-0.28,0.9c-0.17,0.27-0.39,0.47-0.66,0.6
		c-0.27,0.14-0.75,0.34-1.46,0.6L9.5,57.87c-0.69,0.25-1.18,0.42-1.47,0.49c-0.3,0.07-0.59,0.07-0.89-0.01
		c-0.3-0.08-0.56-0.24-0.8-0.49c-0.23-0.24-0.42-0.56-0.56-0.94c-0.14-0.37-0.2-0.72-0.19-1.05c0.01-0.33,0.1-0.63,0.28-0.9
		c0.17-0.26,0.39-0.47,0.66-0.6c0.27-0.14,0.75-0.34,1.46-0.6L9.15,53.34z M7.56,55.94c-0.32,0.12-0.51,0.21-0.59,0.28
		c-0.08,0.07-0.09,0.16-0.05,0.27c0.03,0.09,0.1,0.15,0.19,0.17c0.09,0.02,0.31-0.03,0.66-0.16l3.18-1.18
		c0.4-0.15,0.63-0.25,0.71-0.32s0.1-0.16,0.06-0.28c-0.04-0.12-0.13-0.18-0.25-0.17s-0.38,0.08-0.78,0.23L7.56,55.94z"/>
	<path class="st0" d="M3.44,46.07l7.31-0.34l0.38,2.33c-1.07,0.39-2.29,0.79-3.67,1.18c0.62-0.02,1.9-0.05,3.85-0.09l0.38,2.32
		l-7.04,2l-0.3-1.81l2.47-0.6l2.39-0.59c-1.26,0.14-2.93,0.23-5.01,0.29l-0.32-1.94c0.21-0.06,0.98-0.26,2.33-0.59l2.7-0.65
		c-1.75,0.18-3.48,0.28-5.18,0.31L3.44,46.07z"/>
	<path class="st0" d="M3.62,40.37l7.27,0.22l-0.05,1.66l-3.33,0.88l3.3,0.1l-0.05,1.58L3.5,44.59l0.05-1.58l3.31-0.96l-3.27-0.1
		L3.62,40.37z"/>
	<path class="st0" d="M4.09,36.85l0.31-1.3c0.21-0.87,0.38-1.45,0.52-1.74s0.37-0.5,0.69-0.63C5.93,33.05,6.39,33.06,7,33.2
		c0.55,0.13,0.9,0.29,1.06,0.47s0.21,0.48,0.15,0.89c0.18-0.34,0.36-0.56,0.54-0.65s0.34-0.13,0.47-0.13c0.13,0,0.49,0.07,1.06,0.2
		l1.87,0.44l-0.41,1.71l-2.35-0.56C9,35.48,8.76,35.46,8.66,35.5c-0.1,0.04-0.19,0.18-0.25,0.44l3.19,0.76l-0.44,1.84L4.09,36.85z
		 M5.74,35.3l1.57,0.37c0.05-0.21,0.06-0.36,0.02-0.46c-0.04-0.1-0.21-0.18-0.52-0.26l-0.39-0.09c-0.22-0.05-0.38-0.05-0.47,0.02
		S5.79,35.08,5.74,35.3z"/>
	<path class="st0" d="M6.19,29.65l6.83,2.5l-0.65,1.78l-6.83-2.5L6.19,29.65z"/>
	<path class="st0" d="M11.51,25.81l-0.86,1.69l-1.13-0.57c-0.33-0.17-0.54-0.25-0.64-0.26c-0.1-0.01-0.18,0.05-0.24,0.18
		c-0.07,0.14-0.07,0.25,0.01,0.34s0.28,0.21,0.61,0.38l3.01,1.53c0.32,0.16,0.53,0.25,0.65,0.26c0.12,0.01,0.21-0.05,0.27-0.18
		c0.06-0.13,0.06-0.23-0.02-0.32s-0.29-0.22-0.65-0.4l-0.81-0.41l0.86-1.69l0.25,0.13c0.67,0.34,1.12,0.63,1.36,0.87
		c0.23,0.24,0.37,0.57,0.42,1s-0.05,0.89-0.29,1.36c-0.25,0.49-0.55,0.86-0.89,1.08s-0.7,0.32-1.07,0.26
		c-0.37-0.06-0.87-0.25-1.51-0.57l-1.89-0.96c-0.47-0.24-0.81-0.43-1.03-0.58c-0.22-0.15-0.39-0.36-0.53-0.63
		c-0.14-0.27-0.19-0.58-0.17-0.92s0.12-0.7,0.31-1.07c0.25-0.5,0.56-0.86,0.91-1.08c0.36-0.23,0.7-0.32,1.04-0.27
		c0.34,0.04,0.81,0.22,1.42,0.53L11.51,25.81z"/>
	<path class="st0" d="M9.48,23.15l1.8-2.59l1.2,0.83l-0.72,1.04l1.13,0.79l0.67-0.97l1.14,0.79L14.02,24l1.31,0.91l0.79-1.14
		l1.2,0.83l-1.87,2.7L9.48,23.15z"/>
	<path class="st0" d="M13.33,18.07l2.22-2.3l1.05,1.01l-0.91,0.94l0.99,0.96l0.81-0.84l1,0.96l-0.81,0.84l2.2,2.12l-1.31,1.36
		L13.33,18.07z"/>
	<path class="st0" d="M17.79,13.85l3.73,4.46l0.88-0.74l0.93,1.12l-2.33,1.95l-4.67-5.58L17.79,13.85z"/>
	<path class="st0" d="M22.57,10.49l4.83,5.54l-1.63,1.04l-0.79-1.05l-0.57,0.36l0.61,1.16l-1.65,1.05l-3.1-6.65L22.57,10.49z
		 M24.24,14.97c-0.52-0.64-1.15-1.45-1.89-2.42c0.59,1.28,1.03,2.2,1.34,2.77L24.24,14.97z"/>
	<path class="st0" d="M28.57,7.52l0.37,3.44l2.73,3.14l-1.78,0.81l-1.99-2.52l1.29,2.84l-1.72,0.78l-3.02-6.62l1.72-0.78l1.17,2.57
		l-0.41-2.92L28.57,7.52z"/>
	<path class="st0" d="M29.69,7.16l3.01-0.93l0.43,1.39L31.93,8l0.41,1.32l1.13-0.35l0.41,1.32l-1.13,0.35l0.47,1.53l1.33-0.41
		l0.43,1.39l-3.13,0.96L29.69,7.16z"/>
</g>
</svg>
