<?xml version="1.0" encoding="utf-8"?>
<!-- Generator: Adobe Illustrator 23.1.0, SVG Export Plug-In . SVG Version: 6.00 Build 0)  -->
<svg version="1.1" id="Layer_1" xmlns="http://www.w3.org/2000/svg" xmlns:xlink="http://www.w3.org/1999/xlink" x="0px" y="0px"
	 viewBox="0 0 90 90" style="enable-background:new 0 0 90 90;" xml:space="preserve">
<style type="text/css">
	.st0{fill:#FFFFFF;}
</style>
<g>
	<path class="st0" d="M50.39,13.91l-2.51-0.28l0.19-1.68c0.05-0.49,0.06-0.8,0.02-0.92c-0.04-0.13-0.15-0.2-0.33-0.22
		c-0.21-0.02-0.35,0.04-0.42,0.18s-0.13,0.46-0.19,0.95l-0.5,4.49c-0.05,0.47-0.06,0.78-0.02,0.93c0.04,0.15,0.16,0.24,0.35,0.26
		c0.19,0.02,0.32-0.04,0.39-0.17c0.07-0.14,0.14-0.47,0.2-1l0.14-1.21l2.51,0.28l-0.04,0.38c-0.11,1-0.26,1.7-0.45,2.1
		c-0.19,0.4-0.54,0.73-1.06,0.99c-0.52,0.26-1.13,0.35-1.84,0.27c-0.74-0.08-1.33-0.28-1.77-0.6c-0.45-0.32-0.72-0.72-0.83-1.21
		s-0.1-1.21,0.01-2.15l0.32-2.82c0.08-0.7,0.16-1.22,0.25-1.56c0.09-0.34,0.27-0.66,0.54-0.96c0.27-0.3,0.63-0.51,1.07-0.65
		c0.44-0.14,0.93-0.18,1.48-0.12c0.74,0.08,1.33,0.29,1.78,0.63s0.73,0.73,0.83,1.18c0.1,0.44,0.1,1.12,0,2.02L50.39,13.91z"/>
	<path class="st0" d="M58.91,12.23l-3.23,9.17l-2.38-0.84l1.36-3.85l-0.71-0.25l-1.36,3.85l-2.38-0.84l3.23-9.17l2.38,0.84
		l-1.16,3.28l0.71,0.25l1.16-3.28L58.91,12.23z"/>
	<path class="st0" d="M61.16,13.38l3.62,2.16l-1,1.67l-1.45-0.86l-0.94,1.58l1.36,0.81l-0.95,1.59l-1.36-0.81l-1.09,1.84l1.59,0.95
		l-1,1.67l-3.77-2.25L61.16,13.38z"/>
	<path class="st0" d="M70.5,20.25l-3.5,2.65l-2.57,4.96l-1.76-1.55c0.43-0.91,1.02-1.97,1.76-3.17c-0.45,0.42-0.95,0.85-1.49,1.3
		l-1.22,1.03l-1.85-1.62l4.27-3.47l2.15-3.84l1.84,1.61c-0.14,0.23-0.37,0.62-0.69,1.18c-0.23,0.43-0.46,0.81-0.67,1.16l2.16-1.64
		L70.5,20.25z"/>
	<path class="st0" d="M73.46,31.35l-1.36-2.13l1.42-0.91c0.41-0.26,0.66-0.45,0.73-0.56s0.06-0.24-0.04-0.4
		c-0.11-0.18-0.25-0.25-0.4-0.21c-0.16,0.03-0.44,0.18-0.86,0.45l-3.81,2.43c-0.4,0.25-0.64,0.44-0.73,0.57
		c-0.09,0.12-0.08,0.27,0.02,0.44c0.1,0.16,0.23,0.22,0.38,0.19c0.15-0.03,0.45-0.19,0.9-0.47l1.03-0.66l1.36,2.13l-0.32,0.2
		c-0.85,0.54-1.49,0.87-1.92,0.97c-0.43,0.11-0.91,0.04-1.44-0.2c-0.53-0.24-0.99-0.66-1.37-1.26c-0.4-0.62-0.61-1.21-0.65-1.76
		c-0.03-0.55,0.11-1.02,0.42-1.4c0.32-0.39,0.88-0.84,1.68-1.35l2.39-1.53c0.59-0.38,1.05-0.64,1.37-0.79
		c0.32-0.15,0.68-0.21,1.08-0.18c0.4,0.03,0.79,0.17,1.18,0.42c0.38,0.26,0.72,0.61,1.02,1.08c0.4,0.63,0.61,1.22,0.63,1.79
		c0.02,0.56-0.11,1.02-0.39,1.38c-0.28,0.36-0.8,0.78-1.57,1.27L73.46,31.35z"/>
	<path class="st0" d="M80.13,36.94l-9.16,3.25l-0.85-2.38l3.85-1.37l-0.25-0.71l-3.85,1.37l-0.85-2.38l9.16-3.25l0.85,2.38L75.75,35
		L76,35.72l3.28-1.16L80.13,36.94z"/>
	<path class="st0" d="M75.75,45.98c-0.97,0.11-1.66,0.17-2.07,0.17c-0.41,0-0.79-0.1-1.16-0.3c-0.36-0.2-0.66-0.5-0.88-0.89
		c-0.23-0.39-0.37-0.86-0.43-1.4c-0.06-0.52-0.03-0.99,0.09-1.42c0.12-0.43,0.34-0.79,0.65-1.08c0.31-0.29,0.66-0.48,1.05-0.58
		c0.39-0.09,1.09-0.2,2.08-0.31l1.65-0.19c0.97-0.11,1.66-0.17,2.07-0.17c0.41,0,0.79,0.1,1.16,0.3c0.36,0.2,0.66,0.5,0.88,0.89
		c0.23,0.39,0.37,0.86,0.43,1.4c0.06,0.52,0.03,0.99-0.09,1.42s-0.34,0.79-0.65,1.08c-0.31,0.29-0.66,0.48-1.05,0.58
		c-0.39,0.09-1.09,0.2-2.08,0.31L75.75,45.98z M78.63,43.1c0.45-0.05,0.73-0.11,0.85-0.17c0.12-0.06,0.17-0.17,0.15-0.33
		c-0.02-0.13-0.08-0.23-0.19-0.28c-0.11-0.06-0.41-0.06-0.91,0l-4.51,0.52c-0.56,0.06-0.9,0.13-1.03,0.19
		c-0.13,0.06-0.18,0.18-0.16,0.34c0.02,0.17,0.11,0.27,0.26,0.3c0.16,0.03,0.52,0.01,1.09-0.05L78.63,43.1z"/>
	<path class="st0" d="M76.57,53.4l0.27-2.51l1.68,0.18c0.49,0.05,0.8,0.06,0.92,0.02c0.13-0.04,0.2-0.15,0.22-0.34
		c0.02-0.21-0.04-0.35-0.18-0.42c-0.14-0.07-0.46-0.13-0.95-0.19l-4.49-0.49c-0.47-0.05-0.78-0.06-0.93-0.02s-0.23,0.16-0.26,0.35
		c-0.02,0.19,0.04,0.32,0.18,0.39c0.14,0.07,0.47,0.14,1,0.2l1.21,0.13l-0.27,2.51l-0.38-0.04c-1-0.11-1.7-0.26-2.11-0.44
		s-0.74-0.54-1-1.06s-0.36-1.13-0.28-1.84c0.08-0.74,0.28-1.33,0.6-1.78c0.32-0.45,0.72-0.73,1.21-0.83s1.21-0.11,2.15,0l2.82,0.3
		c0.7,0.08,1.22,0.16,1.56,0.24c0.34,0.08,0.66,0.26,0.96,0.54s0.51,0.63,0.65,1.07s0.18,0.93,0.12,1.48
		c-0.08,0.74-0.29,1.34-0.63,1.79c-0.34,0.45-0.73,0.73-1.17,0.83c-0.44,0.11-1.12,0.11-2.02,0.01L76.57,53.4z"/>
	<path class="st0" d="M72.92,60c-0.92-0.32-1.57-0.57-1.94-0.74s-0.67-0.43-0.91-0.77c-0.24-0.34-0.38-0.73-0.41-1.18
		c-0.04-0.45,0.04-0.93,0.21-1.45c0.17-0.49,0.4-0.91,0.7-1.24s0.65-0.57,1.05-0.7c0.4-0.13,0.8-0.15,1.2-0.06
		c0.39,0.08,1.06,0.29,2.01,0.62l1.57,0.54c0.92,0.32,1.57,0.57,1.94,0.74s0.67,0.43,0.91,0.77c0.24,0.34,0.38,0.73,0.41,1.18
		c0.04,0.45-0.04,0.93-0.21,1.45c-0.17,0.49-0.4,0.91-0.7,1.24s-0.65,0.57-1.05,0.7c-0.4,0.13-0.8,0.15-1.2,0.06
		c-0.39-0.08-1.06-0.29-2.01-0.62L72.92,60z M76.77,58.65c0.43,0.15,0.71,0.22,0.84,0.21c0.13-0.01,0.23-0.08,0.28-0.23
		c0.04-0.12,0.03-0.24-0.05-0.34c-0.07-0.1-0.35-0.23-0.82-0.39l-4.29-1.48c-0.53-0.18-0.87-0.28-1.01-0.28
		c-0.14,0-0.24,0.08-0.29,0.24c-0.06,0.16-0.02,0.29,0.11,0.39c0.13,0.09,0.46,0.24,1,0.42L76.77,58.65z"/>
	<path class="st0" d="M70.31,69.2l1.37-1.91l0.58,0.42c0.27,0.2,0.46,0.3,0.58,0.3c0.11,0,0.21-0.05,0.29-0.16
		c0.09-0.12,0.11-0.25,0.05-0.39c-0.05-0.14-0.19-0.28-0.39-0.42c-0.26-0.19-0.49-0.3-0.67-0.32c-0.18-0.03-0.48,0.05-0.9,0.23
		c-1.2,0.52-2.06,0.78-2.58,0.77c-0.52-0.01-1.16-0.3-1.94-0.85c-0.56-0.4-0.93-0.77-1.1-1.09c-0.17-0.32-0.21-0.74-0.12-1.25
		c0.09-0.51,0.32-1.01,0.67-1.51c0.39-0.55,0.84-0.94,1.32-1.18c0.49-0.24,0.94-0.3,1.34-0.19c0.41,0.11,0.91,0.38,1.5,0.8
		l0.52,0.37l-1.37,1.91l-0.96-0.69c-0.3-0.21-0.51-0.32-0.63-0.33c-0.12-0.01-0.23,0.06-0.33,0.19c-0.1,0.14-0.12,0.28-0.06,0.42
		s0.19,0.29,0.41,0.44c0.46,0.33,0.81,0.49,1.05,0.46c0.24-0.03,0.71-0.18,1.41-0.45c0.71-0.27,1.19-0.43,1.46-0.49
		c0.27-0.06,0.58-0.04,0.93,0.04c0.35,0.08,0.73,0.28,1.15,0.58c0.61,0.43,0.99,0.83,1.16,1.18c0.17,0.35,0.21,0.76,0.12,1.22
		s-0.31,0.93-0.66,1.42c-0.38,0.53-0.8,0.93-1.24,1.18c-0.44,0.25-0.84,0.34-1.19,0.28c-0.35-0.07-0.84-0.33-1.47-0.78L70.31,69.2z"
		/>
	<path class="st0" d="M66.76,76.67l-6.51-7.22l1.65-1.48l3.94,2.4l-2.96-3.28l1.57-1.42l6.51,7.22l-1.57,1.42L65.4,72l2.93,3.25
		L66.76,76.67z"/>
	<path class="st0" d="M56.75,76.11c-0.48-0.85-0.8-1.47-0.96-1.84c-0.16-0.38-0.21-0.77-0.17-1.18c0.05-0.41,0.21-0.8,0.48-1.16
		c0.27-0.36,0.65-0.67,1.13-0.94c0.45-0.25,0.9-0.41,1.35-0.46c0.45-0.05,0.86,0,1.25,0.18s0.7,0.42,0.94,0.75s0.6,0.92,1.09,1.8
		l0.81,1.45c0.48,0.85,0.8,1.47,0.96,1.84c0.16,0.38,0.21,0.77,0.17,1.18c-0.05,0.41-0.21,0.8-0.48,1.16
		c-0.27,0.36-0.65,0.67-1.13,0.94c-0.45,0.25-0.9,0.41-1.35,0.46c-0.45,0.05-0.86,0-1.25-0.18c-0.39-0.17-0.7-0.42-0.94-0.75
		c-0.24-0.33-0.6-0.92-1.09-1.8L56.75,76.11z M60.52,77.66c0.22,0.39,0.38,0.63,0.49,0.72c0.11,0.08,0.23,0.09,0.36,0.01
		c0.12-0.07,0.18-0.16,0.19-0.28c0.01-0.12-0.11-0.4-0.35-0.84l-2.22-3.96c-0.28-0.49-0.47-0.78-0.57-0.88
		c-0.11-0.09-0.23-0.1-0.38-0.02c-0.15,0.08-0.21,0.2-0.18,0.36c0.03,0.16,0.19,0.48,0.47,0.98L60.52,77.66z"/>
	<path class="st0" d="M47.5,84.6l-1.15-9.72l3.07-0.73c0.63,1.39,1.27,2.98,1.92,4.78c-0.09-0.82-0.25-2.53-0.49-5.12l3.05-0.72
		l3.35,9.2l-2.39,0.57l-1.04-3.24l-1.01-3.13c0.3,1.67,0.59,3.89,0.86,6.65l-2.55,0.61c-0.1-0.27-0.44-1.29-1.01-3.06l-1.13-3.54
		c0.4,2.32,0.71,4.62,0.91,6.88L47.5,84.6z"/>
	<path class="st0" d="M36.74,79.64l2.51,0.29l-0.2,1.68c-0.06,0.49-0.07,0.79-0.03,0.92c0.04,0.13,0.15,0.2,0.33,0.22
		c0.21,0.02,0.35-0.03,0.42-0.17c0.07-0.14,0.14-0.46,0.2-0.94l0.53-4.49c0.06-0.47,0.06-0.78,0.02-0.93
		c-0.04-0.15-0.16-0.24-0.35-0.26c-0.19-0.02-0.32,0.04-0.39,0.17c-0.07,0.14-0.14,0.47-0.21,1l-0.14,1.21l-2.51-0.29l0.04-0.38
		c0.12-1,0.27-1.7,0.46-2.1c0.19-0.4,0.55-0.73,1.07-0.99c0.52-0.26,1.13-0.35,1.84-0.26c0.74,0.09,1.33,0.29,1.77,0.61
		s0.72,0.73,0.82,1.22c0.1,0.49,0.09,1.21-0.02,2.15l-0.33,2.82c-0.08,0.7-0.17,1.22-0.26,1.56c-0.09,0.34-0.27,0.66-0.54,0.96
		s-0.63,0.51-1.07,0.64c-0.44,0.14-0.93,0.17-1.48,0.11c-0.74-0.09-1.33-0.3-1.78-0.64c-0.45-0.34-0.72-0.74-0.82-1.18
		c-0.1-0.45-0.1-1.12,0.01-2.02L36.74,79.64z"/>
	<path class="st0" d="M28.22,81.28l3.28-9.15l2.38,0.85l-1.38,3.84l0.71,0.25l1.38-3.84l2.38,0.85l-3.28,9.15l-2.38-0.85l1.17-3.27
		l-0.71-0.26l-1.17,3.27L28.22,81.28z"/>
	<path class="st0" d="M25.97,80.12l-3.61-2.18l1.01-1.67l1.45,0.87l0.95-1.58l-1.35-0.82l0.96-1.58l1.35,0.82l1.1-1.83l-1.59-0.96
		l1.01-1.67L31,71.79L25.97,80.12z"/>
	<path class="st0" d="M16.67,73.2l3.52-2.63l2.6-4.95l1.75,1.55c-0.43,0.91-1.03,1.96-1.78,3.16c0.46-0.42,0.96-0.85,1.5-1.29
		l1.23-1.03l1.84,1.63l-4.29,3.45l-2.17,3.83l-1.83-1.62c0.14-0.23,0.38-0.62,0.69-1.18c0.24-0.43,0.46-0.81,0.68-1.16l-2.17,1.63
		L16.67,73.2z"/>
	<path class="st0" d="M13.77,62.09l1.35,2.14l-1.43,0.9c-0.42,0.26-0.66,0.45-0.73,0.56c-0.07,0.11-0.06,0.24,0.04,0.4
		c0.11,0.18,0.24,0.25,0.4,0.22c0.16-0.03,0.44-0.18,0.86-0.44l3.82-2.41c0.4-0.25,0.65-0.44,0.74-0.57
		c0.09-0.12,0.09-0.27-0.02-0.44c-0.1-0.16-0.23-0.22-0.38-0.2s-0.46,0.18-0.91,0.47l-1.03,0.65l-1.35-2.14l0.32-0.2
		c0.85-0.54,1.49-0.86,1.92-0.96c0.43-0.1,0.91-0.04,1.44,0.21c0.53,0.24,0.98,0.67,1.36,1.27c0.4,0.63,0.61,1.21,0.64,1.76
		c0.03,0.55-0.11,1.02-0.43,1.4c-0.32,0.39-0.88,0.83-1.69,1.34l-2.4,1.52c-0.59,0.38-1.05,0.63-1.37,0.78s-0.68,0.21-1.08,0.18
		s-0.79-0.17-1.18-0.43c-0.38-0.26-0.72-0.62-1.01-1.08c-0.4-0.63-0.6-1.23-0.62-1.79c-0.02-0.56,0.12-1.02,0.4-1.38
		c0.28-0.36,0.81-0.78,1.57-1.26L13.77,62.09z"/>
	<path class="st0" d="M7.13,56.46l9.18-3.2l0.83,2.39l-3.86,1.34l0.25,0.71l3.86-1.35l0.83,2.39l-9.18,3.2l-0.83-2.39l3.28-1.14
		l-0.25-0.71l-3.28,1.15L7.13,56.46z"/>
	<path class="st0" d="M11.56,47.43c0.97-0.11,1.66-0.16,2.07-0.16s0.79,0.1,1.15,0.31s0.65,0.5,0.88,0.89
		c0.22,0.39,0.37,0.86,0.43,1.4c0.06,0.52,0.02,0.99-0.1,1.42s-0.34,0.79-0.65,1.08s-0.66,0.48-1.06,0.57
		c-0.39,0.09-1.09,0.19-2.08,0.3l-1.65,0.18c-0.97,0.11-1.66,0.16-2.07,0.16c-0.41,0-0.79-0.1-1.15-0.31s-0.65-0.5-0.88-0.89
		c-0.22-0.39-0.37-0.86-0.43-1.4C5.96,50.47,6,50,6.12,49.57c0.12-0.43,0.34-0.79,0.65-1.08c0.31-0.29,0.66-0.48,1.06-0.57
		s1.09-0.19,2.08-0.3L11.56,47.43z M8.66,50.3c-0.45,0.05-0.73,0.11-0.85,0.17c-0.12,0.06-0.17,0.17-0.15,0.33
		c0.01,0.13,0.08,0.23,0.19,0.28c0.11,0.06,0.41,0.06,0.91,0.01l4.51-0.5c0.56-0.06,0.9-0.12,1.03-0.18
		c0.13-0.06,0.18-0.17,0.16-0.34c-0.02-0.17-0.11-0.27-0.26-0.3c-0.16-0.03-0.52-0.01-1.09,0.05L8.66,50.3z"/>
	<path class="st0" d="M10.78,40.03l-0.28,2.51l-1.68-0.19c-0.49-0.06-0.8-0.06-0.92-0.02c-0.13,0.04-0.2,0.15-0.22,0.33
		c-0.02,0.21,0.04,0.35,0.18,0.42s0.46,0.14,0.95,0.19l4.49,0.51c0.47,0.05,0.78,0.06,0.93,0.02s0.24-0.16,0.26-0.35
		c0.02-0.19-0.04-0.32-0.17-0.39s-0.47-0.14-1-0.2l-1.21-0.14l0.28-2.51l0.38,0.04c1,0.11,1.7,0.26,2.1,0.45
		c0.4,0.19,0.73,0.54,0.99,1.06c0.26,0.52,0.35,1.13,0.27,1.84c-0.08,0.74-0.28,1.33-0.6,1.77c-0.32,0.45-0.73,0.72-1.21,0.82
		c-0.49,0.1-1.21,0.1-2.15-0.01l-2.82-0.32c-0.7-0.08-1.22-0.16-1.56-0.25c-0.34-0.09-0.66-0.27-0.96-0.54
		c-0.3-0.27-0.51-0.63-0.65-1.07c-0.14-0.44-0.18-0.93-0.11-1.48c0.08-0.74,0.3-1.33,0.64-1.78s0.73-0.73,1.18-0.83
		c0.44-0.1,1.12-0.1,2.02,0L10.78,40.03z"/>
	<path class="st0" d="M14.45,33.46c0.92,0.32,1.57,0.57,1.94,0.75c0.37,0.18,0.67,0.44,0.91,0.78s0.37,0.73,0.41,1.18
		s-0.04,0.93-0.22,1.45c-0.17,0.49-0.41,0.9-0.7,1.24c-0.3,0.33-0.65,0.56-1.05,0.69c-0.4,0.13-0.8,0.14-1.2,0.06
		c-0.39-0.09-1.06-0.3-2.01-0.63l-1.57-0.55c-0.92-0.32-1.57-0.57-1.94-0.75C8.64,37.5,8.34,37.24,8.1,36.9s-0.37-0.73-0.41-1.18
		s0.04-0.93,0.22-1.45c0.17-0.49,0.41-0.9,0.7-1.24c0.3-0.33,0.65-0.56,1.05-0.69c0.4-0.13,0.8-0.14,1.2-0.06s1.06,0.3,2.01,0.63
		L14.45,33.46z M10.6,34.79c-0.43-0.15-0.71-0.22-0.84-0.22c-0.14,0.01-0.23,0.08-0.28,0.23c-0.04,0.12-0.03,0.24,0.04,0.34
		c0.07,0.1,0.35,0.23,0.82,0.4l4.28,1.5c0.53,0.19,0.87,0.28,1.01,0.28c0.14,0,0.24-0.08,0.29-0.24c0.06-0.16,0.02-0.29-0.11-0.39
		c-0.13-0.1-0.46-0.24-1-0.43L10.6,34.79z"/>
	<path class="st0" d="M17.1,24.27l-1.38,1.9l-0.58-0.42c-0.27-0.2-0.46-0.3-0.57-0.3c-0.11-0.01-0.21,0.05-0.29,0.16
		c-0.09,0.12-0.11,0.25-0.05,0.39c0.06,0.14,0.18,0.28,0.39,0.43c0.26,0.19,0.49,0.3,0.67,0.32c0.18,0.03,0.48-0.05,0.9-0.23
		c1.2-0.52,2.06-0.77,2.58-0.76c0.52,0.01,1.16,0.3,1.94,0.86c0.56,0.41,0.93,0.77,1.1,1.1c0.17,0.32,0.21,0.74,0.12,1.25
		c-0.09,0.51-0.32,1.01-0.68,1.51c-0.4,0.55-0.84,0.94-1.33,1.18c-0.49,0.24-0.94,0.3-1.34,0.19c-0.41-0.11-0.91-0.38-1.5-0.81
		l-0.52-0.37l1.38-1.9l0.96,0.69c0.3,0.21,0.5,0.32,0.63,0.33c0.12,0.01,0.23-0.06,0.33-0.19s0.12-0.28,0.06-0.42
		c-0.06-0.14-0.19-0.29-0.4-0.44c-0.46-0.34-0.81-0.49-1.05-0.47c-0.24,0.03-0.71,0.17-1.41,0.44c-0.71,0.27-1.19,0.42-1.47,0.48
		c-0.27,0.06-0.58,0.04-0.93-0.05c-0.35-0.09-0.73-0.28-1.15-0.58c-0.6-0.44-0.99-0.83-1.16-1.19c-0.17-0.36-0.2-0.76-0.11-1.22
		s0.31-0.93,0.67-1.42c0.39-0.53,0.8-0.92,1.24-1.17s0.84-0.34,1.19-0.27c0.35,0.07,0.84,0.33,1.46,0.78L17.1,24.27z"/>
	<path class="st0" d="M20.69,16.82l6.48,7.25l-1.65,1.48l-3.93-2.42l2.94,3.3l-1.58,1.41l-6.48-7.25l1.58-1.41l3.97,2.32l-2.92-3.27
		L20.69,16.82z"/>
	<path class="st0" d="M30.72,17.41c0.47,0.85,0.79,1.47,0.95,1.85c0.16,0.38,0.21,0.77,0.16,1.18c-0.05,0.41-0.21,0.8-0.48,1.15
		c-0.27,0.36-0.65,0.67-1.13,0.94c-0.46,0.25-0.91,0.4-1.35,0.46c-0.44,0.05-0.86-0.01-1.25-0.18c-0.39-0.17-0.7-0.43-0.93-0.75
		c-0.24-0.33-0.6-0.93-1.08-1.8l-0.81-1.45c-0.47-0.85-0.79-1.47-0.95-1.85c-0.16-0.38-0.21-0.77-0.16-1.18
		c0.05-0.41,0.21-0.8,0.48-1.15c0.27-0.36,0.65-0.67,1.13-0.94c0.46-0.25,0.91-0.4,1.35-0.46c0.44-0.05,0.86,0.01,1.25,0.18
		c0.39,0.17,0.7,0.43,0.93,0.75c0.24,0.33,0.6,0.93,1.08,1.8L30.72,17.41z M26.95,15.84c-0.22-0.4-0.38-0.64-0.49-0.72
		s-0.23-0.09-0.36-0.02c-0.12,0.06-0.18,0.16-0.19,0.28c-0.01,0.12,0.1,0.4,0.35,0.84l2.2,3.97c0.27,0.49,0.46,0.79,0.57,0.88
		c0.1,0.09,0.23,0.1,0.38,0.02c0.15-0.08,0.21-0.2,0.18-0.36s-0.19-0.48-0.46-0.99L26.95,15.84z"/>
	<path class="st0" d="M40.02,8.97l1.1,9.73l-3.08,0.71c-0.62-1.39-1.25-2.99-1.9-4.79c0.09,0.82,0.24,2.53,0.46,5.13l-3.06,0.71
		l-3.3-9.22l2.39-0.55l1.03,3.24l0.99,3.14c-0.29-1.67-0.57-3.89-0.82-6.66l2.56-0.59c0.1,0.27,0.43,1.29,0.99,3.06l1.11,3.54
		c-0.39-2.33-0.68-4.62-0.87-6.89L40.02,8.97z"/>
</g>
</svg>
