<?xml version="1.0" encoding="utf-8"?>
<!-- Generator: Adobe Illustrator 23.1.0, SVG Export Plug-In . SVG Version: 6.00 Build 0)  -->
<svg version="1.1" id="Layer_1" xmlns="http://www.w3.org/2000/svg" xmlns:xlink="http://www.w3.org/1999/xlink" x="0px" y="0px"
	 viewBox="0 0 90 90" style="enable-background:new 0 0 90 90;" xml:space="preserve">
<style type="text/css">
	.st0{fill:#FFFFFF;}
</style>
<g>
	<path class="st0" d="M48.25,9.05l-2.14-0.07l0.05-1.43c0.01-0.42,0-0.68-0.04-0.78c-0.04-0.1-0.14-0.16-0.3-0.16
		c-0.18-0.01-0.29,0.05-0.34,0.18c-0.05,0.12-0.08,0.39-0.1,0.81l-0.12,3.82c-0.01,0.4,0,0.66,0.05,0.78
		c0.04,0.12,0.15,0.19,0.31,0.19c0.16,0.01,0.27-0.05,0.32-0.17c0.05-0.12,0.09-0.41,0.1-0.86l0.03-1.03l2.14,0.07l-0.01,0.32
		c-0.03,0.85-0.11,1.45-0.24,1.8c-0.13,0.35-0.41,0.66-0.83,0.91c-0.42,0.25-0.93,0.37-1.53,0.35c-0.63-0.02-1.14-0.15-1.54-0.39
		c-0.4-0.24-0.66-0.56-0.78-0.97c-0.12-0.41-0.17-1.01-0.14-1.82l0.08-2.4c0.02-0.59,0.05-1.04,0.1-1.33
		c0.05-0.29,0.18-0.58,0.39-0.84c0.21-0.27,0.5-0.47,0.86-0.62c0.36-0.15,0.77-0.21,1.24-0.2c0.63,0.02,1.14,0.16,1.55,0.42
		c0.4,0.26,0.66,0.57,0.78,0.94c0.12,0.37,0.16,0.94,0.14,1.7L48.25,9.05z"/>
	<path class="st0" d="M55,6.66l-1.62,8.06l-2.1-0.42l0.68-3.39l-0.63-0.13l-0.68,3.39l-2.1-0.42l1.62-8.06l2.1,0.42L51.7,8.99
		l0.63,0.13l0.58-2.88L55,6.66z"/>
	<path class="st0" d="M56.72,7.19l3.35,1.21l-0.56,1.55l-1.34-0.48l-0.53,1.47l1.26,0.45l-0.53,1.47l-1.26-0.45l-0.61,1.7l1.48,0.53
		l-0.56,1.55l-3.49-1.25L56.72,7.19z"/>
	<path class="st0" d="M65.42,11.05l-2.35,2.87l-1.12,4.59l-1.75-0.92c0.17-0.84,0.44-1.82,0.81-2.96c-0.29,0.44-0.61,0.89-0.97,1.36
		l-0.8,1.09l-1.84-0.97l2.82-3.7l1-3.58l1.83,0.96c-0.07,0.22-0.18,0.59-0.33,1.11c-0.11,0.4-0.21,0.76-0.32,1.09l1.45-1.78
		L65.42,11.05z"/>
	<path class="st0" d="M70.24,19.16l-1.64-1.37l0.92-1.1c0.27-0.32,0.42-0.53,0.45-0.64c0.03-0.11-0.01-0.21-0.13-0.31
		c-0.14-0.11-0.26-0.14-0.38-0.07c-0.12,0.07-0.31,0.26-0.58,0.58l-2.45,2.93c-0.26,0.31-0.41,0.52-0.45,0.65
		c-0.04,0.12,0,0.24,0.13,0.35c0.12,0.1,0.24,0.12,0.36,0.06c0.12-0.06,0.32-0.27,0.61-0.61l0.66-0.79l1.64,1.37l-0.21,0.25
		c-0.54,0.65-0.98,1.08-1.3,1.27s-0.72,0.27-1.21,0.21c-0.49-0.06-0.96-0.28-1.42-0.67c-0.48-0.4-0.8-0.82-0.97-1.25
		c-0.17-0.43-0.17-0.85-0.02-1.24s0.49-0.9,1.01-1.52l1.54-1.84c0.38-0.46,0.68-0.78,0.9-0.98c0.22-0.2,0.5-0.34,0.83-0.42
		c0.33-0.08,0.68-0.07,1.06,0.04s0.74,0.31,1.1,0.61c0.48,0.4,0.8,0.83,0.96,1.28c0.16,0.45,0.17,0.85,0.04,1.22
		c-0.13,0.36-0.45,0.84-0.94,1.43L70.24,19.16z"/>
	<path class="st0" d="M77.02,21.45l-6.26,5.33l-1.39-1.63L72,22.91l-0.42-0.49l-2.63,2.24l-1.39-1.63l6.26-5.33l1.39,1.63
		l-2.24,1.91l0.42,0.49l2.24-1.91L77.02,21.45z"/>
	<path class="st0" d="M76.51,29.72c-0.71,0.42-1.22,0.7-1.54,0.84s-0.65,0.2-1,0.16c-0.35-0.03-0.68-0.16-0.99-0.38
		s-0.58-0.53-0.82-0.93c-0.22-0.38-0.36-0.76-0.42-1.13c-0.05-0.37-0.01-0.73,0.13-1.06c0.14-0.33,0.34-0.6,0.62-0.81
		c0.27-0.21,0.77-0.53,1.5-0.96l1.21-0.71c0.71-0.42,1.22-0.7,1.54-0.84s0.65-0.2,1-0.16c0.35,0.03,0.68,0.16,0.99,0.38
		s0.58,0.53,0.82,0.93c0.22,0.38,0.36,0.76,0.42,1.13c0.05,0.38,0.01,0.73-0.13,1.06s-0.34,0.6-0.62,0.81
		c-0.27,0.21-0.77,0.53-1.5,0.96L76.51,29.72z M77.75,26.51c0.33-0.19,0.53-0.34,0.6-0.43c0.07-0.09,0.07-0.19,0-0.31
		c-0.06-0.1-0.14-0.15-0.24-0.15c-0.1-0.01-0.34,0.1-0.7,0.31l-3.31,1.95c-0.41,0.24-0.66,0.41-0.73,0.5s-0.08,0.2-0.01,0.32
		c0.07,0.13,0.18,0.17,0.31,0.14s0.41-0.17,0.82-0.42L77.75,26.51z"/>
	<path class="st0" d="M79.89,34.95l-0.75-2l1.34-0.5c0.39-0.15,0.62-0.26,0.71-0.34c0.08-0.08,0.09-0.19,0.04-0.34
		c-0.06-0.16-0.16-0.25-0.29-0.25s-0.4,0.07-0.79,0.22l-3.58,1.34c-0.37,0.14-0.61,0.25-0.71,0.34c-0.1,0.09-0.12,0.21-0.06,0.36
		c0.06,0.15,0.15,0.23,0.28,0.23c0.13,0,0.41-0.07,0.83-0.23l0.97-0.36l0.75,2l-0.3,0.11c-0.8,0.3-1.38,0.45-1.76,0.47
		c-0.38,0.01-0.76-0.13-1.16-0.42c-0.39-0.29-0.7-0.72-0.91-1.28c-0.22-0.59-0.29-1.11-0.22-1.57s0.27-0.82,0.6-1.09
		c0.33-0.26,0.87-0.54,1.63-0.82l2.25-0.84c0.55-0.21,0.98-0.34,1.27-0.41c0.29-0.07,0.6-0.05,0.93,0.04
		c0.33,0.09,0.63,0.28,0.9,0.56c0.27,0.28,0.49,0.64,0.65,1.07c0.22,0.59,0.29,1.12,0.21,1.59c-0.08,0.47-0.27,0.83-0.57,1.08
		s-0.8,0.51-1.52,0.78L79.89,34.95z"/>
	<path class="st0" d="M79.89,41.2c-0.81,0.15-1.39,0.24-1.74,0.26s-0.68-0.04-0.99-0.19c-0.32-0.15-0.58-0.38-0.79-0.7
		c-0.21-0.32-0.36-0.7-0.45-1.16c-0.08-0.43-0.08-0.83,0-1.21c0.08-0.37,0.24-0.69,0.48-0.95c0.25-0.26,0.53-0.44,0.86-0.54
		c0.33-0.1,0.9-0.23,1.74-0.38l1.38-0.25c0.81-0.15,1.39-0.24,1.74-0.26c0.35-0.02,0.68,0.04,0.99,0.19s0.58,0.38,0.79,0.7
		c0.21,0.31,0.36,0.7,0.45,1.16c0.08,0.43,0.08,0.83,0,1.21s-0.24,0.69-0.48,0.95c-0.24,0.26-0.53,0.44-0.85,0.54
		c-0.33,0.1-0.91,0.23-1.74,0.38L79.89,41.2z M82.16,38.61c0.38-0.07,0.61-0.13,0.71-0.2c0.1-0.06,0.13-0.16,0.11-0.29
		c-0.02-0.11-0.08-0.19-0.17-0.23s-0.35-0.03-0.77,0.05l-3.78,0.7c-0.47,0.09-0.76,0.16-0.86,0.22c-0.1,0.06-0.14,0.16-0.12,0.3
		c0.03,0.14,0.11,0.22,0.24,0.24c0.13,0.02,0.44-0.02,0.91-0.11L82.16,38.61z"/>
	<path class="st0" d="M84.85,44.29l-0.08,3.62l-1.64-0.04l0.03-1.48l-1.56-0.04l-0.03,1.32L80,47.63l0.03-1.32l-3.45-0.08l0.05-2.14
		L84.85,44.29z"/>
	<path class="st0" d="M83.8,54.2l-5.41-0.95c-0.61-0.11-1.04-0.2-1.28-0.29c-0.24-0.08-0.48-0.25-0.7-0.49
		c-0.23-0.24-0.38-0.54-0.46-0.88c-0.08-0.35-0.08-0.74,0-1.17c0.09-0.48,0.24-0.9,0.47-1.24s0.48-0.58,0.77-0.72
		c0.29-0.14,0.58-0.2,0.87-0.18c0.29,0.02,0.89,0.11,1.81,0.27l4.79,0.84l-0.37,2.11l-6.07-1.07c-0.35-0.06-0.58-0.08-0.69-0.06
		c-0.11,0.02-0.17,0.09-0.19,0.21c-0.02,0.13,0.02,0.23,0.12,0.29s0.35,0.12,0.76,0.19l5.97,1.05L83.8,54.2z"/>
	<path class="st0" d="M81.66,60.58l-7.73-2.81l0.64-1.76l3.89,0.23l-3.51-1.28l0.61-1.68l7.73,2.81l-0.61,1.68l-3.89-0.14l3.48,1.27
		L81.66,60.58z"/>
	<path class="st0" d="M79.81,64.29l-1.16,1.79c-0.37,0.56-0.69,0.96-0.97,1.2s-0.61,0.35-0.99,0.36s-0.87-0.19-1.47-0.58
		c-0.4-0.26-0.64-0.51-0.72-0.74c-0.08-0.23-0.04-0.56,0.12-0.98c-0.36,0.35-0.7,0.53-1.01,0.54c-0.31,0.01-0.69-0.14-1.14-0.43
		l-0.64-0.42c-0.47-0.3-0.78-0.58-0.93-0.83c-0.16-0.25-0.2-0.52-0.13-0.81s0.34-0.79,0.81-1.51l1.35-2.07L79.81,64.29z
		 M74.86,63.62l-1.93-1.25c-0.16,0.26-0.22,0.44-0.2,0.56c0.03,0.12,0.18,0.26,0.46,0.44l0.64,0.42c0.29,0.19,0.49,0.28,0.6,0.26
		C74.54,64.02,74.68,63.88,74.86,63.62z M77.47,65.31l-1.53-1c-0.05,0.08-0.08,0.14-0.11,0.18c-0.12,0.18-0.14,0.32-0.09,0.42
		c0.06,0.1,0.29,0.29,0.7,0.56c0.22,0.14,0.38,0.22,0.49,0.24s0.2,0,0.27-0.05C77.25,65.61,77.34,65.49,77.47,65.31z"/>
	<path class="st0" d="M73.43,72.63l-6.88-4.66l1.48-1.61l1.17,0.92l0.52-0.56l-1-1.09l1.5-1.63l5.32,6.36L73.43,72.63z M70.31,68.22
		c0.76,0.55,1.68,1.25,2.76,2.1c-1.01-1.23-1.77-2.1-2.27-2.64L70.31,68.22z"/>
	<path class="st0" d="M67.82,77.41l-5.09-6.46l1.47-1.16l3.19,2.25l-2.31-2.94l1.4-1.11l5.09,6.46l-1.4,1.11l-3.23-2.17l2.29,2.91
		L67.82,77.41z"/>
	<path class="st0" d="M62.99,80.25l-5.06-6.6l1.91-1.06l0.82,1.24l0.67-0.37l-0.6-1.36l1.93-1.07l3.03,7.72L62.99,80.25z
		 M61.41,75.08c0.55,0.76,1.2,1.72,1.96,2.86c-0.57-1.48-1.01-2.56-1.32-3.22L61.41,75.08z"/>
	<path class="st0" d="M56.16,83.01l-2.79-7.73l1.76-0.64l2.32,3.14l-1.27-3.51l1.68-0.61l2.79,7.73L58.97,82l-2.38-3.07l1.26,3.48
		L56.16,83.01z"/>
	<path class="st0" d="M50.7,84.19l-2.73-7.85l2.15-0.41l0.39,1.43l0.75-0.14l-0.15-1.48l2.17-0.41l0.46,8.28L50.7,84.19z
		 M50.83,78.78c0.28,0.9,0.6,2.01,0.96,3.33c-0.08-1.59-0.16-2.74-0.24-3.47L50.83,78.78z"/>
	<path class="st0" d="M41.05,80.98l2.14,0.05l-0.03,1.43c-0.01,0.42,0.01,0.68,0.05,0.78c0.04,0.1,0.14,0.16,0.3,0.16
		c0.18,0,0.29-0.06,0.34-0.18s0.08-0.39,0.09-0.81l0.09-3.82c0.01-0.4-0.01-0.66-0.05-0.78c-0.04-0.12-0.15-0.19-0.32-0.19
		c-0.16,0-0.26,0.05-0.32,0.18c-0.05,0.12-0.08,0.41-0.09,0.86l-0.02,1.03l-2.14-0.05l0.01-0.32c0.02-0.85,0.09-1.45,0.22-1.81
		c0.13-0.35,0.4-0.66,0.82-0.92c0.42-0.26,0.93-0.38,1.53-0.37c0.63,0.01,1.14,0.14,1.54,0.38s0.66,0.56,0.79,0.96
		c0.12,0.4,0.18,1.01,0.16,1.81l-0.06,2.4c-0.01,0.59-0.04,1.04-0.09,1.33c-0.05,0.29-0.18,0.58-0.38,0.85
		c-0.21,0.27-0.49,0.48-0.85,0.63c-0.36,0.15-0.77,0.22-1.24,0.21c-0.63-0.01-1.15-0.15-1.55-0.4s-0.67-0.56-0.79-0.93
		c-0.12-0.37-0.17-0.93-0.15-1.7L41.05,80.98z"/>
	<path class="st0" d="M34.28,83.43l1.55-8.07l2.1,0.4l-0.65,3.39l0.63,0.12l0.65-3.39l2.1,0.4l-1.55,8.07l-2.1-0.4l0.55-2.89
		l-0.63-0.12l-0.55,2.89L34.28,83.43z"/>
	<path class="st0" d="M32.55,82.91l-3.36-1.18l0.54-1.55l1.35,0.47l0.52-1.47l-1.26-0.44l0.52-1.48l1.26,0.44l0.6-1.71l-1.48-0.52
		l0.54-1.55l3.5,1.23L32.55,82.91z"/>
	<path class="st0" d="M23.84,79.13l2.33-2.89l1.08-4.6l1.76,0.9c-0.16,0.84-0.43,1.83-0.79,2.96c0.29-0.44,0.6-0.9,0.96-1.37
		l0.79-1.1l1.85,0.95l-2.78,3.73l-0.97,3.59l-1.84-0.94c0.07-0.22,0.18-0.59,0.32-1.11c0.1-0.4,0.21-0.76,0.31-1.09l-1.43,1.79
		L23.84,79.13z"/>
	<path class="st0" d="M18.97,71.09l1.65,1.35l-0.9,1.11c-0.26,0.32-0.41,0.54-0.44,0.65c-0.03,0.11,0.02,0.21,0.14,0.31
		c0.14,0.11,0.26,0.13,0.38,0.07c0.12-0.07,0.31-0.26,0.57-0.58l2.42-2.96c0.25-0.31,0.4-0.53,0.44-0.65c0.04-0.13,0-0.24-0.13-0.34
		c-0.12-0.1-0.24-0.12-0.36-0.06c-0.12,0.06-0.32,0.27-0.6,0.62l-0.65,0.8l-1.65-1.35l0.2-0.25c0.54-0.66,0.97-1.09,1.29-1.29
		c0.32-0.2,0.72-0.27,1.21-0.22c0.49,0.05,0.97,0.27,1.43,0.65c0.48,0.4,0.81,0.81,0.98,1.24s0.18,0.85,0.03,1.24
		s-0.48,0.9-0.99,1.53l-1.52,1.86c-0.38,0.46-0.67,0.79-0.89,0.99c-0.22,0.2-0.49,0.35-0.82,0.43c-0.33,0.08-0.68,0.08-1.06-0.03
		c-0.38-0.1-0.74-0.3-1.1-0.6c-0.49-0.4-0.81-0.82-0.98-1.27c-0.16-0.45-0.18-0.85-0.05-1.22c0.13-0.36,0.44-0.84,0.92-1.44
		L18.97,71.09z"/>
	<path class="st0" d="M12.14,68.84l6.21-5.39l1.4,1.61l-2.61,2.26l0.42,0.48l2.61-2.26l1.4,1.62l-6.21,5.39l-1.4-1.62l2.22-1.93
		l-0.42-0.48l-2.22,1.93L12.14,68.84z"/>
	<path class="st0" d="M12.58,60.56c0.71-0.43,1.22-0.71,1.53-0.86c0.31-0.14,0.65-0.2,1-0.17c0.35,0.03,0.68,0.15,0.99,0.37
		c0.31,0.22,0.59,0.53,0.82,0.93c0.23,0.38,0.37,0.75,0.43,1.13s0.02,0.73-0.12,1.06s-0.34,0.6-0.61,0.81
		c-0.27,0.21-0.77,0.53-1.49,0.97l-1.2,0.73c-0.71,0.43-1.22,0.71-1.53,0.86c-0.31,0.14-0.65,0.2-1,0.17
		c-0.35-0.03-0.68-0.15-0.99-0.37s-0.59-0.53-0.82-0.93c-0.23-0.38-0.37-0.75-0.43-1.13c-0.06-0.38-0.02-0.73,0.12-1.06
		c0.14-0.33,0.34-0.6,0.61-0.81c0.27-0.21,0.77-0.53,1.49-0.97L12.58,60.56z M11.37,63.79c-0.33,0.2-0.53,0.34-0.6,0.43
		c-0.07,0.09-0.07,0.19,0,0.31c0.06,0.1,0.14,0.15,0.24,0.15s0.34-0.1,0.7-0.32L15,62.38c0.41-0.25,0.65-0.42,0.73-0.51
		s0.08-0.2,0-0.32c-0.08-0.13-0.18-0.17-0.31-0.14c-0.13,0.03-0.4,0.17-0.82,0.42L11.37,63.79z"/>
	<path class="st0" d="M9.16,55.37l0.77,2l-1.33,0.51c-0.39,0.15-0.62,0.26-0.7,0.34c-0.08,0.08-0.09,0.19-0.04,0.34
		c0.06,0.17,0.16,0.25,0.3,0.25c0.13,0,0.4-0.08,0.78-0.23l3.56-1.37c0.37-0.14,0.61-0.26,0.7-0.35s0.12-0.21,0.06-0.36
		c-0.06-0.15-0.15-0.22-0.28-0.23c-0.13,0-0.41,0.08-0.83,0.24l-0.96,0.37l-0.77-2l0.3-0.12c0.79-0.31,1.38-0.47,1.75-0.48
		c0.38-0.02,0.76,0.12,1.16,0.41c0.4,0.29,0.71,0.71,0.92,1.27c0.23,0.58,0.31,1.11,0.24,1.57c-0.07,0.46-0.26,0.82-0.59,1.09
		c-0.33,0.27-0.87,0.55-1.62,0.84l-2.24,0.86c-0.55,0.21-0.97,0.35-1.27,0.42s-0.6,0.06-0.93-0.03c-0.33-0.09-0.63-0.27-0.91-0.55
		s-0.5-0.63-0.66-1.06c-0.23-0.59-0.3-1.12-0.22-1.59c0.08-0.47,0.27-0.83,0.56-1.08c0.29-0.25,0.8-0.51,1.51-0.79L9.16,55.37z"/>
	<path class="st0" d="M9.1,49.12c0.81-0.16,1.39-0.25,1.73-0.28s0.68,0.03,0.99,0.18c0.32,0.15,0.59,0.38,0.8,0.69
		c0.22,0.31,0.37,0.7,0.46,1.15c0.08,0.43,0.09,0.83,0.01,1.21c-0.07,0.37-0.23,0.69-0.47,0.95c-0.24,0.26-0.52,0.45-0.85,0.55
		c-0.32,0.1-0.9,0.24-1.73,0.4l-1.38,0.27c-0.81,0.16-1.39,0.25-1.73,0.28s-0.68-0.03-0.99-0.18c-0.32-0.15-0.58-0.38-0.8-0.69
		c-0.22-0.31-0.37-0.7-0.46-1.15c-0.08-0.43-0.09-0.83-0.01-1.21c0.07-0.37,0.23-0.69,0.47-0.95c0.24-0.26,0.52-0.45,0.85-0.55
		c0.32-0.1,0.9-0.24,1.73-0.4L9.1,49.12z M6.85,51.74c-0.38,0.07-0.61,0.14-0.71,0.2s-0.13,0.16-0.11,0.29
		c0.02,0.11,0.08,0.19,0.18,0.23c0.1,0.04,0.35,0.02,0.77-0.06l3.77-0.73c0.47-0.09,0.75-0.17,0.86-0.23
		c0.1-0.06,0.14-0.16,0.11-0.3c-0.03-0.14-0.11-0.22-0.24-0.24c-0.13-0.02-0.44,0.02-0.91,0.12L6.85,51.74z"/>
	<path class="st0" d="M4.1,46.05l0.06-3.62l1.65,0.03l-0.02,1.48l1.56,0.03l0.02-1.32l1.56,0.03l-0.02,1.32l3.45,0.06l-0.04,2.14
		L4.1,46.05z"/>
	<path class="st0" d="M5.06,36.17l5.42,0.9c0.61,0.1,1.04,0.19,1.29,0.27c0.24,0.08,0.48,0.24,0.71,0.48
		c0.23,0.24,0.38,0.53,0.47,0.88c0.08,0.34,0.09,0.74,0.01,1.17c-0.08,0.48-0.23,0.9-0.45,1.24c-0.22,0.34-0.48,0.59-0.76,0.73
		c-0.29,0.14-0.58,0.2-0.87,0.19c-0.29-0.01-0.89-0.1-1.81-0.25l-4.8-0.8l0.35-2.11l6.08,1.01c0.35,0.06,0.58,0.08,0.69,0.06
		c0.1-0.02,0.17-0.09,0.19-0.21c0.02-0.13-0.02-0.23-0.12-0.28c-0.1-0.06-0.36-0.12-0.76-0.19L4.7,38.28L5.06,36.17z"/>
	<path class="st0" d="M7.14,29.76l7.75,2.74l-0.62,1.77l-3.89-0.2l3.52,1.24L13.3,37l-7.75-2.74l0.6-1.69l3.89,0.1l-3.49-1.23
		L7.14,29.76z"/>
	<path class="st0" d="M8.96,26.03l1.15-1.8c0.36-0.57,0.68-0.97,0.96-1.21c0.28-0.24,0.6-0.36,0.99-0.37s0.88,0.18,1.47,0.56
		c0.4,0.26,0.65,0.5,0.73,0.73s0.04,0.56-0.11,0.99c0.36-0.36,0.7-0.54,1.01-0.55c0.31-0.01,0.7,0.13,1.15,0.42l0.64,0.41
		c0.47,0.3,0.78,0.57,0.94,0.83c0.16,0.25,0.2,0.52,0.14,0.81c-0.07,0.29-0.33,0.79-0.79,1.52l-1.33,2.08L8.96,26.03z M11.29,24.98
		l1.54,0.98c0.05-0.08,0.08-0.14,0.11-0.18c0.11-0.18,0.14-0.32,0.09-0.42c-0.06-0.1-0.29-0.29-0.7-0.55
		c-0.22-0.14-0.38-0.22-0.49-0.23c-0.11-0.02-0.2,0-0.26,0.05C11.51,24.68,11.41,24.8,11.29,24.98z M13.91,26.65l1.94,1.24
		c0.15-0.26,0.22-0.45,0.19-0.56c-0.03-0.12-0.18-0.26-0.46-0.44l-0.65-0.41c-0.3-0.19-0.5-0.27-0.6-0.25
		C14.23,26.25,14.09,26.39,13.91,26.65z"/>
	<path class="st0" d="M15.26,17.63l6.92,4.6l-1.46,1.62l-1.17-0.9l-0.51,0.57l1.01,1.09l-1.48,1.64l-5.37-6.32L15.26,17.63z
		 M18.43,22.01c-0.76-0.54-1.69-1.23-2.78-2.07c1.02,1.22,1.79,2.09,2.29,2.62L18.43,22.01z"/>
	<path class="st0" d="M20.83,12.8l5.14,6.41l-1.46,1.17l-3.21-2.22l2.34,2.92l-1.39,1.12l-5.14-6.41l1.39-1.12l3.25,2.14l-2.32-2.89
		L20.83,12.8z"/>
	<path class="st0" d="M25.64,9.91l5.11,6.55l-1.9,1.08l-0.83-1.23l-0.67,0.38l0.62,1.35l-1.92,1.09l-3.1-7.69L25.64,9.91z
		 M27.26,15.07c-0.55-0.76-1.21-1.71-1.98-2.84c0.59,1.48,1.03,2.55,1.34,3.21L27.26,15.07z"/>
	<path class="st0" d="M32.43,7.09l2.86,7.71l-1.76,0.65l-2.34-3.12l1.3,3.5l-1.68,0.62l-2.86-7.71l1.68-0.62l2.41,3.05l-1.29-3.47
		L32.43,7.09z"/>
	<path class="st0" d="M37.9,5.87l2.8,7.83l-2.14,0.43l-0.4-1.43l-0.75,0.15l0.16,1.47l-2.17,0.43l-0.53-8.28L37.9,5.87z
		 M37.82,11.27c-0.29-0.89-0.62-2-0.99-3.32c0.09,1.59,0.18,2.74,0.27,3.47L37.82,11.27z"/>
</g>
</svg>
