<?xml version="1.0" encoding="utf-8"?>
<!-- Generator: Adobe Illustrator 23.1.0, SVG Export Plug-In . SVG Version: 6.00 Build 0)  -->
<svg version="1.1" id="Layer_1" xmlns="http://www.w3.org/2000/svg" xmlns:xlink="http://www.w3.org/1999/xlink" x="0px" y="0px"
	 viewBox="0 0 90 90" style="enable-background:new 0 0 90 90;" xml:space="preserve">
<style type="text/css">
	.st0{fill:#FFFFFF;}
</style>
<g>
	<path class="st0" d="M52.54,11.78l-2.49-0.27l0.18-1.67c0.05-0.48,0.06-0.79,0.02-0.92c-0.04-0.13-0.15-0.2-0.33-0.22
		c-0.21-0.02-0.34,0.04-0.41,0.18s-0.13,0.45-0.19,0.94l-0.48,4.45c-0.05,0.47-0.05,0.77-0.02,0.92s0.16,0.23,0.35,0.25
		c0.19,0.02,0.31-0.04,0.39-0.17c0.07-0.14,0.14-0.47,0.19-0.99l0.13-1.21l2.49,0.27l-0.04,0.37c-0.11,0.99-0.25,1.69-0.44,2.09
		c-0.18,0.4-0.53,0.73-1.05,0.99c-0.51,0.26-1.12,0.35-1.82,0.28c-0.73-0.08-1.32-0.28-1.76-0.59c-0.45-0.32-0.72-0.72-0.82-1.2
		c-0.1-0.48-0.1-1.2,0-2.14l0.3-2.8c0.07-0.69,0.15-1.21,0.24-1.55s0.26-0.66,0.53-0.95s0.62-0.51,1.06-0.65
		c0.44-0.14,0.93-0.18,1.47-0.12c0.73,0.08,1.32,0.29,1.77,0.62s0.72,0.72,0.83,1.16c0.11,0.44,0.11,1.11,0.01,2L52.54,11.78z"/>
	<path class="st0" d="M60.97,10.08l-3.18,9.11l-2.37-0.83l1.33-3.82l-0.71-0.25l-1.33,3.82l-2.37-0.83l3.18-9.11l2.37,0.83
		l-1.14,3.26l0.71,0.25l1.14-3.26L60.97,10.08z"/>
	<path class="st0" d="M63.2,11.22l3.6,2.13l-0.98,1.66l-1.44-0.85l-0.93,1.57l1.35,0.8l-0.94,1.58l-1.35-0.8l-1.08,1.82L63,20.07
		l-0.99,1.66l-3.74-2.22L63.2,11.22z"/>
	<path class="st0" d="M72.49,18.02l-3.47,2.63l-2.55,4.92l-1.75-1.53c0.42-0.91,1.01-1.95,1.74-3.15c-0.45,0.42-0.94,0.85-1.48,1.29
		l-1.21,1.03l-1.84-1.61l4.23-3.44l2.13-3.81l1.82,1.6c-0.14,0.23-0.37,0.62-0.68,1.17c-0.23,0.42-0.46,0.81-0.67,1.15l2.14-1.63
		L72.49,18.02z"/>
	<path class="st0" d="M75.42,29.04l-1.35-2.11l1.41-0.9c0.41-0.26,0.65-0.45,0.73-0.56c0.07-0.11,0.06-0.24-0.04-0.4
		c-0.11-0.17-0.24-0.25-0.4-0.21c-0.15,0.03-0.44,0.18-0.85,0.44l-3.78,2.41c-0.4,0.25-0.64,0.44-0.73,0.56
		c-0.09,0.12-0.08,0.27,0.02,0.43c0.1,0.16,0.23,0.22,0.38,0.19c0.15-0.03,0.45-0.19,0.9-0.47l1.02-0.65l1.35,2.11l-0.32,0.2
		c-0.84,0.54-1.48,0.86-1.9,0.96c-0.43,0.11-0.9,0.04-1.43-0.2s-0.98-0.65-1.36-1.25c-0.4-0.62-0.61-1.2-0.64-1.75
		c-0.03-0.54,0.11-1.01,0.42-1.39s0.87-0.83,1.67-1.34l2.38-1.52c0.59-0.37,1.04-0.63,1.36-0.78c0.32-0.15,0.68-0.21,1.08-0.18
		c0.4,0.03,0.79,0.17,1.17,0.42s0.72,0.61,1.01,1.07c0.4,0.62,0.6,1.21,0.62,1.77c0.02,0.56-0.11,1.02-0.39,1.37
		s-0.8,0.78-1.56,1.26L75.42,29.04z"/>
	<path class="st0" d="M82.02,34.58l-9.09,3.21l-0.83-2.36l3.82-1.35l-0.25-0.71l-3.82,1.35l-0.83-2.37l9.09-3.21l0.83,2.37
		l-3.25,1.15l0.25,0.71l3.25-1.15L82.02,34.58z"/>
	<path class="st0" d="M77.66,43.56c-0.96,0.11-1.65,0.16-2.05,0.16c-0.41,0-0.79-0.1-1.15-0.3c-0.36-0.2-0.65-0.5-0.87-0.88
		c-0.22-0.39-0.37-0.85-0.43-1.39c-0.06-0.51-0.03-0.98,0.1-1.41c0.12-0.43,0.34-0.78,0.64-1.07c0.31-0.29,0.66-0.48,1.04-0.57
		s1.08-0.19,2.06-0.3l1.64-0.18c0.96-0.11,1.65-0.16,2.05-0.16c0.41,0,0.79,0.1,1.15,0.3c0.36,0.2,0.65,0.5,0.87,0.88
		c0.22,0.39,0.37,0.85,0.43,1.39c0.06,0.51,0.03,0.98-0.1,1.41c-0.12,0.43-0.34,0.78-0.64,1.07c-0.31,0.29-0.66,0.48-1.04,0.57
		c-0.39,0.09-1.08,0.19-2.06,0.3L77.66,43.56z M80.52,40.71c0.45-0.05,0.73-0.11,0.85-0.17c0.12-0.06,0.17-0.17,0.15-0.33
		c-0.01-0.13-0.08-0.22-0.18-0.28s-0.41-0.06-0.9,0l-4.48,0.5c-0.56,0.06-0.9,0.12-1.02,0.18c-0.13,0.06-0.18,0.17-0.16,0.34
		c0.02,0.17,0.11,0.27,0.26,0.3c0.16,0.03,0.51,0.01,1.08-0.05L80.52,40.71z"/>
	<path class="st0" d="M78.44,50.9l0.28-2.49l1.67,0.19c0.48,0.05,0.79,0.06,0.92,0.02c0.13-0.04,0.2-0.15,0.22-0.33
		c0.02-0.21-0.04-0.34-0.18-0.41c-0.14-0.07-0.45-0.13-0.94-0.19l-4.45-0.5c-0.47-0.05-0.77-0.06-0.92-0.02s-0.23,0.16-0.25,0.35
		c-0.02,0.19,0.04,0.31,0.17,0.39c0.14,0.07,0.47,0.14,0.99,0.2l1.21,0.13l-0.28,2.49l-0.37-0.04c-0.99-0.11-1.69-0.26-2.09-0.45
		c-0.4-0.19-0.73-0.54-0.99-1.05c-0.26-0.52-0.35-1.12-0.27-1.83c0.08-0.73,0.28-1.32,0.6-1.76c0.32-0.44,0.72-0.72,1.2-0.82
		c0.49-0.1,1.2-0.1,2.14,0.01l2.8,0.31c0.69,0.08,1.21,0.16,1.55,0.25c0.34,0.09,0.66,0.26,0.95,0.54c0.29,0.27,0.51,0.62,0.65,1.06
		c0.14,0.44,0.18,0.93,0.12,1.47c-0.08,0.73-0.29,1.32-0.63,1.77c-0.34,0.45-0.73,0.72-1.17,0.82c-0.44,0.1-1.11,0.1-2,0L78.44,50.9
		z"/>
	<path class="st0" d="M74.79,57.43c-0.91-0.32-1.55-0.57-1.92-0.75s-0.67-0.43-0.9-0.77c-0.23-0.34-0.37-0.73-0.4-1.17
		c-0.03-0.45,0.04-0.92,0.22-1.44c0.17-0.49,0.4-0.9,0.7-1.23c0.29-0.33,0.64-0.56,1.04-0.68s0.8-0.14,1.19-0.06
		c0.39,0.09,1.05,0.29,1.99,0.62l1.56,0.55c0.91,0.32,1.55,0.57,1.92,0.75s0.67,0.43,0.9,0.77c0.24,0.34,0.37,0.73,0.4,1.17
		c0.03,0.44-0.04,0.92-0.22,1.44c-0.17,0.49-0.41,0.9-0.7,1.23c-0.3,0.33-0.64,0.56-1.05,0.68s-0.8,0.14-1.19,0.06
		c-0.39-0.09-1.05-0.29-1.99-0.62L74.79,57.43z M78.62,56.11c0.42,0.15,0.7,0.22,0.84,0.21c0.13-0.01,0.23-0.08,0.28-0.23
		c0.04-0.12,0.03-0.23-0.04-0.33c-0.07-0.1-0.34-0.23-0.81-0.4l-4.25-1.49c-0.53-0.19-0.86-0.28-1-0.28c-0.14,0-0.24,0.08-0.29,0.24
		c-0.06,0.16-0.02,0.29,0.1,0.38c0.13,0.09,0.46,0.24,0.99,0.42L78.62,56.11z"/>
	<path class="st0" d="M70.76,66.23l1.49-2.02l1.35,1c0.39,0.29,0.65,0.45,0.78,0.48c0.13,0.03,0.25-0.03,0.36-0.18
		c0.12-0.17,0.14-0.31,0.06-0.45c-0.08-0.13-0.32-0.34-0.72-0.63l-3.6-2.66c-0.38-0.28-0.64-0.44-0.79-0.48
		c-0.15-0.04-0.28,0.02-0.4,0.17c-0.11,0.15-0.13,0.29-0.04,0.42c0.08,0.13,0.33,0.36,0.76,0.67l0.97,0.72l-1.49,2.02l-0.3-0.22
		c-0.8-0.59-1.33-1.07-1.58-1.43c-0.25-0.36-0.36-0.83-0.33-1.41c0.03-0.57,0.26-1.15,0.68-1.71c0.44-0.59,0.9-1,1.4-1.22
		c0.5-0.23,0.98-0.26,1.45-0.1s1.09,0.51,1.85,1.08l2.26,1.68c0.56,0.41,0.96,0.74,1.21,0.99s0.44,0.56,0.55,0.94
		c0.12,0.38,0.13,0.79,0.03,1.24c-0.1,0.45-0.31,0.89-0.64,1.33c-0.44,0.59-0.92,1-1.43,1.22s-0.99,0.26-1.42,0.13
		c-0.43-0.13-1.01-0.47-1.73-1L70.76,66.23z"/>
	<path class="st0" d="M67.98,74.37l-6.27-7.33l1.91-1.63l2.63,3.08L66.82,68l-2.63-3.08l1.91-1.63l6.27,7.33l-1.91,1.63l-2.24-2.62
		l-0.57,0.49l2.24,2.62L67.98,74.37z"/>
	<path class="st0" d="M65.88,75.73l-3.65,2.04l-0.94-1.68l1.46-0.82l-0.89-1.6l-1.37,0.76l-0.89-1.6l1.37-0.76l-1.03-1.85l-1.61,0.9
		l-0.94-1.69l3.8-2.12L65.88,75.73z"/>
	<path class="st0" d="M55.31,80.33l-0.52-4.32l-2.97-4.68l2.2-0.74c0.57,0.82,1.18,1.85,1.84,3.09c-0.13-0.6-0.26-1.24-0.37-1.93
		l-0.28-1.57l2.32-0.78l0.84,5.39l2.22,3.76l-2.3,0.77c-0.13-0.24-0.35-0.63-0.67-1.18c-0.25-0.42-0.47-0.8-0.66-1.16l0.33,2.67
		L55.31,80.33z"/>
	<path class="st0" d="M44.3,77.3l2.51-0.09l0.06,1.67c0.02,0.49,0.06,0.79,0.12,0.91c0.06,0.12,0.18,0.17,0.36,0.17
		c0.21-0.01,0.33-0.09,0.38-0.24c0.05-0.15,0.07-0.47,0.05-0.96l-0.17-4.48c-0.02-0.47-0.06-0.77-0.12-0.91
		c-0.06-0.14-0.19-0.21-0.38-0.2c-0.19,0.01-0.31,0.08-0.36,0.23c-0.05,0.15-0.07,0.48-0.05,1.01l0.05,1.21l-2.51,0.09l-0.01-0.38
		c-0.04-1,0.01-1.71,0.13-2.13s0.42-0.8,0.89-1.13c0.47-0.33,1.06-0.51,1.76-0.54c0.73-0.03,1.34,0.08,1.83,0.33
		c0.49,0.25,0.82,0.6,0.99,1.07c0.17,0.46,0.28,1.17,0.31,2.11l0.11,2.82c0.03,0.69,0.02,1.22-0.01,1.57
		c-0.03,0.35-0.16,0.69-0.39,1.02c-0.22,0.33-0.54,0.6-0.95,0.8c-0.41,0.2-0.89,0.31-1.43,0.33c-0.74,0.03-1.35-0.09-1.84-0.36
		c-0.49-0.27-0.82-0.61-0.99-1.03c-0.17-0.42-0.27-1.08-0.3-1.98L44.3,77.3z"/>
	<path class="st0" d="M36.21,80.22l1.8-9.47l2.46,0.47l-0.76,3.98l0.74,0.14l0.76-3.98l2.46,0.47l-1.8,9.48l-2.46-0.47l0.64-3.39
		l-0.74-0.14l-0.64,3.39L36.21,80.22z"/>
	<path class="st0" d="M30.64,71.93c0.39-0.89,0.69-1.5,0.89-1.86s0.48-0.63,0.84-0.84s0.75-0.31,1.2-0.31
		c0.45,0,0.92,0.11,1.42,0.33c0.47,0.21,0.86,0.47,1.17,0.79s0.51,0.69,0.6,1.1c0.09,0.41,0.08,0.81-0.04,1.19
		c-0.12,0.38-0.38,1.03-0.78,1.94l-0.67,1.51c-0.39,0.89-0.69,1.5-0.89,1.86c-0.2,0.35-0.48,0.63-0.84,0.84
		c-0.35,0.21-0.75,0.31-1.2,0.31s-0.92-0.11-1.42-0.33c-0.47-0.21-0.86-0.47-1.17-0.79s-0.51-0.69-0.6-1.09
		c-0.09-0.41-0.08-0.81,0.04-1.19c0.12-0.38,0.38-1.03,0.78-1.94L30.64,71.93z M31.66,75.84c-0.18,0.41-0.27,0.68-0.28,0.82
		c0,0.13,0.06,0.23,0.21,0.29c0.12,0.05,0.23,0.05,0.34-0.02s0.26-0.32,0.46-0.78l1.82-4.12c0.23-0.51,0.34-0.84,0.36-0.98
		c0.01-0.14-0.06-0.24-0.21-0.31c-0.16-0.07-0.29-0.04-0.39,0.07c-0.1,0.12-0.27,0.44-0.5,0.96L31.66,75.84z"/>
	<path class="st0" d="M23.93,68.91l2.01,1.5l-1,1.34c-0.29,0.39-0.45,0.65-0.48,0.78s0.03,0.25,0.18,0.36
		c0.17,0.12,0.31,0.14,0.45,0.06c0.13-0.08,0.34-0.32,0.64-0.71l2.68-3.59c0.28-0.38,0.44-0.64,0.48-0.79
		c0.04-0.15-0.02-0.28-0.17-0.4c-0.15-0.11-0.29-0.13-0.42-0.05c-0.13,0.08-0.36,0.33-0.67,0.76l-0.72,0.97l-2.01-1.5l0.22-0.3
		c0.6-0.8,1.08-1.33,1.44-1.58c0.36-0.25,0.83-0.36,1.41-0.32c0.57,0.04,1.15,0.27,1.71,0.69c0.59,0.44,1,0.91,1.22,1.41
		c0.22,0.5,0.26,0.98,0.1,1.45s-0.52,1.08-1.08,1.84l-1.68,2.26c-0.42,0.56-0.75,0.96-0.99,1.21c-0.25,0.25-0.56,0.43-0.94,0.55
		c-0.38,0.12-0.8,0.12-1.24,0.02s-0.89-0.32-1.32-0.64c-0.59-0.44-1-0.92-1.21-1.44c-0.21-0.52-0.25-0.99-0.12-1.42
		s0.47-1.01,1.01-1.73L23.93,68.91z"/>
	<path class="st0" d="M20.11,62.45c0.74-0.63,1.28-1.05,1.61-1.28c0.34-0.23,0.71-0.36,1.12-0.39c0.41-0.03,0.82,0.05,1.22,0.24
		c0.4,0.2,0.78,0.5,1.13,0.92c0.33,0.39,0.57,0.8,0.71,1.22c0.14,0.42,0.16,0.84,0.06,1.25c-0.09,0.41-0.28,0.76-0.55,1.05
		c-0.27,0.29-0.79,0.76-1.54,1.41l-1.26,1.07C21.87,68.57,21.33,69,21,69.22c-0.34,0.23-0.71,0.36-1.12,0.39
		c-0.41,0.03-0.81-0.05-1.22-0.24c-0.4-0.2-0.78-0.5-1.13-0.92c-0.33-0.39-0.57-0.8-0.71-1.22c-0.14-0.42-0.16-0.84-0.06-1.25
		c0.1-0.41,0.28-0.76,0.55-1.05c0.27-0.29,0.79-0.76,1.54-1.41L20.11,62.45z M19.32,66.42c-0.34,0.29-0.54,0.5-0.61,0.61
		c-0.06,0.12-0.04,0.24,0.06,0.36c0.08,0.1,0.19,0.14,0.31,0.13s0.37-0.18,0.75-0.5l3.43-2.92c0.43-0.36,0.67-0.6,0.75-0.72
		c0.07-0.12,0.05-0.24-0.06-0.37c-0.11-0.13-0.24-0.16-0.38-0.1s-0.44,0.28-0.87,0.64L19.32,66.42z"/>
	<path class="st0" d="M14.54,54.55l0.99,2.3l-1.54,0.66c-0.45,0.19-0.72,0.34-0.81,0.44c-0.09,0.1-0.1,0.23-0.03,0.4
		c0.08,0.19,0.2,0.28,0.36,0.27c0.16-0.01,0.46-0.11,0.91-0.3l4.11-1.77c0.43-0.19,0.7-0.33,0.81-0.44
		c0.11-0.11,0.13-0.25,0.05-0.43c-0.07-0.17-0.19-0.26-0.34-0.25s-0.47,0.11-0.96,0.32l-1.11,0.48l-0.99-2.3l0.34-0.15
		c0.92-0.4,1.6-0.61,2.03-0.65c0.44-0.04,0.9,0.11,1.38,0.42c0.48,0.32,0.86,0.8,1.14,1.45c0.29,0.67,0.41,1.28,0.35,1.83
		s-0.27,0.98-0.64,1.31c-0.37,0.33-0.99,0.68-1.86,1.05l-2.59,1.12c-0.64,0.27-1.13,0.46-1.46,0.55c-0.34,0.09-0.7,0.1-1.09,0.01
		c-0.39-0.09-0.75-0.29-1.09-0.6s-0.61-0.72-0.83-1.22c-0.29-0.68-0.4-1.29-0.33-1.85c0.07-0.55,0.27-0.99,0.61-1.29
		c0.33-0.31,0.91-0.64,1.74-1L14.54,54.55z"/>
	<path class="st0" d="M8.91,48.03l9.49-1.71l0.45,2.47l-3.99,0.72L15,50.25l3.99-0.72L19.43,52l-9.49,1.71l-0.44-2.47l3.39-0.61
		l-0.13-0.74L9.36,50.5L8.91,48.03z"/>
	<path class="st0" d="M8.8,45.53l0.08-4.18l1.93,0.04l-0.03,1.67l1.83,0.04l0.03-1.57l1.83,0.04l-0.03,1.57l2.12,0.04l0.04-1.84
		l1.93,0.04l-0.09,4.35L8.8,45.53z"/>
	<path class="st0" d="M10.13,34.12l4,1.72l5.54-0.21L19.2,37.9c-1,0.08-2.2,0.09-3.6,0.04c0.59,0.19,1.2,0.4,1.85,0.65l1.49,0.55
		l-0.49,2.39l-5.08-1.98l-4.36,0.03l0.49-2.37c0.27,0.01,0.72,0.01,1.35,0.01c0.48-0.01,0.93,0,1.33,0.01l-2.47-1.06L10.13,34.12z"
		/>
	<path class="st0" d="M18.3,26.11l-1.18,2.21l-1.48-0.79c-0.43-0.23-0.71-0.35-0.84-0.36c-0.13-0.01-0.24,0.07-0.33,0.23
		c-0.1,0.18-0.09,0.33,0.01,0.45c0.1,0.12,0.37,0.29,0.8,0.52l3.95,2.11c0.41,0.22,0.7,0.34,0.85,0.36
		c0.15,0.02,0.27-0.06,0.37-0.23c0.09-0.16,0.08-0.31-0.02-0.42c-0.1-0.12-0.38-0.3-0.85-0.55l-1.07-0.57l1.18-2.21l0.33,0.18
		c0.88,0.47,1.47,0.87,1.77,1.19c0.3,0.32,0.48,0.77,0.53,1.34c0.05,0.57-0.09,1.17-0.42,1.8c-0.35,0.65-0.75,1.12-1.21,1.42
		s-0.93,0.4-1.42,0.32c-0.49-0.08-1.15-0.35-1.98-0.79l-2.49-1.33c-0.61-0.33-1.06-0.59-1.35-0.8s-0.51-0.49-0.69-0.85
		c-0.17-0.36-0.24-0.77-0.21-1.22c0.03-0.46,0.18-0.93,0.44-1.41c0.35-0.65,0.76-1.12,1.24-1.41c0.48-0.29,0.94-0.4,1.39-0.33
		c0.45,0.07,1.07,0.31,1.86,0.74L18.3,26.11z"/>
	<path class="st0" d="M19.87,17.66l7.27,6.34l-1.65,1.89l-3.05-2.66l-0.49,0.57L25,26.45l-1.65,1.89L16.08,22l1.65-1.89l2.6,2.27
		l0.49-0.57l-2.6-2.27L19.87,17.66z"/>
	<path class="st0" d="M29.83,17.02c0.57,0.78,0.96,1.35,1.16,1.71c0.2,0.35,0.3,0.73,0.3,1.15s-0.11,0.81-0.34,1.19
		c-0.23,0.39-0.56,0.74-1,1.06c-0.42,0.3-0.84,0.51-1.27,0.61c-0.43,0.1-0.85,0.09-1.25-0.03c-0.4-0.13-0.74-0.34-1.01-0.63
		s-0.7-0.84-1.28-1.64l-0.97-1.33c-0.57-0.78-0.95-1.35-1.15-1.71c-0.2-0.35-0.3-0.73-0.3-1.15c0-0.41,0.11-0.81,0.34-1.19
		c0.23-0.38,0.56-0.74,1-1.06c0.42-0.3,0.84-0.51,1.27-0.61c0.43-0.11,0.85-0.1,1.25,0.03s0.74,0.34,1.01,0.63
		c0.27,0.29,0.7,0.84,1.28,1.64L29.83,17.02z M25.94,15.94c-0.26-0.36-0.45-0.58-0.57-0.65c-0.11-0.07-0.23-0.06-0.36,0.03
		c-0.11,0.08-0.16,0.18-0.15,0.3c0,0.12,0.15,0.38,0.44,0.79l2.65,3.64c0.33,0.45,0.55,0.72,0.67,0.8c0.11,0.08,0.24,0.07,0.37-0.03
		c0.14-0.1,0.18-0.23,0.13-0.38c-0.05-0.15-0.24-0.45-0.58-0.91L25.94,15.94z"/>
	<path class="st0" d="M35.82,12.73l-2.31,0.98l-0.66-1.54c-0.19-0.45-0.33-0.72-0.43-0.81c-0.1-0.09-0.23-0.1-0.4-0.03
		c-0.19,0.08-0.28,0.2-0.27,0.36c0.01,0.16,0.11,0.46,0.3,0.91l1.76,4.12c0.18,0.43,0.33,0.7,0.44,0.81
		c0.11,0.11,0.25,0.13,0.43,0.05c0.17-0.07,0.26-0.19,0.25-0.34c0-0.15-0.11-0.48-0.32-0.96l-0.48-1.11l2.31-0.98l0.15,0.35
		c0.39,0.92,0.6,1.6,0.64,2.04s-0.11,0.9-0.43,1.38c-0.32,0.48-0.81,0.86-1.46,1.13c-0.68,0.29-1.29,0.4-1.83,0.35
		c-0.54-0.06-0.98-0.27-1.3-0.64s-0.68-0.99-1.05-1.86l-1.11-2.59c-0.27-0.64-0.46-1.13-0.55-1.47c-0.09-0.34-0.09-0.7,0-1.09
		c0.09-0.39,0.29-0.75,0.61-1.08c0.31-0.33,0.72-0.61,1.22-0.82c0.68-0.29,1.3-0.4,1.85-0.32c0.55,0.07,0.98,0.28,1.29,0.61
		c0.31,0.33,0.64,0.91,0.99,1.74L35.82,12.73z"/>
	<path class="st0" d="M43.33,12.7c0.17,0.95,0.27,1.63,0.29,2.04c0.02,0.41-0.05,0.79-0.23,1.16c-0.18,0.37-0.45,0.68-0.83,0.93
		c-0.37,0.25-0.83,0.42-1.36,0.51c-0.51,0.09-0.98,0.09-1.41-0.01c-0.43-0.09-0.8-0.29-1.11-0.58c-0.31-0.29-0.52-0.62-0.63-1.01
		s-0.26-1.06-0.43-2.04l-0.29-1.63c-0.17-0.95-0.27-1.63-0.29-2.04c-0.03-0.4,0.05-0.79,0.23-1.16c0.18-0.37,0.45-0.68,0.83-0.93
		c0.37-0.25,0.83-0.42,1.36-0.51c0.51-0.09,0.98-0.09,1.41,0.01c0.43,0.09,0.8,0.29,1.11,0.57c0.31,0.29,0.52,0.63,0.63,1.01
		c0.12,0.38,0.26,1.06,0.43,2.04L43.33,12.7z M40.31,10.01c-0.08-0.44-0.15-0.72-0.22-0.83c-0.07-0.11-0.18-0.16-0.33-0.13
		c-0.13,0.02-0.22,0.09-0.27,0.2s-0.03,0.41,0.05,0.9l0.78,4.43c0.1,0.55,0.18,0.89,0.25,1.01s0.18,0.17,0.35,0.14
		c0.17-0.03,0.26-0.12,0.28-0.28s-0.02-0.52-0.12-1.07L40.31,10.01z"/>
</g>
</svg>
