<?xml version="1.0" encoding="utf-8"?>
<!-- Generator: Adobe Illustrator 23.1.0, SVG Export Plug-In . SVG Version: 6.00 Build 0)  -->
<svg version="1.1" id="Layer_1" xmlns="http://www.w3.org/2000/svg" xmlns:xlink="http://www.w3.org/1999/xlink" x="0px" y="0px"
	 viewBox="0 0 90 90" style="enable-background:new 0 0 90 90;" xml:space="preserve">
<style type="text/css">
	.st0{fill:#FFFFFF;}
</style>
<g>
	<path class="st0" d="M54.25,11.74l-1.69-0.45l0.3-1.13c0.09-0.33,0.12-0.54,0.11-0.63s-0.08-0.15-0.21-0.19
		c-0.14-0.04-0.24-0.01-0.3,0.08c-0.06,0.09-0.14,0.3-0.23,0.63l-0.8,3.02c-0.08,0.32-0.12,0.53-0.11,0.63
		c0.01,0.11,0.08,0.18,0.21,0.21c0.13,0.03,0.22,0.01,0.29-0.08c0.06-0.09,0.14-0.31,0.24-0.66l0.22-0.82l1.69,0.45l-0.07,0.25
		c-0.18,0.67-0.35,1.14-0.52,1.39c-0.17,0.26-0.45,0.45-0.83,0.57c-0.38,0.13-0.81,0.12-1.29,0c-0.49-0.13-0.88-0.33-1.15-0.59
		s-0.42-0.57-0.44-0.91c-0.02-0.34,0.05-0.83,0.22-1.47l0.51-1.9c0.12-0.47,0.23-0.81,0.33-1.04c0.09-0.23,0.25-0.43,0.47-0.6
		c0.22-0.17,0.48-0.29,0.8-0.33c0.32-0.05,0.66-0.02,1.02,0.07c0.5,0.13,0.88,0.34,1.15,0.62s0.42,0.57,0.45,0.89
		c0.03,0.31-0.04,0.77-0.21,1.38L54.25,11.74z"/>
	<path class="st0" d="M60.01,10.98l-2.67,6.16l-1.6-0.7l1.12-2.59l-0.48-0.21l-1.12,2.59l-1.6-0.7l2.67-6.16l1.6,0.7l-0.96,2.2
		l0.48,0.21l0.96-2.2L60.01,10.98z"/>
	<path class="st0" d="M61.21,11.64l2.5,1.5l-0.69,1.15l-1-0.6l-0.65,1.09l0.94,0.56l-0.66,1.1l-0.94-0.56l-0.76,1.27l1.1,0.66
		l-0.69,1.15l-2.6-1.56L61.21,11.64z"/>
	<path class="st0" d="M67.54,15.99l-2.3,1.97l-1.56,3.53l-1.28-0.99c0.26-0.65,0.62-1.4,1.08-2.26c-0.3,0.31-0.62,0.63-0.97,0.96
		l-0.8,0.77l-1.35-1.04l2.8-2.58l1.32-2.74l1.34,1.03c-0.09,0.17-0.23,0.45-0.42,0.84c-0.14,0.31-0.28,0.58-0.42,0.83l1.42-1.22
		L67.54,15.99z"/>
	<path class="st0" d="M70.28,23.02l-1.16-1.3l0.87-0.78c0.25-0.23,0.4-0.38,0.44-0.46c0.04-0.08,0.01-0.17-0.07-0.27
		c-0.1-0.11-0.19-0.14-0.3-0.1c-0.1,0.04-0.28,0.17-0.53,0.4l-2.33,2.08c-0.24,0.22-0.39,0.37-0.44,0.47
		c-0.05,0.1-0.03,0.19,0.06,0.29c0.09,0.1,0.18,0.13,0.28,0.09c0.1-0.04,0.29-0.18,0.56-0.42l0.63-0.56l1.16,1.3l-0.2,0.17
		c-0.52,0.46-0.92,0.75-1.2,0.87c-0.28,0.12-0.62,0.13-1,0.02s-0.74-0.34-1.07-0.71c-0.34-0.38-0.55-0.76-0.63-1.13
		c-0.08-0.37-0.04-0.71,0.14-1c0.17-0.3,0.5-0.67,1-1.11l1.47-1.31c0.36-0.32,0.64-0.55,0.85-0.69c0.2-0.14,0.44-0.22,0.72-0.24
		c0.28-0.03,0.56,0.03,0.85,0.16s0.56,0.34,0.81,0.62c0.34,0.38,0.55,0.77,0.63,1.15c0.07,0.38,0.04,0.71-0.12,0.99
		c-0.15,0.28-0.46,0.62-0.93,1.04L70.28,23.02z"/>
	<path class="st0" d="M75.51,25.54l-5.62,3.69l-0.96-1.46l2.36-1.55l-0.29-0.44l-2.36,1.55l-0.96-1.46l5.62-3.69l0.96,1.46
		l-2.01,1.32l0.29,0.44l2.01-1.32L75.51,25.54z"/>
	<path class="st0" d="M74.32,32.09c-0.61,0.28-1.05,0.47-1.32,0.56c-0.27,0.09-0.54,0.11-0.82,0.05s-0.54-0.18-0.77-0.39
		c-0.23-0.21-0.43-0.48-0.59-0.83c-0.15-0.33-0.23-0.64-0.25-0.95s0.05-0.59,0.19-0.85c0.14-0.26,0.33-0.46,0.57-0.6
		s0.67-0.37,1.3-0.66l1.04-0.48c0.61-0.28,1.05-0.47,1.32-0.56c0.27-0.09,0.54-0.11,0.82-0.05s0.54,0.18,0.77,0.39
		c0.23,0.21,0.43,0.48,0.59,0.83c0.15,0.33,0.23,0.64,0.25,0.95c0.01,0.31-0.05,0.59-0.19,0.85c-0.14,0.26-0.33,0.46-0.57,0.61
		c-0.24,0.15-0.67,0.36-1.3,0.66L74.32,32.09z M75.59,29.57c0.28-0.13,0.46-0.23,0.52-0.3c0.06-0.07,0.07-0.15,0.03-0.25
		c-0.04-0.08-0.1-0.13-0.18-0.15c-0.08-0.01-0.28,0.05-0.6,0.2l-2.85,1.32c-0.35,0.16-0.57,0.28-0.63,0.35
		c-0.07,0.07-0.08,0.15-0.03,0.26c0.05,0.11,0.13,0.16,0.24,0.14s0.34-0.1,0.7-0.27L75.59,29.57z"/>
	<path class="st0" d="M76.74,36.5l-0.49-1.68l1.12-0.33c0.33-0.1,0.52-0.17,0.59-0.23s0.09-0.15,0.05-0.27
		c-0.04-0.14-0.12-0.21-0.22-0.22c-0.11-0.01-0.33,0.04-0.65,0.13l-3,0.88c-0.31,0.09-0.51,0.17-0.6,0.24
		c-0.08,0.06-0.11,0.16-0.07,0.29c0.04,0.12,0.11,0.19,0.22,0.2c0.11,0.01,0.34-0.04,0.69-0.14l0.81-0.24l0.49,1.68l-0.25,0.07
		c-0.67,0.2-1.15,0.29-1.46,0.28c-0.31-0.01-0.61-0.15-0.92-0.41c-0.3-0.26-0.53-0.63-0.67-1.1c-0.14-0.49-0.17-0.92-0.09-1.29
		c0.08-0.37,0.27-0.65,0.55-0.85c0.28-0.2,0.74-0.39,1.37-0.57l1.88-0.55c0.46-0.14,0.82-0.22,1.06-0.26
		c0.24-0.04,0.49-0.01,0.75,0.09s0.5,0.26,0.7,0.51c0.21,0.24,0.36,0.55,0.47,0.91c0.15,0.49,0.17,0.93,0.07,1.31
		s-0.27,0.66-0.53,0.84c-0.26,0.18-0.68,0.37-1.29,0.54L76.74,36.5z"/>
	<path class="st0" d="M76.48,41.52c-0.67,0.09-1.14,0.14-1.43,0.15s-0.55-0.06-0.8-0.19c-0.25-0.13-0.46-0.33-0.62-0.6
		c-0.16-0.27-0.27-0.58-0.32-0.96c-0.05-0.36-0.04-0.68,0.04-0.98c0.08-0.3,0.22-0.55,0.43-0.76c0.21-0.21,0.45-0.34,0.72-0.41
		c0.27-0.07,0.75-0.15,1.43-0.25l1.14-0.16c0.67-0.09,1.14-0.14,1.43-0.15c0.28-0.01,0.55,0.06,0.8,0.19
		c0.25,0.13,0.46,0.33,0.62,0.6c0.16,0.26,0.27,0.58,0.32,0.96c0.05,0.36,0.04,0.68-0.04,0.98c-0.08,0.3-0.22,0.55-0.43,0.76
		c-0.21,0.21-0.45,0.34-0.72,0.41s-0.75,0.15-1.43,0.25L76.48,41.52z M78.43,39.48c0.31-0.04,0.51-0.09,0.59-0.13
		c0.08-0.05,0.12-0.12,0.1-0.23c-0.01-0.09-0.06-0.15-0.13-0.19c-0.08-0.04-0.29-0.03-0.63,0.01l-3.11,0.44
		c-0.39,0.05-0.62,0.1-0.71,0.15c-0.09,0.04-0.12,0.12-0.1,0.24c0.02,0.12,0.08,0.19,0.19,0.2c0.11,0.02,0.36,0,0.75-0.05
		L78.43,39.48z"/>
	<path class="st0" d="M77.38,48.02l0.09-1.75l1.17,0.06c0.34,0.02,0.55,0.01,0.64-0.02s0.13-0.11,0.14-0.24
		c0.01-0.14-0.04-0.24-0.14-0.28c-0.1-0.04-0.32-0.07-0.66-0.09l-3.12-0.16c-0.33-0.02-0.54-0.01-0.64,0.02s-0.16,0.12-0.16,0.25
		c-0.01,0.13,0.04,0.22,0.14,0.26s0.33,0.08,0.7,0.1l0.84,0.04l-0.09,1.75l-0.26-0.01c-0.69-0.04-1.18-0.11-1.47-0.22
		c-0.29-0.11-0.53-0.34-0.73-0.69c-0.2-0.35-0.29-0.77-0.26-1.26c0.03-0.51,0.14-0.93,0.34-1.25c0.2-0.32,0.47-0.53,0.8-0.62
		c0.33-0.09,0.83-0.12,1.49-0.08l1.96,0.1c0.48,0.03,0.85,0.06,1.08,0.11c0.24,0.05,0.47,0.16,0.68,0.33
		c0.21,0.18,0.38,0.41,0.49,0.71c0.11,0.3,0.16,0.64,0.14,1.02c-0.03,0.51-0.15,0.93-0.37,1.26c-0.22,0.32-0.47,0.53-0.78,0.62
		c-0.3,0.09-0.77,0.12-1.39,0.09L77.38,48.02z"/>
	<path class="st0" d="M75.47,52.68c-0.66-0.13-1.13-0.24-1.4-0.33c-0.27-0.09-0.5-0.23-0.7-0.44c-0.2-0.21-0.33-0.47-0.39-0.77
		c-0.07-0.3-0.06-0.64,0.01-1.01c0.07-0.35,0.19-0.66,0.36-0.92c0.17-0.26,0.39-0.45,0.66-0.57c0.27-0.13,0.54-0.18,0.81-0.15
		c0.28,0.02,0.76,0.1,1.43,0.24l1.13,0.23c0.66,0.13,1.13,0.24,1.4,0.33c0.27,0.09,0.5,0.24,0.7,0.45c0.19,0.21,0.32,0.47,0.39,0.77
		c0.07,0.3,0.06,0.64-0.01,1.01c-0.07,0.35-0.19,0.66-0.36,0.92s-0.39,0.45-0.66,0.57c-0.26,0.12-0.54,0.18-0.81,0.15
		c-0.28-0.02-0.76-0.1-1.43-0.24L75.47,52.68z M77.98,51.4c0.31,0.06,0.51,0.08,0.6,0.07c0.09-0.02,0.15-0.08,0.17-0.18
		c0.02-0.09,0-0.17-0.06-0.23c-0.06-0.06-0.26-0.13-0.6-0.2l-3.08-0.62c-0.38-0.08-0.62-0.11-0.72-0.1
		c-0.1,0.01-0.16,0.08-0.18,0.19c-0.02,0.12,0.01,0.2,0.11,0.25c0.1,0.05,0.34,0.12,0.73,0.2L77.98,51.4z"/>
	<path class="st0" d="M73.88,57.27c-0.63-0.23-1.08-0.41-1.33-0.53c-0.25-0.13-0.46-0.31-0.62-0.54s-0.25-0.51-0.27-0.82
		s0.03-0.64,0.16-1c0.12-0.34,0.29-0.62,0.49-0.85c0.21-0.23,0.45-0.39,0.73-0.47s0.56-0.09,0.83-0.03s0.73,0.21,1.38,0.45
		l1.08,0.39c0.63,0.23,1.08,0.41,1.33,0.53c0.25,0.13,0.46,0.31,0.62,0.54s0.25,0.51,0.27,0.82c0.02,0.31-0.03,0.64-0.16,1
		c-0.12,0.34-0.29,0.62-0.49,0.85c-0.21,0.23-0.45,0.39-0.73,0.47c-0.28,0.08-0.56,0.1-0.83,0.03c-0.27-0.06-0.73-0.21-1.38-0.45
		L73.88,57.27z M76.55,56.37c0.29,0.11,0.49,0.16,0.58,0.16s0.16-0.06,0.2-0.16c0.03-0.09,0.02-0.16-0.03-0.23
		c-0.05-0.07-0.24-0.16-0.56-0.28l-2.95-1.07c-0.37-0.13-0.6-0.2-0.7-0.2s-0.16,0.05-0.2,0.16c-0.04,0.11-0.02,0.2,0.07,0.27
		c0.09,0.07,0.32,0.17,0.69,0.3L76.55,56.37z"/>
	<path class="st0" d="M75.05,63.53l-2.2-2.31l-3.77-0.77l0.85-1.59l2.87,0.73l-2.54-1.36l0.82-1.54l5.93,3.17l-0.82,1.54l-2.3-1.23
		l1.94,1.92L75.05,63.53z"/>
	<path class="st0" d="M73.5,65.76l-5.54-3.8l0.99-1.44l5.54,3.8L73.5,65.76z"/>
	<path class="st0" d="M72.81,66.72l-1.86,2.24l-1.03-0.86l0.75-0.9l-0.98-0.82l-0.7,0.84l-0.98-0.82l0.7-0.84l-1.13-0.95l-0.82,0.99
		l-1.03-0.86l1.94-2.33L72.81,66.72z"/>
	<path class="st0" d="M62.76,70.8l-0.73-0.87l0.17-0.53l-1.17-0.48l1.19-1l0.39,0.16c0.18-0.6,0.45-1.04,0.8-1.34
		c0.37-0.31,0.76-0.43,1.17-0.35c0.41,0.08,0.76,0.29,1.05,0.64c0.23,0.28,0.36,0.55,0.37,0.81c0.01,0.26-0.05,0.54-0.21,0.84
		c0.54-0.04,0.99,0.15,1.34,0.56c0.3,0.36,0.42,0.75,0.36,1.17s-0.3,0.81-0.72,1.17c-0.38,0.32-0.77,0.47-1.17,0.44
		c-0.4-0.03-0.74-0.21-1.01-0.54c-0.29-0.35-0.42-0.77-0.38-1.26l-1.14-0.44L62.76,70.8z M63.54,68.3l1,0.35
		c0.04-0.28-0.01-0.5-0.15-0.67c-0.1-0.12-0.2-0.19-0.3-0.21c-0.1-0.02-0.2,0.01-0.3,0.09C63.68,67.95,63.6,68.09,63.54,68.3z
		 M65.5,70.04c0.01,0.31,0.09,0.55,0.23,0.72c0.06,0.07,0.14,0.12,0.23,0.15c0.09,0.03,0.18,0.01,0.25-0.06
		c0.07-0.06,0.1-0.13,0.1-0.2s-0.04-0.16-0.13-0.26C66.04,70.2,65.8,70.08,65.5,70.04z"/>
	<path class="st0" d="M57.97,75.05l1.53-0.84l0.56,1.02c0.16,0.3,0.28,0.47,0.35,0.53c0.07,0.06,0.17,0.05,0.28-0.01
		c0.13-0.07,0.18-0.16,0.17-0.27c-0.01-0.11-0.1-0.31-0.27-0.61l-1.5-2.74c-0.16-0.29-0.28-0.46-0.36-0.53
		c-0.08-0.07-0.18-0.07-0.3,0c-0.11,0.06-0.16,0.15-0.15,0.25c0.01,0.11,0.11,0.32,0.28,0.65l0.41,0.74l-1.53,0.84l-0.13-0.23
		c-0.33-0.61-0.53-1.07-0.58-1.37c-0.05-0.3,0.01-0.63,0.21-0.98c0.19-0.35,0.5-0.65,0.93-0.88c0.45-0.25,0.86-0.37,1.24-0.36
		c0.38,0,0.7,0.12,0.95,0.36c0.25,0.24,0.54,0.64,0.85,1.22l0.94,1.72c0.23,0.42,0.39,0.75,0.48,0.98c0.09,0.23,0.11,0.48,0.08,0.76
		c-0.04,0.28-0.15,0.54-0.35,0.79c-0.19,0.25-0.46,0.47-0.79,0.65c-0.45,0.25-0.87,0.36-1.26,0.35c-0.39-0.01-0.7-0.13-0.94-0.34
		c-0.23-0.21-0.5-0.59-0.8-1.14L57.97,75.05z"/>
	<path class="st0" d="M58.13,78.17l-1.16,0.43c-0.77,0.29-1.31,0.45-1.6,0.49c-0.29,0.04-0.58-0.03-0.84-0.21
		c-0.26-0.18-0.5-0.54-0.69-1.08c-0.18-0.49-0.24-0.84-0.18-1.06c0.06-0.21,0.26-0.4,0.61-0.57c-0.35,0.04-0.61,0.01-0.77-0.08
		c-0.16-0.09-0.28-0.19-0.35-0.29c-0.07-0.1-0.2-0.41-0.39-0.92l-0.62-1.66l1.52-0.56l0.78,2.09c0.13,0.34,0.23,0.54,0.31,0.6
		s0.24,0.05,0.46-0.03l-1.05-2.84l1.64-0.61L58.13,78.17z M56.09,77.7l-0.52-1.4c-0.18,0.07-0.3,0.14-0.36,0.22
		c-0.06,0.08-0.03,0.26,0.07,0.53l0.13,0.35c0.07,0.2,0.16,0.32,0.25,0.35C55.76,77.79,55.9,77.77,56.09,77.7z"/>
	<path class="st0" d="M53.18,79.88l-2.84,0.66l-0.3-1.31l1.14-0.26l-0.29-1.24l-1.06,0.25l-0.29-1.25l1.06-0.25l-0.33-1.44
		l-1.25,0.29l-0.3-1.31l2.95-0.68L53.18,79.88z"/>
	<path class="st0" d="M46.11,81.07l-1.69-6.58l1.78-0.18l0.22,1.19l0.62-0.07l-0.02-1.21l1.8-0.19l-0.19,6.78L46.11,81.07z
		 M46.58,76.68c0.17,0.75,0.35,1.67,0.56,2.78c0.04-1.3,0.06-2.25,0.04-2.84L46.58,76.68z"/>
	<path class="st0" d="M38.6,80.93l0.39-6.71l1.52,0.09l-0.26,4.53l0.87-4.49l1.08,0.06l0.38,4.46l0.26-4.42l1.52,0.09l-0.39,6.71
		l-2.26-0.13c-0.04-0.41-0.08-0.89-0.12-1.44l-0.15-1.72l-0.58,3.11L38.6,80.93z"/>
	<path class="st0" d="M32.2,76.39l1.68,0.47l-0.32,1.12c-0.09,0.33-0.13,0.54-0.12,0.63c0.01,0.09,0.08,0.15,0.2,0.19
		c0.14,0.04,0.24,0.01,0.31-0.07s0.14-0.3,0.24-0.62l0.85-3c0.09-0.31,0.13-0.52,0.12-0.63s-0.08-0.18-0.21-0.21
		c-0.13-0.04-0.22-0.01-0.29,0.08c-0.07,0.09-0.15,0.31-0.25,0.66l-0.23,0.81l-1.68-0.47l0.07-0.25c0.19-0.67,0.37-1.13,0.54-1.38
		c0.17-0.25,0.45-0.44,0.83-0.56c0.38-0.12,0.81-0.11,1.29,0.02c0.49,0.14,0.87,0.34,1.14,0.61s0.41,0.58,0.43,0.92
		c0.01,0.34-0.07,0.83-0.25,1.47l-0.53,1.89c-0.13,0.47-0.25,0.81-0.34,1.04c-0.1,0.22-0.26,0.42-0.48,0.59
		c-0.22,0.17-0.49,0.28-0.8,0.32s-0.66,0.02-1.02-0.09c-0.5-0.14-0.88-0.35-1.15-0.63c-0.27-0.28-0.41-0.58-0.43-0.89
		c-0.02-0.31,0.05-0.77,0.22-1.38L32.2,76.39z"/>
	<path class="st0" d="M26.44,77.07l2.76-6.13l1.59,0.72l-1.16,2.57l0.48,0.21l1.16-2.57l1.59,0.72l-2.76,6.13L28.51,78l0.99-2.19
		l-0.48-0.21l-0.99,2.19L26.44,77.07z"/>
	<path class="st0" d="M25.23,76.38l-2.48-1.53l0.71-1.14l0.99,0.61l0.67-1.08l-0.93-0.57l0.67-1.09l0.93,0.57l0.78-1.26l-1.09-0.67
		l0.71-1.14l2.58,1.59L25.23,76.38z"/>
	<path class="st0" d="M18.99,71.97l2.33-1.94l1.61-3.51l1.27,1.01c-0.27,0.64-0.64,1.39-1.11,2.25c0.3-0.31,0.63-0.62,0.99-0.94
		l0.81-0.75l1.33,1.06l-2.83,2.54l-1.35,2.72l-1.32-1.05c0.09-0.16,0.24-0.44,0.43-0.84c0.15-0.3,0.29-0.58,0.43-0.82l-1.43,1.2
		L18.99,71.97z"/>
	<path class="st0" d="M16.33,64.88l1.14,1.32l-0.88,0.76c-0.26,0.22-0.4,0.38-0.44,0.46c-0.04,0.08-0.02,0.17,0.07,0.27
		c0.09,0.11,0.19,0.14,0.3,0.11c0.1-0.04,0.28-0.17,0.54-0.39l2.36-2.04c0.25-0.21,0.4-0.37,0.44-0.46
		c0.05-0.09,0.03-0.19-0.06-0.29c-0.08-0.1-0.18-0.13-0.28-0.1c-0.1,0.04-0.29,0.17-0.57,0.42l-0.64,0.55l-1.14-1.32l0.2-0.17
		c0.53-0.46,0.93-0.74,1.21-0.86s0.62-0.12,1-0.01c0.39,0.11,0.74,0.35,1.06,0.72c0.33,0.39,0.54,0.77,0.62,1.14
		c0.08,0.37,0.03,0.71-0.15,1c-0.18,0.3-0.51,0.66-1.01,1.09l-1.48,1.29c-0.37,0.32-0.65,0.54-0.86,0.68
		c-0.21,0.13-0.45,0.21-0.72,0.23s-0.56-0.04-0.85-0.17c-0.29-0.14-0.56-0.35-0.81-0.63c-0.34-0.39-0.54-0.78-0.61-1.16
		c-0.07-0.38-0.03-0.71,0.13-0.99c0.16-0.27,0.47-0.62,0.94-1.03L16.33,64.88z"/>
	<path class="st0" d="M11.14,62.3l5.67-3.61l0.94,1.47l-2.38,1.52l0.28,0.44l2.38-1.52l0.94,1.47l-5.67,3.61l-0.94-1.47l2.03-1.29
		l-0.28-0.44l-2.03,1.29L11.14,62.3z"/>
	<path class="st0" d="M12.42,55.77c0.62-0.28,1.06-0.46,1.33-0.54c0.27-0.09,0.54-0.1,0.82-0.04c0.28,0.06,0.54,0.19,0.77,0.4
		c0.23,0.21,0.42,0.49,0.58,0.83c0.15,0.33,0.22,0.65,0.23,0.96c0.01,0.31-0.06,0.59-0.2,0.85c-0.14,0.25-0.33,0.45-0.57,0.6
		c-0.24,0.14-0.67,0.36-1.31,0.64l-1.05,0.47c-0.62,0.28-1.06,0.46-1.33,0.54c-0.27,0.09-0.54,0.1-0.83,0.04
		c-0.28-0.06-0.54-0.19-0.77-0.4c-0.23-0.21-0.42-0.49-0.58-0.83c-0.15-0.33-0.22-0.65-0.23-0.96c-0.01-0.31,0.06-0.59,0.2-0.85
		s0.33-0.45,0.57-0.6c0.24-0.14,0.67-0.36,1.31-0.64L12.42,55.77z M11.11,58.27c-0.29,0.13-0.46,0.22-0.53,0.29
		s-0.08,0.15-0.03,0.25c0.04,0.08,0.1,0.13,0.18,0.15c0.08,0.02,0.28-0.05,0.6-0.19l2.86-1.28c0.36-0.16,0.57-0.27,0.64-0.34
		c0.07-0.07,0.08-0.15,0.03-0.26c-0.05-0.11-0.13-0.16-0.24-0.14c-0.11,0.01-0.34,0.1-0.71,0.26L11.11,58.27z"/>
	<path class="st0" d="M10.07,51.32L10.53,53l-1.13,0.31c-0.33,0.09-0.53,0.17-0.6,0.22c-0.07,0.06-0.09,0.15-0.06,0.27
		c0.04,0.14,0.11,0.21,0.22,0.22c0.11,0.01,0.33-0.03,0.65-0.12l3.01-0.84c0.31-0.09,0.51-0.16,0.6-0.23
		c0.09-0.06,0.11-0.16,0.07-0.29c-0.04-0.13-0.11-0.19-0.21-0.21s-0.34,0.03-0.69,0.13l-0.81,0.23l-0.47-1.68l0.25-0.07
		c0.67-0.19,1.16-0.27,1.46-0.26c0.31,0.02,0.61,0.16,0.91,0.42c0.3,0.26,0.52,0.63,0.65,1.11c0.14,0.49,0.16,0.92,0.07,1.29
		c-0.09,0.37-0.28,0.65-0.56,0.84c-0.29,0.19-0.75,0.38-1.38,0.55l-1.89,0.53c-0.47,0.13-0.82,0.21-1.06,0.25s-0.49,0-0.75-0.1
		c-0.26-0.1-0.49-0.27-0.69-0.52c-0.2-0.25-0.35-0.55-0.46-0.92c-0.14-0.5-0.16-0.93-0.05-1.31s0.28-0.65,0.54-0.83
		c0.26-0.18,0.69-0.36,1.29-0.52L10.07,51.32z"/>
	<path class="st0" d="M10.39,46.29c0.67-0.08,1.15-0.13,1.43-0.13s0.55,0.06,0.8,0.2c0.25,0.14,0.46,0.34,0.62,0.61
		c0.16,0.27,0.26,0.59,0.31,0.96c0.04,0.36,0.03,0.68-0.05,0.98s-0.23,0.55-0.44,0.75c-0.21,0.2-0.45,0.34-0.72,0.41
		s-0.75,0.14-1.44,0.23l-1.14,0.14c-0.67,0.08-1.15,0.13-1.43,0.13c-0.28,0-0.55-0.06-0.8-0.2c-0.25-0.14-0.46-0.34-0.62-0.61
		c-0.16-0.27-0.26-0.59-0.31-0.96c-0.04-0.36-0.03-0.69,0.05-0.98c0.08-0.3,0.23-0.55,0.44-0.75c0.21-0.2,0.45-0.34,0.72-0.4
		c0.27-0.07,0.75-0.14,1.44-0.23L10.39,46.29z M8.42,48.3c-0.31,0.04-0.51,0.08-0.59,0.13c-0.08,0.05-0.12,0.12-0.1,0.23
		c0.01,0.09,0.06,0.16,0.13,0.2c0.08,0.04,0.29,0.04,0.63-0.01l3.11-0.39c0.39-0.05,0.62-0.09,0.71-0.14
		c0.09-0.04,0.12-0.12,0.11-0.24c-0.01-0.12-0.08-0.19-0.18-0.21c-0.11-0.02-0.36,0-0.75,0.04L8.42,48.3z"/>
	<path class="st0" d="M9.59,39.78l-0.12,1.74L8.3,41.44c-0.34-0.02-0.55-0.02-0.64,0.01c-0.09,0.03-0.13,0.11-0.14,0.24
		c-0.01,0.14,0.04,0.24,0.13,0.28c0.1,0.05,0.32,0.08,0.66,0.1l3.11,0.21c0.33,0.02,0.54,0.02,0.64-0.02
		c0.1-0.03,0.16-0.12,0.17-0.25c0.01-0.13-0.04-0.22-0.13-0.26c-0.1-0.05-0.33-0.08-0.7-0.11l-0.84-0.06l0.12-1.74l0.26,0.02
		c0.69,0.05,1.18,0.13,1.47,0.25s0.52,0.35,0.72,0.7c0.2,0.35,0.28,0.77,0.25,1.26c-0.03,0.51-0.15,0.93-0.36,1.24
		c-0.21,0.32-0.48,0.52-0.81,0.61c-0.33,0.09-0.83,0.11-1.49,0.06l-1.96-0.13c-0.48-0.03-0.84-0.07-1.08-0.12S7.21,43.57,7,43.39
		c-0.21-0.18-0.37-0.42-0.48-0.72s-0.15-0.64-0.13-1.02c0.03-0.51,0.16-0.93,0.38-1.25c0.22-0.32,0.48-0.52,0.79-0.61
		c0.3-0.09,0.77-0.11,1.39-0.07L9.59,39.78z"/>
	<path class="st0" d="M11.55,35.15c0.66,0.14,1.12,0.26,1.39,0.35c0.27,0.09,0.5,0.24,0.69,0.45c0.19,0.21,0.32,0.47,0.38,0.78
		s0.05,0.64-0.03,1.01c-0.08,0.35-0.2,0.65-0.38,0.91c-0.18,0.26-0.4,0.44-0.66,0.56c-0.27,0.12-0.54,0.17-0.82,0.14
		s-0.75-0.11-1.43-0.26l-1.12-0.24c-0.66-0.14-1.12-0.26-1.39-0.35c-0.27-0.09-0.5-0.24-0.69-0.45c-0.19-0.21-0.32-0.47-0.38-0.78
		c-0.06-0.3-0.05-0.64,0.03-1.01c0.08-0.35,0.2-0.65,0.38-0.91c0.18-0.26,0.4-0.44,0.66-0.56c0.27-0.12,0.54-0.17,0.82-0.14
		s0.75,0.11,1.43,0.26L11.55,35.15z M9.03,36.39c-0.31-0.07-0.5-0.09-0.6-0.08c-0.09,0.02-0.15,0.08-0.17,0.18
		c-0.02,0.09,0,0.17,0.06,0.23s0.26,0.13,0.6,0.2l3.07,0.66c0.38,0.08,0.62,0.12,0.72,0.11c0.1-0.01,0.16-0.07,0.18-0.19
		c0.02-0.12-0.01-0.2-0.11-0.26s-0.34-0.12-0.72-0.21L9.03,36.39z"/>
	<path class="st0" d="M13.21,30.59c0.63,0.24,1.07,0.42,1.33,0.55c0.25,0.13,0.46,0.31,0.62,0.55c0.16,0.24,0.25,0.51,0.26,0.82
		c0.02,0.31-0.04,0.64-0.18,1c-0.13,0.34-0.3,0.62-0.51,0.84s-0.46,0.38-0.74,0.46c-0.28,0.08-0.56,0.09-0.83,0.02
		c-0.27-0.07-0.73-0.22-1.38-0.47l-1.08-0.41c-0.63-0.24-1.07-0.42-1.33-0.55c-0.25-0.13-0.46-0.31-0.62-0.55
		c-0.16-0.24-0.25-0.51-0.26-0.82s0.04-0.64,0.18-1c0.13-0.34,0.3-0.62,0.51-0.84s0.46-0.38,0.74-0.46
		c0.28-0.08,0.56-0.09,0.83-0.02s0.73,0.22,1.38,0.47L13.21,30.59z M10.52,31.45c-0.29-0.11-0.49-0.16-0.58-0.16
		c-0.09,0-0.16,0.05-0.2,0.15c-0.03,0.09-0.02,0.16,0.02,0.23s0.24,0.17,0.56,0.29l2.94,1.11c0.37,0.14,0.6,0.21,0.69,0.21
		s0.17-0.05,0.21-0.16c0.04-0.11,0.02-0.2-0.07-0.27c-0.09-0.07-0.31-0.17-0.69-0.31L10.52,31.45z"/>
	<path class="st0" d="M12.13,24.3l2.17,2.35l3.76,0.82l-0.87,1.58l-2.86-0.77l2.52,1.39L16,31.19l-5.88-3.25l0.85-1.53l2.28,1.26
		l-1.91-1.94L12.13,24.3z"/>
	<path class="st0" d="M13.72,22.09l5.49,3.88l-1.01,1.43l-5.49-3.88L13.72,22.09z"/>
	<path class="st0" d="M14.41,21.17l1.89-2.21l1.02,0.87l-0.76,0.89l0.97,0.83l0.71-0.83l0.97,0.83l-0.71,0.83l1.12,0.96l0.83-0.97
		l1.02,0.87l-1.97,2.3L14.41,21.17z"/>
	<path class="st0" d="M24.52,17.2l0.72,0.88l-0.17,0.53l1.16,0.5l-1.2,0.98l-0.39-0.16c-0.19,0.59-0.46,1.04-0.82,1.33
		c-0.38,0.31-0.77,0.42-1.18,0.33c-0.41-0.08-0.76-0.3-1.04-0.66c-0.23-0.28-0.35-0.55-0.36-0.81c-0.01-0.26,0.06-0.54,0.22-0.83
		c-0.54,0.03-0.99-0.16-1.33-0.58c-0.3-0.36-0.41-0.75-0.35-1.17c0.06-0.42,0.31-0.81,0.74-1.15c0.39-0.31,0.78-0.45,1.18-0.42
		c0.4,0.04,0.73,0.22,1.01,0.56c0.29,0.35,0.41,0.77,0.36,1.27l1.13,0.46L24.52,17.2z M21.77,17.93c-0.01-0.31-0.08-0.55-0.22-0.73
		c-0.06-0.08-0.14-0.13-0.23-0.15s-0.18-0.01-0.26,0.05c-0.07,0.06-0.1,0.13-0.1,0.2c0,0.08,0.04,0.16,0.12,0.26
		C21.24,17.76,21.47,17.88,21.77,17.93z M23.71,19.7l-0.99-0.36c-0.04,0.28,0.01,0.5,0.14,0.67c0.1,0.12,0.2,0.19,0.3,0.21
		c0.1,0.02,0.2-0.01,0.3-0.09C23.56,20.05,23.65,19.9,23.71,19.7z"/>
	<path class="st0" d="M29.36,13.03l-1.54,0.82l-0.55-1.03c-0.16-0.3-0.27-0.48-0.35-0.54c-0.07-0.06-0.17-0.06-0.28,0
		c-0.13,0.07-0.18,0.16-0.17,0.26c0.01,0.11,0.1,0.31,0.26,0.61l1.46,2.76c0.15,0.29,0.27,0.47,0.35,0.54
		c0.08,0.07,0.18,0.07,0.3,0.01c0.11-0.06,0.17-0.15,0.16-0.25s-0.1-0.32-0.28-0.65l-0.4-0.75l1.54-0.82l0.12,0.23
		c0.33,0.61,0.51,1.07,0.56,1.38c0.05,0.3-0.02,0.63-0.22,0.98c-0.19,0.35-0.51,0.64-0.95,0.87c-0.45,0.24-0.87,0.35-1.25,0.35
		c-0.38-0.01-0.69-0.13-0.94-0.37c-0.25-0.24-0.53-0.65-0.84-1.23l-0.92-1.73c-0.23-0.43-0.38-0.76-0.47-0.99s-0.11-0.48-0.06-0.76
		c0.04-0.28,0.16-0.54,0.36-0.79c0.2-0.25,0.46-0.46,0.8-0.64c0.46-0.24,0.88-0.35,1.27-0.33c0.39,0.02,0.7,0.14,0.93,0.35
		c0.23,0.21,0.49,0.6,0.79,1.15L29.36,13.03z"/>
	<path class="st0" d="M29.25,9.91l1.17-0.41c0.78-0.28,1.31-0.43,1.61-0.47s0.58,0.04,0.84,0.22c0.26,0.18,0.49,0.55,0.68,1.09
		c0.17,0.49,0.23,0.85,0.17,1.06c-0.06,0.21-0.27,0.4-0.62,0.56c0.35-0.03,0.61,0,0.77,0.09c0.16,0.1,0.27,0.2,0.34,0.3
		c0.07,0.1,0.19,0.41,0.37,0.92l0.59,1.67l-1.53,0.54l-0.75-2.1c-0.12-0.34-0.22-0.54-0.3-0.6c-0.08-0.06-0.24-0.05-0.46,0.03
		l1.01,2.86l-1.65,0.58L29.25,9.91z M31.28,10.41l0.5,1.41c0.19-0.07,0.31-0.14,0.36-0.21s0.04-0.26-0.06-0.53l-0.12-0.35
		c-0.07-0.2-0.15-0.32-0.25-0.36C31.61,10.32,31.47,10.34,31.28,10.41z"/>
	<path class="st0" d="M34.22,8.27l2.85-0.62l0.28,1.31l-1.14,0.25l0.27,1.25l1.07-0.23l0.27,1.25l-1.07,0.23l0.31,1.44l1.25-0.27
		l0.28,1.31l-2.96,0.64L34.22,8.27z"/>
	<path class="st0" d="M41.32,7.18l1.6,6.6l-1.78,0.16l-0.2-1.19l-0.62,0.06l0,1.21l-1.8,0.16l0.29-6.77L41.32,7.18z M40.78,11.56
		c-0.16-0.75-0.33-1.68-0.52-2.79c-0.06,1.3-0.09,2.24-0.08,2.84L40.78,11.56z"/>
	<path class="st0" d="M48.8,7.42l-0.48,6.7l-1.52-0.11l0.32-4.53l-0.93,4.48l-1.08-0.08l-0.32-4.47l-0.32,4.42l-1.52-0.11l0.48-6.7
		l2.26,0.16c0.04,0.41,0.07,0.89,0.1,1.44l0.13,1.72l0.62-3.1L48.8,7.42z"/>
</g>
</svg>
