<?xml version="1.0" encoding="utf-8"?>
<!-- Generator: Adobe Illustrator 23.1.0, SVG Export Plug-In . SVG Version: 6.00 Build 0)  -->
<svg version="1.1" id="Layer_1" xmlns="http://www.w3.org/2000/svg" xmlns:xlink="http://www.w3.org/1999/xlink" x="0px" y="0px"
	 viewBox="0 0 90 90" style="enable-background:new 0 0 90 90;" xml:space="preserve">
<style type="text/css">
	.st0{fill:#FFFFFF;}
</style>
<g>
	<path class="st0" d="M45.79,8.97l-2.14,0.04l-0.03-1.43c-0.01-0.42-0.04-0.67-0.08-0.78c-0.05-0.1-0.15-0.15-0.3-0.15
		c-0.18,0-0.29,0.07-0.33,0.19c-0.05,0.13-0.06,0.4-0.06,0.81l0.07,3.82c0.01,0.4,0.04,0.66,0.09,0.78
		c0.05,0.12,0.16,0.18,0.32,0.18c0.16,0,0.26-0.07,0.31-0.19s0.07-0.41,0.06-0.86l-0.02-1.03l2.14-0.04l0.01,0.32
		c0.02,0.85-0.03,1.46-0.15,1.81c-0.11,0.36-0.37,0.68-0.78,0.95c-0.41,0.28-0.91,0.42-1.51,0.43c-0.63,0.01-1.14-0.09-1.56-0.31
		c-0.41-0.22-0.69-0.53-0.82-0.93c-0.14-0.4-0.22-1-0.23-1.81l-0.04-2.4c-0.01-0.59,0-1.04,0.04-1.33s0.15-0.58,0.35-0.86
		s0.47-0.5,0.83-0.66c0.35-0.16,0.76-0.25,1.23-0.26c0.63-0.01,1.15,0.1,1.57,0.34c0.41,0.24,0.69,0.53,0.82,0.9
		c0.14,0.36,0.21,0.92,0.22,1.69L45.79,8.97z"/>
	<path class="st0" d="M52.4,6.22l-1.2,8.13l-2.12-0.31l0.5-3.42l-0.63-0.09l-0.5,3.42l-2.12-0.31l1.2-8.13l2.12,0.31l-0.43,2.91
		l0.63,0.09l0.43-2.91L52.4,6.22z"/>
	<path class="st0" d="M54.16,6.67l3.41,1.03L57.1,9.27l-1.37-0.41l-0.45,1.49l1.28,0.39l-0.45,1.5l-1.28-0.39l-0.52,1.73l1.5,0.45
		l-0.48,1.58l-3.55-1.07L54.16,6.67z"/>
	<path class="st0" d="M63.05,10.07l-2.2,2.99l-0.88,4.64l-1.8-0.83c0.13-0.84,0.34-1.84,0.66-2.99c-0.27,0.45-0.56,0.92-0.89,1.41
		l-0.74,1.13l-1.89-0.87l2.62-3.84l0.81-3.63l1.88,0.86c-0.06,0.22-0.15,0.6-0.27,1.12c-0.09,0.4-0.17,0.77-0.26,1.1l1.35-1.85
		L63.05,10.07z"/>
	<path class="st0" d="M68.26,17.89l-1.71-1.28l0.86-1.14c0.25-0.33,0.39-0.55,0.41-0.66c0.03-0.11-0.02-0.21-0.15-0.3
		c-0.14-0.11-0.27-0.12-0.38-0.05c-0.11,0.07-0.29,0.27-0.54,0.61l-2.29,3.06c-0.24,0.32-0.38,0.54-0.41,0.67s0.01,0.24,0.15,0.34
		c0.13,0.1,0.25,0.11,0.36,0.04c0.11-0.07,0.3-0.28,0.57-0.65l0.62-0.83l1.71,1.28l-0.19,0.26c-0.51,0.68-0.92,1.13-1.23,1.34
		c-0.31,0.21-0.71,0.3-1.2,0.27c-0.49-0.03-0.98-0.23-1.46-0.59c-0.5-0.38-0.85-0.77-1.04-1.2c-0.19-0.42-0.22-0.84-0.08-1.24
		c0.13-0.4,0.44-0.92,0.92-1.57l1.44-1.92c0.35-0.47,0.64-0.82,0.85-1.03c0.21-0.21,0.48-0.37,0.8-0.47c0.33-0.1,0.68-0.1,1.06-0.02
		c0.38,0.09,0.76,0.27,1.13,0.55c0.5,0.38,0.85,0.79,1.03,1.23c0.18,0.44,0.22,0.84,0.1,1.21s-0.4,0.86-0.86,1.47L68.26,17.89z"/>
	<path class="st0" d="M75.19,19.84l-5.97,5.66l-1.47-1.55l2.51-2.38l-0.44-0.46l-2.51,2.38l-1.47-1.55l5.97-5.66l1.47,1.55
		l-2.13,2.02l0.44,0.46l2.13-2.02L75.19,19.84z"/>
	<path class="st0" d="M75.1,28.1c-0.69,0.46-1.18,0.77-1.49,0.92s-0.64,0.23-0.99,0.22c-0.35-0.01-0.69-0.12-1.01-0.33
		s-0.61-0.5-0.87-0.89c-0.24-0.37-0.4-0.73-0.48-1.11c-0.08-0.37-0.05-0.73,0.07-1.06c0.12-0.34,0.31-0.62,0.57-0.84
		c0.26-0.22,0.74-0.57,1.45-1.04l1.17-0.78c0.69-0.46,1.19-0.77,1.49-0.92c0.31-0.16,0.64-0.23,0.99-0.22
		c0.35,0.01,0.69,0.12,1.01,0.33c0.32,0.21,0.61,0.5,0.87,0.89c0.24,0.37,0.4,0.73,0.48,1.11c0.07,0.37,0.05,0.73-0.07,1.06
		s-0.31,0.62-0.57,0.84c-0.26,0.22-0.74,0.57-1.44,1.04L75.1,28.1z M76.16,24.82c0.32-0.21,0.51-0.37,0.58-0.46s0.06-0.2-0.01-0.31
		c-0.06-0.09-0.15-0.14-0.25-0.14c-0.11,0-0.33,0.12-0.69,0.35l-3.19,2.13c-0.4,0.26-0.63,0.44-0.7,0.54s-0.07,0.2,0.01,0.32
		c0.08,0.12,0.19,0.16,0.32,0.13s0.4-0.19,0.8-0.46L76.16,24.82z"/>
	<path class="st0" d="M78.77,33.14l-0.86-1.96l1.31-0.57c0.38-0.17,0.61-0.29,0.68-0.38c0.08-0.08,0.08-0.2,0.02-0.34
		c-0.07-0.16-0.17-0.24-0.31-0.23c-0.13,0.01-0.39,0.09-0.77,0.26l-3.5,1.54c-0.37,0.16-0.59,0.29-0.69,0.38s-0.11,0.21-0.04,0.37
		c0.06,0.15,0.16,0.22,0.29,0.21c0.13,0,0.4-0.1,0.82-0.28l0.95-0.42l0.86,1.96l-0.29,0.13c-0.78,0.34-1.36,0.53-1.73,0.56
		c-0.37,0.03-0.77-0.08-1.18-0.35c-0.41-0.27-0.74-0.68-0.98-1.23c-0.25-0.57-0.36-1.09-0.31-1.56c0.04-0.46,0.22-0.84,0.54-1.12
		c0.31-0.28,0.84-0.59,1.58-0.91l2.2-0.97c0.54-0.24,0.96-0.4,1.25-0.48c0.29-0.08,0.6-0.09,0.93-0.01
		c0.33,0.07,0.64,0.24,0.93,0.51c0.29,0.26,0.52,0.61,0.71,1.03c0.25,0.58,0.35,1.1,0.29,1.57c-0.06,0.47-0.23,0.84-0.51,1.1
		c-0.28,0.26-0.77,0.55-1.48,0.86L78.77,33.14z"/>
	<path class="st0" d="M79.12,39.4c-0.8,0.19-1.38,0.31-1.72,0.36s-0.68,0-1-0.13c-0.33-0.13-0.6-0.35-0.83-0.65
		c-0.23-0.3-0.4-0.68-0.51-1.13c-0.1-0.43-0.13-0.83-0.07-1.2c0.06-0.37,0.2-0.7,0.43-0.97c0.23-0.28,0.5-0.47,0.82-0.59
		s0.89-0.28,1.71-0.48l1.37-0.33c0.8-0.19,1.38-0.31,1.72-0.36c0.34-0.04,0.68,0,1,0.13c0.33,0.13,0.6,0.35,0.83,0.65
		c0.23,0.3,0.4,0.68,0.51,1.13c0.1,0.43,0.13,0.83,0.07,1.2s-0.2,0.7-0.43,0.97s-0.5,0.47-0.82,0.59c-0.32,0.12-0.89,0.28-1.71,0.48
		L79.12,39.4z M81.24,36.69c0.37-0.09,0.61-0.17,0.7-0.23c0.09-0.07,0.13-0.16,0.09-0.29c-0.03-0.11-0.09-0.18-0.19-0.22
		s-0.35-0.01-0.76,0.09l-3.73,0.9c-0.46,0.11-0.75,0.2-0.84,0.26s-0.13,0.17-0.1,0.3c0.03,0.14,0.12,0.22,0.25,0.23
		c0.13,0.01,0.44-0.04,0.91-0.16L81.24,36.69z"/>
	<path class="st0" d="M84.24,42.2l0.11,3.62l-1.64,0.05l-0.05-1.48l-1.56,0.05l0.04,1.32l-1.56,0.05l-0.04-1.32l-3.45,0.11
		l-0.07-2.14L84.24,42.2z"/>
	<path class="st0" d="M83.74,52.14l-5.46-0.65c-0.62-0.07-1.05-0.14-1.3-0.21c-0.25-0.07-0.49-0.22-0.73-0.45
		c-0.24-0.23-0.41-0.52-0.51-0.86s-0.12-0.73-0.07-1.17c0.06-0.49,0.19-0.91,0.4-1.26s0.45-0.61,0.73-0.76
		c0.28-0.15,0.57-0.23,0.86-0.23c0.29,0,0.9,0.06,1.82,0.17l4.83,0.58l-0.25,2.12l-6.12-0.73c-0.36-0.04-0.59-0.05-0.69-0.02
		c-0.1,0.03-0.16,0.1-0.18,0.22c-0.02,0.13,0.03,0.23,0.13,0.28c0.1,0.05,0.36,0.1,0.77,0.15L84,50.02L83.74,52.14z"/>
	<path class="st0" d="M81.96,58.62l-7.87-2.37l0.54-1.79l3.9,0.01l-3.58-1.08l0.52-1.71l7.87,2.38l-0.52,1.71l-3.89,0.08l3.54,1.07
		L81.96,58.62z"/>
	<path class="st0" d="M74.71,64.99l1.07-1.85l1.24,0.71c0.36,0.21,0.6,0.32,0.71,0.33c0.11,0.01,0.21-0.05,0.28-0.18
		c0.09-0.15,0.09-0.28,0-0.38s-0.31-0.26-0.67-0.47l-3.31-1.91c-0.35-0.2-0.58-0.31-0.71-0.33c-0.13-0.02-0.24,0.04-0.32,0.19
		c-0.08,0.14-0.08,0.26,0,0.36c0.08,0.1,0.32,0.27,0.71,0.49l0.9,0.52l-1.07,1.85l-0.28-0.16c-0.74-0.42-1.23-0.78-1.48-1.06
		s-0.39-0.67-0.41-1.16s0.11-1,0.41-1.52c0.31-0.54,0.67-0.93,1.07-1.17s0.81-0.31,1.22-0.23c0.41,0.09,0.97,0.33,1.67,0.73
		l2.08,1.2c0.51,0.3,0.89,0.54,1.12,0.72c0.24,0.18,0.42,0.43,0.56,0.74c0.14,0.31,0.18,0.66,0.14,1.05
		c-0.04,0.39-0.18,0.78-0.41,1.18c-0.31,0.55-0.68,0.93-1.09,1.17c-0.42,0.23-0.81,0.31-1.19,0.25c-0.38-0.07-0.9-0.3-1.57-0.68
		L74.71,64.99z"/>
	<path class="st0" d="M73.58,72.09l-6.31-5.27l1.37-1.64l2.65,2.21l0.41-0.49l-2.65-2.22l1.37-1.64l6.31,5.27l-1.37,1.64l-2.25-1.89
		l-0.41,0.49l2.26,1.89L73.58,72.09z"/>
	<path class="st0" d="M72.25,73.37l-2.67,2.36l-1.09-1.23l1.07-0.95l-1.03-1.17l-1,0.88l-1.04-1.17l1-0.89l-1.2-1.35l-1.18,1.04
		l-1.09-1.23l2.78-2.46L72.25,73.37z"/>
	<path class="st0" d="M64.68,79.15l-1.39-3.44l-3.48-3.19l1.65-1.1c0.65,0.55,1.38,1.26,2.2,2.14c-0.24-0.46-0.49-0.97-0.73-1.5
		l-0.58-1.23l1.73-1.15l1.89,4.25l2.66,2.6l-1.72,1.14c-0.16-0.17-0.43-0.44-0.81-0.82c-0.3-0.29-0.56-0.55-0.8-0.81l0.86,2.12
		L64.68,79.15z"/>
	<path class="st0" d="M55.28,79.46l1.99-0.78l0.52,1.33c0.15,0.39,0.27,0.62,0.35,0.7s0.19,0.09,0.34,0.03
		c0.16-0.06,0.25-0.16,0.24-0.3s-0.08-0.39-0.23-0.78l-1.4-3.55c-0.15-0.37-0.26-0.61-0.35-0.7c-0.09-0.1-0.21-0.11-0.36-0.05
		c-0.15,0.06-0.22,0.15-0.22,0.29s0.08,0.41,0.25,0.83l0.38,0.96l-1.99,0.78l-0.12-0.3c-0.31-0.79-0.48-1.38-0.5-1.75
		c-0.02-0.38,0.11-0.76,0.4-1.16c0.29-0.4,0.71-0.71,1.27-0.93c0.58-0.23,1.1-0.31,1.57-0.25c0.46,0.06,0.83,0.26,1.1,0.58
		c0.27,0.32,0.55,0.86,0.85,1.61l0.88,2.23c0.22,0.55,0.36,0.97,0.43,1.26c0.07,0.29,0.06,0.6-0.02,0.93s-0.27,0.63-0.54,0.91
		s-0.63,0.5-1.06,0.67c-0.59,0.23-1.11,0.31-1.58,0.23c-0.47-0.08-0.83-0.26-1.08-0.55s-0.52-0.79-0.8-1.51L55.28,79.46z"/>
	<path class="st0" d="M50.01,84.32l-1.69-8.05l2.09-0.44l0.71,3.38l0.63-0.13l-0.71-3.38l2.09-0.44l1.69,8.05l-2.09,0.44l-0.6-2.88
		L51.5,81l0.6,2.88L50.01,84.32z"/>
	<path class="st0" d="M43,79.95c-0.03-0.83-0.04-1.41-0.01-1.75s0.13-0.66,0.33-0.96c0.19-0.29,0.46-0.52,0.8-0.69
		c0.34-0.17,0.75-0.26,1.21-0.28c0.44-0.02,0.84,0.04,1.19,0.17c0.36,0.13,0.65,0.33,0.87,0.61c0.22,0.28,0.36,0.59,0.42,0.92
		c0.05,0.34,0.1,0.93,0.13,1.77L48,81.15c0.03,0.83,0.04,1.41,0.01,1.75s-0.13,0.66-0.33,0.96c-0.19,0.29-0.46,0.52-0.8,0.69
		c-0.34,0.17-0.75,0.26-1.21,0.28c-0.44,0.02-0.84-0.04-1.19-0.17c-0.36-0.13-0.65-0.33-0.87-0.61c-0.22-0.28-0.36-0.59-0.42-0.92
		c-0.05-0.34-0.1-0.93-0.13-1.77L43,79.95z M45.25,82.56c0.02,0.38,0.05,0.63,0.09,0.73c0.05,0.1,0.14,0.15,0.27,0.15
		c0.11,0,0.2-0.05,0.25-0.14s0.07-0.34,0.06-0.77l-0.16-3.83c-0.02-0.48-0.05-0.77-0.09-0.88s-0.14-0.16-0.28-0.16
		c-0.15,0.01-0.24,0.07-0.27,0.2c-0.04,0.13-0.04,0.44-0.02,0.92L45.25,82.56z"/>
	<path class="st0" d="M36.84,80.52l2.12,0.26l-0.17,1.42c-0.05,0.41-0.06,0.67-0.03,0.78c0.03,0.11,0.13,0.17,0.28,0.19
		c0.17,0.02,0.29-0.03,0.36-0.15c0.06-0.12,0.12-0.38,0.17-0.8l0.46-3.79c0.05-0.4,0.06-0.66,0.02-0.79
		c-0.03-0.13-0.13-0.2-0.3-0.22c-0.16-0.02-0.27,0.03-0.33,0.14c-0.06,0.12-0.12,0.4-0.18,0.84l-0.13,1.03L37,79.18l0.04-0.32
		c0.1-0.84,0.24-1.44,0.4-1.77c0.16-0.34,0.46-0.62,0.91-0.83s0.96-0.29,1.56-0.21c0.62,0.08,1.12,0.25,1.5,0.53s0.6,0.62,0.69,1.03
		c0.08,0.42,0.07,1.02-0.02,1.82l-0.29,2.38c-0.07,0.59-0.15,1.03-0.22,1.32c-0.08,0.29-0.23,0.56-0.46,0.8
		c-0.23,0.25-0.54,0.43-0.91,0.54c-0.37,0.11-0.79,0.14-1.25,0.08c-0.63-0.08-1.13-0.26-1.5-0.55c-0.38-0.29-0.61-0.63-0.69-1
		c-0.08-0.38-0.08-0.95,0.02-1.71L36.84,80.52z"/>
	<path class="st0" d="M31.28,77.68c0.23-0.79,0.42-1.35,0.56-1.67c0.13-0.32,0.34-0.58,0.62-0.8c0.28-0.21,0.6-0.34,0.98-0.39
		s0.79,0,1.23,0.13c0.42,0.13,0.78,0.31,1.08,0.54c0.3,0.24,0.5,0.52,0.63,0.86c0.12,0.34,0.16,0.67,0.1,1.01s-0.21,0.91-0.45,1.72
		l-0.4,1.35c-0.23,0.79-0.42,1.35-0.56,1.67c-0.13,0.32-0.34,0.58-0.62,0.8c-0.28,0.21-0.6,0.34-0.98,0.39s-0.79,0-1.23-0.13
		c-0.42-0.13-0.78-0.31-1.08-0.54c-0.3-0.24-0.5-0.53-0.63-0.86c-0.12-0.34-0.16-0.67-0.1-1.01c0.06-0.34,0.21-0.91,0.45-1.72
		L31.28,77.68z M32.57,80.88c-0.11,0.37-0.16,0.61-0.15,0.72s0.08,0.19,0.21,0.23c0.11,0.03,0.2,0.01,0.28-0.05
		c0.08-0.07,0.18-0.3,0.3-0.71l1.09-3.68c0.14-0.46,0.2-0.75,0.2-0.86c-0.01-0.12-0.08-0.2-0.21-0.24
		c-0.14-0.04-0.25-0.01-0.32,0.11c-0.08,0.11-0.18,0.4-0.32,0.86L32.57,80.88z"/>
	<path class="st0" d="M26.33,80.75l-3.2-1.69l0.77-1.46l1.31,0.69l0.73-1.38l-1.17-0.62l0.73-1.38l1.17,0.62l1.61-3.05l1.89,1
		L26.33,80.75z"/>
	<path class="st0" d="M17.96,75.46l3.24-4.44c0.37-0.5,0.64-0.84,0.82-1.02c0.18-0.18,0.43-0.32,0.75-0.42
		c0.32-0.1,0.65-0.1,0.99-0.02c0.34,0.08,0.7,0.25,1.05,0.51c0.4,0.29,0.7,0.61,0.91,0.96s0.31,0.69,0.31,1.01
		c0,0.32-0.08,0.61-0.22,0.86c-0.14,0.25-0.49,0.76-1.03,1.51l-2.87,3.93l-1.73-1.26l3.63-4.98c0.21-0.29,0.33-0.49,0.36-0.59
		s-0.01-0.19-0.1-0.26c-0.11-0.08-0.21-0.09-0.31-0.02c-0.1,0.07-0.27,0.26-0.51,0.6l-3.57,4.9L17.96,75.46z"/>
	<path class="st0" d="M13.18,70.79l5.88-5.74l1.31,1.34l-1.9,3.41l2.67-2.61l1.25,1.28l-5.88,5.74l-1.25-1.28l1.81-3.44l-2.65,2.59
		L13.18,70.79z"/>
	<path class="st0" d="M11.08,61.4l1.11,1.82l-1.22,0.75c-0.35,0.22-0.56,0.37-0.63,0.46c-0.06,0.09-0.06,0.21,0.03,0.34
		c0.09,0.15,0.2,0.21,0.33,0.19c0.13-0.02,0.38-0.15,0.73-0.36l3.26-1.99c0.34-0.21,0.55-0.36,0.63-0.47
		c0.08-0.1,0.08-0.23-0.01-0.37c-0.08-0.14-0.19-0.19-0.32-0.17c-0.13,0.02-0.39,0.15-0.77,0.39l-0.88,0.54l-1.11-1.82l0.27-0.17
		c0.73-0.44,1.27-0.71,1.64-0.79c0.37-0.08,0.77-0.02,1.21,0.19c0.44,0.21,0.82,0.57,1.14,1.09c0.33,0.54,0.5,1.03,0.52,1.5
		c0.02,0.46-0.11,0.86-0.38,1.18c-0.27,0.32-0.75,0.69-1.44,1.11l-2.05,1.25c-0.51,0.31-0.9,0.52-1.17,0.64s-0.58,0.17-0.92,0.14
		c-0.34-0.03-0.67-0.15-0.99-0.38c-0.32-0.22-0.6-0.53-0.84-0.93c-0.33-0.54-0.5-1.04-0.5-1.52s0.11-0.86,0.36-1.16
		c0.24-0.3,0.69-0.65,1.35-1.05L11.08,61.4z"/>
	<path class="st0" d="M5.39,56.97l7.66-2.99l0.78,1.99l-3.22,1.26l0.23,0.6l3.22-1.26l0.78,1.99l-7.66,2.99L6.4,59.56l2.74-1.07
		l-0.23-0.6l-2.74,1.07L5.39,56.97z"/>
	<path class="st0" d="M4.9,55.16l-0.77-3.48l1.61-0.35l0.31,1.39l1.52-0.33l-0.29-1.3l1.53-0.34l0.29,1.3l1.77-0.39l-0.34-1.53
		l1.61-0.35l0.8,3.62L4.9,55.16z"/>
	<path class="st0" d="M3.56,45.71l3.68,0.48l4.49-1.47l0.15,1.98c-0.8,0.3-1.78,0.59-2.94,0.87c0.52,0.02,1.08,0.05,1.67,0.1
		l1.35,0.1l0.15,2.08l-4.63-0.44l-3.57,1.04l-0.15-2.06c0.22-0.05,0.59-0.16,1.11-0.31c0.4-0.12,0.76-0.22,1.09-0.3L3.69,47.5
		L3.56,45.71z"/>
	<path class="st0" d="M7.94,37.36l-0.31,2.12l-1.41-0.21c-0.41-0.06-0.67-0.08-0.78-0.05c-0.11,0.03-0.17,0.12-0.2,0.28
		c-0.03,0.17,0.02,0.29,0.14,0.36c0.12,0.07,0.38,0.13,0.79,0.19l3.78,0.56c0.4,0.06,0.66,0.07,0.78,0.04
		c0.13-0.03,0.2-0.13,0.23-0.29c0.02-0.16-0.02-0.27-0.14-0.34s-0.39-0.13-0.84-0.2l-1.02-0.15l0.31-2.12l0.32,0.05
		c0.84,0.12,1.43,0.27,1.76,0.44c0.33,0.17,0.6,0.48,0.81,0.93s0.26,0.97,0.18,1.56c-0.09,0.62-0.28,1.11-0.56,1.48
		c-0.28,0.37-0.63,0.59-1.05,0.66s-1.02,0.05-1.82-0.07l-2.38-0.35C5.95,42.17,5.51,42.08,5.23,42c-0.29-0.08-0.55-0.24-0.79-0.48
		s-0.41-0.55-0.52-0.92c-0.1-0.38-0.12-0.79-0.05-1.25c0.09-0.62,0.29-1.12,0.59-1.49c0.3-0.37,0.64-0.59,1.02-0.67
		c0.38-0.07,0.95-0.06,1.71,0.06L7.94,37.36z"/>
	<path class="st0" d="M6.42,30.32l7.79,2.62l-0.68,2.03l-3.27-1.1l-0.2,0.61l3.27,1.1l-0.68,2.03l-7.79-2.62l0.68-2.03l2.79,0.94
		l0.2-0.61l-2.79-0.94L6.42,30.32z"/>
	<path class="st0" d="M13.79,26.5c0.73,0.4,1.23,0.69,1.51,0.89c0.28,0.2,0.5,0.46,0.65,0.77c0.15,0.32,0.21,0.66,0.18,1.04
		c-0.03,0.38-0.16,0.77-0.38,1.18c-0.21,0.39-0.46,0.7-0.76,0.94c-0.29,0.24-0.62,0.38-0.97,0.43c-0.35,0.05-0.69,0.01-1.01-0.12
		c-0.32-0.13-0.85-0.39-1.59-0.8l-1.23-0.67c-0.73-0.4-1.23-0.69-1.51-0.89c-0.28-0.2-0.5-0.46-0.65-0.77
		c-0.15-0.32-0.21-0.66-0.18-1.04c0.03-0.38,0.16-0.77,0.38-1.18c0.21-0.39,0.46-0.7,0.76-0.94c0.29-0.24,0.62-0.38,0.97-0.43
		c0.35-0.05,0.69-0.01,1.01,0.12c0.32,0.13,0.85,0.39,1.59,0.8L13.79,26.5z M10.4,27.08c-0.34-0.18-0.56-0.28-0.67-0.3
		c-0.11-0.01-0.2,0.04-0.27,0.15c-0.05,0.1-0.06,0.19-0.01,0.29c0.05,0.09,0.26,0.24,0.63,0.44l3.37,1.84
		c0.42,0.23,0.69,0.35,0.8,0.37c0.12,0.02,0.21-0.03,0.28-0.16c0.07-0.13,0.06-0.24-0.04-0.34c-0.09-0.1-0.35-0.26-0.78-0.49
		L10.4,27.08z"/>
	<path class="st0" d="M16.53,20.92l-1.33,1.67l-1.12-0.89c-0.32-0.26-0.54-0.4-0.65-0.43c-0.11-0.03-0.21,0.02-0.31,0.14
		c-0.11,0.14-0.13,0.26-0.06,0.38c0.07,0.11,0.27,0.3,0.59,0.56l2.99,2.38c0.31,0.25,0.53,0.39,0.66,0.43
		c0.13,0.04,0.24-0.01,0.34-0.14c0.1-0.12,0.12-0.24,0.05-0.36c-0.06-0.11-0.27-0.31-0.63-0.59l-0.81-0.64l1.33-1.67l0.25,0.2
		c0.67,0.53,1.1,0.95,1.3,1.27c0.2,0.32,0.28,0.72,0.24,1.21c-0.05,0.49-0.26,0.97-0.63,1.44c-0.39,0.49-0.8,0.82-1.23,1
		c-0.43,0.18-0.84,0.19-1.24,0.05c-0.4-0.15-0.91-0.47-1.54-0.97l-1.88-1.49c-0.46-0.37-0.8-0.66-1.01-0.88s-0.35-0.49-0.44-0.82
		c-0.09-0.33-0.08-0.68,0.01-1.06s0.29-0.75,0.58-1.11c0.39-0.49,0.81-0.82,1.26-0.99c0.45-0.17,0.85-0.19,1.21-0.07
		s0.85,0.43,1.45,0.9L16.53,20.92z"/>
	<path class="st0" d="M21.88,17.67c0.55,0.62,0.93,1.07,1.13,1.35s0.32,0.6,0.35,0.95s-0.02,0.7-0.18,1.04s-0.41,0.67-0.76,0.98
		c-0.33,0.29-0.67,0.5-1.03,0.63c-0.36,0.13-0.71,0.15-1.06,0.08c-0.35-0.07-0.65-0.22-0.91-0.45c-0.26-0.23-0.67-0.65-1.23-1.29
		l-0.94-1.05c-0.55-0.62-0.92-1.07-1.13-1.35c-0.2-0.28-0.32-0.6-0.35-0.95s0.02-0.7,0.18-1.04s0.41-0.67,0.76-0.98
		c0.33-0.29,0.67-0.5,1.03-0.63c0.36-0.13,0.71-0.15,1.06-0.08c0.35,0.07,0.65,0.22,0.91,0.45c0.26,0.23,0.67,0.65,1.23,1.29
		L21.88,17.67z M18.49,17.08c-0.25-0.29-0.43-0.45-0.54-0.51c-0.1-0.05-0.2-0.03-0.3,0.06c-0.08,0.07-0.12,0.16-0.1,0.27
		c0.01,0.1,0.16,0.31,0.44,0.63l2.56,2.86c0.32,0.36,0.53,0.56,0.63,0.62c0.1,0.06,0.21,0.04,0.31-0.06
		c0.11-0.1,0.14-0.21,0.08-0.33c-0.06-0.12-0.24-0.37-0.57-0.73L18.49,17.08z"/>
	<path class="st0" d="M21.87,11.85l3.12-1.83l0.83,1.42l-1.28,0.75l0.79,1.34l1.14-0.67l0.79,1.35l-1.14,0.67l1.75,2.98l-1.84,1.08
		L21.87,11.85z"/>
	<path class="st0" d="M30.81,7.51l2.07,5.09c0.23,0.58,0.38,0.99,0.44,1.24s0.04,0.53-0.04,0.86s-0.25,0.61-0.5,0.86
		s-0.58,0.46-0.99,0.63c-0.45,0.18-0.89,0.27-1.3,0.26c-0.41-0.01-0.75-0.1-1.02-0.27c-0.27-0.17-0.48-0.38-0.62-0.64
		c-0.14-0.26-0.39-0.81-0.73-1.67l-1.83-4.51l1.98-0.8l2.32,5.71c0.14,0.33,0.24,0.54,0.31,0.62c0.07,0.08,0.17,0.09,0.27,0.05
		c0.13-0.05,0.19-0.13,0.18-0.25c-0.01-0.12-0.08-0.36-0.24-0.74l-2.28-5.61L30.81,7.51z"/>
	<path class="st0" d="M37.25,5.9l1.8,8.02l-1.83,0.41l-1.91-3.4l0.82,3.65l-1.74,0.39l-1.8-8.02l1.74-0.39l1.98,3.35L35.51,6.3
		L37.25,5.9z"/>
</g>
</svg>
