<?xml version="1.0" encoding="utf-8"?>
<!-- Generator: Adobe Illustrator 23.1.0, SVG Export Plug-In . SVG Version: 6.00 Build 0)  -->
<svg version="1.1" id="Layer_1" xmlns="http://www.w3.org/2000/svg" xmlns:xlink="http://www.w3.org/1999/xlink" x="0px" y="0px"
	 viewBox="0 0 90 90" style="enable-background:new 0 0 90 90;" xml:space="preserve">
<style type="text/css">
	.st0{fill:#FFFFFF;}
</style>
<g>
	<path class="st0" d="M45.83,10.24l-1.64,0.05l-0.03-1.1c-0.01-0.32-0.03-0.52-0.07-0.6c-0.04-0.08-0.12-0.12-0.24-0.11
		c-0.14,0-0.22,0.05-0.25,0.15c-0.03,0.1-0.05,0.31-0.04,0.63l0.08,2.94c0.01,0.31,0.03,0.51,0.07,0.6
		c0.04,0.09,0.12,0.14,0.25,0.13c0.12,0,0.2-0.05,0.24-0.15c0.04-0.09,0.05-0.32,0.04-0.66l-0.02-0.79l1.64-0.05l0.01,0.25
		c0.02,0.65-0.02,1.12-0.1,1.4s-0.28,0.52-0.59,0.74c-0.31,0.21-0.7,0.33-1.16,0.34c-0.48,0.01-0.88-0.06-1.2-0.23
		c-0.32-0.17-0.53-0.4-0.64-0.71c-0.11-0.31-0.17-0.77-0.19-1.39l-0.05-1.85c-0.01-0.46-0.01-0.8,0.02-1.03
		c0.02-0.23,0.11-0.45,0.26-0.67c0.15-0.22,0.36-0.39,0.63-0.52c0.27-0.13,0.58-0.2,0.94-0.21c0.48-0.01,0.89,0.07,1.21,0.25
		c0.32,0.18,0.53,0.41,0.64,0.68c0.11,0.28,0.17,0.71,0.18,1.3L45.83,10.24z"/>
	<path class="st0" d="M50.83,8l-0.75,6.28l-1.63-0.2l0.32-2.64l-0.49-0.06l-0.32,2.64l-1.63-0.2l0.75-6.28l1.63,0.2L48.44,10
		l0.49,0.06l0.27-2.25L50.83,8z"/>
	<path class="st0" d="M52.12,8.28l2.66,0.68l-0.31,1.23L53.4,9.91l-0.3,1.16l1,0.25l-0.3,1.17l-1-0.25l-0.34,1.35l1.17,0.3
		l-0.31,1.23l-2.76-0.71L52.12,8.28z"/>
	<path class="st0" d="M59,10.51l-1.55,2.4l-0.47,3.6l-1.42-0.55c0.06-0.65,0.18-1.43,0.37-2.33c-0.18,0.36-0.39,0.73-0.62,1.12
		l-0.52,0.91l-1.49-0.58l1.84-3.07l0.46-2.82l1.48,0.58c-0.04,0.17-0.09,0.46-0.16,0.87c-0.05,0.31-0.1,0.6-0.15,0.86l0.95-1.48
		L59,10.51z"/>
	<path class="st0" d="M63.37,16.16l-1.39-0.87l0.58-0.93c0.17-0.27,0.26-0.45,0.27-0.54c0.01-0.09-0.03-0.16-0.13-0.22
		c-0.11-0.07-0.21-0.08-0.29-0.01c-0.08,0.06-0.21,0.23-0.38,0.5l-1.55,2.49c-0.16,0.26-0.25,0.44-0.27,0.54
		c-0.02,0.1,0.03,0.18,0.13,0.25c0.1,0.06,0.2,0.07,0.28,0.01c0.08-0.06,0.21-0.24,0.4-0.53l0.42-0.67l1.39,0.87l-0.13,0.21
		c-0.35,0.56-0.63,0.92-0.86,1.11c-0.22,0.18-0.52,0.28-0.9,0.29c-0.38,0.01-0.76-0.11-1.16-0.36c-0.41-0.26-0.7-0.54-0.87-0.85
		s-0.22-0.63-0.14-0.94c0.08-0.32,0.28-0.74,0.61-1.26l0.98-1.57c0.24-0.39,0.44-0.67,0.58-0.85c0.15-0.18,0.34-0.31,0.58-0.41
		c0.24-0.1,0.51-0.12,0.81-0.08c0.3,0.04,0.6,0.16,0.9,0.35c0.41,0.26,0.7,0.55,0.87,0.87s0.22,0.63,0.16,0.92
		c-0.06,0.29-0.25,0.68-0.57,1.19L63.37,16.16z"/>
	<path class="st0" d="M68.78,17.07l-4.1,4.81l-1.25-1.07l1.72-2.02l-0.38-0.32l-1.72,2.02l-1.25-1.07l4.1-4.81l1.25,1.07l-1.47,1.72
		l0.37,0.32L67.52,16L68.78,17.07z"/>
	<path class="st0" d="M69.43,23.29c-0.48,0.42-0.83,0.7-1.05,0.85s-0.46,0.24-0.73,0.27c-0.27,0.02-0.54-0.02-0.8-0.15
		s-0.51-0.32-0.75-0.59c-0.22-0.25-0.38-0.52-0.48-0.8c-0.09-0.28-0.11-0.55-0.05-0.82c0.06-0.27,0.18-0.5,0.35-0.7
		s0.51-0.51,1-0.94l0.82-0.71c0.48-0.42,0.83-0.7,1.05-0.85c0.22-0.15,0.46-0.24,0.73-0.27s0.54,0.02,0.8,0.15s0.51,0.32,0.75,0.59
		c0.22,0.25,0.38,0.52,0.48,0.8c0.09,0.28,0.11,0.55,0.05,0.82s-0.18,0.5-0.35,0.7s-0.51,0.51-1,0.94L69.43,23.29z M69.91,20.69
		c0.22-0.19,0.35-0.33,0.39-0.41c0.04-0.08,0.03-0.16-0.04-0.23c-0.06-0.06-0.13-0.09-0.21-0.08c-0.08,0.01-0.24,0.12-0.49,0.34
		l-2.22,1.94c-0.28,0.24-0.44,0.4-0.48,0.48s-0.03,0.16,0.04,0.24c0.07,0.08,0.16,0.11,0.25,0.06s0.28-0.19,0.56-0.43L69.91,20.69z"
		/>
	<path class="st0" d="M72.78,26.64l-0.89-1.38l0.92-0.59c0.27-0.17,0.43-0.3,0.47-0.37c0.05-0.07,0.04-0.16-0.03-0.26
		c-0.07-0.11-0.16-0.16-0.26-0.14s-0.29,0.12-0.56,0.29l-2.47,1.59c-0.26,0.17-0.42,0.29-0.48,0.37c-0.06,0.08-0.05,0.18,0.01,0.28
		c0.07,0.1,0.15,0.15,0.25,0.13s0.3-0.12,0.59-0.31l0.67-0.43l0.89,1.38l-0.21,0.13c-0.55,0.35-0.97,0.57-1.25,0.64
		c-0.28,0.07-0.59,0.03-0.94-0.13c-0.34-0.15-0.64-0.43-0.89-0.82c-0.26-0.41-0.4-0.79-0.42-1.14c-0.02-0.36,0.07-0.66,0.27-0.91
		c0.21-0.25,0.57-0.55,1.09-0.88l1.55-1c0.38-0.25,0.68-0.42,0.89-0.52c0.21-0.1,0.44-0.14,0.7-0.12c0.26,0.02,0.52,0.11,0.77,0.27
		c0.25,0.17,0.47,0.4,0.67,0.7c0.26,0.41,0.4,0.79,0.41,1.16c0.01,0.37-0.07,0.67-0.25,0.9c-0.18,0.23-0.52,0.51-1.02,0.83
		L72.78,26.64z"/>
	<path class="st0" d="M73.9,31.29c-0.58,0.26-1,0.43-1.25,0.51c-0.25,0.08-0.51,0.09-0.78,0.04c-0.26-0.05-0.5-0.18-0.72-0.38
		c-0.22-0.2-0.4-0.46-0.54-0.78c-0.14-0.31-0.21-0.61-0.22-0.9c-0.01-0.29,0.05-0.56,0.19-0.8c0.13-0.24,0.31-0.43,0.54-0.56
		c0.22-0.14,0.63-0.34,1.23-0.6l0.99-0.44c0.58-0.26,1-0.43,1.25-0.51c0.25-0.08,0.51-0.09,0.78-0.04c0.26,0.05,0.5,0.18,0.72,0.38
		s0.4,0.46,0.54,0.78c0.14,0.31,0.21,0.61,0.22,0.9c0.01,0.29-0.05,0.56-0.19,0.8c-0.13,0.24-0.31,0.43-0.54,0.56
		s-0.63,0.34-1.23,0.6L73.9,31.29z M75.12,28.94c0.27-0.12,0.43-0.21,0.5-0.28s0.07-0.14,0.03-0.23c-0.04-0.08-0.09-0.13-0.17-0.14
		s-0.27,0.05-0.56,0.18l-2.69,1.21c-0.33,0.15-0.54,0.26-0.6,0.32c-0.07,0.06-0.08,0.14-0.03,0.24c0.05,0.1,0.12,0.15,0.22,0.13
		c0.1-0.01,0.32-0.09,0.66-0.25L75.12,28.94z"/>
	<path class="st0" d="M79.34,37.68l-6.19,1.29l-0.29-1.41l4.18-0.87l-4.3,0.31l-0.21-1l3.96-1.44l-4.08,0.85L72.11,34l6.19-1.29
		l0.43,2.08c-0.36,0.14-0.78,0.29-1.28,0.46l-1.53,0.56l2.97-0.23L79.34,37.68z"/>
	<path class="st0" d="M79.57,41.99l-6.28,1.2l-0.07-1.68l1.13-0.14l-0.02-0.59l-1.14-0.05l-0.07-1.7l6.35,0.58L79.57,41.99z
		 M75.47,41.29c0.71-0.11,1.59-0.23,2.64-0.36c-1.22-0.12-2.11-0.19-2.67-0.21L75.47,41.29z"/>
	<path class="st0" d="M79.56,43.87l-0.11,1.16c-0.08,0.77-0.16,1.29-0.24,1.56c-0.09,0.27-0.26,0.48-0.52,0.62
		c-0.26,0.15-0.66,0.2-1.2,0.15c-0.49-0.05-0.81-0.14-0.97-0.28c-0.16-0.14-0.23-0.39-0.23-0.75c-0.11,0.32-0.24,0.52-0.39,0.62
		s-0.28,0.16-0.39,0.17s-0.43,0-0.94-0.05l-1.66-0.16l0.15-1.52l2.09,0.2c0.34,0.03,0.55,0.03,0.63-0.02
		c0.08-0.05,0.14-0.18,0.16-0.41l-2.84-0.27l0.16-1.64L79.56,43.87z M78.33,45.4l-1.4-0.14c-0.02,0.18,0,0.32,0.04,0.39
		c0.04,0.08,0.2,0.13,0.48,0.16l0.35,0.03c0.2,0.02,0.33,0,0.4-0.07C78.27,45.72,78.31,45.59,78.33,45.4z"/>
	<path class="st0" d="M76.29,51.79l0.36-1.48l0.46,0.11c0.21,0.05,0.35,0.07,0.42,0.04s0.11-0.08,0.13-0.17
		c0.02-0.1,0-0.18-0.06-0.25s-0.18-0.12-0.34-0.16c-0.21-0.05-0.37-0.06-0.48-0.03c-0.12,0.03-0.28,0.15-0.49,0.36
		c-0.59,0.61-1.05,0.97-1.37,1.09c-0.32,0.12-0.77,0.11-1.38-0.04c-0.44-0.11-0.75-0.24-0.93-0.39c-0.18-0.15-0.31-0.39-0.38-0.72
		c-0.07-0.33-0.06-0.69,0.04-1.08c0.1-0.43,0.27-0.77,0.51-1.04c0.24-0.26,0.49-0.41,0.76-0.44c0.27-0.03,0.64,0.01,1.1,0.12
		l0.4,0.1l-0.36,1.48l-0.75-0.18c-0.23-0.06-0.38-0.07-0.46-0.05c-0.08,0.03-0.13,0.09-0.15,0.2c-0.03,0.11,0,0.2,0.07,0.27
		s0.19,0.13,0.35,0.17c0.36,0.09,0.61,0.1,0.75,0.03c0.14-0.07,0.38-0.28,0.74-0.61c0.36-0.33,0.61-0.55,0.76-0.65
		c0.15-0.1,0.34-0.17,0.57-0.2c0.23-0.03,0.51-0.01,0.84,0.07c0.47,0.11,0.8,0.26,0.99,0.43c0.19,0.17,0.31,0.41,0.37,0.71
		s0.04,0.64-0.05,1.02c-0.1,0.42-0.25,0.75-0.46,1.01s-0.42,0.41-0.65,0.46c-0.23,0.04-0.58,0.01-1.07-0.11L76.29,51.79z"/>
	<path class="st0" d="M76.33,57.05l-5.87-2.37l0.62-1.53l2.46,0.99l0.18-0.46l-2.46-0.99l0.61-1.52l5.87,2.37l-0.61,1.52l-2.1-0.85
		l-0.18,0.46l2.1,0.85L76.33,57.05z"/>
	<path class="st0" d="M74.97,59.58l-5.56-3.01l0.78-1.45l5.56,3.01L74.97,59.58z"/>
	<path class="st0" d="M71.36,64.86l-5.1-3.73l0.85-1.16l3.45,2.52l-3.11-2.98l0.6-0.82l3.72,1.98l-3.37-2.46l0.85-1.16l5.1,3.73
		l-1.26,1.72c-0.34-0.17-0.74-0.38-1.2-0.64l-1.44-0.76l2.16,2.05L71.36,64.86z"/>
	<path class="st0" d="M68.33,67.91l-5.1-3.85l1.2-1.18l0.86,0.75l0.42-0.41l-0.73-0.88l1.21-1.19l3.83,5.1L68.33,67.91z M66.1,64.39
		c0.56,0.45,1.24,1.03,2.04,1.72c-0.73-0.98-1.27-1.69-1.64-2.12L66.1,64.39z"/>
	<path class="st0" d="M65.67,70.11l-3.09-4l-0.79,0.61l-0.77-1l2.09-1.62l3.87,5L65.67,70.11z"/>
	<path class="st0" d="M62.72,72.09l-2.67-4.3l-0.85,0.53l-0.67-1.08l2.25-1.4l3.34,5.37L62.72,72.09z"/>
	<path class="st0" d="M56.14,71.29c-0.27-0.58-0.44-0.99-0.53-1.24c-0.08-0.25-0.1-0.51-0.05-0.78s0.17-0.51,0.37-0.73
		c0.19-0.22,0.45-0.4,0.78-0.55c0.31-0.14,0.61-0.22,0.9-0.23s0.56,0.05,0.8,0.18c0.24,0.13,0.43,0.31,0.57,0.53
		c0.14,0.22,0.34,0.63,0.62,1.22l0.46,0.98c0.27,0.58,0.44,0.99,0.53,1.24c0.08,0.25,0.1,0.51,0.05,0.78
		c-0.05,0.26-0.17,0.51-0.37,0.73c-0.19,0.22-0.45,0.4-0.78,0.55c-0.31,0.14-0.61,0.22-0.9,0.23s-0.56-0.05-0.8-0.18
		c-0.24-0.13-0.43-0.31-0.57-0.53c-0.14-0.22-0.34-0.63-0.62-1.22L56.14,71.29z M58.51,72.48c0.12,0.27,0.22,0.43,0.28,0.49
		c0.06,0.06,0.14,0.07,0.23,0.03c0.08-0.04,0.12-0.09,0.14-0.17c0.01-0.08-0.05-0.27-0.19-0.56l-1.25-2.68
		c-0.16-0.33-0.26-0.53-0.33-0.6s-0.14-0.08-0.24-0.03c-0.1,0.05-0.15,0.12-0.13,0.22c0.01,0.1,0.1,0.32,0.25,0.66L58.51,72.48z"/>
	<path class="st0" d="M50.31,76.79l-0.87-6.31l1.99-0.51c0.42,0.89,0.86,1.92,1.31,3.09c-0.07-0.53-0.2-1.64-0.38-3.33l1.98-0.51
		l2.29,5.94l-1.55,0.4l-0.72-2.09l-0.69-2.02c0.22,1.08,0.43,2.52,0.64,4.32l-1.65,0.42c-0.07-0.17-0.3-0.83-0.69-1.97l-0.78-2.29
		c0.29,1.51,0.52,2.99,0.67,4.46L50.31,76.79z"/>
	<path class="st0" d="M43.52,74.35l1.64-0.04l0.02,1.1c0.01,0.32,0.03,0.52,0.07,0.6c0.04,0.08,0.12,0.12,0.23,0.11
		c0.14,0,0.22-0.05,0.25-0.15c0.03-0.1,0.05-0.31,0.04-0.63l-0.06-2.94c-0.01-0.31-0.03-0.51-0.07-0.6s-0.12-0.14-0.25-0.14
		c-0.12,0-0.2,0.05-0.24,0.15c-0.04,0.09-0.05,0.32-0.04,0.66l0.02,0.79l-1.64,0.04l-0.01-0.25c-0.01-0.65,0.02-1.12,0.11-1.4
		c0.09-0.28,0.29-0.52,0.6-0.73s0.7-0.32,1.16-0.33c0.48-0.01,0.88,0.07,1.2,0.24c0.32,0.17,0.53,0.41,0.64,0.71
		c0.11,0.31,0.17,0.77,0.18,1.39l0.04,1.85c0.01,0.46,0,0.8-0.03,1.03s-0.11,0.45-0.26,0.66S46.77,76.87,46.5,77
		c-0.27,0.13-0.59,0.19-0.94,0.2c-0.48,0.01-0.89-0.08-1.21-0.26c-0.32-0.18-0.53-0.41-0.64-0.69c-0.1-0.28-0.16-0.71-0.18-1.3
		L43.52,74.35z"/>
	<path class="st0" d="M38.51,76.56l0.79-6.27l1.63,0.21l-0.33,2.63l0.49,0.06l0.33-2.63l1.63,0.21l-0.79,6.27l-1.63-0.21l0.28-2.24
		l-0.49-0.06l-0.28,2.24L38.51,76.56z"/>
	<path class="st0" d="M37.23,76.28l-2.65-0.7l0.32-1.22l1.06,0.28l0.3-1.16l-0.99-0.26l0.31-1.16l0.99,0.26l0.35-1.35l-1.17-0.31
		l0.32-1.22l2.76,0.72L37.23,76.28z"/>
	<path class="st0" d="M30.37,74l1.57-2.39l0.49-3.6l1.42,0.56c-0.06,0.65-0.19,1.43-0.38,2.33c0.19-0.36,0.4-0.73,0.63-1.12
		l0.52-0.9l1.49,0.59l-1.85,3.06l-0.47,2.82l-1.48-0.58c0.04-0.17,0.09-0.46,0.16-0.87c0.05-0.31,0.1-0.6,0.16-0.86l-0.96,1.48
		L30.37,74z"/>
	<path class="st0" d="M26.03,68.33l1.39,0.88l-0.59,0.93c-0.17,0.27-0.26,0.45-0.28,0.53s0.03,0.16,0.13,0.22
		c0.11,0.07,0.21,0.08,0.29,0.02c0.08-0.06,0.21-0.23,0.38-0.5l1.57-2.48c0.16-0.26,0.26-0.44,0.28-0.54
		c0.02-0.1-0.02-0.18-0.13-0.25c-0.1-0.07-0.2-0.07-0.28-0.01c-0.08,0.06-0.22,0.24-0.4,0.53l-0.42,0.67l-1.39-0.88l0.13-0.21
		c0.35-0.55,0.64-0.92,0.86-1.1c0.22-0.18,0.53-0.28,0.9-0.28s0.76,0.12,1.15,0.36c0.41,0.26,0.7,0.54,0.87,0.86
		c0.17,0.31,0.22,0.63,0.14,0.94c-0.08,0.32-0.28,0.73-0.62,1.26l-0.99,1.56c-0.24,0.38-0.44,0.67-0.59,0.84
		c-0.15,0.18-0.34,0.31-0.59,0.41s-0.51,0.12-0.81,0.08s-0.6-0.16-0.9-0.35c-0.41-0.26-0.7-0.55-0.86-0.88
		c-0.17-0.33-0.22-0.63-0.15-0.92c0.07-0.29,0.26-0.68,0.57-1.18L26.03,68.33z"/>
	<path class="st0" d="M20.63,67.39l4.13-4.79l1.24,1.08l-1.74,2.01l0.37,0.32L26.38,64l1.24,1.07l-4.13,4.79l-1.24-1.07l1.48-1.71
		l-0.37-0.32l-1.48,1.71L20.63,67.39z"/>
	<path class="st0" d="M20.02,61.16c0.48-0.42,0.83-0.7,1.05-0.85s0.46-0.24,0.73-0.26c0.27-0.02,0.53,0.03,0.8,0.15
		c0.26,0.13,0.51,0.32,0.75,0.59c0.22,0.26,0.38,0.52,0.47,0.8c0.09,0.28,0.11,0.55,0.05,0.82c-0.06,0.27-0.18,0.5-0.36,0.69
		c-0.18,0.19-0.51,0.5-1,0.93l-0.82,0.71c-0.48,0.42-0.83,0.7-1.05,0.85c-0.22,0.15-0.46,0.24-0.73,0.26s-0.53-0.03-0.8-0.15
		c-0.26-0.13-0.51-0.32-0.75-0.59c-0.22-0.26-0.38-0.52-0.47-0.8s-0.11-0.55-0.05-0.82c0.06-0.27,0.18-0.5,0.36-0.69
		c0.18-0.19,0.51-0.5,1-0.93L20.02,61.16z M19.52,63.76c-0.22,0.19-0.35,0.33-0.4,0.41c-0.04,0.08-0.03,0.16,0.04,0.23
		c0.06,0.07,0.12,0.09,0.2,0.08s0.24-0.12,0.49-0.33l2.24-1.93c0.28-0.24,0.44-0.4,0.48-0.48c0.05-0.08,0.03-0.16-0.04-0.24
		c-0.07-0.08-0.16-0.11-0.25-0.07c-0.1,0.04-0.28,0.18-0.57,0.43L19.52,63.76z"/>
	<path class="st0" d="M16.68,57.79l0.88,1.39l-0.93,0.59c-0.27,0.17-0.43,0.29-0.48,0.37c-0.05,0.07-0.04,0.16,0.02,0.26
		c0.07,0.11,0.16,0.16,0.26,0.14c0.1-0.02,0.29-0.12,0.56-0.29l2.48-1.57c0.26-0.17,0.42-0.29,0.48-0.37s0.06-0.17-0.01-0.28
		c-0.07-0.1-0.15-0.15-0.25-0.13s-0.3,0.12-0.59,0.31l-0.67,0.43l-0.88-1.39l0.21-0.13c0.55-0.35,0.97-0.56,1.25-0.63
		c0.28-0.07,0.59-0.02,0.94,0.13c0.34,0.16,0.64,0.43,0.89,0.82c0.26,0.41,0.4,0.79,0.42,1.15c0.02,0.36-0.07,0.66-0.28,0.91
		c-0.21,0.25-0.57,0.54-1.09,0.87l-1.56,0.99c-0.38,0.24-0.68,0.41-0.89,0.51c-0.21,0.1-0.44,0.13-0.71,0.12s-0.52-0.11-0.77-0.28
		s-0.47-0.4-0.66-0.7c-0.26-0.41-0.4-0.8-0.41-1.16s0.08-0.67,0.26-0.9s0.52-0.51,1.02-0.82L16.68,57.79z"/>
	<path class="st0" d="M15.59,53.14c0.58-0.26,1-0.43,1.25-0.51c0.25-0.08,0.51-0.09,0.78-0.04c0.26,0.06,0.5,0.18,0.72,0.38
		c0.22,0.2,0.4,0.46,0.54,0.79c0.14,0.31,0.21,0.61,0.22,0.9c0.01,0.29-0.06,0.56-0.19,0.8c-0.14,0.24-0.32,0.43-0.54,0.56
		s-0.64,0.33-1.23,0.6l-0.99,0.44c-0.58,0.26-1,0.43-1.25,0.51s-0.51,0.09-0.78,0.04s-0.5-0.18-0.72-0.38
		c-0.22-0.2-0.4-0.46-0.54-0.79c-0.14-0.31-0.21-0.61-0.22-0.9c-0.01-0.29,0.06-0.56,0.19-0.8c0.14-0.24,0.32-0.43,0.54-0.56
		c0.23-0.13,0.64-0.33,1.23-0.6L15.59,53.14z M14.36,55.48c-0.27,0.12-0.43,0.21-0.5,0.27c-0.06,0.06-0.07,0.14-0.03,0.23
		c0.03,0.08,0.09,0.13,0.17,0.14s0.27-0.04,0.56-0.18l2.7-1.2c0.34-0.15,0.54-0.25,0.6-0.32c0.07-0.06,0.08-0.14,0.03-0.24
		c-0.05-0.1-0.12-0.15-0.22-0.14c-0.1,0.01-0.32,0.09-0.67,0.24L14.36,55.48z"/>
	<path class="st0" d="M10.19,46.71l6.2-1.25l0.28,1.41l-4.19,0.84l4.3-0.28l0.2,1l-3.97,1.42l4.09-0.82l0.28,1.41l-6.2,1.25
		l-0.42-2.09c0.36-0.14,0.79-0.29,1.28-0.46l1.53-0.55l-2.97,0.21L10.19,46.71z"/>
	<path class="st0" d="M9.99,42.42l6.29-1.17l0.06,1.68l-1.13,0.13l0.02,0.59l1.14,0.06l0.06,1.7l-6.35-0.61L9.99,42.42z
		 M14.08,43.15c-0.71,0.11-1.59,0.22-2.65,0.34c1.22,0.12,2.1,0.2,2.67,0.22L14.08,43.15z"/>
	<path class="st0" d="M10,40.52l0.12-1.16c0.08-0.77,0.16-1.29,0.25-1.56s0.26-0.47,0.53-0.62c0.26-0.15,0.66-0.19,1.2-0.14
		c0.49,0.05,0.81,0.15,0.97,0.28s0.23,0.39,0.23,0.75c0.11-0.32,0.24-0.52,0.39-0.62c0.15-0.1,0.28-0.15,0.39-0.17
		c0.12-0.02,0.43,0,0.94,0.06l1.66,0.17l-0.16,1.52l-2.09-0.22c-0.34-0.03-0.55-0.03-0.63,0.02c-0.09,0.04-0.14,0.18-0.16,0.41
		l2.84,0.29l-0.17,1.64L10,40.52z M11.25,38.99l1.4,0.14c0.02-0.18,0.01-0.32-0.04-0.39c-0.04-0.08-0.2-0.13-0.48-0.16l-0.35-0.04
		c-0.2-0.02-0.33,0-0.4,0.07C11.31,38.68,11.27,38.8,11.25,38.99z"/>
	<path class="st0" d="M13.32,32.62l-0.37,1.48l-0.46-0.11c-0.21-0.05-0.35-0.07-0.42-0.04c-0.07,0.02-0.11,0.08-0.13,0.17
		c-0.02,0.1,0,0.18,0.06,0.25c0.07,0.07,0.18,0.12,0.34,0.16c0.2,0.05,0.37,0.06,0.48,0.03c0.12-0.03,0.28-0.15,0.49-0.36
		c0.6-0.6,1.06-0.97,1.37-1.08s0.78-0.1,1.38,0.05c0.44,0.11,0.75,0.24,0.93,0.4c0.18,0.15,0.31,0.4,0.37,0.72
		c0.07,0.33,0.05,0.69-0.05,1.08c-0.11,0.43-0.28,0.77-0.52,1.03c-0.24,0.26-0.49,0.41-0.77,0.44c-0.27,0.03-0.64-0.01-1.1-0.13
		l-0.4-0.1l0.37-1.48l0.75,0.19c0.23,0.06,0.38,0.07,0.46,0.05s0.13-0.09,0.15-0.2c0.03-0.11,0-0.2-0.07-0.27
		c-0.07-0.07-0.19-0.13-0.35-0.17c-0.36-0.09-0.61-0.1-0.75-0.03c-0.14,0.07-0.38,0.28-0.74,0.61c-0.36,0.33-0.62,0.55-0.77,0.65
		s-0.34,0.17-0.57,0.2s-0.51,0.01-0.83-0.07c-0.47-0.12-0.8-0.26-0.99-0.44c-0.19-0.17-0.31-0.41-0.36-0.71
		c-0.06-0.3-0.04-0.64,0.06-1.02c0.1-0.41,0.26-0.75,0.47-1.01c0.21-0.26,0.42-0.41,0.65-0.45s0.58,0,1.07,0.12L13.32,32.62z"/>
	<path class="st0" d="M13.32,27.36l5.85,2.4l-0.62,1.52l-2.46-1.01l-0.19,0.46l2.46,1.01l-0.62,1.52l-5.85-2.4l0.62-1.52l2.09,0.86
		l0.19-0.46l-2.09-0.86L13.32,27.36z"/>
	<path class="st0" d="M14.69,24.84l5.54,3.05l-0.79,1.44l-5.54-3.05L14.69,24.84z"/>
	<path class="st0" d="M18.33,19.58l5.08,3.76l-0.86,1.15l-3.43-2.54l3.09,3l-0.61,0.82l-3.71-2l3.35,2.49l-0.86,1.15l-5.08-3.76
		l1.27-1.71c0.34,0.18,0.74,0.39,1.2,0.64l1.43,0.77l-2.15-2.06L18.33,19.58z"/>
	<path class="st0" d="M21.4,16.54l5.08,3.89l-1.21,1.17l-0.85-0.75l-0.42,0.41l0.72,0.89l-1.22,1.18l-3.8-5.13L21.4,16.54z
		 M23.6,20.06c-0.56-0.46-1.23-1.03-2.03-1.73c0.72,0.99,1.26,1.7,1.62,2.13L23.6,20.06z"/>
	<path class="st0" d="M24.08,14.36l3.07,4.02l0.8-0.61l0.77,1.01l-2.1,1.6l-3.83-5.03L24.08,14.36z"/>
	<path class="st0" d="M27.02,12.4l2.64,4.31l0.85-0.52l0.66,1.08l-2.25,1.38l-3.3-5.39L27.02,12.4z"/>
	<path class="st0" d="M33.59,13.25c0.26,0.58,0.44,0.99,0.52,1.25c0.08,0.25,0.1,0.51,0.05,0.78c-0.05,0.26-0.18,0.51-0.37,0.72
		c-0.2,0.22-0.46,0.4-0.78,0.55c-0.31,0.14-0.61,0.22-0.9,0.23c-0.29,0.01-0.56-0.05-0.8-0.18c-0.24-0.13-0.43-0.31-0.57-0.54
		c-0.14-0.22-0.34-0.63-0.61-1.22l-0.45-0.98c-0.26-0.58-0.44-0.99-0.52-1.25c-0.08-0.25-0.1-0.51-0.05-0.78
		c0.05-0.26,0.18-0.51,0.37-0.72c0.2-0.22,0.46-0.4,0.78-0.55c0.31-0.14,0.61-0.22,0.9-0.23c0.29-0.01,0.56,0.05,0.8,0.18
		c0.24,0.13,0.43,0.31,0.57,0.54c0.14,0.22,0.34,0.63,0.61,1.22L33.59,13.25z M31.23,12.04c-0.12-0.27-0.22-0.43-0.28-0.49
		c-0.06-0.06-0.14-0.07-0.23-0.03c-0.08,0.04-0.12,0.09-0.14,0.17c-0.01,0.08,0.05,0.27,0.18,0.56l1.23,2.69
		c0.15,0.33,0.26,0.53,0.32,0.6c0.06,0.07,0.14,0.08,0.24,0.03c0.1-0.05,0.15-0.12,0.13-0.22s-0.1-0.32-0.25-0.66L31.23,12.04z"/>
	<path class="st0" d="M39.47,7.78l0.83,6.31l-1.99,0.5c-0.42-0.9-0.85-1.93-1.29-3.1c0.07,0.53,0.19,1.64,0.36,3.33l-1.98,0.5
		l-2.25-5.96l1.55-0.39l0.71,2.1l0.68,2.03c-0.21-1.09-0.41-2.53-0.61-4.32l1.66-0.42c0.07,0.17,0.29,0.83,0.68,1.98l0.76,2.29
		c-0.28-1.51-0.5-3-0.65-4.47L39.47,7.78z"/>
</g>
</svg>
