<?xml version="1.0" encoding="utf-8"?>
<!-- Generator: Adobe Illustrator 23.1.0, SVG Export Plug-In . SVG Version: 6.00 Build 0)  -->
<svg version="1.1" id="Layer_1" xmlns="http://www.w3.org/2000/svg" xmlns:xlink="http://www.w3.org/1999/xlink" x="0px" y="0px"
	 viewBox="0 0 90 90" style="enable-background:new 0 0 90 90;" xml:space="preserve">
<style type="text/css">
	.st0{fill:#FFFFFF;}
</style>
<g>
	<path class="st0" d="M45.53,6.8L43,6.88l-0.05-1.69c-0.01-0.49-0.05-0.8-0.11-0.92s-0.18-0.18-0.36-0.17
		c-0.21,0.01-0.34,0.08-0.39,0.23S42.02,4.8,42.04,5.3l0.13,4.51c0.01,0.47,0.05,0.78,0.11,0.92c0.06,0.14,0.19,0.21,0.38,0.21
		c0.19-0.01,0.31-0.08,0.36-0.23c0.05-0.15,0.07-0.49,0.06-1.02l-0.04-1.22l2.53-0.07l0.01,0.38c0.03,1.01-0.02,1.72-0.15,2.15
		c-0.13,0.43-0.43,0.8-0.91,1.13c-0.48,0.33-1.07,0.51-1.78,0.53c-0.74,0.02-1.35-0.09-1.84-0.35c-0.49-0.25-0.82-0.62-0.99-1.09
		s-0.27-1.18-0.3-2.13l-0.08-2.84c-0.02-0.7-0.01-1.23,0.03-1.58c0.04-0.35,0.17-0.69,0.4-1.02s0.55-0.6,0.97-0.79
		c0.42-0.2,0.9-0.31,1.45-0.32c0.74-0.02,1.36,0.1,1.86,0.38c0.49,0.27,0.82,0.62,0.99,1.05c0.16,0.43,0.26,1.09,0.29,2L45.53,6.8z"
		/>
	<path class="st0" d="M52.55,9.3c-0.16,0.96-0.29,1.64-0.41,2.04s-0.31,0.74-0.61,1.03c-0.29,0.29-0.66,0.49-1.1,0.6
		c-0.44,0.11-0.92,0.12-1.47,0.03c-0.51-0.08-0.96-0.24-1.34-0.48c-0.38-0.24-0.67-0.54-0.86-0.92s-0.28-0.77-0.26-1.17
		c0.02-0.4,0.11-1.1,0.27-2.09l0.27-1.64c0.16-0.96,0.29-1.64,0.41-2.04s0.31-0.74,0.61-1.03c0.29-0.29,0.66-0.49,1.1-0.6
		c0.44-0.11,0.92-0.12,1.47-0.03c0.51,0.08,0.96,0.24,1.34,0.48c0.38,0.24,0.67,0.54,0.86,0.92c0.19,0.38,0.28,0.77,0.26,1.17
		s-0.11,1.1-0.27,2.09L52.55,9.3z M50.58,5.74c0.07-0.45,0.1-0.74,0.07-0.87c-0.03-0.13-0.12-0.21-0.27-0.24
		c-0.13-0.02-0.24,0.01-0.32,0.1s-0.17,0.38-0.25,0.88l-0.74,4.48c-0.09,0.56-0.13,0.9-0.1,1.04c0.02,0.14,0.12,0.22,0.28,0.25
		c0.17,0.03,0.29-0.03,0.36-0.17s0.15-0.5,0.25-1.06L50.58,5.74z"/>
	<path class="st0" d="M59.86,10.35l-2.37-0.89l0.59-1.58c0.17-0.46,0.25-0.76,0.25-0.89c-0.01-0.13-0.1-0.23-0.27-0.3
		c-0.2-0.07-0.34-0.05-0.45,0.07s-0.24,0.41-0.42,0.87l-1.59,4.23c-0.17,0.44-0.25,0.74-0.25,0.9c0,0.15,0.09,0.27,0.28,0.34
		c0.18,0.07,0.32,0.04,0.42-0.07c0.1-0.11,0.25-0.42,0.44-0.92l0.43-1.14l2.37,0.89l-0.13,0.35c-0.35,0.94-0.67,1.59-0.95,1.93
		c-0.28,0.34-0.7,0.58-1.27,0.71c-0.57,0.13-1.18,0.06-1.85-0.19c-0.69-0.26-1.22-0.6-1.57-1.02s-0.52-0.88-0.5-1.38
		s0.2-1.19,0.53-2.09l1-2.66c0.25-0.66,0.45-1.14,0.62-1.45c0.17-0.31,0.42-0.58,0.76-0.8c0.34-0.22,0.74-0.34,1.2-0.37
		c0.46-0.03,0.95,0.06,1.46,0.25c0.7,0.26,1.22,0.61,1.57,1.05c0.35,0.44,0.53,0.89,0.52,1.34s-0.17,1.11-0.49,1.96L59.86,10.35z"/>
	<path class="st0" d="M65.4,15.33c-0.51,0.83-0.9,1.41-1.15,1.73c-0.25,0.32-0.57,0.56-0.95,0.72s-0.8,0.21-1.24,0.14
		c-0.45-0.06-0.9-0.24-1.37-0.53c-0.44-0.27-0.8-0.59-1.06-0.95c-0.26-0.36-0.41-0.75-0.45-1.18c-0.04-0.42,0.03-0.82,0.2-1.18
		c0.17-0.37,0.52-0.97,1.04-1.83l0.88-1.42c0.51-0.83,0.9-1.41,1.15-1.73c0.25-0.32,0.57-0.56,0.95-0.72s0.8-0.21,1.24-0.14
		c0.45,0.06,0.9,0.24,1.37,0.53c0.44,0.27,0.79,0.59,1.06,0.95c0.26,0.36,0.41,0.76,0.45,1.18c0.04,0.42-0.03,0.82-0.2,1.18
		c-0.17,0.37-0.52,0.97-1.04,1.83L65.4,15.33z M64.93,11.28c0.24-0.38,0.37-0.64,0.39-0.78c0.02-0.13-0.03-0.24-0.16-0.32
		c-0.11-0.07-0.22-0.08-0.34-0.03c-0.11,0.05-0.3,0.29-0.56,0.71l-2.39,3.86c-0.3,0.48-0.46,0.79-0.49,0.93
		c-0.03,0.14,0.03,0.25,0.17,0.34c0.15,0.09,0.28,0.08,0.4-0.02s0.33-0.4,0.63-0.89L64.93,11.28z"/>
	<path class="st0" d="M70.24,11.91l1.88,1.71c0.51,0.46,0.87,0.86,1.07,1.19s0.3,0.63,0.3,0.91c0,0.28-0.07,0.54-0.22,0.8
		s-0.42,0.61-0.83,1.06l-0.57,0.63c-0.42,0.46-0.77,0.75-1.05,0.88c-0.29,0.12-0.61,0.13-0.96,0.01s-0.74-0.36-1.15-0.73l-0.5-0.46
		l-2.63,2.9l-1.87-1.7L70.24,11.91z M70.99,14.84l-1.66,1.83c0.05,0.05,0.1,0.09,0.13,0.13c0.17,0.16,0.33,0.22,0.47,0.2
		c0.14-0.02,0.34-0.17,0.58-0.44l0.54-0.59c0.22-0.25,0.33-0.44,0.32-0.59S71.23,15.06,70.99,14.84z"/>
	<path class="st0" d="M74.66,25.19c-0.78,0.59-1.34,0.99-1.7,1.2s-0.73,0.32-1.15,0.33S71,26.62,70.6,26.4s-0.75-0.55-1.09-0.99
		c-0.31-0.41-0.53-0.84-0.64-1.27c-0.11-0.43-0.11-0.85,0.01-1.26c0.12-0.41,0.32-0.75,0.61-1.03c0.29-0.28,0.83-0.72,1.63-1.33
		l1.33-1c0.78-0.59,1.34-0.99,1.7-1.2s0.73-0.32,1.15-0.33c0.42-0.01,0.82,0.09,1.21,0.31s0.75,0.55,1.09,0.98
		c0.31,0.42,0.53,0.84,0.64,1.27c0.11,0.43,0.11,0.85-0.01,1.26c-0.12,0.41-0.32,0.75-0.61,1.03s-0.83,0.72-1.63,1.33L74.66,25.19z
		 M75.68,21.25c0.36-0.27,0.58-0.47,0.65-0.58s0.06-0.24-0.04-0.36c-0.08-0.11-0.18-0.16-0.3-0.15c-0.12,0.01-0.39,0.16-0.78,0.46
		l-3.62,2.74c-0.45,0.34-0.71,0.57-0.79,0.69c-0.08,0.12-0.07,0.24,0.04,0.38c0.1,0.14,0.23,0.18,0.38,0.13
		c0.15-0.05,0.45-0.25,0.91-0.6L75.68,21.25z"/>
	<path class="st0" d="M80.42,23.77l1.14,2.28c0.31,0.62,0.5,1.11,0.57,1.49c0.07,0.38,0.05,0.7-0.05,0.96s-0.26,0.48-0.49,0.67
		c-0.23,0.19-0.62,0.42-1.16,0.69l-0.76,0.38c-0.55,0.28-0.99,0.42-1.3,0.44c-0.31,0.01-0.61-0.1-0.9-0.34
		c-0.29-0.24-0.56-0.6-0.8-1.1l-0.3-0.61l-3.5,1.75l-1.13-2.26L80.42,23.77z M80.06,26.78l-2.21,1.11c0.03,0.07,0.05,0.12,0.08,0.17
		c0.1,0.21,0.23,0.33,0.37,0.36c0.14,0.03,0.38-0.04,0.7-0.2l0.71-0.36c0.3-0.15,0.47-0.29,0.51-0.43
		C80.26,27.29,80.21,27.07,80.06,26.78z"/>
	<path class="st0" d="M82.27,36.55l-0.66-2.25l0.69-0.2c0.32-0.09,0.52-0.18,0.59-0.27c0.07-0.08,0.09-0.19,0.05-0.33
		c-0.04-0.15-0.13-0.24-0.28-0.28c-0.14-0.04-0.33-0.02-0.57,0.05c-0.31,0.09-0.53,0.2-0.67,0.33c-0.13,0.13-0.26,0.41-0.37,0.85
		c-0.33,1.27-0.66,2.1-0.99,2.5c-0.33,0.4-0.95,0.73-1.87,1c-0.67,0.19-1.18,0.26-1.54,0.19c-0.36-0.06-0.71-0.29-1.05-0.67
		c-0.34-0.38-0.6-0.87-0.77-1.46c-0.19-0.65-0.23-1.24-0.11-1.77c0.11-0.53,0.34-0.92,0.68-1.18c0.34-0.25,0.86-0.48,1.56-0.68
		l0.61-0.18l0.66,2.26l-1.14,0.33c-0.35,0.1-0.57,0.2-0.65,0.29c-0.08,0.09-0.1,0.22-0.05,0.38s0.15,0.26,0.29,0.31
		s0.35,0.03,0.6-0.05c0.55-0.16,0.89-0.34,1.01-0.54c0.13-0.2,0.3-0.66,0.52-1.38c0.22-0.72,0.4-1.2,0.52-1.45
		c0.12-0.25,0.33-0.48,0.61-0.71c0.28-0.22,0.67-0.4,1.17-0.55c0.71-0.21,1.26-0.27,1.65-0.18c0.38,0.09,0.73,0.31,1.03,0.66
		c0.3,0.35,0.54,0.82,0.71,1.4c0.18,0.63,0.24,1.2,0.16,1.7c-0.07,0.5-0.25,0.87-0.51,1.11c-0.27,0.23-0.77,0.46-1.51,0.67
		L82.27,36.55z"/>
	<path class="st0" d="M81.87,46.78l-0.08-2.53l1.69-0.05c0.49-0.02,0.8-0.05,0.92-0.11c0.12-0.06,0.18-0.18,0.17-0.36
		c-0.01-0.21-0.08-0.34-0.23-0.39c-0.15-0.05-0.47-0.07-0.96-0.05l-4.51,0.14c-0.47,0.02-0.78,0.05-0.92,0.11
		c-0.14,0.06-0.21,0.19-0.2,0.38c0.01,0.19,0.08,0.31,0.23,0.36s0.49,0.07,1.02,0.05l1.22-0.04l0.08,2.53l-0.38,0.01
		c-1.01,0.03-1.72-0.02-2.15-0.14c-0.43-0.13-0.8-0.43-1.14-0.91c-0.33-0.48-0.51-1.07-0.53-1.78c-0.02-0.74,0.09-1.35,0.34-1.84
		c0.25-0.49,0.61-0.82,1.08-0.99c0.47-0.17,1.18-0.27,2.13-0.3l2.84-0.09c0.7-0.02,1.23-0.01,1.58,0.02
		c0.35,0.04,0.69,0.17,1.03,0.4c0.33,0.23,0.6,0.55,0.8,0.97c0.2,0.42,0.31,0.9,0.33,1.45c0.02,0.74-0.1,1.36-0.37,1.86
		s-0.62,0.82-1.05,0.99s-1.09,0.26-2,0.29L81.87,46.78z"/>
	<path class="st0" d="M79.39,53.8c-0.96-0.16-1.64-0.29-2.04-0.4c-0.39-0.11-0.74-0.31-1.03-0.61c-0.29-0.29-0.5-0.66-0.61-1.09
		c-0.11-0.44-0.12-0.92-0.04-1.47c0.08-0.51,0.24-0.96,0.48-1.34s0.54-0.67,0.92-0.86c0.38-0.19,0.77-0.28,1.17-0.27
		c0.4,0.02,1.1,0.11,2.09,0.27l1.64,0.27c0.96,0.16,1.64,0.29,2.04,0.4c0.39,0.11,0.74,0.31,1.03,0.61c0.29,0.29,0.5,0.66,0.61,1.09
		c0.11,0.44,0.12,0.92,0.04,1.47c-0.08,0.51-0.24,0.96-0.48,1.34s-0.54,0.67-0.92,0.86c-0.38,0.19-0.77,0.28-1.17,0.27
		c-0.4-0.02-1.1-0.11-2.09-0.27L79.39,53.8z M82.94,51.82c0.45,0.07,0.74,0.09,0.87,0.07s0.21-0.12,0.24-0.28
		c0.02-0.13-0.01-0.24-0.1-0.32c-0.09-0.09-0.38-0.17-0.88-0.25l-4.48-0.73c-0.56-0.09-0.9-0.12-1.04-0.1s-0.22,0.12-0.25,0.29
		c-0.03,0.17,0.03,0.29,0.17,0.36c0.14,0.07,0.5,0.15,1.06,0.25L82.94,51.82z"/>
	<path class="st0" d="M78.34,61.14l0.88-2.37l1.58,0.59c0.46,0.17,0.76,0.25,0.89,0.25c0.13-0.01,0.23-0.1,0.3-0.27
		c0.07-0.19,0.05-0.34-0.07-0.45c-0.12-0.1-0.41-0.24-0.87-0.42l-4.23-1.58c-0.44-0.17-0.74-0.25-0.9-0.24
		c-0.15,0-0.27,0.09-0.33,0.28c-0.07,0.18-0.04,0.32,0.07,0.42c0.12,0.11,0.42,0.25,0.92,0.44l1.15,0.43l-0.88,2.37l-0.35-0.13
		c-0.94-0.35-1.59-0.67-1.93-0.95s-0.58-0.7-0.71-1.27s-0.07-1.18,0.18-1.85c0.26-0.69,0.6-1.22,1.02-1.58
		c0.42-0.36,0.88-0.53,1.38-0.51s1.2,0.2,2.09,0.53l2.66,0.99c0.66,0.25,1.14,0.45,1.45,0.62c0.31,0.17,0.58,0.42,0.8,0.76
		c0.22,0.34,0.34,0.74,0.37,1.2c0.03,0.46-0.06,0.95-0.25,1.46c-0.26,0.7-0.61,1.22-1.05,1.58c-0.44,0.35-0.89,0.53-1.34,0.52
		s-1.11-0.17-1.96-0.49L78.34,61.14z"/>
	<path class="st0" d="M73.37,66.69c-0.83-0.51-1.41-0.89-1.73-1.15c-0.32-0.25-0.56-0.57-0.72-0.95c-0.16-0.38-0.21-0.8-0.14-1.24
		c0.06-0.45,0.24-0.9,0.53-1.37c0.27-0.44,0.59-0.8,0.95-1.06s0.75-0.41,1.18-0.45c0.42-0.04,0.82,0.03,1.18,0.2
		s0.98,0.52,1.83,1.04l1.42,0.87c0.83,0.51,1.41,0.89,1.73,1.15c0.32,0.25,0.56,0.57,0.72,0.95c0.16,0.38,0.21,0.8,0.15,1.24
		c-0.06,0.45-0.24,0.9-0.53,1.37c-0.27,0.44-0.59,0.8-0.95,1.06c-0.36,0.26-0.75,0.41-1.18,0.45c-0.42,0.04-0.82-0.03-1.18-0.2
		s-0.97-0.52-1.83-1.04L73.37,66.69z M77.42,66.21c0.38,0.24,0.64,0.37,0.78,0.39s0.24-0.03,0.32-0.16
		c0.07-0.11,0.08-0.23,0.03-0.34c-0.05-0.11-0.29-0.3-0.71-0.56l-3.87-2.38c-0.48-0.3-0.79-0.46-0.93-0.49
		c-0.14-0.03-0.25,0.03-0.34,0.17c-0.09,0.15-0.08,0.28,0.02,0.4c0.1,0.12,0.4,0.33,0.89,0.63L77.42,66.21z"/>
	<path class="st0" d="M76.79,71.52l-1.71,1.89c-0.46,0.51-0.86,0.87-1.19,1.07c-0.33,0.2-0.63,0.3-0.91,0.3s-0.54-0.07-0.8-0.22
		c-0.26-0.15-0.62-0.42-1.07-0.83l-0.63-0.57c-0.46-0.42-0.75-0.77-0.88-1.05s-0.13-0.61-0.01-0.96c0.12-0.36,0.36-0.74,0.73-1.15
		l0.46-0.5l-2.9-2.63l1.7-1.87L76.79,71.52z M73.86,72.28l-1.83-1.66c-0.05,0.05-0.09,0.1-0.13,0.13c-0.16,0.17-0.22,0.33-0.2,0.47
		c0.02,0.14,0.17,0.34,0.44,0.58l0.59,0.54c0.25,0.22,0.44,0.33,0.59,0.32C73.46,72.65,73.64,72.52,73.86,72.28z"/>
	<path class="st0" d="M63.52,75.96c-0.59-0.78-0.99-1.34-1.2-1.69c-0.21-0.35-0.32-0.73-0.33-1.15c-0.01-0.41,0.09-0.82,0.31-1.21
		c0.22-0.39,0.55-0.76,0.98-1.09c0.42-0.32,0.84-0.53,1.27-0.65c0.43-0.12,0.85-0.11,1.26,0c0.41,0.12,0.75,0.32,1.03,0.61
		c0.28,0.29,0.72,0.83,1.33,1.63l1.01,1.32c0.59,0.78,0.99,1.34,1.2,1.69s0.32,0.73,0.33,1.15s-0.09,0.82-0.31,1.21
		c-0.22,0.39-0.55,0.76-0.98,1.09c-0.41,0.32-0.84,0.53-1.27,0.65c-0.43,0.12-0.85,0.11-1.26,0c-0.41-0.12-0.75-0.32-1.03-0.61
		c-0.28-0.29-0.72-0.83-1.33-1.63L63.52,75.96z M67.47,76.98c0.27,0.36,0.47,0.58,0.58,0.65s0.24,0.06,0.36-0.04
		c0.11-0.08,0.16-0.18,0.15-0.31c-0.01-0.12-0.16-0.38-0.46-0.78l-2.75-3.61c-0.34-0.45-0.57-0.71-0.69-0.79
		c-0.12-0.08-0.24-0.07-0.38,0.04c-0.14,0.1-0.18,0.23-0.13,0.38s0.25,0.45,0.6,0.91L67.47,76.98z"/>
	<path class="st0" d="M64.98,81.7l-2.28,1.14c-0.62,0.31-1.11,0.5-1.49,0.57c-0.38,0.07-0.7,0.05-0.96-0.04s-0.48-0.26-0.67-0.49
		s-0.42-0.62-0.69-1.16l-0.38-0.76c-0.28-0.55-0.42-0.99-0.44-1.3c-0.01-0.31,0.1-0.61,0.34-0.9c0.24-0.29,0.6-0.56,1.1-0.81
		l0.61-0.31l-1.76-3.5l2.26-1.14L64.98,81.7z M61.97,81.35l-1.11-2.21c-0.07,0.03-0.12,0.05-0.17,0.08
		c-0.21,0.1-0.33,0.23-0.36,0.37s0.04,0.38,0.2,0.7L60.89,81c0.15,0.3,0.29,0.47,0.43,0.51C61.46,81.55,61.68,81.5,61.97,81.35z"/>
	<path class="st0" d="M52.17,83.59l2.25-0.66l0.2,0.69c0.09,0.32,0.18,0.52,0.27,0.59c0.08,0.07,0.19,0.09,0.33,0.05
		c0.15-0.04,0.24-0.13,0.28-0.28c0.04-0.14,0.02-0.33-0.05-0.58c-0.09-0.31-0.2-0.53-0.33-0.67c-0.13-0.13-0.41-0.26-0.85-0.37
		c-1.27-0.33-2.1-0.65-2.5-0.98c-0.4-0.33-0.73-0.95-1-1.87c-0.19-0.67-0.26-1.18-0.2-1.54c0.06-0.36,0.29-0.71,0.67-1.06
		c0.38-0.34,0.87-0.6,1.46-0.78c0.65-0.19,1.24-0.23,1.77-0.12s0.92,0.34,1.18,0.68c0.25,0.34,0.48,0.86,0.69,1.56l0.18,0.61
		l-2.25,0.66l-0.33-1.14c-0.1-0.35-0.2-0.57-0.29-0.65c-0.09-0.08-0.22-0.1-0.38-0.05c-0.16,0.05-0.26,0.15-0.3,0.3
		c-0.04,0.15-0.03,0.35,0.05,0.6c0.16,0.55,0.34,0.89,0.54,1.01c0.2,0.12,0.66,0.3,1.38,0.52c0.72,0.22,1.21,0.4,1.45,0.52
		s0.48,0.33,0.71,0.61c0.22,0.28,0.41,0.67,0.55,1.17c0.21,0.71,0.27,1.26,0.18,1.65s-0.31,0.73-0.66,1.03
		c-0.35,0.3-0.82,0.54-1.39,0.71c-0.63,0.18-1.2,0.24-1.7,0.17c-0.5-0.07-0.87-0.24-1.11-0.51c-0.23-0.27-0.46-0.77-0.68-1.51
		L52.17,83.59z"/>
	<path class="st0" d="M41.95,83.2l2.53-0.08l0.06,1.69c0.02,0.49,0.05,0.8,0.11,0.92s0.18,0.18,0.36,0.17
		c0.21-0.01,0.34-0.08,0.39-0.24c0.05-0.15,0.07-0.47,0.05-0.96l-0.15-4.51c-0.02-0.47-0.05-0.78-0.11-0.92
		c-0.06-0.14-0.19-0.21-0.39-0.2c-0.19,0.01-0.31,0.08-0.36,0.23s-0.07,0.49-0.05,1.02l0.04,1.22l-2.53,0.08l-0.01-0.38
		c-0.03-1.01,0.01-1.72,0.14-2.15c0.13-0.43,0.43-0.8,0.91-1.14s1.07-0.51,1.78-0.53c0.74-0.03,1.36,0.09,1.84,0.34
		c0.49,0.25,0.82,0.61,0.99,1.08c0.17,0.47,0.27,1.18,0.31,2.13l0.09,2.84c0.02,0.7,0.02,1.23-0.02,1.58
		c-0.04,0.35-0.17,0.69-0.4,1.03c-0.23,0.33-0.55,0.6-0.97,0.8c-0.42,0.2-0.9,0.31-1.45,0.33c-0.74,0.03-1.36-0.1-1.86-0.37
		c-0.49-0.27-0.82-0.62-0.99-1.04c-0.17-0.42-0.26-1.09-0.29-2L41.95,83.2z"/>
	<path class="st0" d="M34.92,80.74c0.16-0.96,0.29-1.64,0.4-2.04c0.11-0.39,0.31-0.74,0.6-1.03s0.66-0.5,1.09-0.61
		c0.44-0.11,0.92-0.13,1.47-0.04c0.51,0.08,0.96,0.24,1.34,0.47c0.38,0.23,0.67,0.54,0.87,0.91c0.2,0.38,0.28,0.77,0.27,1.17
		s-0.1,1.1-0.26,2.09l-0.26,1.64c-0.16,0.96-0.29,1.64-0.4,2.04c-0.11,0.39-0.31,0.74-0.6,1.03c-0.29,0.29-0.66,0.5-1.09,0.61
		c-0.44,0.11-0.92,0.13-1.47,0.04c-0.51-0.08-0.96-0.24-1.34-0.47c-0.38-0.23-0.67-0.54-0.87-0.92s-0.28-0.77-0.27-1.17
		c0.02-0.4,0.1-1.1,0.26-2.09L34.92,80.74z M36.91,84.29c-0.07,0.45-0.09,0.74-0.06,0.87c0.03,0.13,0.12,0.21,0.28,0.24
		c0.13,0.02,0.24-0.01,0.32-0.1s0.17-0.38,0.25-0.88l0.72-4.48c0.09-0.56,0.12-0.91,0.1-1.04s-0.12-0.22-0.29-0.25
		c-0.17-0.03-0.29,0.03-0.36,0.17c-0.07,0.14-0.15,0.5-0.24,1.06L36.91,84.29z"/>
	<path class="st0" d="M27.6,79.72l2.37,0.88l-0.59,1.58c-0.17,0.46-0.25,0.76-0.24,0.89c0.01,0.13,0.1,0.23,0.27,0.29
		c0.2,0.07,0.34,0.05,0.45-0.07c0.1-0.12,0.24-0.41,0.41-0.87l1.57-4.24c0.16-0.44,0.25-0.74,0.24-0.9c0-0.15-0.1-0.27-0.28-0.33
		c-0.18-0.07-0.32-0.04-0.42,0.08c-0.1,0.12-0.25,0.42-0.44,0.92l-0.42,1.15l-2.37-0.88l0.13-0.36c0.35-0.94,0.66-1.59,0.94-1.93
		c0.28-0.35,0.7-0.58,1.27-0.71s1.18-0.07,1.85,0.18c0.69,0.26,1.22,0.6,1.58,1.01c0.36,0.42,0.53,0.88,0.51,1.38
		s-0.19,1.2-0.52,2.09l-0.99,2.66c-0.24,0.66-0.45,1.14-0.62,1.45c-0.17,0.31-0.42,0.58-0.75,0.8s-0.73,0.35-1.2,0.37
		c-0.46,0.03-0.95-0.05-1.46-0.24c-0.7-0.26-1.22-0.61-1.58-1.05c-0.35-0.44-0.53-0.89-0.52-1.34c0.01-0.46,0.17-1.11,0.48-1.96
		L27.6,79.72z"/>
	<path class="st0" d="M22.04,74.76c0.51-0.83,0.89-1.41,1.14-1.73c0.25-0.32,0.57-0.56,0.95-0.72s0.8-0.21,1.24-0.15
		s0.9,0.24,1.37,0.52c0.44,0.27,0.8,0.59,1.06,0.95c0.26,0.36,0.42,0.75,0.45,1.17c0.04,0.42-0.03,0.82-0.2,1.18
		s-0.51,0.98-1.04,1.83l-0.87,1.42c-0.51,0.83-0.89,1.41-1.14,1.73s-0.57,0.56-0.95,0.72c-0.38,0.16-0.8,0.21-1.24,0.15
		c-0.45-0.06-0.9-0.24-1.37-0.52c-0.44-0.27-0.8-0.59-1.06-0.95c-0.26-0.36-0.42-0.75-0.45-1.18c-0.04-0.42,0.03-0.82,0.2-1.18
		c0.17-0.37,0.51-0.98,1.04-1.83L22.04,74.76z M22.53,78.8c-0.24,0.39-0.37,0.65-0.39,0.78c-0.02,0.13,0.03,0.24,0.17,0.32
		c0.11,0.07,0.23,0.08,0.34,0.03c0.11-0.05,0.3-0.29,0.56-0.72l2.37-3.87c0.29-0.48,0.46-0.79,0.49-0.93s-0.03-0.25-0.17-0.34
		c-0.15-0.09-0.28-0.08-0.4,0.02c-0.12,0.1-0.33,0.4-0.63,0.89L22.53,78.8z"/>
	<path class="st0" d="M17.22,78.19l-1.89-1.71c-0.51-0.46-0.87-0.86-1.07-1.18c-0.2-0.33-0.3-0.63-0.31-0.91
		c0-0.28,0.07-0.54,0.22-0.8c0.15-0.26,0.42-0.62,0.83-1.07l0.57-0.63c0.42-0.46,0.77-0.75,1.05-0.88s0.61-0.13,0.96-0.01
		s0.74,0.36,1.15,0.73l0.5,0.46l2.62-2.91l1.88,1.69L17.22,78.19z M16.45,75.26l1.66-1.84c-0.05-0.05-0.1-0.09-0.13-0.13
		c-0.17-0.16-0.33-0.22-0.47-0.2c-0.14,0.02-0.34,0.17-0.58,0.44l-0.54,0.59c-0.22,0.25-0.33,0.44-0.32,0.59
		C16.08,74.86,16.21,75.04,16.45,75.26z"/>
	<path class="st0" d="M12.74,64.93c0.78-0.59,1.34-1,1.69-1.21c0.35-0.21,0.73-0.32,1.15-0.33c0.41-0.01,0.82,0.09,1.21,0.31
		s0.76,0.54,1.09,0.98c0.32,0.41,0.53,0.84,0.65,1.27c0.12,0.43,0.12,0.85,0,1.26s-0.32,0.75-0.61,1.03
		c-0.29,0.28-0.83,0.73-1.63,1.33l-1.32,1.01c-0.78,0.59-1.34,0.99-1.69,1.21c-0.35,0.21-0.73,0.32-1.15,0.33
		c-0.41,0.01-0.82-0.09-1.21-0.31c-0.39-0.22-0.76-0.55-1.09-0.98c-0.32-0.41-0.53-0.84-0.65-1.27c-0.12-0.43-0.12-0.85,0-1.26
		c0.12-0.41,0.32-0.75,0.61-1.03c0.29-0.28,0.83-0.73,1.63-1.33L12.74,64.93z M11.74,68.88c-0.36,0.27-0.57,0.47-0.64,0.59
		c-0.07,0.12-0.06,0.24,0.04,0.36c0.08,0.1,0.18,0.15,0.31,0.15c0.12-0.01,0.38-0.16,0.78-0.46l3.61-2.76
		c0.45-0.34,0.71-0.57,0.79-0.69c0.08-0.12,0.06-0.24-0.04-0.38c-0.1-0.14-0.23-0.18-0.38-0.12c-0.15,0.05-0.45,0.25-0.91,0.6
		L11.74,68.88z"/>
	<path class="st0" d="M6.99,66.37l-1.15-2.27c-0.31-0.61-0.5-1.11-0.57-1.49c-0.07-0.38-0.06-0.7,0.04-0.96
		c0.1-0.26,0.26-0.48,0.49-0.67c0.23-0.19,0.62-0.42,1.16-0.7l0.76-0.38c0.55-0.28,0.99-0.43,1.3-0.44s0.61,0.1,0.9,0.33
		s0.56,0.6,0.81,1.1l0.31,0.61l3.5-1.76l1.14,2.26L6.99,66.37z M7.34,63.36l2.21-1.11c-0.03-0.07-0.05-0.12-0.08-0.17
		c-0.1-0.21-0.23-0.33-0.37-0.35c-0.14-0.03-0.37,0.04-0.7,0.2l-0.71,0.36c-0.3,0.15-0.47,0.29-0.51,0.43S7.19,63.07,7.34,63.36z"/>
	<path class="st0" d="M5.09,53.56l0.66,2.25l-0.69,0.2c-0.32,0.09-0.52,0.18-0.59,0.27s-0.09,0.19-0.05,0.33
		c0.04,0.15,0.13,0.24,0.28,0.28c0.14,0.04,0.33,0.02,0.57-0.05c0.31-0.09,0.53-0.2,0.67-0.33c0.13-0.13,0.26-0.41,0.37-0.85
		c0.32-1.27,0.65-2.1,0.98-2.5c0.33-0.4,0.95-0.74,1.86-1.01c0.66-0.2,1.18-0.26,1.54-0.2c0.36,0.06,0.71,0.29,1.06,0.67
		s0.6,0.87,0.78,1.46c0.19,0.65,0.23,1.24,0.12,1.77s-0.34,0.92-0.67,1.18s-0.86,0.48-1.56,0.69L9.8,57.9l-0.66-2.25l1.13-0.33
		c0.35-0.1,0.56-0.2,0.65-0.29c0.08-0.09,0.1-0.22,0.05-0.38c-0.05-0.16-0.15-0.26-0.3-0.3c-0.15-0.04-0.35-0.03-0.6,0.05
		c-0.55,0.16-0.89,0.34-1.01,0.54c-0.12,0.2-0.29,0.67-0.51,1.38c-0.22,0.72-0.39,1.21-0.52,1.45c-0.12,0.25-0.32,0.48-0.61,0.71
		c-0.28,0.22-0.67,0.41-1.17,0.55C5.55,59.23,5,59.29,4.61,59.21c-0.38-0.08-0.73-0.3-1.04-0.66s-0.54-0.82-0.71-1.39
		c-0.19-0.63-0.24-1.2-0.17-1.7c0.07-0.5,0.24-0.87,0.51-1.11c0.27-0.23,0.77-0.46,1.51-0.68L5.09,53.56z"/>
	<path class="st0" d="M5.46,43.35l0.09,2.53l-1.69,0.06c-0.49,0.02-0.8,0.05-0.92,0.11c-0.12,0.06-0.18,0.18-0.17,0.36
		c0.01,0.21,0.09,0.34,0.24,0.39c0.15,0.05,0.47,0.07,0.96,0.05l4.51-0.16c0.47-0.02,0.78-0.06,0.92-0.12
		c0.14-0.06,0.21-0.19,0.2-0.39C9.6,46,9.52,45.88,9.38,45.83c-0.15-0.05-0.49-0.07-1.02-0.05l-1.22,0.04l-0.09-2.53l0.38-0.01
		c1.01-0.04,1.72,0.01,2.15,0.14c0.43,0.13,0.81,0.43,1.14,0.9c0.33,0.48,0.51,1.07,0.54,1.78c0.03,0.74-0.09,1.36-0.34,1.85
		c-0.25,0.49-0.61,0.82-1.08,0.99c-0.47,0.17-1.18,0.28-2.13,0.31l-2.84,0.1c-0.7,0.02-1.23,0.02-1.58-0.02
		c-0.35-0.04-0.69-0.17-1.03-0.39s-0.6-0.55-0.8-0.96s-0.31-0.9-0.33-1.45c-0.03-0.74,0.1-1.36,0.37-1.86
		c0.27-0.49,0.62-0.82,1.04-0.99c0.42-0.17,1.09-0.27,2-0.3L5.46,43.35z"/>
	<path class="st0" d="M7.92,36.31c0.96,0.15,1.64,0.29,2.04,0.39s0.74,0.31,1.03,0.6s0.5,0.66,0.61,1.09s0.13,0.92,0.04,1.47
		c-0.08,0.51-0.24,0.96-0.47,1.34c-0.23,0.38-0.54,0.67-0.91,0.87c-0.38,0.2-0.77,0.29-1.17,0.27c-0.4-0.02-1.1-0.1-2.09-0.26
		l-1.64-0.26c-0.96-0.15-1.64-0.29-2.04-0.39c-0.39-0.11-0.74-0.31-1.03-0.6c-0.29-0.29-0.5-0.66-0.61-1.09
		c-0.11-0.44-0.13-0.92-0.04-1.47c0.08-0.51,0.24-0.96,0.47-1.34c0.23-0.38,0.54-0.67,0.91-0.87c0.38-0.2,0.77-0.29,1.17-0.27
		c0.4,0.02,1.1,0.1,2.09,0.26L7.92,36.31z M4.36,38.3c-0.45-0.07-0.74-0.09-0.87-0.06c-0.13,0.03-0.21,0.12-0.24,0.28
		c-0.02,0.13,0.01,0.24,0.1,0.32s0.38,0.17,0.88,0.25l4.48,0.71c0.56,0.09,0.91,0.12,1.04,0.1c0.14-0.02,0.22-0.12,0.25-0.29
		c0.03-0.17-0.03-0.29-0.17-0.36s-0.5-0.15-1.06-0.24L4.36,38.3z"/>
	<path class="st0" d="M8.91,29.02l-0.87,2.37l-1.59-0.58c-0.46-0.17-0.76-0.25-0.89-0.24c-0.13,0.01-0.23,0.1-0.29,0.27
		c-0.07,0.2-0.05,0.35,0.07,0.45c0.12,0.1,0.41,0.24,0.87,0.41l4.24,1.56c0.44,0.16,0.74,0.24,0.9,0.24c0.15,0,0.27-0.1,0.33-0.28
		c0.06-0.18,0.04-0.32-0.08-0.42s-0.42-0.25-0.92-0.43l-1.15-0.42l0.87-2.37l0.36,0.13c0.94,0.35,1.59,0.66,1.94,0.94
		s0.58,0.7,0.71,1.27s0.07,1.18-0.18,1.85c-0.26,0.7-0.59,1.22-1.01,1.58c-0.42,0.36-0.88,0.53-1.38,0.51
		c-0.5-0.02-1.2-0.19-2.09-0.52l-2.67-0.98c-0.66-0.24-1.14-0.45-1.45-0.61s-0.58-0.42-0.8-0.75c-0.22-0.34-0.35-0.73-0.38-1.19
		c-0.03-0.46,0.05-0.95,0.24-1.46c0.26-0.7,0.6-1.23,1.04-1.58c0.44-0.35,0.88-0.53,1.34-0.52c0.46,0.01,1.11,0.17,1.96,0.48
		L8.91,29.02z"/>
	<path class="st0" d="M13.86,23.44c0.83,0.51,1.41,0.89,1.74,1.14c0.32,0.25,0.57,0.57,0.73,0.95c0.16,0.38,0.21,0.8,0.15,1.24
		c-0.06,0.45-0.23,0.9-0.52,1.37c-0.27,0.44-0.59,0.8-0.95,1.06s-0.75,0.42-1.17,0.46c-0.42,0.04-0.82-0.03-1.18-0.19
		c-0.37-0.17-0.98-0.51-1.83-1.03l-1.42-0.87c-0.83-0.51-1.41-0.89-1.74-1.14c-0.32-0.25-0.56-0.57-0.73-0.95s-0.21-0.8-0.15-1.24
		c0.06-0.45,0.23-0.9,0.52-1.37c0.27-0.44,0.59-0.8,0.95-1.06S9,21.39,9.42,21.35s0.82,0.03,1.18,0.19s0.98,0.51,1.83,1.03
		L13.86,23.44z M9.81,23.94c-0.39-0.24-0.65-0.36-0.78-0.39s-0.24,0.03-0.32,0.17c-0.07,0.11-0.08,0.23-0.03,0.34
		c0.05,0.11,0.29,0.3,0.72,0.56l3.88,2.36c0.48,0.29,0.79,0.46,0.93,0.49c0.14,0.03,0.25-0.03,0.34-0.17
		c0.09-0.15,0.08-0.28-0.02-0.4c-0.1-0.12-0.4-0.33-0.89-0.63L9.81,23.94z"/>
	<path class="st0" d="M10.44,18.6l1.7-1.89c0.46-0.51,0.85-0.87,1.18-1.07s0.63-0.31,0.91-0.31s0.54,0.07,0.8,0.21
		c0.26,0.15,0.62,0.42,1.07,0.83l0.63,0.57c0.46,0.42,0.75,0.77,0.88,1.05c0.13,0.29,0.13,0.61,0.01,0.96
		c-0.12,0.36-0.36,0.74-0.73,1.15l-0.45,0.5l2.91,2.62l-1.69,1.88L10.44,18.6z M13.36,17.83l1.84,1.65c0.05-0.05,0.09-0.1,0.13-0.13
		c0.16-0.17,0.22-0.33,0.2-0.47c-0.02-0.14-0.17-0.34-0.44-0.58l-0.59-0.53c-0.25-0.22-0.44-0.33-0.59-0.32
		C13.77,17.46,13.58,17.59,13.36,17.83z"/>
	<path class="st0" d="M23.69,14.11c0.59,0.78,1,1.34,1.21,1.69c0.21,0.35,0.32,0.73,0.33,1.15c0.01,0.41-0.09,0.82-0.31,1.21
		s-0.54,0.76-0.98,1.09c-0.41,0.32-0.84,0.53-1.27,0.65c-0.43,0.12-0.85,0.12-1.26,0c-0.41-0.12-0.75-0.32-1.03-0.61
		s-0.73-0.83-1.34-1.62l-1.01-1.32c-0.59-0.78-1-1.34-1.21-1.69c-0.21-0.35-0.32-0.73-0.33-1.15c-0.01-0.41,0.09-0.82,0.31-1.21
		c0.22-0.39,0.54-0.76,0.98-1.09c0.41-0.32,0.84-0.53,1.27-0.65c0.43-0.12,0.85-0.12,1.26,0s0.75,0.32,1.03,0.61
		s0.73,0.83,1.34,1.62L23.69,14.11z M19.74,13.11c-0.28-0.36-0.47-0.57-0.59-0.64c-0.12-0.07-0.24-0.06-0.36,0.04
		c-0.1,0.08-0.15,0.18-0.15,0.31c0.01,0.12,0.16,0.38,0.47,0.78l2.76,3.6c0.34,0.45,0.57,0.71,0.69,0.79
		c0.12,0.08,0.24,0.06,0.38-0.04c0.14-0.1,0.18-0.23,0.12-0.38c-0.05-0.15-0.26-0.45-0.6-0.91L19.74,13.11z"/>
	<path class="st0" d="M22.21,8.38l2.27-1.15c0.61-0.31,1.11-0.5,1.49-0.57c0.38-0.07,0.7-0.06,0.96,0.04
		c0.26,0.1,0.48,0.26,0.67,0.49s0.42,0.61,0.7,1.16l0.38,0.75c0.28,0.55,0.43,0.99,0.44,1.3c0.01,0.31-0.1,0.61-0.33,0.9
		s-0.6,0.56-1.09,0.81l-0.61,0.31l1.77,3.49l-2.25,1.14L22.21,8.38z M25.22,8.72l1.12,2.21c0.07-0.03,0.12-0.06,0.17-0.08
		c0.21-0.1,0.32-0.23,0.35-0.37s-0.04-0.37-0.2-0.7L26.3,9.06c-0.15-0.3-0.29-0.47-0.43-0.51C25.73,8.51,25.51,8.57,25.22,8.72z"/>
	<path class="st0" d="M35.01,6.44l-2.25,0.67l-0.2-0.69c-0.1-0.32-0.19-0.52-0.27-0.59c-0.08-0.07-0.19-0.09-0.33-0.05
		c-0.15,0.04-0.24,0.14-0.28,0.28c-0.04,0.14-0.02,0.33,0.05,0.57c0.09,0.31,0.2,0.53,0.33,0.67c0.13,0.13,0.41,0.26,0.85,0.37
		c1.27,0.32,2.1,0.64,2.51,0.97s0.74,0.95,1.01,1.86c0.2,0.66,0.26,1.18,0.2,1.54c-0.06,0.36-0.28,0.71-0.67,1.06
		c-0.38,0.35-0.87,0.61-1.46,0.78c-0.65,0.19-1.24,0.23-1.77,0.12c-0.53-0.11-0.92-0.33-1.18-0.67c-0.25-0.34-0.49-0.86-0.69-1.55
		l-0.18-0.61l2.25-0.67l0.34,1.13c0.1,0.35,0.2,0.56,0.29,0.65s0.22,0.1,0.38,0.05s0.26-0.15,0.3-0.3c0.04-0.15,0.02-0.35-0.05-0.6
		c-0.16-0.55-0.34-0.89-0.54-1.01c-0.2-0.12-0.67-0.29-1.39-0.51c-0.72-0.22-1.21-0.39-1.46-0.51c-0.25-0.12-0.49-0.32-0.71-0.6
		c-0.22-0.28-0.41-0.67-0.56-1.16c-0.21-0.71-0.28-1.26-0.19-1.65s0.3-0.73,0.65-1.04c0.35-0.31,0.82-0.55,1.39-0.72
		c0.63-0.19,1.2-0.24,1.7-0.17c0.5,0.07,0.87,0.24,1.11,0.51c0.24,0.27,0.46,0.77,0.68,1.51L35.01,6.44z"/>
</g>
</svg>
