<?xml version="1.0" encoding="utf-8"?>
<!-- Generator: Adobe Illustrator 23.1.0, SVG Export Plug-In . SVG Version: 6.00 Build 0)  -->
<svg version="1.1" id="Layer_1" xmlns="http://www.w3.org/2000/svg" xmlns:xlink="http://www.w3.org/1999/xlink" x="0px" y="0px"
	 viewBox="0 0 79.85 79.85" style="enable-background:new 0 0 79.85 79.85;" xml:space="preserve">
<style type="text/css">
	.st0{fill:#FFFFFF;}
</style>
<g>
	<path class="st0" d="M34.15,4.03l-2.06,0.48l-0.32-1.38c-0.09-0.4-0.17-0.65-0.24-0.74c-0.07-0.09-0.18-0.12-0.33-0.08
		c-0.17,0.04-0.26,0.13-0.28,0.26c-0.02,0.13,0.02,0.4,0.11,0.8l0.86,3.68c0.09,0.39,0.17,0.63,0.24,0.74
		c0.07,0.11,0.19,0.14,0.35,0.1c0.15-0.04,0.24-0.12,0.26-0.25c0.02-0.13-0.02-0.41-0.12-0.85l-0.23-1l2.06-0.48l0.07,0.31
		c0.19,0.82,0.27,1.42,0.23,1.79c-0.04,0.37-0.22,0.73-0.56,1.08c-0.34,0.35-0.8,0.59-1.38,0.73c-0.6,0.14-1.13,0.15-1.57,0.02
		c-0.44-0.13-0.77-0.37-0.99-0.73s-0.42-0.92-0.6-1.7L29.12,4.5c-0.13-0.57-0.21-1-0.24-1.3s0.03-0.6,0.16-0.91
		c0.13-0.31,0.35-0.58,0.66-0.81c0.31-0.23,0.69-0.4,1.14-0.5c0.61-0.14,1.14-0.14,1.59,0c0.45,0.14,0.78,0.38,0.98,0.7
		s0.39,0.85,0.57,1.59L34.15,4.03z"/>
	<path class="st0" d="M40.3,4.79c0.05,0.82,0.06,1.4,0.04,1.74c-0.02,0.34-0.12,0.66-0.31,0.95s-0.45,0.52-0.78,0.7
		s-0.73,0.27-1.19,0.3c-0.44,0.03-0.83-0.02-1.18-0.15C36.52,8.21,36.23,8.01,36,7.74c-0.23-0.27-0.37-0.57-0.43-0.91
		c-0.06-0.33-0.11-0.92-0.16-1.75l-0.08-1.39c-0.05-0.82-0.06-1.4-0.04-1.74C35.3,1.61,35.4,1.29,35.59,1s0.45-0.52,0.78-0.7
		s0.73-0.27,1.19-0.3C38-0.02,38.4,0.03,38.75,0.15c0.35,0.12,0.65,0.32,0.87,0.59c0.23,0.27,0.37,0.57,0.43,0.91
		c0.06,0.33,0.11,0.92,0.16,1.75L40.3,4.79z M38.03,2.25c-0.02-0.38-0.06-0.62-0.1-0.72c-0.05-0.1-0.14-0.15-0.27-0.14
		c-0.11,0.01-0.19,0.05-0.25,0.14c-0.05,0.09-0.07,0.34-0.04,0.76l0.22,3.8c0.03,0.47,0.06,0.76,0.11,0.87
		c0.04,0.11,0.14,0.16,0.28,0.15c0.14-0.01,0.23-0.08,0.27-0.21s0.03-0.43,0.01-0.91L38.03,2.25z"/>
	<path class="st0" d="M41.85,0.08l1.49,0.16c0.99,0.11,1.66,0.22,2.01,0.33s0.61,0.34,0.8,0.68c0.19,0.34,0.24,0.85,0.17,1.54
		c-0.07,0.63-0.19,1.05-0.37,1.25s-0.5,0.3-0.97,0.29c0.41,0.15,0.67,0.32,0.8,0.5c0.13,0.19,0.2,0.36,0.22,0.51
		c0.02,0.15-0.01,0.55-0.07,1.2l-0.23,2.14l-1.96-0.21l0.29-2.69c0.04-0.43,0.04-0.71-0.02-0.82s-0.23-0.18-0.52-0.21L43.09,8.4
		l-2.11-0.22L41.85,0.08z M43.81,1.69l-0.19,1.8c0.24,0.03,0.41,0.01,0.51-0.04c0.1-0.06,0.17-0.26,0.21-0.62l0.05-0.44
		c0.03-0.26,0-0.43-0.08-0.52C44.21,1.78,44.05,1.72,43.81,1.69z"/>
	<path class="st0" d="M52.96,2.21l-2.19,7.84l-1.79-0.5l-0.06-3.86l-1,3.56l-1.7-0.48l2.19-7.84l1.71,0.48l0.16,3.85l0.99-3.53
		L52.96,2.21z"/>
	<path class="st0" d="M56.62,3.73l3.19,1.63l-0.74,1.45l-1.31-0.67l-0.7,1.37l1.16,0.6l-0.71,1.38l-1.16-0.6l-1.56,3.04l-1.88-0.97
		L56.62,3.73z"/>
	<path class="st0" d="M61.05,6.08l1.22,0.87c0.81,0.58,1.34,1,1.59,1.27c0.24,0.27,0.37,0.6,0.36,0.98c0,0.39-0.2,0.86-0.61,1.43
		c-0.37,0.52-0.68,0.82-0.93,0.9c-0.25,0.09-0.58,0.01-0.99-0.22c0.28,0.33,0.43,0.6,0.45,0.83s0,0.41-0.06,0.55
		s-0.27,0.48-0.65,1.01l-1.24,1.75l-1.6-1.14l1.57-2.21c0.25-0.35,0.38-0.6,0.38-0.72s-0.11-0.27-0.35-0.44l-2.13,2.99l-1.73-1.23
		L61.05,6.08z M61.96,8.44l-1.05,1.48c0.19,0.14,0.35,0.21,0.46,0.21c0.12,0,0.28-0.14,0.49-0.44l0.26-0.36
		c0.15-0.21,0.21-0.38,0.18-0.49C62.28,8.71,62.16,8.58,61.96,8.44z"/>
	<path class="st0" d="M66.39,16.81c-0.58,0.58-1,0.98-1.27,1.19s-0.57,0.35-0.92,0.41c-0.34,0.06-0.69,0.02-1.04-0.12
		s-0.69-0.37-1.01-0.69c-0.31-0.31-0.54-0.63-0.68-0.98c-0.15-0.35-0.19-0.69-0.14-1.04c0.05-0.35,0.18-0.66,0.39-0.93
		c0.21-0.27,0.61-0.7,1.2-1.29l0.98-0.99c0.58-0.58,1-0.98,1.27-1.19c0.27-0.21,0.57-0.35,0.92-0.41c0.34-0.06,0.69-0.02,1.04,0.12
		s0.69,0.37,1.01,0.69c0.31,0.31,0.54,0.63,0.68,0.98s0.19,0.69,0.14,1.05c-0.05,0.35-0.18,0.66-0.39,0.93s-0.61,0.7-1.2,1.29
		L66.39,16.81z M66.78,13.42c0.27-0.27,0.42-0.46,0.47-0.56c0.04-0.1,0.02-0.2-0.07-0.3c-0.08-0.08-0.17-0.11-0.27-0.09
		c-0.1,0.02-0.3,0.18-0.6,0.47l-2.68,2.69c-0.33,0.33-0.53,0.56-0.58,0.66c-0.05,0.11-0.03,0.21,0.07,0.31
		c0.1,0.1,0.21,0.12,0.33,0.06c0.12-0.06,0.35-0.26,0.69-0.6L66.78,13.42z"/>
	<path class="st0" d="M71.57,19.93l-1.15-1.6l0.49-0.35c0.23-0.16,0.36-0.29,0.39-0.38s0.02-0.18-0.05-0.27
		c-0.07-0.1-0.17-0.15-0.3-0.14c-0.12,0.01-0.27,0.07-0.44,0.2c-0.22,0.16-0.37,0.31-0.43,0.45c-0.07,0.14-0.09,0.4-0.05,0.78
		c0.1,1.09,0.07,1.84-0.08,2.25s-0.55,0.85-1.19,1.31c-0.47,0.34-0.86,0.53-1.16,0.58c-0.3,0.05-0.64-0.03-1.02-0.23
		c-0.38-0.21-0.72-0.52-1.02-0.94c-0.33-0.46-0.53-0.92-0.59-1.37c-0.06-0.45,0.01-0.82,0.21-1.12c0.2-0.29,0.54-0.62,1.04-0.98
		l0.43-0.31l1.15,1.6l-0.8,0.58c-0.25,0.18-0.39,0.32-0.43,0.41c-0.04,0.1-0.02,0.2,0.07,0.31s0.19,0.17,0.32,0.16
		s0.28-0.08,0.46-0.2c0.39-0.28,0.61-0.52,0.65-0.71c0.04-0.2,0.05-0.61,0.02-1.24c-0.02-0.63-0.02-1.06,0-1.29
		c0.03-0.23,0.12-0.47,0.28-0.73c0.16-0.25,0.42-0.51,0.77-0.76c0.51-0.36,0.92-0.57,1.25-0.61c0.33-0.04,0.66,0.04,1,0.23
		c0.34,0.19,0.66,0.49,0.95,0.9c0.32,0.45,0.52,0.88,0.61,1.3c0.08,0.42,0.05,0.76-0.1,1.02s-0.48,0.58-1.01,0.96L71.57,19.93z"/>
	<path class="st0" d="M76.43,23.82l-1.45,0.74l-0.57-1.12l-5.79,2.97l-0.97-1.88l5.79-2.97l-0.57-1.11l1.45-0.74L76.43,23.82z"/>
	<path class="st0" d="M78.26,29.11l-6.24,1.86l0.37,1.23l-1.56,0.46l-0.97-3.26l7.8-2.32L78.26,29.11z"/>
	<path class="st0" d="M79.25,33.55l-8,1.51l-0.39-2.08l8-1.51L79.25,33.55z"/>
	<path class="st0" d="M76.83,40.23l-0.12-2.11l0.74-0.04c0.47-0.03,0.76-0.06,0.87-0.11c0.12-0.05,0.17-0.15,0.16-0.3
		c-0.01-0.13-0.06-0.22-0.17-0.26c-0.1-0.04-0.36-0.05-0.78-0.03l-3.9,0.22c-0.37,0.02-0.6,0.06-0.72,0.11
		c-0.11,0.05-0.17,0.15-0.16,0.29c0.01,0.15,0.08,0.25,0.21,0.3c0.13,0.05,0.39,0.06,0.77,0.04l0.96-0.06l-0.02-0.43l1.23-0.07
		l0.14,2.48l-4.36,0.25l-0.08-1.33l0.57-0.23c-0.26-0.13-0.46-0.3-0.6-0.51c-0.14-0.21-0.22-0.47-0.23-0.77
		c-0.02-0.35,0.05-0.69,0.2-1.01c0.16-0.32,0.36-0.57,0.6-0.74s0.51-0.29,0.78-0.35s0.7-0.1,1.25-0.13l2.42-0.14
		c0.78-0.04,1.34-0.03,1.7,0.03s0.69,0.29,1.01,0.67s0.49,0.88,0.53,1.51c0.04,0.62-0.06,1.14-0.29,1.56
		c-0.23,0.42-0.52,0.71-0.86,0.85c-0.34,0.14-0.85,0.23-1.51,0.27L76.83,40.23z"/>
	<path class="st0" d="M79.22,46.8l-8.09-0.91l0.24-2.1l3.4,0.38l0.07-0.63l-3.4-0.38l0.24-2.1l8.09,0.91l-0.24,2.1l-2.89-0.32
		l-0.07,0.63l2.89,0.32L79.22,46.8z"/>
	<path class="st0" d="M77.7,52.74l-1.57-0.43l0.33-1.21l-6.28-1.73l0.56-2.04l6.28,1.73l0.33-1.21l1.57,0.43L77.7,52.74z"/>
	<path class="st0" d="M72.14,58.97l0.9-1.75l0.54,0.28c0.25,0.13,0.42,0.19,0.51,0.18c0.09-0.01,0.17-0.07,0.22-0.17
		c0.06-0.11,0.06-0.22-0.01-0.33c-0.06-0.11-0.19-0.21-0.38-0.3c-0.24-0.13-0.44-0.19-0.6-0.18c-0.15,0-0.39,0.1-0.72,0.3
		c-0.93,0.58-1.61,0.9-2.04,0.95c-0.43,0.05-1-0.1-1.71-0.47c-0.52-0.26-0.87-0.52-1.05-0.77c-0.18-0.25-0.27-0.58-0.25-1.02
		c0.01-0.43,0.14-0.88,0.37-1.33c0.26-0.5,0.58-0.89,0.95-1.14c0.37-0.26,0.74-0.37,1.09-0.33c0.35,0.04,0.8,0.2,1.34,0.48
		l0.47,0.24l-0.9,1.75L70,54.91c-0.27-0.14-0.46-0.21-0.56-0.2c-0.1,0.01-0.19,0.08-0.25,0.2c-0.06,0.13-0.06,0.24,0,0.36
		c0.07,0.11,0.2,0.22,0.39,0.32c0.43,0.22,0.74,0.3,0.93,0.26c0.19-0.05,0.56-0.23,1.11-0.54c0.55-0.31,0.94-0.5,1.15-0.58
		c0.22-0.08,0.48-0.11,0.78-0.08s0.64,0.14,1.03,0.34c0.55,0.29,0.92,0.56,1.11,0.84c0.18,0.27,0.27,0.61,0.25,1
		s-0.14,0.81-0.37,1.26c-0.25,0.49-0.54,0.87-0.88,1.13c-0.34,0.26-0.65,0.39-0.95,0.38c-0.3-0.01-0.73-0.17-1.31-0.46L72.14,58.97z
		"/>
	<path class="st0" d="M70.48,65.56l-4.37-3.24c-0.5-0.37-0.83-0.64-1.01-0.82c-0.18-0.18-0.31-0.43-0.41-0.75s-0.1-0.64-0.01-0.98
		s0.26-0.69,0.52-1.04c0.29-0.39,0.61-0.69,0.96-0.89c0.35-0.2,0.68-0.3,1-0.3s0.6,0.08,0.85,0.22c0.25,0.14,0.74,0.49,1.48,1.04
		l3.87,2.87l-1.26,1.7l-4.9-3.64c-0.29-0.21-0.48-0.33-0.58-0.36c-0.1-0.03-0.19,0.01-0.26,0.1c-0.08,0.11-0.09,0.21-0.02,0.31
		c0.06,0.1,0.26,0.26,0.58,0.51l4.82,3.58L70.48,65.56z"/>
	<path class="st0" d="M63.65,68.18l1.53-1.46l0.51,0.53c0.32,0.34,0.54,0.53,0.65,0.59s0.22,0.03,0.33-0.07
		c0.09-0.09,0.12-0.19,0.09-0.29c-0.04-0.1-0.2-0.31-0.48-0.61l-2.71-2.82c-0.25-0.26-0.44-0.42-0.55-0.47
		c-0.11-0.05-0.22-0.03-0.32,0.07c-0.11,0.11-0.14,0.23-0.09,0.36c0.05,0.13,0.21,0.34,0.47,0.61l0.67,0.7l0.31-0.3l0.86,0.89
		l-1.79,1.72l-3.03-3.15l0.96-0.92l0.54,0.29c-0.07-0.28-0.07-0.54,0-0.79c0.07-0.24,0.22-0.47,0.43-0.67
		c0.26-0.25,0.56-0.42,0.9-0.5c0.34-0.09,0.66-0.1,0.95-0.03c0.29,0.07,0.55,0.2,0.77,0.37c0.22,0.17,0.53,0.46,0.92,0.87l1.67,1.75
		c0.54,0.56,0.9,1,1.08,1.31s0.23,0.71,0.15,1.2c-0.08,0.49-0.35,0.95-0.81,1.38c-0.45,0.43-0.91,0.69-1.38,0.79
		c-0.47,0.1-0.87,0.07-1.21-0.1s-0.73-0.49-1.19-0.97L63.65,68.18z"/>
	<path class="st0" d="M61.26,73.57l-5.61-6.02l1.78-1.23l0.92,1.14l0.62-0.43l-0.72-1.28l1.8-1.24l3.72,7.32L61.26,73.57z
		 M59.22,68.62c0.61,0.7,1.35,1.58,2.2,2.64c-0.71-1.41-1.24-2.42-1.6-3.05L59.22,68.62z"/>
	<path class="st0" d="M59.05,74.92l-1.36,0.64c-0.9,0.43-1.53,0.68-1.88,0.76c-0.35,0.08-0.7,0.03-1.04-0.17s-0.65-0.6-0.95-1.23
		c-0.27-0.57-0.38-0.99-0.33-1.26c0.05-0.26,0.27-0.51,0.67-0.75c-0.42,0.08-0.74,0.08-0.94-0.02c-0.2-0.1-0.35-0.2-0.45-0.32
		c-0.09-0.12-0.28-0.47-0.56-1.07l-0.92-1.94l1.78-0.84l1.16,2.45c0.19,0.39,0.33,0.62,0.44,0.69s0.29,0.04,0.56-0.09l-1.57-3.32
		l1.91-0.9L59.05,74.92z M56.54,74.56l-0.77-1.64c-0.21,0.1-0.35,0.2-0.41,0.3c-0.06,0.1-0.01,0.31,0.14,0.64l0.19,0.4
		c0.11,0.23,0.22,0.37,0.34,0.4C56.15,74.7,56.32,74.67,56.54,74.56z"/>
	<path class="st0" d="M45.34,75.87l2.07-0.46l0.31,1.38c0.09,0.4,0.17,0.65,0.23,0.74s0.17,0.12,0.33,0.08
		c0.17-0.04,0.26-0.12,0.28-0.25c0.02-0.13-0.02-0.4-0.11-0.8l-0.82-3.69c-0.09-0.39-0.16-0.63-0.24-0.74
		c-0.07-0.11-0.19-0.14-0.35-0.11c-0.15,0.03-0.24,0.12-0.26,0.24s0.02,0.41,0.11,0.85l0.22,1l-2.07,0.46l-0.07-0.31
		c-0.18-0.82-0.25-1.42-0.21-1.79s0.23-0.73,0.57-1.08c0.34-0.35,0.8-0.58,1.38-0.71c0.61-0.13,1.13-0.13,1.57,0
		s0.77,0.38,0.98,0.74c0.21,0.36,0.41,0.93,0.58,1.71l0.51,2.32c0.13,0.57,0.2,1.01,0.23,1.3c0.02,0.3-0.03,0.6-0.17,0.91
		c-0.14,0.31-0.36,0.58-0.67,0.81c-0.31,0.23-0.69,0.39-1.14,0.49c-0.61,0.13-1.14,0.13-1.59-0.02c-0.45-0.15-0.77-0.38-0.98-0.71
		s-0.38-0.86-0.55-1.6L45.34,75.87z"/>
	<path class="st0" d="M39.21,75.03c-0.04-0.82-0.05-1.4-0.03-1.74c0.02-0.34,0.13-0.66,0.32-0.95c0.19-0.29,0.45-0.52,0.79-0.69
		c0.34-0.17,0.74-0.26,1.19-0.28c0.44-0.02,0.83,0.03,1.18,0.16c0.35,0.13,0.64,0.33,0.87,0.6s0.37,0.58,0.42,0.91
		c0.06,0.33,0.1,0.92,0.14,1.76l0.07,1.39c0.04,0.82,0.05,1.4,0.03,1.74c-0.02,0.34-0.13,0.66-0.32,0.95
		c-0.19,0.29-0.45,0.52-0.79,0.69c-0.34,0.17-0.74,0.26-1.19,0.28c-0.44,0.02-0.83-0.03-1.18-0.16s-0.64-0.33-0.87-0.6
		s-0.37-0.58-0.42-0.91c-0.06-0.33-0.1-0.92-0.15-1.76L39.21,75.03z M41.45,77.6c0.02,0.38,0.05,0.62,0.1,0.72s0.14,0.15,0.27,0.15
		c0.11-0.01,0.19-0.05,0.25-0.14s0.07-0.34,0.05-0.76l-0.18-3.8c-0.02-0.47-0.06-0.76-0.1-0.87c-0.04-0.11-0.14-0.16-0.28-0.15
		c-0.14,0.01-0.23,0.08-0.27,0.2c-0.03,0.13-0.04,0.43-0.02,0.91L41.45,77.6z"/>
	<path class="st0" d="M37.59,79.72l-1.49-0.17c-0.99-0.12-1.66-0.23-2-0.35s-0.61-0.35-0.79-0.69s-0.24-0.86-0.16-1.54
		c0.07-0.63,0.2-1.04,0.38-1.24c0.18-0.2,0.51-0.29,0.97-0.28c-0.4-0.15-0.67-0.32-0.79-0.51c-0.12-0.19-0.19-0.36-0.21-0.51
		c-0.02-0.15,0.01-0.55,0.09-1.2l0.25-2.13l1.95,0.23L35.48,74c-0.05,0.43-0.05,0.71,0.01,0.82s0.23,0.18,0.52,0.22l0.43-3.65
		l2.1,0.25L37.59,79.72z M35.65,78.09l0.21-1.8c-0.24-0.03-0.41-0.01-0.51,0.04s-0.17,0.26-0.22,0.62l-0.05,0.44
		c-0.03,0.26,0,0.43,0.08,0.52C35.24,78.01,35.4,78.07,35.65,78.09z"/>
	<path class="st0" d="M26.51,77.48l2.28-7.82l1.78,0.52l0.02,3.86l1.04-3.55l1.7,0.5l-2.28,7.82l-1.7-0.5l-0.11-3.85l-1.03,3.52
		L26.51,77.48z"/>
	<path class="st0" d="M22.87,75.93l-3.17-1.67l0.76-1.44l1.3,0.68l0.72-1.37l-1.16-0.61l0.72-1.37l1.16,0.61l1.59-3.03l1.87,0.99
		L22.87,75.93z"/>
	<path class="st0" d="M18.47,73.53l-1.21-0.88c-0.81-0.59-1.33-1.02-1.57-1.29c-0.24-0.27-0.36-0.6-0.35-0.99
		c0.01-0.39,0.21-0.86,0.62-1.42c0.37-0.51,0.69-0.81,0.94-0.89c0.26-0.08,0.58-0.01,0.98,0.23c-0.28-0.33-0.42-0.61-0.44-0.83
		c-0.01-0.23,0.01-0.41,0.06-0.55s0.28-0.47,0.67-1l1.26-1.74l1.59,1.16l-1.59,2.19c-0.26,0.35-0.39,0.59-0.39,0.72
		c-0.01,0.13,0.11,0.27,0.35,0.44l2.16-2.97l1.71,1.24L18.47,73.53z M17.58,71.16l1.06-1.46c-0.19-0.14-0.35-0.21-0.46-0.21
		s-0.28,0.14-0.49,0.43l-0.26,0.36c-0.15,0.21-0.21,0.37-0.19,0.49S17.38,71.01,17.58,71.16z"/>
	<path class="st0" d="M13.22,62.72c0.58-0.57,1.01-0.96,1.28-1.18c0.27-0.21,0.58-0.34,0.92-0.4c0.34-0.05,0.69-0.01,1.04,0.13
		s0.69,0.38,1.01,0.7c0.31,0.31,0.53,0.64,0.67,0.99c0.14,0.35,0.18,0.7,0.13,1.05c-0.06,0.35-0.19,0.66-0.4,0.92
		s-0.62,0.69-1.21,1.28l-0.99,0.98c-0.58,0.57-1.01,0.96-1.28,1.18c-0.27,0.21-0.58,0.34-0.92,0.4c-0.34,0.05-0.69,0.01-1.04-0.13
		s-0.69-0.38-1.01-0.7c-0.31-0.31-0.53-0.64-0.67-0.99s-0.18-0.7-0.13-1.05c0.06-0.35,0.19-0.66,0.4-0.92s0.62-0.69,1.21-1.28
		L13.22,62.72z M12.8,66.11c-0.27,0.27-0.43,0.45-0.47,0.55c-0.05,0.1-0.02,0.2,0.07,0.3c0.08,0.08,0.17,0.11,0.27,0.09
		c0.1-0.02,0.3-0.17,0.6-0.47l2.71-2.66c0.34-0.33,0.53-0.55,0.58-0.65c0.05-0.11,0.03-0.21-0.07-0.31c-0.1-0.1-0.21-0.12-0.33-0.06
		s-0.35,0.26-0.69,0.59L12.8,66.11z"/>
	<path class="st0" d="M8.1,59.56l1.13,1.61l-0.49,0.35c-0.23,0.16-0.36,0.29-0.4,0.37c-0.03,0.09-0.02,0.18,0.05,0.27
		c0.07,0.1,0.17,0.15,0.29,0.15c0.12-0.01,0.27-0.07,0.44-0.19c0.22-0.16,0.37-0.3,0.44-0.44c0.07-0.14,0.09-0.4,0.06-0.78
		c-0.08-1.09-0.05-1.84,0.1-2.25c0.15-0.41,0.55-0.84,1.21-1.3c0.47-0.33,0.86-0.52,1.17-0.57c0.3-0.05,0.64,0.04,1.02,0.25
		c0.38,0.21,0.71,0.53,1.01,0.95c0.33,0.46,0.52,0.92,0.57,1.37s-0.02,0.82-0.22,1.12c-0.2,0.29-0.55,0.61-1.05,0.97L13,61.73
		l-1.13-1.61l0.81-0.57c0.25-0.17,0.39-0.31,0.43-0.41c0.04-0.1,0.02-0.2-0.06-0.32s-0.19-0.17-0.32-0.16
		c-0.13,0.01-0.28,0.07-0.46,0.2c-0.39,0.28-0.61,0.51-0.66,0.7c-0.04,0.2-0.05,0.61-0.03,1.24c0.02,0.63,0.01,1.06-0.02,1.29
		c-0.03,0.23-0.13,0.47-0.29,0.72c-0.16,0.25-0.42,0.5-0.77,0.75c-0.51,0.36-0.93,0.56-1.26,0.59s-0.66-0.04-1-0.24
		c-0.34-0.2-0.65-0.5-0.94-0.91c-0.32-0.45-0.51-0.88-0.59-1.3s-0.04-0.76,0.11-1.02c0.15-0.26,0.49-0.57,1.02-0.95L8.1,59.56z"/>
	<path class="st0" d="M3.27,55.6l1.46-0.73l0.56,1.13l5.83-2.91l0.95,1.89l-5.83,2.91l0.56,1.12l-1.46,0.73L3.27,55.6z"/>
	<path class="st0" d="M1.5,50.31l6.26-1.79l-0.35-1.24l1.57-0.45l0.94,3.27l-7.83,2.24L1.5,50.31z"/>
	<path class="st0" d="M0.56,45.85l8.02-1.42l0.37,2.08l-8.02,1.42L0.56,45.85z"/>
	<path class="st0" d="M3.05,39.19l0.1,2.12l-0.74,0.03c-0.47,0.02-0.76,0.06-0.87,0.1c-0.12,0.05-0.17,0.14-0.16,0.29
		c0.01,0.13,0.06,0.22,0.16,0.26c0.1,0.04,0.36,0.05,0.78,0.03l3.9-0.18c0.37-0.02,0.6-0.05,0.72-0.1s0.17-0.15,0.16-0.29
		c-0.01-0.15-0.08-0.26-0.21-0.31C6.76,41.1,6.5,41.09,6.12,41.1l-0.96,0.04l0.02,0.43l-1.24,0.06l-0.11-2.48l4.37-0.2l0.06,1.33
		l-0.57,0.22c0.26,0.13,0.45,0.31,0.59,0.52c0.14,0.21,0.21,0.47,0.22,0.77c0.02,0.36-0.05,0.69-0.21,1.01
		c-0.16,0.32-0.36,0.56-0.61,0.74c-0.25,0.17-0.51,0.29-0.79,0.34S6.19,43.97,5.63,44l-2.42,0.11c-0.78,0.04-1.34,0.02-1.7-0.05
		c-0.36-0.07-0.69-0.29-1-0.68C0.2,43,0.03,42.49,0,41.86c-0.03-0.62,0.08-1.14,0.31-1.56c0.24-0.42,0.53-0.7,0.87-0.84
		c0.34-0.14,0.85-0.23,1.52-0.26L3.05,39.19z"/>
	<path class="st0" d="M0.73,32.6l8.08,1l-0.26,2.1l-3.39-0.42l-0.08,0.63l3.39,0.42l-0.26,2.1l-8.08-0.99l0.26-2.1l2.89,0.36
		l0.08-0.63L0.47,34.7L0.73,32.6z"/>
	<path class="st0" d="M2.31,26.68l1.57,0.45l-0.35,1.21l6.26,1.8l-0.58,2.03l-6.26-1.8l-0.35,1.2l-1.57-0.45L2.31,26.68z"/>
	<path class="st0" d="M7.94,20.52l-0.92,1.74l-0.53-0.28c-0.25-0.13-0.42-0.19-0.51-0.18s-0.17,0.06-0.22,0.17
		c-0.06,0.11-0.06,0.22,0,0.33s0.19,0.21,0.37,0.31c0.24,0.13,0.44,0.19,0.59,0.19c0.15,0,0.39-0.1,0.72-0.3
		c0.94-0.57,1.62-0.88,2.05-0.93s1,0.11,1.71,0.48c0.51,0.27,0.86,0.53,1.04,0.78c0.18,0.25,0.26,0.59,0.24,1.02
		c-0.02,0.43-0.15,0.88-0.39,1.33c-0.26,0.5-0.58,0.88-0.96,1.13c-0.38,0.25-0.74,0.36-1.09,0.31c-0.35-0.04-0.8-0.21-1.34-0.49
		l-0.47-0.25l0.92-1.74l0.88,0.46c0.27,0.14,0.46,0.21,0.56,0.2c0.1-0.01,0.19-0.07,0.25-0.2c0.07-0.12,0.07-0.24,0-0.35
		c-0.07-0.11-0.19-0.22-0.39-0.32c-0.42-0.22-0.73-0.31-0.92-0.27c-0.19,0.05-0.56,0.23-1.12,0.53c-0.55,0.3-0.94,0.49-1.16,0.57
		s-0.48,0.1-0.78,0.07c-0.3-0.03-0.64-0.15-1.02-0.35c-0.55-0.29-0.92-0.57-1.1-0.85c-0.18-0.28-0.26-0.61-0.24-1
		s0.15-0.81,0.39-1.25c0.26-0.49,0.55-0.86,0.89-1.12s0.66-0.38,0.95-0.37c0.3,0.01,0.73,0.17,1.3,0.48L7.94,20.52z"/>
	<path class="st0" d="M9.66,13.95L14,17.24c0.49,0.37,0.82,0.65,1,0.83s0.31,0.43,0.4,0.75c0.09,0.32,0.09,0.65,0,0.98
		c-0.09,0.34-0.26,0.68-0.53,1.03c-0.29,0.39-0.62,0.68-0.97,0.88c-0.35,0.2-0.69,0.29-1.01,0.29c-0.32-0.01-0.6-0.09-0.85-0.23
		c-0.25-0.15-0.74-0.5-1.47-1.05l-3.84-2.91l1.28-1.69l4.86,3.69c0.28,0.21,0.48,0.34,0.58,0.37c0.1,0.03,0.19,0,0.26-0.1
		c0.08-0.11,0.09-0.21,0.03-0.31s-0.26-0.27-0.58-0.51l-4.78-3.63L9.66,13.95z"/>
	<path class="st0" d="M16.52,11.41l-1.54,1.45l-0.51-0.54c-0.32-0.34-0.53-0.54-0.64-0.6c-0.11-0.06-0.22-0.04-0.33,0.07
		c-0.1,0.09-0.13,0.19-0.09,0.29s0.19,0.31,0.48,0.61l2.68,2.85c0.25,0.27,0.43,0.43,0.55,0.48c0.11,0.05,0.22,0.03,0.32-0.07
		c0.11-0.11,0.14-0.23,0.09-0.36c-0.05-0.13-0.2-0.34-0.46-0.61l-0.66-0.7l-0.31,0.29l-0.85-0.9l1.81-1.7l2.99,3.19l-0.97,0.91
		l-0.54-0.29c0.07,0.28,0.06,0.54-0.01,0.79c-0.07,0.24-0.22,0.47-0.44,0.67c-0.26,0.24-0.56,0.41-0.91,0.5
		c-0.34,0.09-0.66,0.09-0.95,0.02c-0.29-0.08-0.55-0.2-0.77-0.38c-0.22-0.18-0.52-0.47-0.91-0.88l-1.66-1.76
		c-0.53-0.57-0.89-1.01-1.07-1.32c-0.18-0.31-0.23-0.71-0.14-1.2s0.36-0.94,0.82-1.38c0.45-0.42,0.91-0.68,1.39-0.78
		c0.47-0.09,0.87-0.06,1.2,0.11c0.33,0.17,0.72,0.5,1.18,0.99L16.52,11.41z"/>
	<path class="st0" d="M18.99,6.03l5.54,6.09l-1.8,1.21l-0.91-1.15l-0.63,0.42l0.71,1.29l-1.82,1.22l-3.64-7.36L18.99,6.03z
		 M20.98,11c-0.6-0.71-1.33-1.59-2.17-2.66c0.69,1.41,1.21,2.44,1.57,3.07L20.98,11z"/>
	<path class="st0" d="M21.22,4.7l1.36-0.62c0.91-0.42,1.54-0.66,1.89-0.74s0.7-0.02,1.03,0.18c0.33,0.19,0.65,0.61,0.94,1.24
		c0.26,0.58,0.37,1,0.32,1.26c-0.05,0.26-0.28,0.51-0.68,0.74c0.42-0.08,0.74-0.07,0.94,0.03c0.2,0.1,0.35,0.21,0.44,0.32
		c0.09,0.12,0.28,0.48,0.55,1.07l0.9,1.95l-1.79,0.82L26,8.49c-0.18-0.4-0.33-0.63-0.43-0.69c-0.11-0.07-0.29-0.04-0.56,0.08
		l1.53,3.34l-1.92,0.88L21.22,4.7z M23.73,5.08l0.75,1.65c0.22-0.1,0.35-0.2,0.41-0.3s0.01-0.31-0.13-0.64l-0.19-0.41
		c-0.11-0.23-0.22-0.37-0.34-0.4C24.12,4.95,23.95,4.98,23.73,5.08z"/>
</g>
</svg>
