<?xml version="1.0" encoding="utf-8"?>
<!-- Generator: Adobe Illustrator 23.1.0, SVG Export Plug-In . SVG Version: 6.00 Build 0)  -->
<svg version="1.1" id="Layer_1" xmlns="http://www.w3.org/2000/svg" xmlns:xlink="http://www.w3.org/1999/xlink" x="0px" y="0px"
	 viewBox="0 0 130.99 129.74" style="enable-background:new 0 0 130.99 129.74;" xml:space="preserve">
<style type="text/css">
	.st0{fill:#FFFFFF;}
</style>
<g>
	<path class="st0" d="M74.76,8.88L70.9,8.57l0.2-2.54c0.06-0.74,0.05-1.21-0.01-1.4s-0.24-0.3-0.52-0.32
		c-0.32-0.03-0.53,0.07-0.63,0.29c-0.1,0.22-0.18,0.69-0.24,1.44l-0.54,6.8c-0.06,0.71-0.05,1.18,0.02,1.4
		c0.07,0.22,0.25,0.35,0.55,0.37c0.29,0.02,0.48-0.07,0.59-0.28s0.19-0.72,0.25-1.52l0.15-1.84l3.86,0.31l-0.05,0.57
		c-0.12,1.52-0.32,2.58-0.58,3.2c-0.27,0.62-0.79,1.13-1.57,1.55c-0.78,0.42-1.71,0.58-2.8,0.5c-1.13-0.09-2.05-0.37-2.75-0.83
		s-1.14-1.06-1.32-1.79c-0.18-0.73-0.21-1.82-0.1-3.25l0.34-4.28c0.08-1.05,0.18-1.84,0.3-2.36c0.12-0.52,0.37-1.01,0.78-1.47
		c0.4-0.46,0.94-0.8,1.6-1.03s1.42-0.31,2.26-0.24c1.14,0.09,2.06,0.38,2.76,0.87c0.7,0.49,1.15,1.07,1.33,1.74
		c0.18,0.67,0.22,1.68,0.11,3.05L74.76,8.88z"/>
	<path class="st0" d="M85,13.85c-0.4,1.42-0.72,2.42-0.96,2.99s-0.6,1.05-1.1,1.44s-1.08,0.63-1.77,0.72s-1.43,0.02-2.23-0.21
		c-0.77-0.22-1.42-0.54-1.96-0.96c-0.54-0.42-0.93-0.93-1.16-1.53c-0.23-0.6-0.3-1.2-0.21-1.8c0.09-0.6,0.35-1.63,0.76-3.08
		l0.68-2.42c0.4-1.42,0.72-2.42,0.96-2.99c0.23-0.57,0.6-1.05,1.1-1.44c0.5-0.39,1.08-0.63,1.77-0.72s1.43-0.02,2.23,0.21
		c0.77,0.22,1.42,0.54,1.96,0.96c0.54,0.42,0.93,0.93,1.16,1.53c0.23,0.6,0.3,1.2,0.21,1.8c-0.09,0.6-0.35,1.63-0.76,3.08L85,13.85z
		 M82.59,8.15c0.19-0.66,0.27-1.09,0.25-1.29c-0.02-0.2-0.15-0.34-0.38-0.4c-0.19-0.05-0.36-0.02-0.51,0.1
		c-0.15,0.12-0.32,0.54-0.53,1.27l-1.87,6.6c-0.23,0.82-0.34,1.34-0.33,1.55c0.01,0.21,0.14,0.35,0.39,0.42
		c0.25,0.07,0.45,0.01,0.58-0.19s0.32-0.72,0.55-1.55L82.59,8.15z"/>
	<path class="st0" d="M90.75,6.93l2.44,1.24c1.63,0.83,2.7,1.45,3.21,1.87s0.82,0.97,0.93,1.67c0.1,0.69-0.13,1.6-0.7,2.71
		c-0.52,1.02-1,1.64-1.43,1.86s-1.05,0.17-1.84-0.14c0.6,0.51,0.94,0.97,1.04,1.37c0.09,0.4,0.11,0.73,0.05,1s-0.36,0.92-0.9,1.98
		l-1.76,3.45l-3.2-1.63l2.21-4.35c0.36-0.7,0.52-1.16,0.49-1.39c-0.03-0.22-0.28-0.46-0.75-0.7l-3,5.9l-3.45-1.76L90.75,6.93z
		 M93.06,10.92l-1.48,2.91c0.39,0.2,0.69,0.28,0.9,0.26c0.21-0.03,0.46-0.33,0.75-0.9l0.37-0.72c0.21-0.42,0.27-0.73,0.19-0.93
		C93.7,11.33,93.46,11.13,93.06,10.92z"/>
	<path class="st0" d="M108.38,18.17l-9.06,11.56l-2.67-2.09l2.53-6.5l-4.12,5.25l-2.55-2l9.06-11.56l2.55,2l-2.37,6.54l4.08-5.21
		L108.38,18.17z"/>
	<path class="st0" d="M113.6,23.57l4.09,5.13l-2.3,1.83l-1.67-2.1l-2.18,1.74l1.49,1.87l-2.18,1.74l-1.49-1.87l-4.82,3.85
		l-2.41-3.03L113.6,23.57z"/>
	<path class="st0" d="M119.34,31.06l1.32,2.4c0.88,1.6,1.41,2.72,1.6,3.35c0.19,0.63,0.13,1.27-0.17,1.9c-0.3,0.63-1,1.25-2.1,1.85
		c-1,0.55-1.74,0.79-2.23,0.73c-0.48-0.06-0.96-0.45-1.44-1.15c0.2,0.76,0.23,1.33,0.08,1.72c-0.15,0.38-0.32,0.67-0.52,0.85
		c-0.2,0.18-0.82,0.56-1.86,1.13l-3.39,1.87l-1.73-3.15l4.28-2.35c0.69-0.38,1.08-0.67,1.19-0.87c0.1-0.2,0.03-0.53-0.23-1
		l-5.8,3.19l-1.86-3.39L119.34,31.06z M119.01,35.66l-2.86,1.57c0.21,0.38,0.41,0.62,0.6,0.72s0.57-0.01,1.13-0.32l0.71-0.39
		c0.41-0.22,0.63-0.45,0.68-0.66S119.22,36.06,119.01,35.66z"/>
	<path class="st0" d="M119.42,53.12c-1.41,0.44-2.42,0.72-3.02,0.83c-0.61,0.12-1.21,0.07-1.8-0.13c-0.6-0.2-1.12-0.57-1.56-1.09
		c-0.45-0.52-0.8-1.18-1.05-1.99c-0.24-0.76-0.33-1.48-0.27-2.16c0.06-0.68,0.27-1.28,0.65-1.81c0.38-0.52,0.84-0.91,1.4-1.16
		c0.56-0.25,1.56-0.6,3-1.05l2.4-0.75c1.41-0.44,2.42-0.72,3.02-0.83c0.61-0.12,1.21-0.07,1.8,0.13c0.6,0.2,1.12,0.57,1.56,1.09
		c0.45,0.52,0.8,1.18,1.05,1.99c0.24,0.76,0.33,1.48,0.27,2.16c-0.06,0.68-0.27,1.28-0.65,1.81c-0.38,0.52-0.84,0.91-1.4,1.16
		c-0.56,0.25-1.55,0.6-3,1.05L119.42,53.12z M122.87,47.99c0.65-0.2,1.06-0.37,1.22-0.5s0.2-0.31,0.13-0.54
		c-0.06-0.19-0.18-0.32-0.36-0.37c-0.18-0.06-0.63,0.03-1.35,0.25l-6.55,2.04c-0.81,0.25-1.31,0.44-1.47,0.57
		c-0.17,0.13-0.22,0.31-0.14,0.56c0.08,0.25,0.24,0.38,0.48,0.38s0.77-0.13,1.6-0.38L122.87,47.99z"/>
	<path class="st0" d="M124.78,62.81l-0.38-3.58l1.08-0.11c0.5-0.05,0.82-0.13,0.95-0.24c0.13-0.11,0.18-0.27,0.16-0.48
		c-0.03-0.23-0.14-0.4-0.34-0.5s-0.49-0.13-0.87-0.09c-0.49,0.05-0.85,0.16-1.08,0.32c-0.23,0.15-0.49,0.55-0.78,1.18
		c-0.82,1.82-1.53,2.99-2.13,3.5c-0.6,0.51-1.61,0.85-3.04,1c-1.04,0.11-1.82,0.07-2.34-0.13c-0.52-0.19-0.98-0.63-1.39-1.3
		c-0.41-0.67-0.66-1.48-0.76-2.42c-0.11-1.03-0.01-1.93,0.3-2.7c0.31-0.77,0.75-1.3,1.32-1.59s1.4-0.49,2.5-0.61l0.96-0.1l0.38,3.58
		l-1.78,0.19c-0.55,0.06-0.89,0.15-1.04,0.26c-0.15,0.12-0.21,0.3-0.18,0.56c0.03,0.26,0.15,0.44,0.36,0.54
		c0.21,0.1,0.51,0.14,0.9,0.09c0.86-0.09,1.41-0.27,1.65-0.54c0.24-0.27,0.62-0.92,1.14-1.94c0.52-1.02,0.91-1.71,1.16-2.05
		s0.61-0.64,1.09-0.9c0.48-0.26,1.1-0.43,1.88-0.51c1.12-0.12,1.95-0.06,2.5,0.17s1,0.66,1.36,1.28c0.36,0.62,0.59,1.38,0.68,2.29
		c0.11,1,0.04,1.87-0.21,2.61s-0.6,1.25-1.06,1.53c-0.46,0.28-1.27,0.48-2.43,0.6L124.78,62.81z"/>
	<path class="st0" d="M128.64,73.68l-2.93-0.21l0.17-2.29l-11.72-0.86l0.28-3.86l11.72,0.86l0.17-2.28l2.93,0.21L128.64,73.68z"/>
	<path class="st0" d="M118.31,87.14l1.24-3.67l2.42,0.82c0.7,0.24,1.15,0.35,1.36,0.33s0.35-0.16,0.44-0.43
		c0.1-0.3,0.06-0.53-0.12-0.68c-0.18-0.15-0.63-0.35-1.33-0.59l-6.46-2.18c-0.68-0.23-1.13-0.34-1.37-0.33
		c-0.23,0.01-0.4,0.16-0.49,0.44c-0.09,0.27-0.05,0.49,0.13,0.64c0.18,0.15,0.65,0.36,1.41,0.62l1.75,0.59l-1.24,3.67l-0.54-0.18
		c-1.44-0.49-2.43-0.94-2.96-1.34c-0.53-0.41-0.91-1.04-1.12-1.9s-0.15-1.81,0.2-2.84c0.36-1.07,0.85-1.9,1.47-2.46
		s1.31-0.85,2.06-0.85c0.75,0,1.81,0.23,3.18,0.7l4.06,1.37c1,0.34,1.74,0.63,2.22,0.87c0.48,0.24,0.89,0.61,1.24,1.11
		c0.35,0.5,0.55,1.1,0.61,1.81s-0.04,1.45-0.31,2.25c-0.37,1.08-0.87,1.9-1.52,2.47s-1.32,0.85-2.01,0.86
		c-0.69,0.01-1.68-0.2-2.98-0.64L118.31,87.14z"/>
	<path class="st0" d="M110.93,95.85c-1.27-0.74-2.16-1.3-2.65-1.67c-0.49-0.37-0.87-0.84-1.12-1.42c-0.25-0.58-0.34-1.21-0.25-1.89
		c0.08-0.68,0.34-1.39,0.76-2.11c0.4-0.69,0.87-1.24,1.42-1.66c0.54-0.42,1.13-0.66,1.77-0.74c0.64-0.07,1.24,0.01,1.8,0.25
		c0.56,0.24,1.49,0.74,2.8,1.51l2.17,1.27c1.27,0.74,2.16,1.3,2.65,1.67c0.49,0.37,0.87,0.84,1.12,1.42
		c0.25,0.58,0.34,1.21,0.25,1.89c-0.08,0.68-0.34,1.39-0.76,2.11c-0.4,0.69-0.87,1.24-1.42,1.66c-0.54,0.42-1.13,0.66-1.77,0.74
		c-0.64,0.07-1.24-0.01-1.8-0.25c-0.56-0.24-1.49-0.74-2.8-1.51L110.93,95.85z M117.05,94.94c0.59,0.34,0.99,0.53,1.19,0.56
		s0.36-0.06,0.49-0.27c0.1-0.17,0.11-0.35,0.03-0.52s-0.45-0.45-1.1-0.83l-5.92-3.46c-0.74-0.43-1.21-0.66-1.42-0.7
		c-0.21-0.04-0.38,0.05-0.51,0.27c-0.13,0.23-0.12,0.43,0.04,0.61c0.16,0.18,0.62,0.49,1.36,0.92L117.05,94.94z"/>
	<path class="st0" d="M116.17,103.16l-1.82,2.05c-1.21,1.37-2.09,2.25-2.62,2.64c-0.53,0.39-1.15,0.55-1.85,0.48
		c-0.7-0.07-1.52-0.53-2.45-1.36c-0.85-0.76-1.33-1.38-1.44-1.85c-0.1-0.48,0.1-1.06,0.6-1.74c-0.65,0.45-1.18,0.67-1.59,0.66
		c-0.41-0.01-0.73-0.08-0.97-0.21c-0.24-0.13-0.8-0.58-1.69-1.37l-2.9-2.57l2.39-2.69l3.65,3.24c0.59,0.52,0.99,0.8,1.22,0.83
		s0.51-0.15,0.87-0.55l-4.95-4.4l2.57-2.9L116.17,103.16z M111.72,104.39l-2.44-2.17c-0.29,0.33-0.45,0.59-0.48,0.8
		c-0.03,0.21,0.2,0.53,0.68,0.96l0.6,0.54c0.35,0.31,0.63,0.45,0.85,0.42C111.17,104.91,111.43,104.73,111.72,104.39z"/>
	<path class="st0" d="M100.83,117.39l-8.89-11.69l2.7-2.05l5.65,4.09l-4.04-5.31l2.58-1.96l8.89,11.69l-2.58,1.96l-5.73-3.95l4,5.26
		L100.83,117.39z"/>
	<path class="st0" d="M94.31,121.07l-5.99,2.67l-1.2-2.68l2.45-1.09l-1.13-2.54l-2.18,0.97l-1.14-2.55l2.18-0.97l-2.51-5.64
		l3.54-1.57L94.31,121.07z"/>
	<path class="st0" d="M85.62,124.74l-2.65,0.68c-1.77,0.45-2.99,0.69-3.65,0.72s-1.26-0.19-1.8-0.64c-0.54-0.45-0.96-1.29-1.27-2.5
		c-0.28-1.11-0.33-1.89-0.15-2.34c0.18-0.45,0.67-0.82,1.47-1.11c-0.79,0.01-1.35-0.11-1.68-0.35c-0.33-0.24-0.56-0.48-0.69-0.72
		s-0.34-0.93-0.63-2.08l-0.96-3.75l3.48-0.89l1.21,4.73c0.19,0.76,0.38,1.22,0.54,1.37s0.51,0.16,1.03,0.03l-1.64-6.42l3.75-0.96
		L85.62,124.74z M81.25,123.26l-0.81-3.16c-0.42,0.11-0.7,0.24-0.84,0.4s-0.13,0.55,0.03,1.18l0.2,0.78
		c0.12,0.45,0.27,0.73,0.47,0.83C80.5,123.38,80.81,123.38,81.25,123.26z"/>
	<path class="st0" d="M64.27,119.36c-0.08-1.47-0.11-2.52-0.07-3.13c0.04-0.62,0.22-1.19,0.57-1.72s0.82-0.95,1.43-1.25
		s1.34-0.49,2.18-0.53c0.8-0.05,1.52,0.04,2.17,0.26c0.65,0.22,1.18,0.58,1.59,1.07c0.41,0.49,0.68,1.04,0.78,1.64
		c0.11,0.6,0.21,1.65,0.29,3.16l0.14,2.51c0.08,1.47,0.11,2.52,0.07,3.14c-0.04,0.62-0.22,1.19-0.56,1.72s-0.82,0.95-1.43,1.25
		c-0.61,0.31-1.34,0.49-2.18,0.53c-0.8,0.04-1.52-0.04-2.17-0.26c-0.65-0.22-1.18-0.58-1.59-1.07c-0.42-0.49-0.68-1.04-0.78-1.64
		s-0.21-1.65-0.29-3.16L64.27,119.36z M68.41,123.96c0.04,0.68,0.1,1.12,0.19,1.3c0.09,0.19,0.25,0.27,0.49,0.26
		c0.2-0.01,0.35-0.1,0.45-0.26s0.13-0.62,0.08-1.37l-0.39-6.85c-0.05-0.85-0.11-1.37-0.2-1.57c-0.08-0.2-0.25-0.29-0.51-0.27
		c-0.26,0.02-0.42,0.14-0.49,0.37c-0.06,0.23-0.07,0.78-0.02,1.65L68.41,123.96z"/>
	<path class="st0" d="M53.63,122.31l3.56,0.47l-0.14,1.08c-0.07,0.5-0.06,0.83,0.01,0.98c0.07,0.15,0.22,0.24,0.43,0.27
		c0.23,0.03,0.42-0.04,0.56-0.21s0.24-0.44,0.29-0.82c0.06-0.49,0.04-0.86-0.06-1.13c-0.09-0.26-0.42-0.61-0.97-1.03
		c-1.58-1.22-2.55-2.19-2.91-2.89c-0.36-0.7-0.45-1.76-0.26-3.19c0.14-1.04,0.36-1.79,0.67-2.25c0.31-0.46,0.84-0.81,1.59-1.05
		c0.75-0.24,1.59-0.3,2.53-0.18c1.03,0.13,1.88,0.44,2.55,0.92c0.68,0.48,1.09,1.03,1.23,1.65s0.15,1.48,0.01,2.57l-0.13,0.95
		L59.04,118l0.23-1.77c0.07-0.55,0.07-0.9-0.01-1.07s-0.25-0.27-0.5-0.3c-0.25-0.03-0.46,0.04-0.61,0.22s-0.25,0.47-0.3,0.86
		c-0.11,0.86-0.07,1.43,0.14,1.73c0.21,0.3,0.75,0.82,1.62,1.56c0.87,0.75,1.45,1.28,1.72,1.61s0.48,0.75,0.62,1.27
		c0.14,0.52,0.16,1.17,0.06,1.95c-0.15,1.12-0.4,1.91-0.75,2.39c-0.36,0.48-0.88,0.82-1.56,1.03c-0.68,0.21-1.48,0.25-2.39,0.13
		c-1-0.13-1.83-0.4-2.49-0.81c-0.66-0.41-1.07-0.87-1.24-1.38c-0.16-0.51-0.17-1.35-0.02-2.5L53.63,122.31z"/>
	<path class="st0" d="M42.18,123.57l0.88-2.8l2.19,0.69l3.53-11.2l3.69,1.16l-3.53,11.2l2.18,0.69l-0.88,2.8L42.18,123.57z"/>
	<path class="st0" d="M31.46,110.51l3.3,2.03l-1.34,2.17c-0.39,0.63-0.6,1.05-0.62,1.25s0.08,0.37,0.32,0.52
		c0.27,0.17,0.5,0.18,0.69,0.03c0.19-0.15,0.48-0.54,0.87-1.17l3.57-5.81c0.37-0.61,0.58-1.03,0.62-1.26
		c0.04-0.23-0.07-0.42-0.32-0.58c-0.25-0.15-0.46-0.16-0.65-0.02c-0.19,0.14-0.5,0.55-0.92,1.24l-0.97,1.57l-3.3-2.03l0.3-0.49
		c0.8-1.3,1.45-2.16,1.97-2.58c0.52-0.43,1.22-0.65,2.11-0.67c0.88-0.02,1.79,0.26,2.72,0.83c0.97,0.59,1.66,1.26,2.07,1.99
		c0.41,0.73,0.54,1.46,0.36,2.2s-0.63,1.72-1.39,2.94l-2.25,3.66c-0.55,0.9-1,1.56-1.34,1.97c-0.34,0.41-0.79,0.73-1.36,0.96
		c-0.57,0.23-1.2,0.29-1.9,0.19s-1.41-0.37-2.12-0.81c-0.97-0.6-1.66-1.27-2.06-2.03s-0.54-1.48-0.39-2.15
		c0.14-0.67,0.57-1.6,1.29-2.76L31.46,110.51z"/>
	<path class="st0" d="M24.59,101.42c1-1.08,1.74-1.82,2.21-2.22s1.01-0.66,1.63-0.78c0.62-0.12,1.25-0.06,1.9,0.17
		c0.65,0.23,1.28,0.63,1.9,1.2c0.58,0.54,1.02,1.12,1.31,1.74c0.29,0.62,0.4,1.25,0.33,1.89c-0.07,0.64-0.28,1.21-0.64,1.7
		c-0.36,0.49-1.05,1.29-2.08,2.4l-1.71,1.84c-1,1.08-1.74,1.82-2.21,2.22c-0.47,0.4-1.01,0.66-1.63,0.78
		c-0.62,0.12-1.25,0.07-1.9-0.17c-0.65-0.23-1.28-0.63-1.89-1.2c-0.58-0.54-1.02-1.12-1.31-1.74s-0.4-1.25-0.33-1.89
		c0.07-0.64,0.28-1.21,0.64-1.7c0.36-0.49,1.05-1.29,2.08-2.4L24.59,101.42z M24.14,107.59c-0.46,0.5-0.73,0.85-0.81,1.04
		c-0.07,0.19-0.02,0.37,0.15,0.53c0.15,0.14,0.31,0.19,0.5,0.15c0.18-0.04,0.53-0.34,1.05-0.89l4.67-5.02
		c0.58-0.63,0.91-1.03,1-1.23c0.08-0.19,0.03-0.38-0.16-0.55c-0.19-0.18-0.39-0.21-0.6-0.09c-0.21,0.12-0.61,0.49-1.2,1.13
		L24.14,107.59z"/>
	<path class="st0" d="M16.31,104.95l-1.61-2.22c-1.07-1.48-1.74-2.52-2-3.13s-0.29-1.24-0.06-1.91s0.84-1.36,1.86-2.1
		c0.93-0.67,1.63-1,2.12-1c0.49,0,1.01,0.32,1.57,0.96c-0.3-0.73-0.4-1.29-0.29-1.69c0.1-0.4,0.24-0.7,0.41-0.91
		c0.18-0.21,0.74-0.66,1.7-1.35l3.14-2.27l2.11,2.91l-3.95,2.86c-0.64,0.46-0.99,0.8-1.07,1.01c-0.08,0.21,0.04,0.53,0.35,0.97
		l5.37-3.88l2.27,3.14L16.31,104.95z M16.07,100.34l2.65-1.91c-0.25-0.35-0.48-0.57-0.68-0.64s-0.56,0.08-1.08,0.46l-0.65,0.47
		c-0.38,0.27-0.58,0.52-0.59,0.74C15.69,99.68,15.81,99.97,16.07,100.34z"/>
	<path class="st0" d="M5.77,86.85l13.36-6.1l1.41,3.09l-5.24,4.61l6.07-2.77l1.35,2.94l-13.36,6.1l-1.34-2.94l5.11-4.72l-6.01,2.75
		L5.77,86.85z"/>
	<path class="st0" d="M3.61,79.58l-1.23-6.44l2.89-0.55l0.51,2.64L8.5,74.7l-0.45-2.35l2.74-0.53l0.45,2.35l6.06-1.16l0.73,3.8
		L3.61,79.58z"/>
	<path class="st0" d="M2.02,70.26l-0.05-2.74c-0.03-1.83,0.02-3.06,0.14-3.71s0.47-1.18,1.04-1.6s1.47-0.64,2.72-0.66
		c1.14-0.02,1.91,0.11,2.31,0.39s0.64,0.84,0.74,1.69c0.17-0.77,0.42-1.29,0.73-1.56s0.6-0.44,0.86-0.51
		c0.26-0.07,0.99-0.11,2.17-0.13l3.87-0.07l0.06,3.59l-4.88,0.08c-0.79,0.01-1.27,0.08-1.46,0.21c-0.19,0.13-0.27,0.46-0.26,0.99
		l6.62-0.11L16.7,70L2.02,70.26z M4.47,66.34l3.27-0.06c-0.01-0.44-0.07-0.74-0.19-0.91c-0.12-0.17-0.5-0.25-1.15-0.24l-0.81,0.01
		c-0.47,0.01-0.77,0.1-0.91,0.27C4.52,65.59,4.46,65.9,4.47,66.34z"/>
	<path class="st0" d="M12.23,50.72c1.45,0.27,2.47,0.49,3.06,0.67s1.1,0.5,1.54,0.95c0.43,0.46,0.73,1.02,0.88,1.69
		c0.15,0.67,0.15,1.42,0,2.24c-0.14,0.78-0.4,1.46-0.77,2.04s-0.84,1.01-1.41,1.3c-0.58,0.29-1.17,0.41-1.77,0.38
		c-0.61-0.04-1.66-0.19-3.14-0.46l-2.47-0.45c-1.45-0.27-2.47-0.49-3.06-0.67c-0.59-0.18-1.1-0.5-1.54-0.96
		c-0.43-0.46-0.73-1.02-0.88-1.69c-0.15-0.67-0.15-1.42,0-2.24c0.14-0.78,0.4-1.46,0.77-2.04s0.84-1.01,1.41-1.3
		C5.41,49.89,6,49.76,6.61,49.8c0.61,0.04,1.66,0.19,3.14,0.46L12.23,50.72z M6.78,53.65c-0.67-0.12-1.11-0.16-1.31-0.12
		s-0.32,0.18-0.37,0.41c-0.04,0.2,0.01,0.37,0.14,0.5s0.57,0.27,1.31,0.4l6.75,1.24c0.84,0.15,1.36,0.21,1.57,0.18
		c0.21-0.03,0.34-0.18,0.38-0.43c0.05-0.26-0.03-0.45-0.25-0.56s-0.74-0.25-1.6-0.4L6.78,53.65z"/>
	<path class="st0" d="M11.99,39.64l-1.33,3.34l-1.01-0.4c-0.47-0.19-0.79-0.26-0.95-0.23c-0.16,0.03-0.28,0.15-0.36,0.35
		c-0.09,0.22-0.06,0.42,0.07,0.6c0.13,0.18,0.37,0.34,0.73,0.48c0.46,0.18,0.82,0.26,1.1,0.22c0.28-0.03,0.69-0.26,1.24-0.68
		c1.57-1.23,2.75-1.93,3.51-2.11c0.77-0.18,1.82,0,3.16,0.53c0.97,0.39,1.64,0.79,2.01,1.2c0.37,0.41,0.58,1.01,0.63,1.8
		s-0.1,1.62-0.45,2.49c-0.38,0.96-0.89,1.71-1.52,2.25c-0.63,0.54-1.27,0.8-1.91,0.79c-0.64-0.01-1.47-0.22-2.49-0.63l-0.89-0.36
		l1.33-3.34l1.66,0.66c0.51,0.2,0.86,0.29,1.04,0.25c0.18-0.04,0.32-0.17,0.42-0.41s0.07-0.45-0.07-0.64
		c-0.14-0.19-0.39-0.36-0.76-0.5c-0.8-0.32-1.37-0.42-1.71-0.29c-0.34,0.13-0.97,0.53-1.91,1.19c-0.94,0.66-1.6,1.09-1.98,1.27
		c-0.38,0.19-0.84,0.28-1.38,0.29c-0.54,0.01-1.18-0.14-1.9-0.42c-1.05-0.42-1.76-0.85-2.13-1.32c-0.38-0.46-0.58-1.05-0.61-1.76
		c-0.03-0.71,0.12-1.5,0.46-2.35c0.37-0.93,0.84-1.67,1.4-2.21c0.56-0.54,1.11-0.83,1.65-0.86s1.35,0.17,2.43,0.6L11.99,39.64z"/>
	<path class="st0" d="M13.65,28.22l2.49,1.56l-1.22,1.95l9.96,6.23l-2.05,3.28l-9.96-6.23l-1.21,1.94l-2.49-1.56L13.65,28.22z"/>
	<path class="st0" d="M29.02,21.1l-2.79,2.68l-1.77-1.84c-0.51-0.54-0.86-0.84-1.05-0.92s-0.38-0.02-0.59,0.18
		c-0.23,0.22-0.3,0.44-0.21,0.66c0.09,0.22,0.4,0.6,0.91,1.14l4.72,4.92c0.49,0.51,0.85,0.82,1.06,0.92
		c0.21,0.1,0.43,0.04,0.64-0.17c0.21-0.2,0.27-0.41,0.18-0.63c-0.09-0.22-0.41-0.62-0.97-1.2l-1.28-1.33l2.79-2.68l0.4,0.41
		c1.05,1.1,1.72,1.95,2,2.56c0.28,0.61,0.32,1.34,0.12,2.21c-0.21,0.86-0.7,1.67-1.49,2.42c-0.82,0.79-1.63,1.29-2.44,1.5
		c-0.81,0.22-1.55,0.15-2.22-0.2c-0.67-0.35-1.5-1.05-2.5-2.09l-2.97-3.1c-0.73-0.76-1.26-1.36-1.57-1.79
		c-0.31-0.43-0.51-0.95-0.58-1.56c-0.08-0.61,0.02-1.23,0.29-1.88c0.27-0.65,0.71-1.27,1.32-1.85c0.82-0.79,1.65-1.28,2.49-1.48
		c0.84-0.2,1.56-0.15,2.18,0.16c0.62,0.31,1.4,0.96,2.35,1.94L29.02,21.1z"/>
	<path class="st0" d="M39.55,16.76c0.79,1.24,1.32,2.15,1.59,2.7c0.27,0.56,0.39,1.15,0.35,1.78c-0.04,0.63-0.25,1.23-0.64,1.79
		c-0.39,0.57-0.93,1.08-1.64,1.53c-0.67,0.43-1.35,0.7-2.02,0.83c-0.67,0.12-1.31,0.07-1.91-0.15c-0.6-0.23-1.1-0.57-1.48-1.05
		c-0.39-0.47-0.99-1.34-1.8-2.62l-1.35-2.12c-0.79-1.24-1.32-2.15-1.59-2.7c-0.27-0.56-0.39-1.15-0.35-1.77
		c0.04-0.63,0.25-1.23,0.64-1.79c0.39-0.57,0.93-1.08,1.64-1.53c0.67-0.43,1.34-0.7,2.02-0.83s1.31-0.07,1.91,0.15
		c0.6,0.23,1.1,0.57,1.48,1.04c0.39,0.47,0.99,1.34,1.8,2.62L39.55,16.76z M33.69,14.77c-0.37-0.58-0.63-0.92-0.8-1.04
		c-0.17-0.12-0.35-0.12-0.55,0.01c-0.17,0.11-0.26,0.26-0.27,0.44c-0.01,0.19,0.19,0.6,0.6,1.24l3.68,5.78
		c0.46,0.72,0.77,1.14,0.94,1.27c0.17,0.13,0.36,0.13,0.58-0.01c0.22-0.14,0.3-0.33,0.24-0.56c-0.06-0.23-0.32-0.71-0.79-1.44
		L33.69,14.77z"/>
	<path class="st0" d="M38.22,7.86l2.55-1c1.7-0.66,2.88-1.05,3.53-1.15c0.65-0.1,1.27,0.03,1.86,0.42c0.59,0.38,1.11,1.16,1.56,2.33
		c0.42,1.06,0.56,1.83,0.43,2.3c-0.13,0.47-0.57,0.9-1.33,1.28c0.78-0.1,1.35-0.06,1.71,0.14c0.36,0.2,0.62,0.41,0.77,0.63
		c0.16,0.22,0.45,0.88,0.88,1.99l1.41,3.61l-3.35,1.31l-1.77-4.55c-0.29-0.73-0.52-1.16-0.71-1.29c-0.19-0.13-0.53-0.1-1.02,0.1
		l2.41,6.17l-3.61,1.41L38.22,7.86z M42.74,8.79l1.19,3.04c0.41-0.16,0.67-0.32,0.79-0.5c0.12-0.17,0.06-0.56-0.17-1.16l-0.29-0.75
		c-0.17-0.43-0.36-0.69-0.57-0.76C43.47,8.59,43.16,8.63,42.74,8.79z"/>
	<path class="st0" d="M58.32,2.19l2.6,14.45l-3.34,0.6l-3.17-6.21l1.18,6.57l-3.19,0.57l-2.6-14.45L53,3.15l3.31,6.12l-1.17-6.51
		L58.32,2.19z"/>
</g>
</svg>
