<?xml version="1.0" encoding="utf-8"?>
<!-- Generator: Adobe Illustrator 23.1.0, SVG Export Plug-In . SVG Version: 6.00 Build 0)  -->
<svg version="1.1" id="Layer_1" xmlns="http://www.w3.org/2000/svg" xmlns:xlink="http://www.w3.org/1999/xlink" x="0px" y="0px"
	 viewBox="0 0 90 90" style="enable-background:new 0 0 90 90;" xml:space="preserve">
<style type="text/css">
	.st0{fill:#FFFFFF;}
</style>
<g>
	<path class="st0" d="M47.14,6.55l3.04,0.21l-0.09,1.4l-1.22-0.08l-0.09,1.33l1.14,0.08l-0.09,1.34l-1.14-0.08l-0.1,1.54l1.34,0.09
		l-0.09,1.4l-3.17-0.21L47.14,6.55z"/>
	<path class="st0" d="M55.49,7.66l-1.33,6.91l-1.57-0.3l-0.33-3.32l-0.61,3.14l-1.5-0.29l1.33-6.91l1.5,0.29l0.41,3.3l0.6-3.11
		L55.49,7.66z"/>
	<path class="st0" d="M56.87,8.05L59.76,9l-0.44,1.34l-1.16-0.38l-0.42,1.27l1.09,0.35l-0.42,1.27l-1.09-0.35l-0.48,1.47l1.28,0.42
		l-0.44,1.34l-3.02-0.99L56.87,8.05z"/>
	<path class="st0" d="M61.02,9.47l1.17,0.55c0.78,0.37,1.29,0.65,1.54,0.84s0.4,0.45,0.46,0.78c0.06,0.33-0.04,0.77-0.3,1.31
		c-0.23,0.5-0.45,0.8-0.66,0.91c-0.2,0.11-0.49,0.1-0.87-0.04c0.29,0.24,0.46,0.45,0.51,0.64c0.05,0.19,0.06,0.35,0.03,0.47
		c-0.03,0.13-0.16,0.45-0.4,0.96l-0.79,1.68l-1.54-0.73l1-2.11c0.16-0.34,0.23-0.56,0.22-0.67c-0.02-0.11-0.14-0.21-0.37-0.32
		l-1.35,2.87l-1.65-0.78L61.02,9.47z M62.16,11.34l-0.67,1.41c0.19,0.09,0.33,0.12,0.43,0.11s0.21-0.16,0.35-0.44l0.17-0.35
		c0.1-0.2,0.12-0.35,0.08-0.45C62.47,11.52,62.35,11.43,62.16,11.34z"/>
	<path class="st0" d="M68.07,16.41l-1.53-1.01l0.35-0.53c0.22-0.34,0.35-0.56,0.37-0.66c0.03-0.1-0.01-0.19-0.12-0.26
		c-0.09-0.06-0.18-0.07-0.26-0.02s-0.22,0.23-0.42,0.52l-1.86,2.82c-0.17,0.26-0.27,0.45-0.29,0.55c-0.02,0.11,0.02,0.19,0.12,0.26
		c0.11,0.07,0.22,0.08,0.32,0.01c0.1-0.07,0.24-0.24,0.42-0.51l0.46-0.7l-0.31-0.2l0.59-0.89l1.79,1.18l-2.08,3.15l-0.96-0.63
		l0.14-0.51c-0.22,0.11-0.44,0.16-0.66,0.15c-0.22-0.01-0.43-0.09-0.65-0.23c-0.26-0.17-0.46-0.39-0.6-0.66
		c-0.14-0.27-0.21-0.54-0.21-0.8c0.01-0.26,0.06-0.5,0.17-0.72c0.1-0.22,0.29-0.53,0.56-0.94l1.15-1.74
		c0.37-0.56,0.67-0.95,0.9-1.16c0.23-0.21,0.55-0.33,0.98-0.35c0.43-0.02,0.87,0.12,1.32,0.42c0.45,0.3,0.76,0.63,0.93,1.01
		c0.17,0.38,0.22,0.72,0.14,1.04c-0.08,0.31-0.27,0.71-0.59,1.19L68.07,16.41z"/>
	<path class="st0" d="M73.58,17.72l-3.96,2.5l-1.68,1.92l-1.28-1.12l1.68-1.92l1.99-4.23l1.26,1.11c-0.71,1.21-1.2,2-1.49,2.38
		c0.57-0.5,1.31-1.08,2.21-1.75L73.58,17.72z"/>
	<path class="st0" d="M75.56,19.81l1.13,1.43c0.36,0.45,0.59,0.82,0.71,1.11c0.11,0.29,0.12,0.59,0.02,0.9
		c-0.1,0.31-0.39,0.66-0.87,1.03c-0.32,0.25-0.59,0.38-0.79,0.38s-0.46-0.12-0.77-0.37c0.19,0.39,0.24,0.71,0.16,0.97
		c-0.08,0.26-0.3,0.53-0.66,0.81l-0.51,0.4c-0.37,0.29-0.68,0.47-0.93,0.53c-0.25,0.06-0.48,0.02-0.69-0.12
		c-0.21-0.13-0.55-0.49-1-1.07l-1.31-1.66L75.56,19.81z M73.67,23.64l-1.54,1.22c0.17,0.2,0.3,0.3,0.4,0.31
		c0.1,0.01,0.26-0.07,0.49-0.25l0.52-0.41c0.24-0.19,0.36-0.33,0.37-0.41S73.83,23.86,73.67,23.64z M75.75,21.99l-1.23,0.97
		c0.05,0.06,0.09,0.11,0.12,0.14c0.11,0.14,0.22,0.2,0.32,0.19c0.1-0.02,0.31-0.15,0.64-0.41c0.17-0.14,0.28-0.25,0.33-0.33
		c0.04-0.09,0.06-0.16,0.03-0.23S75.87,22.14,75.75,21.99z"/>
	<path class="st0" d="M80.59,27.1l-5.56,4.43l-0.94-1.62l1.04-0.72l-0.33-0.57l-1.15,0.54l-0.95-1.64l6.55-2.72L80.59,27.1z
		 M76.19,28.53c0.64-0.48,1.45-1.05,2.42-1.72c-1.26,0.51-2.17,0.91-2.73,1.18L76.19,28.53z"/>
	<path class="st0" d="M81.58,28.99l0.48,1.2c0.32,0.8,0.51,1.36,0.56,1.66c0.05,0.31-0.01,0.6-0.2,0.88
		c-0.18,0.28-0.55,0.53-1.11,0.76c-0.51,0.2-0.88,0.28-1.1,0.22s-0.43-0.26-0.61-0.62c0.05,0.37,0.03,0.64-0.06,0.81
		c-0.09,0.17-0.19,0.29-0.3,0.37c-0.11,0.08-0.42,0.22-0.95,0.43l-1.72,0.69l-0.63-1.58l2.17-0.87c0.35-0.14,0.55-0.26,0.62-0.34
		c0.06-0.09,0.04-0.25-0.05-0.48l-2.94,1.18l-0.68-1.7L81.58,28.99z M81.14,31.14l-1.45,0.58c0.08,0.19,0.16,0.31,0.24,0.37
		c0.08,0.06,0.27,0.03,0.56-0.09l0.36-0.14c0.21-0.08,0.33-0.17,0.36-0.27C81.24,31.48,81.22,31.34,81.14,31.14z"/>
	<path class="st0" d="M84.04,36l0.24,1.27c0.16,0.85,0.23,1.43,0.23,1.74c-0.01,0.31-0.13,0.59-0.36,0.83s-0.64,0.42-1.23,0.53
		c-0.54,0.1-0.91,0.1-1.12,0c-0.21-0.1-0.37-0.34-0.48-0.73c-0.02,0.37-0.09,0.63-0.22,0.78c-0.13,0.15-0.25,0.25-0.37,0.31
		c-0.12,0.05-0.46,0.13-1.01,0.24l-1.82,0.34l-0.31-1.67l2.3-0.43c0.37-0.07,0.59-0.14,0.67-0.22c0.08-0.08,0.09-0.24,0.05-0.48
		l-3.12,0.58l-0.34-1.8L84.04,36z M83.19,38.02l-1.54,0.29c0.04,0.2,0.09,0.34,0.16,0.41c0.07,0.07,0.26,0.08,0.56,0.02l0.38-0.07
		c0.22-0.04,0.36-0.11,0.41-0.2C83.23,38.38,83.23,38.23,83.19,38.02z"/>
	<path class="st0" d="M84.92,41.41l0.17,3.05l-1.41,0.08l-0.07-1.22l-1.33,0.07l0.06,1.14l-1.34,0.07l-0.06-1.14l-1.54,0.08
		l0.07,1.34l-1.41,0.08L77.9,41.8L84.92,41.41z"/>
	<path class="st0" d="M85.11,45.84l-0.11,1.36c-0.07,0.88-0.15,1.47-0.26,1.78c-0.11,0.3-0.26,0.53-0.45,0.68
		c-0.2,0.15-0.41,0.23-0.64,0.26c-0.23,0.02-0.68,0.01-1.34-0.04l-2.46-0.19c-0.63-0.05-1.05-0.11-1.26-0.19s-0.37-0.19-0.47-0.35
		s-0.18-0.35-0.21-0.57s-0.03-0.55,0-0.98l0.18-2.3L85.11,45.84z M83.77,47.57l-4.62-0.36c-0.02,0.26,0.02,0.43,0.12,0.5
		s0.39,0.12,0.85,0.16l2.72,0.21c0.32,0.03,0.52,0.03,0.61,0.02c0.09-0.01,0.16-0.05,0.21-0.13C83.72,47.91,83.75,47.77,83.77,47.57
		z"/>
	<path class="st0" d="M84.19,53.38l-0.5,1.75c-0.16,0.55-0.32,0.96-0.49,1.22s-0.41,0.44-0.72,0.54c-0.31,0.1-0.76,0.07-1.35-0.1
		c-0.4-0.11-0.65-0.25-0.77-0.42c-0.12-0.17-0.17-0.45-0.15-0.84c-0.21,0.38-0.44,0.61-0.69,0.7c-0.25,0.08-0.6,0.06-1.04-0.06
		L77.84,56c-0.46-0.13-0.78-0.28-0.97-0.45s-0.29-0.38-0.31-0.63c-0.02-0.25,0.08-0.73,0.28-1.44l0.58-2.04L84.19,53.38z
		 M79.97,54.08l-1.89-0.54c-0.06,0.25-0.07,0.42-0.02,0.51s0.21,0.17,0.48,0.25l0.63,0.18c0.29,0.08,0.47,0.1,0.55,0.06
		C79.81,54.49,79.89,54.34,79.97,54.08z M82.53,54.81l-1.5-0.43c-0.02,0.08-0.03,0.13-0.05,0.18c-0.05,0.17-0.04,0.29,0.03,0.37
		s0.31,0.17,0.71,0.28c0.21,0.06,0.37,0.08,0.46,0.07c0.1-0.01,0.16-0.05,0.2-0.11S82.48,54.99,82.53,54.81z"/>
	<path class="st0" d="M82.52,58.74l-1.22,2.8l-1.29-0.56l0.49-1.12l-1.22-0.53l-0.46,1.05l-1.23-0.54l0.46-1.05l-1.42-0.62
		l-0.54,1.23l-1.29-0.56l1.27-2.91L82.52,58.74z"/>
	<path class="st0" d="M80.7,62.76l-0.67,1.11c-0.44,0.74-0.77,1.22-0.99,1.45s-0.49,0.35-0.82,0.38s-0.76-0.12-1.27-0.43
		c-0.47-0.28-0.75-0.53-0.84-0.74c-0.09-0.21-0.05-0.5,0.12-0.86c-0.26,0.26-0.49,0.41-0.68,0.44c-0.19,0.03-0.35,0.02-0.48-0.01
		c-0.12-0.04-0.43-0.2-0.92-0.5l-1.59-0.96l0.88-1.46l2,1.2c0.32,0.19,0.54,0.29,0.65,0.28s0.23-0.12,0.36-0.33l-2.72-1.63
		l0.94-1.57L80.7,62.76z M78.73,63.71l-1.34-0.81c-0.11,0.18-0.16,0.31-0.15,0.42c0.01,0.1,0.14,0.23,0.41,0.39l0.33,0.2
		c0.19,0.12,0.34,0.16,0.44,0.12C78.51,64,78.62,63.89,78.73,63.71z"/>
	<path class="st0" d="M77.73,67.5l-0.82,1c-0.55,0.67-0.94,1.1-1.19,1.29s-0.53,0.28-0.87,0.25s-0.73-0.23-1.2-0.61
		c-0.42-0.35-0.67-0.63-0.72-0.86s0.02-0.5,0.25-0.84c-0.3,0.22-0.55,0.34-0.74,0.34c-0.2,0-0.35-0.03-0.47-0.08
		c-0.12-0.06-0.39-0.26-0.83-0.62l-1.44-1.18l1.08-1.31l1.81,1.48c0.29,0.24,0.49,0.36,0.6,0.37c0.11,0.01,0.24-0.08,0.4-0.28
		l-2.46-2.01l1.16-1.42L77.73,67.5z M75.64,68.15l-1.21-0.99c-0.13,0.16-0.2,0.29-0.21,0.39c-0.01,0.1,0.11,0.25,0.35,0.44l0.3,0.25
		c0.17,0.14,0.31,0.2,0.42,0.19C75.38,68.41,75.5,68.31,75.64,68.15z"/>
	<path class="st0" d="M71.29,74.35l-2.08-4.19l-1.74-1.86l1.24-1.16L70.44,69l4,2.41l-1.23,1.15c-1.13-0.83-1.87-1.4-2.22-1.72
		c0.44,0.62,0.94,1.41,1.52,2.38L71.29,74.35z"/>
	<path class="st0" d="M62.75,74.92l-0.64-1l0.25-0.53l-1.15-0.66l1.37-0.87l0.39,0.22c0.27-0.59,0.61-1.02,1.02-1.28
		c0.43-0.27,0.85-0.34,1.27-0.2s0.75,0.41,1.01,0.81c0.21,0.32,0.3,0.62,0.28,0.89s-0.13,0.55-0.33,0.84
		c0.57,0.03,1.01,0.29,1.31,0.77c0.26,0.41,0.33,0.83,0.22,1.26c-0.12,0.43-0.42,0.8-0.91,1.11c-0.44,0.28-0.87,0.38-1.28,0.29
		c-0.41-0.09-0.74-0.32-0.98-0.7c-0.25-0.4-0.33-0.85-0.22-1.36l-1.12-0.61L62.75,74.92z M63.91,72.43l0.99,0.5
		c0.08-0.28,0.05-0.52-0.07-0.71c-0.09-0.14-0.18-0.23-0.29-0.26s-0.21-0.01-0.32,0.06C64.1,72.08,64,72.22,63.91,72.43z
		 M65.7,74.51c-0.03,0.32,0.02,0.59,0.14,0.78c0.05,0.09,0.13,0.15,0.22,0.19c0.09,0.04,0.18,0.03,0.27-0.02
		c0.08-0.05,0.13-0.12,0.13-0.2c0.01-0.08-0.02-0.18-0.09-0.29C66.23,74.75,66.01,74.59,65.7,74.51z"/>
	<path class="st0" d="M58.48,81.47l-2.56-6.55l1.49-0.58l2.05,2.63l-1.16-2.98l1.42-0.56l2.56,6.55l-1.42,0.56l-2.11-2.58l1.15,2.95
		L58.48,81.47z"/>
	<path class="st0" d="M52.97,82.88L51.9,78.3c-0.12-0.52-0.19-0.89-0.21-1.11c-0.01-0.22,0.04-0.46,0.15-0.72
		c0.11-0.26,0.29-0.48,0.54-0.66c0.25-0.18,0.55-0.31,0.92-0.4c0.41-0.1,0.79-0.11,1.13-0.05s0.62,0.18,0.83,0.36
		c0.21,0.18,0.35,0.39,0.44,0.62c0.08,0.23,0.22,0.74,0.4,1.51l0.95,4.05l-1.78,0.42l-1.2-5.14c-0.07-0.3-0.13-0.49-0.18-0.56
		c-0.05-0.08-0.13-0.1-0.23-0.08c-0.11,0.03-0.17,0.09-0.19,0.19c-0.01,0.1,0.02,0.32,0.1,0.66l1.18,5.05L52.97,82.88z"/>
	<path class="st0" d="M47.89,83.45l-0.14-1.4l1.08-0.11l-0.56-5.6l1.82-0.18l0.56,5.6l1.08-0.11l0.14,1.4L47.89,83.45z"/>
	<path class="st0" d="M45.07,83.46l-3.05-0.17l0.08-1.41l1.22,0.07l0.08-1.33l-1.14-0.07l0.08-1.34l1.14,0.06l0.09-1.54l-1.34-0.08
		l0.08-1.41l3.17,0.18L45.07,83.46z"/>
	<path class="st0" d="M36.7,82.43l1.26-6.92l1.58,0.29l0.36,3.32l0.57-3.15l1.5,0.27l-1.26,6.92l-1.5-0.27l-0.44-3.3L38.2,82.7
		L36.7,82.43z"/>
	<path class="st0" d="M35.32,82.05l-2.91-0.92l0.42-1.34L34,80.16l0.4-1.27l-1.09-0.34l0.4-1.28l1.09,0.34l0.47-1.48l-1.28-0.4
		l0.42-1.34l3.02,0.96L35.32,82.05z"/>
	<path class="st0" d="M31.14,80.67l-1.18-0.54c-0.78-0.36-1.3-0.64-1.55-0.82c-0.25-0.19-0.4-0.45-0.47-0.78
		c-0.06-0.33,0.03-0.77,0.29-1.31c0.23-0.5,0.44-0.8,0.65-0.92c0.2-0.11,0.49-0.11,0.87,0.03c-0.29-0.23-0.46-0.44-0.51-0.63
		c-0.05-0.19-0.06-0.35-0.04-0.47s0.16-0.45,0.39-0.96l0.78-1.69l1.54,0.71l-0.98,2.12c-0.16,0.34-0.23,0.57-0.21,0.67
		c0.02,0.11,0.14,0.21,0.37,0.32l1.33-2.88l1.66,0.76L31.14,80.67z M29.99,78.82l0.65-1.42c-0.19-0.09-0.33-0.12-0.43-0.1
		s-0.21,0.17-0.34,0.45l-0.16,0.35c-0.09,0.2-0.12,0.35-0.07,0.45C29.68,78.64,29.79,78.73,29.99,78.82z"/>
	<path class="st0" d="M24.02,73.8l1.54,0.99l-0.35,0.54c-0.22,0.34-0.34,0.56-0.37,0.66c-0.03,0.1,0.02,0.19,0.13,0.26
		c0.09,0.06,0.18,0.07,0.26,0.02c0.08-0.05,0.22-0.23,0.41-0.53l1.83-2.83c0.17-0.27,0.27-0.45,0.29-0.56
		c0.02-0.11-0.02-0.19-0.12-0.26c-0.11-0.07-0.22-0.07-0.32,0s-0.24,0.24-0.42,0.52l-0.45,0.7l0.31,0.2l-0.58,0.9l-1.8-1.16
		l2.05-3.17l0.97,0.62l-0.13,0.51c0.22-0.11,0.44-0.17,0.66-0.15c0.22,0.01,0.44,0.09,0.65,0.23c0.26,0.17,0.46,0.39,0.6,0.66
		c0.14,0.27,0.21,0.54,0.21,0.8c0,0.26-0.06,0.5-0.16,0.72c-0.1,0.22-0.28,0.54-0.55,0.94l-1.14,1.75
		c-0.37,0.56-0.66,0.96-0.89,1.17s-0.55,0.34-0.98,0.36c-0.43,0.03-0.87-0.11-1.32-0.4c-0.45-0.29-0.76-0.63-0.94-1
		s-0.23-0.72-0.15-1.03c0.07-0.31,0.27-0.71,0.58-1.19L24.02,73.8z"/>
	<path class="st0" d="M18.52,72.56l3.93-2.54l1.66-1.93l1.29,1.1l-1.66,1.93l-1.94,4.25l-1.28-1.09c0.69-1.21,1.18-2.01,1.47-2.39
		c-0.57,0.5-1.3,1.09-2.19,1.77L18.52,72.56z"/>
	<path class="st0" d="M16.5,70.47l-1.15-1.42c-0.36-0.45-0.6-0.82-0.72-1.1c-0.12-0.29-0.13-0.59-0.03-0.9
		c0.1-0.31,0.38-0.66,0.86-1.04c0.32-0.26,0.58-0.39,0.79-0.39c0.21,0,0.46,0.12,0.77,0.36c-0.19-0.39-0.25-0.71-0.17-0.97
		c0.08-0.26,0.3-0.53,0.65-0.82l0.51-0.41c0.37-0.3,0.68-0.48,0.92-0.54c0.25-0.06,0.48-0.02,0.69,0.11
		c0.21,0.13,0.55,0.48,1.01,1.06l1.33,1.65L16.5,70.47z M16.29,68.29l1.22-0.98c-0.05-0.06-0.09-0.11-0.12-0.14
		c-0.11-0.14-0.22-0.2-0.32-0.18c-0.1,0.02-0.31,0.16-0.64,0.42c-0.17,0.14-0.28,0.25-0.32,0.34c-0.04,0.09-0.05,0.16-0.03,0.23
		C16.1,68.04,16.17,68.15,16.29,68.29z M18.36,66.63l1.53-1.24c-0.17-0.2-0.3-0.3-0.4-0.31s-0.26,0.07-0.48,0.25l-0.51,0.41
		c-0.23,0.19-0.36,0.33-0.37,0.42C18.11,66.25,18.19,66.41,18.36,66.63z"/>
	<path class="st0" d="M11.41,63.26l5.51-4.49l0.96,1.61l-1.04,0.73l0.33,0.56l1.14-0.55l0.97,1.63l-6.52,2.79L11.41,63.26z
		 M15.8,61.79c-0.64,0.49-1.44,1.07-2.4,1.75c1.25-0.53,2.16-0.93,2.72-1.21L15.8,61.79z"/>
	<path class="st0" d="M10.39,61.35l-0.5-1.2c-0.33-0.8-0.52-1.35-0.58-1.66c-0.06-0.31,0.01-0.6,0.19-0.89
		c0.18-0.28,0.55-0.54,1.1-0.77c0.51-0.21,0.87-0.29,1.1-0.23s0.43,0.26,0.62,0.61c-0.06-0.37-0.04-0.64,0.05-0.81
		c0.09-0.17,0.19-0.3,0.29-0.37c0.1-0.08,0.42-0.22,0.94-0.44l1.71-0.71l0.65,1.57l-2.16,0.89c-0.35,0.14-0.55,0.26-0.61,0.35
		c-0.06,0.09-0.04,0.25,0.05,0.48l2.93-1.21l0.7,1.69L10.39,61.35z M10.8,59.2l1.45-0.6c-0.08-0.19-0.16-0.31-0.24-0.37
		c-0.08-0.05-0.27-0.02-0.56,0.1l-0.36,0.15c-0.21,0.08-0.33,0.18-0.36,0.28C10.7,58.86,10.72,59.01,10.8,59.2z"/>
	<path class="st0" d="M7.86,54.38l-0.25-1.27c-0.17-0.85-0.25-1.43-0.24-1.74c0.01-0.31,0.12-0.59,0.36-0.83S8.36,50.12,8.95,50
		c0.54-0.11,0.91-0.11,1.12-0.01s0.37,0.34,0.49,0.72c0.02-0.37,0.09-0.63,0.21-0.79s0.24-0.25,0.36-0.31
		c0.12-0.05,0.46-0.14,1.01-0.25L13.97,49l0.33,1.67l-2.29,0.46c-0.37,0.07-0.59,0.15-0.67,0.22s-0.09,0.24-0.04,0.48l3.11-0.62
		l0.36,1.79L7.86,54.38z M8.69,52.35l1.53-0.3c-0.04-0.2-0.1-0.34-0.17-0.41c-0.07-0.07-0.26-0.08-0.56-0.01L9.11,51.7
		c-0.22,0.04-0.35,0.11-0.41,0.2S8.65,52.14,8.69,52.35z"/>
	<path class="st0" d="M6.92,48.95l-0.2-3.04l1.4-0.09l0.08,1.22l1.33-0.09l-0.07-1.14l1.34-0.09l0.07,1.14l1.54-0.1l-0.09-1.34
		l1.4-0.09l0.21,3.17L6.92,48.95z"/>
	<path class="st0" d="M6.69,44.56l0.09-1.37c0.06-0.88,0.14-1.48,0.24-1.78s0.25-0.53,0.45-0.68c0.2-0.15,0.41-0.24,0.64-0.26
		c0.23-0.03,0.68-0.02,1.34,0.03l2.46,0.16c0.63,0.04,1.05,0.1,1.26,0.17s0.37,0.19,0.48,0.34c0.11,0.16,0.18,0.34,0.22,0.56
		c0.03,0.22,0.04,0.55,0.01,0.98l-0.15,2.3L6.69,44.56z M8.01,42.81l4.62,0.31c0.02-0.26-0.02-0.43-0.13-0.5s-0.39-0.12-0.85-0.15
		l-2.73-0.18c-0.32-0.02-0.52-0.02-0.61-0.01c-0.09,0.01-0.16,0.06-0.21,0.13C8.05,42.48,8.02,42.61,8.01,42.81z"/>
	<path class="st0" d="M7.53,37.03l0.48-1.76c0.15-0.56,0.31-0.97,0.48-1.23c0.17-0.26,0.4-0.45,0.72-0.55
		c0.31-0.1,0.76-0.08,1.35,0.08c0.4,0.11,0.66,0.25,0.78,0.41s0.18,0.45,0.16,0.83c0.2-0.38,0.43-0.62,0.69-0.7s0.6-0.07,1.04,0.05
		l0.63,0.17c0.46,0.13,0.78,0.27,0.98,0.44c0.19,0.17,0.3,0.37,0.32,0.62c0.02,0.25-0.07,0.73-0.26,1.44l-0.56,2.04L7.53,37.03z
		 M9.17,35.58L10.68,36c0.02-0.08,0.03-0.14,0.04-0.18c0.05-0.17,0.03-0.3-0.04-0.37s-0.31-0.16-0.71-0.27
		c-0.21-0.06-0.37-0.08-0.46-0.06c-0.1,0.02-0.16,0.05-0.2,0.11S9.22,35.4,9.17,35.58z M11.74,36.29l1.9,0.52
		c0.06-0.25,0.06-0.42,0.01-0.51c-0.05-0.09-0.21-0.17-0.49-0.24l-0.63-0.17c-0.29-0.08-0.48-0.1-0.55-0.05
		C11.9,35.87,11.82,36.02,11.74,36.29z"/>
	<path class="st0" d="M9.15,31.62l1.19-2.81l1.3,0.55l-0.48,1.12L12.39,31l0.45-1.05l1.23,0.52l-0.45,1.05l1.42,0.6l0.52-1.24
		l1.3,0.55l-1.24,2.92L9.15,31.62z"/>
	<path class="st0" d="M10.93,27.58l0.66-1.12c0.44-0.74,0.76-1.23,0.97-1.46s0.48-0.36,0.82-0.39c0.33-0.03,0.76,0.11,1.28,0.41
		c0.47,0.28,0.76,0.52,0.85,0.74c0.09,0.21,0.06,0.5-0.11,0.86c0.26-0.27,0.49-0.42,0.68-0.45c0.19-0.03,0.35-0.03,0.48,0.01
		s0.43,0.2,0.92,0.49l1.6,0.94l-0.86,1.47l-2.02-1.18c-0.32-0.19-0.54-0.28-0.65-0.28c-0.11,0.01-0.23,0.12-0.35,0.33l2.74,1.61
		l-0.93,1.58L10.93,27.58z M12.89,26.61l1.35,0.79c0.1-0.18,0.15-0.32,0.15-0.42c-0.01-0.1-0.14-0.23-0.41-0.39l-0.33-0.2
		c-0.19-0.11-0.34-0.15-0.44-0.12C13.1,26.32,13,26.43,12.89,26.61z"/>
	<path class="st0" d="M13.84,22.83l0.81-1.01c0.54-0.67,0.93-1.11,1.17-1.31c0.24-0.2,0.53-0.28,0.87-0.26
		c0.33,0.02,0.73,0.22,1.2,0.59c0.43,0.34,0.67,0.63,0.73,0.85c0.06,0.22-0.02,0.5-0.24,0.84c0.3-0.23,0.54-0.34,0.74-0.34
		s0.35,0.02,0.47,0.08c0.12,0.05,0.4,0.26,0.84,0.62l1.45,1.16l-1.06,1.33L19,23.91c-0.29-0.24-0.49-0.36-0.6-0.37
		c-0.11-0.01-0.24,0.08-0.4,0.28l2.48,1.98l-1.14,1.43L13.84,22.83z M15.92,22.16l1.22,0.98c0.13-0.16,0.2-0.29,0.2-0.39
		c0.01-0.1-0.11-0.25-0.35-0.44l-0.3-0.24c-0.17-0.14-0.31-0.2-0.42-0.18C16.17,21.9,16.05,21.99,15.92,22.16z"/>
	<path class="st0" d="M20.21,15.91l2.13,4.17l1.76,1.84l-1.23,1.17l-1.76-1.84l-4.03-2.36l1.22-1.16c1.14,0.81,1.88,1.38,2.23,1.7
		c-0.44-0.61-0.96-1.4-1.54-2.36L20.21,15.91z"/>
	<path class="st0" d="M28.76,15.24l0.65,1l-0.24,0.53l1.15,0.65l-1.36,0.88l-0.39-0.21c-0.26,0.6-0.6,1.03-1,1.29
		c-0.43,0.28-0.85,0.35-1.26,0.21c-0.42-0.13-0.75-0.4-1.01-0.8c-0.21-0.32-0.3-0.62-0.29-0.89c0.02-0.27,0.13-0.55,0.32-0.84
		c-0.57-0.03-1.01-0.28-1.32-0.76c-0.27-0.41-0.34-0.83-0.23-1.26c0.11-0.43,0.42-0.8,0.9-1.12c0.44-0.28,0.86-0.38,1.27-0.3
		c0.41,0.08,0.74,0.31,0.98,0.69c0.26,0.4,0.34,0.85,0.23,1.36l1.13,0.6L28.76,15.24z M25.81,15.68c0.03-0.33-0.02-0.59-0.15-0.78
		c-0.06-0.08-0.13-0.15-0.22-0.19s-0.19-0.03-0.27,0.03c-0.08,0.05-0.12,0.12-0.13,0.2c-0.01,0.08,0.03,0.18,0.1,0.28
		C25.28,15.45,25.5,15.6,25.81,15.68z M27.63,17.75l-0.99-0.49c-0.07,0.28-0.05,0.52,0.07,0.71c0.09,0.14,0.19,0.22,0.29,0.26
		c0.1,0.03,0.21,0.01,0.32-0.06C27.43,18.09,27.54,17.95,27.63,17.75z"/>
	<path class="st0" d="M32.96,8.65l2.63,6.53l-1.49,0.6l-2.08-2.61l1.19,2.97l-1.42,0.57l-2.63-6.53l1.42-0.57l2.13,2.56l-1.18-2.94
		L32.96,8.65z"/>
	<path class="st0" d="M38.42,7.2l1.12,4.57c0.13,0.52,0.2,0.89,0.22,1.1c0.02,0.22-0.03,0.46-0.14,0.72
		c-0.11,0.26-0.29,0.48-0.53,0.66c-0.24,0.18-0.55,0.32-0.92,0.41c-0.41,0.1-0.78,0.12-1.13,0.06c-0.35-0.06-0.62-0.18-0.83-0.36
		s-0.36-0.38-0.44-0.62c-0.09-0.23-0.23-0.74-0.41-1.51L34.36,8.2l1.78-0.44l1.26,5.12c0.07,0.3,0.14,0.48,0.19,0.56
		s0.13,0.1,0.23,0.08c0.11-0.03,0.17-0.09,0.18-0.19c0.01-0.1-0.03-0.32-0.11-0.66l-1.23-5.04L38.42,7.2z"/>
	<path class="st0" d="M43.51,6.58l0.15,1.4l-1.08,0.12l0.61,5.59l-1.82,0.2l-0.61-5.59l-1.08,0.12l-0.15-1.4L43.51,6.58z"/>
</g>
</svg>
