<?xml version="1.0" encoding="utf-8"?>
<!-- Generator: Adobe Illustrator 23.1.0, SVG Export Plug-In . SVG Version: 6.00 Build 0)  -->
<svg version="1.1" id="Layer_1" xmlns="http://www.w3.org/2000/svg" xmlns:xlink="http://www.w3.org/1999/xlink" x="0px" y="0px"
	 viewBox="0 0 90 90" style="enable-background:new 0 0 90 90;" xml:space="preserve">
<style type="text/css">
	.st0{fill:#FFFFFF;}
</style>
<g>
	<path class="st0" d="M33.31,6.97l3.34-0.77L37,7.74l-1.34,0.31L36,9.51l1.25-0.29l0.34,1.47l-1.25,0.29l0.39,1.69l1.47-0.34
		l0.36,1.54l-3.47,0.81L33.31,6.97z"/>
	<path class="st0" d="M42.76,5.5l0.71,7.87l-1.79,0.16l-1.39-3.48l0.32,3.58l-1.71,0.15l-0.71-7.87l1.71-0.15l1.47,3.44l-0.32-3.55
		L42.76,5.5z"/>
	<path class="st0" d="M44.42,5.51l3.42,0.16l-0.07,1.58L46.4,7.18l-0.07,1.5l1.28,0.06l-0.07,1.5l-1.28-0.06l-0.08,1.74l1.51,0.07
		l-0.07,1.58l-3.56-0.17L44.42,5.51z"/>
	<path class="st0" d="M49.4,5.81l1.43,0.27c0.95,0.18,1.59,0.33,1.92,0.47s0.56,0.38,0.72,0.72c0.16,0.34,0.17,0.84,0.05,1.51
		c-0.11,0.6-0.26,1-0.45,1.18c-0.19,0.18-0.51,0.25-0.96,0.21c0.38,0.17,0.63,0.36,0.73,0.55c0.11,0.19,0.16,0.36,0.17,0.51
		s-0.05,0.53-0.16,1.16l-0.38,2.05l-1.88-0.35l0.48-2.58c0.08-0.42,0.09-0.68,0.04-0.79c-0.05-0.11-0.21-0.19-0.49-0.24l-0.65,3.5
		l-2.02-0.38L49.4,5.81z M51.17,7.51l-0.32,1.73c0.23,0.04,0.39,0.04,0.5,0c0.1-0.05,0.19-0.24,0.25-0.58l0.08-0.43
		c0.05-0.25,0.03-0.42-0.04-0.51C51.56,7.63,51.41,7.56,51.17,7.51z"/>
	<path class="st0" d="M59.1,11.44l-1.94-0.69l0.24-0.68c0.15-0.43,0.23-0.7,0.23-0.82c0-0.12-0.07-0.21-0.2-0.25
		c-0.12-0.04-0.22-0.03-0.29,0.05c-0.08,0.08-0.18,0.31-0.32,0.69l-1.28,3.57c-0.12,0.33-0.18,0.56-0.17,0.68s0.07,0.2,0.2,0.25
		c0.14,0.05,0.26,0.02,0.35-0.08c0.09-0.1,0.2-0.33,0.33-0.67l0.32-0.88l-0.39-0.14l0.4-1.13l2.27,0.81l-1.43,4l-1.22-0.43l0.01-0.6
		c-0.21,0.18-0.44,0.3-0.68,0.34c-0.24,0.04-0.5,0.02-0.77-0.08c-0.33-0.12-0.6-0.3-0.83-0.56c-0.23-0.26-0.37-0.53-0.44-0.82
		s-0.07-0.56-0.01-0.83c0.05-0.27,0.17-0.66,0.36-1.17l0.79-2.21c0.25-0.71,0.48-1.21,0.67-1.51c0.19-0.29,0.52-0.51,0.98-0.65
		s0.98-0.1,1.55,0.1c0.57,0.2,1,0.49,1.29,0.85s0.44,0.73,0.43,1.09s-0.11,0.85-0.33,1.46L59.1,11.44z"/>
	<path class="st0" d="M65.48,11.49l-3.71,3.73l-1.35,2.52l-1.68-0.9l1.35-2.52l1.11-5.13l1.66,0.89c-0.47,1.5-0.81,2.49-1.03,2.98
		c0.5-0.69,1.16-1.51,1.98-2.47L65.48,11.49z"/>
	<path class="st0" d="M68.27,13.37l1.58,1.31c0.5,0.42,0.84,0.77,1.03,1.06c0.19,0.29,0.27,0.62,0.23,0.99
		c-0.04,0.37-0.28,0.81-0.72,1.34c-0.3,0.35-0.56,0.56-0.79,0.6c-0.23,0.05-0.54-0.03-0.93-0.23c0.3,0.39,0.43,0.73,0.4,1.03
		c-0.03,0.3-0.21,0.65-0.54,1.04l-0.47,0.56c-0.34,0.41-0.64,0.68-0.9,0.79c-0.26,0.12-0.52,0.13-0.79,0.03
		c-0.27-0.1-0.72-0.41-1.35-0.94l-1.83-1.52L68.27,13.37z M67.06,18.02l-1.42,1.7c0.23,0.18,0.4,0.26,0.51,0.25
		c0.11-0.01,0.27-0.14,0.48-0.38l0.47-0.57c0.22-0.26,0.32-0.44,0.31-0.54C67.41,18.38,67.29,18.23,67.06,18.02z M68.98,15.73
		l-1.13,1.35c0.07,0.05,0.12,0.1,0.16,0.13c0.15,0.13,0.29,0.17,0.39,0.13c0.11-0.04,0.31-0.24,0.61-0.6
		c0.16-0.19,0.25-0.34,0.28-0.44c0.03-0.11,0.02-0.19-0.02-0.26C69.24,15.97,69.14,15.87,68.98,15.73z"/>
	<path class="st0" d="M75.49,20.33l-5.18,6.09l-1.38-1.58l1-1.02l-0.48-0.55l-1.15,0.84l-1.4-1.6l6.64-4.41L75.49,20.33z
		 M70.94,22.86c0.61-0.67,1.37-1.47,2.29-2.42c-1.28,0.84-2.2,1.47-2.76,1.89L70.94,22.86z"/>
	<path class="st0" d="M77.03,22.29l0.77,1.23c0.52,0.82,0.83,1.4,0.95,1.73s0.11,0.67-0.04,1.02c-0.15,0.35-0.5,0.7-1.07,1.06
		c-0.52,0.33-0.91,0.48-1.17,0.47c-0.26-0.02-0.53-0.2-0.8-0.56c0.13,0.4,0.16,0.7,0.09,0.91c-0.07,0.21-0.15,0.36-0.26,0.47
		s-0.42,0.33-0.96,0.67l-1.76,1.11l-1.02-1.62l2.22-1.4c0.36-0.23,0.56-0.39,0.61-0.5c0.05-0.11,0-0.29-0.15-0.52l-3.02,1.9
		l-1.09-1.74L77.03,22.29z M76.98,24.75l-1.49,0.94c0.12,0.2,0.24,0.32,0.34,0.36c0.1,0.04,0.3-0.03,0.6-0.21l0.37-0.23
		c0.21-0.13,0.33-0.26,0.35-0.38C77.16,25.11,77.1,24.95,76.98,24.75z"/>
	<path class="st0" d="M79.55,35.36l-0.69-1.94l1.29-0.46c0.38-0.13,0.6-0.24,0.68-0.31c0.08-0.07,0.09-0.18,0.04-0.32
		c-0.06-0.16-0.15-0.24-0.28-0.24c-0.13,0-0.38,0.06-0.76,0.2l-3.46,1.23c-0.36,0.13-0.59,0.23-0.69,0.32
		c-0.09,0.08-0.12,0.2-0.06,0.35c0.05,0.14,0.14,0.22,0.27,0.22c0.13,0,0.39-0.06,0.8-0.21l0.94-0.33l0.69,1.94l-0.29,0.1
		c-0.77,0.27-1.34,0.41-1.7,0.42c-0.36,0.01-0.73-0.13-1.1-0.42s-0.66-0.7-0.85-1.25c-0.2-0.57-0.27-1.07-0.19-1.51
		s0.27-0.79,0.59-1.03s0.85-0.5,1.58-0.76l2.18-0.77c0.54-0.19,0.95-0.31,1.23-0.37c0.28-0.06,0.58-0.04,0.89,0.05
		s0.6,0.28,0.86,0.55c0.26,0.27,0.46,0.62,0.61,1.04c0.2,0.57,0.26,1.08,0.17,1.53c-0.09,0.45-0.28,0.79-0.57,1.02
		c-0.29,0.23-0.78,0.47-1.47,0.72L79.55,35.36z"/>
	<path class="st0" d="M83.23,35.93l0.25,1.43c0.17,0.96,0.24,1.61,0.23,1.96c-0.01,0.35-0.16,0.66-0.42,0.93s-0.73,0.46-1.39,0.57
		c-0.61,0.11-1.03,0.1-1.26-0.01c-0.24-0.11-0.41-0.39-0.53-0.82c-0.03,0.42-0.12,0.71-0.26,0.88s-0.28,0.28-0.42,0.34
		c-0.13,0.06-0.51,0.14-1.14,0.25l-2.05,0.36l-0.33-1.88l2.59-0.45c0.42-0.07,0.67-0.15,0.76-0.23s0.11-0.26,0.06-0.54l-3.51,0.61
		l-0.35-2.02L83.23,35.93z M82.25,38.19l-1.73,0.3c0.04,0.23,0.1,0.38,0.18,0.46c0.08,0.08,0.29,0.09,0.63,0.03l0.43-0.07
		c0.25-0.04,0.4-0.12,0.46-0.22S82.29,38.42,82.25,38.19z"/>
	<path class="st0" d="M84.23,46.84l-5.28,0.09c-0.6,0.01-1.02,0-1.26-0.04c-0.24-0.03-0.49-0.15-0.75-0.33
		c-0.26-0.19-0.46-0.44-0.59-0.75s-0.21-0.68-0.22-1.11c-0.01-0.47,0.06-0.89,0.21-1.25c0.15-0.36,0.35-0.64,0.6-0.82
		c0.25-0.18,0.51-0.29,0.79-0.33c0.28-0.04,0.86-0.06,1.75-0.08l4.68-0.08l0.03,2.06l-5.93,0.1c-0.34,0.01-0.57,0.03-0.66,0.07
		c-0.1,0.04-0.14,0.12-0.14,0.23c0,0.13,0.06,0.21,0.16,0.25s0.36,0.05,0.75,0.04l5.82-0.1L84.23,46.84z"/>
	<path class="st0" d="M83.34,53.28l-7.81-1.25l0.29-1.78l3.72-0.49l-3.55-0.57l0.27-1.7l7.81,1.25l-0.27,1.7l-3.7,0.57l3.51,0.56
		L83.34,53.28z"/>
	<path class="st0" d="M78.09,58.54l0.66-1.95l1.3,0.44c0.38,0.13,0.62,0.19,0.73,0.18c0.11-0.01,0.19-0.08,0.23-0.23
		c0.05-0.16,0.03-0.28-0.07-0.36c-0.1-0.08-0.34-0.19-0.72-0.32l-3.48-1.18c-0.36-0.12-0.61-0.18-0.73-0.18
		c-0.13,0-0.21,0.08-0.27,0.23c-0.05,0.14-0.03,0.26,0.07,0.34c0.1,0.08,0.35,0.19,0.76,0.33l0.94,0.32l-0.66,1.95l-0.29-0.1
		c-0.77-0.26-1.3-0.51-1.59-0.73s-0.49-0.56-0.6-1.02c-0.12-0.46-0.08-0.96,0.11-1.51c0.19-0.57,0.46-1,0.79-1.3
		c0.33-0.3,0.7-0.45,1.11-0.44c0.41,0,0.98,0.13,1.71,0.38l2.19,0.75c0.54,0.18,0.94,0.34,1.19,0.47s0.48,0.33,0.67,0.6
		s0.3,0.59,0.33,0.96c0.03,0.37-0.02,0.77-0.17,1.19c-0.2,0.57-0.47,1.01-0.82,1.31c-0.35,0.3-0.71,0.45-1.08,0.45
		c-0.37,0-0.91-0.11-1.6-0.35L78.09,58.54z"/>
	<path class="st0" d="M78.37,65.43l-6.95-3.78l0.98-1.81l2.92,1.59l0.29-0.54L72.7,59.3l0.98-1.81l6.95,3.78l-0.98,1.81l-2.48-1.35
		l-0.29,0.54l2.48,1.35L78.37,65.43z"/>
	<path class="st0" d="M74.71,70.38l-3.1-4.25l-2.27-1.74l1.16-1.51l2.27,1.74l4.88,1.92l-1.15,1.5c-1.41-0.7-2.33-1.2-2.78-1.5
		c0.6,0.6,1.31,1.39,2.13,2.35L74.71,70.38z"/>
	<path class="st0" d="M68.93,75.83l-5.18-5.97l1.36-1.18l3.16,2.01l-2.36-2.71l1.3-1.13l5.18,5.97l-1.3,1.13l-3.2-1.93l2.33,2.69
		L68.93,75.83z"/>
	<path class="st0" d="M63.5,79.36l-2.78-4.49c-0.32-0.51-0.52-0.88-0.62-1.1c-0.09-0.23-0.13-0.5-0.1-0.82
		c0.03-0.32,0.14-0.62,0.34-0.89c0.2-0.28,0.48-0.53,0.84-0.75c0.4-0.25,0.8-0.4,1.19-0.46c0.39-0.06,0.73-0.03,1.01,0.09
		c0.28,0.12,0.51,0.29,0.69,0.51s0.5,0.71,0.97,1.47l2.46,3.98l-1.75,1.08l-3.12-5.04c-0.18-0.29-0.31-0.47-0.4-0.53
		c-0.08-0.06-0.17-0.06-0.27,0c-0.11,0.07-0.15,0.16-0.13,0.27c0.02,0.11,0.14,0.33,0.35,0.67l3.07,4.95L63.5,79.36z"/>
	<path class="st0" d="M58.19,81.75l-0.63-1.45l1.12-0.48l-2.5-5.81l1.89-0.81l2.5,5.81l1.12-0.48l0.63,1.45L58.19,81.75z"/>
	<path class="st0" d="M55,82.75l-3.34,0.77l-0.36-1.54l1.34-0.31l-0.34-1.46l-1.25,0.29l-0.34-1.46l1.25-0.29l-0.39-1.69l-1.47,0.34
		l-0.36-1.54l3.47-0.8L55,82.75z"/>
	<path class="st0" d="M45.54,84.21l-0.7-7.87l1.79-0.16l1.38,3.48l-0.32-3.58l1.71-0.15l0.7,7.87l-1.71,0.15l-1.46-3.44l0.32,3.55
		L45.54,84.21z"/>
	<path class="st0" d="M43.85,84.2l-3.42-0.17l0.08-1.58l1.37,0.07l0.07-1.5l-1.28-0.06l0.07-1.5l1.28,0.06l0.08-1.74l-1.51-0.07
		l0.08-1.58l3.56,0.17L43.85,84.2z"/>
	<path class="st0" d="M38.87,83.89l-1.43-0.27c-0.95-0.18-1.59-0.34-1.92-0.47c-0.32-0.14-0.56-0.38-0.72-0.72
		c-0.16-0.34-0.17-0.84-0.05-1.51c0.11-0.6,0.26-1,0.45-1.18s0.51-0.25,0.96-0.21c-0.38-0.17-0.63-0.36-0.73-0.55
		s-0.16-0.36-0.17-0.51c-0.01-0.15,0.05-0.53,0.17-1.16l0.38-2.05l1.88,0.35l-0.48,2.58c-0.08,0.42-0.09,0.68-0.05,0.79
		c0.05,0.11,0.21,0.19,0.49,0.25l0.66-3.5l2.02,0.38L38.87,83.89z M37.1,82.18l0.32-1.73c-0.23-0.04-0.39-0.04-0.5,0
		c-0.1,0.05-0.19,0.24-0.25,0.58l-0.08,0.43c-0.05,0.25-0.03,0.42,0.04,0.51C36.71,82.07,36.87,82.14,37.1,82.18z"/>
	<path class="st0" d="M29.21,78.26l1.94,0.69l-0.24,0.68c-0.15,0.43-0.23,0.7-0.23,0.82s0.07,0.21,0.2,0.25
		c0.12,0.04,0.22,0.03,0.29-0.05c0.08-0.08,0.18-0.3,0.32-0.68l1.28-3.57c0.12-0.33,0.18-0.56,0.17-0.68c0-0.12-0.07-0.21-0.2-0.25
		c-0.14-0.05-0.26-0.03-0.35,0.08c-0.09,0.1-0.2,0.33-0.33,0.67l-0.32,0.88l0.39,0.14l-0.4,1.13l-2.27-0.81l1.43-4L32.1,74
		l-0.01,0.6c0.21-0.18,0.44-0.3,0.68-0.34c0.24-0.04,0.5-0.02,0.77,0.08c0.33,0.12,0.6,0.3,0.83,0.56c0.23,0.26,0.37,0.53,0.44,0.82
		c0.06,0.29,0.07,0.56,0.01,0.83c-0.05,0.27-0.17,0.66-0.36,1.17l-0.79,2.21c-0.25,0.71-0.48,1.21-0.67,1.51
		c-0.19,0.29-0.52,0.51-0.98,0.65c-0.46,0.14-0.98,0.1-1.55-0.1c-0.57-0.2-1-0.49-1.29-0.86c-0.29-0.37-0.44-0.73-0.43-1.09
		c0-0.36,0.11-0.85,0.33-1.46L29.21,78.26z"/>
	<path class="st0" d="M22.8,78.19l3.71-3.73l1.36-2.52l1.68,0.9l-1.36,2.52l-1.12,5.13l-1.66-0.9c0.47-1.5,0.82-2.49,1.04-2.98
		c-0.5,0.69-1.16,1.51-1.98,2.47L22.8,78.19z"/>
	<path class="st0" d="M20.02,76.3l-1.57-1.32c-0.5-0.42-0.84-0.77-1.03-1.06c-0.19-0.29-0.27-0.62-0.23-0.99
		c0.04-0.37,0.28-0.81,0.72-1.34c0.3-0.35,0.56-0.55,0.79-0.6s0.54,0.03,0.93,0.23c-0.3-0.39-0.43-0.73-0.4-1.03
		s0.21-0.65,0.54-1.04l0.47-0.56c0.34-0.41,0.64-0.67,0.9-0.79s0.52-0.13,0.79-0.03s0.71,0.41,1.35,0.94l1.82,1.53L20.02,76.3z
		 M19.31,73.94l1.13-1.35c-0.07-0.05-0.12-0.1-0.16-0.13c-0.15-0.13-0.29-0.17-0.39-0.13c-0.11,0.04-0.31,0.24-0.61,0.6
		c-0.16,0.19-0.25,0.34-0.28,0.44s-0.02,0.19,0.02,0.26C19.05,73.7,19.15,73.8,19.31,73.94z M21.23,71.65l1.42-1.7
		c-0.23-0.18-0.4-0.26-0.51-0.25c-0.11,0.01-0.27,0.14-0.48,0.38l-0.47,0.57c-0.22,0.26-0.32,0.44-0.31,0.54
		C20.88,71.29,21,71.45,21.23,71.65z"/>
	<path class="st0" d="M12.83,69.36l5.18-6.08l1.38,1.58l-1,1.02l0.48,0.55l1.15-0.84l1.4,1.6l-6.65,4.41L12.83,69.36z M17.37,66.83
		c-0.61,0.67-1.37,1.47-2.3,2.42c1.28-0.84,2.2-1.47,2.76-1.89L17.37,66.83z"/>
	<path class="st0" d="M11.29,67.4l-0.77-1.23c-0.52-0.82-0.83-1.4-0.95-1.73c-0.12-0.33-0.11-0.67,0.04-1.02s0.5-0.7,1.07-1.06
		c0.52-0.33,0.91-0.48,1.17-0.46c0.26,0.02,0.53,0.2,0.8,0.56c-0.13-0.4-0.16-0.7-0.09-0.91c0.07-0.21,0.15-0.36,0.26-0.47
		c0.1-0.1,0.42-0.33,0.96-0.67l1.77-1.11l1.02,1.62l-2.22,1.4c-0.36,0.22-0.56,0.39-0.61,0.5c-0.05,0.11,0,0.29,0.15,0.52l3.02-1.9
		l1.09,1.74L11.29,67.4z M11.34,64.94L12.83,64c-0.12-0.2-0.24-0.32-0.34-0.36s-0.3,0.03-0.6,0.21l-0.37,0.23
		c-0.21,0.13-0.33,0.26-0.35,0.38S11.21,64.74,11.34,64.94z"/>
	<path class="st0" d="M8.77,54.29l0.68,1.94l-1.3,0.46c-0.38,0.13-0.6,0.24-0.68,0.31c-0.08,0.08-0.09,0.18-0.04,0.32
		c0.06,0.16,0.15,0.24,0.28,0.24c0.13,0,0.38-0.06,0.76-0.2l3.46-1.22c0.36-0.13,0.59-0.23,0.69-0.32s0.12-0.2,0.06-0.35
		c-0.05-0.14-0.14-0.22-0.27-0.22c-0.13,0-0.39,0.06-0.8,0.21l-0.94,0.33l-0.68-1.94l0.29-0.1c0.77-0.27,1.34-0.41,1.7-0.42
		s0.73,0.14,1.1,0.42c0.37,0.29,0.66,0.7,0.85,1.25c0.2,0.57,0.26,1.07,0.19,1.51c-0.08,0.44-0.27,0.79-0.6,1.03
		c-0.32,0.25-0.85,0.5-1.58,0.76l-2.18,0.77c-0.54,0.19-0.95,0.31-1.23,0.37c-0.28,0.06-0.58,0.04-0.89-0.06
		c-0.31-0.09-0.6-0.28-0.85-0.55c-0.26-0.27-0.46-0.62-0.61-1.04c-0.2-0.57-0.26-1.08-0.17-1.53c0.09-0.45,0.28-0.79,0.57-1.02
		c0.29-0.23,0.78-0.47,1.48-0.72L8.77,54.29z"/>
	<path class="st0" d="M5.09,53.72l-0.25-1.43c-0.17-0.96-0.24-1.61-0.22-1.96c0.02-0.35,0.16-0.66,0.42-0.92s0.73-0.46,1.4-0.57
		c0.61-0.11,1.03-0.1,1.26,0.01c0.23,0.11,0.41,0.39,0.53,0.83c0.03-0.42,0.12-0.71,0.26-0.88c0.14-0.17,0.28-0.28,0.42-0.34
		s0.52-0.14,1.14-0.25l2.05-0.35l0.32,1.88l-2.59,0.45c-0.42,0.07-0.67,0.15-0.76,0.23c-0.09,0.08-0.11,0.26-0.06,0.54l3.51-0.61
		l0.35,2.03L5.09,53.72z M6.07,51.46l1.73-0.3c-0.04-0.23-0.1-0.38-0.18-0.46C7.55,50.62,7.34,50.61,7,50.67l-0.43,0.07
		c-0.25,0.04-0.4,0.12-0.46,0.22C6.04,51.06,6.03,51.23,6.07,51.46z"/>
	<path class="st0" d="M4.1,42.82l5.28-0.09c0.6-0.01,1.02,0,1.26,0.04c0.24,0.03,0.49,0.15,0.75,0.33c0.26,0.19,0.46,0.44,0.59,0.75
		s0.21,0.68,0.22,1.11c0.01,0.47-0.06,0.89-0.21,1.25c-0.15,0.36-0.35,0.64-0.6,0.82c-0.25,0.18-0.51,0.29-0.79,0.33
		s-0.86,0.06-1.75,0.08l-4.68,0.08l-0.03-2.06l5.93-0.1c0.34-0.01,0.56-0.03,0.66-0.07c0.1-0.04,0.14-0.12,0.14-0.23
		c0-0.13-0.06-0.21-0.16-0.25c-0.11-0.04-0.36-0.05-0.75-0.04l-5.82,0.1L4.1,42.82z"/>
	<path class="st0" d="M5,36.37l7.8,1.26l-0.29,1.78L8.8,39.9l3.55,0.57l-0.27,1.7l-7.8-1.26l0.27-1.7l3.7-0.57l-3.51-0.57L5,36.37z"
		/>
	<path class="st0" d="M10.26,31.14l-0.66,1.95l-1.3-0.44c-0.38-0.13-0.62-0.19-0.73-0.18c-0.11,0.01-0.19,0.09-0.23,0.23
		c-0.05,0.16-0.03,0.28,0.07,0.36s0.34,0.19,0.72,0.32l3.47,1.19c0.36,0.12,0.61,0.18,0.73,0.18c0.13-0.01,0.21-0.08,0.27-0.23
		c0.05-0.14,0.03-0.26-0.07-0.34c-0.1-0.08-0.35-0.19-0.76-0.33l-0.94-0.32l0.67-1.95l0.29,0.1c0.77,0.26,1.3,0.51,1.59,0.73
		c0.29,0.22,0.49,0.56,0.6,1.02c0.12,0.46,0.08,0.96-0.11,1.51c-0.19,0.57-0.46,1-0.79,1.3c-0.33,0.3-0.7,0.45-1.11,0.44
		c-0.41,0-0.98-0.13-1.71-0.38l-2.19-0.75c-0.54-0.18-0.94-0.34-1.19-0.47c-0.26-0.13-0.48-0.33-0.67-0.6s-0.3-0.59-0.33-0.96
		s0.02-0.77,0.17-1.19c0.2-0.57,0.47-1.01,0.82-1.31c0.35-0.3,0.71-0.45,1.08-0.45c0.37,0,0.91,0.11,1.6,0.35L10.26,31.14z"/>
	<path class="st0" d="M9.98,24.26l6.94,3.78l-0.98,1.81l-2.92-1.59l-0.29,0.54l2.92,1.59l-0.98,1.81l-6.94-3.78L8.7,26.6l2.48,1.35
		l0.29-0.54L9,26.06L9.98,24.26z"/>
	<path class="st0" d="M13.66,19.29l3.09,4.26l2.27,1.74l-1.16,1.51l-2.27-1.74l-4.88-1.92l1.15-1.5c1.4,0.71,2.33,1.21,2.78,1.5
		c-0.6-0.6-1.31-1.39-2.12-2.35L13.66,19.29z"/>
	<path class="st0" d="M19.43,13.86l5.18,5.98l-1.36,1.18L20.08,19l2.35,2.72l-1.3,1.13l-5.18-5.98l1.3-1.13l3.2,1.94l-2.33-2.69
		L19.43,13.86z"/>
	<path class="st0" d="M24.85,10.33l2.78,4.49c0.32,0.51,0.52,0.88,0.61,1.1c0.09,0.23,0.13,0.5,0.1,0.82s-0.14,0.62-0.34,0.89
		c-0.2,0.28-0.48,0.53-0.84,0.75c-0.4,0.25-0.8,0.4-1.19,0.46c-0.39,0.06-0.73,0.03-1.01-0.09s-0.51-0.29-0.69-0.51
		c-0.17-0.22-0.5-0.71-0.96-1.47l-2.46-3.98l1.75-1.08l3.12,5.04c0.18,0.29,0.31,0.47,0.4,0.53c0.08,0.06,0.17,0.06,0.27,0
		c0.11-0.07,0.15-0.16,0.13-0.27c-0.02-0.11-0.14-0.33-0.35-0.67l-3.06-4.95L24.85,10.33z"/>
	<path class="st0" d="M30.2,7.93l0.62,1.45L29.7,9.87l2.5,5.81l-1.89,0.81l-2.5-5.81l-1.12,0.48l-0.62-1.45L30.2,7.93z"/>
</g>
</svg>
