<?xml version="1.0" encoding="utf-8"?>
<!-- Generator: Adobe Illustrator 23.1.0, SVG Export Plug-In . SVG Version: 6.00 Build 0)  -->
<svg version="1.1" id="Layer_1" xmlns="http://www.w3.org/2000/svg" xmlns:xlink="http://www.w3.org/1999/xlink" x="0px" y="0px"
	 viewBox="0 0 90 90" style="enable-background:new 0 0 90 90;" xml:space="preserve">
<style type="text/css">
	.st0{fill:#FFFFFF;}
</style>
<g>
	<path class="st0" d="M42.61,5.14l3.63,0.06l-0.03,1.68l-1.45-0.02l-0.03,1.59l1.36,0.02l-0.03,1.59l-1.36-0.02l-0.03,1.84l1.6,0.03
		l-0.03,1.68l-3.78-0.06L42.61,5.14z"/>
	<path class="st0" d="M52.74,6.03l-1.29,8.28l-1.89-0.29l-0.53-3.94l-0.59,3.76l-1.8-0.28l1.29-8.28l1.8,0.28l0.63,3.92l0.58-3.73
		L52.74,6.03z"/>
	<path class="st0" d="M54.53,6.5L58,7.58l-0.5,1.6l-1.39-0.43l-0.47,1.52l1.3,0.4l-0.47,1.52l-1.3-0.4l-0.55,1.76l1.53,0.48
		l-0.5,1.6l-3.61-1.12L54.53,6.5z"/>
	<path class="st0" d="M59.64,8.18l1.39,0.67c0.93,0.45,1.54,0.79,1.83,1.02c0.29,0.23,0.47,0.54,0.54,0.94
		c0.07,0.39-0.06,0.91-0.37,1.55c-0.28,0.59-0.55,0.95-0.79,1.08c-0.24,0.13-0.59,0.11-1.04-0.05c0.34,0.28,0.54,0.54,0.6,0.77
		s0.07,0.41,0.03,0.57c-0.03,0.15-0.2,0.53-0.49,1.14l-0.96,1.99l-1.82-0.88l1.21-2.51c0.2-0.4,0.28-0.67,0.27-0.8
		c-0.02-0.13-0.16-0.26-0.43-0.39l-1.64,3.4L56,15.73L59.64,8.18z M60.98,10.42l-0.81,1.68c0.22,0.11,0.39,0.15,0.51,0.13
		c0.12-0.02,0.26-0.19,0.42-0.53l0.2-0.42c0.12-0.24,0.15-0.42,0.1-0.53C61.34,10.64,61.21,10.53,60.98,10.42z"/>
	<path class="st0" d="M67.99,16.71l-1.77-1.27l0.44-0.62c0.28-0.39,0.44-0.65,0.47-0.77c0.04-0.12-0.01-0.23-0.13-0.32
		c-0.11-0.08-0.21-0.09-0.31-0.03s-0.27,0.26-0.52,0.61l-2.33,3.27c-0.22,0.31-0.34,0.52-0.37,0.65c-0.03,0.13,0.01,0.23,0.13,0.31
		c0.13,0.09,0.26,0.1,0.38,0.02c0.12-0.08,0.3-0.27,0.53-0.59l0.58-0.81l-0.36-0.26l0.74-1.04l2.08,1.48l-2.61,3.66l-1.12-0.79
		l0.18-0.61c-0.27,0.12-0.54,0.17-0.8,0.15c-0.26-0.03-0.51-0.13-0.76-0.31c-0.3-0.21-0.53-0.48-0.68-0.81s-0.23-0.65-0.21-0.96
		c0.02-0.31,0.09-0.59,0.23-0.85c0.13-0.26,0.37-0.62,0.7-1.09l1.45-2.03c0.46-0.65,0.84-1.1,1.12-1.34
		c0.28-0.25,0.67-0.37,1.18-0.38c0.51-0.01,1.03,0.18,1.55,0.55c0.52,0.37,0.88,0.78,1.07,1.24s0.23,0.87,0.13,1.24
		c-0.11,0.37-0.36,0.83-0.76,1.39L67.99,16.71z"/>
	<path class="st0" d="M74.53,18.73l-4.89,2.68l-2.13,2.16l-1.43-1.42l2.13-2.16l2.67-4.88l1.42,1.41c-0.93,1.38-1.58,2.29-1.95,2.72
		c0.71-0.55,1.63-1.19,2.75-1.92L74.53,18.73z"/>
	<path class="st0" d="M76.85,21.59l1.18,1.83c0.37,0.58,0.61,1.04,0.71,1.4c0.1,0.35,0.08,0.71-0.08,1.07
		c-0.16,0.36-0.54,0.74-1.15,1.13c-0.41,0.27-0.74,0.39-0.99,0.36c-0.25-0.02-0.53-0.2-0.87-0.52c0.18,0.49,0.2,0.88,0.08,1.17
		s-0.42,0.59-0.88,0.88l-0.65,0.42c-0.48,0.31-0.86,0.48-1.16,0.52c-0.3,0.04-0.57-0.03-0.8-0.22c-0.24-0.18-0.59-0.64-1.07-1.38
		l-1.37-2.12L76.85,21.59z M74.16,25.92l-1.97,1.27c0.18,0.25,0.32,0.39,0.44,0.42c0.12,0.02,0.32-0.06,0.6-0.24l0.66-0.42
		c0.3-0.19,0.46-0.34,0.49-0.45S74.33,26.19,74.16,25.92z M76.82,24.2l-1.57,1.01c0.05,0.08,0.09,0.14,0.12,0.18
		c0.12,0.18,0.23,0.27,0.35,0.26s0.39-0.15,0.81-0.42c0.22-0.14,0.36-0.26,0.42-0.36c0.06-0.1,0.08-0.19,0.06-0.27
		C77.01,24.52,76.94,24.39,76.82,24.2z"/>
	<path class="st0" d="M81.94,31.02l-7.22,4.43l-0.87-2.05l1.34-0.7l-0.3-0.72l-1.44,0.47l-0.88-2.07l8.15-2.26L81.94,31.02z
		 M76.53,32.06c0.83-0.47,1.87-1.03,3.11-1.68c-1.56,0.42-2.7,0.75-3.4,0.99L76.53,32.06z"/>
	<path class="st0" d="M82.87,33.61l0.35,1.5c0.24,1,0.36,1.69,0.36,2.06c0.01,0.37-0.12,0.71-0.39,1.01s-0.75,0.53-1.44,0.69
		c-0.63,0.15-1.08,0.17-1.33,0.06c-0.26-0.11-0.46-0.39-0.61-0.84c-0.01,0.44-0.08,0.76-0.22,0.94s-0.28,0.31-0.42,0.38
		c-0.14,0.07-0.54,0.18-1.19,0.34l-2.15,0.51l-0.46-1.97l2.71-0.64c0.44-0.1,0.7-0.2,0.79-0.29s0.1-0.29,0.03-0.58l-3.68,0.87
		l-0.5-2.12L82.87,33.61z M81.98,36.06l-1.81,0.43c0.06,0.24,0.13,0.4,0.22,0.48c0.09,0.08,0.31,0.08,0.67-0.01l0.45-0.11
		c0.26-0.06,0.42-0.15,0.48-0.26C82.03,36.49,82.04,36.31,81.98,36.06z"/>
	<path class="st0" d="M84.51,42.68l-0.03,1.54c-0.02,1.03-0.07,1.72-0.15,2.09c-0.08,0.36-0.29,0.66-0.62,0.88
		c-0.33,0.22-0.85,0.33-1.57,0.32c-0.65-0.01-1.09-0.1-1.31-0.27s-0.35-0.49-0.39-0.96c-0.11,0.43-0.26,0.72-0.44,0.86
		c-0.18,0.14-0.35,0.23-0.5,0.27c-0.15,0.04-0.56,0.05-1.24,0.04l-2.21-0.04l0.03-2.02l2.78,0.05c0.45,0.01,0.73-0.02,0.83-0.09
		c0.11-0.07,0.17-0.25,0.17-0.55l-3.78-0.06l0.04-2.18L84.51,42.68z M83.04,44.83l-1.86-0.03c0,0.25,0.03,0.42,0.09,0.52
		c0.07,0.1,0.28,0.15,0.65,0.16l0.46,0.01c0.27,0,0.44-0.04,0.53-0.13C82.99,45.26,83.03,45.08,83.04,44.83z"/>
	<path class="st0" d="M84.27,49.29l-0.56,3.59l-1.66-0.26l0.22-1.44l-1.57-0.25l-0.21,1.34l-1.58-0.25l0.21-1.34l-1.82-0.28
		l-0.25,1.58l-1.66-0.26l0.58-3.73L84.27,49.29z"/>
	<path class="st0" d="M83.33,54.67l-0.5,1.55c-0.32,1-0.59,1.66-0.8,1.99s-0.44,0.54-0.71,0.66c-0.27,0.12-0.54,0.15-0.81,0.12
		c-0.27-0.04-0.79-0.18-1.54-0.42l-2.79-0.91c-0.72-0.23-1.18-0.42-1.4-0.57c-0.22-0.15-0.37-0.32-0.45-0.54s-0.11-0.45-0.08-0.71
		c0.03-0.26,0.12-0.64,0.28-1.14l0.85-2.61L83.33,54.67z M81.3,56.3l-5.24-1.7c-0.1,0.3-0.1,0.5,0,0.61s0.41,0.25,0.94,0.42l3.1,1
		c0.36,0.12,0.6,0.18,0.71,0.19c0.11,0.01,0.2-0.02,0.28-0.08C81.15,56.67,81.22,56.53,81.3,56.3z"/>
	<path class="st0" d="M79.98,63.34l-1.14,1.85c-0.36,0.58-0.68,1-0.95,1.25c-0.28,0.25-0.61,0.38-1,0.39
		c-0.39,0.01-0.9-0.17-1.51-0.54c-0.42-0.26-0.67-0.5-0.75-0.73c-0.08-0.23-0.05-0.57,0.1-1.01c-0.36,0.37-0.7,0.56-1.02,0.58
		c-0.32,0.01-0.71-0.12-1.18-0.41l-0.66-0.41c-0.48-0.3-0.81-0.57-0.97-0.82s-0.22-0.53-0.15-0.82c0.06-0.29,0.32-0.81,0.78-1.56
		l1.32-2.15L79.98,63.34z M74.92,62.79l-2-1.23c-0.15,0.27-0.21,0.46-0.18,0.58c0.03,0.12,0.19,0.26,0.48,0.44l0.67,0.41
		c0.31,0.19,0.51,0.27,0.62,0.24C74.6,63.21,74.74,63.06,74.92,62.79z M77.62,64.44l-1.59-0.97c-0.05,0.08-0.08,0.14-0.11,0.19
		c-0.11,0.18-0.14,0.33-0.08,0.43c0.06,0.1,0.3,0.29,0.72,0.55c0.22,0.14,0.39,0.21,0.51,0.23s0.21-0.01,0.27-0.06
		C77.41,64.75,77.5,64.63,77.62,64.44z"/>
	<path class="st0" d="M76.24,69.06l-2.35,2.77l-1.28-1.08l0.94-1.11l-1.21-1.03l-0.88,1.04l-1.22-1.03l0.88-1.04l-1.41-1.19
		l-1.03,1.22l-1.28-1.08l2.44-2.88L76.24,69.06z"/>
	<path class="st0" d="M72.68,73.12l-1.16,1.01c-0.77,0.68-1.33,1.1-1.65,1.28c-0.33,0.18-0.68,0.22-1.07,0.13
		c-0.39-0.09-0.82-0.41-1.29-0.95c-0.43-0.49-0.66-0.88-0.68-1.15c-0.03-0.28,0.13-0.59,0.46-0.93c-0.4,0.2-0.71,0.29-0.94,0.25
		c-0.23-0.04-0.41-0.1-0.53-0.19c-0.13-0.09-0.41-0.39-0.86-0.9L63.5,70l1.52-1.33l1.83,2.1c0.29,0.34,0.5,0.52,0.63,0.56
		c0.12,0.03,0.3-0.05,0.52-0.25l-2.48-2.85l1.64-1.43L72.68,73.12z M70.09,73.47l-1.22-1.4c-0.18,0.16-0.29,0.3-0.32,0.42
		c-0.03,0.12,0.08,0.31,0.32,0.59l0.3,0.35c0.17,0.2,0.32,0.3,0.45,0.3S69.91,73.64,70.09,73.47z"/>
	<path class="st0" d="M67.43,77.48l-1.32,0.81c-0.88,0.54-1.49,0.87-1.84,0.99c-0.35,0.12-0.71,0.1-1.08-0.05s-0.74-0.54-1.11-1.15
		c-0.34-0.56-0.5-0.97-0.48-1.25s0.22-0.56,0.61-0.84c-0.42,0.13-0.75,0.16-0.97,0.09c-0.22-0.08-0.38-0.17-0.49-0.28
		c-0.11-0.11-0.34-0.45-0.69-1.03l-1.15-1.88l1.73-1.06l1.45,2.38c0.23,0.38,0.41,0.6,0.53,0.66c0.12,0.05,0.3,0,0.56-0.15
		l-1.97-3.22l1.86-1.14L67.43,77.48z M64.82,77.39l-0.97-1.59c-0.21,0.13-0.34,0.25-0.39,0.36c-0.05,0.11,0.02,0.32,0.22,0.63
		l0.24,0.39c0.14,0.23,0.27,0.35,0.39,0.37C64.44,77.58,64.61,77.53,64.82,77.39z"/>
	<path class="st0" d="M59.75,81.63l-3.42-7.65l1.99-0.89l3.42,7.65L59.75,81.63z"/>
	<path class="st0" d="M58.29,82.23l-3.46,1.12l-0.51-1.6l1.38-0.45l-0.49-1.51l-1.3,0.42l-0.49-1.52l1.3-0.42l-0.57-1.75l-1.52,0.49
		l-0.51-1.6l3.6-1.16L58.29,82.23z"/>
	<path class="st0" d="M48.17,82.05l2-0.34l0.1,0.61c0.05,0.29,0.1,0.46,0.17,0.53s0.16,0.09,0.27,0.07
		c0.13-0.02,0.22-0.09,0.27-0.21c0.05-0.12,0.05-0.28,0.02-0.5c-0.05-0.28-0.12-0.48-0.22-0.6c-0.09-0.13-0.33-0.26-0.69-0.4
		c-1.05-0.41-1.73-0.77-2.04-1.09c-0.31-0.32-0.53-0.89-0.67-1.7c-0.1-0.59-0.1-1.03-0.01-1.34c0.09-0.3,0.32-0.58,0.68-0.84
		c0.36-0.26,0.81-0.43,1.33-0.52c0.58-0.1,1.08-0.07,1.53,0.08c0.44,0.15,0.76,0.38,0.94,0.7s0.33,0.78,0.43,1.4l0.09,0.54l-2,0.34
		l-0.17-1c-0.05-0.31-0.11-0.5-0.18-0.58c-0.07-0.08-0.18-0.11-0.32-0.08s-0.24,0.1-0.29,0.22c-0.05,0.12-0.06,0.3-0.02,0.52
		c0.08,0.49,0.2,0.79,0.36,0.92c0.16,0.13,0.54,0.32,1.13,0.58c0.59,0.26,0.99,0.46,1.19,0.59c0.2,0.13,0.38,0.33,0.54,0.59
		c0.16,0.26,0.28,0.61,0.35,1.05c0.11,0.63,0.1,1.11-0.01,1.43c-0.11,0.32-0.33,0.59-0.67,0.82c-0.33,0.23-0.75,0.38-1.26,0.47
		c-0.56,0.09-1.05,0.08-1.47-0.03c-0.42-0.11-0.72-0.3-0.9-0.55s-0.32-0.71-0.43-1.36L48.17,82.05z"/>
	<path class="st0" d="M44.56,84.78l-3.63-0.1L40.98,83l1.45,0.04l0.04-1.59l-1.36-0.04l0.04-1.59l1.36,0.04l0.05-1.84l-1.6-0.04
		l0.05-1.68l3.78,0.11L44.56,84.78z"/>
	<path class="st0" d="M34.44,83.71l1.44-8.25l1.88,0.33l0.46,3.95l0.66-3.75l1.79,0.31l-1.44,8.25l-1.79-0.31l-0.55-3.93l-0.65,3.72
		L34.44,83.71z"/>
	<path class="st0" d="M32.65,83.21l-3.45-1.15l0.53-1.59l1.38,0.46l0.5-1.51l-1.29-0.43l0.5-1.51l1.29,0.43l0.58-1.75l-1.52-0.5
		l0.53-1.59l3.59,1.19L32.65,83.21z"/>
	<path class="st0" d="M27.55,81.42l-1.38-0.7c-0.92-0.47-1.52-0.82-1.81-1.05c-0.29-0.24-0.46-0.55-0.52-0.94
		c-0.06-0.4,0.08-0.91,0.4-1.55c0.29-0.58,0.57-0.94,0.81-1.06c0.25-0.13,0.59-0.1,1.04,0.07c-0.34-0.29-0.53-0.55-0.58-0.78
		c-0.05-0.23-0.06-0.42-0.02-0.57c0.04-0.15,0.21-0.53,0.51-1.13l1-1.97l1.8,0.92l-1.26,2.48c-0.2,0.4-0.3,0.66-0.28,0.79
		c0.02,0.13,0.16,0.26,0.42,0.39l1.71-3.37l1.94,0.99L27.55,81.42z M26.26,79.16l0.84-1.66c-0.22-0.11-0.39-0.16-0.5-0.14
		s-0.26,0.19-0.43,0.52l-0.21,0.41c-0.12,0.24-0.16,0.41-0.11,0.53C25.9,78.93,26.03,79.04,26.26,79.16z"/>
	<path class="st0" d="M19.37,72.74l1.75,1.3l-0.45,0.61c-0.29,0.39-0.45,0.64-0.49,0.76c-0.04,0.12,0,0.23,0.13,0.32
		c0.11,0.08,0.21,0.09,0.31,0.04c0.1-0.05,0.28-0.25,0.53-0.6l2.4-3.23c0.22-0.3,0.35-0.52,0.38-0.64c0.03-0.13-0.01-0.23-0.13-0.32
		c-0.13-0.09-0.25-0.1-0.38-0.03c-0.13,0.07-0.31,0.27-0.54,0.58l-0.59,0.8l0.35,0.26l-0.76,1.02l-2.05-1.52l2.68-3.61l1.1,0.82
		l-0.2,0.6c0.27-0.12,0.54-0.16,0.8-0.13c0.26,0.03,0.51,0.14,0.76,0.32c0.29,0.22,0.52,0.49,0.67,0.83s0.21,0.65,0.19,0.96
		c-0.02,0.31-0.1,0.59-0.24,0.85c-0.14,0.26-0.38,0.62-0.72,1.08l-1.48,2c-0.48,0.64-0.86,1.08-1.14,1.32s-0.68,0.36-1.19,0.36
		c-0.51,0-1.02-0.2-1.54-0.58c-0.51-0.38-0.86-0.8-1.04-1.26s-0.22-0.88-0.1-1.24c0.11-0.37,0.37-0.82,0.78-1.38L19.37,72.74z"/>
	<path class="st0" d="M12.88,70.59L17.82,68l2.17-2.11l1.41,1.45l-2.17,2.11l-2.77,4.83l-1.4-1.43c0.95-1.37,1.62-2.26,2-2.68
		c-0.73,0.54-1.66,1.16-2.79,1.87L12.88,70.59z"/>
	<path class="st0" d="M10.62,67.69l-1.14-1.85c-0.36-0.58-0.59-1.05-0.68-1.41s-0.06-0.71,0.1-1.07c0.16-0.36,0.55-0.72,1.17-1.1
		c0.42-0.26,0.75-0.37,0.99-0.34c0.24,0.03,0.53,0.21,0.86,0.54c-0.17-0.49-0.19-0.88-0.06-1.17c0.13-0.29,0.43-0.58,0.89-0.87
		L13.41,60c0.48-0.3,0.87-0.46,1.17-0.5c0.3-0.03,0.57,0.04,0.8,0.23c0.23,0.19,0.58,0.66,1.04,1.4l1.32,2.14L10.62,67.69z
		 M10.69,65.08l1.59-0.98c-0.05-0.08-0.09-0.14-0.12-0.18c-0.11-0.18-0.23-0.27-0.35-0.26c-0.12,0.01-0.39,0.14-0.81,0.4
		c-0.22,0.14-0.37,0.25-0.43,0.35c-0.06,0.1-0.09,0.18-0.07,0.27C10.51,64.75,10.58,64.89,10.69,65.08z M13.39,63.42l2-1.23
		c-0.17-0.26-0.31-0.4-0.43-0.42c-0.12-0.03-0.32,0.05-0.61,0.23l-0.67,0.41c-0.31,0.19-0.47,0.33-0.5,0.44
		C13.16,62.94,13.23,63.13,13.39,63.42z"/>
	<path class="st0" d="M5.71,58.15l7.31-4.28l0.83,2.07l-1.35,0.67l0.29,0.72l1.45-0.44l0.84,2.09l-8.19,2.09L5.71,58.15z
		 M11.14,57.21c-0.84,0.46-1.89,1-3.14,1.62c1.57-0.39,2.71-0.7,3.42-0.92L11.14,57.21z"/>
	<path class="st0" d="M4.83,55.55l-0.32-1.51c-0.22-1-0.32-1.69-0.32-2.07c0-0.37,0.14-0.71,0.41-1c0.27-0.29,0.76-0.51,1.45-0.66
		c0.64-0.14,1.08-0.15,1.34-0.04c0.25,0.11,0.45,0.4,0.6,0.85c0.01-0.44,0.09-0.76,0.24-0.94s0.29-0.31,0.43-0.37
		c0.14-0.07,0.54-0.17,1.2-0.31l2.16-0.46l0.42,1.98L9.71,51.6c-0.44,0.09-0.7,0.19-0.79,0.28s-0.1,0.28-0.04,0.58l3.69-0.79
		l0.46,2.13L4.83,55.55z M5.78,53.12l1.82-0.39c-0.05-0.24-0.12-0.4-0.21-0.48s-0.31-0.08-0.67-0.01l-0.45,0.1
		c-0.26,0.06-0.42,0.14-0.48,0.25C5.73,52.7,5.73,52.87,5.78,53.12z"/>
	<path class="st0" d="M3.42,46.57l0.03-1.54c0.02-1.03,0.07-1.72,0.16-2.09c0.09-0.36,0.3-0.65,0.63-0.88s0.85-0.33,1.57-0.31
		c0.65,0.01,1.09,0.1,1.31,0.27c0.22,0.17,0.35,0.49,0.38,0.97c0.12-0.43,0.26-0.72,0.45-0.86c0.18-0.14,0.35-0.23,0.5-0.27
		c0.15-0.03,0.56-0.04,1.24-0.03l2.21,0.04l-0.04,2.02l-2.78-0.06c-0.45-0.01-0.73,0.02-0.83,0.09C8.13,44,8.07,44.19,8.06,44.49
		l3.78,0.08l-0.04,2.18L3.42,46.57z M4.89,44.42l1.86,0.04c0.01-0.25-0.02-0.42-0.09-0.52c-0.07-0.1-0.28-0.15-0.65-0.16l-0.46-0.01
		c-0.27-0.01-0.44,0.04-0.53,0.13C4.94,44,4.9,44.17,4.89,44.42z"/>
	<path class="st0" d="M3.75,39.85l0.63-3.58l1.65,0.29l-0.25,1.43l1.56,0.28l0.24-1.34l1.57,0.28l-0.24,1.34l1.81,0.32l0.28-1.58
		l1.65,0.29L12,41.31L3.75,39.85z"/>
	<path class="st0" d="M4.79,34.5l0.53-1.54c0.34-0.99,0.62-1.65,0.83-1.97c0.21-0.32,0.46-0.53,0.73-0.64s0.54-0.14,0.82-0.1
		c0.27,0.04,0.78,0.19,1.53,0.45l2.77,0.96c0.71,0.25,1.17,0.44,1.39,0.59c0.22,0.15,0.36,0.33,0.44,0.54
		c0.08,0.21,0.1,0.45,0.07,0.71c-0.03,0.26-0.13,0.64-0.3,1.13l-0.9,2.6L4.79,34.5z M6.86,32.91l5.21,1.8
		c0.1-0.3,0.11-0.5,0.01-0.61c-0.1-0.11-0.41-0.26-0.94-0.44L8.07,32.6c-0.36-0.12-0.59-0.19-0.7-0.2s-0.2,0.01-0.28,0.08
		C7.01,32.54,6.94,32.69,6.86,32.91z"/>
	<path class="st0" d="M8.3,25.91l1.17-1.83c0.37-0.58,0.69-0.99,0.98-1.23s0.62-0.36,1.01-0.37c0.39-0.01,0.89,0.18,1.5,0.57
		c0.41,0.26,0.66,0.51,0.74,0.75s0.04,0.57-0.11,1c0.37-0.36,0.71-0.55,1.03-0.56c0.32-0.01,0.71,0.13,1.17,0.43l0.65,0.42
		c0.48,0.31,0.8,0.59,0.96,0.84c0.16,0.26,0.21,0.53,0.14,0.82c-0.07,0.29-0.34,0.81-0.81,1.55l-1.36,2.12L8.3,25.91z M10.68,24.85
		l1.57,1c0.05-0.08,0.08-0.14,0.11-0.19c0.12-0.18,0.14-0.32,0.09-0.43c-0.06-0.11-0.29-0.29-0.71-0.56
		c-0.22-0.14-0.39-0.22-0.5-0.24c-0.11-0.02-0.2,0-0.27,0.05C10.9,24.54,10.81,24.66,10.68,24.85z M13.35,26.56l1.98,1.26
		c0.16-0.26,0.22-0.46,0.19-0.57c-0.03-0.12-0.18-0.27-0.47-0.45l-0.66-0.42c-0.3-0.19-0.51-0.28-0.61-0.26
		C13.68,26.14,13.54,26.29,13.35,26.56z"/>
	<path class="st0" d="M12.17,20.24l2.4-2.73l1.26,1.11l-0.96,1.09l1.19,1.05l0.9-1.02l1.2,1.05l-0.9,1.02l1.38,1.22l1.06-1.2
		l1.26,1.11l-2.5,2.83L12.17,20.24z"/>
	<path class="st0" d="M15.81,16.25l1.18-0.99c0.79-0.66,1.35-1.08,1.68-1.25c0.33-0.17,0.69-0.21,1.07-0.11
		c0.39,0.1,0.81,0.43,1.27,0.97c0.42,0.5,0.64,0.89,0.66,1.16c0.02,0.28-0.14,0.58-0.47,0.92c0.4-0.2,0.71-0.27,0.94-0.23
		s0.41,0.11,0.53,0.2c0.12,0.09,0.4,0.4,0.84,0.91l1.42,1.69l-1.55,1.3l-1.79-2.13c-0.29-0.34-0.49-0.53-0.62-0.57
		c-0.12-0.04-0.3,0.04-0.53,0.23l2.43,2.89l-1.67,1.4L15.81,16.25z M18.4,15.95l1.2,1.43c0.19-0.16,0.3-0.29,0.33-0.41
		c0.03-0.11-0.07-0.31-0.31-0.6l-0.3-0.35c-0.17-0.2-0.32-0.31-0.44-0.31C18.75,15.71,18.59,15.79,18.4,15.95z"/>
	<path class="st0" d="M21.15,11.99l1.33-0.78c0.89-0.52,1.51-0.84,1.86-0.95c0.35-0.12,0.71-0.09,1.08,0.07
		c0.36,0.17,0.73,0.56,1.09,1.17c0.33,0.56,0.48,0.98,0.46,1.26s-0.23,0.55-0.62,0.83c0.43-0.13,0.75-0.15,0.97-0.07
		c0.22,0.08,0.38,0.18,0.49,0.29c0.11,0.11,0.33,0.46,0.67,1.04l1.12,1.91l-1.75,1.02l-1.41-2.4c-0.23-0.39-0.4-0.61-0.51-0.67
		s-0.3-0.01-0.56,0.14l1.91,3.26l-1.88,1.1L21.15,11.99z M23.75,12.13l0.94,1.61c0.21-0.12,0.34-0.24,0.39-0.35s-0.02-0.32-0.2-0.64
		l-0.23-0.4c-0.13-0.23-0.26-0.36-0.39-0.38C24.14,11.95,23.97,12,23.75,12.13z"/>
	<path class="st0" d="M28.89,8l3.28,7.71l-2.01,0.85l-3.28-7.71L28.89,8z"/>
	<path class="st0" d="M30.4,7.42l3.48-1.05l0.48,1.61l-1.39,0.42l0.46,1.52l1.3-0.39l0.46,1.53l-1.3,0.39l0.53,1.76l1.53-0.46
		l0.48,1.61l-3.62,1.09L30.4,7.42z"/>
	<path class="st0" d="M40.49,7.79l-2,0.3L38.4,7.47c-0.04-0.29-0.1-0.47-0.16-0.54c-0.06-0.07-0.15-0.1-0.27-0.08
		c-0.13,0.02-0.22,0.09-0.27,0.2c-0.05,0.12-0.06,0.28-0.03,0.5c0.04,0.28,0.11,0.48,0.21,0.61c0.09,0.13,0.32,0.27,0.69,0.42
		c1.04,0.43,1.72,0.8,2.02,1.13s0.52,0.9,0.64,1.71c0.09,0.59,0.08,1.04-0.01,1.34c-0.1,0.3-0.33,0.58-0.7,0.82
		s-0.81,0.41-1.34,0.49c-0.58,0.09-1.09,0.05-1.53-0.11c-0.44-0.16-0.75-0.4-0.93-0.71c-0.18-0.32-0.31-0.79-0.4-1.41l-0.08-0.54
		l2-0.3l0.15,1.01c0.05,0.31,0.1,0.51,0.17,0.59c0.07,0.08,0.18,0.11,0.32,0.09c0.14-0.02,0.24-0.09,0.29-0.22s0.06-0.3,0.03-0.52
		c-0.07-0.49-0.19-0.8-0.34-0.93c-0.16-0.13-0.53-0.33-1.12-0.6c-0.59-0.27-0.98-0.48-1.18-0.61c-0.2-0.13-0.38-0.33-0.53-0.6
		c-0.16-0.27-0.27-0.62-0.33-1.06c-0.09-0.63-0.08-1.11,0.04-1.43s0.35-0.59,0.68-0.81c0.34-0.22,0.76-0.37,1.27-0.44
		c0.56-0.08,1.05-0.06,1.47,0.06s0.72,0.31,0.89,0.57c0.17,0.26,0.3,0.71,0.4,1.37L40.49,7.79z"/>
</g>
</svg>
