<?xml version="1.0" encoding="utf-8"?>
<!-- Generator: Adobe Illustrator 23.1.0, SVG Export Plug-In . SVG Version: 6.00 Build 0)  -->
<svg version="1.1" id="Layer_1" xmlns="http://www.w3.org/2000/svg" xmlns:xlink="http://www.w3.org/1999/xlink" x="0px" y="0px"
	 viewBox="0 0 90 90" style="enable-background:new 0 0 90 90;" xml:space="preserve">
<style type="text/css">
	.st0{fill:#FFFFFF;}
</style>
<g>
	<path class="st0" d="M38.42,4.59l3.56-0.38l0.17,1.62L40.7,5.98l0.17,1.53l1.3-0.14l0.17,1.54l-1.3,0.14l0.37,3.4l-2.1,0.23
		L38.42,4.59z"/>
	<path class="st0" d="M45.17,4.16l0.13,8.14l-2.12,0.03L43.05,4.2L45.17,4.16z"/>
	<path class="st0" d="M51.87,4.75l-1.99,7.97l-3.2-0.36l-0.3-8.23l2.22,0.25c0,2.26-0.03,4.16-0.09,5.72
		c0.29-1.55,0.56-2.92,0.82-4.11l0.32-1.49L51.87,4.75z"/>
	<path class="st0" d="M53.1,5.05l3.42,0.89L56.1,7.52l-1.37-0.35l-0.39,1.49l1.28,0.33l-0.39,1.5l-1.28-0.33l-0.45,1.73l1.5,0.39
		l-0.41,1.58l-3.55-0.92L53.1,5.05z"/>
	<path class="st0" d="M63.19,12.03l-1.9-0.93l0.32-0.67c0.2-0.42,0.31-0.69,0.33-0.81S61.9,9.4,61.76,9.34
		c-0.12-0.06-0.22-0.05-0.31,0.02c-0.09,0.07-0.22,0.29-0.4,0.67l-1.71,3.52c-0.16,0.33-0.24,0.56-0.25,0.68
		c-0.01,0.12,0.05,0.22,0.18,0.28c0.14,0.07,0.26,0.05,0.37-0.04c0.11-0.09,0.24-0.31,0.41-0.65l0.42-0.87l-0.38-0.19l0.54-1.11
		l2.23,1.08l-1.91,3.93l-1.2-0.58l0.08-0.61c-0.24,0.16-0.49,0.25-0.74,0.27c-0.25,0.02-0.51-0.04-0.78-0.17
		c-0.32-0.16-0.58-0.38-0.79-0.67s-0.32-0.59-0.36-0.89c-0.03-0.3-0.01-0.58,0.08-0.85c0.09-0.27,0.25-0.66,0.5-1.16l1.06-2.18
		c0.34-0.7,0.63-1.19,0.85-1.47c0.23-0.28,0.59-0.47,1.07-0.56c0.49-0.09,1.01,0,1.58,0.28c0.56,0.27,0.96,0.61,1.22,1.02
		c0.26,0.41,0.36,0.8,0.32,1.17c-0.04,0.37-0.21,0.85-0.5,1.45L63.19,12.03z"/>
	<path class="st0" d="M66.09,10.28l1.22,0.87c0.82,0.58,1.34,1,1.59,1.27c0.24,0.27,0.37,0.59,0.36,0.98c0,0.39-0.2,0.86-0.6,1.43
		c-0.37,0.52-0.68,0.82-0.93,0.91c-0.25,0.09-0.58,0.01-0.99-0.22c0.28,0.33,0.43,0.6,0.45,0.83s0,0.41-0.06,0.55
		c-0.06,0.14-0.27,0.48-0.65,1.01l-1.24,1.75l-1.6-1.14l1.56-2.21c0.25-0.36,0.38-0.6,0.38-0.72s-0.11-0.27-0.35-0.44l-2.12,3
		l-1.73-1.22L66.09,10.28z M67.02,12.64l-1.05,1.48c0.19,0.14,0.35,0.21,0.46,0.21c0.12,0,0.28-0.14,0.49-0.44l0.26-0.37
		c0.15-0.21,0.21-0.38,0.18-0.49C67.33,12.91,67.22,12.78,67.02,12.64z"/>
	<path class="st0" d="M73.97,16.77l-4.84,6.66l-1.54-1.52l0.94-1.12l-0.54-0.53l-1.12,0.96l-1.56-1.53l6.47-5.06L73.97,16.77z
		 M69.5,19.72c0.57-0.73,1.29-1.62,2.16-2.67c-1.25,0.96-2.14,1.68-2.68,2.16L69.5,19.72z"/>
	<path class="st0" d="M76.84,20.18l-6.37,5.08l-1.32-1.66l6.37-5.08L76.84,20.18z"/>
	<path class="st0" d="M80.32,25.55l-6.96,4.22l-0.96-1.59l2.59-2.86l-3.17,1.92l-0.92-1.51l6.96-4.22l0.92,1.51l-2.52,2.91l3.14-1.9
		L80.32,25.55z"/>
	<path class="st0" d="M81.96,29.17l1.2,3.38l-1.54,0.54l-0.49-1.38l-1.46,0.52l0.44,1.23l-1.46,0.52l-0.44-1.23l-3.22,1.14l-0.71-2
		L81.96,29.17z"/>
	<path class="st0" d="M83.95,35.88l-6.36,1.41l0.28,1.26l-1.59,0.35l-0.74-3.32l7.95-1.76L83.95,35.88z"/>
	<path class="st0" d="M84.75,42.46l-8.04,1.77l-0.15-2.16l1.45-0.22l-0.05-0.76l-1.47-0.03l-0.15-2.18l8.2,0.51L84.75,42.46z
		 M79.45,41.71c0.91-0.17,2.04-0.36,3.39-0.56c-1.57-0.11-2.72-0.16-3.44-0.17L79.45,41.71z"/>
	<path class="st0" d="M84.32,50.1l-3.55-1.55l-4.57,0.91l0.21-2.18l3.56-0.53l-3.48-0.33l0.2-2.11l8.11,0.76l-0.2,2.11l-3.15-0.3
		l3.06,1.24L84.32,50.1z"/>
	<path class="st0" d="M84,51.51l-0.86,3.43l-1.58-0.39l0.34-1.37l-1.5-0.37l-0.32,1.28l-1.5-0.38l0.32-1.28l-1.74-0.43l-0.38,1.51
		l-1.58-0.39l0.89-3.56L84,51.51z"/>
	<path class="st0" d="M81.89,58.46l-1.49,3.26l-1.48-0.68l0.61-1.34l-1.4-0.64l-0.54,1.19l-1.41-0.64l0.54-1.19L73.61,57l0.88-1.93
		L81.89,58.46z"/>
	<path class="st0" d="M78.71,64.58l-7-4.17l1.08-1.82l7,4.17L78.71,64.58z"/>
	<path class="st0" d="M74.75,69.96l-5.76-5.86l1.98-2.54l7.17,4.05l-1.37,1.76c-1.93-1.18-3.54-2.2-4.83-3.06
		c1.17,1.05,2.2,2,3.08,2.85l1.1,1.05L74.75,69.96z"/>
	<path class="st0" d="M73.84,70.84l-2.55,2.44l-1.13-1.18l1.02-0.98l-1.07-1.11l-0.96,0.92l-1.07-1.12l0.96-0.92l-1.24-1.29
		l-1.12,1.08l-1.13-1.18l2.65-2.54L73.84,70.84z"/>
	<path class="st0" d="M62.6,75.77l1.79-1.13l0.4,0.63c0.25,0.39,0.42,0.63,0.52,0.71c0.1,0.08,0.21,0.08,0.34,0
		c0.11-0.07,0.16-0.16,0.14-0.27c-0.01-0.11-0.13-0.34-0.35-0.69l-2.09-3.3c-0.2-0.31-0.34-0.5-0.45-0.57s-0.21-0.07-0.33,0
		c-0.13,0.08-0.18,0.19-0.16,0.33c0.02,0.14,0.14,0.37,0.34,0.69l0.52,0.82l0.36-0.23l0.66,1.05l-2.09,1.33l-2.34-3.69l1.12-0.71
		l0.48,0.39c-0.01-0.29,0.04-0.55,0.16-0.77c0.12-0.22,0.3-0.42,0.56-0.58c0.3-0.19,0.63-0.3,0.98-0.32
		c0.35-0.02,0.67,0.04,0.94,0.16s0.5,0.3,0.68,0.52s0.43,0.56,0.73,1.03l1.29,2.04c0.42,0.66,0.68,1.16,0.8,1.5
		c0.12,0.34,0.09,0.74-0.09,1.2c-0.18,0.46-0.53,0.86-1.07,1.2c-0.52,0.33-1.03,0.5-1.51,0.5c-0.48,0-0.87-0.11-1.16-0.34
		c-0.29-0.23-0.62-0.63-0.97-1.19L62.6,75.77z"/>
	<path class="st0" d="M62.54,79.16l-1.38,0.58c-0.92,0.39-1.56,0.62-1.91,0.68c-0.36,0.07-0.7,0-1.03-0.21
		c-0.33-0.21-0.63-0.63-0.9-1.27c-0.25-0.58-0.34-1.01-0.28-1.27c0.06-0.26,0.29-0.5,0.7-0.72c-0.43,0.07-0.74,0.05-0.94-0.06
		c-0.2-0.1-0.35-0.22-0.43-0.34c-0.09-0.12-0.26-0.48-0.52-1.09l-0.84-1.98l1.81-0.76l1.05,2.49c0.17,0.4,0.31,0.64,0.41,0.71
		c0.1,0.07,0.29,0.05,0.56-0.07l-1.43-3.38l1.95-0.82L62.54,79.16z M60.04,78.71l-0.71-1.67c-0.22,0.09-0.36,0.19-0.42,0.29
		c-0.06,0.1-0.02,0.31,0.12,0.64l0.17,0.41c0.1,0.24,0.21,0.38,0.33,0.41S59.82,78.8,60.04,78.71z"/>
	<path class="st0" d="M52.88,82.44l-3.13-7.62l2.1-0.52l0.46,1.39l0.74-0.18l-0.23-1.45l2.13-0.52l0.9,8.16L52.88,82.44z
		 M52.72,77.09c0.33,0.87,0.7,1.95,1.13,3.24c-0.16-1.57-0.31-2.71-0.42-3.42L52.72,77.09z"/>
	<path class="st0" d="M48.49,83.1l-1-8.08l2.1-0.26l1,8.08L48.49,83.1z"/>
	<path class="st0" d="M41.98,83.24l0.13-8.14l1.86,0.03l1.04,3.72l0.06-3.7l1.77,0.03l-0.13,8.14l-1.77-0.03l-1.13-3.68l-0.06,3.67
		L41.98,83.24z"/>
	<path class="st0" d="M38.27,82.85l-3.52-0.68l0.31-1.6l1.44,0.28l0.29-1.52l-1.28-0.25l0.29-1.52l1.28,0.25l0.65-3.36l2.08,0.4
		L38.27,82.85z"/>
	<path class="st0" d="M31.53,81.2l1.97-6.21l-1.23-0.39l0.49-1.55l3.25,1.03l-2.46,7.76L31.53,81.2z"/>
	<path class="st0" d="M25.43,78.62l2.45-7.86l1.95,0.94l-0.53,1.37l0.68,0.33l0.75-1.26l1.97,0.95l-4.51,6.87L25.43,78.62z
		 M28.71,74.39c-0.3,0.88-0.7,1.95-1.19,3.22c0.87-1.31,1.49-2.28,1.85-2.9L28.71,74.39z"/>
	<path class="st0" d="M19.03,74.5l3.09-2.33l1.45-4.43l1.8,1.25l-1.29,3.36l1.99-2.87l1.74,1.21l-4.64,6.69l-1.74-1.21l1.8-2.6
		l-2.58,2.06L19.03,74.5z"/>
	<path class="st0" d="M17.99,73.57l-2.58-2.41l1.11-1.19l1.03,0.96l1.05-1.13l-0.97-0.9l1.06-1.13l0.97,0.9l1.22-1.31l-1.14-1.06
		l1.11-1.19l2.68,2.51L17.99,73.57z"/>
	<path class="st0" d="M12.95,68.39l-2.14-2.88l1.31-0.97l0.88,1.18l1.24-0.92l-0.78-1.05l1.24-0.93l0.78,1.05l2.74-2.04l1.27,1.7
		L12.95,68.39z"/>
	<path class="st0" d="M9.11,62.69l7.01-4.15l1.08,1.82l-7.01,4.15L9.11,62.69z"/>
	<path class="st0" d="M6.28,56.6l7.9-2.23l1.27,2.95l-6.99,4.34l-0.88-2.05c1.96-1.13,3.63-2.05,5.01-2.76
		c-1.48,0.52-2.81,0.96-3.98,1.33l-1.45,0.46L6.28,56.6z"/>
	<path class="st0" d="M5.93,55.34l-0.9-3.41l1.58-0.42l0.36,1.37l1.49-0.39l-0.34-1.28l1.5-0.4l0.34,1.28l1.73-0.46l-0.4-1.5
		l1.58-0.42l0.94,3.55L5.93,55.34z"/>
	<path class="st0" d="M7.13,43.09l0.1,2.11l-0.74,0.04c-0.47,0.02-0.76,0.06-0.87,0.1c-0.12,0.05-0.17,0.14-0.16,0.29
		c0.01,0.13,0.06,0.22,0.16,0.26c0.1,0.04,0.36,0.05,0.78,0.03l3.9-0.19c0.37-0.02,0.6-0.05,0.72-0.11
		c0.11-0.05,0.17-0.15,0.16-0.29c-0.01-0.15-0.08-0.26-0.21-0.3s-0.39-0.06-0.77-0.05l-0.96,0.05l0.02,0.43l-1.24,0.06L7.9,43.05
		l4.36-0.22l0.07,1.33l-0.57,0.22c0.26,0.13,0.46,0.3,0.59,0.52c0.14,0.21,0.21,0.47,0.23,0.77c0.02,0.35-0.05,0.69-0.21,1.01
		c-0.16,0.32-0.36,0.56-0.61,0.74s-0.51,0.29-0.79,0.34c-0.28,0.05-0.7,0.09-1.26,0.12L7.3,48c-0.78,0.04-1.34,0.02-1.7-0.04
		s-0.69-0.29-1-0.67c-0.31-0.38-0.48-0.89-0.52-1.52c-0.03-0.62,0.07-1.14,0.31-1.56c0.23-0.42,0.52-0.7,0.87-0.84
		c0.34-0.14,0.85-0.23,1.52-0.26L7.13,43.09z"/>
	<path class="st0" d="M4.21,41.33l0.18-1.49c0.12-0.99,0.24-1.66,0.36-2c0.12-0.34,0.35-0.6,0.69-0.79
		c0.34-0.18,0.86-0.23,1.55-0.15c0.63,0.08,1.04,0.21,1.24,0.39c0.2,0.18,0.29,0.51,0.28,0.97c0.15-0.4,0.33-0.67,0.52-0.79
		s0.36-0.19,0.51-0.21c0.15-0.02,0.55,0.01,1.2,0.09l2.13,0.26l-0.24,1.95l-2.69-0.33c-0.43-0.05-0.71-0.05-0.82,0
		s-0.19,0.23-0.22,0.52l3.64,0.44l-0.26,2.1L4.21,41.33z M5.85,39.39l1.8,0.22c0.03-0.24,0.02-0.41-0.04-0.51
		c-0.05-0.1-0.26-0.18-0.61-0.22l-0.44-0.05c-0.26-0.03-0.43-0.01-0.52,0.08C5.94,38.99,5.88,39.15,5.85,39.39z"/>
	<path class="st0" d="M6.22,31.28l8.15,1.15l-0.61,2.08l-1.44-0.31l-0.21,0.73l1.37,0.54l-0.62,2.1l-7.5-3.34L6.22,31.28z
		 M10.92,33.84c-0.92-0.16-2.04-0.38-3.37-0.66c1.43,0.65,2.49,1.1,3.16,1.36L10.92,33.84z"/>
	<path class="st0" d="M7.9,27.14l7.46,3.27l-0.85,1.94l-7.46-3.27L7.9,27.14z"/>
	<path class="st0" d="M11.04,21.56l6.97,4.21l-0.96,1.59l-3.74-0.97l3.17,1.91l-0.92,1.52l-6.97-4.21l0.91-1.52l3.75,0.88
		l-3.14-1.89L11.04,21.56z"/>
	<path class="st0" d="M13.47,18.44l2.43-2.64l1.2,1.1l-0.99,1.08l1.14,1.04l0.88-0.96l1.14,1.05l-0.88,0.96l2.52,2.31l-1.43,1.56
		L13.47,18.44z"/>
	<path class="st0" d="M18.42,13.56l4.24,4.94l0.98-0.84l1.06,1.24l-2.58,2.22l-5.3-6.18L18.42,13.56z"/>
	<path class="st0" d="M23.82,9.74l5.4,6.22l-1.82,1.16l-0.88-1.17l-0.64,0.41l0.68,1.3l-1.85,1.18l-3.47-7.45L23.82,9.74z
		 M25.68,14.76c-0.59-0.72-1.29-1.62-2.11-2.71c0.66,1.43,1.15,2.46,1.5,3.1L25.68,14.76z"/>
	<path class="st0" d="M30.69,6.46l0.35,3.86l3,3.57l-2.01,0.87l-2.18-2.86l1.39,3.2l-1.94,0.84l-3.24-7.47l1.94-0.84l1.26,2.9
		l-0.39-3.28L30.69,6.46z"/>
	<path class="st0" d="M32.02,6.07l3.41-0.93l0.43,1.57l-1.36,0.37l0.41,1.49l1.28-0.35l0.41,1.49l-1.28,0.35l0.47,1.73l1.5-0.41
		l0.43,1.57l-3.54,0.97L32.02,6.07z"/>
</g>
</svg>
