<?xml version="1.0" encoding="utf-8"?>
<!-- Generator: Adobe Illustrator 23.1.0, SVG Export Plug-In . SVG Version: 6.00 Build 0)  -->
<svg version="1.1" id="Layer_1" xmlns="http://www.w3.org/2000/svg" xmlns:xlink="http://www.w3.org/1999/xlink" x="0px" y="0px"
	 viewBox="0 0 90 90" style="enable-background:new 0 0 90 90;" xml:space="preserve">
<style type="text/css">
	.st0{fill:#FFFFFF;}
</style>
<g>
	<path class="st0" d="M43.67,2.28l4.07-0.07l0.03,1.85L46.11,4.1l0.03,1.75l1.48-0.02l0.03,1.76l-1.49,0.02l0.06,3.88l-2.41,0.04
		L43.67,2.28z"/>
	<path class="st0" d="M49.52,2.31l1.68,0.24c1.12,0.16,1.88,0.32,2.26,0.46c0.39,0.14,0.68,0.41,0.88,0.81s0.24,0.98,0.13,1.76
		c-0.1,0.71-0.26,1.18-0.47,1.4s-0.58,0.32-1.11,0.29c0.45,0.19,0.75,0.39,0.88,0.61c0.13,0.22,0.21,0.41,0.22,0.58
		c0.02,0.17-0.03,0.62-0.14,1.36l-0.35,2.41l-2.21-0.32l0.44-3.04c0.07-0.49,0.08-0.8,0.02-0.93s-0.25-0.22-0.58-0.26l-0.6,4.13
		l-2.38-0.34L49.52,2.31z M51.67,4.22l-0.29,2.04c0.27,0.04,0.46,0.03,0.58-0.03c0.12-0.06,0.21-0.29,0.26-0.69l0.07-0.5
		c0.04-0.29,0.02-0.49-0.07-0.59S51.95,4.26,51.67,4.22z"/>
	<path class="st0" d="M60.49,10.48c-0.29,0.88-0.53,1.5-0.69,1.85s-0.41,0.64-0.73,0.87c-0.32,0.23-0.69,0.36-1.12,0.4
		c-0.43,0.04-0.89-0.03-1.38-0.19c-0.47-0.16-0.87-0.38-1.19-0.65c-0.32-0.28-0.55-0.61-0.67-0.99c-0.13-0.38-0.15-0.76-0.07-1.14
		c0.08-0.38,0.27-1.02,0.57-1.92l0.5-1.5c0.29-0.88,0.52-1.5,0.69-1.85c0.17-0.35,0.41-0.64,0.73-0.87c0.32-0.23,0.69-0.36,1.12-0.4
		c0.43-0.04,0.89,0.03,1.38,0.19c0.47,0.16,0.87,0.38,1.19,0.65s0.55,0.61,0.67,0.99s0.15,0.76,0.07,1.14
		C61.49,7.43,61.3,8.07,61,8.98L60.49,10.48z M59.18,6.83c0.14-0.41,0.2-0.68,0.19-0.81s-0.08-0.22-0.22-0.26
		c-0.12-0.04-0.23-0.02-0.32,0.05c-0.09,0.07-0.22,0.33-0.37,0.78l-1.37,4.1c-0.17,0.51-0.25,0.83-0.25,0.96
		c0,0.13,0.08,0.23,0.23,0.28c0.16,0.05,0.28,0.02,0.37-0.11c0.09-0.12,0.22-0.44,0.39-0.96L59.18,6.83z"/>
	<path class="st0" d="M66.45,13.64c-0.45,0.81-0.79,1.38-1.01,1.7c-0.22,0.32-0.52,0.56-0.87,0.73c-0.36,0.17-0.75,0.23-1.17,0.19
		s-0.87-0.19-1.32-0.44c-0.43-0.24-0.78-0.52-1.05-0.86c-0.27-0.33-0.43-0.7-0.48-1.1s-0.01-0.78,0.14-1.13
		c0.14-0.36,0.45-0.95,0.91-1.78l0.76-1.39c0.45-0.81,0.79-1.38,1.01-1.7c0.22-0.32,0.52-0.56,0.87-0.73
		c0.36-0.17,0.75-0.23,1.17-0.19c0.43,0.04,0.87,0.19,1.33,0.44c0.43,0.24,0.78,0.52,1.05,0.86c0.27,0.33,0.43,0.7,0.48,1.1
		c0.05,0.4,0.01,0.78-0.13,1.13c-0.14,0.36-0.45,0.95-0.91,1.78L66.45,13.64z M65.81,9.82c0.21-0.38,0.32-0.63,0.34-0.76
		c0.02-0.13-0.04-0.23-0.17-0.3c-0.11-0.06-0.22-0.06-0.32-0.01c-0.1,0.05-0.27,0.29-0.5,0.7l-2.09,3.78
		c-0.26,0.47-0.4,0.77-0.42,0.9c-0.02,0.13,0.04,0.24,0.18,0.31c0.14,0.08,0.27,0.07,0.38-0.04c0.11-0.1,0.3-0.4,0.56-0.87
		L65.81,9.82z"/>
	<path class="st0" d="M74.6,13.13l-1.15,1.45l-1.12-0.89l-4.6,5.8l-1.88-1.49l4.6-5.8l-1.11-0.88l1.15-1.45L74.6,13.13z"/>
	<path class="st0" d="M77.58,16.08l1.07,1.32c0.71,0.88,1.16,1.51,1.35,1.88c0.18,0.37,0.22,0.76,0.1,1.19
		c-0.12,0.42-0.49,0.88-1.1,1.38c-0.56,0.45-0.99,0.69-1.3,0.7c-0.31,0.02-0.64-0.16-1.01-0.54c0.21,0.44,0.29,0.79,0.23,1.04
		c-0.05,0.25-0.13,0.45-0.23,0.58s-0.45,0.44-1.03,0.91l-1.9,1.53l-1.4-1.74l2.39-1.93c0.39-0.31,0.6-0.53,0.64-0.67
		c0.04-0.13-0.04-0.33-0.25-0.59l-3.24,2.62l-1.51-1.87L77.58,16.08z M77.86,18.94l-1.6,1.29c0.17,0.21,0.32,0.33,0.44,0.37
		c0.13,0.04,0.35-0.07,0.66-0.33l0.4-0.32c0.23-0.18,0.34-0.35,0.35-0.48C78.12,19.33,78.04,19.16,77.86,18.94z"/>
	<path class="st0" d="M83.23,23.96l-7.92,4.78l-1.24-2.06l7.92-4.78L83.23,23.96z"/>
	<path class="st0" d="M86.34,30.58l-8.5,3.66l-0.83-1.94l3.37-2.81l-3.86,1.66l-0.79-1.85l8.5-3.66l0.79,1.85l-3.29,2.88l3.83-1.65
		L86.34,30.58z"/>
	<path class="st0" d="M84.97,38.91l-0.54-2.34l0.82-0.19c0.52-0.12,0.83-0.21,0.95-0.29c0.12-0.07,0.16-0.19,0.12-0.36
		c-0.03-0.15-0.11-0.23-0.23-0.26c-0.12-0.03-0.42,0.01-0.88,0.12l-4.33,0.99c-0.4,0.09-0.67,0.18-0.78,0.26
		c-0.12,0.08-0.16,0.2-0.12,0.36c0.04,0.17,0.14,0.27,0.3,0.3c0.16,0.03,0.45-0.01,0.87-0.1l1.07-0.24l-0.11-0.47l1.37-0.31
		l0.63,2.75l-4.84,1.11l-0.34-1.47l0.6-0.36c-0.32-0.1-0.57-0.25-0.76-0.46c-0.2-0.21-0.33-0.48-0.41-0.81
		c-0.09-0.39-0.08-0.78,0.03-1.17c0.11-0.39,0.29-0.7,0.53-0.95c0.24-0.24,0.51-0.42,0.81-0.54s0.76-0.24,1.38-0.39l2.68-0.61
		c0.86-0.2,1.5-0.29,1.91-0.29c0.41,0,0.83,0.19,1.25,0.55c0.42,0.37,0.72,0.9,0.88,1.6c0.16,0.69,0.15,1.29-0.03,1.81
		c-0.18,0.52-0.45,0.89-0.8,1.12s-0.9,0.42-1.64,0.59L84.97,38.91z"/>
	<path class="st0" d="M88.71,42.62l0.07,4.07l-1.85,0.03l-0.03-1.67l-1.75,0.03l0.02,1.49l-1.76,0.03l-0.02-1.49l-3.88,0.06
		l-0.04-2.4L88.71,42.62z"/>
	<path class="st0" d="M88.69,48.46l-0.24,1.69c-0.16,1.12-0.31,1.88-0.46,2.26c-0.14,0.38-0.41,0.68-0.8,0.88
		c-0.39,0.2-0.98,0.24-1.76,0.13c-0.71-0.1-1.18-0.26-1.4-0.47s-0.32-0.58-0.29-1.11c-0.18,0.46-0.39,0.75-0.61,0.88
		c-0.22,0.13-0.41,0.21-0.58,0.23c-0.17,0.02-0.62-0.03-1.36-0.13l-2.42-0.35l0.32-2.21l3.04,0.44c0.49,0.07,0.8,0.07,0.93,0.01
		s0.22-0.26,0.26-0.58l-4.13-0.59l0.34-2.38L88.69,48.46z M86.78,50.61l-2.04-0.29c-0.04,0.27-0.03,0.46,0.03,0.58
		c0.06,0.12,0.29,0.21,0.69,0.26l0.5,0.07c0.29,0.04,0.49,0.02,0.59-0.07C86.67,51.07,86.74,50.89,86.78,50.61z"/>
	<path class="st0" d="M80.54,59.45c-0.88-0.29-1.5-0.52-1.85-0.69c-0.35-0.16-0.64-0.41-0.88-0.72c-0.23-0.32-0.37-0.69-0.4-1.12
		c-0.04-0.43,0.03-0.89,0.19-1.38c0.16-0.47,0.37-0.87,0.65-1.19c0.28-0.32,0.61-0.55,0.99-0.67s0.76-0.15,1.14-0.07
		s1.02,0.27,1.92,0.57l1.5,0.5c0.88,0.29,1.5,0.52,1.85,0.69c0.35,0.16,0.65,0.41,0.88,0.72c0.23,0.32,0.37,0.69,0.4,1.12
		c0.04,0.43-0.02,0.89-0.19,1.38c-0.16,0.47-0.37,0.87-0.65,1.19c-0.28,0.32-0.61,0.55-0.99,0.67s-0.76,0.15-1.14,0.07
		c-0.38-0.08-1.02-0.27-1.92-0.57L80.54,59.45z M84.18,58.13c0.41,0.14,0.68,0.2,0.81,0.19c0.13-0.01,0.22-0.08,0.26-0.22
		c0.04-0.12,0.02-0.23-0.05-0.32c-0.07-0.09-0.33-0.22-0.78-0.37l-4.1-1.37c-0.51-0.17-0.83-0.25-0.96-0.25s-0.22,0.08-0.28,0.23
		c-0.05,0.16-0.02,0.28,0.11,0.37c0.12,0.09,0.44,0.22,0.96,0.39L84.18,58.13z"/>
	<path class="st0" d="M77.38,65.41c-0.81-0.45-1.38-0.78-1.7-1.01c-0.32-0.22-0.56-0.51-0.73-0.87c-0.17-0.36-0.23-0.75-0.2-1.17
		c0.04-0.43,0.18-0.87,0.44-1.33c0.24-0.43,0.52-0.78,0.86-1.05c0.33-0.27,0.7-0.43,1.1-0.48c0.4-0.05,0.78-0.01,1.13,0.13
		c0.36,0.14,0.95,0.44,1.78,0.9l1.39,0.76c0.81,0.45,1.38,0.78,1.7,1.01c0.32,0.22,0.56,0.51,0.73,0.87
		c0.17,0.36,0.23,0.75,0.2,1.17c-0.04,0.43-0.18,0.87-0.44,1.33c-0.24,0.43-0.52,0.78-0.86,1.05c-0.33,0.27-0.7,0.43-1.1,0.48
		c-0.4,0.05-0.78,0.01-1.13-0.13s-0.95-0.45-1.79-0.9L77.38,65.41z M81.21,64.76c0.38,0.21,0.63,0.32,0.76,0.34
		c0.13,0.02,0.23-0.04,0.3-0.17c0.06-0.11,0.06-0.22,0.01-0.32c-0.05-0.11-0.29-0.27-0.71-0.5l-3.78-2.08
		c-0.47-0.26-0.77-0.4-0.9-0.42c-0.13-0.02-0.24,0.04-0.31,0.18c-0.08,0.14-0.07,0.27,0.04,0.38c0.1,0.11,0.4,0.3,0.87,0.56
		L81.21,64.76z"/>
	<path class="st0" d="M77.91,73.56l-1.45-1.15l0.89-1.12l-5.8-4.59l1.49-1.89l5.8,4.59l0.88-1.12l1.45,1.15L77.91,73.56z"/>
	<path class="st0" d="M74.94,76.57l-1.32,1.07c-0.88,0.71-1.51,1.16-1.87,1.35c-0.37,0.18-0.76,0.22-1.19,0.1
		c-0.42-0.12-0.88-0.49-1.38-1.1c-0.45-0.56-0.69-0.99-0.7-1.3c-0.02-0.31,0.16-0.64,0.54-1.01c-0.44,0.21-0.79,0.29-1.04,0.24
		c-0.25-0.05-0.45-0.13-0.58-0.23c-0.14-0.1-0.44-0.45-0.91-1.03l-1.53-1.9l1.74-1.41l1.93,2.39c0.31,0.38,0.53,0.6,0.67,0.64
		c0.13,0.04,0.33-0.04,0.59-0.25l-2.62-3.24l1.87-1.51L74.94,76.57z M72.08,76.85l-1.29-1.6c-0.21,0.17-0.33,0.32-0.37,0.44
		c-0.04,0.13,0.07,0.35,0.33,0.66l0.32,0.4c0.18,0.23,0.35,0.34,0.49,0.35C71.68,77.11,71.86,77.02,72.08,76.85z"/>
	<path class="st0" d="M67.09,82.21l-4.79-7.91l2.06-1.25l4.79,7.91L67.09,82.21z"/>
	<path class="st0" d="M60.47,85.32l-3.67-8.49l1.93-0.84l2.82,3.36l-1.67-3.86l1.85-0.8l3.67,8.49l-1.85,0.8l-2.89-3.29l1.65,3.82
		L60.47,85.32z"/>
	<path class="st0" d="M52.14,83.96l2.34-0.54l0.19,0.82c0.12,0.52,0.21,0.83,0.29,0.95c0.07,0.12,0.2,0.16,0.36,0.12
		c0.14-0.03,0.23-0.11,0.26-0.23c0.03-0.12-0.01-0.42-0.12-0.88l-1-4.33c-0.09-0.41-0.18-0.67-0.26-0.78
		c-0.08-0.12-0.2-0.16-0.36-0.12c-0.17,0.04-0.27,0.14-0.3,0.3c-0.03,0.16,0.01,0.45,0.1,0.87l0.25,1.07l0.47-0.11l0.32,1.37
		l-2.75,0.63l-1.11-4.84l1.47-0.34l0.37,0.6c0.1-0.31,0.25-0.57,0.46-0.77c0.21-0.19,0.48-0.33,0.81-0.41
		c0.39-0.09,0.78-0.08,1.17,0.03s0.7,0.29,0.95,0.53c0.24,0.24,0.42,0.51,0.54,0.81c0.12,0.3,0.25,0.76,0.39,1.38l0.62,2.68
		c0.2,0.86,0.3,1.5,0.29,1.91c0,0.41-0.19,0.83-0.55,1.26c-0.37,0.43-0.9,0.72-1.59,0.88c-0.69,0.16-1.29,0.15-1.81-0.03
		c-0.52-0.18-0.89-0.45-1.12-0.8s-0.42-0.9-0.59-1.64L52.14,83.96z"/>
	<path class="st0" d="M48.4,87.71l-4.07,0.07l-0.03-1.85l1.67-0.03l-0.03-1.75l-1.49,0.02l-0.03-1.76l1.48-0.02l-0.06-3.88
		l2.41-0.04L48.4,87.71z"/>
	<path class="st0" d="M42.61,87.7l-1.69-0.24c-1.12-0.16-1.88-0.31-2.26-0.45c-0.39-0.14-0.68-0.41-0.88-0.8
		c-0.2-0.39-0.25-0.98-0.13-1.76c0.1-0.71,0.26-1.18,0.47-1.4s0.58-0.32,1.11-0.29c-0.45-0.18-0.75-0.38-0.88-0.6
		c-0.13-0.22-0.21-0.41-0.23-0.58c-0.02-0.17,0.03-0.63,0.13-1.36l0.34-2.42l2.21,0.31l-0.43,3.04c-0.07,0.49-0.07,0.8-0.01,0.93
		c0.06,0.13,0.26,0.21,0.58,0.26l0.58-4.13l2.38,0.34L42.61,87.7z M40.45,85.79l0.29-2.04c-0.27-0.04-0.46-0.03-0.58,0.03
		c-0.12,0.06-0.21,0.29-0.26,0.69l-0.07,0.5c-0.04,0.29-0.02,0.49,0.07,0.59C39.99,85.68,40.17,85.75,40.45,85.79z"/>
	<path class="st0" d="M31.6,79.57c0.29-0.88,0.52-1.5,0.68-1.85s0.4-0.65,0.72-0.88c0.32-0.23,0.69-0.37,1.12-0.41
		s0.89,0.02,1.38,0.19c0.47,0.16,0.87,0.37,1.19,0.65s0.55,0.61,0.67,0.99c0.13,0.38,0.15,0.76,0.07,1.14
		c-0.08,0.38-0.26,1.02-0.56,1.92l-0.5,1.5c-0.29,0.88-0.52,1.5-0.68,1.85c-0.16,0.35-0.4,0.65-0.72,0.88
		c-0.32,0.23-0.69,0.37-1.12,0.41c-0.43,0.04-0.89-0.02-1.38-0.19c-0.47-0.16-0.87-0.37-1.19-0.65c-0.32-0.28-0.55-0.61-0.67-0.99
		c-0.13-0.38-0.15-0.76-0.07-1.14c0.08-0.38,0.26-1.02,0.56-1.92L31.6,79.57z M32.93,83.21c-0.14,0.41-0.2,0.68-0.19,0.81
		c0.01,0.13,0.08,0.22,0.22,0.26c0.12,0.04,0.23,0.02,0.32-0.05s0.22-0.33,0.37-0.79l1.36-4.1c0.17-0.51,0.25-0.83,0.25-0.96
		s-0.08-0.22-0.23-0.28c-0.16-0.05-0.28-0.02-0.37,0.11s-0.22,0.44-0.39,0.96L32.93,83.21z"/>
	<path class="st0" d="M25.64,76.42c0.45-0.82,0.78-1.38,1.01-1.7c0.22-0.32,0.51-0.56,0.87-0.73c0.36-0.17,0.75-0.24,1.17-0.2
		c0.43,0.04,0.87,0.18,1.33,0.43c0.43,0.24,0.79,0.52,1.05,0.85c0.27,0.33,0.43,0.7,0.48,1.1c0.05,0.4,0.01,0.78-0.13,1.13
		c-0.14,0.36-0.44,0.95-0.9,1.79l-0.76,1.39c-0.45,0.81-0.78,1.38-1.01,1.7c-0.22,0.32-0.51,0.56-0.87,0.73s-0.75,0.24-1.17,0.2
		s-0.87-0.18-1.33-0.43c-0.43-0.24-0.79-0.52-1.05-0.85c-0.27-0.33-0.43-0.7-0.48-1.1s-0.01-0.78,0.13-1.13
		c0.14-0.36,0.44-0.95,0.9-1.79L25.64,76.42z M26.28,80.24c-0.21,0.38-0.32,0.63-0.33,0.76s0.04,0.23,0.17,0.3
		c0.11,0.06,0.22,0.06,0.32,0.01c0.1-0.05,0.27-0.29,0.5-0.71l2.08-3.79c0.26-0.47,0.4-0.77,0.42-0.9c0.02-0.13-0.04-0.24-0.18-0.31
		c-0.14-0.08-0.27-0.07-0.38,0.04c-0.11,0.11-0.29,0.4-0.56,0.87L26.28,80.24z"/>
	<path class="st0" d="M17.48,76.96l1.15-1.45l1.12,0.88l4.58-5.81l1.89,1.49l-4.58,5.81l1.12,0.88l-1.15,1.45L17.48,76.96z"/>
	<path class="st0" d="M14.47,74l-1.07-1.32c-0.71-0.88-1.17-1.51-1.35-1.87c-0.19-0.37-0.22-0.76-0.1-1.19
		c0.12-0.42,0.49-0.88,1.1-1.38c0.56-0.45,0.99-0.69,1.3-0.71c0.3-0.02,0.64,0.16,1.01,0.54c-0.21-0.44-0.29-0.79-0.24-1.04
		c0.05-0.25,0.13-0.45,0.23-0.58s0.44-0.44,1.02-0.91L18.27,64l1.41,1.73l-2.39,1.94c-0.38,0.31-0.6,0.54-0.64,0.67
		c-0.04,0.13,0.04,0.33,0.25,0.59l3.24-2.63l1.52,1.87L14.47,74z M14.18,71.13l1.6-1.3c-0.17-0.21-0.32-0.33-0.44-0.37
		s-0.35,0.07-0.66,0.33l-0.39,0.32c-0.23,0.18-0.34,0.35-0.35,0.49S14.01,70.92,14.18,71.13z"/>
	<path class="st0" d="M8.82,66.15l7.9-4.8l1.25,2.06l-7.9,4.8L8.82,66.15z"/>
	<path class="st0" d="M5.7,59.54l8.49-3.68l0.84,1.93l-3.36,2.82l3.86-1.67l0.8,1.84l-8.49,3.68l-0.8-1.84l3.28-2.89L6.5,61.39
		L5.7,59.54z"/>
	<path class="st0" d="M7.04,51.21l0.54,2.34l-0.82,0.19c-0.52,0.12-0.83,0.22-0.95,0.29s-0.16,0.2-0.12,0.36
		c0.03,0.14,0.11,0.23,0.24,0.26c0.12,0.03,0.42-0.01,0.88-0.12l4.32-1c0.4-0.09,0.66-0.18,0.78-0.26c0.12-0.08,0.16-0.2,0.12-0.36
		c-0.04-0.17-0.14-0.27-0.3-0.3c-0.16-0.03-0.45,0.01-0.87,0.1l-1.07,0.25l0.11,0.47l-1.37,0.32L7.9,51.01l4.84-1.12l0.34,1.47
		l-0.6,0.37c0.31,0.09,0.57,0.25,0.77,0.46c0.2,0.21,0.33,0.48,0.41,0.81c0.09,0.39,0.08,0.78-0.03,1.17s-0.29,0.7-0.53,0.95
		c-0.24,0.24-0.51,0.42-0.81,0.54c-0.3,0.12-0.76,0.25-1.38,0.39l-2.68,0.62c-0.86,0.2-1.5,0.3-1.91,0.3
		c-0.41,0-0.83-0.19-1.26-0.55c-0.43-0.36-0.72-0.9-0.88-1.59c-0.16-0.69-0.15-1.29,0.03-1.81c0.18-0.52,0.44-0.89,0.8-1.12
		c0.36-0.23,0.9-0.43,1.64-0.6L7.04,51.21z"/>
	<path class="st0" d="M3.28,47.49l-0.07-4.07l1.85-0.03l0.03,1.67l1.75-0.03l-0.02-1.49l1.76-0.03l0.02,1.48l3.88-0.06l0.04,2.4
		L3.28,47.49z"/>
	<path class="st0" d="M3.29,41.68l0.24-1.69c0.16-1.12,0.31-1.88,0.45-2.26s0.41-0.68,0.8-0.88c0.39-0.2,0.98-0.25,1.76-0.14
		c0.71,0.1,1.18,0.26,1.4,0.47c0.22,0.21,0.32,0.58,0.29,1.11c0.18-0.46,0.38-0.75,0.6-0.88c0.22-0.13,0.41-0.21,0.58-0.23
		c0.17-0.02,0.62,0.03,1.36,0.13l2.42,0.34l-0.31,2.21l-3.04-0.43c-0.49-0.07-0.8-0.07-0.93-0.01C8.79,39.48,8.7,39.67,8.65,40
		l4.13,0.58l-0.33,2.38L3.29,41.68z M5.19,39.52l2.04,0.29c0.04-0.27,0.03-0.46-0.03-0.58c-0.06-0.12-0.29-0.21-0.69-0.26L6,38.89
		c-0.29-0.04-0.49-0.02-0.59,0.08C5.3,39.06,5.23,39.24,5.19,39.52z"/>
	<path class="st0" d="M11.42,30.63c0.88,0.29,1.5,0.52,1.85,0.68c0.35,0.16,0.65,0.4,0.88,0.72c0.23,0.32,0.37,0.69,0.41,1.12
		s-0.02,0.89-0.19,1.38c-0.16,0.47-0.37,0.87-0.65,1.19s-0.61,0.55-0.99,0.67c-0.38,0.13-0.76,0.15-1.14,0.08s-1.02-0.26-1.92-0.56
		l-1.5-0.5c-0.88-0.29-1.5-0.52-1.85-0.68c-0.35-0.16-0.65-0.4-0.88-0.72s-0.37-0.69-0.41-1.12c-0.04-0.43,0.02-0.89,0.19-1.38
		c0.16-0.47,0.37-0.87,0.65-1.19c0.28-0.32,0.61-0.55,0.99-0.67c0.38-0.13,0.76-0.15,1.14-0.07s1.02,0.26,1.92,0.56L11.42,30.63z
		 M7.77,31.96c-0.41-0.14-0.68-0.2-0.81-0.19c-0.13,0.01-0.22,0.08-0.26,0.22c-0.04,0.12-0.02,0.23,0.05,0.32s0.33,0.22,0.79,0.36
		l4.1,1.36c0.51,0.17,0.83,0.25,0.96,0.25c0.13,0,0.22-0.08,0.27-0.23c0.05-0.16,0.02-0.28-0.11-0.37s-0.44-0.22-0.96-0.39
		L7.77,31.96z"/>
	<path class="st0" d="M14.54,24.69c0.82,0.45,1.38,0.78,1.7,1c0.32,0.22,0.56,0.51,0.73,0.87c0.17,0.36,0.24,0.75,0.2,1.17
		s-0.18,0.87-0.43,1.33c-0.24,0.43-0.52,0.79-0.85,1.05s-0.7,0.43-1.1,0.49c-0.4,0.06-0.78,0.01-1.13-0.13s-0.95-0.44-1.79-0.9
		l-1.39-0.76c-0.82-0.45-1.38-0.78-1.7-1c-0.32-0.22-0.56-0.51-0.73-0.87c-0.17-0.36-0.24-0.75-0.2-1.17s0.18-0.87,0.43-1.33
		c0.24-0.43,0.52-0.79,0.85-1.05c0.33-0.27,0.7-0.43,1.1-0.49c0.4-0.06,0.78-0.01,1.13,0.13s0.95,0.44,1.79,0.9L14.54,24.69z
		 M10.72,25.34c-0.38-0.21-0.63-0.32-0.76-0.33c-0.13-0.02-0.23,0.04-0.3,0.17C9.61,25.29,9.6,25.4,9.66,25.5s0.29,0.27,0.71,0.5
		l3.79,2.07c0.47,0.26,0.77,0.4,0.9,0.42c0.13,0.02,0.24-0.04,0.31-0.18c0.08-0.14,0.07-0.27-0.04-0.38
		c-0.1-0.11-0.4-0.29-0.87-0.56L10.72,25.34z"/>
	<path class="st0" d="M13.99,16.54l1.46,1.14l-0.88,1.12l5.82,4.57l-1.49,1.89l-5.82-4.57l-0.88,1.12l-1.46-1.14L13.99,16.54z"/>
	<path class="st0" d="M16.95,13.52l1.32-1.07c0.88-0.72,1.5-1.17,1.87-1.35c0.37-0.19,0.76-0.22,1.19-0.1
		c0.42,0.12,0.88,0.48,1.38,1.1c0.45,0.56,0.69,0.99,0.71,1.29c0.02,0.3-0.16,0.64-0.54,1.01c0.44-0.21,0.79-0.29,1.04-0.24
		c0.25,0.05,0.45,0.13,0.58,0.23c0.14,0.1,0.44,0.44,0.91,1.02l1.54,1.89l-1.73,1.41l-1.94-2.38c-0.31-0.38-0.54-0.6-0.67-0.64
		c-0.14-0.04-0.33,0.04-0.59,0.25l2.63,3.23l-1.87,1.52L16.95,13.52z M19.82,13.23l1.3,1.59c0.21-0.17,0.33-0.32,0.37-0.44
		c0.04-0.13-0.07-0.35-0.33-0.66l-0.32-0.39c-0.19-0.23-0.35-0.34-0.49-0.35C20.21,12.97,20.03,13.05,19.82,13.23z"/>
	<path class="st0" d="M24.79,7.86l4.81,7.9L27.55,17l-4.81-7.9L24.79,7.86z"/>
	<path class="st0" d="M31.42,4.71l3.69,8.48l-1.93,0.84l-2.82-3.36l1.68,3.86l-1.84,0.8L26.5,6.85l1.84-0.8l2.9,3.28l-1.66-3.82
		L31.42,4.71z"/>
	<path class="st0" d="M39.73,6.06L37.38,6.6l-0.19-0.82c-0.12-0.52-0.22-0.83-0.29-0.95c-0.07-0.12-0.2-0.16-0.36-0.12
		c-0.14,0.03-0.23,0.11-0.26,0.24c-0.03,0.12,0.01,0.42,0.12,0.88l1.01,4.32c0.09,0.4,0.18,0.66,0.26,0.78
		c0.08,0.12,0.2,0.16,0.36,0.12c0.17-0.04,0.27-0.14,0.3-0.3c0.03-0.16-0.01-0.45-0.11-0.87l-0.25-1.07L37.5,8.92l-0.32-1.37
		l2.74-0.64l1.13,4.83l-1.47,0.34l-0.37-0.59c-0.09,0.32-0.25,0.57-0.46,0.77c-0.21,0.2-0.48,0.33-0.81,0.41
		c-0.39,0.09-0.78,0.08-1.17-0.03c-0.39-0.11-0.7-0.29-0.95-0.53c-0.24-0.24-0.42-0.51-0.54-0.81s-0.25-0.76-0.39-1.38l-0.62-2.68
		c-0.2-0.86-0.3-1.5-0.3-1.91s0.19-0.83,0.55-1.26c0.36-0.43,0.89-0.72,1.59-0.88c0.69-0.16,1.29-0.15,1.81,0.02
		c0.52,0.18,0.89,0.44,1.12,0.8c0.23,0.36,0.43,0.9,0.6,1.64L39.73,6.06z"/>
</g>
</svg>
