<?xml version="1.0" encoding="utf-8"?>
<!-- Generator: Adobe Illustrator 23.1.0, SVG Export Plug-In . SVG Version: 6.00 Build 0)  -->
<svg version="1.1" id="Layer_1" xmlns="http://www.w3.org/2000/svg" xmlns:xlink="http://www.w3.org/1999/xlink" x="0px" y="0px"
	 viewBox="0 0 90 90" style="enable-background:new 0 0 90 90;" xml:space="preserve">
<style type="text/css">
	.st0{fill:#FFFFFF;}
</style>
<g>
	<path class="st0" d="M49.16,6.94l-2.77-0.07l0.02-0.97c0.01-0.61,0-0.99-0.05-1.15c-0.05-0.16-0.17-0.23-0.37-0.24
		c-0.17,0-0.29,0.06-0.35,0.19c-0.06,0.13-0.1,0.47-0.12,1.01l-0.12,5.12c-0.01,0.48,0.01,0.79,0.07,0.95
		c0.06,0.15,0.18,0.23,0.36,0.24c0.2,0,0.34-0.08,0.42-0.25s0.12-0.5,0.13-1l0.03-1.27l-0.56-0.01l0.04-1.62l3.25,0.08L49,13.68
		l-1.74-0.04l-0.24-0.77c-0.2,0.32-0.44,0.57-0.73,0.72c-0.29,0.16-0.63,0.23-1.02,0.22c-0.47-0.01-0.9-0.13-1.3-0.37
		c-0.4-0.24-0.7-0.52-0.91-0.86s-0.33-0.69-0.37-1.06s-0.06-0.92-0.04-1.65l0.08-3.17c0.02-1.02,0.1-1.76,0.22-2.22
		c0.12-0.46,0.45-0.87,0.98-1.25c0.53-0.37,1.21-0.55,2.03-0.53c0.81,0.02,1.48,0.2,2.01,0.55S48.83,4,48.98,4.47
		c0.15,0.46,0.22,1.13,0.2,2.01L49.16,6.94z"/>
	<path class="st0" d="M52.06,3.38l1.91,0.45c1.27,0.3,2.13,0.56,2.55,0.76s0.74,0.54,0.92,1.02c0.19,0.47,0.18,1.15-0.03,2.03
		c-0.19,0.81-0.42,1.33-0.69,1.56c-0.27,0.23-0.7,0.3-1.31,0.22c0.5,0.26,0.82,0.52,0.95,0.79c0.13,0.27,0.2,0.5,0.2,0.69
		c0,0.2-0.1,0.71-0.3,1.55l-0.65,2.74l-2.51-0.59l0.82-3.45c0.13-0.56,0.17-0.91,0.11-1.06c-0.06-0.15-0.27-0.27-0.64-0.36
		L52.3,14.4l-2.7-0.64L52.06,3.38z M54.34,5.79L53.79,8.1c0.3,0.07,0.53,0.08,0.67,0.03s0.27-0.31,0.38-0.77l0.14-0.57
		c0.08-0.33,0.07-0.56-0.02-0.69C54.85,5.97,54.65,5.87,54.34,5.79z"/>
	<path class="st0" d="M65.04,7.76l-3.07,10.34l-2.57-1.2l0.67-1.8l-0.9-0.42l-0.96,1.67l-2.6-1.21l5.79-9.08L65.04,7.76z
		 M60.81,13.36c0.38-1.16,0.89-2.57,1.51-4.24c-1.12,1.73-1.91,3.01-2.38,3.84L60.81,13.36z"/>
	<path class="st0" d="M70.23,10.98l-5.94,8.87l-2.31-1.55l5.94-8.87L70.23,10.98z"/>
	<path class="st0" d="M76.77,16.64l-7.29,7.79l-1.78-1.66l2.26-4.53l-3.32,3.54l-1.69-1.59l7.29-7.79l1.69,1.59l-2.15,4.57
		l3.28-3.51L76.77,16.64z"/>
	<path class="st0" d="M80.64,27.86l-1.32-2.21L80,25.25c0.32-0.19,0.5-0.34,0.55-0.45s0.04-0.23-0.04-0.36
		c-0.09-0.14-0.21-0.22-0.37-0.22c-0.16,0-0.36,0.07-0.6,0.21c-0.31,0.18-0.51,0.36-0.62,0.54c-0.11,0.17-0.16,0.51-0.16,1.01
		c0.01,1.44-0.11,2.41-0.35,2.93c-0.24,0.52-0.81,1.04-1.71,1.58c-0.65,0.39-1.18,0.6-1.58,0.63s-0.84-0.11-1.31-0.42
		c-0.47-0.31-0.88-0.76-1.23-1.34c-0.38-0.64-0.59-1.25-0.62-1.85c-0.03-0.6,0.1-1.07,0.39-1.44c0.29-0.36,0.78-0.75,1.46-1.16
		l0.6-0.36l1.32,2.21l-1.11,0.67c-0.34,0.21-0.55,0.37-0.61,0.49c-0.06,0.12-0.04,0.26,0.05,0.42c0.09,0.16,0.23,0.24,0.4,0.24
		c0.17,0,0.38-0.07,0.62-0.22c0.54-0.32,0.85-0.61,0.93-0.85c0.08-0.25,0.13-0.79,0.16-1.61c0.04-0.83,0.09-1.39,0.15-1.69
		c0.06-0.3,0.21-0.6,0.45-0.92s0.6-0.62,1.09-0.91c0.7-0.42,1.27-0.64,1.7-0.65c0.43-0.02,0.86,0.12,1.28,0.41
		c0.42,0.29,0.8,0.72,1.14,1.28c0.37,0.62,0.59,1.21,0.65,1.76s-0.02,0.99-0.24,1.32c-0.22,0.32-0.69,0.7-1.42,1.14L80.64,27.86z"/>
	<path class="st0" d="M86.43,33.99l-2.01,0.71l-0.55-1.55L75.82,36l-0.93-2.62l8.04-2.86l-0.55-1.55l2.01-0.71L86.43,33.99z"/>
	<path class="st0" d="M81.66,43.41c-1.06,0.14-1.82,0.22-2.27,0.23c-0.45,0.01-0.87-0.09-1.28-0.31c-0.4-0.21-0.73-0.53-0.99-0.95
		s-0.43-0.93-0.51-1.53c-0.08-0.57-0.05-1.09,0.07-1.56c0.12-0.48,0.35-0.88,0.69-1.2s0.71-0.54,1.14-0.65
		c0.43-0.11,1.19-0.24,2.28-0.39l1.81-0.25c1.06-0.14,1.82-0.22,2.27-0.23c0.45-0.01,0.87,0.09,1.28,0.31s0.73,0.53,0.99,0.95
		s0.43,0.93,0.51,1.53c0.08,0.57,0.05,1.09-0.07,1.56c-0.12,0.48-0.35,0.88-0.69,1.2c-0.33,0.32-0.71,0.54-1.14,0.65
		c-0.43,0.11-1.19,0.24-2.28,0.39L81.66,43.41z M84.76,40.19c0.49-0.07,0.8-0.14,0.93-0.21c0.13-0.07,0.18-0.19,0.16-0.36
		c-0.02-0.14-0.09-0.25-0.21-0.31c-0.12-0.06-0.46-0.05-1,0.02L79.7,40c-0.61,0.08-0.99,0.16-1.13,0.23
		c-0.14,0.07-0.19,0.2-0.17,0.38c0.03,0.19,0.12,0.3,0.3,0.33s0.57,0,1.19-0.08L84.76,40.19z"/>
	<path class="st0" d="M87.91,45.44l-0.17,1.96c-0.11,1.31-0.24,2.18-0.38,2.64s-0.43,0.81-0.87,1.06s-1.11,0.35-2.02,0.27
		c-0.83-0.07-1.38-0.22-1.64-0.45c-0.27-0.23-0.4-0.65-0.41-1.26c-0.18,0.54-0.39,0.89-0.64,1.06c-0.24,0.17-0.46,0.27-0.66,0.3
		c-0.19,0.03-0.72,0.01-1.58-0.06l-2.8-0.24l0.22-2.57l3.53,0.3c0.57,0.05,0.92,0.03,1.07-0.04c0.14-0.08,0.23-0.31,0.26-0.69
		l-4.79-0.4l0.23-2.77L87.91,45.44z M85.86,48.05l-2.36-0.2c-0.03,0.31,0,0.53,0.07,0.67c0.08,0.13,0.35,0.22,0.82,0.26l0.58,0.05
		c0.34,0.03,0.56-0.01,0.68-0.13S85.83,48.37,85.86,48.05z"/>
	<path class="st0" d="M85.13,60.03l-5.94-3.89l-3.7-1.11l0.74-2.46l3.7,1.11L87,53.75l-0.73,2.44c-2.11-0.21-3.52-0.4-4.22-0.56
		c1.05,0.47,2.32,1.12,3.81,1.95L85.13,60.03z"/>
	<path class="st0" d="M76.22,67.96l1.5-2.34l0.82,0.52c0.51,0.33,0.85,0.51,1.01,0.55c0.16,0.04,0.29-0.03,0.4-0.19
		c0.09-0.14,0.1-0.28,0.02-0.4c-0.08-0.12-0.35-0.33-0.8-0.63l-4.32-2.76c-0.4-0.26-0.69-0.4-0.85-0.43
		c-0.16-0.03-0.29,0.03-0.39,0.19c-0.11,0.17-0.11,0.33,0,0.49c0.11,0.15,0.37,0.36,0.79,0.63l1.07,0.68l0.3-0.47l1.37,0.87
		l-1.75,2.74l-4.83-3.09l0.94-1.47l0.78,0.2c-0.18-0.34-0.26-0.67-0.24-1c0.02-0.33,0.13-0.66,0.34-0.99
		c0.25-0.39,0.58-0.7,0.99-0.92c0.41-0.22,0.81-0.33,1.21-0.33c0.39,0,0.76,0.08,1.1,0.23s0.82,0.43,1.43,0.82l2.67,1.71
		c0.86,0.55,1.45,0.99,1.78,1.34c0.33,0.34,0.52,0.83,0.56,1.48c0.04,0.65-0.16,1.32-0.6,2.01c-0.44,0.68-0.94,1.16-1.51,1.43
		c-0.57,0.27-1.09,0.35-1.57,0.24c-0.47-0.11-1.08-0.4-1.82-0.87L76.22,67.96z"/>
	<path class="st0" d="M77.71,72.3l-1.39,1.39c-0.93,0.93-1.59,1.52-1.99,1.77s-0.85,0.34-1.35,0.25c-0.5-0.09-1.07-0.45-1.72-1.09
		c-0.59-0.59-0.91-1.05-0.97-1.4c-0.06-0.35,0.11-0.76,0.5-1.23c-0.48,0.29-0.87,0.42-1.17,0.4c-0.3-0.03-0.53-0.09-0.7-0.2
		s-0.56-0.46-1.17-1.07l-1.99-1.99l1.82-1.82l2.51,2.51c0.4,0.4,0.69,0.62,0.85,0.65c0.16,0.03,0.38-0.09,0.65-0.36l-3.41-3.4
		l1.96-1.96L77.71,72.3z M74.46,72.98l-1.68-1.68c-0.22,0.22-0.34,0.41-0.37,0.55c-0.03,0.15,0.13,0.39,0.46,0.72l0.42,0.41
		c0.24,0.24,0.44,0.35,0.6,0.34C74.04,73.32,74.24,73.2,74.46,72.98z"/>
	<path class="st0" d="M67.13,81.08l-7.18-8.05l2.37-1.56l1.18,1.52l0.83-0.54l-0.91-1.7l2.4-1.57l4.67,9.7L67.13,81.08z
		 M64.59,74.53c0.78,0.93,1.72,2.11,2.81,3.52c-0.88-1.86-1.56-3.21-2.01-4.04L64.59,74.53z"/>
	<path class="st0" d="M61.66,83.8l-4.41-9.72l2.53-1.15l4.41,9.72L61.66,83.8z"/>
	<path class="st0" d="M53.41,86.38l-2.79-10.3l2.35-0.64l2.66,4.3l-1.27-4.68l2.24-0.61l2.79,10.3l-2.24,0.61l-2.76-4.23l1.26,4.64
		L53.41,86.38z"/>
	<path class="st0" d="M41.78,83.8l2.58,0.04l-0.01,0.79c-0.01,0.37,0.02,0.6,0.09,0.71c0.06,0.1,0.17,0.15,0.33,0.16
		c0.17,0,0.29-0.06,0.38-0.2c0.09-0.13,0.13-0.34,0.14-0.62c0.01-0.36-0.04-0.63-0.13-0.81c-0.09-0.18-0.35-0.4-0.77-0.67
		c-1.22-0.75-1.99-1.37-2.31-1.84c-0.31-0.48-0.46-1.24-0.44-2.28c0.01-0.76,0.11-1.32,0.29-1.68s0.53-0.65,1.05-0.89
		s1.11-0.35,1.79-0.34c0.74,0.01,1.38,0.16,1.89,0.45c0.52,0.29,0.86,0.65,1.01,1.09c0.16,0.44,0.23,1.06,0.21,1.86l-0.01,0.7
		l-2.58-0.04l0.02-1.3c0.01-0.4-0.03-0.66-0.1-0.77c-0.07-0.12-0.2-0.17-0.38-0.18c-0.18,0-0.32,0.07-0.42,0.21
		s-0.14,0.36-0.15,0.64c-0.01,0.63,0.07,1.04,0.24,1.24c0.17,0.2,0.6,0.53,1.28,0.99c0.68,0.47,1.13,0.81,1.35,1.02
		s0.4,0.5,0.54,0.87s0.21,0.83,0.2,1.4c-0.01,0.82-0.13,1.41-0.34,1.79c-0.21,0.37-0.56,0.67-1.03,0.87
		c-0.47,0.21-1.03,0.3-1.69,0.29c-0.72-0.01-1.33-0.14-1.84-0.38c-0.5-0.24-0.84-0.54-0.99-0.9s-0.23-0.96-0.22-1.81L41.78,83.8z"/>
	<path class="st0" d="M33.72,85.71l0.41-2.1l1.62,0.31l1.62-8.38l2.72,0.53l-1.62,8.38l1.61,0.31l-0.41,2.1L33.72,85.71z"/>
	<path class="st0" d="M28.04,76.91c0.4-0.99,0.71-1.69,0.93-2.08c0.21-0.39,0.51-0.71,0.9-0.95s0.82-0.37,1.32-0.38
		c0.49-0.01,1.02,0.09,1.58,0.32c0.53,0.22,0.97,0.5,1.32,0.84c0.35,0.34,0.58,0.74,0.7,1.19s0.12,0.89,0,1.32
		c-0.12,0.43-0.38,1.15-0.8,2.17l-0.69,1.69c-0.4,0.99-0.71,1.69-0.93,2.08s-0.51,0.71-0.9,0.95c-0.39,0.24-0.82,0.37-1.32,0.38
		s-1.02-0.09-1.58-0.32c-0.53-0.21-0.97-0.49-1.32-0.84c-0.35-0.34-0.58-0.74-0.7-1.19c-0.12-0.45-0.12-0.89,0-1.32
		s0.38-1.15,0.8-2.17L28.04,76.91z M29.29,81.2c-0.19,0.46-0.28,0.76-0.28,0.91c0,0.15,0.08,0.26,0.24,0.32
		c0.13,0.05,0.26,0.04,0.37-0.03s0.27-0.37,0.48-0.88l1.88-4.62c0.23-0.57,0.35-0.94,0.36-1.09s-0.07-0.26-0.25-0.33
		c-0.17-0.07-0.32-0.04-0.43,0.1c-0.11,0.13-0.29,0.49-0.52,1.08L29.29,81.2z"/>
	<path class="st0" d="M23.2,81.35l-1.62-1.11c-1.08-0.74-1.79-1.28-2.11-1.62c-0.33-0.34-0.49-0.77-0.5-1.28s0.24-1.14,0.76-1.89
		c0.47-0.69,0.87-1.09,1.2-1.21c0.33-0.12,0.76-0.03,1.3,0.26c-0.38-0.42-0.58-0.78-0.61-1.08c-0.03-0.3-0.01-0.54,0.06-0.72
		c0.07-0.18,0.35-0.63,0.83-1.34l1.58-2.33l2.13,1.45l-2,2.93c-0.32,0.47-0.48,0.79-0.49,0.95c0,0.16,0.15,0.35,0.47,0.57l2.71-3.98
		l2.29,1.56L23.2,81.35z M21.93,78.28l1.34-1.96c-0.26-0.18-0.46-0.26-0.61-0.26c-0.15,0-0.36,0.19-0.62,0.58l-0.33,0.49
		c-0.19,0.28-0.27,0.5-0.23,0.65S21.67,78.1,21.93,78.28z"/>
	<path class="st0" d="M11.88,71.85l6.28-3.32l2.76-2.7l1.8,1.84l-2.76,2.7l-3.5,6.16l-1.78-1.82c1.21-1.74,2.05-2.88,2.53-3.42
		c-0.92,0.69-2.1,1.48-3.55,2.39L11.88,71.85z"/>
	<path class="st0" d="M9.21,60.24l1.33,2.43l-0.85,0.46c-0.54,0.29-0.86,0.5-0.97,0.62c-0.11,0.12-0.12,0.27-0.02,0.44
		c0.08,0.15,0.2,0.22,0.34,0.21C9.19,64.4,9.5,64.26,9.98,64l4.49-2.46c0.42-0.23,0.68-0.41,0.79-0.54c0.1-0.13,0.11-0.27,0.02-0.43
		c-0.1-0.18-0.24-0.26-0.42-0.24c-0.19,0.02-0.5,0.15-0.93,0.39l-1.11,0.61l0.27,0.49l-1.42,0.78l-1.56-2.85L15.12,57l0.84,1.53
		l-0.55,0.59c0.38,0.01,0.71,0.1,0.99,0.27c0.28,0.17,0.52,0.43,0.71,0.77c0.22,0.41,0.33,0.85,0.33,1.31c0,0.47-0.1,0.87-0.29,1.22
		s-0.44,0.63-0.73,0.85s-0.77,0.51-1.41,0.86l-2.78,1.52c-0.89,0.49-1.57,0.8-2.03,0.92c-0.46,0.13-0.98,0.05-1.57-0.22
		c-0.59-0.27-1.08-0.77-1.48-1.5c-0.39-0.71-0.57-1.38-0.53-2.02c0.04-0.63,0.22-1.13,0.54-1.49s0.87-0.75,1.64-1.17L9.21,60.24z"/>
	<path class="st0" d="M4.66,59.41l-0.54-1.89c-0.36-1.26-0.56-2.13-0.59-2.6s0.11-0.91,0.43-1.3c0.32-0.4,0.91-0.72,1.79-0.97
		c0.8-0.23,1.36-0.28,1.69-0.16c0.33,0.12,0.61,0.46,0.83,1.03c-0.02-0.57,0.05-0.97,0.22-1.21c0.17-0.25,0.34-0.42,0.51-0.51
		c0.17-0.1,0.67-0.26,1.5-0.5l2.71-0.78l0.71,2.48l-3.41,0.98c-0.55,0.16-0.88,0.3-0.98,0.42c-0.11,0.12-0.11,0.37,0,0.74l4.63-1.33
		l0.77,2.67L4.66,59.41z M5.65,56.24l2.28-0.66c-0.09-0.3-0.19-0.5-0.3-0.59c-0.12-0.1-0.4-0.08-0.85,0.05L6.21,55.2
		c-0.33,0.09-0.52,0.21-0.59,0.36C5.55,55.71,5.56,55.93,5.65,56.24z"/>
	<path class="st0" d="M2.17,45.85l10.54-2.29l0.19,2.83L11,46.67l0.07,0.99l1.93,0.04l0.19,2.86L2.43,49.86L2.17,45.85z M9.11,46.87
		c-1.2,0.22-2.68,0.46-4.44,0.72c2.06,0.15,3.56,0.22,4.51,0.23L9.11,46.87z"/>
	<path class="st0" d="M2.52,39.71l10.63,1l-0.26,2.76l-10.63-1L2.52,39.71z"/>
	<path class="st0" d="M4.43,31.22L14.73,34l-0.63,2.35l-5.06,0.13l4.69,1.26l-0.6,2.24L2.82,37.21l0.6-2.24l5.04-0.25l-4.64-1.25
		L4.43,31.22z"/>
	<path class="st0" d="M12.6,22.5l-1.35,2.2l-0.67-0.41C10.27,24.09,10.05,24,9.93,24s-0.22,0.07-0.3,0.2
		c-0.09,0.14-0.09,0.29-0.02,0.43c0.07,0.14,0.23,0.29,0.46,0.43c0.3,0.19,0.56,0.28,0.76,0.3c0.2,0.02,0.52-0.09,0.97-0.33
		c1.27-0.67,2.19-1.02,2.76-1.05c0.57-0.03,1.3,0.23,2.19,0.78c0.65,0.4,1.08,0.77,1.29,1.1c0.21,0.34,0.29,0.79,0.23,1.35
		c-0.06,0.56-0.26,1.13-0.62,1.71c-0.39,0.63-0.84,1.1-1.35,1.4c-0.51,0.3-1,0.41-1.46,0.32s-1.02-0.34-1.71-0.76l-0.6-0.36
		l1.35-2.2L15,28.01c0.34,0.21,0.58,0.31,0.71,0.31c0.14,0,0.25-0.08,0.35-0.24c0.1-0.16,0.11-0.31,0.03-0.46
		c-0.08-0.15-0.24-0.3-0.48-0.45c-0.54-0.33-0.93-0.47-1.19-0.42c-0.26,0.05-0.76,0.25-1.5,0.6c-0.75,0.35-1.27,0.57-1.56,0.65
		c-0.29,0.08-0.63,0.09-1.02,0.03c-0.39-0.06-0.82-0.25-1.31-0.54c-0.7-0.43-1.15-0.83-1.37-1.2s-0.29-0.82-0.23-1.33
		c0.06-0.51,0.26-1.04,0.61-1.61c0.38-0.61,0.8-1.08,1.26-1.39c0.46-0.31,0.89-0.44,1.28-0.4s0.94,0.29,1.67,0.73L12.6,22.5z"/>
	<path class="st0" d="M15.31,14.55l1.57,1.45l-1.12,1.21l6.28,5.78l-1.88,2.04l-6.28-5.78l-1.11,1.21l-1.57-1.45L15.31,14.55z"/>
	<path class="st0" d="M25.8,14.34c0.63,0.87,1.06,1.49,1.28,1.88c0.22,0.39,0.33,0.81,0.34,1.27c0,0.45-0.12,0.9-0.37,1.32
		c-0.25,0.43-0.62,0.82-1.1,1.17c-0.46,0.34-0.93,0.56-1.41,0.68c-0.48,0.12-0.94,0.11-1.38-0.03s-0.82-0.37-1.12-0.69
		c-0.3-0.32-0.78-0.93-1.42-1.82l-1.08-1.48c-0.63-0.87-1.06-1.5-1.28-1.89c-0.22-0.39-0.33-0.81-0.34-1.27
		c0-0.46,0.12-0.9,0.37-1.32c0.25-0.43,0.62-0.82,1.1-1.17c0.46-0.34,0.93-0.56,1.41-0.68c0.48-0.12,0.94-0.11,1.38,0.03
		c0.44,0.14,0.82,0.37,1.12,0.69c0.3,0.32,0.78,0.93,1.42,1.82L25.8,14.34z M21.5,13.14c-0.29-0.4-0.5-0.64-0.63-0.72
		s-0.26-0.07-0.4,0.03c-0.12,0.09-0.17,0.2-0.17,0.33s0.17,0.43,0.49,0.87l2.94,4.03c0.36,0.5,0.61,0.79,0.74,0.88
		c0.13,0.09,0.26,0.08,0.41-0.03c0.15-0.11,0.2-0.25,0.15-0.42c-0.06-0.17-0.27-0.5-0.64-1.01L21.5,13.14z"/>
	<path class="st0" d="M24.56,7.9l1.79-0.8c1.2-0.53,2.03-0.85,2.49-0.94s0.92-0.01,1.35,0.25c0.44,0.26,0.84,0.81,1.21,1.64
		c0.34,0.76,0.47,1.31,0.4,1.66c-0.07,0.34-0.37,0.67-0.91,0.97c0.56-0.1,0.97-0.08,1.23,0.05s0.46,0.28,0.58,0.43
		c0.12,0.16,0.35,0.63,0.7,1.41l1.14,2.57l-2.35,1.05l-1.44-3.24c-0.23-0.52-0.42-0.83-0.55-0.91s-0.38-0.05-0.73,0.1l1.96,4.4
		l-2.54,1.13L24.56,7.9z M27.84,8.44l0.96,2.17c0.28-0.13,0.47-0.25,0.55-0.38s0.02-0.41-0.17-0.84l-0.24-0.54
		c-0.14-0.31-0.28-0.49-0.44-0.53C28.35,8.26,28.13,8.31,27.84,8.44z"/>
	<path class="st0" d="M38.59,3.26l-0.48,7.09l0.85,3.77l-2.51,0.57l-0.85-3.77l-3.4-6.21l2.49-0.56c0.85,1.94,1.38,3.26,1.58,3.95
		c-0.1-1.14-0.16-2.57-0.17-4.27L38.59,3.26z"/>
</g>
</svg>
