<?xml version="1.0" encoding="utf-8"?>
<!-- Generator: Adobe Illustrator 23.1.0, SVG Export Plug-In . SVG Version: 6.00 Build 0)  -->
<svg version="1.1" id="Layer_1" xmlns="http://www.w3.org/2000/svg" xmlns:xlink="http://www.w3.org/1999/xlink" x="0px" y="0px"
	 viewBox="0 0 90 90" style="enable-background:new 0 0 90 90;" xml:space="preserve">
<style type="text/css">
	.st0{fill:#FFFFFF;}
</style>
<g>
	<path class="st0" d="M45.49,8.72l-1.66-0.03l0.01-0.58c0.01-0.37-0.01-0.6-0.04-0.69c-0.03-0.09-0.1-0.14-0.22-0.14
		c-0.1,0-0.17,0.04-0.21,0.12C43.32,7.47,43.3,7.67,43.29,8l-0.05,3.07c0,0.29,0.01,0.48,0.05,0.57c0.04,0.09,0.11,0.14,0.22,0.14
		c0.12,0,0.2-0.05,0.25-0.15c0.04-0.1,0.07-0.3,0.07-0.6l0.01-0.76l-0.34-0.01l0.02-0.97l1.95,0.03l-0.05,3.44l-1.05-0.02
		l-0.15-0.46c-0.12,0.2-0.26,0.34-0.44,0.44c-0.17,0.1-0.38,0.14-0.61,0.14c-0.28,0-0.54-0.08-0.78-0.22
		c-0.24-0.14-0.42-0.31-0.55-0.51c-0.12-0.2-0.2-0.41-0.23-0.63c-0.03-0.22-0.04-0.55-0.03-0.99l0.03-1.9
		c0.01-0.61,0.05-1.06,0.12-1.33C41.81,7,42,6.74,42.32,6.52s0.72-0.33,1.22-0.33c0.49,0.01,0.89,0.11,1.21,0.32
		c0.32,0.21,0.52,0.45,0.62,0.72c0.09,0.28,0.14,0.68,0.13,1.2L45.49,8.72z"/>
	<path class="st0" d="M46.74,6.42l1.17,0.15c0.78,0.1,1.3,0.2,1.57,0.3c0.27,0.1,0.47,0.28,0.62,0.55c0.14,0.27,0.18,0.68,0.11,1.22
		c-0.06,0.49-0.17,0.82-0.31,0.97c-0.14,0.15-0.4,0.22-0.76,0.21c0.31,0.12,0.52,0.26,0.62,0.41c0.1,0.15,0.15,0.28,0.16,0.4
		c0.01,0.12-0.02,0.43-0.08,0.94l-0.22,1.67l-1.53-0.2l0.28-2.11c0.04-0.34,0.04-0.55,0-0.64s-0.18-0.15-0.41-0.18l-0.37,2.86
		l-1.65-0.22L46.74,6.42z M48.25,7.72l-0.19,1.41c0.19,0.02,0.32,0.02,0.4-0.03c0.08-0.04,0.14-0.2,0.18-0.48l0.05-0.35
		c0.03-0.2,0.01-0.34-0.06-0.41S48.44,7.75,48.25,7.72z"/>
	<path class="st0" d="M54.47,7.88l-0.69,6.44l-1.65-0.43l0.2-1.14l-0.58-0.15l-0.39,1.09l-1.67-0.43l2.44-5.98L54.47,7.88z
		 M52.58,11.64c0.1-0.72,0.25-1.61,0.43-2.67c-0.47,1.14-0.8,1.98-0.99,2.52L52.58,11.64z"/>
	<path class="st0" d="M59.69,9.79l-2.38,5.95l-1.36-0.54l0.28-3.02l-1.08,2.7l-1.29-0.52l2.38-5.95l1.29,0.52l-0.2,3.02l1.07-2.68
		L59.69,9.79z"/>
	<path class="st0" d="M62.4,15.51c-0.31,0.56-0.55,0.95-0.71,1.17c-0.16,0.22-0.36,0.39-0.61,0.5c-0.25,0.11-0.52,0.16-0.81,0.13
		c-0.29-0.03-0.6-0.13-0.92-0.31c-0.3-0.17-0.54-0.37-0.72-0.6c-0.18-0.23-0.29-0.49-0.33-0.76c-0.04-0.28,0-0.54,0.1-0.78
		c0.1-0.25,0.31-0.66,0.64-1.23l0.54-0.96c0.32-0.56,0.55-0.95,0.71-1.17c0.16-0.22,0.36-0.39,0.61-0.5
		c0.25-0.11,0.52-0.16,0.81-0.13C62,10.9,62.3,11,62.62,11.18c0.3,0.17,0.54,0.37,0.72,0.6c0.18,0.23,0.29,0.49,0.33,0.76
		c0.04,0.28,0,0.54-0.1,0.78c-0.1,0.25-0.31,0.66-0.64,1.23L62.4,15.51z M61.98,12.86c0.15-0.26,0.22-0.43,0.24-0.52
		c0.01-0.09-0.03-0.16-0.12-0.21c-0.08-0.04-0.15-0.05-0.22-0.01s-0.19,0.2-0.35,0.49l-1.46,2.61c-0.18,0.32-0.28,0.53-0.3,0.62
		c-0.02,0.09,0.02,0.16,0.12,0.22c0.1,0.06,0.19,0.05,0.26-0.02c0.08-0.07,0.21-0.27,0.39-0.6L61.98,12.86z"/>
	<path class="st0" d="M66.55,13.87l-2.99,4.16l0.82,0.59l-0.75,1.04l-2.18-1.56l3.73-5.2L66.55,13.87z"/>
	<path class="st0" d="M70.44,17.13l-3.59,5.38l-1.26-1.14l0.71-0.91l-0.44-0.4L65,20.84l-1.28-1.16l4.93-4.17L70.44,17.13z
		 M67.02,19.59c0.42-0.59,0.96-1.31,1.62-2.16c-0.95,0.79-1.63,1.39-2.04,1.78L67.02,19.59z"/>
	<path class="st0" d="M72.86,19.65l1.04,1.32c0.28,0.36,0.47,0.65,0.57,0.89c0.09,0.24,0.13,0.44,0.1,0.62
		c-0.03,0.18-0.11,0.35-0.23,0.5s-0.34,0.35-0.66,0.6l-0.44,0.35c-0.32,0.25-0.58,0.41-0.78,0.46s-0.41,0.02-0.63-0.1
		c-0.22-0.11-0.44-0.31-0.67-0.6l-0.28-0.35l-2.02,1.6l-1.03-1.31L72.86,19.65z M73.03,21.63l-1.28,1.01
		c0.03,0.04,0.05,0.07,0.07,0.1c0.09,0.12,0.19,0.18,0.29,0.18s0.24-0.07,0.42-0.22l0.41-0.33c0.17-0.14,0.26-0.25,0.27-0.35
		C73.23,21.94,73.17,21.8,73.03,21.63z"/>
	<path class="st0" d="M75.71,23.38l0.61,1.01c0.4,0.67,0.65,1.15,0.74,1.42c0.09,0.27,0.08,0.54-0.05,0.82
		c-0.12,0.28-0.42,0.56-0.89,0.84c-0.43,0.26-0.75,0.38-0.96,0.36c-0.21-0.02-0.42-0.17-0.64-0.47c0.1,0.32,0.12,0.57,0.06,0.74
		c-0.06,0.17-0.13,0.29-0.21,0.38c-0.08,0.08-0.35,0.26-0.79,0.52l-1.45,0.87l-0.8-1.33l1.82-1.1c0.29-0.18,0.46-0.31,0.5-0.4
		s0-0.23-0.11-0.43l-2.48,1.49l-0.86-1.43L75.71,23.38z M75.63,25.37l-1.22,0.73c0.1,0.16,0.19,0.26,0.27,0.3
		c0.08,0.04,0.25-0.02,0.49-0.16l0.3-0.18c0.17-0.1,0.27-0.2,0.29-0.3C75.77,25.66,75.73,25.53,75.63,25.37z"/>
	<path class="st0" d="M76.29,32.72c-0.59,0.25-1.02,0.42-1.27,0.5s-0.52,0.09-0.79,0.03c-0.27-0.06-0.51-0.19-0.72-0.39
		c-0.22-0.2-0.39-0.47-0.54-0.8c-0.14-0.31-0.21-0.62-0.21-0.92c0-0.29,0.06-0.56,0.2-0.8c0.14-0.24,0.33-0.43,0.56-0.56
		c0.23-0.13,0.65-0.33,1.25-0.59l1.01-0.43c0.59-0.25,1.02-0.42,1.27-0.5s0.52-0.09,0.79-0.03c0.27,0.06,0.51,0.19,0.72,0.39
		c0.22,0.2,0.4,0.47,0.54,0.8c0.13,0.31,0.21,0.62,0.21,0.91c0,0.3-0.06,0.56-0.2,0.8s-0.33,0.43-0.56,0.56s-0.65,0.33-1.25,0.59
		L76.29,32.72z M77.56,30.36c0.27-0.12,0.44-0.21,0.51-0.27s0.08-0.14,0.03-0.24c-0.03-0.08-0.09-0.13-0.17-0.14
		c-0.08-0.02-0.27,0.04-0.57,0.17l-2.75,1.18c-0.34,0.15-0.55,0.25-0.61,0.31c-0.07,0.06-0.08,0.14-0.04,0.25
		c0.04,0.1,0.12,0.15,0.22,0.14c0.1-0.01,0.33-0.09,0.68-0.24L77.56,30.36z"/>
	<path class="st0" d="M81.06,35.67l-1.23,0.35l-0.27-0.95l-4.92,1.41l-0.46-1.6l4.93-1.41l-0.27-0.95l1.23-0.35L81.06,35.67z"/>
	<path class="st0" d="M81.24,36.59l0.46,2.74l-1.26,0.21l-0.18-1.1l-1.2,0.2l0.17,1.03l-1.2,0.2l-0.17-1.03l-1.39,0.23l0.2,1.21
		l-1.26,0.21l-0.48-2.85L81.24,36.59z"/>
	<path class="st0" d="M81.93,42.02l-6.38,0.5l-0.13-1.66l6.38-0.5L81.93,42.02z"/>
	<path class="st0" d="M81.92,46.91l-6.4-0.16l0.04-1.46l2.93-0.8l-2.91-0.07l0.03-1.39l6.4,0.16l-0.03,1.39l-2.91,0.86l2.88,0.07
		L81.92,46.91z"/>
	<path class="st0" d="M78.98,52.95l0.31-1.51l0.46,0.09c0.22,0.04,0.36,0.05,0.43,0.03c0.07-0.03,0.11-0.08,0.13-0.18
		c0.02-0.1,0-0.18-0.07-0.25c-0.07-0.07-0.19-0.12-0.35-0.15c-0.21-0.04-0.37-0.05-0.49-0.01c-0.12,0.03-0.28,0.16-0.48,0.38
		c-0.58,0.64-1.03,1.02-1.34,1.16c-0.31,0.13-0.78,0.14-1.39,0.01c-0.45-0.09-0.77-0.21-0.96-0.36c-0.19-0.15-0.33-0.39-0.41-0.72
		c-0.08-0.33-0.08-0.69,0-1.09c0.09-0.44,0.25-0.79,0.48-1.07c0.23-0.27,0.48-0.43,0.76-0.48c0.27-0.04,0.65-0.02,1.12,0.08
		l0.41,0.08l-0.31,1.52l-0.76-0.16c-0.23-0.05-0.39-0.06-0.47-0.03c-0.08,0.03-0.13,0.1-0.15,0.21c-0.02,0.11,0,0.2,0.08,0.27
		c0.07,0.07,0.2,0.12,0.36,0.16c0.37,0.08,0.62,0.07,0.75,0c0.13-0.08,0.38-0.3,0.73-0.65c0.35-0.35,0.6-0.58,0.75-0.69
		c0.15-0.11,0.34-0.18,0.57-0.22c0.23-0.04,0.51-0.03,0.85,0.04c0.48,0.1,0.82,0.23,1.02,0.4s0.33,0.4,0.4,0.7
		c0.07,0.3,0.06,0.64-0.01,1.03c-0.09,0.42-0.23,0.77-0.43,1.04s-0.41,0.43-0.64,0.49S79.72,53.1,79.22,53L78.98,52.95z"/>
	<path class="st0" d="M79.26,58.25l-6.04-2.12l0.55-1.57l2.54,0.89l0.16-0.47l-2.54-0.89l0.55-1.57l6.04,2.12l-0.55,1.57l-2.16-0.76
		l-0.17,0.47l2.16,0.76L79.26,58.25z"/>
	<path class="st0" d="M77.42,62.03l-6.14-2.05l0.77-1.52l1.07,0.44l0.27-0.53l-0.98-0.61l0.78-1.54l5.32,3.66L77.42,62.03z
		 M74.15,59.38c0.68,0.25,1.52,0.58,2.51,0.99c-1.02-0.71-1.77-1.21-2.25-1.5L74.15,59.38z"/>
	<path class="st0" d="M74.25,66.96l-1.85-2.42l-3.49-1.12L69.89,62l2.65,0.99l-2.27-1.55l0.94-1.37l5.28,3.62l-0.94,1.37l-2.05-1.41
		l1.63,2.02L74.25,66.96z"/>
	<path class="st0" d="M73.61,67.71l-1.83,2.09l-0.97-0.84l0.73-0.84l-0.92-0.8l-0.68,0.78l-0.92-0.8l0.68-0.78l-1.06-0.93l-0.8,0.92
		l-0.97-0.84l1.9-2.18L73.61,67.71z"/>
	<path class="st0" d="M65.03,72.13l1.28-1.06l0.71,0.86c0.21,0.25,0.35,0.39,0.43,0.43c0.08,0.04,0.16,0.02,0.26-0.06
		c0.11-0.09,0.14-0.18,0.11-0.28c-0.03-0.1-0.15-0.27-0.36-0.52l-1.9-2.29c-0.2-0.24-0.34-0.38-0.43-0.43
		c-0.09-0.05-0.18-0.03-0.28,0.05c-0.1,0.08-0.13,0.17-0.1,0.26s0.16,0.28,0.38,0.55l0.51,0.62l-1.28,1.06l-0.16-0.19
		c-0.42-0.51-0.69-0.9-0.79-1.17c-0.11-0.27-0.1-0.59,0.01-0.96s0.35-0.7,0.71-1c0.38-0.31,0.74-0.5,1.1-0.57
		c0.36-0.07,0.67-0.01,0.95,0.16c0.28,0.17,0.62,0.5,1.02,0.99l1.2,1.44c0.29,0.35,0.5,0.63,0.63,0.83c0.12,0.2,0.19,0.43,0.21,0.69
		c0.02,0.26-0.04,0.53-0.18,0.81c-0.14,0.27-0.34,0.52-0.62,0.75c-0.38,0.31-0.75,0.5-1.12,0.56c-0.37,0.06-0.68,0.01-0.94-0.14
		c-0.26-0.15-0.58-0.46-0.96-0.92L65.03,72.13z"/>
	<path class="st0" d="M62.55,77.04l-3.4-5.43l1.41-0.88l1.43,2.28l0.42-0.26l-1.43-2.28l1.41-0.88l3.4,5.43l-1.41,0.88l-1.22-1.94
		l-0.42,0.26l1.22,1.94L62.55,77.04z"/>
	<path class="st0" d="M56.33,75.85c-0.27-0.58-0.44-1.01-0.52-1.26c-0.08-0.26-0.1-0.52-0.04-0.79s0.18-0.51,0.38-0.73
		s0.46-0.41,0.79-0.55c0.31-0.14,0.62-0.22,0.91-0.23s0.56,0.05,0.81,0.19c0.24,0.13,0.43,0.32,0.57,0.54
		c0.14,0.23,0.34,0.64,0.62,1.24l0.45,1c0.27,0.58,0.44,1.01,0.52,1.26c0.08,0.26,0.1,0.52,0.04,0.79
		c-0.05,0.27-0.18,0.51-0.38,0.73c-0.2,0.22-0.46,0.41-0.79,0.55c-0.31,0.14-0.62,0.22-0.91,0.23s-0.56-0.05-0.81-0.19
		c-0.24-0.13-0.43-0.32-0.57-0.54c-0.14-0.23-0.34-0.64-0.62-1.24L56.33,75.85z M58.72,77.07c0.12,0.27,0.22,0.44,0.28,0.5
		c0.06,0.06,0.14,0.07,0.24,0.03c0.08-0.04,0.13-0.09,0.14-0.17c0.01-0.08-0.05-0.27-0.18-0.57l-1.24-2.72
		c-0.15-0.34-0.26-0.54-0.33-0.61s-0.15-0.08-0.25-0.03c-0.1,0.05-0.15,0.12-0.14,0.23c0.01,0.1,0.1,0.33,0.25,0.67L58.72,77.07z"/>
	<path class="st0" d="M52.17,78.17l1.59-0.48l0.32,1.06c0.09,0.31,0.17,0.5,0.23,0.56s0.14,0.08,0.26,0.05
		c0.13-0.04,0.2-0.11,0.21-0.22c0.01-0.1-0.04-0.31-0.13-0.62l-0.87-2.85c-0.09-0.3-0.17-0.49-0.23-0.57
		c-0.06-0.08-0.16-0.1-0.28-0.06c-0.12,0.04-0.18,0.1-0.19,0.21c-0.01,0.1,0.04,0.32,0.14,0.66l0.23,0.77l-1.59,0.48l-0.07-0.24
		c-0.19-0.63-0.29-1.1-0.28-1.39c0.01-0.29,0.14-0.58,0.38-0.88c0.25-0.29,0.59-0.51,1.04-0.64c0.47-0.14,0.88-0.17,1.23-0.1
		c0.35,0.08,0.63,0.25,0.81,0.52c0.19,0.27,0.38,0.7,0.56,1.3l0.54,1.79c0.13,0.44,0.22,0.78,0.26,1.01
		c0.04,0.23,0.01,0.47-0.08,0.72s-0.25,0.47-0.48,0.67c-0.23,0.2-0.52,0.35-0.86,0.45c-0.47,0.14-0.88,0.17-1.24,0.08
		c-0.36-0.09-0.63-0.25-0.81-0.5c-0.18-0.24-0.35-0.65-0.53-1.22L52.17,78.17z"/>
	<path class="st0" d="M47.38,78.04c-0.1-0.63-0.16-1.09-0.18-1.36c-0.01-0.27,0.04-0.53,0.16-0.77c0.12-0.25,0.31-0.45,0.56-0.61
		c0.25-0.16,0.55-0.27,0.91-0.33c0.34-0.06,0.65-0.05,0.94,0.02c0.29,0.07,0.53,0.2,0.73,0.39c0.2,0.19,0.34,0.42,0.41,0.67
		s0.17,0.71,0.27,1.36l0.18,1.08c0.11,0.63,0.16,1.09,0.18,1.36c0.01,0.27-0.04,0.53-0.16,0.77c-0.12,0.25-0.31,0.45-0.55,0.61
		c-0.25,0.16-0.55,0.27-0.91,0.33c-0.34,0.06-0.65,0.05-0.94-0.02c-0.29-0.07-0.53-0.2-0.73-0.39s-0.34-0.42-0.41-0.67
		s-0.17-0.71-0.27-1.36L47.38,78.04z M49.36,79.85c0.05,0.29,0.1,0.48,0.14,0.56c0.05,0.08,0.12,0.11,0.22,0.09
		c0.09-0.01,0.15-0.06,0.18-0.13c0.03-0.07,0.02-0.27-0.03-0.6l-0.49-2.95c-0.06-0.37-0.11-0.59-0.16-0.67
		c-0.04-0.08-0.12-0.11-0.23-0.09c-0.11,0.02-0.18,0.08-0.19,0.18c-0.01,0.1,0.01,0.34,0.07,0.71L49.36,79.85z"/>
	<path class="st0" d="M42.81,79.64l1.66-0.06l0.02,0.58c0.01,0.37,0.04,0.6,0.07,0.69c0.04,0.09,0.11,0.13,0.23,0.13
		c0.1,0,0.17-0.05,0.21-0.13s0.05-0.28,0.03-0.61l-0.1-3.07c-0.01-0.29-0.03-0.48-0.07-0.57s-0.12-0.13-0.23-0.13
		c-0.12,0-0.2,0.06-0.24,0.16c-0.04,0.1-0.05,0.31-0.04,0.6L44.37,78l0.34-0.01l0.03,0.97l-1.95,0.07l-0.12-3.43l1.05-0.04
		l0.17,0.45c0.11-0.2,0.24-0.35,0.41-0.46s0.37-0.16,0.61-0.17c0.28-0.01,0.54,0.05,0.79,0.18c0.25,0.13,0.44,0.29,0.57,0.49
		c0.13,0.2,0.22,0.4,0.26,0.62s0.07,0.55,0.08,0.99l0.06,1.9c0.02,0.61,0,1.06-0.05,1.34c-0.06,0.28-0.24,0.54-0.54,0.78
		c-0.3,0.24-0.7,0.37-1.2,0.39c-0.49,0.02-0.9-0.07-1.22-0.26s-0.55-0.42-0.65-0.69s-0.17-0.67-0.19-1.19L42.81,79.64z"/>
	<path class="st0" d="M41.62,81.95l-1.17-0.11c-0.78-0.07-1.31-0.15-1.58-0.24s-0.48-0.26-0.63-0.53c-0.15-0.26-0.2-0.67-0.15-1.21
		c0.05-0.5,0.14-0.82,0.28-0.98c0.14-0.16,0.39-0.24,0.76-0.24c-0.32-0.11-0.53-0.24-0.63-0.39c-0.1-0.15-0.16-0.28-0.18-0.4
		c-0.02-0.12,0-0.43,0.05-0.95l0.16-1.68l1.54,0.14l-0.2,2.12c-0.03,0.34-0.02,0.55,0.02,0.64c0.05,0.09,0.18,0.14,0.41,0.16
		l0.27-2.88l1.66,0.15L41.62,81.95z M40.06,80.71l0.13-1.42c-0.19-0.02-0.32,0-0.4,0.04c-0.08,0.04-0.13,0.21-0.16,0.49l-0.03,0.35
		c-0.02,0.2,0,0.34,0.07,0.41C39.74,80.65,39.87,80.69,40.06,80.71z"/>
	<path class="st0" d="M33.83,80.78l0.45-6.46l1.66,0.37l-0.16,1.14l0.58,0.13l0.35-1.1l1.68,0.37l-2.21,6.07L33.83,80.78z
		 M35.58,76.95c-0.07,0.73-0.18,1.62-0.33,2.68c0.43-1.16,0.73-2.01,0.89-2.56L35.58,76.95z"/>
	<path class="st0" d="M28.55,79.07l2.15-6.03l1.37,0.49l-0.16,3.03l0.98-2.74l1.31,0.47l-2.15,6.03l-1.31-0.47l0.09-3.03l-0.97,2.72
		L28.55,79.07z"/>
	<path class="st0" d="M25.64,73.47c0.29-0.57,0.51-0.97,0.66-1.2c0.15-0.22,0.34-0.4,0.59-0.52c0.24-0.12,0.51-0.18,0.81-0.16
		c0.3,0.02,0.6,0.11,0.93,0.27c0.31,0.16,0.55,0.35,0.75,0.57c0.19,0.22,0.31,0.47,0.36,0.75c0.05,0.28,0.02,0.54-0.07,0.79
		c-0.09,0.25-0.29,0.67-0.59,1.25l-0.5,0.97c-0.29,0.57-0.51,0.97-0.66,1.2c-0.15,0.22-0.34,0.4-0.59,0.52
		c-0.24,0.12-0.51,0.18-0.81,0.16c-0.3-0.02-0.6-0.11-0.93-0.27c-0.31-0.16-0.55-0.35-0.75-0.57c-0.19-0.22-0.31-0.47-0.36-0.75
		c-0.05-0.28-0.02-0.54,0.07-0.79c0.09-0.25,0.29-0.67,0.59-1.25L25.64,73.47z M26.17,76.1c-0.14,0.26-0.21,0.44-0.22,0.53
		c-0.01,0.09,0.03,0.16,0.12,0.2c0.08,0.04,0.15,0.04,0.22,0c0.07-0.04,0.18-0.21,0.33-0.5L28,73.68c0.17-0.33,0.26-0.54,0.27-0.63
		c0.01-0.09-0.03-0.16-0.13-0.21c-0.1-0.05-0.19-0.04-0.26,0.04c-0.07,0.07-0.2,0.28-0.37,0.62L26.17,76.1z"/>
	<path class="st0" d="M21.56,75.26l2.83-4.27l-0.84-0.56l0.71-1.07l2.23,1.48l-3.53,5.34L21.56,75.26z"/>
	<path class="st0" d="M17.56,72.17l3.38-5.52l1.3,1.09l-0.67,0.94l0.46,0.38l0.82-0.82l1.32,1.11l-4.76,4.36L17.56,72.17z
		 M20.88,69.58c-0.4,0.61-0.91,1.35-1.53,2.22c0.92-0.83,1.57-1.45,1.97-1.86L20.88,69.58z"/>
	<path class="st0" d="M15.04,69.74l-1.09-1.27c-0.29-0.34-0.49-0.63-0.6-0.86s-0.15-0.44-0.12-0.62c0.02-0.18,0.09-0.35,0.21-0.51
		c0.12-0.16,0.33-0.37,0.63-0.63l0.42-0.36c0.31-0.27,0.56-0.43,0.76-0.48c0.2-0.06,0.41-0.03,0.63,0.07
		c0.22,0.11,0.45,0.3,0.69,0.57l0.29,0.34l1.96-1.68l1.08,1.27L15.04,69.74z M14.79,67.76l1.24-1.06c-0.03-0.04-0.05-0.07-0.08-0.1
		c-0.1-0.12-0.2-0.17-0.29-0.17c-0.1,0-0.23,0.08-0.41,0.24l-0.4,0.34c-0.17,0.14-0.25,0.26-0.26,0.36
		C14.58,67.47,14.65,67.6,14.79,67.76z"/>
	<path class="st0" d="M12.03,66.1l-0.65-0.99c-0.43-0.66-0.7-1.12-0.8-1.38c-0.1-0.27-0.1-0.54,0.02-0.82
		c0.11-0.28,0.4-0.57,0.85-0.87c0.42-0.27,0.73-0.4,0.94-0.39c0.21,0.01,0.43,0.16,0.66,0.44c-0.11-0.32-0.14-0.57-0.09-0.74
		s0.12-0.3,0.2-0.38c0.08-0.09,0.34-0.27,0.77-0.55l1.41-0.92l0.85,1.29l-1.78,1.17c-0.29,0.19-0.45,0.33-0.49,0.42
		c-0.04,0.09,0,0.23,0.13,0.42l2.42-1.58l0.91,1.39L12.03,66.1z M12.03,64.11l1.19-0.78c-0.1-0.16-0.2-0.25-0.28-0.29
		c-0.08-0.03-0.24,0.03-0.48,0.18l-0.29,0.19c-0.17,0.11-0.26,0.21-0.27,0.31S11.93,63.95,12.03,64.11z"/>
	<path class="st0" d="M11.09,56.8c0.58-0.28,1-0.46,1.25-0.55c0.25-0.09,0.52-0.11,0.78-0.06s0.52,0.17,0.74,0.36
		c0.22,0.19,0.41,0.45,0.57,0.78c0.15,0.31,0.23,0.61,0.25,0.91c0.02,0.29-0.04,0.56-0.17,0.81c-0.13,0.25-0.31,0.44-0.53,0.58
		c-0.22,0.14-0.63,0.36-1.23,0.64l-0.99,0.47c-0.58,0.28-1,0.46-1.25,0.55c-0.25,0.09-0.52,0.11-0.78,0.06
		c-0.27-0.05-0.52-0.17-0.74-0.36c-0.22-0.19-0.41-0.45-0.57-0.78c-0.15-0.31-0.23-0.61-0.25-0.91c-0.02-0.29,0.04-0.57,0.17-0.81
		s0.31-0.44,0.53-0.58c0.22-0.14,0.63-0.35,1.23-0.64L11.09,56.8z M9.91,59.21c-0.27,0.13-0.43,0.23-0.49,0.29
		c-0.06,0.07-0.07,0.14-0.02,0.24c0.04,0.08,0.1,0.12,0.18,0.14s0.27-0.05,0.57-0.19l2.7-1.29c0.34-0.16,0.54-0.27,0.6-0.34
		c0.07-0.06,0.07-0.15,0.03-0.25c-0.05-0.1-0.13-0.15-0.23-0.13s-0.33,0.1-0.67,0.27L9.91,59.21z"/>
	<path class="st0" d="M6.22,54.06l1.22-0.4l0.31,0.94l4.86-1.6l0.52,1.58l-4.86,1.6l0.31,0.94l-1.22,0.4L6.22,54.06z"/>
	<path class="st0" d="M6,53.13l-0.57-2.72l1.25-0.26l0.23,1.09l1.19-0.25l-0.21-1.02l1.19-0.25l0.21,1.02l1.38-0.29l-0.25-1.2
		l1.25-0.26l0.59,2.83L6,53.13z"/>
	<path class="st0" d="M5.09,47.73l6.36-0.75l0.2,1.65l-6.36,0.75L5.09,47.73z"/>
	<path class="st0" d="M4.9,42.85l6.4-0.11l0.02,1.46l-2.9,0.91l2.91-0.05l0.02,1.39l-6.4,0.11l-0.02-1.39l2.87-0.98l-2.88,0.05
		L4.9,42.85z"/>
	<path class="st0" d="M7.6,36.7l-0.25,1.53l-0.47-0.08c-0.22-0.04-0.36-0.04-0.43-0.01c-0.07,0.03-0.11,0.09-0.12,0.18
		c-0.02,0.1,0.01,0.18,0.08,0.24c0.07,0.06,0.19,0.11,0.35,0.14c0.21,0.03,0.37,0.03,0.49-0.01c0.12-0.04,0.27-0.17,0.46-0.4
		c0.55-0.66,0.98-1.06,1.29-1.21c0.31-0.14,0.77-0.17,1.39-0.07c0.45,0.07,0.77,0.18,0.97,0.32c0.2,0.14,0.34,0.37,0.44,0.7
		c0.1,0.33,0.11,0.69,0.04,1.09c-0.07,0.44-0.22,0.8-0.43,1.09c-0.22,0.28-0.46,0.45-0.74,0.51c-0.27,0.05-0.65,0.04-1.12-0.03
		l-0.41-0.07l0.25-1.53l0.77,0.13c0.24,0.04,0.39,0.04,0.47,0.01c0.07-0.03,0.12-0.1,0.14-0.21c0.02-0.11-0.01-0.2-0.09-0.26
		s-0.2-0.11-0.37-0.14c-0.37-0.06-0.62-0.05-0.75,0.03c-0.13,0.09-0.36,0.31-0.7,0.68c-0.34,0.36-0.58,0.6-0.72,0.72
		s-0.33,0.2-0.56,0.25c-0.23,0.05-0.51,0.05-0.85,0c-0.48-0.08-0.83-0.2-1.03-0.36c-0.2-0.16-0.35-0.39-0.43-0.68
		c-0.08-0.3-0.09-0.64-0.03-1.03c0.07-0.43,0.2-0.78,0.38-1.06c0.19-0.28,0.39-0.45,0.62-0.51c0.23-0.06,0.59-0.05,1.09,0.03
		L7.6,36.7z"/>
	<path class="st0" d="M7.11,31.42l6.12,1.87l-0.49,1.59l-2.57-0.79l-0.15,0.48l2.57,0.79l-0.49,1.59l-6.12-1.87l0.49-1.59l2.19,0.67
		l0.15-0.48l-2.19-0.67L7.11,31.42z"/>
	<path class="st0" d="M8.81,27.53l6.21,1.81l-0.71,1.55l-1.08-0.4l-0.25,0.54l1,0.57l-0.72,1.56L7.8,29.72L8.81,27.53z M12.18,30.05
		c-0.69-0.23-1.54-0.52-2.55-0.89c1.04,0.67,1.81,1.14,2.31,1.42L12.18,30.05z"/>
	<path class="st0" d="M11.78,22.5l1.94,2.35l3.53,0.98l-0.92,1.46l-2.68-0.89l2.32,1.46l-0.89,1.41l-5.42-3.41l0.89-1.41l2.11,1.32
		l-1.71-1.95L11.78,22.5z"/>
	<path class="st0" d="M12.38,21.74l1.74-2.16l1,0.8l-0.7,0.87l0.94,0.76l0.65-0.81l0.95,0.76l-0.65,0.81l1.1,0.88l0.77-0.95l1,0.8
		l-1.81,2.25L12.38,21.74z"/>
	<path class="st0" d="M20.8,16.97l-1.24,1.11l-0.74-0.83c-0.22-0.24-0.36-0.38-0.44-0.42s-0.17-0.01-0.26,0.07
		c-0.1,0.09-0.13,0.19-0.1,0.28c0.04,0.1,0.16,0.27,0.38,0.51l1.99,2.21c0.21,0.23,0.36,0.37,0.45,0.42s0.18,0.03,0.28-0.06
		c0.09-0.08,0.12-0.17,0.09-0.27c-0.03-0.1-0.17-0.28-0.4-0.54l-0.54-0.6l1.24-1.11l0.17,0.19c0.44,0.49,0.72,0.87,0.84,1.14
		c0.12,0.27,0.12,0.59,0.02,0.96s-0.32,0.71-0.67,1.02c-0.36,0.33-0.72,0.53-1.07,0.61s-0.67,0.04-0.96-0.13s-0.64-0.48-1.06-0.95
		l-1.25-1.39c-0.31-0.34-0.53-0.61-0.66-0.8s-0.21-0.42-0.23-0.69s0.02-0.53,0.15-0.81c0.13-0.28,0.32-0.54,0.59-0.78
		c0.36-0.33,0.73-0.53,1.09-0.6c0.36-0.07,0.68-0.04,0.94,0.11c0.26,0.14,0.59,0.44,0.99,0.88L20.8,16.97z"/>
	<path class="st0" d="M23.11,11.96l3.6,5.3l-1.38,0.94l-1.51-2.22l-0.41,0.28l1.51,2.22l-1.38,0.94l-3.6-5.29l1.38-0.94l1.29,1.89
		l0.41-0.28l-1.29-1.89L23.11,11.96z"/>
	<path class="st0" d="M29.33,12.94c0.29,0.57,0.48,0.99,0.57,1.24c0.09,0.25,0.12,0.51,0.07,0.78c-0.04,0.27-0.16,0.52-0.35,0.75
		c-0.19,0.23-0.45,0.42-0.77,0.58c-0.31,0.15-0.61,0.24-0.9,0.26c-0.29,0.02-0.57-0.03-0.81-0.16s-0.45-0.3-0.59-0.52
		s-0.37-0.63-0.66-1.22l-0.49-0.98c-0.29-0.58-0.48-0.99-0.57-1.24s-0.12-0.51-0.07-0.78c0.04-0.27,0.16-0.52,0.35-0.75
		c0.19-0.23,0.45-0.42,0.77-0.58c0.31-0.15,0.61-0.24,0.9-0.26c0.29-0.02,0.57,0.03,0.81,0.16s0.45,0.3,0.59,0.52
		c0.15,0.22,0.37,0.63,0.66,1.22L29.33,12.94z M26.9,11.81c-0.13-0.27-0.23-0.43-0.3-0.49c-0.07-0.06-0.15-0.07-0.24-0.02
		c-0.08,0.04-0.12,0.1-0.13,0.18c-0.01,0.08,0.06,0.27,0.21,0.56l1.34,2.67c0.17,0.33,0.28,0.53,0.35,0.59
		c0.07,0.06,0.15,0.07,0.25,0.02c0.1-0.05,0.14-0.13,0.13-0.23c-0.02-0.1-0.11-0.32-0.28-0.66L26.9,11.81z"/>
	<path class="st0" d="M33.42,10.46L31.84,11l-0.36-1.05c-0.11-0.31-0.19-0.49-0.25-0.55c-0.06-0.06-0.15-0.08-0.26-0.04
		c-0.13,0.04-0.2,0.12-0.2,0.22c0,0.1,0.05,0.31,0.15,0.62l0.97,2.81c0.1,0.29,0.19,0.48,0.25,0.56s0.16,0.1,0.28,0.05
		c0.12-0.04,0.18-0.11,0.18-0.21c0-0.1-0.05-0.32-0.17-0.65l-0.26-0.76l1.57-0.54l0.08,0.24c0.22,0.63,0.33,1.09,0.33,1.38
		c0,0.29-0.11,0.59-0.35,0.89c-0.23,0.3-0.57,0.53-1.02,0.68c-0.46,0.16-0.87,0.21-1.23,0.14c-0.36-0.06-0.63-0.23-0.83-0.49
		c-0.2-0.26-0.4-0.69-0.61-1.28l-0.61-1.77c-0.15-0.44-0.25-0.77-0.29-1c-0.05-0.23-0.03-0.47,0.05-0.72
		c0.08-0.25,0.23-0.48,0.45-0.69c0.22-0.21,0.5-0.37,0.85-0.49c0.46-0.16,0.88-0.2,1.24-0.13c0.36,0.07,0.64,0.23,0.83,0.46
		c0.19,0.23,0.38,0.63,0.57,1.2L33.42,10.46z"/>
	<path class="st0" d="M38.21,10.41c0.13,0.63,0.2,1.08,0.23,1.35c0.02,0.27-0.02,0.53-0.13,0.78s-0.29,0.46-0.53,0.63
		c-0.24,0.17-0.54,0.29-0.89,0.36c-0.34,0.07-0.65,0.07-0.94,0.02c-0.29-0.06-0.54-0.18-0.75-0.36c-0.21-0.19-0.35-0.41-0.44-0.66
		c-0.08-0.25-0.19-0.7-0.32-1.35l-0.22-1.07c-0.13-0.63-0.2-1.08-0.23-1.35s0.02-0.53,0.13-0.78c0.11-0.25,0.29-0.46,0.53-0.63
		c0.24-0.17,0.54-0.29,0.89-0.36c0.34-0.07,0.65-0.08,0.94-0.02c0.29,0.06,0.54,0.18,0.75,0.36s0.35,0.41,0.44,0.66
		c0.08,0.25,0.19,0.7,0.32,1.35L38.21,10.41z M36.16,8.68C36.1,8.39,36.04,8.2,36,8.13s-0.12-0.1-0.22-0.08
		c-0.09,0.02-0.14,0.06-0.18,0.14c-0.03,0.08-0.02,0.27,0.05,0.6l0.6,2.93c0.07,0.36,0.13,0.59,0.18,0.67
		c0.05,0.08,0.13,0.11,0.23,0.09c0.11-0.02,0.17-0.09,0.18-0.19c0.01-0.1-0.02-0.34-0.1-0.71L36.16,8.68z"/>
</g>
</svg>
