<?xml version="1.0" encoding="utf-8"?>
<!-- Generator: Adobe Illustrator 23.1.0, SVG Export Plug-In . SVG Version: 6.00 Build 0)  -->
<svg version="1.1" id="Layer_1" xmlns="http://www.w3.org/2000/svg" xmlns:xlink="http://www.w3.org/1999/xlink" x="0px" y="0px"
	 viewBox="0 0 90 90" style="enable-background:new 0 0 90 90;" xml:space="preserve">
<style type="text/css">
	.st0{fill:#FFFFFF;}
</style>
<g>
	<path class="st0" d="M50.49,8.69L48.68,8.4l0.1-0.63c0.06-0.4,0.09-0.65,0.07-0.75c-0.02-0.11-0.09-0.17-0.22-0.19
		c-0.11-0.02-0.2,0.01-0.25,0.09c-0.05,0.08-0.11,0.3-0.17,0.65l-0.54,3.33c-0.05,0.31-0.06,0.52-0.04,0.63
		c0.03,0.11,0.1,0.17,0.22,0.19c0.13,0.02,0.23-0.02,0.29-0.12s0.12-0.32,0.18-0.64l0.13-0.82l-0.37-0.06l0.17-1.06l2.11,0.34
		l-0.6,3.73l-1.13-0.18l-0.09-0.52c-0.16,0.19-0.34,0.33-0.54,0.41s-0.44,0.1-0.69,0.05c-0.3-0.05-0.58-0.17-0.82-0.36
		c-0.24-0.19-0.41-0.4-0.52-0.64c-0.1-0.24-0.15-0.48-0.15-0.73c0-0.24,0.04-0.61,0.12-1.08l0.33-2.06
		c0.11-0.66,0.22-1.14,0.34-1.43C46.76,6.24,47.01,6,47.39,5.8c0.38-0.2,0.84-0.25,1.38-0.16c0.53,0.09,0.95,0.26,1.27,0.54
		c0.31,0.27,0.5,0.57,0.56,0.88c0.06,0.32,0.04,0.76-0.05,1.33L50.49,8.69z"/>
	<path class="st0" d="M52.35,6.48l1.24,0.39c0.82,0.26,1.37,0.46,1.64,0.62c0.27,0.15,0.46,0.39,0.56,0.71s0.06,0.76-0.11,1.34
		c-0.16,0.52-0.34,0.85-0.52,0.99c-0.19,0.14-0.48,0.17-0.87,0.08c0.32,0.19,0.52,0.38,0.59,0.56s0.11,0.34,0.1,0.47
		c-0.01,0.13-0.1,0.47-0.27,1.01l-0.55,1.77l-1.62-0.51l0.7-2.23c0.11-0.36,0.15-0.59,0.12-0.69c-0.03-0.1-0.17-0.19-0.41-0.27
		L52,13.74l-1.75-0.54L52.35,6.48z M53.74,8.17l-0.47,1.49c0.2,0.06,0.34,0.08,0.44,0.05c0.1-0.03,0.19-0.19,0.28-0.49l0.11-0.37
		c0.07-0.21,0.07-0.36,0.02-0.45C54.07,8.31,53.94,8.23,53.74,8.17z"/>
	<path class="st0" d="M60.48,9.58l-2.05,6.81l-1.69-0.8l0.45-1.19l-0.59-0.28l-0.64,1.1l-1.71-0.81l3.84-5.97L60.48,9.58z
		 M57.67,13.26c0.25-0.76,0.59-1.69,1-2.79c-0.74,1.14-1.27,1.98-1.58,2.52L57.67,13.26z"/>
	<path class="st0" d="M65.76,12.78l-3.84,5.9l-1.34-0.88l0.95-3.2l-1.75,2.68l-1.28-0.83l3.84-5.9l1.28,0.83l-0.87,3.21l1.73-2.66
		L65.76,12.78z"/>
	<path class="st0" d="M67.4,19.56c-0.47,0.53-0.81,0.9-1.03,1.1c-0.22,0.2-0.47,0.33-0.77,0.4c-0.29,0.07-0.59,0.05-0.9-0.05
		c-0.31-0.1-0.61-0.28-0.91-0.54c-0.28-0.25-0.5-0.52-0.64-0.81c-0.14-0.29-0.2-0.59-0.18-0.89c0.03-0.31,0.12-0.58,0.29-0.82
		c0.17-0.24,0.49-0.63,0.96-1.18l0.79-0.9c0.47-0.53,0.81-0.9,1.03-1.1c0.22-0.2,0.47-0.33,0.77-0.4c0.29-0.07,0.59-0.05,0.9,0.05
		c0.31,0.1,0.61,0.28,0.91,0.54c0.28,0.25,0.5,0.52,0.64,0.81c0.14,0.29,0.2,0.59,0.18,0.89c-0.03,0.31-0.12,0.58-0.29,0.82
		s-0.49,0.63-0.96,1.18L67.4,19.56z M67.55,16.61c0.22-0.25,0.34-0.42,0.37-0.51c0.03-0.09,0.01-0.18-0.08-0.25
		c-0.07-0.06-0.15-0.08-0.24-0.06s-0.25,0.17-0.49,0.44l-2.17,2.47c-0.27,0.31-0.42,0.51-0.46,0.6c-0.04,0.09-0.01,0.18,0.08,0.26
		c0.09,0.08,0.19,0.09,0.29,0.03c0.1-0.06,0.29-0.25,0.56-0.56L67.55,16.61z"/>
	<path class="st0" d="M72.26,18.82l-4.2,3.74l0.74,0.83l-1.05,0.94l-1.96-2.2l5.25-4.68L72.26,18.82z"/>
	<path class="st0" d="M75.64,23.31l-5.21,4.84l-1.06-1.54l0.99-0.8l-0.37-0.54l-1.11,0.63l-1.07-1.56l6.33-3.21L75.64,23.31z
		 M71.36,25.07c0.6-0.53,1.36-1.16,2.28-1.9c-1.22,0.61-2.09,1.07-2.63,1.38L71.36,25.07z"/>
	<path class="st0" d="M76.52,31.87l-0.73-1.68l1.12-0.49c0.33-0.14,0.52-0.25,0.59-0.32c0.06-0.07,0.07-0.17,0.02-0.29
		c-0.06-0.14-0.15-0.2-0.26-0.2c-0.11,0.01-0.33,0.08-0.66,0.22l-3,1.3c-0.31,0.14-0.51,0.24-0.59,0.32
		c-0.08,0.08-0.09,0.18-0.03,0.31c0.05,0.13,0.14,0.19,0.25,0.18c0.11,0,0.35-0.08,0.7-0.24l0.81-0.35l0.73,1.68l-0.25,0.11
		c-0.67,0.29-1.16,0.45-1.48,0.48c-0.32,0.03-0.66-0.08-1.01-0.31c-0.35-0.23-0.63-0.58-0.83-1.06c-0.21-0.49-0.3-0.94-0.26-1.33
		c0.04-0.4,0.19-0.71,0.46-0.96c0.27-0.24,0.72-0.5,1.35-0.77l1.88-0.82c0.46-0.2,0.82-0.34,1.07-0.41
		c0.25-0.07,0.51-0.07,0.79-0.01c0.28,0.06,0.55,0.21,0.79,0.44c0.25,0.23,0.45,0.52,0.61,0.89c0.21,0.49,0.3,0.94,0.25,1.35
		c-0.05,0.4-0.2,0.72-0.44,0.94c-0.24,0.22-0.66,0.47-1.27,0.73L76.52,31.87z"/>
	<path class="st0" d="M79.81,32.07l0.33,1.25c0.22,0.83,0.34,1.41,0.35,1.72c0.01,0.31-0.09,0.6-0.3,0.85s-0.61,0.46-1.19,0.61
		c-0.53,0.14-0.9,0.17-1.12,0.09s-0.4-0.31-0.53-0.69c0.01,0.37-0.05,0.64-0.16,0.8c-0.11,0.16-0.23,0.27-0.34,0.33
		c-0.11,0.06-0.45,0.17-0.99,0.31l-1.79,0.48l-0.44-1.64l2.26-0.6c0.36-0.1,0.58-0.19,0.65-0.27c0.07-0.08,0.08-0.24,0.01-0.49
		l-3.07,0.81l-0.47-1.77L79.81,32.07z M79.12,34.15l-1.51,0.4c0.05,0.2,0.12,0.33,0.19,0.4c0.08,0.07,0.26,0.06,0.56-0.02l0.37-0.1
		c0.22-0.06,0.35-0.13,0.39-0.23C79.17,34.5,79.17,34.35,79.12,34.15z"/>
	<path class="st0" d="M81.49,40.63l-6.87,1.85l-0.21-1.86l1.25-0.24l-0.08-0.65l-1.27,0.04l-0.22-1.88l7.1,0.12L81.49,40.63z
		 M76.88,40.18c0.78-0.18,1.75-0.39,2.9-0.62c-1.36-0.03-2.35-0.03-2.98-0.01L76.88,40.18z"/>
	<path class="st0" d="M81.52,46.86l-7.03-0.2l0.04-1.6l3.22-0.86l-3.2-0.09l0.04-1.53l7.03,0.2l-0.04,1.53l-3.2,0.94l3.17,0.09
		L81.52,46.86z"/>
	<path class="st0" d="M81.36,48.41l-0.32,1.8c-0.1,0.57-0.22,0.99-0.37,1.27s-0.36,0.48-0.66,0.61s-0.75,0.14-1.35,0.04
		c-0.41-0.07-0.68-0.19-0.81-0.34c-0.14-0.16-0.21-0.43-0.23-0.82c-0.17,0.4-0.38,0.65-0.62,0.76c-0.25,0.11-0.59,0.12-1.04,0.04
		l-0.64-0.12c-0.47-0.08-0.8-0.2-1.01-0.35s-0.33-0.35-0.37-0.59c-0.04-0.25,0-0.74,0.13-1.46l0.38-2.08L81.36,48.41z M77.24,49.52
		l-1.94-0.35c-0.04,0.26-0.03,0.42,0.03,0.51c0.06,0.08,0.23,0.15,0.51,0.2L76.48,50c0.3,0.05,0.48,0.05,0.56,0
		C77.11,49.95,77.18,49.79,77.24,49.52z M79.85,50l-1.54-0.28c-0.01,0.08-0.02,0.14-0.03,0.18c-0.03,0.18-0.01,0.3,0.07,0.36
		c0.08,0.06,0.32,0.13,0.73,0.21c0.22,0.04,0.37,0.05,0.47,0.02c0.09-0.02,0.16-0.07,0.19-0.13C79.78,50.3,79.82,50.18,79.85,50z"/>
	<path class="st0" d="M80.23,53.93l-0.94,2.9l-1.34-0.43l0.38-1.16l-1.27-0.41l-0.35,1.09l-1.27-0.41l0.35-1.09l-1.47-0.48
		l-0.41,1.28l-1.34-0.43l0.97-3.02L80.23,53.93z"/>
	<path class="st0" d="M78.82,58.09l-0.55,1.17c-0.37,0.78-0.65,1.29-0.84,1.54c-0.19,0.25-0.45,0.4-0.78,0.46
		c-0.33,0.06-0.77-0.04-1.31-0.3c-0.49-0.24-0.8-0.45-0.91-0.66c-0.11-0.2-0.1-0.5,0.04-0.87c-0.24,0.29-0.45,0.46-0.64,0.5
		c-0.19,0.05-0.35,0.06-0.47,0.03s-0.45-0.16-0.96-0.4l-1.68-0.79l0.73-1.54l2.11,1c0.34,0.16,0.56,0.23,0.67,0.22
		c0.11-0.02,0.21-0.14,0.32-0.36l-2.87-1.36l0.78-1.65L78.82,58.09z M76.95,59.23l-1.41-0.67c-0.09,0.19-0.12,0.33-0.11,0.43
		s0.16,0.21,0.44,0.35l0.35,0.17c0.2,0.1,0.35,0.12,0.45,0.08C76.77,59.54,76.86,59.42,76.95,59.23z"/>
	<path class="st0" d="M74.32,66.14l-1.18-0.77l0.59-0.91l-4.71-3.08l1-1.53l4.71,3.08l0.59-0.91l1.18,0.77L74.32,66.14z"/>
	<path class="st0" d="M70.94,70.17l-2.53-3.94l-1.93-1.66l1.11-1.28l1.93,1.66l4.24,1.95l-1.1,1.27c-1.21-0.7-2.01-1.19-2.39-1.47
		c0.5,0.57,1.09,1.3,1.77,2.2L70.94,70.17z"/>
	<path class="st0" d="M68.24,72.67l-5.53-4.47l1.38-1.26l0.93,0.87l0.48-0.44l-0.77-1.01l1.39-1.28l4.07,5.81L68.24,72.67z
		 M65.9,68.68c0.61,0.52,1.34,1.19,2.2,1.99c-0.77-1.12-1.35-1.92-1.74-2.41L65.9,68.68z"/>
	<path class="st0" d="M65.23,74.99l-3.3-4.56l-0.9,0.65l-0.83-1.14l2.38-1.72l4.12,5.7L65.23,74.99z"/>
	<path class="st0" d="M58.31,78.99l-3.26-6.24l1.42-0.74l2.2,4.21l-1.63-4.5l1-0.53l2.74,3.8l-2.15-4.11l1.42-0.74l3.26,6.24
		l-2.1,1.1c-0.26-0.34-0.55-0.75-0.89-1.22l-1.06-1.47l1.15,3.11L58.31,78.99z"/>
	<path class="st0" d="M51.54,76.95c-0.22-0.67-0.36-1.15-0.42-1.44s-0.04-0.58,0.05-0.86c0.09-0.29,0.26-0.54,0.5-0.75
		s0.55-0.39,0.93-0.51c0.36-0.12,0.7-0.16,1.02-0.14s0.61,0.12,0.86,0.3c0.25,0.18,0.44,0.4,0.56,0.66s0.3,0.74,0.52,1.43l0.37,1.14
		c0.22,0.67,0.36,1.15,0.42,1.44c0.06,0.29,0.04,0.58-0.05,0.86s-0.26,0.54-0.5,0.75s-0.55,0.39-0.93,0.51
		c-0.36,0.12-0.7,0.16-1.02,0.14c-0.32-0.02-0.61-0.12-0.86-0.3c-0.25-0.18-0.44-0.4-0.56-0.66s-0.3-0.74-0.52-1.43L51.54,76.95z
		 M54,78.58c0.1,0.31,0.18,0.5,0.25,0.58s0.15,0.1,0.25,0.06c0.09-0.03,0.15-0.09,0.17-0.17c0.02-0.09-0.02-0.3-0.13-0.65
		l-1.02-3.12c-0.13-0.39-0.22-0.62-0.28-0.7c-0.06-0.08-0.15-0.1-0.27-0.06c-0.12,0.04-0.18,0.12-0.18,0.23
		c0,0.12,0.07,0.37,0.2,0.76L54,78.58z"/>
	<path class="st0" d="M47.38,81.92L46.16,75l1.58-0.28l1.49,2.98l-0.56-3.15l1.51-0.27l1.22,6.93l-1.51,0.27l-1.56-2.94l0.55,3.12
		L47.38,81.92z"/>
	<path class="st0" d="M45.87,82.08l-1.37,0.05c-0.88,0.03-1.48,0.01-1.8-0.06c-0.31-0.07-0.56-0.2-0.72-0.38
		c-0.17-0.18-0.28-0.38-0.32-0.61c-0.05-0.23-0.08-0.67-0.1-1.34l-0.08-2.46c-0.02-0.63-0.01-1.05,0.05-1.27s0.15-0.38,0.29-0.51
		c0.14-0.13,0.32-0.22,0.54-0.27c0.22-0.05,0.54-0.09,0.98-0.1l2.31-0.08L45.87,82.08z M44,80.94l-0.15-4.63
		c-0.26,0.01-0.42,0.07-0.48,0.17c-0.06,0.11-0.08,0.4-0.06,0.87l0.09,2.73c0.01,0.32,0.03,0.52,0.05,0.61s0.07,0.15,0.15,0.19
		C43.67,80.93,43.8,80.95,44,80.94z"/>
	<path class="st0" d="M34.63,78.83l1.81,0.28l-0.1,0.63c-0.06,0.4-0.08,0.65-0.06,0.76s0.09,0.17,0.22,0.19
		c0.11,0.02,0.19-0.01,0.25-0.09c0.05-0.08,0.11-0.3,0.16-0.65l0.51-3.34c0.05-0.31,0.06-0.52,0.03-0.63
		c-0.02-0.11-0.1-0.17-0.22-0.19c-0.13-0.02-0.23,0.02-0.29,0.13s-0.12,0.32-0.17,0.64l-0.13,0.83l0.37,0.06l-0.16,1.06l-2.12-0.33
		l0.58-3.73l1.14,0.18l0.09,0.52c0.16-0.2,0.34-0.33,0.54-0.41s0.43-0.1,0.69-0.06c0.3,0.05,0.58,0.16,0.82,0.35
		c0.24,0.19,0.42,0.4,0.52,0.64c0.1,0.24,0.15,0.48,0.15,0.72s-0.04,0.61-0.11,1.08l-0.32,2.07c-0.1,0.66-0.21,1.14-0.33,1.43
		c-0.12,0.29-0.37,0.53-0.74,0.73s-0.84,0.26-1.37,0.17c-0.53-0.08-0.95-0.26-1.27-0.53c-0.32-0.27-0.5-0.57-0.56-0.88
		c-0.06-0.32-0.05-0.76,0.04-1.33L34.63,78.83z"/>
	<path class="st0" d="M32.77,81.05l-1.24-0.38c-0.83-0.25-1.38-0.45-1.65-0.61s-0.46-0.39-0.57-0.71c-0.1-0.32-0.07-0.76,0.1-1.34
		c0.16-0.52,0.33-0.86,0.52-1s0.47-0.17,0.87-0.09c-0.32-0.19-0.52-0.38-0.59-0.56c-0.08-0.18-0.11-0.33-0.1-0.46
		c0.01-0.13,0.09-0.47,0.26-1.01l0.54-1.78l1.63,0.49l-0.68,2.24c-0.11,0.36-0.15,0.59-0.12,0.7c0.03,0.1,0.17,0.19,0.41,0.26
		l0.92-3.04l1.75,0.53L32.77,81.05z M31.37,79.37l0.46-1.5c-0.2-0.06-0.34-0.08-0.44-0.04c-0.1,0.03-0.19,0.19-0.28,0.49L31,78.69
		c-0.06,0.21-0.07,0.37-0.01,0.45C31.04,79.23,31.17,79.31,31.37,79.37z"/>
	<path class="st0" d="M24.62,78l2-6.83l1.7,0.78l-0.44,1.19l0.59,0.27l0.63-1.1l1.72,0.79l-3.8,6L24.62,78z M27.4,74.3
		c-0.25,0.76-0.58,1.7-0.99,2.8c0.73-1.14,1.25-1.99,1.56-2.54L27.4,74.3z"/>
	<path class="st0" d="M19.31,74.83l3.8-5.92l1.35,0.87l-0.93,3.21l1.73-2.69l1.29,0.83l-3.8,5.92l-1.29-0.83l0.85-3.22l-1.71,2.67
		L19.31,74.83z"/>
	<path class="st0" d="M17.63,68.07c0.46-0.53,0.8-0.9,1.02-1.1c0.22-0.2,0.47-0.34,0.76-0.41c0.29-0.07,0.59-0.05,0.9,0.04
		s0.62,0.28,0.92,0.54c0.28,0.25,0.5,0.51,0.65,0.8c0.15,0.29,0.21,0.59,0.18,0.89s-0.12,0.58-0.28,0.82
		c-0.16,0.24-0.48,0.64-0.96,1.18l-0.79,0.91c-0.46,0.53-0.8,0.9-1.02,1.1c-0.22,0.2-0.47,0.34-0.76,0.41
		c-0.29,0.07-0.59,0.05-0.9-0.04s-0.62-0.28-0.92-0.54c-0.28-0.25-0.5-0.51-0.65-0.8c-0.15-0.29-0.21-0.59-0.18-0.89
		s0.12-0.58,0.28-0.82c0.16-0.24,0.48-0.64,0.96-1.18L17.63,68.07z M17.5,71.01c-0.21,0.25-0.34,0.42-0.37,0.51
		c-0.03,0.09-0.01,0.18,0.08,0.25c0.07,0.06,0.15,0.08,0.24,0.06c0.09-0.02,0.25-0.17,0.49-0.44l2.15-2.48
		c0.27-0.31,0.42-0.51,0.46-0.6c0.04-0.09,0.01-0.18-0.08-0.26c-0.09-0.08-0.19-0.09-0.29-0.03c-0.1,0.06-0.28,0.25-0.55,0.56
		L17.5,71.01z"/>
	<path class="st0" d="M12.77,68.84l4.18-3.77l-0.75-0.83l1.05-0.94l1.97,2.18l-5.22,4.71L12.77,68.84z"/>
	<path class="st0" d="M9.38,64.39l5.17-4.88l1.07,1.53l-0.98,0.8l0.37,0.54l1.1-0.63l1.08,1.55l-6.3,3.26L9.38,64.39z M13.64,62.6
		c-0.6,0.53-1.36,1.17-2.26,1.92c1.21-0.62,2.09-1.09,2.62-1.4L13.64,62.6z"/>
	<path class="st0" d="M8.42,55.82l0.74,1.67l-1.12,0.5c-0.33,0.14-0.52,0.25-0.58,0.32c-0.06,0.07-0.07,0.17-0.02,0.29
		c0.06,0.14,0.15,0.2,0.26,0.2s0.33-0.08,0.66-0.23l2.99-1.32c0.31-0.14,0.51-0.25,0.59-0.33c0.08-0.08,0.09-0.18,0.03-0.31
		c-0.06-0.12-0.14-0.18-0.25-0.18c-0.11,0-0.35,0.08-0.7,0.24l-0.81,0.36l-0.74-1.67l0.25-0.11c0.67-0.29,1.16-0.46,1.48-0.49
		c0.32-0.03,0.66,0.07,1.01,0.3c0.35,0.23,0.63,0.58,0.84,1.05c0.22,0.49,0.31,0.93,0.27,1.33c-0.04,0.4-0.19,0.72-0.46,0.96
		s-0.72,0.5-1.35,0.78l-1.88,0.83c-0.46,0.21-0.82,0.34-1.06,0.41c-0.25,0.07-0.51,0.08-0.8,0.01C7.5,60.37,7.23,60.23,6.99,60
		c-0.25-0.22-0.45-0.52-0.61-0.88c-0.22-0.49-0.3-0.94-0.25-1.35c0.05-0.41,0.19-0.72,0.43-0.95s0.66-0.47,1.26-0.74L8.42,55.82z"/>
	<path class="st0" d="M5.13,55.65L4.79,54.4c-0.23-0.83-0.35-1.41-0.36-1.72s0.08-0.6,0.3-0.86c0.21-0.26,0.61-0.47,1.19-0.62
		c0.53-0.14,0.9-0.17,1.12-0.09c0.22,0.08,0.4,0.31,0.54,0.69c-0.01-0.37,0.04-0.64,0.16-0.8c0.11-0.16,0.23-0.27,0.34-0.33
		c0.11-0.06,0.44-0.17,0.99-0.32l1.79-0.49l0.45,1.64l-2.26,0.62c-0.36,0.1-0.58,0.19-0.65,0.27c-0.07,0.08-0.07,0.24-0.01,0.49
		l3.06-0.83l0.48,1.76L5.13,55.65z M5.81,53.57l1.51-0.41c-0.05-0.2-0.12-0.33-0.2-0.4c-0.08-0.06-0.26-0.06-0.56,0.03l-0.37,0.1
		c-0.21,0.06-0.35,0.14-0.39,0.23C5.75,53.21,5.76,53.36,5.81,53.57z"/>
	<path class="st0" d="M3.4,47.11l6.86-1.9l0.23,1.86l-1.24,0.25l0.08,0.65l1.27-0.04l0.23,1.88l-7.1-0.07L3.4,47.11z M8.01,47.52
		c-0.78,0.19-1.75,0.4-2.9,0.64c1.36,0.02,2.35,0.02,2.98-0.01L8.01,47.52z"/>
	<path class="st0" d="M3.32,40.88l7.03,0.15l-0.03,1.6L7.1,43.52l3.2,0.07l-0.03,1.53l-7.03-0.15l0.03-1.53l3.19-0.96l-3.17-0.07
		L3.32,40.88z"/>
	<path class="st0" d="M3.47,39.33l0.31-1.8c0.1-0.57,0.22-0.99,0.36-1.27c0.14-0.28,0.36-0.48,0.66-0.62s0.75-0.15,1.35-0.04
		c0.41,0.07,0.68,0.18,0.81,0.34s0.22,0.43,0.24,0.81c0.17-0.4,0.37-0.66,0.62-0.77c0.24-0.11,0.59-0.13,1.04-0.05l0.64,0.11
		c0.47,0.08,0.81,0.19,1.01,0.34s0.33,0.34,0.37,0.59c0.04,0.25,0,0.73-0.12,1.46l-0.36,2.09L3.47,39.33z M4.96,37.73l1.54,0.27
		c0.01-0.08,0.02-0.14,0.03-0.18c0.03-0.18,0.01-0.3-0.07-0.36c-0.08-0.06-0.32-0.13-0.73-0.2c-0.22-0.04-0.37-0.04-0.47-0.02
		c-0.09,0.03-0.16,0.07-0.19,0.13C5.03,37.42,5,37.54,4.96,37.73z M7.58,38.18l1.94,0.33c0.04-0.26,0.02-0.42-0.04-0.51
		c-0.06-0.08-0.23-0.15-0.51-0.2L8.33,37.7c-0.3-0.05-0.48-0.05-0.56,0C7.7,37.75,7.64,37.91,7.58,38.18z"/>
	<path class="st0" d="M4.56,33.79l0.92-2.91l1.34,0.42l-0.37,1.17l1.27,0.4l0.34-1.09l1.28,0.4L9,33.27l1.48,0.46l0.4-1.28
		l1.34,0.42l-0.95,3.03L4.56,33.79z"/>
	<path class="st0" d="M5.94,29.61l0.55-1.17c0.36-0.78,0.64-1.3,0.83-1.55s0.45-0.4,0.78-0.46s0.77,0.04,1.31,0.29
		c0.5,0.23,0.8,0.45,0.91,0.65c0.11,0.2,0.1,0.49-0.03,0.87c0.23-0.29,0.45-0.46,0.63-0.51s0.35-0.06,0.47-0.04
		c0.13,0.03,0.45,0.16,0.96,0.4l1.68,0.78l-0.72,1.54l-2.12-0.99c-0.34-0.16-0.57-0.23-0.67-0.21c-0.11,0.02-0.21,0.14-0.32,0.37
		l2.88,1.34l-0.77,1.66L5.94,29.61z M7.8,28.46l1.42,0.66c0.09-0.19,0.12-0.33,0.11-0.43c-0.02-0.1-0.17-0.21-0.45-0.34l-0.35-0.16
		c-0.2-0.09-0.35-0.12-0.45-0.08S7.89,28.27,7.8,28.46z"/>
	<path class="st0" d="M10.37,21.56l1.18,0.76l-0.59,0.91l4.73,3.04l-0.99,1.54l-4.73-3.04L9.4,25.68l-1.18-0.76L10.37,21.56z"/>
	<path class="st0" d="M13.74,17.48l2.56,3.92l1.94,1.65l-1.1,1.29L15.2,22.7l-4.25-1.93l1.09-1.28c1.22,0.69,2.02,1.17,2.4,1.46
		c-0.51-0.56-1.1-1.29-1.78-2.18L13.74,17.48z"/>
	<path class="st0" d="M16.4,14.98l5.56,4.43l-1.37,1.27l-0.93-0.86l-0.48,0.45l0.78,1l-1.38,1.29l-4.11-5.78L16.4,14.98z
		 M18.77,18.95c-0.61-0.52-1.35-1.18-2.22-1.97c0.78,1.11,1.37,1.91,1.76,2.4L18.77,18.95z"/>
	<path class="st0" d="M19.41,12.62l3.33,4.54l0.9-0.66l0.83,1.14l-2.37,1.74l-4.16-5.67L19.41,12.62z"/>
	<path class="st0" d="M26.31,8.58l3.3,6.21l-1.41,0.75l-2.23-4.19l1.67,4.49l-1,0.53l-2.77-3.78l2.18,4.1l-1.41,0.75l-3.3-6.21
		l2.09-1.11c0.26,0.34,0.56,0.75,0.89,1.22l1.07,1.46l-1.17-3.1L26.31,8.58z"/>
	<path class="st0" d="M33.11,10.57c0.22,0.67,0.37,1.15,0.43,1.44s0.05,0.58-0.04,0.86c-0.09,0.29-0.25,0.54-0.5,0.76
		s-0.55,0.39-0.93,0.52c-0.36,0.12-0.7,0.17-1.02,0.15c-0.32-0.02-0.61-0.12-0.86-0.3c-0.25-0.18-0.44-0.4-0.56-0.66
		c-0.12-0.26-0.3-0.74-0.53-1.43l-0.38-1.14c-0.22-0.67-0.37-1.15-0.43-1.44c-0.06-0.29-0.05-0.58,0.04-0.86
		c0.09-0.29,0.25-0.54,0.5-0.76s0.55-0.39,0.93-0.52c0.36-0.12,0.7-0.17,1.02-0.15s0.61,0.12,0.86,0.3c0.25,0.18,0.44,0.4,0.56,0.66
		c0.13,0.26,0.3,0.74,0.53,1.43L33.11,10.57z M30.65,8.95c-0.1-0.31-0.19-0.5-0.25-0.58c-0.06-0.08-0.15-0.09-0.26-0.06
		c-0.09,0.03-0.15,0.09-0.17,0.17c-0.02,0.09,0.02,0.3,0.14,0.64l1.04,3.12c0.13,0.39,0.23,0.62,0.29,0.7s0.15,0.1,0.27,0.06
		c0.12-0.04,0.18-0.12,0.17-0.23c0-0.12-0.07-0.37-0.2-0.76L30.65,8.95z"/>
	<path class="st0" d="M37.24,5.57l1.26,6.92l-1.58,0.29L35.42,9.8l0.57,3.15l-1.5,0.27L33.22,6.3l1.5-0.27l1.58,2.93l-0.57-3.12
		L37.24,5.57z"/>
	<path class="st0" d="M38.71,5.4l1.37-0.05c0.88-0.04,1.48-0.02,1.8,0.05s0.56,0.19,0.73,0.37s0.28,0.38,0.33,0.61
		c0.05,0.23,0.09,0.67,0.11,1.34l0.1,2.46c0.03,0.63,0.01,1.05-0.04,1.27s-0.15,0.39-0.29,0.51c-0.14,0.13-0.32,0.22-0.54,0.27
		s-0.54,0.09-0.98,0.11l-2.31,0.09L38.71,5.4z M40.59,6.53l0.19,4.62c0.26-0.01,0.42-0.07,0.48-0.18c0.06-0.11,0.08-0.4,0.06-0.87
		L41.2,7.38c-0.01-0.32-0.03-0.52-0.06-0.61C41.12,6.68,41.07,6.62,41,6.58C40.92,6.54,40.79,6.52,40.59,6.53z"/>
</g>
</svg>
