<?xml version="1.0" encoding="utf-8"?>
<!-- Generator: Adobe Illustrator 23.1.0, SVG Export Plug-In . SVG Version: 6.00 Build 0)  -->
<svg version="1.1" id="Layer_1" xmlns="http://www.w3.org/2000/svg" xmlns:xlink="http://www.w3.org/1999/xlink" x="0px" y="0px"
	 viewBox="0 0 90 90" style="enable-background:new 0 0 90 90;" xml:space="preserve">
<style type="text/css">
	.st0{fill:#FFFFFF;}
</style>
<g>
	<path class="st0" d="M45.17,6.27l-2.5,0.17l-0.06-0.87c-0.04-0.55-0.09-0.89-0.14-1.03s-0.17-0.2-0.35-0.18
		c-0.15,0.01-0.26,0.08-0.3,0.2c-0.05,0.12-0.05,0.43-0.02,0.92l0.32,4.62c0.03,0.43,0.08,0.71,0.14,0.85
		c0.06,0.13,0.18,0.19,0.35,0.18c0.18-0.01,0.3-0.1,0.36-0.26s0.07-0.46,0.04-0.91l-0.08-1.14l-0.51,0.04l-0.1-1.46l2.93-0.2
		l0.36,5.16l-1.57,0.11l-0.28-0.67c-0.15,0.31-0.35,0.55-0.6,0.71s-0.55,0.26-0.9,0.29c-0.42,0.03-0.82-0.05-1.2-0.22
		s-0.68-0.41-0.89-0.7c-0.21-0.29-0.35-0.6-0.42-0.92c-0.07-0.33-0.13-0.82-0.17-1.48l-0.2-2.86C39.29,5.67,39.3,5,39.37,4.58
		s0.33-0.82,0.77-1.2c0.45-0.38,1.04-0.59,1.79-0.65c0.73-0.05,1.35,0.06,1.86,0.33c0.5,0.27,0.84,0.6,1.02,1.01s0.29,1,0.34,1.79
		L45.17,6.27z"/>
	<path class="st0" d="M47.32,2.79L49.08,3c1.17,0.14,1.96,0.28,2.37,0.42c0.41,0.14,0.72,0.41,0.94,0.82
		c0.22,0.4,0.28,1.01,0.18,1.83c-0.09,0.75-0.24,1.23-0.46,1.47c-0.21,0.23-0.6,0.34-1.15,0.33c0.48,0.18,0.79,0.38,0.94,0.61
		c0.14,0.23,0.23,0.43,0.25,0.6c0.02,0.18-0.02,0.65-0.11,1.42l-0.3,2.53l-2.31-0.28l0.38-3.18c0.06-0.51,0.06-0.83-0.01-0.97
		s-0.27-0.22-0.61-0.26l-0.52,4.32l-2.49-0.3L47.32,2.79z M49.62,4.73l-0.26,2.13c0.28,0.03,0.48,0.02,0.6-0.04
		c0.12-0.06,0.21-0.31,0.26-0.73l0.06-0.53c0.04-0.3,0.01-0.51-0.09-0.62C50.1,4.84,49.9,4.76,49.62,4.73z"/>
	<path class="st0" d="M59.32,5.26l-1.51,9.63l-2.45-0.76l0.39-1.69l-0.86-0.27l-0.66,1.61l-2.47-0.77l4.1-8.82L59.32,5.26z
		 M56.21,10.79c0.2-1.08,0.49-2.41,0.84-3.98c-0.79,1.69-1.35,2.93-1.67,3.72L56.21,10.79z"/>
	<path class="st0" d="M67.31,9.05l-4.52,8.52l-1.94-1.03l0.9-4.48l-2.06,3.87l-1.85-0.98l4.52-8.52l1.85,0.98l-0.8,4.49l2.04-3.84
		L67.31,9.05z"/>
	<path class="st0" d="M70.24,18.39c-0.61,0.75-1.06,1.27-1.35,1.56c-0.29,0.28-0.63,0.48-1.03,0.59c-0.4,0.11-0.81,0.1-1.24-0.02
		c-0.43-0.12-0.86-0.35-1.28-0.69c-0.4-0.32-0.71-0.68-0.92-1.07c-0.21-0.39-0.31-0.79-0.29-1.21c0.02-0.42,0.13-0.8,0.35-1.14
		c0.21-0.34,0.63-0.89,1.26-1.67l1.04-1.28c0.61-0.75,1.06-1.27,1.35-1.56c0.29-0.28,0.63-0.48,1.03-0.59s0.81-0.1,1.24,0.02
		c0.43,0.12,0.86,0.35,1.28,0.69c0.4,0.32,0.71,0.68,0.92,1.07c0.21,0.39,0.31,0.79,0.29,1.21c-0.02,0.42-0.13,0.8-0.35,1.14
		c-0.21,0.34-0.63,0.89-1.26,1.67L70.24,18.39z M70.28,14.34c0.28-0.35,0.44-0.59,0.48-0.72s0-0.24-0.12-0.34
		c-0.1-0.08-0.21-0.11-0.33-0.07c-0.12,0.04-0.33,0.25-0.65,0.63l-2.83,3.5c-0.35,0.44-0.55,0.72-0.6,0.85
		c-0.05,0.13-0.01,0.25,0.12,0.35c0.13,0.11,0.26,0.12,0.4,0.03c0.13-0.09,0.38-0.35,0.73-0.79L70.28,14.34z"/>
	<path class="st0" d="M76.97,17.44l-5.77,5.12l1.01,1.14l-1.45,1.28l-2.67-3.02l7.22-6.4L76.97,17.44z"/>
	<path class="st0" d="M81.6,24l-7.44,6.3l-1.35-2.18l1.4-1.03l-0.47-0.76l-1.55,0.79l-1.37-2.2l8.87-4L81.6,24z M75.63,26.14
		c0.86-0.68,1.94-1.5,3.24-2.46c-1.7,0.76-2.94,1.33-3.7,1.73L75.63,26.14z"/>
	<path class="st0" d="M84.19,29.35l0.73,2.39c0.23,0.76,0.35,1.35,0.35,1.77s-0.14,0.81-0.43,1.16c-0.29,0.35-0.83,0.64-1.63,0.89
		c-0.54,0.16-0.94,0.19-1.21,0.09s-0.53-0.39-0.79-0.85c0.04,0.59-0.05,1.03-0.28,1.32s-0.65,0.52-1.25,0.7l-0.86,0.26
		c-0.62,0.19-1.11,0.26-1.45,0.21s-0.62-0.22-0.82-0.49s-0.45-0.9-0.75-1.86l-0.84-2.78L84.19,29.35z M79.85,33.29l-2.58,0.79
		c0.11,0.33,0.23,0.53,0.36,0.6c0.12,0.06,0.37,0.04,0.74-0.07l0.86-0.26c0.39-0.12,0.62-0.23,0.68-0.34
		C79.97,33.89,79.95,33.66,79.85,33.29z M83.34,32.23l-2.05,0.62c0.03,0.1,0.06,0.18,0.08,0.24c0.07,0.24,0.17,0.37,0.31,0.4
		s0.48-0.04,1.02-0.21c0.29-0.09,0.48-0.18,0.58-0.26s0.15-0.18,0.16-0.27C83.44,32.65,83.41,32.48,83.34,32.23z"/>
	<path class="st0" d="M86.33,37.32l0.17,1.77c0.11,1.18,0.14,1.98,0.09,2.41c-0.05,0.43-0.25,0.79-0.6,1.08
		c-0.35,0.3-0.93,0.48-1.75,0.56c-0.75,0.07-1.26,0.02-1.53-0.14c-0.27-0.16-0.46-0.51-0.57-1.05c-0.08,0.51-0.21,0.85-0.4,1.04
		c-0.19,0.19-0.37,0.31-0.54,0.37c-0.17,0.06-0.64,0.12-1.41,0.19l-2.53,0.24l-0.22-2.32l3.19-0.3c0.51-0.05,0.83-0.12,0.94-0.21
		c0.11-0.09,0.16-0.31,0.12-0.65l-4.33,0.4l-0.23-2.5L86.33,37.32z M84.92,39.97l-2.14,0.2c0.03,0.28,0.08,0.47,0.17,0.58
		c0.09,0.11,0.34,0.14,0.77,0.1l0.53-0.05c0.3-0.03,0.5-0.1,0.58-0.22S84.95,40.26,84.92,39.97z"/>
	<path class="st0" d="M80.62,50.47c-0.96-0.1-1.64-0.2-2.04-0.29c-0.4-0.09-0.75-0.27-1.05-0.54c-0.31-0.27-0.53-0.63-0.66-1.05
		c-0.13-0.43-0.17-0.91-0.12-1.45c0.05-0.51,0.19-0.97,0.4-1.36c0.21-0.39,0.5-0.69,0.86-0.91c0.36-0.21,0.74-0.32,1.14-0.33
		c0.4-0.01,1.09,0.04,2.08,0.15l1.64,0.17c0.96,0.1,1.64,0.2,2.04,0.29c0.4,0.09,0.75,0.27,1.05,0.54s0.53,0.62,0.66,1.05
		s0.17,0.91,0.12,1.45c-0.05,0.51-0.19,0.96-0.4,1.36c-0.21,0.39-0.5,0.69-0.86,0.91c-0.36,0.21-0.74,0.32-1.14,0.33
		c-0.4,0.01-1.09-0.04-2.08-0.15L80.62,50.47z M84.04,48.31c0.45,0.05,0.73,0.05,0.86,0.02c0.13-0.04,0.2-0.13,0.22-0.29
		c0.01-0.13-0.03-0.24-0.12-0.32c-0.09-0.08-0.39-0.15-0.88-0.2l-4.48-0.48c-0.56-0.06-0.9-0.07-1.04-0.04
		c-0.14,0.03-0.21,0.13-0.23,0.3c-0.02,0.17,0.04,0.29,0.19,0.35c0.14,0.06,0.5,0.13,1.06,0.18L84.04,48.31z"/>
	<path class="st0" d="M82.46,62.72l-8.64-4.43l1.1-2.93c1.49,0.25,3.16,0.61,5,1.06c-0.72-0.38-2.22-1.19-4.49-2.43l1.09-2.92
		l9.43,2.33l-0.85,2.28l-3.24-0.93l-3.14-0.9c1.54,0.68,3.53,1.67,5.96,2.97l-0.91,2.44c-0.28-0.07-1.3-0.35-3.07-0.86l-3.53-1.03
		c2.14,0.95,4.19,1.97,6.17,3.06L82.46,62.72z"/>
	<path class="st0" d="M77.91,69.32l-7.92-5.51l1.25-1.8l4.34,1.43l-3.6-2.5l1.2-1.72l7.92,5.51l-1.2,1.72l-4.37-1.33l3.57,2.48
		L77.91,69.32z"/>
	<path class="st0" d="M76.33,71.17l-1.28,1.24c-0.85,0.82-1.46,1.35-1.82,1.57c-0.36,0.23-0.77,0.3-1.22,0.21
		c-0.45-0.08-0.96-0.42-1.53-1.01c-0.52-0.54-0.81-0.97-0.85-1.28c-0.04-0.32,0.11-0.68,0.47-1.1c-0.44,0.26-0.8,0.37-1.06,0.34
		c-0.27-0.03-0.47-0.09-0.62-0.19c-0.15-0.09-0.5-0.42-1.04-0.98l-1.77-1.83l1.67-1.62l2.23,2.3c0.36,0.37,0.61,0.57,0.75,0.6
		c0.14,0.03,0.34-0.07,0.59-0.31l-3.03-3.12l1.8-1.75L76.33,71.17z M73.38,71.73l-1.49-1.54c-0.2,0.2-0.32,0.36-0.34,0.5
		c-0.03,0.13,0.11,0.35,0.4,0.66l0.37,0.38c0.21,0.22,0.39,0.33,0.54,0.32C72.99,72.04,73.17,71.94,73.38,71.73z"/>
	<path class="st0" d="M68.59,77.78l-5.62-7.84l2.04-1.46l5.62,7.84L68.59,77.78z"/>
	<path class="st0" d="M59.71,77.92l2.23-1.14l0.76,1.49c0.22,0.43,0.38,0.69,0.49,0.78c0.1,0.08,0.24,0.08,0.4,0
		c0.18-0.09,0.27-0.22,0.25-0.38s-0.14-0.45-0.36-0.89l-2.04-3.99c-0.21-0.42-0.38-0.68-0.49-0.78c-0.12-0.1-0.26-0.11-0.43-0.02
		c-0.17,0.08-0.24,0.2-0.23,0.36c0.01,0.15,0.14,0.47,0.38,0.94l0.55,1.08L59,76.52l-0.17-0.33c-0.46-0.89-0.71-1.55-0.78-1.99
		c-0.06-0.44,0.05-0.9,0.33-1.4c0.29-0.5,0.74-0.91,1.37-1.23c0.65-0.33,1.25-0.49,1.8-0.47c0.54,0.02,0.99,0.2,1.35,0.55
		s0.74,0.94,1.17,1.78l1.28,2.51c0.32,0.62,0.53,1.09,0.65,1.42c0.12,0.33,0.14,0.69,0.08,1.09c-0.06,0.39-0.24,0.77-0.53,1.12
		c-0.29,0.36-0.67,0.66-1.16,0.9c-0.66,0.34-1.27,0.49-1.82,0.45s-1-0.21-1.33-0.52c-0.33-0.31-0.7-0.87-1.11-1.67L59.71,77.92z"/>
	<path class="st0" d="M59.58,82.41l-3.99,1.24l-0.57-1.84l1.6-0.5l-0.54-1.75l-1.5,0.47l-0.55-1.75l1.5-0.47l-0.63-2.03l-1.76,0.55
		l-0.57-1.84l4.15-1.29L59.58,82.41z"/>
	<path class="st0" d="M44.92,81.49l2.5-0.18l0.06,0.87c0.04,0.55,0.09,0.89,0.15,1.03c0.06,0.14,0.17,0.2,0.35,0.18
		c0.15-0.01,0.25-0.08,0.3-0.2c0.05-0.12,0.05-0.43,0.02-0.92l-0.33-4.62c-0.03-0.43-0.08-0.71-0.14-0.85
		c-0.06-0.13-0.18-0.19-0.35-0.18c-0.18,0.01-0.3,0.1-0.36,0.26c-0.05,0.16-0.07,0.46-0.03,0.91l0.08,1.14l0.5-0.04l0.1,1.46
		l-2.93,0.21l-0.37-5.16l1.57-0.11l0.28,0.67c0.15-0.31,0.35-0.55,0.6-0.71s0.55-0.26,0.9-0.29c0.42-0.03,0.82,0.04,1.2,0.22
		c0.38,0.18,0.68,0.41,0.89,0.7c0.21,0.29,0.35,0.59,0.42,0.92s0.13,0.82,0.18,1.48l0.2,2.86c0.07,0.92,0.06,1.59,0,2.01
		s-0.33,0.82-0.77,1.21c-0.44,0.38-1.04,0.6-1.78,0.65c-0.73,0.05-1.35-0.05-1.86-0.32s-0.85-0.6-1.02-1c-0.18-0.4-0.29-1-0.35-1.79
		L44.92,81.49z"/>
	<path class="st0" d="M42.81,84.97l-1.76-0.21c-1.18-0.14-1.97-0.28-2.37-0.41c-0.41-0.14-0.72-0.41-0.94-0.81
		c-0.22-0.4-0.28-1.01-0.19-1.83c0.09-0.75,0.24-1.24,0.45-1.47c0.22-0.24,0.6-0.35,1.15-0.33c-0.48-0.18-0.79-0.38-0.94-0.61
		s-0.23-0.43-0.25-0.6c-0.02-0.18,0.01-0.65,0.1-1.42l0.29-2.53l2.31,0.27l-0.37,3.18c-0.06,0.51-0.06,0.83,0.01,0.97
		c0.07,0.13,0.27,0.22,0.61,0.26l0.5-4.32l2.49,0.29L42.81,84.97z M40.51,83.04l0.25-2.13c-0.28-0.03-0.48-0.02-0.6,0.05
		c-0.12,0.06-0.21,0.31-0.26,0.73l-0.06,0.53c-0.04,0.3,0,0.51,0.09,0.62C40.03,82.93,40.22,83,40.51,83.04z"/>
	<path class="st0" d="M30.8,82.53l1.48-9.64l2.45,0.76l-0.38,1.7l0.86,0.26L35.85,74l2.48,0.77l-4.07,8.84L30.8,82.53z M33.9,77
		c-0.2,1.08-0.48,2.41-0.83,3.98c0.79-1.69,1.34-2.93,1.66-3.73L33.9,77z"/>
	<path class="st0" d="M22.8,78.77l4.5-8.53l1.94,1.02l-0.89,4.49l2.04-3.88l1.85,0.98l-4.5,8.53L25.9,80.4l0.78-4.5l-2.03,3.84
		L22.8,78.77z"/>
	<path class="st0" d="M19.84,69.44c0.61-0.75,1.06-1.28,1.34-1.56c0.29-0.29,0.63-0.48,1.03-0.59s0.81-0.11,1.24,0.01
		s0.86,0.35,1.28,0.69c0.4,0.32,0.71,0.68,0.93,1.07c0.21,0.39,0.31,0.79,0.3,1.21s-0.13,0.8-0.34,1.14
		c-0.21,0.34-0.63,0.9-1.25,1.67l-1.03,1.29c-0.61,0.76-1.06,1.28-1.34,1.56c-0.29,0.29-0.63,0.48-1.03,0.59
		c-0.4,0.11-0.81,0.11-1.24-0.01s-0.86-0.35-1.28-0.69c-0.4-0.32-0.71-0.68-0.92-1.07c-0.21-0.39-0.31-0.79-0.3-1.21
		s0.13-0.8,0.34-1.14c0.21-0.34,0.63-0.9,1.25-1.67L19.84,69.44z M19.81,73.48c-0.28,0.35-0.44,0.59-0.48,0.72
		c-0.04,0.13,0,0.24,0.12,0.34c0.1,0.08,0.21,0.11,0.33,0.07s0.33-0.25,0.64-0.63l2.82-3.51c0.35-0.44,0.55-0.72,0.6-0.85
		c0.05-0.13,0-0.25-0.13-0.35c-0.13-0.11-0.27-0.12-0.4-0.03c-0.13,0.09-0.38,0.35-0.73,0.8L19.81,73.48z"/>
	<path class="st0" d="M13.12,70.41l5.76-5.13l-1.01-1.14l1.44-1.28l2.68,3.01l-7.2,6.42L13.12,70.41z"/>
	<path class="st0" d="M8.46,63.86l7.42-6.33l1.36,2.17l-1.4,1.03l0.48,0.76l1.55-0.79l1.37,2.2l-8.86,4.02L8.46,63.86z M14.43,61.7
		c-0.86,0.69-1.94,1.51-3.23,2.47c1.7-0.76,2.93-1.34,3.69-1.74L14.43,61.7z"/>
	<path class="st0" d="M5.86,58.52l-0.74-2.39c-0.23-0.76-0.35-1.35-0.35-1.77c0-0.42,0.14-0.81,0.42-1.16
		c0.29-0.35,0.83-0.65,1.62-0.89c0.54-0.17,0.94-0.2,1.2-0.09c0.26,0.1,0.53,0.39,0.8,0.85c-0.04-0.59,0.05-1.03,0.28-1.32
		c0.23-0.29,0.64-0.52,1.24-0.71l0.85-0.26c0.62-0.19,1.11-0.26,1.45-0.21s0.62,0.21,0.82,0.49c0.21,0.28,0.46,0.9,0.75,1.86
		l0.85,2.77L5.86,58.52z M6.7,55.63L8.75,55c-0.04-0.1-0.06-0.18-0.08-0.24c-0.07-0.24-0.18-0.37-0.31-0.4
		c-0.14-0.03-0.48,0.04-1.02,0.21c-0.29,0.09-0.48,0.18-0.58,0.27c-0.1,0.09-0.15,0.18-0.16,0.28C6.59,55.22,6.63,55.39,6.7,55.63z
		 M10.18,54.56l2.58-0.79c-0.12-0.33-0.23-0.53-0.36-0.6c-0.12-0.06-0.37-0.04-0.74,0.08l-0.86,0.26c-0.4,0.12-0.62,0.24-0.68,0.35
		C10.06,53.97,10.08,54.2,10.18,54.56z"/>
	<path class="st0" d="M3.68,50.53l-0.17-1.77c-0.11-1.18-0.14-1.98-0.09-2.41c0.05-0.43,0.25-0.79,0.6-1.09
		c0.35-0.3,0.93-0.49,1.75-0.57c0.75-0.07,1.26-0.03,1.53,0.13s0.46,0.51,0.57,1.05c0.08-0.51,0.21-0.85,0.4-1.04
		c0.19-0.19,0.37-0.31,0.54-0.37c0.17-0.06,0.64-0.12,1.41-0.2l2.53-0.24l0.22,2.32l-3.19,0.31c-0.51,0.05-0.83,0.12-0.94,0.21
		s-0.16,0.31-0.12,0.66l4.33-0.41l0.24,2.5L3.68,50.53z M5.08,47.88l2.13-0.2c-0.03-0.28-0.08-0.47-0.17-0.58
		c-0.09-0.1-0.34-0.14-0.77-0.1l-0.53,0.05c-0.3,0.03-0.5,0.1-0.58,0.22C5.09,47.39,5.06,47.59,5.08,47.88z"/>
	<path class="st0" d="M9.36,37.37c0.96,0.1,1.64,0.19,2.04,0.28c0.4,0.09,0.75,0.27,1.05,0.54c0.31,0.27,0.53,0.62,0.66,1.05
		c0.14,0.43,0.17,0.91,0.12,1.45c-0.05,0.51-0.19,0.97-0.4,1.36c-0.21,0.39-0.5,0.69-0.86,0.91c-0.36,0.21-0.74,0.32-1.14,0.33
		s-1.09-0.04-2.08-0.14l-1.64-0.17c-0.96-0.1-1.64-0.19-2.04-0.28c-0.4-0.09-0.75-0.27-1.05-0.54c-0.31-0.27-0.53-0.62-0.66-1.05
		c-0.14-0.43-0.17-0.91-0.12-1.45c0.05-0.51,0.19-0.97,0.4-1.36c0.21-0.39,0.5-0.69,0.86-0.91c0.36-0.21,0.74-0.32,1.14-0.33
		c0.4-0.01,1.09,0.04,2.08,0.14L9.36,37.37z M5.95,39.54c-0.45-0.05-0.73-0.05-0.86-0.02c-0.13,0.04-0.2,0.13-0.22,0.29
		c-0.01,0.13,0.03,0.24,0.12,0.31c0.09,0.08,0.39,0.15,0.88,0.2l4.48,0.47c0.56,0.06,0.9,0.07,1.04,0.04s0.21-0.13,0.23-0.3
		c0.02-0.17-0.05-0.29-0.19-0.35c-0.15-0.06-0.5-0.12-1.06-0.18L5.95,39.54z"/>
	<path class="st0" d="M7.48,25.15l8.65,4.4l-1.09,2.94c-1.49-0.25-3.16-0.6-5.01-1.05c0.73,0.38,2.22,1.18,4.5,2.41l-1.08,2.92
		l-9.43-2.3l0.85-2.28l3.25,0.92L11.25,34c-1.55-0.67-3.53-1.66-5.96-2.95l0.91-2.44c0.28,0.07,1.3,0.35,3.08,0.85l3.54,1.02
		c-2.14-0.95-4.2-1.96-6.18-3.04L7.48,25.15z"/>
	<path class="st0" d="M12.02,18.53l7.93,5.48l-1.25,1.81l-4.35-1.42l3.61,2.49l-1.19,1.73l-7.93-5.48l1.19-1.73l4.37,1.31
		l-3.57-2.47L12.02,18.53z"/>
	<path class="st0" d="M13.59,16.67l1.27-1.24c0.85-0.83,1.45-1.35,1.82-1.58s0.77-0.3,1.22-0.21c0.45,0.08,0.96,0.42,1.54,1.01
		c0.52,0.54,0.81,0.96,0.86,1.28c0.05,0.31-0.11,0.68-0.46,1.1c0.44-0.26,0.8-0.37,1.06-0.34c0.27,0.03,0.48,0.09,0.63,0.18
		c0.15,0.09,0.5,0.42,1.04,0.98l1.78,1.82l-1.67,1.63L20.43,19c-0.36-0.37-0.61-0.57-0.76-0.6c-0.14-0.03-0.34,0.07-0.59,0.31
		l3.04,3.11l-1.8,1.75L13.59,16.67z M16.54,16.1l1.5,1.54c0.2-0.2,0.32-0.36,0.34-0.5s-0.11-0.35-0.4-0.66l-0.37-0.38
		c-0.21-0.22-0.39-0.32-0.54-0.32C16.92,15.79,16.75,15.9,16.54,16.1z"/>
	<path class="st0" d="M21.3,10.04l5.65,7.82l-2.03,1.47l-5.65-7.82L21.3,10.04z"/>
	<path class="st0" d="M30.18,9.87l-2.23,1.15l-0.77-1.49c-0.22-0.43-0.39-0.69-0.49-0.77c-0.1-0.08-0.24-0.08-0.4,0
		c-0.18,0.09-0.27,0.22-0.25,0.38c0.02,0.16,0.14,0.45,0.36,0.89L28.46,14c0.21,0.42,0.38,0.68,0.49,0.78
		c0.12,0.1,0.26,0.11,0.43,0.02c0.17-0.09,0.24-0.21,0.23-0.36c-0.01-0.15-0.14-0.47-0.39-0.94l-0.56-1.08l2.23-1.15l0.17,0.33
		c0.46,0.89,0.72,1.55,0.79,1.98c0.07,0.44-0.04,0.9-0.33,1.4s-0.74,0.91-1.37,1.24c-0.65,0.34-1.25,0.5-1.8,0.48s-1-0.2-1.35-0.55
		c-0.35-0.35-0.75-0.94-1.18-1.78l-1.29-2.5c-0.32-0.62-0.54-1.09-0.65-1.42c-0.12-0.33-0.14-0.69-0.08-1.09
		c0.06-0.39,0.24-0.77,0.53-1.13c0.29-0.36,0.67-0.66,1.16-0.91c0.66-0.34,1.26-0.49,1.82-0.46c0.56,0.03,1,0.21,1.33,0.51
		c0.33,0.31,0.7,0.86,1.11,1.67L30.18,9.87z"/>
	<path class="st0" d="M30.3,5.39l3.99-1.26l0.58,1.84l-1.6,0.5l0.55,1.74l1.49-0.47l0.55,1.75l-1.49,0.47l0.64,2.02l1.76-0.55
		l0.58,1.84l-4.15,1.31L30.3,5.39z"/>
</g>
</svg>
