<?xml version="1.0" encoding="utf-8"?>
<!-- Generator: Adobe Illustrator 23.1.0, SVG Export Plug-In . SVG Version: 6.00 Build 0)  -->
<svg version="1.1" id="Layer_1" xmlns="http://www.w3.org/2000/svg" xmlns:xlink="http://www.w3.org/1999/xlink" x="0px" y="0px"
	 viewBox="0 0 90 90" style="enable-background:new 0 0 90 90;" xml:space="preserve">
<style type="text/css">
	.st0{fill:#FFFFFF;}
</style>
<g>
	<path class="st0" d="M59.85,8.3l-2.33-0.81l0.28-0.81c0.18-0.51,0.27-0.84,0.27-0.99s-0.08-0.25-0.25-0.3
		c-0.14-0.05-0.26-0.03-0.35,0.06c-0.09,0.09-0.22,0.37-0.38,0.83l-1.5,4.3c-0.14,0.4-0.21,0.68-0.2,0.82
		c0.01,0.15,0.09,0.24,0.24,0.3c0.17,0.06,0.31,0.03,0.42-0.09s0.24-0.39,0.38-0.81l0.37-1.06l-0.47-0.16l0.48-1.36l2.73,0.95
		l-1.68,4.81l-1.46-0.51l0.01-0.72c-0.26,0.22-0.53,0.36-0.82,0.41s-0.6,0.02-0.93-0.09c-0.39-0.14-0.72-0.36-1-0.67
		c-0.28-0.31-0.45-0.63-0.53-0.98s-0.09-0.68-0.02-1c0.06-0.32,0.2-0.79,0.42-1.41l0.93-2.66c0.3-0.86,0.56-1.46,0.79-1.82
		s0.62-0.62,1.17-0.79s1.17-0.13,1.86,0.11c0.68,0.24,1.2,0.58,1.55,1.01c0.35,0.44,0.53,0.87,0.53,1.31c0,0.43-0.13,1.02-0.38,1.75
		L59.85,8.3z"/>
	<path class="st0" d="M63.13,5.99l1.51,0.88c1.01,0.58,1.67,1.02,1.98,1.3c0.31,0.28,0.49,0.65,0.53,1.1
		C67.18,9.72,67,10.3,66.59,11c-0.37,0.64-0.7,1.02-0.99,1.15s-0.67,0.08-1.17-0.15c0.36,0.35,0.56,0.65,0.61,0.91
		c0.04,0.26,0.04,0.47-0.01,0.64s-0.27,0.58-0.65,1.24l-1.25,2.16l-1.98-1.15l1.58-2.73c0.25-0.44,0.38-0.73,0.37-0.88
		c-0.01-0.14-0.16-0.3-0.45-0.47l-2.15,3.7l-2.13-1.24L63.13,5.99z M64.45,8.64l-1.06,1.82c0.24,0.14,0.43,0.2,0.56,0.19
		c0.13-0.01,0.31-0.2,0.52-0.56l0.26-0.45c0.15-0.26,0.2-0.46,0.16-0.59C64.84,8.92,64.69,8.78,64.45,8.64z"/>
	<path class="st0" d="M72.99,12.87l-5.1,8.12l-1.92-1.64l1.01-1.38l-0.67-0.57l-1.22,1.2l-1.94-1.66l7.12-6.39L72.99,12.87z
		 M68.03,16.65c0.6-0.9,1.37-1.99,2.31-3.27c-1.37,1.22-2.36,2.12-2.95,2.72L68.03,16.65z"/>
	<path class="st0" d="M78.72,19.37l-7.39,5.95l-1.36-1.68l2.55-3.71l-3.36,2.71l-1.29-1.61l7.39-5.95l1.29,1.61l-2.46,3.76
		l3.33-2.68L78.72,19.37z"/>
	<path class="st0" d="M77.76,28.96c-0.84,0.44-1.45,0.74-1.82,0.88c-0.37,0.14-0.76,0.19-1.16,0.13s-0.77-0.22-1.11-0.5
		s-0.64-0.65-0.89-1.12c-0.24-0.45-0.38-0.89-0.42-1.33s0.03-0.84,0.21-1.21c0.18-0.37,0.43-0.67,0.75-0.89
		c0.32-0.22,0.92-0.56,1.78-1.02l1.44-0.76c0.84-0.44,1.45-0.74,1.82-0.88c0.37-0.15,0.76-0.19,1.16-0.13
		c0.4,0.06,0.77,0.22,1.11,0.5c0.34,0.27,0.64,0.65,0.89,1.12c0.24,0.45,0.38,0.89,0.42,1.33c0.04,0.44-0.03,0.84-0.21,1.21
		c-0.18,0.37-0.43,0.67-0.75,0.89c-0.32,0.22-0.92,0.56-1.78,1.02L77.76,28.96z M79.38,25.33c0.39-0.21,0.63-0.36,0.71-0.46
		c0.09-0.1,0.09-0.22,0.02-0.35c-0.06-0.11-0.15-0.18-0.27-0.19c-0.12-0.01-0.4,0.09-0.83,0.32L75.1,26.7
		c-0.49,0.26-0.78,0.43-0.87,0.53c-0.09,0.1-0.1,0.22-0.03,0.37c0.08,0.15,0.19,0.21,0.35,0.18c0.15-0.03,0.48-0.17,0.97-0.43
		L79.38,25.33z"/>
	<path class="st0" d="M84.2,30.73l-7.21,2.36l0.47,1.43l-1.8,0.59l-1.23-3.77l9.02-2.95L84.2,30.73z"/>
	<path class="st0" d="M85.81,38.5l-9.19,2.76l-0.36-2.5l1.67-0.38l-0.13-0.87l-1.71,0.1l-0.37-2.52l9.57-0.11L85.81,38.5z
		 M79.59,38.08c1.05-0.28,2.34-0.59,3.89-0.94c-1.83,0.01-3.17,0.05-4.01,0.1L79.59,38.08z"/>
	<path class="st0" d="M86.03,44.23l-0.25,2.47c-0.07,0.67-0.17,1.18-0.32,1.53c-0.14,0.35-0.32,0.6-0.54,0.76
		c-0.22,0.16-0.47,0.26-0.76,0.29s-0.73,0.02-1.32-0.04l-0.82-0.08c-0.6-0.06-1.04-0.17-1.3-0.32c-0.26-0.15-0.45-0.4-0.57-0.75
		c-0.11-0.35-0.14-0.79-0.09-1.33l0.07-0.66l-3.8-0.39l0.25-2.45L86.03,44.23z M84.16,46.52l-2.4-0.25
		c-0.01,0.07-0.02,0.13-0.02,0.18c-0.02,0.23,0.02,0.39,0.12,0.49c0.1,0.1,0.33,0.17,0.68,0.2l0.78,0.08c0.32,0.03,0.54,0,0.64-0.09
		C84.06,47.04,84.13,46.84,84.16,46.52z"/>
	<path class="st0" d="M85.08,51.56l-0.5,1.67c-0.33,1.12-0.6,1.86-0.81,2.23c-0.2,0.37-0.52,0.63-0.95,0.77
		c-0.43,0.14-1.03,0.1-1.8-0.13c-0.71-0.21-1.16-0.44-1.35-0.69c-0.19-0.25-0.23-0.64-0.13-1.17c-0.26,0.43-0.51,0.7-0.75,0.8
		c-0.24,0.1-0.45,0.15-0.63,0.14c-0.17-0.01-0.63-0.13-1.36-0.34l-2.4-0.72l0.66-2.19l3.02,0.91c0.49,0.15,0.8,0.2,0.94,0.16
		c0.14-0.04,0.26-0.23,0.36-0.55l-4.1-1.23l0.71-2.36L85.08,51.56z M82.81,53.46l-2.02-0.61c-0.08,0.27-0.1,0.46-0.06,0.59
		c0.04,0.13,0.26,0.25,0.66,0.37l0.5,0.15c0.29,0.09,0.49,0.09,0.61,0.02C82.63,53.91,82.73,53.73,82.81,53.46z"/>
	<path class="st0" d="M75.02,61.44c-0.84-0.45-1.43-0.78-1.76-1.01s-0.58-0.52-0.76-0.88c-0.18-0.36-0.25-0.76-0.22-1.2
		c0.03-0.44,0.18-0.89,0.43-1.37c0.24-0.45,0.53-0.81,0.86-1.09c0.34-0.28,0.71-0.45,1.12-0.51c0.41-0.06,0.8-0.02,1.16,0.12
		c0.37,0.14,0.98,0.44,1.84,0.9l1.43,0.76c0.84,0.45,1.43,0.78,1.76,1.01s0.58,0.52,0.76,0.88s0.25,0.76,0.22,1.2
		c-0.03,0.44-0.18,0.89-0.43,1.37c-0.24,0.45-0.53,0.81-0.86,1.09c-0.34,0.28-0.71,0.45-1.12,0.51c-0.41,0.06-0.8,0.02-1.16-0.12
		c-0.37-0.14-0.98-0.44-1.84-0.9L75.02,61.44z M78.93,60.72c0.39,0.21,0.65,0.32,0.78,0.33s0.23-0.05,0.3-0.18
		c0.06-0.11,0.06-0.22,0.01-0.33s-0.3-0.28-0.73-0.5l-3.91-2.08c-0.49-0.26-0.8-0.4-0.93-0.42c-0.13-0.02-0.24,0.04-0.32,0.19
		c-0.08,0.15-0.06,0.28,0.04,0.39c0.11,0.11,0.41,0.3,0.9,0.56L78.93,60.72z"/>
	<path class="st0" d="M75.58,69.79l-1.49-1.18L75,67.46l-5.95-4.7l1.53-1.94l5.95,4.7l0.91-1.14l1.49,1.18L75.58,69.79z"/>
	<path class="st0" d="M74.38,71.01l-3.02,2.8l-1.29-1.39l1.21-1.12l-1.22-1.32l-1.13,1.05L67.7,69.7l1.13-1.05l-1.42-1.53
		l-1.33,1.23l-1.29-1.39l3.14-2.91L74.38,71.01z"/>
	<path class="st0" d="M67.97,76.32l-5.55-7.7l2-1.44l5.55,7.69L67.97,76.32z"/>
	<path class="st0" d="M61.39,80.04l-4.38-8.41l1.92-1l3.13,3.23l-1.99-3.83l1.83-0.95l4.38,8.41l-1.83,0.95l-3.2-3.15l1.97,3.79
		L61.39,80.04z"/>
	<path class="st0" d="M56.74,81.76l-2.4,0.56c-0.76,0.18-1.34,0.25-1.76,0.22c-0.42-0.03-0.79-0.19-1.11-0.5
		c-0.32-0.3-0.58-0.85-0.76-1.65c-0.13-0.54-0.13-0.94-0.01-1.19c0.12-0.25,0.42-0.49,0.89-0.72c-0.58,0-1.01-0.12-1.28-0.36
		s-0.47-0.67-0.61-1.27L49.5,76c-0.15-0.62-0.18-1.1-0.11-1.44s0.25-0.59,0.54-0.78c0.29-0.18,0.91-0.39,1.88-0.61l2.78-0.65
		L56.74,81.76z M53.16,77.25l-0.6-2.58c-0.34,0.09-0.54,0.19-0.61,0.31s-0.06,0.36,0.02,0.73l0.2,0.86c0.09,0.4,0.19,0.63,0.29,0.69
		C52.57,77.33,52.8,77.32,53.16,77.25z M53.97,80.74l-0.48-2.05c-0.1,0.03-0.18,0.05-0.24,0.06c-0.24,0.05-0.37,0.15-0.41,0.28
		c-0.04,0.13,0.01,0.47,0.14,1.02c0.07,0.29,0.14,0.49,0.22,0.59c0.08,0.1,0.17,0.16,0.26,0.17S53.72,80.79,53.97,80.74z"/>
	<path class="st0" d="M44.69,83.54l-1.86-9.41l2.52-0.12l0.21,1.7l0.88-0.04l0.07-1.71l2.55-0.12l-0.81,9.54L44.69,83.54z
		 M45.7,77.38c0.18,1.07,0.36,2.39,0.56,3.96c0.17-1.83,0.26-3.16,0.29-4L45.7,77.38z"/>
	<path class="st0" d="M41.57,83.5l-1.73-0.23c-1.15-0.15-1.93-0.3-2.33-0.44s-0.7-0.41-0.91-0.81c-0.21-0.4-0.26-1-0.16-1.8
		c0.1-0.73,0.25-1.21,0.47-1.44c0.21-0.23,0.59-0.33,1.13-0.31c-0.47-0.18-0.77-0.39-0.91-0.61c-0.14-0.22-0.22-0.42-0.24-0.6
		s0.02-0.64,0.12-1.4l0.32-2.48l2.27,0.3L39.2,76.8c-0.07,0.5-0.07,0.82,0,0.95c0.06,0.13,0.26,0.22,0.6,0.26l0.55-4.24l2.45,0.32
		L41.57,83.5z M39.33,81.57l0.27-2.09c-0.28-0.04-0.47-0.02-0.59,0.04c-0.12,0.06-0.21,0.3-0.26,0.71l-0.07,0.52
		c-0.04,0.3-0.01,0.5,0.08,0.61C38.86,81.46,39.05,81.53,39.33,81.57z"/>
	<path class="st0" d="M29.54,77.19l2.34,0.77l-0.27,0.82c-0.17,0.52-0.25,0.85-0.25,0.99c0,0.14,0.09,0.24,0.25,0.3
		c0.14,0.05,0.26,0.02,0.35-0.07c0.09-0.09,0.21-0.37,0.36-0.83l1.42-4.33c0.13-0.4,0.19-0.68,0.19-0.82
		c-0.01-0.14-0.09-0.24-0.25-0.29c-0.17-0.06-0.31-0.02-0.42,0.1c-0.11,0.12-0.23,0.4-0.37,0.82l-0.35,1.07l0.47,0.16l-0.45,1.37
		l-2.74-0.9l1.59-4.84l1.47,0.48l0,0.72c0.25-0.23,0.52-0.37,0.81-0.43c0.29-0.06,0.6-0.03,0.93,0.07c0.39,0.13,0.73,0.35,1.01,0.65
		c0.28,0.3,0.46,0.63,0.55,0.97s0.1,0.67,0.04,1s-0.19,0.8-0.39,1.42l-0.88,2.68c-0.28,0.86-0.54,1.47-0.76,1.83
		c-0.22,0.36-0.6,0.63-1.15,0.81c-0.55,0.18-1.17,0.16-1.87-0.08c-0.69-0.23-1.21-0.55-1.57-0.99c-0.36-0.43-0.54-0.86-0.55-1.3
		c-0.01-0.43,0.11-1.02,0.35-1.76L29.54,77.19z"/>
	<path class="st0" d="M26.29,79.55l-1.53-0.85c-1.02-0.57-1.68-0.99-2-1.27c-0.32-0.28-0.5-0.64-0.55-1.09
		c-0.05-0.45,0.13-1.03,0.52-1.73c0.36-0.65,0.68-1.03,0.96-1.17c0.28-0.13,0.67-0.09,1.17,0.13c-0.37-0.34-0.58-0.64-0.62-0.9
		c-0.05-0.26-0.05-0.47,0-0.64c0.05-0.17,0.26-0.59,0.63-1.26l1.22-2.19l2,1.11l-1.53,2.75c-0.25,0.44-0.36,0.74-0.35,0.88
		s0.17,0.3,0.46,0.46l2.08-3.74l2.16,1.2L26.29,79.55z M24.92,76.93l1.03-1.84c-0.24-0.13-0.43-0.2-0.56-0.18
		c-0.13,0.01-0.3,0.2-0.51,0.57l-0.25,0.46c-0.15,0.26-0.2,0.46-0.15,0.6C24.52,76.66,24.67,76.79,24.92,76.93z"/>
	<path class="st0" d="M16.3,72.85l4.95-8.21l1.94,1.6l-0.98,1.4l0.68,0.56l1.2-1.22l1.97,1.62l-7.01,6.51L16.3,72.85z M21.19,68.97
		c-0.59,0.91-1.34,2.01-2.25,3.31c1.35-1.24,2.32-2.17,2.9-2.77L21.19,68.97z"/>
	<path class="st0" d="M10.45,66.45l7.28-6.09l1.39,1.66l-2.48,3.75l3.31-2.77l1.32,1.58l-7.28,6.09l-1.32-1.58l2.39-3.8l-3.28,2.74
		L10.45,66.45z"/>
	<path class="st0" d="M11.24,56.85c0.83-0.46,1.44-0.76,1.81-0.92s0.75-0.2,1.16-0.15c0.4,0.05,0.78,0.21,1.12,0.48
		c0.35,0.27,0.65,0.64,0.91,1.1c0.24,0.45,0.39,0.88,0.44,1.32s-0.01,0.84-0.18,1.21s-0.42,0.68-0.74,0.91s-0.91,0.58-1.76,1.05
		l-1.42,0.78c-0.83,0.46-1.44,0.76-1.81,0.92S10,63.75,9.6,63.7c-0.4-0.05-0.78-0.21-1.12-0.48c-0.35-0.27-0.65-0.64-0.91-1.11
		c-0.24-0.45-0.39-0.88-0.44-1.32s0.01-0.84,0.18-1.21c0.17-0.38,0.42-0.68,0.74-0.91c0.32-0.23,0.91-0.58,1.76-1.05L11.24,56.85z
		 M9.69,60.51c-0.39,0.21-0.62,0.37-0.71,0.47c-0.08,0.1-0.09,0.22-0.02,0.35c0.06,0.11,0.15,0.18,0.27,0.19
		c0.12,0.01,0.39-0.1,0.82-0.33l3.88-2.13c0.48-0.27,0.77-0.45,0.86-0.55s0.1-0.22,0.02-0.37c-0.08-0.15-0.2-0.21-0.35-0.18
		C14.32,58,14,58.15,13.51,58.41L9.69,60.51z"/>
	<path class="st0" d="M4.77,55.21l7.17-2.49l-0.49-1.42l1.79-0.62l1.3,3.75l-8.96,3.12L4.77,55.21z"/>
	<path class="st0" d="M3.02,47.49l9.13-2.93l0.41,2.49l-1.66,0.41l0.14,0.87l1.71-0.13l0.41,2.52L3.6,51L3.02,47.49z M9.25,47.79
		c-1.04,0.3-2.33,0.64-3.87,1.02c1.83-0.05,3.17-0.11,4.01-0.18L9.25,47.79z"/>
	<path class="st0" d="M2.69,41.74l0.21-2.48c0.06-0.67,0.15-1.18,0.29-1.53c0.14-0.35,0.31-0.61,0.52-0.77
		c0.21-0.16,0.46-0.27,0.75-0.31s0.73-0.04,1.32,0.01l0.82,0.07c0.6,0.05,1.04,0.15,1.3,0.3s0.46,0.39,0.58,0.74
		s0.16,0.79,0.11,1.32l-0.05,0.66l3.81,0.32l-0.21,2.46L2.69,41.74z M4.51,39.42l2.41,0.2c0.01-0.07,0.02-0.13,0.02-0.18
		c0.02-0.23-0.02-0.39-0.13-0.48c-0.1-0.1-0.33-0.16-0.68-0.19L5.35,38.7c-0.32-0.03-0.54,0.01-0.64,0.1
		C4.61,38.89,4.54,39.1,4.51,39.42z"/>
	<path class="st0" d="M3.51,34.37l0.47-1.68c0.31-1.12,0.57-1.87,0.77-2.24c0.2-0.37,0.51-0.63,0.94-0.78
		c0.43-0.15,1.03-0.12,1.81,0.1c0.71,0.2,1.16,0.42,1.36,0.67C9.04,30.67,9.09,31.06,9,31.6c0.25-0.44,0.49-0.71,0.73-0.82
		c0.24-0.11,0.45-0.16,0.62-0.15s0.63,0.11,1.37,0.32l2.41,0.68l-0.62,2.21l-3.04-0.85c-0.49-0.14-0.8-0.18-0.94-0.14
		c-0.14,0.04-0.25,0.23-0.34,0.56l4.12,1.15l-0.67,2.38L3.51,34.37z M5.74,32.43L7.77,33c0.07-0.27,0.09-0.46,0.05-0.59
		c-0.04-0.13-0.27-0.25-0.67-0.36l-0.5-0.14c-0.29-0.08-0.49-0.08-0.61,0S5.82,32.16,5.74,32.43z"/>
	<path class="st0" d="M13.37,24.33c0.85,0.43,1.44,0.76,1.77,0.98s0.59,0.51,0.78,0.87c0.19,0.36,0.27,0.76,0.24,1.2
		c-0.03,0.44-0.16,0.9-0.4,1.37c-0.23,0.45-0.51,0.82-0.84,1.11s-0.7,0.46-1.11,0.53c-0.41,0.07-0.8,0.04-1.17-0.1
		s-0.99-0.42-1.86-0.87l-1.45-0.74c-0.85-0.43-1.44-0.76-1.77-0.98s-0.59-0.51-0.78-0.87c-0.19-0.36-0.27-0.76-0.24-1.2
		c0.03-0.44,0.16-0.9,0.4-1.37c0.23-0.45,0.51-0.82,0.84-1.11c0.33-0.29,0.7-0.46,1.11-0.53c0.41-0.07,0.8-0.04,1.17,0.1
		c0.37,0.14,0.99,0.42,1.86,0.87L13.37,24.33z M9.48,25.11c-0.39-0.2-0.66-0.31-0.79-0.32s-0.23,0.05-0.3,0.19
		c-0.06,0.11-0.06,0.23,0,0.33c0.06,0.11,0.3,0.27,0.74,0.49l3.95,2.01c0.49,0.25,0.8,0.38,0.94,0.4c0.14,0.02,0.24-0.05,0.31-0.19
		c0.08-0.15,0.06-0.28-0.05-0.39c-0.11-0.11-0.42-0.29-0.91-0.54L9.48,25.11z"/>
	<path class="st0" d="M12.67,15.98l1.51,1.15l-0.89,1.17l6.04,4.6l-1.49,1.96l-6.04-4.6l-0.88,1.16L9.4,20.27L12.67,15.98z"/>
	<path class="st0" d="M13.85,14.74l2.97-2.85l1.31,1.37l-1.19,1.14l1.25,1.3l1.11-1.07l1.25,1.3L19.44,17l1.44,1.5l1.31-1.25
		l1.31,1.37l-3.08,2.96L13.85,14.74z"/>
	<path class="st0" d="M20.16,9.32l5.68,7.59l-1.98,1.48l-5.68-7.59L20.16,9.32z"/>
	<path class="st0" d="M26.67,5.49l4.53,8.33l-1.9,1.03l-3.19-3.18l2.06,3.79l-1.81,0.99l-4.53-8.33l1.81-0.99l3.25,3.09l-2.04-3.75
		L26.67,5.49z"/>
	<path class="st0" d="M31.29,3.68l2.39-0.6c0.75-0.19,1.34-0.27,1.76-0.26C35.85,2.84,36.23,3,36.56,3.3
		c0.33,0.3,0.59,0.84,0.79,1.64c0.14,0.54,0.15,0.93,0.03,1.19c-0.12,0.25-0.41,0.5-0.87,0.74c0.58-0.01,1.01,0.1,1.28,0.34
		c0.27,0.24,0.48,0.66,0.63,1.26l0.21,0.85c0.16,0.62,0.2,1.1,0.13,1.44c-0.07,0.33-0.24,0.6-0.52,0.78
		c-0.28,0.19-0.91,0.4-1.87,0.65l-2.77,0.7L31.29,3.68z M34.08,4.65l0.51,2.05c0.1-0.03,0.18-0.05,0.24-0.07
		c0.23-0.06,0.37-0.15,0.41-0.29s-0.02-0.47-0.15-1.02c-0.07-0.29-0.15-0.48-0.23-0.58s-0.17-0.16-0.26-0.17S34.33,4.59,34.08,4.65z
		 M34.96,8.13l0.65,2.57c0.33-0.1,0.54-0.2,0.6-0.32c0.07-0.12,0.06-0.36-0.04-0.73l-0.22-0.86c-0.1-0.39-0.2-0.62-0.31-0.68
		C35.55,8.04,35.31,8.05,34.96,8.13z"/>
	<path class="st0" d="M43.29,1.69l2.02,9.38l-2.52,0.16l-0.24-1.69l-0.88,0.06l-0.04,1.71l-2.54,0.17l0.64-9.55L43.29,1.69z
		 M42.39,7.86c-0.19-1.06-0.41-2.38-0.63-3.95c-0.13,1.83-0.2,3.16-0.21,4.01L42.39,7.86z"/>
	<path class="st0" d="M46.46,1.67l1.74,0.2c1.16,0.13,1.93,0.26,2.33,0.4c0.4,0.14,0.71,0.4,0.92,0.8s0.28,1,0.19,1.8
		c-0.08,0.73-0.23,1.22-0.44,1.45c-0.21,0.23-0.59,0.34-1.13,0.33c0.47,0.18,0.78,0.37,0.92,0.59c0.14,0.22,0.23,0.42,0.25,0.59
		c0.02,0.17-0.01,0.64-0.1,1.4l-0.28,2.49l-2.28-0.26l0.36-3.13c0.06-0.5,0.05-0.82-0.01-0.95s-0.27-0.21-0.61-0.25l-0.48,4.25
		l-2.45-0.28L46.46,1.67z M48.72,3.56l-0.24,2.1c0.28,0.03,0.47,0.02,0.59-0.05c0.12-0.06,0.2-0.3,0.25-0.72l0.06-0.52
		c0.04-0.3,0-0.5-0.09-0.61C49.2,3.67,49.01,3.6,48.72,3.56z"/>
</g>
</svg>
