<?xml version="1.0" encoding="utf-8"?>
<!-- Generator: Adobe Illustrator 23.1.0, SVG Export Plug-In . SVG Version: 6.00 Build 0)  -->
<svg version="1.1" id="Layer_1" xmlns="http://www.w3.org/2000/svg" xmlns:xlink="http://www.w3.org/1999/xlink" x="0px" y="0px"
	 viewBox="0 0 90 90" style="enable-background:new 0 0 90 90;" xml:space="preserve">
<style type="text/css">
	.st0{fill:#FFFFFF;}
</style>
<g>
	<path class="st0" d="M40.01,7.25l-2.39,0.4l-0.14-0.84c-0.09-0.53-0.17-0.85-0.23-0.98c-0.07-0.13-0.19-0.17-0.36-0.14
		c-0.15,0.02-0.24,0.1-0.27,0.22c-0.03,0.12-0.01,0.42,0.07,0.89l0.74,4.42c0.07,0.41,0.14,0.68,0.22,0.8
		c0.08,0.12,0.19,0.17,0.35,0.14c0.17-0.03,0.28-0.12,0.32-0.28c0.04-0.16,0.02-0.45-0.05-0.88l-0.18-1.09l-0.48,0.08l-0.23-1.4
		l2.8-0.47l0.82,4.94l-1.5,0.25l-0.33-0.62c-0.12,0.31-0.29,0.56-0.51,0.74s-0.51,0.3-0.84,0.36c-0.4,0.07-0.79,0.03-1.18-0.1
		s-0.69-0.33-0.92-0.59c-0.23-0.26-0.39-0.54-0.49-0.85s-0.2-0.78-0.31-1.41l-0.46-2.73c-0.15-0.88-0.21-1.53-0.18-1.94
		s0.24-0.82,0.63-1.23s0.95-0.67,1.66-0.79c0.7-0.12,1.31-0.07,1.82,0.14c0.51,0.21,0.87,0.5,1.07,0.88s0.37,0.94,0.5,1.69
		L40.01,7.25z"/>
	<path class="st0" d="M41.69,3.71l1.72,0.03c1.14,0.02,1.92,0.08,2.32,0.17s0.73,0.33,0.98,0.69c0.25,0.37,0.37,0.95,0.35,1.74
		c-0.01,0.73-0.11,1.21-0.3,1.46c-0.18,0.25-0.54,0.39-1.07,0.43c0.48,0.13,0.8,0.29,0.96,0.49c0.16,0.2,0.26,0.39,0.3,0.56
		s0.05,0.63,0.04,1.38l-0.04,2.46l-2.25-0.04l0.05-3.1c0.01-0.5-0.03-0.81-0.1-0.93c-0.08-0.12-0.28-0.18-0.62-0.19l-0.07,4.21
		l-2.43-0.04L41.69,3.71z M44.09,5.35l-0.04,2.07c0.27,0,0.46-0.03,0.58-0.1C44.74,7.25,44.8,7,44.81,6.59l0.01-0.51
		c0-0.3-0.04-0.49-0.15-0.58C44.56,5.4,44.37,5.35,44.09,5.35z"/>
	<path class="st0" d="M53.42,4.85L53,14.28l-2.43-0.48l0.19-1.67l-0.85-0.17l-0.46,1.62l-2.46-0.48l3-8.92L53.42,4.85z M51.01,10.5
		c0.08-1.06,0.21-2.37,0.39-3.92c-0.58,1.71-0.99,2.96-1.21,3.76L51.01,10.5z"/>
	<path class="st0" d="M61.43,7.58l-3.38,8.69l-1.98-0.77l0.36-4.41l-1.54,3.95L53,14.31l3.38-8.69l1.89,0.74l-0.25,4.41l1.52-3.91
		L61.43,7.58z"/>
	<path class="st0" d="M65.31,16.18c-0.5,0.8-0.86,1.35-1.11,1.65c-0.24,0.31-0.55,0.54-0.92,0.69s-0.77,0.2-1.19,0.13
		c-0.43-0.06-0.86-0.23-1.31-0.51c-0.42-0.26-0.76-0.57-1.01-0.92s-0.39-0.73-0.43-1.13c-0.03-0.4,0.03-0.78,0.2-1.13
		c0.16-0.35,0.5-0.93,1.01-1.75l0.84-1.35c0.5-0.8,0.87-1.35,1.11-1.65c0.24-0.31,0.55-0.54,0.92-0.69c0.37-0.15,0.77-0.2,1.19-0.13
		c0.43,0.06,0.86,0.23,1.31,0.51c0.42,0.26,0.76,0.57,1.01,0.92s0.39,0.73,0.43,1.13c0.03,0.4-0.03,0.78-0.2,1.13
		c-0.16,0.35-0.5,0.93-1.01,1.75L65.31,16.18z M64.87,12.29c0.23-0.37,0.36-0.62,0.38-0.74c0.02-0.13-0.03-0.23-0.16-0.31
		c-0.11-0.07-0.22-0.08-0.32-0.03c-0.11,0.05-0.29,0.27-0.54,0.68l-2.3,3.7c-0.29,0.46-0.44,0.75-0.47,0.89s0.02,0.24,0.16,0.32
		c0.14,0.09,0.27,0.08,0.38-0.02s0.32-0.38,0.61-0.85L64.87,12.29z"/>
	<path class="st0" d="M71.63,14.42l-4.9,5.63l1.11,0.97l-1.23,1.41l-2.94-2.56l6.12-7.04L71.63,14.42z"/>
	<path class="st0" d="M76.88,20.07l-6.3,7.02L69,25.18l1.21-1.17l-0.55-0.67l-1.38,0.96l-1.6-1.93l7.97-5L76.88,20.07z M71.44,22.91
		c0.74-0.77,1.66-1.7,2.78-2.78c-1.53,0.95-2.64,1.66-3.31,2.14L71.44,22.91z"/>
	<path class="st0" d="M77.49,32.1c-0.85,0.4-1.46,0.67-1.83,0.8c-0.37,0.13-0.75,0.16-1.14,0.09c-0.39-0.07-0.75-0.25-1.08-0.53
		s-0.6-0.66-0.83-1.14c-0.21-0.45-0.33-0.89-0.36-1.32c-0.02-0.43,0.06-0.82,0.25-1.18s0.45-0.64,0.78-0.85
		c0.33-0.21,0.92-0.52,1.79-0.93l1.44-0.69c0.85-0.4,1.45-0.67,1.83-0.8s0.75-0.16,1.14-0.09c0.39,0.07,0.75,0.25,1.08,0.53
		c0.33,0.28,0.6,0.66,0.83,1.14c0.21,0.45,0.33,0.89,0.36,1.32s-0.06,0.82-0.25,1.18s-0.45,0.64-0.78,0.85
		c-0.33,0.21-0.92,0.52-1.79,0.93L77.49,32.1z M79.21,28.6c0.39-0.19,0.63-0.33,0.72-0.42c0.09-0.1,0.1-0.21,0.04-0.35
		c-0.05-0.11-0.14-0.18-0.26-0.2c-0.12-0.02-0.39,0.08-0.83,0.28l-3.93,1.87c-0.49,0.23-0.78,0.4-0.88,0.49
		c-0.1,0.09-0.11,0.21-0.04,0.36c0.07,0.15,0.18,0.21,0.33,0.19c0.15-0.02,0.47-0.15,0.97-0.39L79.21,28.6z"/>
	<path class="st0" d="M84.23,35.95l-8.67,3.7l-0.63-2.4l1.59-0.55l-0.22-0.84l-1.66,0.28l-0.63-2.43l9.34-1.16L84.23,35.95z
		 M78.1,36.23c0.99-0.39,2.22-0.84,3.7-1.35c-1.79,0.21-3.09,0.39-3.91,0.54L78.1,36.23z"/>
	<path class="st0" d="M85.17,43.02l-1.86,0.19l-0.15-1.43l-7.42,0.76l-0.25-2.41l7.42-0.76l-0.15-1.43l1.86-0.19L85.17,43.02z"/>
	<path class="st0" d="M82.01,49.74l0.16-2.25l0.69,0.05c0.32,0.02,0.53,0.01,0.62-0.04c0.09-0.05,0.14-0.14,0.15-0.28
		c0.01-0.15-0.04-0.26-0.15-0.34c-0.11-0.08-0.29-0.13-0.53-0.15c-0.31-0.02-0.55,0-0.71,0.08c-0.16,0.07-0.37,0.28-0.62,0.64
		c-0.72,1.03-1.29,1.67-1.72,1.92c-0.43,0.25-1.1,0.34-2.01,0.28c-0.66-0.05-1.15-0.16-1.45-0.34c-0.3-0.18-0.54-0.5-0.73-0.96
		c-0.18-0.46-0.25-0.98-0.21-1.57c0.05-0.65,0.21-1.19,0.49-1.63c0.28-0.44,0.61-0.72,1-0.83s0.93-0.15,1.63-0.1l0.61,0.04
		l-0.16,2.25l-1.13-0.08c-0.35-0.03-0.58-0.01-0.68,0.05c-0.1,0.06-0.16,0.16-0.17,0.33s0.04,0.29,0.16,0.37
		c0.12,0.09,0.31,0.14,0.55,0.16c0.55,0.04,0.91-0.01,1.09-0.15c0.18-0.14,0.49-0.5,0.93-1.07c0.44-0.57,0.76-0.95,0.95-1.13
		c0.19-0.18,0.46-0.33,0.78-0.43c0.33-0.11,0.74-0.14,1.23-0.11c0.71,0.05,1.23,0.18,1.54,0.38c0.32,0.21,0.55,0.52,0.71,0.94
		c0.16,0.42,0.21,0.92,0.17,1.49c-0.04,0.63-0.18,1.16-0.42,1.58c-0.23,0.43-0.51,0.7-0.83,0.83c-0.32,0.12-0.85,0.16-1.59,0.1
		L82.01,49.74z"/>
	<path class="st0" d="M77.87,61.01l0.92-2.24l0.78,0.32c0.49,0.2,0.81,0.31,0.95,0.32c0.14,0.01,0.25-0.07,0.31-0.23
		c0.06-0.14,0.04-0.25-0.04-0.35c-0.09-0.09-0.35-0.23-0.79-0.41l-4.14-1.7c-0.39-0.16-0.65-0.24-0.8-0.24
		c-0.14,0-0.25,0.07-0.31,0.22c-0.07,0.16-0.04,0.3,0.07,0.42s0.37,0.26,0.77,0.42l1.02,0.42l0.19-0.45l1.31,0.54l-1.08,2.63
		l-4.63-1.9L73,57.36l0.7,0.05c-0.2-0.26-0.32-0.54-0.36-0.82c-0.04-0.29,0.01-0.59,0.14-0.91c0.16-0.38,0.39-0.69,0.71-0.95
		c0.32-0.25,0.65-0.41,0.99-0.47c0.34-0.06,0.67-0.05,0.98,0.03c0.31,0.08,0.77,0.24,1.36,0.48l2.56,1.05
		c0.82,0.34,1.41,0.63,1.74,0.87c0.34,0.24,0.57,0.64,0.71,1.19c0.14,0.55,0.07,1.16-0.2,1.83c-0.27,0.66-0.63,1.15-1.08,1.47
		c-0.45,0.32-0.88,0.47-1.31,0.45c-0.43-0.02-0.99-0.18-1.7-0.47L77.87,61.01z"/>
	<path class="st0" d="M79.95,64.36l-0.94,1.43c-0.63,0.96-1.09,1.58-1.39,1.87s-0.67,0.44-1.11,0.46s-1-0.2-1.66-0.64
		c-0.61-0.4-0.96-0.74-1.07-1.03s-0.04-0.67,0.21-1.14c-0.36,0.33-0.67,0.52-0.93,0.54c-0.26,0.03-0.47,0.01-0.63-0.04
		c-0.16-0.06-0.56-0.29-1.19-0.71l-2.05-1.35l1.24-1.88l2.59,1.71c0.42,0.27,0.7,0.41,0.84,0.41s0.31-0.14,0.49-0.42l-3.51-2.31
		l1.33-2.03L79.95,64.36z M77.28,65.51l-1.73-1.14c-0.15,0.23-0.22,0.41-0.22,0.54c0,0.13,0.17,0.31,0.52,0.54l0.43,0.28
		c0.25,0.16,0.44,0.22,0.57,0.19C76.99,65.88,77.13,65.74,77.28,65.51z"/>
	<path class="st0" d="M72.64,73.66l-7.69-5.46l1.72-1.79l1.3,1.07l0.6-0.63l-1.11-1.27l1.74-1.81l5.87,7.35L72.64,73.66z
		 M69.2,68.58c0.85,0.64,1.87,1.46,3.08,2.45c-1.12-1.42-1.95-2.43-2.5-3.05L69.2,68.58z"/>
	<path class="st0" d="M65.99,78.92l-5.46-7.56l1.72-1.25l3.51,2.7l-2.48-3.44l1.64-1.19l5.46,7.56l-1.64,1.19l-3.56-2.61l2.46,3.41
		L65.99,78.92z"/>
	<path class="st0" d="M56.64,77.51c-0.4-0.85-0.66-1.46-0.79-1.83c-0.13-0.37-0.15-0.75-0.08-1.14s0.25-0.75,0.54-1.07
		c0.29-0.32,0.67-0.6,1.14-0.82c0.45-0.21,0.89-0.33,1.32-0.35c0.43-0.02,0.82,0.07,1.18,0.26c0.36,0.19,0.64,0.45,0.84,0.78
		s0.51,0.93,0.92,1.8l0.68,1.45c0.4,0.85,0.66,1.46,0.79,1.83c0.13,0.37,0.15,0.75,0.08,1.14s-0.25,0.75-0.54,1.07
		c-0.29,0.32-0.67,0.6-1.14,0.82c-0.45,0.21-0.89,0.33-1.32,0.35c-0.43,0.02-0.82-0.06-1.18-0.26c-0.36-0.19-0.64-0.45-0.84-0.78
		s-0.51-0.93-0.92-1.8L56.64,77.51z M60.14,79.26c0.18,0.39,0.32,0.63,0.42,0.72c0.09,0.09,0.21,0.1,0.35,0.04
		c0.12-0.05,0.18-0.14,0.2-0.26s-0.07-0.39-0.28-0.83l-1.85-3.94c-0.23-0.49-0.39-0.78-0.49-0.88c-0.09-0.1-0.21-0.11-0.36-0.04
		c-0.15,0.07-0.21,0.18-0.19,0.33c0.02,0.15,0.15,0.48,0.38,0.97L60.14,79.26z"/>
	<path class="st0" d="M54.7,83.77l-2.07-7.17l-1.42,0.41l-0.52-1.79l3.75-1.08l2.58,8.96L54.7,83.77z"/>
	<path class="st0" d="M47.13,85.12l-2.51-9.09l2.46-0.3l0.33,1.65l0.86-0.11l-0.06-1.68l2.49-0.3l-0.1,9.41L47.13,85.12z
		 M47.68,79.01c0.25,1.03,0.53,2.31,0.84,3.84c0.03-1.8,0.02-3.12-0.01-3.95L47.68,79.01z"/>
	<path class="st0" d="M36.7,79.21c0.11-0.93,0.2-1.59,0.29-1.97c0.09-0.38,0.27-0.72,0.53-1.02c0.27-0.29,0.61-0.5,1.02-0.63
		c0.41-0.13,0.88-0.16,1.4-0.1c0.5,0.06,0.93,0.19,1.31,0.39c0.38,0.21,0.67,0.49,0.87,0.84c0.2,0.35,0.31,0.72,0.31,1.11
		c0,0.39-0.05,1.06-0.16,2.01l-0.18,1.59c-0.11,0.93-0.2,1.59-0.29,1.97c-0.09,0.38-0.27,0.72-0.53,1.01
		c-0.27,0.29-0.61,0.51-1.02,0.63s-0.88,0.16-1.4,0.1c-0.5-0.06-0.93-0.19-1.31-0.39s-0.67-0.49-0.87-0.84
		c-0.2-0.35-0.31-0.72-0.31-1.11s0.05-1.06,0.16-2.01L36.7,79.21z M38.76,82.53c-0.05,0.43-0.06,0.71-0.02,0.83
		c0.03,0.13,0.13,0.2,0.27,0.21c0.13,0.01,0.23-0.02,0.31-0.11c0.08-0.09,0.14-0.37,0.2-0.85l0.49-4.33c0.06-0.54,0.08-0.87,0.05-1
		s-0.12-0.21-0.29-0.22c-0.16-0.02-0.28,0.04-0.34,0.18c-0.06,0.14-0.12,0.48-0.19,1.03L38.76,82.53z"/>
	<path class="st0" d="M29.9,82.96l1.36-9.33l2.37,0.71l-0.36,1.64l0.83,0.25l0.62-1.56l2.4,0.72l-3.87,8.58L29.9,82.96z
		 M32.86,77.59c-0.19,1.05-0.44,2.33-0.77,3.86c0.75-1.64,1.28-2.84,1.57-3.62L32.86,77.59z"/>
	<path class="st0" d="M23.44,80.16l0.79-1.69l1.3,0.61l3.16-6.76l2.2,1.03l-3.17,6.76l1.3,0.61l-0.79,1.69L23.44,80.16z"/>
	<path class="st0" d="M19.28,74.01l1.85,1.28l-0.39,0.57c-0.18,0.27-0.28,0.45-0.28,0.56s0.05,0.2,0.16,0.27
		c0.12,0.08,0.25,0.1,0.37,0.04s0.26-0.18,0.4-0.38c0.18-0.26,0.28-0.47,0.3-0.65c0.02-0.18-0.06-0.46-0.24-0.86
		c-0.52-1.14-0.78-1.96-0.78-2.46c0-0.5,0.27-1.12,0.79-1.87c0.38-0.55,0.72-0.9,1.03-1.08c0.31-0.17,0.7-0.22,1.19-0.14
		c0.49,0.08,0.97,0.29,1.46,0.62c0.53,0.37,0.92,0.79,1.16,1.25c0.24,0.46,0.31,0.89,0.21,1.29c-0.1,0.39-0.35,0.88-0.75,1.45
		l-0.35,0.5l-1.85-1.28l0.65-0.93c0.2-0.29,0.3-0.49,0.31-0.61s-0.06-0.22-0.19-0.32c-0.13-0.09-0.27-0.11-0.4-0.05
		c-0.14,0.06-0.28,0.19-0.42,0.4c-0.31,0.45-0.46,0.79-0.43,1.01c0.03,0.23,0.18,0.67,0.45,1.34c0.27,0.67,0.43,1.14,0.49,1.4
		c0.06,0.26,0.05,0.56-0.03,0.89c-0.08,0.33-0.25,0.71-0.54,1.11c-0.41,0.59-0.78,0.96-1.12,1.13c-0.34,0.17-0.73,0.21-1.17,0.13
		c-0.44-0.08-0.9-0.28-1.37-0.61c-0.52-0.36-0.9-0.75-1.15-1.17c-0.25-0.42-0.34-0.8-0.29-1.13c0.06-0.34,0.3-0.81,0.72-1.42
		L19.28,74.01z"/>
	<path class="st0" d="M11.66,64.83l1.48,1.92l-0.67,0.52c-0.42,0.33-0.67,0.55-0.75,0.67c-0.08,0.12-0.06,0.25,0.04,0.38
		c0.09,0.12,0.2,0.16,0.32,0.14c0.12-0.03,0.37-0.19,0.75-0.48l3.54-2.74c0.33-0.26,0.53-0.45,0.6-0.57
		c0.07-0.12,0.06-0.25-0.04-0.38c-0.11-0.14-0.24-0.19-0.4-0.15c-0.16,0.04-0.41,0.2-0.75,0.46l-0.87,0.68l0.3,0.39l-1.12,0.87
		l-1.74-2.25l3.96-3.07l0.93,1.21l-0.39,0.59c0.33-0.05,0.63-0.01,0.9,0.1c0.27,0.11,0.51,0.3,0.72,0.57
		c0.25,0.32,0.4,0.68,0.47,1.09c0.06,0.4,0.03,0.77-0.08,1.09c-0.12,0.32-0.29,0.6-0.51,0.84c-0.23,0.23-0.59,0.55-1.1,0.94
		l-2.19,1.7c-0.7,0.55-1.25,0.9-1.62,1.08c-0.38,0.17-0.84,0.18-1.38,0.03s-1.04-0.52-1.48-1.09c-0.44-0.56-0.68-1.12-0.74-1.67
		c-0.06-0.55,0.03-1,0.26-1.36c0.23-0.36,0.65-0.77,1.25-1.24L11.66,64.83z"/>
	<path class="st0" d="M7.71,64.97l-0.77-1.53c-0.52-1.02-0.83-1.73-0.93-2.14s-0.05-0.8,0.16-1.19s0.67-0.77,1.38-1.13
		c0.65-0.33,1.12-0.47,1.43-0.42s0.6,0.3,0.88,0.75c-0.11-0.48-0.11-0.84-0.01-1.08s0.22-0.41,0.35-0.52s0.53-0.34,1.2-0.68
		l2.2-1.11l1.01,2.01l-2.77,1.4c-0.45,0.22-0.7,0.4-0.77,0.52s-0.03,0.33,0.12,0.63l3.76-1.89l1.09,2.17L7.71,64.97z M8.04,62.08
		l1.85-0.93c-0.12-0.24-0.24-0.4-0.36-0.46c-0.12-0.06-0.36,0-0.72,0.18L8.35,61.1c-0.26,0.13-0.41,0.27-0.45,0.4
		C7.87,61.64,7.92,61.83,8.04,62.08z"/>
	<path class="st0" d="M3.29,53.95l8.58-3.91l0.68,2.38l-1.58,0.59l0.24,0.83l1.65-0.32l0.69,2.41l-9.31,1.38L3.29,53.95z
		 M9.41,53.53c-0.98,0.41-2.2,0.89-3.66,1.44c1.79-0.25,3.08-0.47,3.89-0.63L9.41,53.53z"/>
	<path class="st0" d="M2.13,45.49l9.29-0.85l0.19,2.12L7.5,48.4l4.22-0.39l0.19,2.02l-9.29,0.85l-0.19-2.02l4.06-1.74l-4.18,0.38
		L2.13,45.49z"/>
	<path class="st0" d="M8.13,38.17c0.93,0.09,1.59,0.18,1.97,0.27c0.38,0.08,0.72,0.26,1.02,0.52c0.3,0.26,0.51,0.6,0.64,1.01
		s0.17,0.88,0.12,1.4c-0.05,0.5-0.18,0.93-0.38,1.31c-0.2,0.38-0.48,0.67-0.83,0.88c-0.35,0.21-0.72,0.32-1.1,0.32
		c-0.39,0.01-1.06-0.04-2.01-0.13L5.97,43.6C5.04,43.5,4.38,43.41,4,43.33s-0.72-0.26-1.02-0.52s-0.51-0.6-0.64-1.01
		c-0.13-0.41-0.17-0.88-0.12-1.4c0.05-0.5,0.18-0.94,0.38-1.31c0.2-0.38,0.48-0.67,0.83-0.88c0.35-0.21,0.72-0.32,1.1-0.32
		c0.39-0.01,1.06,0.04,2.01,0.13L8.13,38.17z M4.83,40.28C4.4,40.23,4.12,40.23,4,40.27c-0.13,0.04-0.2,0.13-0.21,0.28
		c-0.01,0.13,0.03,0.23,0.12,0.3s0.38,0.14,0.85,0.19l4.33,0.44c0.54,0.05,0.87,0.07,1,0.04c0.13-0.03,0.2-0.13,0.22-0.29
		c0.02-0.16-0.05-0.28-0.19-0.34c-0.14-0.06-0.48-0.12-1.03-0.17L4.83,40.28z"/>
	<path class="st0" d="M3.8,33.23L11,35.2l0.39-1.42l1.8,0.49l-1.03,3.76l-9-2.47L3.8,33.23z"/>
	<path class="st0" d="M6.65,26.04l9.04,2.68l-1.05,2.25l-1.58-0.59l-0.37,0.79L14.17,32l-1.06,2.27l-7.94-5.06L6.65,26.04z
		 M11.55,29.73c-1.01-0.33-2.25-0.77-3.71-1.32c1.52,0.98,2.63,1.67,3.36,2.07L11.55,29.73z"/>
	<path class="st0" d="M17.27,20.33c0.73,0.59,1.23,1.03,1.5,1.31c0.27,0.28,0.46,0.61,0.57,1s0.1,0.78-0.02,1.2
		s-0.34,0.83-0.67,1.24c-0.31,0.39-0.66,0.68-1.04,0.89c-0.38,0.21-0.77,0.3-1.18,0.28c-0.41-0.02-0.77-0.13-1.1-0.34
		c-0.33-0.21-0.86-0.61-1.61-1.22l-1.24-1.01c-0.73-0.59-1.23-1.03-1.5-1.31s-0.46-0.61-0.57-1s-0.1-0.78,0.02-1.2
		c0.12-0.42,0.34-0.83,0.67-1.24c0.31-0.39,0.66-0.68,1.04-0.89c0.38-0.21,0.77-0.3,1.18-0.28c0.41,0.02,0.77,0.13,1.1,0.34
		c0.33,0.21,0.86,0.61,1.61,1.22L17.27,20.33z M13.36,20.28c-0.34-0.27-0.57-0.43-0.69-0.47c-0.12-0.04-0.23,0-0.33,0.12
		c-0.08,0.1-0.1,0.2-0.07,0.32c0.03,0.11,0.24,0.32,0.61,0.63l3.38,2.75c0.42,0.34,0.69,0.54,0.82,0.58
		c0.13,0.05,0.24,0.01,0.34-0.12c0.1-0.13,0.11-0.26,0.03-0.38s-0.34-0.37-0.77-0.71L13.36,20.28z"/>
	<path class="st0" d="M17.79,12.61l7.11,6.2l-1.89,1.61l-1.19-1.19l-0.66,0.56l0.98,1.37l-1.91,1.63l-5.11-7.9L17.79,12.61z
		 M20.7,18.01c-0.78-0.72-1.72-1.64-2.82-2.74c0.97,1.52,1.7,2.61,2.19,3.28L20.7,18.01z"/>
	<path class="st0" d="M23.69,8.69l0.99,1.58l-1.22,0.76l3.95,6.33l-2.06,1.29l-3.95-6.33l-1.22,0.76l-0.99-1.58L23.69,8.69z"/>
	<path class="st0" d="M31.1,8.53l-2.08,0.86l-0.26-0.64c-0.12-0.3-0.23-0.48-0.31-0.54c-0.09-0.06-0.19-0.06-0.32-0.01
		c-0.14,0.06-0.21,0.15-0.24,0.29s0.01,0.32,0.1,0.54c0.12,0.29,0.25,0.49,0.38,0.6c0.13,0.11,0.42,0.2,0.85,0.27
		c1.24,0.18,2.07,0.41,2.49,0.68c0.42,0.27,0.8,0.83,1.15,1.68c0.25,0.61,0.37,1.1,0.34,1.45c-0.02,0.35-0.2,0.71-0.53,1.08
		s-0.77,0.66-1.32,0.89c-0.6,0.25-1.16,0.34-1.68,0.29c-0.52-0.05-0.92-0.23-1.19-0.53c-0.28-0.3-0.55-0.77-0.81-1.42l-0.23-0.56
		l2.08-0.86l0.43,1.05c0.13,0.32,0.25,0.52,0.34,0.59c0.1,0.07,0.22,0.07,0.37,0.01c0.15-0.06,0.24-0.17,0.26-0.31
		c0.02-0.15-0.01-0.34-0.11-0.57c-0.21-0.51-0.42-0.81-0.62-0.91c-0.21-0.1-0.66-0.21-1.37-0.35c-0.71-0.14-1.19-0.26-1.44-0.35
		s-0.5-0.26-0.74-0.51c-0.24-0.25-0.46-0.6-0.64-1.06c-0.27-0.66-0.39-1.18-0.34-1.55s0.22-0.73,0.52-1.05
		c0.31-0.33,0.72-0.6,1.26-0.82c0.58-0.24,1.12-0.35,1.61-0.33s0.86,0.14,1.11,0.38s0.52,0.69,0.8,1.38L31.1,8.53z"/>
</g>
</svg>
