<?xml version="1.0" encoding="utf-8"?>
<!-- Generator: Adobe Illustrator 23.1.0, SVG Export Plug-In . SVG Version: 6.00 Build 0)  -->
<svg version="1.1" id="Layer_1" xmlns="http://www.w3.org/2000/svg" xmlns:xlink="http://www.w3.org/1999/xlink" x="0px" y="0px"
	 viewBox="0 0 90 90" style="enable-background:new 0 0 90 90;" xml:space="preserve">
<style type="text/css">
	.st0{fill:#FFFFFF;}
</style>
<g>
	<path class="st0" d="M53.68,6.61l-2.14-0.42l0.15-0.75c0.09-0.47,0.13-0.77,0.11-0.9c-0.02-0.13-0.1-0.2-0.25-0.23
		c-0.13-0.03-0.23,0.01-0.3,0.1c-0.07,0.09-0.14,0.35-0.23,0.77l-0.78,3.94c-0.07,0.37-0.1,0.62-0.07,0.74
		c0.02,0.13,0.11,0.2,0.25,0.23c0.16,0.03,0.28-0.01,0.36-0.13s0.16-0.37,0.24-0.75l0.19-0.98l-0.43-0.09l0.25-1.25l2.5,0.5
		l-0.88,4.41l-1.34-0.27l-0.08-0.63c-0.2,0.23-0.42,0.38-0.66,0.46s-0.52,0.09-0.82,0.03c-0.36-0.07-0.68-0.23-0.96-0.46
		c-0.28-0.24-0.47-0.5-0.59-0.79c-0.11-0.29-0.16-0.58-0.14-0.87C48.07,9,48.13,8.57,48.24,8l0.48-2.44
		c0.16-0.79,0.31-1.35,0.47-1.69c0.16-0.34,0.46-0.62,0.92-0.83c0.46-0.22,1.01-0.26,1.64-0.14c0.63,0.12,1.12,0.36,1.48,0.7
		c0.36,0.34,0.57,0.7,0.63,1.08s0.02,0.9-0.12,1.58L53.68,6.61z"/>
	<path class="st0" d="M56.18,4.14l1.44,0.55c0.96,0.37,1.6,0.65,1.91,0.86s0.52,0.5,0.61,0.89c0.1,0.39,0.02,0.91-0.24,1.58
		c-0.23,0.61-0.46,0.99-0.7,1.14c-0.23,0.15-0.58,0.16-1.04,0.04c0.36,0.25,0.58,0.49,0.66,0.71c0.08,0.22,0.1,0.41,0.08,0.56
		c-0.02,0.15-0.15,0.55-0.39,1.18l-0.79,2.06l-1.89-0.72l0.99-2.6c0.16-0.42,0.23-0.69,0.2-0.82C57,9.44,56.85,9.32,56.57,9.22
		l-1.35,3.53l-2.04-0.78L56.18,4.14z M57.7,6.26L57.04,8c0.23,0.09,0.4,0.12,0.52,0.09c0.12-0.03,0.24-0.21,0.37-0.56l0.16-0.43
		c0.09-0.25,0.11-0.43,0.05-0.54C58.08,6.45,57.94,6.35,57.7,6.26z"/>
	<path class="st0" d="M65.69,8.61l-3.14,7.87l-1.92-1.12l0.66-1.36l-0.67-0.39l-0.87,1.24l-1.95-1.13l5.18-6.68L65.69,8.61z
		 M61.98,12.68c0.38-0.88,0.88-1.95,1.48-3.21c-1,1.27-1.71,2.22-2.13,2.83L61.98,12.68z"/>
	<path class="st0" d="M71.7,13.19l-5.34,6.46l-1.47-1.22l1.55-3.66l-2.43,2.94l-1.4-1.16l5.34-6.46l1.4,1.16l-1.46,3.69l2.4-2.91
		L71.7,13.19z"/>
	<path class="st0" d="M72.65,21.57c-0.64,0.55-1.1,0.92-1.4,1.12c-0.29,0.2-0.62,0.31-0.97,0.34c-0.36,0.03-0.71-0.04-1.06-0.21
		c-0.35-0.17-0.68-0.43-0.99-0.79c-0.29-0.34-0.5-0.69-0.62-1.06c-0.12-0.37-0.14-0.73-0.06-1.08s0.24-0.66,0.47-0.92
		c0.23-0.26,0.68-0.67,1.33-1.23l1.09-0.93c0.64-0.55,1.1-0.92,1.4-1.12c0.29-0.2,0.62-0.31,0.97-0.34s0.71,0.04,1.06,0.21
		c0.35,0.17,0.68,0.43,0.99,0.79c0.29,0.34,0.5,0.69,0.62,1.06c0.12,0.37,0.14,0.73,0.06,1.08s-0.24,0.66-0.47,0.92
		c-0.23,0.26-0.68,0.67-1.33,1.23L72.65,21.57z M73.32,18.12c0.3-0.25,0.47-0.43,0.53-0.54c0.05-0.1,0.04-0.21-0.05-0.31
		c-0.07-0.09-0.17-0.12-0.27-0.11c-0.11,0.01-0.32,0.16-0.65,0.44l-2.97,2.55c-0.37,0.32-0.58,0.53-0.64,0.63
		c-0.06,0.1-0.04,0.21,0.05,0.32c0.1,0.11,0.21,0.14,0.33,0.09c0.13-0.05,0.38-0.24,0.75-0.56L73.32,18.12z"/>
	<path class="st0" d="M78.54,21.69l-5.67,3.57l0.71,1.12l-1.42,0.89l-1.87-2.96l7.09-4.47L78.54,21.69z"/>
	<path class="st0" d="M81.62,27.84l-7.19,4.49l-0.89-2.04l1.33-0.71l-0.31-0.71l-1.43,0.48l-0.9-2.07l8.13-2.33L81.62,27.84z
		 M76.21,28.94c0.83-0.48,1.86-1.05,3.09-1.71c-1.56,0.44-2.69,0.78-3.39,1.02L76.21,28.94z"/>
	<path class="st0" d="M83.15,32.54l0.41,2.16c0.11,0.58,0.15,1.04,0.12,1.37s-0.12,0.59-0.26,0.78c-0.14,0.19-0.33,0.34-0.57,0.44
		c-0.24,0.1-0.61,0.2-1.13,0.3l-0.72,0.14c-0.53,0.1-0.92,0.12-1.18,0.06s-0.48-0.23-0.67-0.49c-0.18-0.27-0.32-0.63-0.41-1.1
		l-0.11-0.57l-3.31,0.63l-0.41-2.14L83.15,32.54z M82.15,34.95l-2.09,0.4c0.01,0.06,0.02,0.11,0.02,0.16
		c0.04,0.2,0.11,0.32,0.22,0.38c0.11,0.06,0.32,0.06,0.62,0l0.68-0.13c0.28-0.05,0.46-0.13,0.52-0.24
		C82.2,35.42,82.2,35.22,82.15,34.95z"/>
	<path class="st0" d="M84.21,38.91l0.03,1.54c0.02,1.03-0.01,1.72-0.08,2.09c-0.07,0.37-0.27,0.67-0.59,0.9
		c-0.32,0.24-0.84,0.36-1.55,0.37c-0.65,0.01-1.09-0.06-1.32-0.22s-0.37-0.47-0.42-0.95c-0.1,0.43-0.24,0.73-0.41,0.88
		c-0.18,0.15-0.34,0.25-0.49,0.29c-0.15,0.04-0.56,0.06-1.24,0.08l-2.21,0.04l-0.04-2.02l2.78-0.05c0.45-0.01,0.73-0.05,0.83-0.12
		s0.16-0.26,0.15-0.56l-3.78,0.07l-0.04-2.18L84.21,38.91z M82.82,41.11l-1.86,0.04c0,0.24,0.04,0.42,0.11,0.51s0.29,0.14,0.66,0.13
		l0.46-0.01c0.27-0.01,0.44-0.06,0.52-0.15C82.78,41.54,82.82,41.37,82.82,41.11z"/>
	<path class="st0" d="M78.55,49.93c-0.83-0.13-1.42-0.24-1.76-0.34c-0.34-0.09-0.64-0.27-0.89-0.52c-0.25-0.25-0.43-0.56-0.53-0.94
		c-0.1-0.38-0.11-0.8-0.04-1.26c0.07-0.44,0.21-0.83,0.41-1.16s0.46-0.58,0.79-0.75c0.32-0.17,0.66-0.25,1.01-0.23
		c0.35,0.01,0.95,0.09,1.8,0.22l1.42,0.22c0.83,0.13,1.42,0.24,1.76,0.34c0.34,0.09,0.64,0.27,0.89,0.52
		c0.25,0.25,0.43,0.56,0.53,0.94c0.1,0.38,0.11,0.8,0.04,1.26c-0.07,0.44-0.2,0.83-0.4,1.16c-0.2,0.33-0.46,0.58-0.79,0.75
		s-0.66,0.25-1.01,0.23c-0.35-0.01-0.95-0.09-1.8-0.22L78.55,49.93z M81.61,48.21c0.38,0.06,0.63,0.08,0.75,0.05
		c0.11-0.03,0.18-0.11,0.2-0.24c0.02-0.11-0.01-0.21-0.09-0.28c-0.08-0.07-0.33-0.14-0.76-0.21l-3.87-0.61
		c-0.48-0.07-0.78-0.1-0.9-0.08c-0.12,0.02-0.19,0.1-0.21,0.25c-0.02,0.15,0.03,0.25,0.15,0.31c0.12,0.06,0.43,0.13,0.92,0.21
		L81.61,48.21z"/>
	<path class="st0" d="M81.52,56.71l-1.59-0.53l0.41-1.23l-6.36-2.11l0.69-2.07l6.36,2.11l0.41-1.22l1.59,0.53L81.52,56.71z"/>
	<path class="st0" d="M80.94,58l-1.62,3.25l-1.5-0.75l0.65-1.3l-1.42-0.71l-0.61,1.22L75.01,59l0.61-1.22l-1.65-0.82l-0.71,1.43
		l-1.5-0.75l1.69-3.38L80.94,58z"/>
	<path class="st0" d="M77.33,64.38l-7.03-4.56l1.19-1.83l7.03,4.56L77.33,64.38z"/>
	<path class="st0" d="M73.2,69.53l-6.37-5.45l1.24-1.45l3.63,1.62l-2.89-2.48l1.18-1.38l6.37,5.45l-1.18,1.38l-3.66-1.52l2.87,2.45
		L73.2,69.53z"/>
	<path class="st0" d="M64.89,73.13l1.62-1.21l0.37,0.5c0.17,0.23,0.3,0.36,0.39,0.4c0.09,0.03,0.18,0.01,0.28-0.06
		c0.1-0.08,0.15-0.18,0.14-0.31c-0.01-0.13-0.08-0.28-0.21-0.45c-0.17-0.22-0.32-0.37-0.47-0.44c-0.14-0.07-0.41-0.08-0.8-0.04
		c-1.12,0.12-1.89,0.11-2.32-0.04c-0.42-0.14-0.88-0.55-1.37-1.2c-0.36-0.48-0.56-0.87-0.62-1.18s0.02-0.66,0.22-1.05
		c0.21-0.39,0.52-0.75,0.95-1.07c0.47-0.35,0.93-0.56,1.39-0.63c0.46-0.07,0.85-0.01,1.15,0.19s0.65,0.55,1.02,1.05l0.33,0.44
		l-1.62,1.21l-0.61-0.82c-0.19-0.25-0.33-0.4-0.43-0.43c-0.1-0.04-0.21-0.01-0.32,0.07s-0.17,0.2-0.16,0.33
		c0.01,0.13,0.08,0.29,0.22,0.47c0.3,0.39,0.54,0.61,0.74,0.65c0.2,0.04,0.63,0.04,1.27,0c0.65-0.04,1.09-0.04,1.33-0.02
		s0.49,0.12,0.75,0.28s0.53,0.42,0.8,0.78c0.38,0.51,0.6,0.94,0.65,1.27c0.05,0.34-0.03,0.68-0.22,1.03
		c-0.19,0.35-0.5,0.68-0.91,0.99c-0.45,0.34-0.89,0.55-1.32,0.65s-0.78,0.07-1.05-0.08c-0.27-0.15-0.6-0.48-1-1.02L64.89,73.13z"/>
	<path class="st0" d="M60.29,78.51l-3.83-7.45l1.94-1L60,73.2l0.58-0.3l-1.61-3.13l1.94-1l3.83,7.45l-1.94,1l-1.37-2.67l-0.58,0.3
		l1.37,2.67L60.29,78.51z"/>
	<path class="st0" d="M54.9,80.39l-3.75-7.6l2.12-0.68l0.57,1.4l0.74-0.24l-0.34-1.47l2.15-0.69l1.5,8.32L54.9,80.39z M54.36,74.91
		c0.4,0.87,0.86,1.95,1.39,3.25c-0.28-1.6-0.5-2.76-0.68-3.48L54.36,74.91z"/>
	<path class="st0" d="M47.17,81.84l0.67-3.93l-2.04-4.34l2.23-0.33l1.41,3.42l-0.53-3.55l2.16-0.32l1.24,8.29l-2.15,0.32l-0.48-3.22
		l-0.48,3.36L47.17,81.84z"/>
	<path class="st0" d="M45.79,81.86l-3.63,0.06l-0.03-1.68l1.45-0.02l-0.02-1.59l-1.36,0.02l-0.02-1.59l1.36-0.02l-0.03-1.84
		l-1.6,0.03l-0.03-1.68l3.78-0.06L45.79,81.86z"/>
	<path class="st0" d="M33.81,77.58L35.95,78l-0.15,0.75c-0.09,0.47-0.13,0.77-0.11,0.9c0.02,0.13,0.1,0.21,0.25,0.24
		c0.13,0.03,0.23-0.01,0.3-0.1c0.07-0.09,0.14-0.35,0.23-0.77l0.79-3.94c0.07-0.37,0.1-0.62,0.07-0.74
		c-0.02-0.13-0.11-0.2-0.25-0.23c-0.16-0.03-0.27,0.01-0.36,0.13c-0.08,0.12-0.16,0.37-0.24,0.75l-0.19,0.97l0.43,0.09l-0.25,1.25
		l-2.5-0.5l0.88-4.41l1.34,0.27l0.08,0.63c0.2-0.22,0.42-0.38,0.67-0.46c0.25-0.08,0.52-0.09,0.82-0.03
		c0.36,0.07,0.68,0.23,0.96,0.46c0.28,0.24,0.47,0.5,0.58,0.79c0.11,0.29,0.16,0.58,0.14,0.87c-0.02,0.29-0.08,0.72-0.19,1.28
		l-0.49,2.44c-0.16,0.79-0.31,1.35-0.47,1.69c-0.16,0.34-0.46,0.62-0.92,0.83s-1.01,0.26-1.64,0.13c-0.63-0.12-1.12-0.36-1.48-0.7
		c-0.36-0.34-0.57-0.7-0.62-1.08c-0.05-0.38-0.02-0.9,0.12-1.58L33.81,77.58z"/>
	<path class="st0" d="M31.34,80.06L29.9,79.5c-0.96-0.37-1.6-0.65-1.91-0.86c-0.31-0.2-0.52-0.5-0.61-0.89
		c-0.1-0.39-0.02-0.91,0.24-1.58c0.23-0.61,0.47-0.99,0.7-1.14c0.23-0.15,0.58-0.16,1.04-0.04c-0.36-0.25-0.58-0.49-0.66-0.71
		c-0.07-0.22-0.1-0.41-0.08-0.56c0.02-0.15,0.15-0.54,0.39-1.18l0.79-2.06l1.89,0.72l-0.99,2.6c-0.16,0.42-0.23,0.69-0.2,0.82
		c0.03,0.13,0.18,0.24,0.46,0.35l1.35-3.53l2.04,0.78L31.34,80.06z M29.82,77.94l0.67-1.74c-0.23-0.09-0.4-0.12-0.52-0.09
		c-0.12,0.03-0.24,0.21-0.37,0.56l-0.16,0.43c-0.1,0.25-0.11,0.43-0.05,0.54S29.58,77.85,29.82,77.94z"/>
	<path class="st0" d="M21.8,75.57l3.14-7.87l1.92,1.12l-0.66,1.36l0.67,0.39l0.87-1.24l1.95,1.13l-5.18,6.68L21.8,75.57z
		 M25.52,71.5c-0.38,0.88-0.88,1.94-1.49,3.21c1-1.27,1.71-2.22,2.13-2.83L25.52,71.5z"/>
	<path class="st0" d="M15.79,70.98l5.34-6.45l1.47,1.22l-1.56,3.66l2.43-2.93l1.4,1.16l-5.34,6.45l-1.4-1.16l1.47-3.68l-2.41,2.91
		L15.79,70.98z"/>
	<path class="st0" d="M14.85,62.61c0.64-0.55,1.1-0.92,1.4-1.12c0.29-0.2,0.62-0.31,0.97-0.34c0.36-0.03,0.71,0.04,1.06,0.21
		c0.35,0.17,0.68,0.43,0.99,0.79c0.29,0.34,0.5,0.69,0.62,1.06c0.12,0.37,0.14,0.73,0.06,1.08c-0.08,0.36-0.24,0.66-0.47,0.92
		s-0.68,0.67-1.33,1.23l-1.09,0.93c-0.64,0.55-1.1,0.92-1.4,1.12c-0.29,0.2-0.62,0.31-0.97,0.34c-0.36,0.03-0.71-0.04-1.06-0.21
		c-0.35-0.17-0.68-0.43-0.98-0.79c-0.29-0.34-0.5-0.69-0.62-1.06c-0.12-0.37-0.14-0.73-0.06-1.08c0.08-0.36,0.24-0.66,0.47-0.92
		c0.23-0.26,0.68-0.67,1.33-1.23L14.85,62.61z M14.17,66.05c-0.3,0.25-0.47,0.43-0.53,0.54c-0.05,0.1-0.04,0.21,0.05,0.31
		c0.07,0.09,0.16,0.12,0.27,0.11c0.11-0.01,0.32-0.16,0.65-0.44l2.97-2.55c0.37-0.32,0.58-0.53,0.65-0.63
		c0.06-0.1,0.04-0.21-0.05-0.32c-0.1-0.11-0.21-0.14-0.33-0.09s-0.38,0.24-0.75,0.56L14.17,66.05z"/>
	<path class="st0" d="M8.96,62.48l5.67-3.57l-0.71-1.12l1.42-0.89l1.87,2.97l-7.09,4.46L8.96,62.48z"/>
	<path class="st0" d="M5.89,56.32l7.19-4.48l0.89,2.04l-1.33,0.71l0.31,0.71l1.43-0.48l0.9,2.07l-8.13,2.32L5.89,56.32z
		 M11.29,55.23c-0.83,0.48-1.86,1.05-3.1,1.71c1.56-0.44,2.69-0.78,3.39-1.02L11.29,55.23z"/>
	<path class="st0" d="M4.35,51.6l-0.41-2.16c-0.11-0.58-0.15-1.04-0.12-1.37s0.12-0.59,0.26-0.78s0.33-0.34,0.57-0.44
		c0.24-0.1,0.61-0.2,1.13-0.3l0.72-0.14c0.53-0.1,0.92-0.12,1.18-0.05c0.26,0.06,0.48,0.23,0.67,0.49c0.18,0.27,0.32,0.63,0.41,1.1
		l0.11,0.57l3.32-0.63l0.41,2.14L4.35,51.6z M5.35,49.19l2.1-0.4c-0.01-0.06-0.02-0.11-0.02-0.16c-0.04-0.2-0.11-0.32-0.22-0.38
		c-0.11-0.06-0.32-0.06-0.62,0L5.9,48.38c-0.28,0.05-0.46,0.13-0.52,0.24C5.31,48.72,5.3,48.91,5.35,49.19z"/>
	<path class="st0" d="M3.31,45.26l-0.03-1.54c-0.02-1.03,0.01-1.72,0.08-2.09c0.07-0.37,0.27-0.67,0.59-0.9
		c0.32-0.24,0.84-0.36,1.55-0.37c0.65-0.01,1.09,0.06,1.32,0.22c0.23,0.16,0.37,0.47,0.42,0.95c0.1-0.43,0.24-0.73,0.41-0.88
		c0.18-0.15,0.34-0.25,0.49-0.29s0.56-0.06,1.24-0.08l2.21-0.04l0.04,2.02l-2.78,0.05c-0.45,0.01-0.73,0.05-0.83,0.12
		s-0.16,0.26-0.15,0.56l3.78-0.07l0.04,2.18L3.31,45.26z M4.7,43.05l1.86-0.03c0-0.25-0.04-0.42-0.11-0.51
		c-0.07-0.1-0.29-0.14-0.66-0.14l-0.46,0.01c-0.27,0-0.44,0.06-0.52,0.15C4.73,42.62,4.69,42.8,4.7,43.05z"/>
	<path class="st0" d="M8.97,34.24c0.83,0.13,1.42,0.24,1.76,0.34c0.34,0.09,0.64,0.27,0.89,0.52c0.25,0.25,0.43,0.56,0.53,0.94
		c0.1,0.38,0.11,0.8,0.04,1.26c-0.07,0.44-0.21,0.83-0.41,1.16c-0.2,0.33-0.46,0.58-0.79,0.75s-0.66,0.25-1.01,0.23
		c-0.35-0.01-0.95-0.09-1.8-0.22l-1.42-0.22c-0.83-0.13-1.42-0.24-1.76-0.34s-0.64-0.27-0.89-0.52c-0.25-0.25-0.43-0.56-0.53-0.94
		c-0.1-0.38-0.11-0.8-0.04-1.26c0.07-0.44,0.21-0.83,0.41-1.16c0.2-0.33,0.46-0.58,0.79-0.75c0.32-0.17,0.66-0.25,1.01-0.23
		c0.35,0.01,0.95,0.09,1.8,0.22L8.97,34.24z M5.91,35.96c-0.39-0.06-0.63-0.08-0.75-0.05s-0.18,0.1-0.2,0.24
		c-0.02,0.11,0.01,0.21,0.09,0.28c0.08,0.07,0.33,0.14,0.75,0.21l3.87,0.61c0.48,0.08,0.78,0.1,0.9,0.08
		c0.12-0.02,0.19-0.1,0.21-0.25c0.02-0.15-0.03-0.25-0.15-0.31s-0.43-0.13-0.92-0.21L5.91,35.96z"/>
	<path class="st0" d="M5.99,27.49l1.59,0.53l-0.41,1.23l6.36,2.11l-0.69,2.07l-6.36-2.11l-0.41,1.22l-1.59-0.53L5.99,27.49z"/>
	<path class="st0" d="M6.59,26.17l1.62-3.25l1.5,0.75l-0.65,1.3l1.42,0.71l0.61-1.22l1.43,0.71l-0.61,1.22l1.65,0.82l0.71-1.43
		l1.5,0.75l-1.69,3.38L6.59,26.17z"/>
	<path class="st0" d="M10.2,19.79l7.02,4.57l-1.19,1.83l-7.02-4.57L10.2,19.79z"/>
	<path class="st0" d="M14.34,14.64l6.36,5.45l-1.24,1.45l-3.63-1.62l2.89,2.48l-1.19,1.38l-6.36-5.45l1.19-1.38l3.66,1.53
		l-2.87-2.46L14.34,14.64z"/>
	<path class="st0" d="M22.64,11.05l-1.62,1.21l-0.37-0.5c-0.17-0.23-0.3-0.36-0.39-0.4s-0.18-0.01-0.28,0.06
		c-0.1,0.08-0.15,0.18-0.14,0.31c0.01,0.13,0.08,0.28,0.21,0.45c0.17,0.22,0.32,0.37,0.47,0.44c0.14,0.07,0.41,0.08,0.8,0.04
		c1.12-0.12,1.89-0.11,2.32,0.04c0.42,0.15,0.88,0.55,1.37,1.21c0.36,0.48,0.56,0.87,0.62,1.18c0.06,0.31-0.02,0.66-0.22,1.05
		c-0.21,0.39-0.52,0.75-0.95,1.07c-0.47,0.35-0.93,0.56-1.4,0.63c-0.46,0.07-0.85,0.01-1.15-0.19c-0.31-0.2-0.65-0.55-1.02-1.05
		l-0.33-0.44l1.62-1.21l0.61,0.82c0.19,0.25,0.33,0.4,0.43,0.43c0.1,0.04,0.21,0.01,0.32-0.07c0.12-0.09,0.17-0.2,0.16-0.33
		c-0.01-0.13-0.08-0.29-0.22-0.47c-0.29-0.4-0.54-0.61-0.74-0.66c-0.2-0.04-0.63-0.04-1.27,0c-0.65,0.04-1.09,0.04-1.33,0.02
		c-0.24-0.02-0.49-0.12-0.75-0.28c-0.26-0.16-0.53-0.42-0.8-0.78c-0.38-0.51-0.6-0.94-0.65-1.28c-0.05-0.34,0.03-0.68,0.22-1.03
		s0.5-0.68,0.91-0.99c0.45-0.34,0.9-0.55,1.32-0.65s0.78-0.06,1.05,0.08s0.6,0.48,1,1.02L22.64,11.05z"/>
	<path class="st0" d="M27.23,5.68l3.83,7.45l-1.94,1L27.51,11l-0.58,0.3l1.61,3.13l-1.94,1l-3.83-7.45l1.94-1l1.37,2.67l0.58-0.3
		l-1.37-2.67L27.23,5.68z"/>
	<path class="st0" d="M32.67,3.79l3.73,7.6l-2.12,0.68l-0.57-1.4l-0.74,0.24l0.33,1.48l-2.15,0.68l-1.49-8.32L32.67,3.79z
		 M33.21,9.27c-0.39-0.87-0.86-1.95-1.39-3.25c0.28,1.6,0.5,2.76,0.67,3.48L33.21,9.27z"/>
	<path class="st0" d="M40.38,2.35L39.7,6.28l2.03,4.34l-2.23,0.33l-1.4-3.42l0.53,3.55l-2.15,0.32l-1.24-8.29L37.4,2.8l0.48,3.22
		l0.48-3.36L40.38,2.35z"/>
	<path class="st0" d="M41.73,2.34l3.63-0.06l0.03,1.68l-1.45,0.02l0.02,1.59l1.36-0.02l0.02,1.59l-1.36,0.02L44.01,9l1.6-0.03
		l0.03,1.68l-3.78,0.06L41.73,2.34z"/>
</g>
</svg>
