<?xml version="1.0" encoding="utf-8"?>
<!-- Generator: Adobe Illustrator 23.1.0, SVG Export Plug-In . SVG Version: 6.00 Build 0)  -->
<svg version="1.1" id="Layer_1" xmlns="http://www.w3.org/2000/svg" xmlns:xlink="http://www.w3.org/1999/xlink" x="0px" y="0px"
	 viewBox="0 0 90 90" style="enable-background:new 0 0 90 90;" xml:space="preserve">
<style type="text/css">
	.st0{fill:#FFFFFF;}
</style>
<g>
	<path class="st0" d="M44.52,7.7l-2.18,0.03l-0.01-0.76c-0.01-0.48-0.03-0.78-0.08-0.9c-0.04-0.12-0.14-0.18-0.3-0.18
		c-0.13,0-0.23,0.06-0.27,0.16c-0.05,0.1-0.07,0.37-0.06,0.8l0.06,4.02c0.01,0.38,0.03,0.62,0.08,0.74
		c0.05,0.12,0.15,0.18,0.29,0.17c0.16,0,0.27-0.07,0.32-0.21c0.05-0.14,0.08-0.4,0.07-0.79l-0.02-0.99L42,9.81l-0.02-1.27l2.55-0.04
		l0.07,4.5l-1.37,0.02l-0.21-0.6c-0.14,0.26-0.33,0.46-0.55,0.59c-0.22,0.13-0.49,0.2-0.8,0.21c-0.37,0.01-0.71-0.08-1.03-0.25
		c-0.32-0.17-0.57-0.39-0.74-0.65s-0.28-0.53-0.32-0.82c-0.05-0.29-0.07-0.72-0.08-1.3l-0.04-2.49c-0.01-0.8,0.02-1.38,0.1-1.75
		c0.08-0.36,0.32-0.7,0.73-1.01c0.4-0.31,0.93-0.47,1.58-0.48c0.64-0.01,1.17,0.11,1.59,0.37c0.43,0.26,0.7,0.56,0.84,0.92
		s0.21,0.88,0.22,1.57L44.52,7.7z"/>
	<path class="st0" d="M46.51,4.79l1.52,0.24c1.02,0.16,1.7,0.31,2.04,0.45c0.35,0.14,0.61,0.38,0.78,0.74
		c0.18,0.36,0.21,0.89,0.09,1.6c-0.1,0.64-0.25,1.06-0.45,1.26c-0.2,0.2-0.53,0.28-1.01,0.25c0.41,0.17,0.67,0.36,0.79,0.56
		s0.18,0.38,0.2,0.53c0.01,0.15-0.04,0.56-0.14,1.23l-0.35,2.18l-2-0.32l0.44-2.75c0.07-0.44,0.08-0.72,0.03-0.84
		s-0.23-0.2-0.52-0.25l-0.6,3.73l-2.15-0.35L46.51,4.79z M48.43,6.56L48.14,8.4c0.24,0.04,0.42,0.03,0.52-0.02
		c0.11-0.05,0.19-0.26,0.25-0.62l0.07-0.45c0.04-0.26,0.02-0.44-0.06-0.54C48.85,6.66,48.68,6.6,48.43,6.56z"/>
	<path class="st0" d="M56.75,7.23l-1.46,8.34l-2.11-0.7l0.36-1.47l-0.74-0.25l-0.6,1.39l-2.14-0.71l3.7-7.6L56.75,7.23z
		 M53.96,11.98c0.19-0.94,0.46-2.08,0.8-3.44c-0.72,1.45-1.22,2.52-1.51,3.21L53.96,11.98z"/>
	<path class="st0" d="M63.56,10.47l-3.9,7.42L57.97,17l0.77-3.9l-1.77,3.37l-1.61-0.85l3.9-7.42l1.61,0.85l-0.67,3.91l1.75-3.34
		L63.56,10.47z"/>
	<path class="st0" d="M66.21,18.46c-0.51,0.67-0.89,1.13-1.13,1.38s-0.54,0.43-0.88,0.54s-0.7,0.11-1.08,0.02
		c-0.38-0.09-0.75-0.28-1.13-0.57c-0.36-0.27-0.63-0.58-0.83-0.91c-0.2-0.33-0.29-0.68-0.28-1.05c0.01-0.37,0.1-0.7,0.27-1
		s0.53-0.79,1.05-1.48l0.87-1.14c0.51-0.67,0.89-1.13,1.13-1.38c0.24-0.25,0.54-0.43,0.88-0.54c0.34-0.1,0.7-0.11,1.08-0.02
		c0.38,0.09,0.75,0.28,1.13,0.57c0.36,0.27,0.63,0.58,0.83,0.91s0.29,0.68,0.28,1.05c0,0.37-0.1,0.7-0.27,1s-0.53,0.79-1.05,1.48
		L66.21,18.46z M66.16,14.95c0.24-0.31,0.37-0.52,0.4-0.63c0.03-0.11-0.01-0.21-0.11-0.29c-0.09-0.07-0.19-0.09-0.29-0.05
		s-0.28,0.22-0.54,0.56l-2.38,3.11c-0.3,0.39-0.46,0.64-0.5,0.75c-0.04,0.11,0,0.22,0.12,0.3c0.12,0.09,0.23,0.1,0.35,0.02
		c0.11-0.08,0.32-0.31,0.62-0.71L66.16,14.95z"/>
	<path class="st0" d="M72,17.35l-4.8,4.68l0.92,0.95l-1.2,1.17l-2.45-2.51l6-5.85L72,17.35z"/>
	<path class="st0" d="M76.29,22.71l-6.07,5.91l-1.3-1.81l1.15-0.98l-0.46-0.63l-1.3,0.77L67,24.15l7.45-4L76.29,22.71z M71.24,24.92
		c0.71-0.64,1.59-1.42,2.66-2.33c-1.43,0.76-2.47,1.33-3.1,1.72L71.24,24.92z"/>
	<path class="st0" d="M78.79,26.96l0.87,2.02c0.23,0.55,0.37,0.98,0.41,1.31s0.01,0.6-0.09,0.82s-0.25,0.4-0.46,0.55
		c-0.21,0.15-0.55,0.33-1.03,0.54l-0.67,0.29c-0.49,0.21-0.87,0.31-1.14,0.31s-0.52-0.12-0.76-0.34c-0.24-0.22-0.45-0.55-0.64-0.99
		l-0.23-0.54l-3.1,1.33l-0.86-2L78.79,26.96z M78.33,29.53l-1.96,0.84c0.02,0.06,0.04,0.11,0.06,0.15c0.08,0.18,0.18,0.29,0.3,0.32
		s0.32-0.01,0.61-0.13l0.63-0.27c0.26-0.11,0.42-0.23,0.46-0.34C78.48,29.98,78.44,29.79,78.33,29.53z"/>
	<path class="st0" d="M81.18,32.92l0.36,1.5c0.24,1,0.36,1.69,0.37,2.06s-0.12,0.71-0.38,1.01s-0.74,0.53-1.44,0.7
		c-0.63,0.15-1.08,0.18-1.34,0.07c-0.26-0.11-0.46-0.38-0.62-0.84c0,0.44-0.07,0.76-0.21,0.95c-0.14,0.19-0.28,0.31-0.42,0.38
		s-0.54,0.18-1.19,0.34l-2.15,0.52l-0.47-1.97l2.71-0.65c0.44-0.1,0.7-0.2,0.79-0.3c0.09-0.09,0.1-0.29,0.03-0.58L73.54,37
		l-0.51-2.12L81.18,32.92z M80.3,35.38l-1.81,0.44c0.06,0.24,0.13,0.4,0.22,0.48c0.09,0.08,0.31,0.08,0.67-0.01l0.45-0.11
		c0.26-0.06,0.42-0.15,0.48-0.26C80.36,35.8,80.36,35.62,80.3,35.38z"/>
	<path class="st0" d="M78.01,44.91c-0.84,0.05-1.44,0.06-1.79,0.05c-0.35-0.02-0.68-0.12-0.98-0.32s-0.54-0.46-0.72-0.81
		c-0.18-0.35-0.28-0.75-0.31-1.23c-0.03-0.45,0.02-0.85,0.15-1.22c0.13-0.37,0.33-0.67,0.61-0.9c0.28-0.23,0.59-0.38,0.93-0.44
		c0.34-0.06,0.94-0.12,1.8-0.17l1.43-0.08c0.84-0.05,1.44-0.06,1.79-0.05c0.35,0.02,0.68,0.12,0.98,0.31s0.54,0.46,0.72,0.81
		c0.18,0.35,0.28,0.75,0.31,1.23c0.03,0.45-0.02,0.85-0.15,1.22c-0.13,0.36-0.33,0.66-0.61,0.9s-0.59,0.38-0.93,0.44
		c-0.34,0.06-0.94,0.12-1.8,0.17L78.01,44.91z M80.63,42.58c0.39-0.02,0.64-0.06,0.74-0.11c0.11-0.05,0.16-0.14,0.15-0.28
		c-0.01-0.11-0.06-0.2-0.15-0.25c-0.09-0.06-0.35-0.07-0.78-0.04l-3.91,0.23c-0.49,0.03-0.78,0.07-0.9,0.11
		c-0.11,0.05-0.16,0.14-0.15,0.29c0.01,0.15,0.08,0.24,0.21,0.27c0.13,0.03,0.45,0.04,0.94,0.01L80.63,42.58z"/>
	<path class="st0" d="M82.37,50.89l-1.67-0.17l0.13-1.29l-6.67-0.69l0.22-2.17l6.67,0.69l0.13-1.28l1.67,0.17L82.37,50.89z"/>
	<path class="st0" d="M82.08,52.29l-0.89,3.52l-1.63-0.41L79.92,54l-1.54-0.39l-0.33,1.32l-1.55-0.39l0.33-1.32l-1.79-0.45
		l-0.39,1.55l-1.63-0.41l0.92-3.66L82.08,52.29z"/>
	<path class="st0" d="M79.92,59.32l-7.84-2.96l0.77-2.04l7.84,2.96L79.92,59.32z"/>
	<path class="st0" d="M76.96,65.23l-7.37-3.99l0.91-1.68l3.89,0.81l-3.35-1.81l0.87-1.6l7.37,3.98l-0.87,1.6l-3.9-0.72l3.32,1.79
		L76.96,65.23z"/>
	<path class="st0" d="M74.51,68.74l-1.44,1.63c-0.46,0.51-0.84,0.87-1.16,1.06s-0.67,0.26-1.05,0.21c-0.39-0.05-0.85-0.32-1.39-0.8
		c-0.37-0.33-0.57-0.61-0.61-0.85c-0.04-0.24,0.05-0.57,0.27-0.97c-0.42,0.3-0.79,0.43-1.1,0.39c-0.32-0.04-0.68-0.24-1.09-0.61
		l-0.58-0.52c-0.42-0.38-0.69-0.7-0.81-0.98c-0.12-0.28-0.12-0.56-0.01-0.83c0.11-0.28,0.46-0.75,1.04-1.4l1.67-1.88L74.51,68.74z
		 M69.62,67.31l-1.75-1.56c-0.2,0.24-0.29,0.42-0.28,0.54c0.01,0.12,0.14,0.29,0.39,0.52l0.58,0.52c0.27,0.24,0.46,0.35,0.56,0.35
		C69.23,67.67,69.4,67.55,69.62,67.31z M71.99,69.42l-1.39-1.24c-0.06,0.07-0.11,0.13-0.14,0.17c-0.14,0.16-0.19,0.3-0.15,0.41
		c0.04,0.11,0.25,0.34,0.62,0.67c0.2,0.17,0.35,0.28,0.46,0.31c0.11,0.03,0.2,0.03,0.28-0.01C71.72,69.68,71.84,69.58,71.99,69.42z"
		/>
	<path class="st0" d="M69.83,73.71l-2.8,2.32l-1.07-1.29l1.12-0.93l-1.02-1.22l-1.05,0.87L64,72.24l1.05-0.87l-1.18-1.42l-1.23,1.02
		l-1.07-1.29l2.91-2.41L69.83,73.71z"/>
	<path class="st0" d="M65.62,77.09l-1.32,0.8c-0.88,0.53-1.5,0.86-1.85,0.98c-0.35,0.12-0.71,0.1-1.08-0.06s-0.73-0.54-1.1-1.16
		c-0.34-0.56-0.5-0.97-0.47-1.25c0.02-0.28,0.23-0.56,0.61-0.84c-0.42,0.13-0.75,0.16-0.97,0.08c-0.22-0.08-0.38-0.17-0.49-0.28
		c-0.11-0.11-0.34-0.45-0.69-1.03l-1.14-1.89l1.73-1.05l1.44,2.38c0.23,0.38,0.41,0.6,0.52,0.66c0.12,0.05,0.3,0,0.56-0.15
		l-1.96-3.23l1.86-1.13L65.62,77.09z M63.02,76.99l-0.96-1.59c-0.21,0.13-0.34,0.25-0.39,0.35c-0.05,0.11,0.02,0.32,0.21,0.64
		l0.24,0.39c0.14,0.23,0.27,0.35,0.39,0.37C62.63,77.17,62.8,77.12,63.02,76.99z"/>
	<path class="st0" d="M59.71,80.47l-1.43,0.57c-0.96,0.38-1.62,0.6-1.99,0.66c-0.37,0.06-0.72-0.02-1.05-0.24s-0.63-0.66-0.89-1.32
		c-0.24-0.61-0.33-1.04-0.26-1.31c0.07-0.27,0.32-0.51,0.74-0.73c-0.44,0.06-0.76,0.03-0.97-0.08c-0.2-0.11-0.35-0.23-0.44-0.36
		c-0.09-0.13-0.26-0.5-0.51-1.13l-0.81-2.05l1.88-0.75l1.03,2.59c0.17,0.42,0.3,0.66,0.41,0.74c0.11,0.07,0.3,0.05,0.58-0.06
		l-1.39-3.51l2.03-0.8L59.71,80.47z M57.16,79.94l-0.69-1.73c-0.23,0.09-0.38,0.19-0.44,0.28c-0.07,0.1-0.03,0.32,0.1,0.66
		l0.17,0.43c0.1,0.25,0.21,0.39,0.32,0.43C56.75,80.06,56.93,80.03,57.16,79.94z"/>
	<path class="st0" d="M48.86,83.8l0.38-5.56l-0.66-2.96l1.97-0.44l0.66,2.96l2.67,4.88l-1.95,0.44c-0.66-1.53-1.08-2.56-1.24-3.11
		c0.08,0.9,0.12,2.02,0.13,3.36L48.86,83.8z"/>
	<path class="st0" d="M40.21,81.19l2.18-0.03l0.01,0.76c0.01,0.48,0.03,0.78,0.08,0.9c0.04,0.12,0.14,0.18,0.3,0.18
		c0.13,0,0.23-0.06,0.27-0.16c0.05-0.1,0.07-0.37,0.06-0.8l-0.06-4.02c-0.01-0.38-0.03-0.62-0.08-0.74s-0.15-0.18-0.29-0.17
		c-0.16,0-0.27,0.07-0.32,0.21c-0.05,0.14-0.08,0.4-0.07,0.79l0.02,0.99l0.44-0.01l0.02,1.27l-2.55,0.04l-0.07-4.5l1.37-0.02
		l0.21,0.6c0.14-0.26,0.33-0.46,0.55-0.59c0.22-0.13,0.49-0.2,0.8-0.21c0.37-0.01,0.71,0.08,1.03,0.25
		c0.32,0.17,0.57,0.39,0.74,0.65c0.17,0.26,0.28,0.53,0.32,0.82c0.05,0.29,0.07,0.72,0.08,1.29l0.04,2.49
		c0.01,0.8-0.02,1.38-0.1,1.75s-0.32,0.7-0.73,1.01c-0.4,0.31-0.93,0.47-1.58,0.48c-0.64,0.01-1.17-0.11-1.59-0.37
		c-0.43-0.26-0.7-0.56-0.84-0.92s-0.21-0.88-0.22-1.57L40.21,81.19z"/>
	<path class="st0" d="M38.27,84.11l-1.52-0.24c-1.02-0.16-1.7-0.31-2.04-0.44c-0.35-0.13-0.61-0.38-0.79-0.74
		c-0.18-0.36-0.21-0.89-0.1-1.6c0.1-0.64,0.25-1.06,0.44-1.26c0.19-0.2,0.53-0.28,1.01-0.25c-0.41-0.17-0.67-0.36-0.79-0.56
		s-0.18-0.38-0.2-0.53c-0.01-0.15,0.03-0.56,0.14-1.23l0.34-2.18l2,0.31l-0.43,2.75c-0.07,0.44-0.08,0.72-0.02,0.84
		c0.05,0.12,0.23,0.2,0.52,0.25l0.59-3.73l2.15,0.34L38.27,84.11z M36.35,82.35l0.29-1.84c-0.24-0.04-0.42-0.03-0.52,0.02
		c-0.11,0.05-0.19,0.26-0.25,0.62l-0.07,0.46c-0.04,0.26-0.02,0.44,0.06,0.54C35.93,82.25,36.1,82.32,36.35,82.35z"/>
	<path class="st0" d="M28.05,81.72l1.43-8.35l2.12,0.69l-0.36,1.47l0.74,0.24l0.59-1.39l2.14,0.7l-3.67,7.61L28.05,81.72z
		 M30.82,76.96c-0.19,0.94-0.45,2.09-0.78,3.45c0.71-1.46,1.21-2.53,1.5-3.21L30.82,76.96z"/>
	<path class="st0" d="M21.23,78.5l3.87-7.43l1.69,0.88l-0.75,3.9l1.76-3.38l1.62,0.84l-3.87,7.43l-1.62-0.84l0.66-3.91l-1.74,3.35
		L21.23,78.5z"/>
	<path class="st0" d="M18.54,70.52c0.51-0.67,0.89-1.13,1.13-1.39c0.24-0.25,0.54-0.44,0.88-0.54c0.34-0.1,0.7-0.11,1.08-0.02
		c0.38,0.09,0.75,0.28,1.13,0.57c0.36,0.27,0.63,0.57,0.83,0.91s0.29,0.68,0.29,1.05s-0.09,0.7-0.27,1
		c-0.18,0.3-0.52,0.79-1.05,1.48l-0.87,1.14c-0.51,0.67-0.88,1.13-1.13,1.39c-0.24,0.26-0.54,0.44-0.88,0.54
		c-0.34,0.1-0.7,0.11-1.08,0.02c-0.38-0.09-0.75-0.28-1.13-0.57c-0.36-0.27-0.63-0.57-0.83-0.91s-0.29-0.68-0.29-1.05
		c0-0.36,0.09-0.7,0.27-1c0.18-0.3,0.52-0.79,1.05-1.48L18.54,70.52z M18.61,74.03c-0.24,0.31-0.37,0.52-0.4,0.64
		c-0.03,0.11,0.01,0.21,0.11,0.29c0.09,0.07,0.19,0.09,0.29,0.05c0.1-0.03,0.28-0.22,0.54-0.57l2.37-3.12
		c0.29-0.39,0.46-0.64,0.5-0.75c0.04-0.11,0-0.22-0.12-0.3c-0.12-0.09-0.23-0.09-0.35-0.01c-0.11,0.08-0.32,0.32-0.62,0.71
		L18.61,74.03z"/>
	<path class="st0" d="M12.76,71.65l4.78-4.7L16.61,66l1.2-1.17l2.46,2.5l-5.98,5.87L12.76,71.65z"/>
	<path class="st0" d="M8.45,66.31l6.05-5.93l1.31,1.8l-1.15,0.98l0.46,0.63l1.3-0.78l1.32,1.82l-7.43,4.02L8.45,66.31z M13.49,64.08
		c-0.7,0.65-1.59,1.43-2.65,2.34c1.43-0.76,2.46-1.34,3.09-1.73L13.49,64.08z"/>
	<path class="st0" d="M5.93,62.07l-0.87-2.01c-0.24-0.54-0.38-0.98-0.42-1.31c-0.04-0.33-0.01-0.6,0.08-0.82
		c0.1-0.22,0.25-0.4,0.46-0.55c0.21-0.15,0.55-0.33,1.03-0.54l0.67-0.29c0.49-0.21,0.87-0.32,1.14-0.31c0.27,0,0.52,0.12,0.76,0.33
		c0.24,0.22,0.45,0.55,0.64,0.98l0.23,0.54l3.1-1.34l0.87,2L5.93,62.07z M6.38,59.5l1.96-0.85c-0.02-0.06-0.04-0.11-0.06-0.15
		c-0.08-0.18-0.18-0.29-0.3-0.32c-0.12-0.03-0.32,0.01-0.61,0.14l-0.63,0.27c-0.26,0.11-0.42,0.23-0.46,0.35
		C6.24,59.05,6.27,59.24,6.38,59.5z"/>
	<path class="st0" d="M3.52,56.12l-0.37-1.5c-0.24-1-0.37-1.68-0.38-2.06c-0.01-0.37,0.12-0.71,0.38-1.01
		c0.26-0.3,0.74-0.54,1.43-0.71c0.63-0.16,1.08-0.18,1.33-0.08c0.26,0.1,0.46,0.38,0.62,0.83c0-0.44,0.07-0.76,0.21-0.95
		s0.28-0.32,0.41-0.39c0.14-0.07,0.53-0.19,1.19-0.35l2.15-0.53l0.48,1.97l-2.7,0.66c-0.44,0.11-0.7,0.21-0.78,0.3
		c-0.09,0.09-0.1,0.29-0.02,0.58l3.67-0.9l0.52,2.12L3.52,56.12z M4.39,53.66l1.81-0.44c-0.06-0.24-0.13-0.4-0.22-0.48
		c-0.09-0.08-0.31-0.08-0.67,0.01l-0.45,0.11c-0.26,0.06-0.42,0.15-0.47,0.26C4.33,53.24,4.33,53.42,4.39,53.66z"/>
	<path class="st0" d="M6.64,44.12c0.84-0.05,1.44-0.07,1.79-0.05s0.68,0.12,0.98,0.31c0.3,0.19,0.54,0.46,0.72,0.8
		c0.18,0.34,0.28,0.75,0.31,1.23c0.03,0.45-0.02,0.85-0.14,1.22c-0.12,0.37-0.33,0.67-0.6,0.9c-0.28,0.24-0.59,0.38-0.93,0.45
		s-0.94,0.12-1.8,0.18l-1.43,0.09c-0.84,0.05-1.44,0.07-1.79,0.05c-0.35-0.02-0.68-0.12-0.98-0.31c-0.3-0.19-0.54-0.46-0.72-0.8
		s-0.28-0.75-0.31-1.22c-0.03-0.45,0.02-0.85,0.14-1.22s0.33-0.67,0.6-0.9c0.28-0.24,0.59-0.38,0.93-0.45
		c0.34-0.06,0.94-0.12,1.8-0.18L6.64,44.12z M4.03,46.47c-0.39,0.02-0.64,0.06-0.74,0.11c-0.11,0.05-0.15,0.14-0.15,0.28
		c0.01,0.11,0.06,0.2,0.15,0.25s0.35,0.07,0.78,0.04l3.91-0.25c0.49-0.03,0.78-0.07,0.9-0.12c0.11-0.05,0.16-0.14,0.15-0.29
		c-0.01-0.15-0.08-0.24-0.21-0.27c-0.13-0.03-0.45-0.04-0.94,0L4.03,46.47z"/>
	<path class="st0" d="M2.25,38.16l1.67,0.17l-0.13,1.29l6.67,0.67l-0.22,2.17l-6.67-0.67l-0.13,1.28L1.78,42.9L2.25,38.16z"/>
	<path class="st0" d="M2.54,36.75l0.87-3.53l1.63,0.4l-0.35,1.41l1.54,0.38l0.33-1.32l1.55,0.38L7.78,35.8l1.79,0.44l0.38-1.55
		l1.63,0.4l-0.91,3.67L2.54,36.75z"/>
	<path class="st0" d="M4.67,29.72l7.85,2.93l-0.76,2.04l-7.85-2.93L4.67,29.72z"/>
	<path class="st0" d="M7.61,23.79L15,27.75l-0.9,1.68l-3.89-0.8l3.36,1.8l-0.86,1.61l-7.39-3.96l0.86-1.61l3.9,0.71L6.75,25.4
		L7.61,23.79z"/>
	<path class="st0" d="M10.04,20.29l1.44-1.63c0.45-0.52,0.84-0.87,1.15-1.07c0.31-0.19,0.67-0.27,1.05-0.21s0.85,0.32,1.4,0.8
		c0.37,0.32,0.57,0.61,0.62,0.85c0.04,0.24-0.05,0.57-0.27,0.98c0.42-0.3,0.79-0.43,1.1-0.39c0.32,0.04,0.68,0.24,1.09,0.6
		l0.58,0.51c0.42,0.37,0.7,0.7,0.82,0.98s0.12,0.56,0.01,0.83c-0.11,0.28-0.46,0.75-1.04,1.4l-1.67,1.89L10.04,20.29z M12.55,19.61
		l1.4,1.23c0.06-0.07,0.11-0.13,0.14-0.17c0.14-0.16,0.19-0.3,0.15-0.41c-0.04-0.11-0.25-0.33-0.62-0.66
		c-0.2-0.17-0.35-0.28-0.46-0.31c-0.11-0.03-0.2-0.03-0.27,0.01C12.82,19.34,12.71,19.44,12.55,19.61z M14.93,21.7l1.76,1.55
		c0.2-0.24,0.29-0.42,0.28-0.54c-0.01-0.12-0.14-0.29-0.39-0.52l-0.59-0.52c-0.27-0.24-0.46-0.35-0.56-0.35S15.15,21.46,14.93,21.7z
		"/>
	<path class="st0" d="M14.72,15.28l2.79-2.33l1.08,1.29l-1.12,0.93l1.02,1.22l1.04-0.87l1.02,1.22l-1.04,0.87l1.18,1.41L21.92,18
		l1.08,1.29l-2.9,2.42L14.72,15.28z"/>
	<path class="st0" d="M18.91,11.89l1.32-0.8c0.88-0.54,1.49-0.86,1.84-0.99s0.71-0.1,1.08,0.06s0.73,0.54,1.11,1.15
		c0.34,0.56,0.5,0.97,0.48,1.25s-0.22,0.56-0.61,0.84c0.42-0.13,0.75-0.16,0.97-0.09c0.22,0.08,0.38,0.17,0.49,0.28
		c0.11,0.11,0.34,0.45,0.69,1.03l1.15,1.89l-1.73,1.05l-1.45-2.38c-0.23-0.38-0.41-0.6-0.52-0.66c-0.12-0.05-0.3,0-0.56,0.15
		l1.97,3.23l-1.86,1.14L18.91,11.89z M21.52,11.98l0.97,1.59c0.21-0.13,0.34-0.25,0.39-0.35c0.05-0.11-0.02-0.32-0.22-0.64
		l-0.24-0.39c-0.14-0.23-0.27-0.35-0.39-0.37C21.9,11.79,21.73,11.85,21.52,11.98z"/>
	<path class="st0" d="M24.83,8.47l1.43-0.57c0.96-0.38,1.62-0.6,1.98-0.66c0.37-0.06,0.72,0.02,1.05,0.23s0.63,0.66,0.9,1.32
		c0.24,0.61,0.33,1.04,0.26,1.31c-0.07,0.27-0.31,0.51-0.74,0.73c0.44-0.06,0.76-0.04,0.97,0.08c0.2,0.11,0.35,0.23,0.44,0.36
		s0.26,0.5,0.51,1.13l0.82,2.05l-1.88,0.75l-1.03-2.59c-0.17-0.42-0.3-0.66-0.41-0.73c-0.11-0.07-0.3-0.05-0.58,0.06l1.4,3.51
		l-2.02,0.81L24.83,8.47z M27.38,9l0.69,1.73c0.23-0.09,0.37-0.19,0.44-0.29c0.07-0.1,0.03-0.32-0.11-0.66l-0.17-0.43
		c-0.1-0.25-0.21-0.39-0.33-0.43S27.62,8.9,27.38,9z"/>
	<path class="st0" d="M35.67,5.11l-0.36,5.57l0.67,2.96l-1.97,0.45l-0.67-2.96l-2.68-4.87l1.95-0.44c0.67,1.53,1.08,2.56,1.25,3.1
		c-0.08-0.9-0.13-2.02-0.14-3.35L35.67,5.11z"/>
</g>
</svg>
