<?xml version="1.0" encoding="utf-8"?>
<!-- Generator: Adobe Illustrator 23.1.0, SVG Export Plug-In . SVG Version: 6.00 Build 0)  -->
<svg version="1.1" id="Layer_1" xmlns="http://www.w3.org/2000/svg" xmlns:xlink="http://www.w3.org/1999/xlink" x="0px" y="0px"
	 viewBox="0 0 90 90" style="enable-background:new 0 0 90 90;" xml:space="preserve">
<style type="text/css">
	.st0{fill:#FFFFFF;}
</style>
<g>
	<path class="st0" d="M49.16,9.12l-1.95-0.15l0.05-0.68c0.03-0.43,0.03-0.7,0-0.81s-0.11-0.17-0.25-0.18
		c-0.12-0.01-0.21,0.03-0.26,0.12c-0.05,0.09-0.09,0.32-0.12,0.71l-0.27,3.59c-0.03,0.34-0.02,0.56,0.01,0.67
		c0.04,0.11,0.12,0.17,0.25,0.18c0.14,0.01,0.24-0.04,0.3-0.16c0.06-0.12,0.1-0.35,0.13-0.7l0.07-0.89l-0.39-0.03l0.08-1.14
		l2.28,0.17l-0.3,4.02l-1.22-0.09l-0.14-0.55c-0.15,0.22-0.33,0.38-0.54,0.48s-0.45,0.14-0.73,0.12c-0.33-0.02-0.63-0.13-0.9-0.31
		s-0.48-0.39-0.61-0.64c-0.13-0.25-0.2-0.5-0.22-0.76c-0.02-0.26-0.01-0.65,0.03-1.16l0.17-2.23c0.05-0.72,0.13-1.23,0.23-1.55
		c0.1-0.32,0.35-0.6,0.73-0.84c0.39-0.24,0.87-0.34,1.45-0.3c0.57,0.04,1.04,0.2,1.39,0.46c0.36,0.26,0.58,0.56,0.67,0.89
		c0.09,0.33,0.11,0.8,0.07,1.42L49.16,9.12z"/>
	<path class="st0" d="M50.98,6.61l1.35,0.31c0.9,0.21,1.5,0.38,1.8,0.52c0.3,0.14,0.52,0.38,0.66,0.71
		c0.13,0.33,0.13,0.81-0.01,1.43c-0.13,0.57-0.29,0.94-0.48,1.1s-0.49,0.22-0.92,0.16c0.36,0.18,0.58,0.36,0.67,0.55
		c0.09,0.19,0.14,0.35,0.14,0.49c0,0.14-0.07,0.5-0.2,1.09l-0.44,1.93l-1.77-0.4l0.56-2.43c0.09-0.39,0.11-0.64,0.07-0.75
		c-0.04-0.11-0.19-0.19-0.45-0.25l-0.76,3.3l-1.9-0.44L50.98,6.61z M52.6,8.3l-0.37,1.63c0.21,0.05,0.37,0.05,0.47,0.01
		c0.1-0.04,0.19-0.22,0.26-0.54L53.04,9c0.05-0.23,0.05-0.39-0.02-0.49S52.82,8.35,52.6,8.3z"/>
	<path class="st0" d="M59.89,9.28l-1.68,7.41l-1.86-0.72l0.39-1.3l-0.65-0.25l-0.6,1.22l-1.88-0.73l3.65-6.64L59.89,9.28z
		 M57.18,13.41c0.22-0.83,0.5-1.84,0.86-3.05c-0.71,1.27-1.2,2.2-1.49,2.8L57.18,13.41z"/>
	<path class="st0" d="M65.76,12.35l-3.71,6.53l-1.49-0.84l0.8-3.47l-1.68,2.97l-1.42-0.81l3.71-6.53l1.42,0.81l-0.72,3.48l1.67-2.94
		L65.76,12.35z"/>
	<path class="st0" d="M67.92,19.49c-0.47,0.59-0.81,1-1.03,1.23c-0.22,0.22-0.49,0.38-0.79,0.47c-0.31,0.09-0.63,0.09-0.97,0
		c-0.34-0.09-0.67-0.26-1-0.53c-0.32-0.25-0.56-0.52-0.73-0.83c-0.17-0.3-0.25-0.62-0.24-0.94s0.1-0.62,0.26-0.89
		c0.16-0.27,0.48-0.7,0.96-1.31l0.8-1.01c0.47-0.59,0.81-1,1.03-1.23c0.22-0.22,0.49-0.38,0.79-0.47c0.31-0.09,0.63-0.09,0.97,0
		c0.34,0.09,0.67,0.26,1,0.53c0.32,0.25,0.56,0.52,0.73,0.83c0.17,0.3,0.25,0.62,0.24,0.94s-0.1,0.62-0.26,0.89
		c-0.16,0.27-0.48,0.7-0.96,1.31L67.92,19.49z M67.91,16.35c0.22-0.27,0.34-0.46,0.37-0.56s0-0.19-0.1-0.26
		c-0.08-0.06-0.17-0.08-0.26-0.05c-0.09,0.03-0.26,0.19-0.5,0.5l-2.17,2.75c-0.27,0.34-0.42,0.56-0.46,0.67
		c-0.04,0.1,0,0.19,0.1,0.27c0.1,0.08,0.21,0.09,0.31,0.02s0.29-0.28,0.56-0.63L67.91,16.35z"/>
	<path class="st0" d="M73.07,18.47l-4.3,4.19l0.83,0.85l-1.08,1.05l-2.19-2.25l5.38-5.24L73.07,18.47z"/>
	<path class="st0" d="M76.88,23.13l-5.36,5.38l-1.19-1.6l1.02-0.89l-0.42-0.56l-1.15,0.71l-1.21-1.62l6.62-3.69L76.88,23.13z
		 M72.39,25.18c0.62-0.59,1.41-1.29,2.35-2.12c-1.27,0.7-2.19,1.23-2.75,1.58L72.39,25.18z"/>
	<path class="st0" d="M79.13,26.74l0.84,1.78c0.23,0.48,0.37,0.87,0.41,1.16c0.05,0.29,0.03,0.54-0.05,0.74
		c-0.08,0.2-0.21,0.37-0.39,0.51s-0.48,0.31-0.91,0.52l-0.59,0.28c-0.43,0.21-0.77,0.31-1.01,0.32c-0.24,0-0.47-0.09-0.69-0.28
		c-0.22-0.19-0.42-0.48-0.6-0.86l-0.23-0.47l-2.73,1.3l-0.84-1.76L79.13,26.74z M78.81,29.06l-1.73,0.82
		c0.02,0.05,0.04,0.1,0.06,0.13c0.08,0.16,0.17,0.26,0.28,0.28c0.11,0.02,0.29-0.02,0.54-0.14l0.56-0.27
		c0.23-0.11,0.37-0.22,0.4-0.32C78.96,29.45,78.92,29.29,78.81,29.06z"/>
	<path class="st0" d="M81.46,31.88l0.4,1.32c0.27,0.88,0.41,1.49,0.44,1.82c0.03,0.33-0.07,0.64-0.29,0.92
		c-0.22,0.28-0.64,0.51-1.25,0.7c-0.56,0.17-0.96,0.21-1.19,0.13c-0.23-0.08-0.43-0.32-0.59-0.72c0.02,0.4-0.03,0.68-0.14,0.86
		c-0.12,0.17-0.23,0.3-0.35,0.37c-0.12,0.07-0.47,0.19-1.05,0.37l-1.9,0.57L75,36.48l2.39-0.72c0.38-0.12,0.61-0.22,0.69-0.31
		c0.07-0.09,0.07-0.26-0.01-0.52l-3.24,0.98l-0.56-1.87L81.46,31.88z M80.79,34.12l-1.6,0.48c0.06,0.21,0.14,0.35,0.22,0.42
		c0.08,0.07,0.28,0.05,0.6-0.04l0.4-0.12c0.23-0.07,0.37-0.15,0.41-0.26C80.86,34.5,80.85,34.34,80.79,34.12z"/>
	<path class="st0" d="M79.3,42.7c-0.75,0.1-1.28,0.15-1.59,0.16c-0.32,0.01-0.62-0.07-0.9-0.22s-0.51-0.38-0.69-0.67
		c-0.18-0.3-0.3-0.66-0.35-1.08c-0.05-0.4-0.04-0.76,0.05-1.1c0.09-0.33,0.25-0.62,0.48-0.84c0.23-0.23,0.5-0.38,0.8-0.46
		c0.3-0.08,0.84-0.17,1.6-0.27l1.27-0.17c0.75-0.1,1.28-0.15,1.59-0.16c0.32-0.01,0.62,0.07,0.9,0.22s0.51,0.38,0.69,0.67
		c0.18,0.3,0.3,0.66,0.35,1.08c0.05,0.4,0.04,0.77-0.05,1.1c-0.09,0.33-0.25,0.62-0.48,0.84s-0.5,0.38-0.8,0.46
		c-0.3,0.08-0.84,0.17-1.6,0.27L79.3,42.7z M81.49,40.44c0.35-0.05,0.57-0.1,0.66-0.15c0.09-0.05,0.13-0.14,0.11-0.26
		c-0.01-0.1-0.06-0.17-0.15-0.22c-0.08-0.04-0.32-0.04-0.7,0.01l-3.48,0.47c-0.43,0.06-0.7,0.11-0.79,0.16s-0.14,0.14-0.12,0.27
		c0.02,0.13,0.09,0.21,0.21,0.23c0.12,0.02,0.4,0,0.84-0.06L81.49,40.44z"/>
	<path class="st0" d="M83.66,47.61l-1.5-0.02l0.02-1.16l-6.01-0.1l0.03-1.95l6.01,0.1l0.02-1.16l1.5,0.02L83.66,47.61z"/>
	<path class="st0" d="M83.55,48.77l-0.45,3.23l-1.49-0.21l0.18-1.29l-1.41-0.2l-0.17,1.21l-1.42-0.2l0.17-1.21l-1.64-0.23l-0.2,1.42
		l-1.49-0.21l0.47-3.35L83.55,48.77z"/>
	<path class="st0" d="M82.35,55.15l-7.29-1.8l0.47-1.9l7.29,1.8L82.35,55.15z"/>
	<path class="st0" d="M80.42,60.66l-7.02-2.67l0.61-1.6l3.55,0.26l-3.19-1.21l0.58-1.53l7.02,2.67l-0.58,1.53l-3.55-0.18l3.16,1.2
		L80.42,60.66z"/>
	<path class="st0" d="M72.67,65.29c-0.63-0.41-1.07-0.71-1.32-0.91c-0.25-0.2-0.43-0.45-0.54-0.75s-0.15-0.62-0.09-0.96
		c0.06-0.34,0.2-0.69,0.43-1.05c0.22-0.34,0.47-0.61,0.75-0.8s0.59-0.31,0.92-0.33c0.33-0.02,0.63,0.04,0.91,0.17
		c0.28,0.14,0.75,0.41,1.4,0.83l1.08,0.7c0.63,0.41,1.07,0.71,1.32,0.91c0.25,0.2,0.43,0.45,0.54,0.75s0.15,0.62,0.09,0.96
		c-0.06,0.34-0.2,0.69-0.43,1.05c-0.22,0.34-0.47,0.61-0.75,0.8c-0.28,0.2-0.59,0.31-0.92,0.33s-0.63-0.04-0.91-0.17
		c-0.28-0.14-0.75-0.41-1.39-0.83L72.67,65.29z M75.8,64.99c0.29,0.19,0.49,0.29,0.6,0.31c0.1,0.02,0.19-0.02,0.25-0.12
		c0.06-0.08,0.06-0.17,0.03-0.26s-0.22-0.24-0.54-0.45l-2.95-1.9c-0.37-0.24-0.6-0.37-0.71-0.39c-0.1-0.03-0.19,0.02-0.26,0.13
		c-0.07,0.11-0.07,0.21,0.01,0.31s0.3,0.26,0.68,0.5L75.8,64.99z"/>
	<path class="st0" d="M75.38,68.96l-0.92,1.03c-0.61,0.69-1.05,1.13-1.32,1.33c-0.27,0.2-0.58,0.27-0.94,0.23
		c-0.36-0.04-0.77-0.27-1.25-0.7c-0.44-0.39-0.68-0.7-0.74-0.95s0.05-0.54,0.3-0.88c-0.33,0.23-0.6,0.33-0.8,0.33
		c-0.21-0.01-0.37-0.04-0.5-0.11c-0.12-0.07-0.41-0.3-0.86-0.7l-1.48-1.32l1.21-1.36l1.87,1.66c0.3,0.27,0.51,0.41,0.62,0.42
		c0.11,0.02,0.26-0.08,0.44-0.28l-2.53-2.25l1.3-1.46L75.38,68.96z M73.12,69.56l-1.25-1.11c-0.15,0.17-0.22,0.3-0.24,0.41
		c-0.01,0.11,0.1,0.27,0.35,0.49l0.31,0.27c0.18,0.16,0.32,0.23,0.43,0.22C72.84,69.83,72.97,69.73,73.12,69.56z"/>
	<path class="st0" d="M69.97,74.47l-5-5.61l1.46-1.3l5,5.61L69.97,74.47z"/>
	<path class="st0" d="M63.61,75.74l1.6-1.12l0.39,0.56c0.25,0.35,0.42,0.56,0.51,0.63c0.09,0.07,0.2,0.06,0.31-0.02
		c0.1-0.07,0.14-0.15,0.12-0.25c-0.02-0.1-0.14-0.31-0.36-0.62l-2.07-2.95c-0.19-0.28-0.34-0.45-0.44-0.51s-0.2-0.06-0.3,0.02
		c-0.12,0.08-0.16,0.19-0.13,0.31s0.14,0.33,0.34,0.62l0.51,0.73l0.32-0.23l0.65,0.94l-1.87,1.31l-2.31-3.3l1-0.7l0.46,0.34
		c-0.02-0.27,0.01-0.5,0.11-0.72s0.26-0.4,0.49-0.55c0.27-0.19,0.57-0.3,0.89-0.33c0.33-0.03,0.62,0,0.87,0.11
		c0.26,0.11,0.47,0.26,0.65,0.45c0.18,0.19,0.42,0.5,0.71,0.92l1.28,1.83c0.41,0.59,0.68,1.04,0.8,1.35
		c0.12,0.31,0.11,0.68-0.03,1.11c-0.14,0.43-0.46,0.81-0.93,1.15c-0.47,0.33-0.93,0.5-1.37,0.53c-0.44,0.02-0.81-0.06-1.08-0.26
		c-0.28-0.2-0.59-0.55-0.95-1.06L63.61,75.74z"/>
	<path class="st0" d="M62.23,79.61L58.67,73l1.72-0.92l3.56,6.61L62.23,79.61z"/>
	<path class="st0" d="M56.88,81.9l-2.77-6.98l1.59-0.63l2.2,2.8l-1.26-3.17l1.52-0.6l2.77,6.98l-1.52,0.6l-2.27-2.74l1.25,3.14
		L56.88,81.9z"/>
	<path class="st0" d="M52.04,83.15l-2.81-7.05l1.94-0.46l0.41,1.29l0.68-0.16l-0.2-1.34l1.96-0.46l0.76,7.54L52.04,83.15z
		 M51.94,78.21c0.29,0.8,0.63,1.81,1.01,3c-0.14-1.45-0.26-2.5-0.36-3.16L51.94,78.21z"/>
	<path class="st0" d="M47.99,83.73l-0.66-5.97l-1.18,0.13l-0.16-1.49l3.12-0.34l0.82,7.46L47.99,83.73z"/>
	<path class="st0" d="M39.37,80.93l1.95,0.13l-0.04,0.68c-0.03,0.43-0.03,0.7,0,0.81c0.03,0.11,0.11,0.17,0.25,0.18
		c0.12,0.01,0.21-0.03,0.25-0.12c0.05-0.09,0.09-0.33,0.11-0.71l0.23-3.6c0.02-0.34,0.01-0.56-0.02-0.67
		c-0.04-0.11-0.12-0.17-0.25-0.18c-0.14-0.01-0.24,0.04-0.3,0.16s-0.1,0.35-0.12,0.7l-0.06,0.89l0.39,0.03l-0.07,1.14l-2.28-0.15
		l0.26-4.02l1.22,0.08l0.15,0.55c0.15-0.22,0.33-0.39,0.54-0.49c0.21-0.1,0.45-0.15,0.73-0.13c0.33,0.02,0.63,0.12,0.9,0.3
		c0.28,0.18,0.48,0.39,0.61,0.63s0.21,0.5,0.23,0.76c0.02,0.26,0.01,0.65-0.02,1.16l-0.14,2.23c-0.05,0.72-0.12,1.23-0.22,1.55
		c-0.1,0.32-0.34,0.6-0.72,0.85c-0.38,0.25-0.86,0.35-1.44,0.31c-0.57-0.04-1.04-0.18-1.4-0.44c-0.36-0.26-0.59-0.55-0.68-0.88
		c-0.09-0.33-0.12-0.8-0.08-1.42L39.37,80.93z"/>
	<path class="st0" d="M37.6,83.46l-1.35-0.29c-0.9-0.2-1.5-0.36-1.81-0.5c-0.3-0.14-0.52-0.37-0.66-0.7s-0.14-0.81,0-1.43
		c0.12-0.57,0.28-0.94,0.46-1.11c0.18-0.17,0.49-0.22,0.92-0.17c-0.36-0.18-0.58-0.36-0.68-0.54c-0.1-0.19-0.15-0.35-0.15-0.49
		c0-0.14,0.06-0.5,0.19-1.1l0.42-1.94l1.77,0.38l-0.53,2.44c-0.09,0.39-0.11,0.64-0.07,0.75s0.19,0.19,0.46,0.25l0.72-3.31
		l1.91,0.41L37.6,83.46z M35.97,81.79l0.35-1.63c-0.21-0.05-0.37-0.05-0.47-0.01c-0.1,0.04-0.18,0.22-0.25,0.55l-0.09,0.4
		c-0.05,0.23-0.04,0.39,0.03,0.49C35.6,81.68,35.75,81.75,35.97,81.79z"/>
	<path class="st0" d="M28.65,80.89l1.59-7.42l1.87,0.7l-0.38,1.3l0.65,0.25l0.58-1.22l1.89,0.71l-3.57,6.68L28.65,80.89z
		 M31.32,76.73c-0.21,0.83-0.48,1.85-0.83,3.06c0.69-1.28,1.18-2.22,1.46-2.82L31.32,76.73z"/>
	<path class="st0" d="M22.75,77.89l3.63-6.57l1.5,0.83l-0.76,3.48l1.65-2.99l1.43,0.79l-3.63,6.57l-1.43-0.79l0.68-3.49l-1.64,2.96
		L22.75,77.89z"/>
	<path class="st0" d="M20.51,70.77c0.46-0.6,0.8-1.01,1.02-1.24s0.48-0.39,0.79-0.48c0.31-0.09,0.63-0.1,0.97-0.01
		c0.34,0.08,0.67,0.25,1.01,0.51c0.32,0.25,0.56,0.52,0.74,0.82c0.17,0.3,0.26,0.61,0.25,0.94s-0.09,0.62-0.25,0.89
		c-0.16,0.27-0.47,0.71-0.95,1.32l-0.78,1.02c-0.46,0.6-0.8,1.01-1.02,1.24c-0.22,0.23-0.48,0.39-0.79,0.48
		c-0.31,0.09-0.63,0.09-0.97,0.01c-0.34-0.08-0.67-0.26-1.01-0.51c-0.32-0.25-0.56-0.52-0.74-0.82c-0.17-0.3-0.26-0.61-0.25-0.94
		c0.01-0.33,0.09-0.63,0.25-0.89c0.16-0.27,0.48-0.71,0.95-1.32L20.51,70.77z M20.55,73.92c-0.21,0.28-0.33,0.47-0.36,0.57
		s0,0.19,0.1,0.26c0.08,0.06,0.17,0.08,0.26,0.05c0.09-0.03,0.25-0.2,0.49-0.5l2.14-2.78c0.27-0.34,0.42-0.57,0.45-0.67
		s0-0.19-0.1-0.27c-0.1-0.08-0.21-0.09-0.31-0.02c-0.1,0.07-0.29,0.28-0.56,0.63L20.55,73.92z"/>
	<path class="st0" d="M15.37,71.85l4.25-4.24l-0.84-0.84l1.06-1.06l2.22,2.22l-5.32,5.3L15.37,71.85z"/>
	<path class="st0" d="M11.5,67.23l5.3-5.44l1.21,1.59L17,64.28l0.42,0.56l1.14-0.73l1.22,1.61l-6.58,3.76L11.5,67.23z M15.97,65.13
		c-0.62,0.59-1.39,1.31-2.33,2.15c1.26-0.71,2.18-1.25,2.74-1.61L15.97,65.13z"/>
	<path class="st0" d="M9.21,63.65l-0.87-1.77c-0.23-0.48-0.38-0.86-0.43-1.16c-0.05-0.29-0.04-0.54,0.04-0.74
		c0.08-0.2,0.21-0.37,0.39-0.51c0.18-0.14,0.48-0.32,0.9-0.53l0.59-0.29c0.43-0.21,0.77-0.32,1.01-0.33s0.47,0.08,0.69,0.27
		c0.22,0.19,0.43,0.47,0.61,0.85l0.23,0.47l2.72-1.33l0.86,1.75L9.21,63.65z M9.5,61.33l1.72-0.84c-0.02-0.05-0.04-0.09-0.06-0.13
		c-0.08-0.16-0.17-0.25-0.28-0.28c-0.11-0.02-0.29,0.03-0.54,0.15L9.78,60.5c-0.23,0.11-0.36,0.22-0.4,0.33
		C9.35,60.94,9.39,61.1,9.5,61.33z"/>
	<path class="st0" d="M6.83,58.54l-0.41-1.32c-0.28-0.88-0.43-1.49-0.46-1.82c-0.03-0.33,0.06-0.64,0.28-0.92
		c0.22-0.28,0.63-0.52,1.24-0.71c0.56-0.18,0.95-0.22,1.19-0.15c0.24,0.08,0.44,0.32,0.6,0.71c-0.02-0.4,0.02-0.68,0.13-0.86
		c0.11-0.18,0.23-0.3,0.35-0.37s0.47-0.2,1.05-0.38l1.89-0.59l0.54,1.73l-2.38,0.75c-0.38,0.12-0.61,0.23-0.68,0.31
		c-0.07,0.09-0.07,0.26,0.01,0.52l3.23-1.01L14,56.29L6.83,58.54z M7.47,56.29l1.59-0.5C9,55.58,8.93,55.45,8.84,55.38
		c-0.08-0.07-0.28-0.05-0.6,0.05l-0.39,0.12c-0.23,0.07-0.36,0.16-0.41,0.26S7.4,56.08,7.47,56.29z"/>
	<path class="st0" d="M8.86,47.71c0.75-0.11,1.28-0.17,1.59-0.18c0.32-0.01,0.62,0.06,0.9,0.21c0.28,0.15,0.52,0.37,0.7,0.66
		c0.18,0.29,0.31,0.65,0.37,1.07c0.06,0.4,0.05,0.76-0.04,1.1c-0.08,0.34-0.24,0.62-0.47,0.85c-0.23,0.23-0.5,0.39-0.8,0.47
		c-0.3,0.08-0.83,0.18-1.6,0.29l-1.27,0.19c-0.75,0.11-1.28,0.17-1.59,0.18c-0.32,0.01-0.62-0.06-0.9-0.21s-0.52-0.37-0.7-0.66
		c-0.18-0.29-0.31-0.65-0.37-1.07c-0.06-0.4-0.05-0.76,0.04-1.1c0.08-0.33,0.24-0.62,0.47-0.85c0.23-0.23,0.5-0.39,0.8-0.47
		c0.3-0.08,0.83-0.18,1.6-0.29L8.86,47.71z M6.7,50c-0.35,0.05-0.56,0.1-0.65,0.15c-0.09,0.05-0.13,0.14-0.11,0.26
		c0.01,0.1,0.06,0.17,0.15,0.21s0.32,0.04,0.7-0.02l3.47-0.51c0.43-0.06,0.69-0.12,0.79-0.17c0.1-0.05,0.13-0.14,0.12-0.27
		c-0.02-0.13-0.09-0.21-0.21-0.23c-0.12-0.02-0.4,0-0.84,0.07L6.7,50z"/>
	<path class="st0" d="M4.47,42.72l1.5,0.02L5.95,43.9l6.01,0.1l-0.03,1.95l-6.01-0.1L5.9,47.01l-1.5-0.03L4.47,42.72z"/>
	<path class="st0" d="M4.54,41.66l0.41-3.23l1.49,0.19l-0.17,1.29l1.41,0.18l0.16-1.21l1.42,0.18l-0.16,1.21l1.64,0.21l0.18-1.42
		l1.49,0.19l-0.43,3.36L4.54,41.66z"/>
	<path class="st0" d="M5.66,35.29l7.31,1.71l-0.45,1.9l-7.31-1.71L5.66,35.29z"/>
	<path class="st0" d="M7.52,29.75l7.05,2.59l-0.59,1.61l-3.56-0.22l3.2,1.18l-0.56,1.53l-7.05-2.59l0.56-1.53l3.55,0.14l-3.17-1.17
		L7.52,29.75z"/>
	<path class="st0" d="M15.23,25.03c0.64,0.4,1.08,0.7,1.33,0.9c0.25,0.2,0.43,0.44,0.55,0.74c0.12,0.3,0.16,0.62,0.1,0.96
		c-0.05,0.34-0.19,0.69-0.42,1.05c-0.21,0.34-0.46,0.61-0.74,0.81c-0.28,0.2-0.59,0.31-0.91,0.34s-0.63-0.03-0.91-0.16
		c-0.28-0.13-0.75-0.41-1.4-0.82l-1.09-0.68c-0.64-0.4-1.08-0.7-1.33-0.9c-0.25-0.2-0.43-0.44-0.55-0.74
		c-0.12-0.3-0.16-0.62-0.1-0.96c0.05-0.34,0.19-0.69,0.42-1.05c0.21-0.34,0.46-0.61,0.74-0.81c0.28-0.2,0.59-0.31,0.91-0.34
		c0.33-0.02,0.63,0.03,0.91,0.16c0.28,0.13,0.75,0.41,1.4,0.82L15.23,25.03z M12.1,25.37c-0.3-0.19-0.5-0.29-0.6-0.31
		s-0.19,0.02-0.25,0.12c-0.05,0.09-0.06,0.17-0.02,0.26c0.04,0.09,0.22,0.23,0.55,0.44l2.97,1.86c0.37,0.23,0.61,0.36,0.71,0.38
		c0.1,0.02,0.19-0.02,0.26-0.13c0.07-0.11,0.07-0.22-0.01-0.31c-0.08-0.09-0.31-0.26-0.68-0.49L12.1,25.37z"/>
	<path class="st0" d="M12.48,21.39l0.91-1.04c0.6-0.7,1.04-1.14,1.31-1.34c0.27-0.2,0.58-0.28,0.93-0.24
		c0.36,0.04,0.77,0.26,1.26,0.68c0.44,0.38,0.69,0.7,0.75,0.94c0.06,0.24-0.04,0.54-0.29,0.88c0.33-0.23,0.59-0.34,0.8-0.34
		c0.21,0,0.37,0.04,0.5,0.1c0.12,0.06,0.41,0.29,0.87,0.69l1.5,1.3l-1.19,1.37l-1.88-1.64c-0.3-0.26-0.51-0.4-0.63-0.42
		c-0.11-0.01-0.26,0.08-0.44,0.28l2.56,2.22l-1.28,1.47L12.48,21.39z M14.73,20.76l1.26,1.1c0.14-0.17,0.22-0.3,0.23-0.41
		c0.01-0.11-0.11-0.27-0.36-0.48l-0.31-0.27c-0.18-0.16-0.33-0.23-0.44-0.21S14.88,20.59,14.73,20.76z"/>
	<path class="st0" d="M17.82,15.81l5.06,5.55l-1.44,1.32l-5.06-5.55L17.82,15.81z"/>
	<path class="st0" d="M24.16,14.48l-1.59,1.14l-0.4-0.55c-0.25-0.35-0.42-0.56-0.52-0.62s-0.2-0.06-0.31,0.02
		c-0.1,0.07-0.14,0.16-0.12,0.26c0.02,0.1,0.14,0.31,0.36,0.62l2.1,2.93c0.2,0.27,0.34,0.44,0.44,0.5c0.1,0.06,0.2,0.05,0.3-0.02
		c0.12-0.08,0.16-0.19,0.13-0.32c-0.03-0.13-0.15-0.33-0.35-0.62l-0.52-0.72l-0.32,0.23l-0.66-0.93l1.86-1.33l2.35,3.28l-1,0.71
		l-0.46-0.33c0.03,0.27-0.01,0.51-0.11,0.72c-0.1,0.21-0.26,0.4-0.48,0.56c-0.27,0.19-0.56,0.31-0.89,0.34
		c-0.33,0.04-0.62,0-0.87-0.1c-0.26-0.1-0.48-0.25-0.66-0.44c-0.18-0.19-0.42-0.49-0.72-0.91l-1.3-1.81
		c-0.42-0.58-0.69-1.03-0.82-1.34c-0.13-0.31-0.12-0.68,0.02-1.11c0.14-0.43,0.45-0.82,0.92-1.16c0.47-0.33,0.92-0.51,1.36-0.54
		c0.44-0.03,0.81,0.05,1.09,0.25c0.28,0.2,0.6,0.54,0.96,1.04L24.16,14.48z"/>
	<path class="st0" d="M25.51,10.59l3.63,6.57l-1.71,0.94l-3.63-6.57L25.51,10.59z"/>
	<path class="st0" d="M30.82,8.25l2.85,6.95l-1.58,0.65l-2.23-2.77l1.29,3.16l-1.51,0.62L26.78,9.9l1.51-0.62l2.3,2.71l-1.28-3.13
		L30.82,8.25z"/>
	<path class="st0" d="M35.64,6.94l2.89,7.02l-1.94,0.48l-0.43-1.28l-0.68,0.17l0.21,1.34l-1.96,0.49L32.9,7.62L35.64,6.94z
		 M35.79,11.88c-0.3-0.8-0.65-1.8-1.05-2.99c0.15,1.44,0.29,2.49,0.4,3.15L35.79,11.88z"/>
	<path class="st0" d="M39.7,6.31l0.72,5.96l1.18-0.14l0.18,1.49L38.67,14l-0.9-7.46L39.7,6.31z"/>
</g>
</svg>
