<?xml version="1.0" encoding="utf-8"?>
<!-- Generator: Adobe Illustrator 23.1.0, SVG Export Plug-In . SVG Version: 6.00 Build 0)  -->
<svg version="1.1" id="Layer_1" xmlns="http://www.w3.org/2000/svg" xmlns:xlink="http://www.w3.org/1999/xlink" x="0px" y="0px"
	 viewBox="0 0 90 90" style="enable-background:new 0 0 90 90;" xml:space="preserve">
<style type="text/css">
	.st0{fill:#FFFFFF;}
</style>
<g>
	<path class="st0" d="M45.86,9.2l0.56,6.93l-1.8,0.15l-0.24-2.91l-0.54,0.04l0.24,2.91l-1.8,0.15l-0.56-6.93l1.8-0.15l0.2,2.48
		l0.54-0.04l-0.2-2.48L45.86,9.2z"/>
	<path class="st0" d="M47.36,9.22l3.01,0.18l-0.08,1.39l-1.21-0.07L49,12.04l1.13,0.07l-0.08,1.32l-1.13-0.07l-0.09,1.53l1.33,0.08
		l-0.08,1.39l-3.13-0.19L47.36,9.22z"/>
	<path class="st0" d="M51.74,9.55l1.25,0.25c0.84,0.17,1.4,0.32,1.68,0.44c0.28,0.12,0.49,0.34,0.63,0.64
		c0.13,0.3,0.14,0.75,0.02,1.33c-0.11,0.53-0.25,0.87-0.41,1.03c-0.17,0.16-0.45,0.21-0.85,0.17c0.33,0.16,0.55,0.32,0.64,0.49
		c0.09,0.17,0.14,0.32,0.14,0.45c0,0.13-0.05,0.47-0.16,1.02l-0.36,1.8l-1.65-0.33l0.46-2.27c0.07-0.36,0.09-0.6,0.05-0.7
		S53,13.7,52.75,13.65l-0.62,3.07l-1.77-0.36L51.74,9.55z M53.27,11.07l-0.31,1.52c0.2,0.04,0.34,0.04,0.44,0
		c0.09-0.04,0.17-0.21,0.23-0.51l0.08-0.37c0.04-0.22,0.03-0.37-0.03-0.45C53.61,11.18,53.48,11.12,53.27,11.07z"/>
	<path class="st0" d="M60.04,14.09l-1.57-0.58l0.18-0.48c0.08-0.23,0.12-0.38,0.1-0.45c-0.02-0.08-0.07-0.13-0.17-0.17
		c-0.1-0.04-0.19-0.02-0.28,0.04c-0.08,0.06-0.16,0.18-0.22,0.35c-0.08,0.22-0.11,0.39-0.09,0.52c0.01,0.13,0.13,0.32,0.33,0.58
		c0.59,0.73,0.93,1.27,1.02,1.63c0.09,0.36,0.01,0.86-0.22,1.5c-0.17,0.46-0.35,0.79-0.54,0.97c-0.19,0.18-0.47,0.29-0.84,0.32
		c-0.37,0.03-0.76-0.03-1.17-0.18c-0.45-0.17-0.81-0.4-1.07-0.69s-0.39-0.59-0.39-0.89s0.09-0.7,0.27-1.19l0.16-0.43l1.58,0.58
		l-0.29,0.79c-0.09,0.24-0.13,0.41-0.11,0.5c0.02,0.09,0.08,0.15,0.2,0.19c0.11,0.04,0.21,0.03,0.3-0.04
		c0.09-0.07,0.16-0.19,0.23-0.36c0.14-0.38,0.18-0.65,0.12-0.81c-0.06-0.16-0.25-0.45-0.57-0.89c-0.32-0.44-0.52-0.74-0.61-0.92
		c-0.09-0.18-0.14-0.39-0.15-0.65c-0.01-0.26,0.05-0.56,0.18-0.9c0.19-0.5,0.39-0.84,0.6-1.02s0.49-0.29,0.82-0.31
		s0.7,0.04,1.1,0.19c0.44,0.16,0.79,0.37,1.05,0.63c0.26,0.26,0.4,0.51,0.42,0.77s-0.07,0.64-0.26,1.16L60.04,14.09z"/>
	<path class="st0" d="M65.83,14.81l-3.42,6.06l-1.58-0.89l1.44-2.54l-0.47-0.27l-1.44,2.54l-1.58-0.89l3.42-6.06l1.58,0.89
		l-1.22,2.17l0.47,0.27l1.22-2.17L65.83,14.81z"/>
	<path class="st0" d="M67.04,15.67l2.39,1.84l-0.85,1.1l-0.96-0.74l-0.8,1.05l0.9,0.69l-0.81,1.05l-0.9-0.69l-0.93,1.21l1.05,0.81
		l-0.85,1.1l-2.49-1.91L67.04,15.67z"/>
	<path class="st0" d="M73.17,21.11l-4.07,2.21l-1.78,1.78l-1.18-1.19l1.78-1.78l2.24-4.04l1.17,1.18c-0.78,1.14-1.32,1.89-1.63,2.25
		c0.6-0.45,1.36-0.98,2.29-1.58L73.17,21.11z"/>
	<path class="st0" d="M71.94,23.2l0.76-0.92l0.82-0.68l0.84,1.01l-0.82,0.68l-1.03,0.59L71.94,23.2z"/>
	<path class="st0" d="M75.44,27.81l-0.93-1.4l0.43-0.29c0.2-0.13,0.32-0.24,0.35-0.31s0.02-0.15-0.04-0.23
		c-0.06-0.09-0.14-0.13-0.25-0.13c-0.11,0-0.23,0.05-0.38,0.15c-0.19,0.13-0.32,0.25-0.38,0.37c-0.06,0.11-0.09,0.34-0.07,0.66
		c0.05,0.94,0,1.57-0.14,1.92s-0.49,0.7-1.06,1.08c-0.41,0.27-0.75,0.43-1.01,0.46c-0.26,0.03-0.55-0.04-0.86-0.23
		c-0.32-0.19-0.6-0.47-0.84-0.83c-0.27-0.4-0.42-0.8-0.46-1.18c-0.04-0.39,0.03-0.7,0.21-0.95c0.18-0.25,0.48-0.51,0.92-0.8
		l0.38-0.25l0.93,1.4l-0.71,0.47c-0.22,0.14-0.34,0.26-0.38,0.34c-0.04,0.08-0.02,0.17,0.05,0.27c0.07,0.1,0.16,0.15,0.27,0.15
		s0.24-0.06,0.4-0.16c0.34-0.23,0.53-0.42,0.58-0.58c0.04-0.17,0.06-0.52,0.06-1.05c0-0.54,0.01-0.91,0.04-1.1s0.12-0.4,0.26-0.61
		c0.14-0.21,0.37-0.42,0.68-0.62c0.44-0.29,0.81-0.45,1.09-0.48c0.28-0.02,0.56,0.05,0.85,0.23c0.28,0.18,0.54,0.44,0.78,0.8
		c0.26,0.39,0.42,0.77,0.47,1.13c0.06,0.36,0.02,0.65-0.11,0.87c-0.13,0.22-0.43,0.48-0.89,0.78L75.44,27.81z"/>
	<path class="st0" d="M77.52,34.7l-0.67-1.68l1.12-0.45c0.33-0.13,0.52-0.23,0.59-0.3c0.07-0.07,0.08-0.16,0.03-0.29
		c-0.06-0.14-0.14-0.21-0.25-0.21c-0.11,0-0.33,0.07-0.66,0.2l-3,1.19c-0.31,0.12-0.51,0.22-0.59,0.3c-0.08,0.08-0.1,0.18-0.04,0.31
		c0.05,0.13,0.13,0.19,0.24,0.19s0.34-0.07,0.7-0.21l0.81-0.32l0.67,1.68l-0.25,0.1c-0.67,0.27-1.16,0.41-1.48,0.42
		c-0.32,0.02-0.65-0.1-0.98-0.34c-0.34-0.24-0.6-0.6-0.79-1.07c-0.2-0.49-0.27-0.93-0.21-1.32c0.05-0.39,0.21-0.7,0.49-0.93
		s0.73-0.47,1.36-0.72l1.89-0.75c0.47-0.19,0.82-0.31,1.07-0.37s0.51-0.05,0.79,0.02c0.28,0.07,0.54,0.23,0.77,0.46
		c0.24,0.23,0.42,0.53,0.57,0.9c0.2,0.5,0.26,0.94,0.2,1.34c-0.06,0.4-0.22,0.7-0.46,0.92c-0.25,0.21-0.67,0.44-1.27,0.68
		L77.52,34.7z"/>
	<path class="st0" d="M81.66,39.11l-6.8,1.47l-0.38-1.77l2.86-0.62l-0.12-0.53l-2.86,0.62l-0.38-1.77l6.8-1.47l0.38,1.77l-2.43,0.53
		l0.12,0.53l2.43-0.53L81.66,39.11z"/>
	<path class="st0" d="M78.01,45.03c-0.7,0.04-1.19,0.05-1.49,0.03c-0.29-0.02-0.56-0.11-0.81-0.27c-0.25-0.16-0.45-0.38-0.59-0.67
		c-0.14-0.29-0.23-0.63-0.25-1.02c-0.02-0.37,0.02-0.71,0.13-1.01c0.11-0.3,0.28-0.55,0.51-0.74s0.49-0.31,0.78-0.36
		s0.78-0.09,1.5-0.13l1.19-0.06c0.7-0.04,1.19-0.05,1.49-0.03c0.29,0.02,0.56,0.11,0.81,0.27c0.25,0.16,0.45,0.38,0.59,0.67
		c0.14,0.29,0.23,0.63,0.25,1.02c0.02,0.37-0.02,0.71-0.13,1.01c-0.11,0.3-0.28,0.55-0.51,0.74c-0.23,0.19-0.49,0.31-0.78,0.36
		s-0.78,0.09-1.5,0.13L78.01,45.03z M80.2,43.1c0.32-0.02,0.53-0.05,0.62-0.09c0.09-0.04,0.13-0.12,0.12-0.23
		c0-0.09-0.04-0.16-0.12-0.21c-0.08-0.05-0.29-0.06-0.65-0.04l-3.24,0.17c-0.4,0.02-0.65,0.05-0.74,0.09
		c-0.09,0.04-0.14,0.12-0.13,0.24c0.01,0.12,0.06,0.2,0.17,0.23c0.11,0.03,0.37,0.03,0.78,0.01L80.2,43.1z"/>
	<path class="st0" d="M78.57,50.24l0.19-1.8l1.2,0.13c0.35,0.04,0.57,0.04,0.66,0.01c0.09-0.03,0.14-0.11,0.16-0.24
		c0.02-0.15-0.03-0.25-0.13-0.3c-0.1-0.05-0.33-0.1-0.68-0.13l-3.21-0.35c-0.34-0.04-0.56-0.04-0.66-0.01
		c-0.11,0.03-0.17,0.11-0.18,0.25c-0.01,0.13,0.03,0.23,0.13,0.28c0.1,0.05,0.34,0.1,0.72,0.14l0.87,0.09l-0.19,1.8l-0.27-0.03
		c-0.72-0.08-1.22-0.18-1.51-0.32c-0.29-0.13-0.53-0.39-0.71-0.76c-0.19-0.37-0.25-0.81-0.2-1.32c0.06-0.53,0.2-0.95,0.43-1.27
		s0.52-0.52,0.87-0.59c0.35-0.07,0.86-0.08,1.54,0l2.02,0.22c0.5,0.05,0.87,0.11,1.12,0.17c0.25,0.06,0.47,0.19,0.69,0.38
		c0.21,0.19,0.37,0.45,0.47,0.76c0.1,0.31,0.13,0.67,0.09,1.06c-0.06,0.53-0.21,0.96-0.45,1.28c-0.24,0.32-0.52,0.52-0.84,0.6
		s-0.8,0.08-1.44,0.01L78.57,50.24z"/>
	<path class="st0" d="M76.27,54.94c-0.67-0.19-1.15-0.33-1.42-0.44c-0.27-0.11-0.5-0.28-0.69-0.51c-0.19-0.23-0.3-0.51-0.35-0.82
		s-0.02-0.67,0.09-1.05c0.1-0.36,0.25-0.67,0.44-0.92c0.2-0.25,0.44-0.44,0.72-0.54c0.28-0.11,0.57-0.14,0.85-0.1
		s0.77,0.16,1.46,0.35l1.15,0.32c0.67,0.19,1.15,0.33,1.42,0.44c0.27,0.11,0.5,0.28,0.69,0.51c0.19,0.23,0.3,0.51,0.35,0.82
		c0.05,0.32,0.02,0.67-0.09,1.05c-0.1,0.36-0.25,0.67-0.44,0.92c-0.2,0.25-0.44,0.43-0.72,0.54c-0.28,0.11-0.57,0.14-0.85,0.1
		s-0.77-0.16-1.46-0.35L76.27,54.94z M78.96,53.81c0.31,0.09,0.52,0.12,0.61,0.11c0.1-0.01,0.16-0.07,0.19-0.18
		c0.03-0.09,0.01-0.17-0.05-0.24c-0.06-0.07-0.26-0.15-0.6-0.24l-3.13-0.86c-0.39-0.11-0.63-0.16-0.73-0.15s-0.17,0.07-0.2,0.18
		c-0.03,0.12,0,0.21,0.09,0.27c0.1,0.06,0.34,0.15,0.74,0.26L78.96,53.81z"/>
	<path class="st0" d="M74.3,61.52l0.84-1.6l1.07,0.56c0.31,0.16,0.51,0.25,0.61,0.25c0.1,0.01,0.17-0.05,0.24-0.17
		c0.07-0.13,0.07-0.24-0.01-0.33s-0.27-0.21-0.58-0.37l-2.86-1.5c-0.3-0.16-0.5-0.24-0.61-0.25c-0.11-0.01-0.2,0.04-0.26,0.17
		c-0.06,0.12-0.06,0.22,0.01,0.31s0.28,0.22,0.62,0.39l0.77,0.41l-0.84,1.6l-0.24-0.13c-0.64-0.33-1.07-0.62-1.28-0.85
		c-0.22-0.23-0.35-0.55-0.39-0.97c-0.04-0.41,0.06-0.85,0.3-1.3c0.25-0.47,0.54-0.81,0.87-1.03c0.33-0.21,0.67-0.29,1.02-0.23
		c0.35,0.06,0.83,0.25,1.43,0.56l1.8,0.95c0.44,0.23,0.77,0.42,0.97,0.57s0.37,0.35,0.5,0.61c0.13,0.26,0.18,0.55,0.16,0.88
		c-0.02,0.33-0.13,0.67-0.31,1.02c-0.25,0.47-0.54,0.81-0.89,1.02s-0.68,0.29-1,0.25c-0.32-0.05-0.77-0.22-1.35-0.52L74.3,61.52z"/>
	<path class="st0" d="M76.17,64.19l-0.77,1.02c-0.51,0.68-0.88,1.13-1.12,1.33s-0.52,0.3-0.85,0.29c-0.33-0.01-0.73-0.19-1.21-0.55
		c-0.43-0.33-0.68-0.6-0.75-0.82s0-0.5,0.21-0.84c-0.29,0.23-0.53,0.35-0.72,0.36s-0.35-0.01-0.47-0.06
		c-0.12-0.05-0.4-0.24-0.85-0.58l-1.47-1.1l1.01-1.34l1.85,1.39c0.3,0.22,0.5,0.34,0.61,0.34c0.11,0.01,0.23-0.09,0.38-0.29
		l-2.51-1.88l1.08-1.45L76.17,64.19z M74.13,64.92L72.89,64c-0.12,0.16-0.19,0.29-0.19,0.39c0,0.1,0.12,0.24,0.36,0.42l0.31,0.23
		c0.18,0.13,0.32,0.19,0.42,0.17C73.89,65.19,74,65.09,74.13,64.92z"/>
	<path class="st0" d="M69.77,71.44l-3.23-3.34c-0.37-0.38-0.61-0.66-0.74-0.83c-0.12-0.18-0.2-0.41-0.24-0.68s0.01-0.56,0.12-0.83
		c0.12-0.28,0.31-0.54,0.58-0.8c0.3-0.29,0.61-0.49,0.93-0.62c0.32-0.12,0.62-0.16,0.89-0.11c0.27,0.05,0.5,0.15,0.69,0.31
		c0.19,0.16,0.56,0.52,1.11,1.08l2.86,2.96l-1.3,1.26l-3.63-3.75c-0.21-0.22-0.36-0.35-0.44-0.38c-0.08-0.04-0.16-0.02-0.23,0.05
		c-0.08,0.08-0.1,0.16-0.06,0.25s0.18,0.26,0.42,0.51l3.56,3.68L69.77,71.44z"/>
	<path class="st0" d="M65.25,74.75l-3.99-5.7l1.3-0.91l2.58,2.05l-1.81-2.59l1.24-0.87l3.99,5.7l-1.24,0.87l-2.63-1.99l1.79,2.57
		L65.25,74.75z"/>
	<path class="st0" d="M58.75,74.67l1.63-0.79l0.53,1.09c0.15,0.32,0.26,0.51,0.34,0.57c0.07,0.06,0.17,0.06,0.29,0.01
		c0.13-0.07,0.2-0.15,0.19-0.27c-0.01-0.11-0.09-0.33-0.25-0.65l-1.4-2.91c-0.15-0.3-0.26-0.49-0.34-0.57
		c-0.08-0.08-0.18-0.08-0.31-0.02c-0.12,0.06-0.18,0.14-0.17,0.25c0.01,0.11,0.09,0.34,0.26,0.68l0.38,0.79l-1.63,0.79l-0.12-0.24
		c-0.31-0.65-0.49-1.13-0.53-1.45c-0.04-0.32,0.05-0.65,0.26-1.01c0.21-0.36,0.55-0.64,1.01-0.87c0.48-0.23,0.91-0.33,1.31-0.31
		c0.39,0.02,0.71,0.16,0.96,0.42c0.25,0.26,0.52,0.69,0.82,1.31l0.88,1.83c0.22,0.45,0.37,0.8,0.44,1.04s0.09,0.5,0.04,0.79
		c-0.05,0.28-0.19,0.55-0.4,0.8s-0.5,0.46-0.85,0.63c-0.48,0.23-0.92,0.33-1.32,0.29c-0.4-0.04-0.72-0.17-0.95-0.4
		s-0.49-0.64-0.77-1.22L58.75,74.67z"/>
	<path class="st0" d="M54.64,79.11l-1.96-6.67l1.74-0.51l0.82,2.8l0.52-0.15l-0.82-2.8l1.74-0.51l1.96,6.68l-1.74,0.51l-0.7-2.39
		l-0.52,0.15l0.7,2.39L54.64,79.11z"/>
	<path class="st0" d="M47.11,80.01l-0.49-6.94l1.8-0.13l0.21,2.92l0.54-0.04l-0.21-2.92l1.8-0.13l0.49,6.94l-1.8,0.13l-0.17-2.48
		l-0.54,0.04l0.17,2.48L47.11,80.01z"/>
	<path class="st0" d="M45.64,79.97l-3.01-0.21l0.1-1.39l1.2,0.08l0.09-1.32l-1.13-0.08l0.09-1.32l1.13,0.08l0.11-1.53L42.9,74.2
		l0.1-1.39l3.13,0.22L45.64,79.97z"/>
	<path class="st0" d="M41.25,79.6l-1.25-0.27c-0.83-0.18-1.39-0.33-1.68-0.46c-0.28-0.13-0.49-0.34-0.62-0.65s-0.13-0.75-0.01-1.33
		c0.11-0.53,0.25-0.87,0.42-1.03c0.17-0.15,0.45-0.21,0.85-0.16c-0.33-0.16-0.54-0.33-0.63-0.5c-0.09-0.17-0.14-0.32-0.14-0.45
		c0-0.13,0.05-0.47,0.17-1.02l0.38-1.79l1.64,0.35l-0.48,2.26c-0.08,0.36-0.1,0.6-0.06,0.69c0.04,0.1,0.18,0.17,0.42,0.23l0.65-3.07
		l1.77,0.38L41.25,79.6z M39.73,78.06l0.32-1.51c-0.2-0.04-0.34-0.04-0.44-0.01c-0.09,0.04-0.17,0.21-0.23,0.51l-0.08,0.37
		c-0.05,0.22-0.04,0.37,0.02,0.45C39.39,77.95,39.52,78.01,39.73,78.06z"/>
	<path class="st0" d="M32.97,74.96l1.57,0.6l-0.18,0.48c-0.09,0.22-0.12,0.38-0.1,0.45s0.07,0.13,0.17,0.17
		c0.1,0.04,0.19,0.03,0.28-0.04c0.08-0.06,0.16-0.18,0.22-0.35c0.08-0.22,0.12-0.39,0.1-0.52c-0.01-0.13-0.12-0.33-0.32-0.58
		c-0.58-0.73-0.91-1.28-1-1.64c-0.09-0.36-0.01-0.86,0.24-1.5c0.18-0.46,0.36-0.78,0.55-0.96s0.47-0.28,0.84-0.31
		c0.37-0.03,0.76,0.04,1.17,0.19c0.45,0.17,0.8,0.41,1.06,0.7c0.25,0.29,0.38,0.59,0.38,0.9c0,0.3-0.1,0.7-0.28,1.18l-0.16,0.43
		l-1.57-0.6l0.3-0.79c0.09-0.24,0.13-0.41,0.11-0.49c-0.02-0.09-0.08-0.15-0.19-0.19c-0.11-0.04-0.21-0.03-0.3,0.04
		s-0.17,0.19-0.23,0.36c-0.15,0.38-0.19,0.65-0.13,0.81c0.06,0.16,0.25,0.46,0.56,0.89c0.31,0.44,0.51,0.75,0.6,0.93
		c0.09,0.18,0.13,0.4,0.14,0.65c0,0.26-0.06,0.56-0.19,0.9c-0.19,0.5-0.39,0.84-0.61,1.02c-0.22,0.18-0.49,0.28-0.82,0.3
		c-0.33,0.02-0.7-0.05-1.1-0.2c-0.44-0.17-0.79-0.38-1.04-0.64c-0.25-0.26-0.39-0.52-0.41-0.77s0.07-0.64,0.27-1.16L32.97,74.96z"/>
	<path class="st0" d="M27.2,74.19l3.48-6.02l1.57,0.91l-1.46,2.53l0.47,0.27l1.46-2.53l1.57,0.91l-3.48,6.02l-1.57-0.91l1.25-2.15
		l-0.47-0.27l-1.25,2.15L27.2,74.19z"/>
	<path class="st0" d="M25.99,73.32l-2.37-1.86l0.86-1.09l0.95,0.75l0.81-1.04l-0.89-0.7l0.82-1.04l0.89,0.7l0.95-1.2L26.96,67
		l0.86-1.09l2.47,1.94L25.99,73.32z"/>
	<path class="st0" d="M19.92,67.81l4.09-2.16l1.8-1.76l1.17,1.2l-1.8,1.76l-2.28,4.01l-1.16-1.19c0.79-1.14,1.34-1.88,1.65-2.23
		c-0.6,0.45-1.37,0.97-2.31,1.56L19.92,67.81z"/>
	<path class="st0" d="M21.17,65.73l-0.77,0.91l-0.83,0.67l-0.83-1.02l0.83-0.67l1.04-0.58L21.17,65.73z"/>
	<path class="st0" d="M17.73,61.08l0.92,1.41l-0.43,0.28c-0.2,0.13-0.32,0.23-0.35,0.3c-0.03,0.07-0.02,0.15,0.03,0.23
		c0.06,0.09,0.14,0.14,0.25,0.13c0.1,0,0.23-0.05,0.38-0.15c0.19-0.13,0.32-0.25,0.39-0.36c0.07-0.11,0.09-0.33,0.08-0.66
		c-0.04-0.94,0.01-1.57,0.16-1.92c0.14-0.34,0.5-0.7,1.07-1.07c0.42-0.27,0.75-0.42,1.01-0.45c0.26-0.03,0.55,0.05,0.86,0.24
		s0.59,0.47,0.83,0.84c0.26,0.41,0.41,0.8,0.44,1.19s-0.04,0.7-0.22,0.95c-0.18,0.24-0.49,0.51-0.93,0.79l-0.38,0.25l-0.92-1.41
		l0.71-0.46c0.22-0.14,0.35-0.25,0.38-0.33s0.02-0.17-0.04-0.27c-0.07-0.1-0.15-0.15-0.27-0.15c-0.11,0-0.25,0.05-0.4,0.16
		c-0.34,0.22-0.54,0.42-0.58,0.58c-0.04,0.17-0.07,0.52-0.07,1.05c0,0.54-0.02,0.91-0.06,1.1c-0.03,0.2-0.12,0.4-0.27,0.61
		c-0.15,0.21-0.38,0.42-0.69,0.62c-0.45,0.29-0.81,0.45-1.09,0.47c-0.28,0.02-0.56-0.06-0.84-0.24c-0.28-0.18-0.54-0.45-0.77-0.81
		c-0.26-0.39-0.41-0.77-0.46-1.13c-0.05-0.36-0.01-0.65,0.12-0.86c0.13-0.21,0.43-0.47,0.9-0.78L17.73,61.08z"/>
	<path class="st0" d="M15.72,54.19l0.65,1.69l-1.13,0.43c-0.33,0.13-0.53,0.22-0.59,0.29c-0.07,0.07-0.08,0.16-0.03,0.29
		c0.05,0.14,0.14,0.21,0.25,0.21c0.11,0,0.33-0.06,0.66-0.19l3.02-1.16c0.32-0.12,0.51-0.22,0.6-0.29c0.08-0.07,0.1-0.18,0.05-0.31
		c-0.05-0.13-0.13-0.19-0.24-0.19c-0.11,0-0.35,0.07-0.7,0.2l-0.82,0.31l-0.65-1.69l0.25-0.1c0.67-0.26,1.17-0.39,1.48-0.41
		c0.32-0.01,0.64,0.1,0.98,0.35s0.6,0.6,0.78,1.08c0.19,0.49,0.26,0.94,0.2,1.33s-0.22,0.7-0.5,0.92c-0.28,0.23-0.73,0.46-1.37,0.71
		l-1.9,0.73c-0.47,0.18-0.83,0.3-1.07,0.36c-0.25,0.06-0.51,0.05-0.79-0.03c-0.28-0.08-0.53-0.23-0.77-0.46
		c-0.23-0.23-0.42-0.53-0.56-0.9c-0.19-0.5-0.25-0.95-0.19-1.34c0.07-0.4,0.23-0.7,0.47-0.91c0.25-0.21,0.67-0.43,1.28-0.67
		L15.72,54.19z"/>
	<path class="st0" d="M11.63,49.74l6.81-1.41l0.37,1.77l-2.86,0.59l0.11,0.53l2.86-0.59l0.37,1.77l-6.81,1.41l-0.37-1.77l2.44-0.5
		l-0.11-0.53l-2.44,0.5L11.63,49.74z"/>
	<path class="st0" d="M15.33,43.84c0.7-0.03,1.19-0.03,1.49-0.01c0.29,0.02,0.56,0.11,0.81,0.28c0.25,0.16,0.44,0.39,0.58,0.68
		s0.22,0.63,0.24,1.02c0.02,0.37-0.03,0.71-0.14,1.01c-0.11,0.3-0.28,0.55-0.52,0.74c-0.24,0.19-0.5,0.31-0.78,0.36
		s-0.79,0.08-1.5,0.11l-1.19,0.05c-0.7,0.03-1.19,0.03-1.49,0.01c-0.29-0.02-0.56-0.11-0.81-0.28s-0.44-0.39-0.58-0.68
		c-0.14-0.29-0.22-0.63-0.24-1.02c-0.02-0.37,0.03-0.71,0.14-1.01c0.11-0.3,0.28-0.55,0.52-0.74s0.5-0.31,0.78-0.36
		s0.78-0.08,1.5-0.11L15.33,43.84z M13.12,45.75c-0.32,0.01-0.53,0.04-0.62,0.08c-0.09,0.04-0.13,0.12-0.13,0.23
		c0,0.09,0.04,0.17,0.12,0.21s0.29,0.06,0.65,0.05l3.25-0.14c0.4-0.02,0.65-0.04,0.74-0.08c0.09-0.04,0.14-0.11,0.13-0.23
		c-0.01-0.12-0.06-0.2-0.17-0.23c-0.11-0.03-0.37-0.04-0.78-0.02L13.12,45.75z"/>
	<path class="st0" d="M14.82,38.63l-0.21,1.8l-1.2-0.14c-0.35-0.04-0.57-0.05-0.66-0.02s-0.14,0.11-0.16,0.24
		c-0.02,0.15,0.02,0.25,0.12,0.3c0.1,0.05,0.33,0.1,0.68,0.14l3.21,0.38c0.34,0.04,0.56,0.05,0.66,0.02
		c0.11-0.03,0.17-0.11,0.19-0.25c0.02-0.13-0.02-0.23-0.12-0.28c-0.1-0.05-0.34-0.1-0.72-0.15l-0.87-0.1l0.21-1.8l0.27,0.03
		c0.72,0.08,1.22,0.19,1.5,0.33c0.29,0.14,0.52,0.39,0.71,0.76s0.25,0.81,0.19,1.32c-0.06,0.53-0.21,0.95-0.44,1.27
		s-0.52,0.51-0.87,0.58c-0.35,0.07-0.86,0.07-1.54-0.01l-2.02-0.24c-0.5-0.06-0.87-0.12-1.11-0.18c-0.24-0.06-0.47-0.19-0.68-0.39
		c-0.21-0.2-0.36-0.45-0.46-0.77s-0.12-0.67-0.08-1.06c0.06-0.53,0.22-0.95,0.46-1.27c0.25-0.32,0.53-0.52,0.85-0.59
		c0.32-0.07,0.8-0.07,1.44,0.01L14.82,38.63z"/>
	<path class="st0" d="M17.18,33.94c0.67,0.19,1.14,0.35,1.41,0.46c0.27,0.11,0.5,0.28,0.68,0.52c0.18,0.23,0.3,0.51,0.34,0.83
		c0.04,0.32,0.01,0.67-0.1,1.04c-0.1,0.36-0.25,0.66-0.45,0.91c-0.2,0.25-0.44,0.43-0.72,0.54c-0.28,0.11-0.57,0.14-0.85,0.09
		c-0.28-0.05-0.77-0.17-1.46-0.37l-1.14-0.33c-0.67-0.19-1.14-0.35-1.41-0.46s-0.5-0.28-0.68-0.52c-0.18-0.23-0.3-0.51-0.34-0.83
		s-0.01-0.67,0.1-1.04c0.1-0.36,0.25-0.66,0.45-0.91s0.44-0.43,0.72-0.54c0.28-0.11,0.57-0.14,0.85-0.09s0.77,0.17,1.46,0.37
		L17.18,33.94z M14.48,35.04c-0.31-0.09-0.51-0.13-0.61-0.12c-0.1,0.01-0.16,0.07-0.19,0.18c-0.03,0.09-0.01,0.17,0.05,0.24
		c0.06,0.07,0.26,0.15,0.6,0.25l3.12,0.9c0.39,0.11,0.63,0.16,0.73,0.16c0.1-0.01,0.17-0.07,0.2-0.18c0.03-0.12,0-0.21-0.09-0.27
		s-0.34-0.15-0.73-0.26L14.48,35.04z"/>
	<path class="st0" d="M19.21,27.41L18.35,29l-1.06-0.57c-0.31-0.17-0.51-0.25-0.61-0.26s-0.17,0.05-0.24,0.16
		c-0.07,0.13-0.07,0.24,0.01,0.33s0.27,0.21,0.58,0.38l2.84,1.53c0.3,0.16,0.5,0.25,0.61,0.26s0.2-0.04,0.26-0.17
		c0.06-0.12,0.06-0.22-0.01-0.31s-0.28-0.22-0.61-0.4l-0.77-0.41l0.86-1.59l0.24,0.13c0.63,0.34,1.06,0.63,1.28,0.86
		c0.22,0.23,0.34,0.56,0.38,0.97c0.03,0.41-0.07,0.85-0.31,1.29c-0.25,0.47-0.54,0.81-0.87,1.02c-0.33,0.21-0.67,0.29-1.03,0.22
		c-0.35-0.06-0.83-0.26-1.43-0.58l-1.79-0.96c-0.44-0.24-0.76-0.43-0.97-0.58s-0.37-0.35-0.49-0.61s-0.17-0.55-0.15-0.88
		c0.03-0.33,0.13-0.67,0.32-1.01c0.25-0.47,0.55-0.81,0.9-1.02c0.35-0.21,0.68-0.29,1-0.24c0.32,0.05,0.77,0.23,1.34,0.54
		L19.21,27.41z"/>
	<path class="st0" d="M17.38,24.7l0.78-1.02c0.52-0.68,0.9-1.12,1.13-1.32s0.52-0.29,0.85-0.28c0.33,0.01,0.73,0.2,1.2,0.56
		c0.43,0.33,0.68,0.6,0.74,0.82s-0.01,0.5-0.22,0.83c0.29-0.23,0.53-0.35,0.72-0.36c0.19-0.01,0.35,0.02,0.47,0.07
		c0.12,0.05,0.4,0.25,0.84,0.59l1.46,1.12l-1.02,1.33l-1.83-1.41c-0.3-0.23-0.5-0.34-0.6-0.35s-0.24,0.09-0.39,0.29L24,27.5
		l-1.1,1.44L17.38,24.7z M19.42,23.99l1.23,0.94c0.12-0.16,0.19-0.29,0.19-0.39s-0.11-0.24-0.36-0.43l-0.3-0.23
		c-0.17-0.13-0.31-0.19-0.42-0.17C19.67,23.73,19.55,23.82,19.42,23.99z"/>
	<path class="st0" d="M23.85,17.51l3.2,3.38c0.36,0.38,0.6,0.66,0.73,0.84c0.12,0.18,0.2,0.41,0.23,0.69
		c0.03,0.28-0.01,0.56-0.13,0.83c-0.12,0.27-0.32,0.54-0.59,0.8c-0.3,0.29-0.62,0.49-0.94,0.61c-0.33,0.12-0.62,0.15-0.89,0.1
		s-0.49-0.16-0.68-0.31c-0.19-0.16-0.55-0.52-1.09-1.09l-2.83-2.99l1.31-1.24l3.59,3.79c0.21,0.22,0.35,0.35,0.44,0.39
		c0.08,0.04,0.16,0.02,0.23-0.05c0.08-0.08,0.1-0.16,0.06-0.25s-0.18-0.26-0.42-0.51l-3.53-3.72L23.85,17.51z"/>
	<path class="st0" d="M28.41,14.26L32.33,20l-1.31,0.89l-2.56-2.08l1.78,2.61L29,22.28l-3.92-5.74l1.25-0.85l2.6,2.01l-1.77-2.59
		L28.41,14.26z"/>
	<path class="st0" d="M34.91,14.41l-1.64,0.77l-0.51-1.09c-0.15-0.32-0.26-0.51-0.33-0.57c-0.07-0.06-0.17-0.07-0.29-0.01
		c-0.14,0.06-0.2,0.15-0.19,0.26c0.01,0.11,0.09,0.33,0.24,0.65l1.37,2.93c0.14,0.31,0.26,0.5,0.34,0.57s0.18,0.08,0.31,0.03
		c0.12-0.06,0.18-0.14,0.17-0.25c-0.01-0.11-0.09-0.34-0.25-0.69l-0.37-0.79l1.64-0.77l0.11,0.25c0.31,0.65,0.48,1.14,0.51,1.45
		s-0.06,0.65-0.27,1c-0.22,0.35-0.56,0.64-1.02,0.85c-0.48,0.23-0.92,0.32-1.31,0.3s-0.71-0.17-0.96-0.43
		c-0.25-0.26-0.51-0.7-0.8-1.32l-0.86-1.84c-0.21-0.45-0.36-0.8-0.43-1.04c-0.08-0.24-0.08-0.5-0.03-0.79
		c0.06-0.28,0.19-0.55,0.41-0.8c0.22-0.25,0.5-0.46,0.86-0.62c0.48-0.23,0.92-0.32,1.33-0.28c0.4,0.04,0.72,0.18,0.95,0.41
		c0.23,0.23,0.48,0.64,0.76,1.23L34.91,14.41z"/>
	<path class="st0" d="M39.05,10.01l1.89,6.7L39.2,17.2l-0.79-2.81l-0.52,0.15l0.79,2.81l-1.74,0.49l-1.89-6.69l1.74-0.49l0.68,2.39
		l0.52-0.15l-0.68-2.39L39.05,10.01z"/>
</g>
</svg>
