<?xml version="1.0" encoding="utf-8"?>
<!-- Generator: Adobe Illustrator 23.1.0, SVG Export Plug-In . SVG Version: 6.00 Build 0)  -->
<svg version="1.1" id="Layer_1" xmlns="http://www.w3.org/2000/svg" xmlns:xlink="http://www.w3.org/1999/xlink" x="0px" y="0px"
	 viewBox="0 0 90 90" style="enable-background:new 0 0 90 90;" xml:space="preserve">
<style type="text/css">
	.st0{fill:#FFFFFF;}
</style>
<g>
	<path class="st0" d="M49.6,4.06l1.5,0.32c1,0.21,1.66,0.39,2,0.54c0.34,0.15,0.58,0.41,0.74,0.77c0.16,0.36,0.16,0.89,0.01,1.58
		c-0.13,0.63-0.3,1.04-0.5,1.22s-0.54,0.25-1.01,0.2c0.4,0.19,0.65,0.39,0.75,0.59c0.11,0.2,0.16,0.38,0.17,0.54
		c0,0.15-0.06,0.56-0.2,1.21l-0.45,2.14l-1.96-0.41l0.57-2.7c0.09-0.43,0.11-0.71,0.07-0.83c-0.05-0.12-0.21-0.21-0.51-0.27
		L50,12.62l-2.11-0.45L49.6,4.06z M51.42,5.89L51.04,7.7c0.24,0.05,0.41,0.05,0.52,0.01c0.11-0.04,0.2-0.25,0.28-0.6l0.09-0.45
		c0.05-0.26,0.04-0.44-0.03-0.54S51.66,5.94,51.42,5.89z"/>
	<path class="st0" d="M56.1,5.63l3.36,1.28l-0.59,1.55l-1.35-0.51l-0.56,1.47l1.26,0.48l-0.56,1.48l-1.26-0.48l-0.65,1.71l1.48,0.56
		l-0.59,1.55l-3.5-1.34L56.1,5.63z"/>
	<path class="st0" d="M64.3,9.47l-3.02,7.83l-1.92-1.09l0.63-1.35l-0.67-0.38l-0.85,1.23l-1.94-1.1l5.05-6.68L64.3,9.47z
		 M60.67,13.55c0.37-0.87,0.85-1.94,1.43-3.19c-0.98,1.27-1.67,2.22-2.08,2.83L60.67,13.55z"/>
	<path class="st0" d="M68.12,12.2l-4.07,5.25l1.04,0.8l-1.02,1.31l-2.74-2.13l5.09-6.56L68.12,12.2z"/>
	<path class="st0" d="M72.75,21.28l-1.4-1.65l0.57-0.49c0.36-0.31,0.58-0.52,0.64-0.62c0.07-0.11,0.05-0.22-0.05-0.34
		c-0.09-0.1-0.18-0.14-0.29-0.11s-0.33,0.18-0.65,0.46l-3.04,2.58c-0.28,0.24-0.46,0.42-0.51,0.53c-0.06,0.11-0.04,0.22,0.05,0.33
		c0.1,0.12,0.22,0.16,0.36,0.12c0.14-0.04,0.35-0.19,0.65-0.44l0.75-0.64l-0.28-0.33l0.96-0.82l1.63,1.93l-3.4,2.88l-0.88-1.03
		l0.32-0.54c-0.29,0.05-0.56,0.04-0.8-0.05c-0.24-0.09-0.46-0.25-0.66-0.48c-0.23-0.28-0.39-0.59-0.46-0.95
		c-0.07-0.36-0.06-0.68,0.03-0.97c0.09-0.29,0.23-0.55,0.42-0.76c0.19-0.22,0.5-0.51,0.94-0.88l1.88-1.6
		c0.6-0.51,1.07-0.85,1.4-1.02s0.74-0.19,1.23-0.08c0.49,0.12,0.94,0.42,1.36,0.91c0.41,0.48,0.65,0.97,0.72,1.45
		c0.07,0.49,0.01,0.89-0.18,1.22c-0.19,0.33-0.54,0.71-1.06,1.15L72.75,21.28z"/>
	<path class="st0" d="M76.22,20.94l0.77,1.32c0.51,0.88,0.82,1.5,0.94,1.85c0.11,0.35,0.09,0.71-0.08,1.06s-0.55,0.72-1.17,1.07
		c-0.56,0.32-0.97,0.47-1.25,0.45c-0.27-0.03-0.55-0.23-0.82-0.62c0.12,0.42,0.14,0.74,0.06,0.96c-0.08,0.22-0.17,0.38-0.29,0.48
		c-0.11,0.11-0.46,0.33-1.04,0.66l-1.89,1.1l-1.01-1.73l2.38-1.39c0.38-0.22,0.6-0.39,0.66-0.51c0.06-0.11,0.01-0.3-0.14-0.56
		l-3.24,1.88l-1.08-1.87L76.22,20.94z M76.08,23.52l-1.6,0.93c0.12,0.21,0.24,0.34,0.34,0.39c0.11,0.05,0.32-0.02,0.63-0.2
		l0.39-0.23c0.23-0.13,0.35-0.26,0.38-0.38S76.2,23.74,76.08,23.52z"/>
	<path class="st0" d="M80.77,30.4l-7.35,4.04l-0.77-2.07L74,31.74l-0.27-0.72l-1.44,0.4l-0.78-2.09l8.17-1.85L80.77,30.4z
		 M75.36,31.18c0.84-0.43,1.9-0.94,3.16-1.52c-1.57,0.35-2.71,0.62-3.41,0.82L75.36,31.18z"/>
	<path class="st0" d="M82.44,37.73l-8.16,1.51l-0.34-1.86l3.51-1.79l-3.71,0.69l-0.33-1.77L81.56,33l0.33,1.77l-3.45,1.87l3.67-0.68
		L82.44,37.73z"/>
	<path class="st0" d="M77.83,44.67c-0.83,0.01-1.42,0-1.77-0.03s-0.67-0.15-0.96-0.35c-0.29-0.2-0.52-0.48-0.67-0.83
		c-0.16-0.35-0.24-0.76-0.25-1.23c-0.01-0.44,0.06-0.84,0.2-1.2c0.14-0.36,0.35-0.64,0.64-0.86c0.29-0.22,0.6-0.35,0.94-0.4
		s0.94-0.08,1.79-0.09l1.42-0.02c0.83-0.01,1.42,0,1.77,0.03s0.67,0.15,0.96,0.35s0.52,0.48,0.67,0.83
		c0.16,0.35,0.24,0.76,0.25,1.23c0.01,0.44-0.06,0.84-0.2,1.2s-0.35,0.64-0.64,0.86c-0.29,0.22-0.6,0.35-0.94,0.4
		c-0.34,0.05-0.94,0.08-1.79,0.09L77.83,44.67z M80.52,42.47c0.39-0.01,0.63-0.03,0.74-0.08c0.11-0.04,0.16-0.13,0.16-0.27
		c0-0.11-0.05-0.2-0.13-0.26c-0.09-0.06-0.35-0.08-0.77-0.08l-3.88,0.06c-0.48,0.01-0.78,0.03-0.89,0.07s-0.17,0.13-0.17,0.28
		c0,0.15,0.07,0.24,0.2,0.28c0.13,0.04,0.44,0.05,0.93,0.05L80.52,42.47z"/>
	<path class="st0" d="M82.17,48.6l-6.57-0.95l-0.19,1.3l-1.64-0.24l0.49-3.44l8.22,1.18L82.17,48.6z"/>
	<path class="st0" d="M80.52,55.23l-8.3-1.25l0.65-2.11l1.46,0.33l0.23-0.74l-1.39-0.56l0.65-2.13l7.62,3.48L80.52,55.23z
		 M75.75,52.58c0.93,0.17,2.07,0.41,3.43,0.71c-1.46-0.68-2.53-1.15-3.21-1.42L75.75,52.58z"/>
	<path class="st0" d="M78.64,59.8l-0.77,1.32c-0.51,0.88-0.89,1.46-1.14,1.73s-0.57,0.43-0.96,0.46c-0.39,0.03-0.9-0.13-1.51-0.48
		c-0.56-0.32-0.89-0.61-1.01-0.86c-0.11-0.25-0.07-0.59,0.13-1.02c-0.31,0.32-0.57,0.49-0.8,0.53s-0.42,0.04-0.56-0.01
		c-0.15-0.04-0.51-0.23-1.09-0.57l-1.89-1.1l1.01-1.73l2.39,1.38c0.38,0.22,0.64,0.33,0.77,0.32c0.13-0.01,0.26-0.14,0.41-0.4
		l-3.24-1.88l1.08-1.87L78.64,59.8z M76.33,60.95l-1.6-0.93c-0.12,0.21-0.18,0.37-0.17,0.49c0.01,0.12,0.17,0.27,0.49,0.45
		l0.39,0.23c0.23,0.13,0.4,0.18,0.52,0.14C76.09,61.29,76.21,61.17,76.33,60.95z"/>
	<path class="st0" d="M75.12,65.47l-2.27,2.8l-1.29-1.05l0.91-1.12l-1.22-0.99l-0.85,1.05l-1.23-0.99l0.85-1.05l-1.42-1.15l-1,1.23
		l-1.29-1.05l2.36-2.91L75.12,65.47z"/>
	<path class="st0" d="M68.94,72.06l-6.51-5.29l1.63-1.49l1.09,1.02l0.57-0.52l-0.91-1.19l1.65-1.51l4.79,6.87L68.94,72.06z
		 M66.19,67.35c0.71,0.62,1.58,1.4,2.59,2.35c-0.91-1.32-1.59-2.27-2.05-2.85L66.19,67.35z"/>
	<path class="st0" d="M65.16,74.86l-3.73-5.49l-1.09,0.74l-0.93-1.37l2.87-1.95l4.66,6.87L65.16,74.86z"/>
	<path class="st0" d="M55.07,76.45l2-0.81l0.28,0.7c0.18,0.44,0.31,0.71,0.39,0.8c0.08,0.09,0.2,0.11,0.34,0.06
		c0.12-0.05,0.19-0.13,0.19-0.25s-0.07-0.37-0.23-0.76l-1.5-3.69c-0.14-0.34-0.26-0.56-0.34-0.65c-0.09-0.09-0.2-0.11-0.33-0.05
		c-0.15,0.06-0.22,0.16-0.22,0.31s0.07,0.4,0.22,0.75l0.37,0.91l0.4-0.16l0.48,1.17l-2.34,0.95l-1.68-4.13l1.26-0.51l0.41,0.47
		c0.04-0.29,0.14-0.54,0.3-0.74s0.38-0.36,0.66-0.48c0.34-0.14,0.68-0.18,1.04-0.14c0.36,0.04,0.66,0.16,0.91,0.33
		c0.25,0.18,0.45,0.39,0.59,0.64s0.33,0.64,0.54,1.17l0.93,2.28c0.3,0.73,0.48,1.28,0.53,1.65c0.06,0.36-0.05,0.76-0.31,1.19
		c-0.26,0.43-0.69,0.77-1.29,1.01c-0.59,0.24-1.12,0.32-1.6,0.23c-0.48-0.08-0.85-0.27-1.1-0.55s-0.51-0.74-0.76-1.37L55.07,76.45z"
		/>
	<path class="st0" d="M54.29,79.86l-1.5,0.32c-1,0.21-1.68,0.31-2.05,0.31c-0.37,0-0.7-0.14-0.99-0.41
		c-0.29-0.27-0.51-0.75-0.65-1.44c-0.13-0.63-0.14-1.07-0.03-1.32c0.11-0.25,0.39-0.45,0.84-0.59c-0.44-0.02-0.75-0.1-0.93-0.24
		s-0.3-0.28-0.37-0.42c-0.07-0.14-0.17-0.54-0.31-1.19l-0.45-2.14l1.96-0.41l0.57,2.7c0.09,0.43,0.18,0.7,0.27,0.79
		s0.28,0.1,0.57,0.04l-0.77-3.66l2.11-0.45L54.29,79.86z M51.89,78.92l-0.38-1.81c-0.24,0.05-0.4,0.12-0.48,0.2
		c-0.08,0.08-0.08,0.31-0.01,0.67l0.09,0.45c0.05,0.26,0.14,0.42,0.25,0.48C51.47,78.97,51.64,78.97,51.89,78.92z"/>
	<path class="st0" d="M43.91,81.22l-1.55-8.25l2.2-0.08l0.17,1.49l0.77-0.03l0.07-1.5l2.23-0.08l-0.79,8.34L43.91,81.22z
		 M44.85,75.85c0.15,0.93,0.3,2.09,0.46,3.47c0.16-1.6,0.25-2.76,0.28-3.5L44.85,75.85z"/>
	<path class="st0" d="M36.42,80.54l1.09-8.23l1.88,0.25L40,76.45l0.49-3.74l1.79,0.24l-1.09,8.23l-1.79-0.24l-0.71-3.86l-0.49,3.71
		L36.42,80.54z"/>
	<path class="st0" d="M31.21,73.97c0.25-0.79,0.45-1.35,0.6-1.67s0.36-0.58,0.64-0.79c0.28-0.21,0.62-0.33,1-0.38
		c0.38-0.04,0.8,0.01,1.24,0.16c0.42,0.13,0.78,0.33,1.07,0.57c0.29,0.25,0.5,0.54,0.61,0.88c0.12,0.34,0.14,0.68,0.08,1.02
		s-0.23,0.91-0.49,1.73l-0.43,1.35c-0.25,0.79-0.45,1.35-0.6,1.67c-0.14,0.32-0.36,0.58-0.64,0.79c-0.28,0.21-0.62,0.34-1,0.38
		s-0.8-0.01-1.24-0.16c-0.42-0.13-0.78-0.33-1.07-0.57s-0.5-0.54-0.61-0.88c-0.12-0.34-0.14-0.68-0.08-1.02s0.23-0.91,0.49-1.73
		L31.21,73.97z M32.44,77.23c-0.12,0.37-0.17,0.61-0.16,0.72s0.08,0.19,0.2,0.23c0.11,0.03,0.2,0.02,0.29-0.05
		c0.08-0.06,0.19-0.3,0.32-0.71l1.18-3.69c0.15-0.46,0.22-0.75,0.22-0.87c0-0.12-0.07-0.2-0.21-0.24c-0.14-0.04-0.25-0.01-0.33,0.1
		c-0.08,0.11-0.19,0.4-0.34,0.87L32.44,77.23z"/>
	<path class="st0" d="M26.16,76.9l2.96-5.95l-1.18-0.58l0.74-1.49l3.11,1.54l-3.69,7.43L26.16,76.9z"/>
	<path class="st0" d="M20.4,73.28l3.77-7.5l1.8,1.27l-0.76,1.29l0.63,0.44l0.96-1.14l1.82,1.29l-5.68,6.15L20.4,73.28z M24.41,69.58
		c-0.45,0.83-1.03,1.84-1.74,3.04c1.1-1.17,1.88-2.04,2.35-2.61L24.41,69.58z"/>
	<path class="st0" d="M16.64,70.07l-1.02-1.14c-0.68-0.76-1.11-1.3-1.29-1.62c-0.18-0.32-0.23-0.67-0.14-1.06s0.4-0.81,0.92-1.29
		c0.48-0.43,0.86-0.66,1.13-0.69c0.27-0.03,0.58,0.12,0.93,0.44c-0.21-0.39-0.29-0.7-0.26-0.92c0.03-0.23,0.1-0.41,0.18-0.53
		c0.09-0.13,0.38-0.41,0.88-0.86l1.63-1.46l1.34,1.49l-2.05,1.84c-0.33,0.3-0.51,0.51-0.54,0.63s0.05,0.29,0.25,0.52l2.79-2.5
		l1.44,1.61L16.64,70.07z M16.26,67.52l1.38-1.23c-0.16-0.18-0.3-0.29-0.41-0.31c-0.11-0.03-0.31,0.08-0.58,0.32l-0.34,0.3
		c-0.2,0.18-0.29,0.33-0.29,0.45C16.01,67.18,16.09,67.33,16.26,67.52z"/>
	<path class="st0" d="M12.36,65.01l-1.96-3.02l1.39-0.91l0.79,1.21l1.32-0.86l-0.73-1.13l1.32-0.86l0.73,1.13l1.53-0.99l-0.86-1.33
		l1.39-0.91l2.04,3.14L12.36,65.01z"/>
	<path class="st0" d="M7.98,57.04l7.05-4.54l0.91,2.01l-1.31,0.72l0.32,0.7l1.41-0.5l0.92,2.03l-8.02,2.42L7.98,57.04z M13.32,55.88
		c-0.81,0.49-1.83,1.07-3.04,1.74c1.54-0.45,2.65-0.81,3.35-1.06L13.32,55.88z"/>
	<path class="st0" d="M6.51,52.6l6.38-1.83l-0.36-1.26l1.6-0.46l0.96,3.34l-7.98,2.29L6.51,52.6z"/>
	<path class="st0" d="M5.44,47.66l-0.11-1.52c-0.07-1.02-0.08-1.71-0.03-2.07c0.05-0.37,0.23-0.67,0.54-0.92s0.81-0.4,1.52-0.45
		c0.64-0.05,1.08,0,1.32,0.15c0.23,0.14,0.39,0.45,0.47,0.92c0.08-0.43,0.2-0.73,0.36-0.89c0.17-0.16,0.32-0.26,0.47-0.31
		c0.15-0.05,0.55-0.09,1.22-0.14l2.18-0.16l0.14,2l-2.75,0.2c-0.44,0.03-0.72,0.09-0.82,0.16c-0.1,0.08-0.14,0.26-0.12,0.56
		l3.73-0.27l0.16,2.15L5.44,47.66z M6.71,45.41l1.84-0.13c-0.02-0.24-0.06-0.41-0.14-0.5c-0.07-0.09-0.29-0.13-0.66-0.1L7.3,44.71
		c-0.26,0.02-0.43,0.08-0.51,0.18C6.72,44.99,6.69,45.16,6.71,45.41z"/>
	<path class="st0" d="M5.16,41.01l0.29-3.59l1.66,0.14L6.99,39l1.57,0.13l0.11-1.34l1.57,0.13l-0.11,1.34l1.82,0.15l0.13-1.58
		l1.66,0.13l-0.3,3.73L5.16,41.01z"/>
	<path class="st0" d="M6.55,32.08l8.36,0.7l-0.51,2.15l-1.48-0.23l-0.18,0.75l1.42,0.47l-0.51,2.17l-7.83-2.98L6.55,32.08z
		 M11.48,34.42c-0.94-0.11-2.1-0.27-3.47-0.48c1.5,0.58,2.6,0.98,3.3,1.2L11.48,34.42z"/>
	<path class="st0" d="M8.11,27.62l6.17,2.45l0.48-1.22l1.54,0.61l-1.28,3.23l-7.71-3.06L8.11,27.62z"/>
	<path class="st0" d="M15.57,20.63l-1.2,1.8l-0.63-0.42c-0.4-0.26-0.65-0.41-0.78-0.44c-0.12-0.03-0.23,0.02-0.31,0.14
		c-0.07,0.11-0.08,0.21-0.02,0.31c0.06,0.1,0.26,0.26,0.62,0.5l3.32,2.21c0.31,0.21,0.53,0.32,0.65,0.35
		c0.12,0.03,0.23-0.02,0.31-0.14c0.09-0.13,0.09-0.26,0.01-0.38c-0.08-0.12-0.28-0.29-0.6-0.5l-0.82-0.55l-0.24,0.36l-1.05-0.7
		l1.4-2.1l3.71,2.47l-0.75,1.13l-0.61-0.16c0.13,0.26,0.19,0.53,0.17,0.78c-0.02,0.26-0.11,0.51-0.28,0.77
		c-0.2,0.3-0.46,0.54-0.78,0.7c-0.32,0.17-0.64,0.25-0.94,0.24s-0.59-0.07-0.85-0.2c-0.26-0.12-0.63-0.34-1.1-0.66l-2.05-1.37
		c-0.66-0.44-1.12-0.79-1.37-1.06s-0.39-0.66-0.41-1.16c-0.02-0.5,0.14-1.02,0.5-1.56c0.35-0.53,0.75-0.89,1.2-1.09
		c0.45-0.2,0.85-0.26,1.22-0.17s0.83,0.33,1.4,0.7L15.57,20.63z"/>
	<path class="st0" d="M14.29,17.37l1.06-1.1c0.71-0.73,1.21-1.21,1.52-1.41c0.31-0.21,0.65-0.28,1.05-0.22
		c0.39,0.06,0.84,0.33,1.35,0.82c0.47,0.45,0.72,0.81,0.77,1.08s-0.07,0.59-0.37,0.96c0.37-0.23,0.67-0.34,0.9-0.33
		s0.41,0.06,0.54,0.14c0.13,0.08,0.44,0.35,0.92,0.81l1.58,1.52l-1.39,1.45l-1.99-1.91c-0.32-0.31-0.54-0.47-0.67-0.5
		c-0.13-0.02-0.29,0.07-0.5,0.29l2.7,2.59l-1.49,1.56L14.29,17.37z M16.81,16.8l1.33,1.28c0.17-0.18,0.26-0.32,0.28-0.44
		c0.02-0.12-0.1-0.3-0.37-0.55l-0.33-0.32c-0.19-0.18-0.35-0.27-0.47-0.26C17.13,16.52,16.98,16.62,16.81,16.8z"/>
	<path class="st0" d="M22.07,10.42L28,16.35l-1.77,1.31l-0.98-1.13L24.63,17l0.78,1.28l-1.79,1.33l-4.06-7.33L22.07,10.42z
		 M24.33,15.39c-0.65-0.69-1.43-1.56-2.34-2.61c0.77,1.41,1.35,2.42,1.74,3.05L24.33,15.39z"/>
	<path class="st0" d="M28.66,6.76l3.73,7.41l-1.69,0.85L28,12.15l1.7,3.37l-1.61,0.81l-3.73-7.41l1.61-0.81l2.76,2.79l-1.68-3.34
		L28.66,6.76z"/>
	<path class="st0" d="M36.68,9.25c0.24,0.8,0.39,1.37,0.45,1.71c0.06,0.34,0.03,0.68-0.08,1.02s-0.32,0.62-0.62,0.87
		c-0.29,0.25-0.67,0.44-1.11,0.57c-0.43,0.13-0.83,0.17-1.21,0.13s-0.71-0.17-1-0.38c-0.29-0.22-0.5-0.48-0.64-0.8
		c-0.14-0.32-0.33-0.88-0.57-1.7l-0.4-1.36c-0.24-0.8-0.38-1.37-0.45-1.72c-0.06-0.34-0.03-0.68,0.08-1.02
		c0.12-0.33,0.32-0.62,0.62-0.87c0.29-0.25,0.67-0.44,1.11-0.57c0.43-0.13,0.83-0.17,1.21-0.13s0.71,0.17,1,0.38
		c0.29,0.22,0.5,0.48,0.64,0.8c0.14,0.32,0.33,0.88,0.57,1.7L36.68,9.25z M33.84,7.25c-0.11-0.37-0.2-0.6-0.27-0.69
		c-0.07-0.09-0.17-0.12-0.3-0.08c-0.11,0.03-0.18,0.1-0.21,0.2c-0.03,0.1,0.01,0.36,0.13,0.77l1.1,3.72
		c0.14,0.46,0.24,0.74,0.31,0.84c0.07,0.1,0.17,0.13,0.31,0.08c0.14-0.04,0.21-0.13,0.21-0.27s-0.07-0.44-0.2-0.91L33.84,7.25z"/>
	<path class="st0" d="M39.21,3.99l0.9,6.58l1.3-0.18l0.23,1.65l-3.44,0.47l-1.12-8.22L39.21,3.99z"/>
	<path class="st0" d="M45.98,3.74l1.1,8.32l-2.21-0.04l-0.09-1.49l-0.77-0.01l-0.15,1.49l-2.23-0.04l1.24-8.28L45.98,3.74z
		 M44.75,9.06c-0.09-0.94-0.18-2.11-0.27-3.49c-0.25,1.59-0.4,2.75-0.47,3.48L44.75,9.06z"/>
</g>
</svg>
