<?xml version="1.0" encoding="utf-8"?>
<!-- Generator: Adobe Illustrator 23.1.0, SVG Export Plug-In . SVG Version: 6.00 Build 0)  -->
<svg version="1.1" id="Layer_1" xmlns="http://www.w3.org/2000/svg" xmlns:xlink="http://www.w3.org/1999/xlink" x="0px" y="0px"
	 viewBox="0 0 90 90" style="enable-background:new 0 0 90 90;" xml:space="preserve">
<style type="text/css">
	.st0{fill:#FFFFFF;}
</style>
<g>
	<path class="st0" d="M33.95,7.08l1.32-0.28c0.88-0.19,1.49-0.28,1.81-0.28c0.33,0,0.62,0.12,0.88,0.36
		c0.26,0.24,0.45,0.66,0.58,1.28c0.12,0.56,0.13,0.95,0.03,1.17c-0.1,0.22-0.35,0.4-0.75,0.52c0.39,0.01,0.66,0.08,0.82,0.21
		s0.27,0.25,0.33,0.37c0.06,0.12,0.15,0.47,0.27,1.05l0.4,1.9l-1.74,0.37l-0.51-2.39c-0.08-0.39-0.16-0.62-0.24-0.7
		c-0.08-0.08-0.25-0.09-0.51-0.04l0.69,3.24l-1.87,0.4L33.95,7.08z M36.08,7.92l0.34,1.6c0.21-0.04,0.35-0.1,0.42-0.18
		c0.07-0.08,0.07-0.27,0.01-0.59l-0.08-0.4c-0.05-0.23-0.12-0.37-0.22-0.42C36.45,7.87,36.3,7.87,36.08,7.92z"/>
	<path class="st0" d="M41.42,5.86l0.71,7.32l-1.9,0.19l-0.71-7.32L41.42,5.86z"/>
	<path class="st0" d="M47.22,9l-1.91-0.03l0.02-1.28c0.01-0.37-0.01-0.6-0.05-0.7c-0.04-0.09-0.13-0.14-0.27-0.14
		c-0.16,0-0.26,0.05-0.3,0.16c-0.04,0.11-0.07,0.35-0.07,0.73l-0.05,3.41c-0.01,0.36,0.01,0.59,0.05,0.7
		c0.04,0.11,0.14,0.17,0.28,0.17c0.14,0,0.24-0.05,0.28-0.16c0.05-0.11,0.07-0.36,0.08-0.77l0.01-0.92l1.91,0.03l0,0.29
		c-0.01,0.76-0.07,1.3-0.19,1.62s-0.35,0.59-0.73,0.83c-0.37,0.23-0.83,0.35-1.37,0.34c-0.56-0.01-1.02-0.12-1.38-0.33
		c-0.36-0.21-0.6-0.49-0.71-0.85c-0.11-0.36-0.16-0.9-0.15-1.62l0.03-2.15c0.01-0.53,0.03-0.93,0.07-1.19
		c0.04-0.26,0.15-0.52,0.34-0.76s0.44-0.43,0.76-0.57s0.69-0.2,1.1-0.19c0.56,0.01,1.03,0.13,1.39,0.35c0.36,0.22,0.6,0.5,0.71,0.83
		c0.11,0.33,0.16,0.83,0.15,1.52L47.22,9z"/>
	<path class="st0" d="M48.71,5.96l3.16,0.46l-0.21,1.46l-1.26-0.18l-0.2,1.38l1.18,0.17l-0.2,1.38l-1.18-0.17l-0.23,1.6l1.39,0.2
		l-0.21,1.46l-3.28-0.48L48.71,5.96z"/>
	<path class="st0" d="M59.47,8.6l-2.09,2.8l-0.14,4.21l-1.87-0.63l0.26-3.23l-1,2.99l-1.81-0.61l2.33-6.97l1.81,0.61l-0.91,2.71
		l1.71-2.44L59.47,8.6z"/>
	<path class="st0" d="M60.63,9.11l1.21,0.61c0.8,0.41,1.33,0.72,1.59,0.92c0.25,0.21,0.41,0.48,0.46,0.83s-0.07,0.8-0.35,1.36
		c-0.26,0.51-0.5,0.82-0.71,0.93c-0.22,0.11-0.52,0.09-0.91-0.06c0.29,0.25,0.46,0.48,0.51,0.68s0.05,0.36,0.02,0.5
		s-0.18,0.46-0.45,0.99l-0.88,1.73l-1.58-0.8l1.11-2.18c0.18-0.35,0.26-0.58,0.25-0.69c-0.01-0.11-0.14-0.23-0.37-0.35l-1.5,2.96
		l-1.71-0.87L60.63,9.11z M61.77,11.1l-0.74,1.46c0.19,0.1,0.34,0.14,0.44,0.13c0.1-0.01,0.23-0.17,0.38-0.45l0.18-0.36
		c0.11-0.21,0.14-0.36,0.1-0.47C62.08,11.3,61.96,11.2,61.77,11.1z"/>
	<path class="st0" d="M67.21,12.85l-4.05,6.14l-1.6-1.05l4.05-6.14L67.21,12.85z"/>
	<path class="st0" d="M70.06,17.94l-1.36-1.14l0.35-0.42c0.16-0.2,0.25-0.33,0.26-0.42s-0.03-0.16-0.11-0.23
		c-0.09-0.07-0.19-0.09-0.29-0.06c-0.11,0.03-0.22,0.13-0.34,0.27c-0.16,0.19-0.25,0.35-0.28,0.49c-0.03,0.14,0.01,0.37,0.13,0.69
		c0.33,0.93,0.48,1.59,0.44,1.98c-0.04,0.39-0.29,0.86-0.75,1.42c-0.33,0.4-0.63,0.66-0.88,0.77s-0.57,0.12-0.95,0.03
		c-0.38-0.1-0.75-0.29-1.1-0.59c-0.39-0.33-0.67-0.68-0.82-1.06s-0.18-0.72-0.07-1.02c0.11-0.3,0.33-0.67,0.69-1.09l0.31-0.37
		l1.37,1.14l-0.57,0.69c-0.18,0.21-0.27,0.36-0.28,0.46c-0.01,0.09,0.03,0.18,0.13,0.26c0.1,0.08,0.2,0.1,0.31,0.07
		s0.23-0.13,0.36-0.28c0.28-0.33,0.41-0.59,0.41-0.77c-0.01-0.18-0.09-0.54-0.26-1.08c-0.16-0.55-0.26-0.92-0.29-1.13
		c-0.03-0.21,0-0.44,0.08-0.7c0.08-0.26,0.25-0.54,0.5-0.84c0.36-0.43,0.68-0.7,0.96-0.81c0.28-0.11,0.59-0.12,0.93-0.02
		s0.69,0.28,1.03,0.57c0.38,0.32,0.66,0.65,0.82,1c0.17,0.35,0.21,0.65,0.15,0.91c-0.07,0.26-0.29,0.61-0.66,1.06L70.06,17.94z"/>
	<path class="st0" d="M72.63,17.34l1.29,1.43c0.35,0.39,0.59,0.71,0.71,0.97c0.13,0.26,0.18,0.5,0.16,0.71
		c-0.02,0.21-0.09,0.4-0.22,0.59c-0.13,0.18-0.36,0.43-0.71,0.74l-0.47,0.43c-0.35,0.31-0.63,0.51-0.86,0.58s-0.47,0.05-0.73-0.06
		c-0.26-0.11-0.53-0.33-0.81-0.64l-0.34-0.38l-2.2,1.99l-1.28-1.42L72.63,17.34z M72.98,19.6l-1.39,1.26
		c0.03,0.04,0.06,0.08,0.09,0.11c0.12,0.13,0.23,0.19,0.34,0.18s0.27-0.1,0.47-0.29l0.45-0.41c0.19-0.17,0.28-0.31,0.29-0.42
		C73.23,19.93,73.15,19.79,72.98,19.6z"/>
	<path class="st0" d="M77.19,22.88l-5.96,4.31l-1.12-1.55l5.96-4.31L77.19,22.88z"/>
	<path class="st0" d="M77.95,24l1.6,2.76l-1.27,0.74l-0.64-1.1l-1.21,0.7l0.6,1.03l-1.21,0.7l-0.6-1.03l-1.4,0.81l0.71,1.21
		l-1.27,0.74l-1.67-2.87L77.95,24z"/>
	<path class="st0" d="M79.72,32.65l-0.68-1.64l0.5-0.21c0.23-0.1,0.38-0.18,0.42-0.25c0.05-0.07,0.05-0.15,0.01-0.25
		c-0.04-0.11-0.12-0.17-0.23-0.19s-0.25,0.01-0.43,0.08c-0.23,0.09-0.38,0.2-0.47,0.3c-0.09,0.11-0.16,0.33-0.21,0.67
		c-0.14,0.98-0.32,1.63-0.53,1.96s-0.66,0.63-1.32,0.91c-0.48,0.2-0.86,0.29-1.14,0.27c-0.28-0.02-0.56-0.16-0.85-0.42
		c-0.29-0.26-0.52-0.61-0.7-1.04c-0.2-0.47-0.27-0.91-0.23-1.32c0.04-0.41,0.18-0.72,0.41-0.94c0.23-0.22,0.61-0.43,1.12-0.64
		l0.44-0.18l0.68,1.64l-0.83,0.34c-0.25,0.11-0.41,0.2-0.46,0.27s-0.06,0.17-0.01,0.29c0.05,0.12,0.13,0.19,0.25,0.21
		c0.12,0.02,0.26-0.01,0.45-0.08c0.4-0.17,0.64-0.33,0.72-0.49c0.08-0.16,0.17-0.52,0.27-1.08c0.11-0.56,0.2-0.94,0.27-1.14
		c0.07-0.2,0.21-0.39,0.4-0.58c0.19-0.19,0.47-0.36,0.83-0.51c0.52-0.22,0.93-0.31,1.22-0.27c0.29,0.03,0.57,0.17,0.83,0.41
		c0.26,0.24,0.47,0.57,0.65,0.99c0.19,0.46,0.28,0.88,0.26,1.26c-0.01,0.38-0.11,0.68-0.29,0.87s-0.54,0.41-1.08,0.63L79.72,32.65z"
		/>
	<path class="st0" d="M82.82,35.22l0.36,1.87c0.11,0.59,0.15,1.05,0.12,1.37c-0.03,0.32-0.17,0.6-0.42,0.84s-0.68,0.42-1.3,0.54
		c-0.42,0.08-0.73,0.07-0.92-0.03s-0.37-0.34-0.53-0.71c-0.02,0.45-0.12,0.78-0.32,0.98s-0.53,0.34-1,0.43l-0.67,0.13
		c-0.49,0.09-0.86,0.11-1.12,0.04c-0.26-0.07-0.45-0.21-0.58-0.44c-0.13-0.23-0.27-0.72-0.41-1.47l-0.41-2.17L82.82,35.22z
		 M79.21,37.86l-2.02,0.38c0.06,0.26,0.13,0.42,0.22,0.48c0.09,0.06,0.28,0.06,0.57,0l0.67-0.13c0.31-0.06,0.49-0.13,0.54-0.21
		C79.25,38.32,79.25,38.14,79.21,37.86z M81.94,37.34l-1.61,0.31c0.02,0.08,0.03,0.14,0.04,0.19c0.04,0.18,0.1,0.29,0.2,0.33
		c0.1,0.03,0.36,0.01,0.79-0.07c0.23-0.04,0.38-0.09,0.46-0.15c0.08-0.06,0.13-0.12,0.14-0.2C81.98,37.66,81.97,37.53,81.94,37.34z"
		/>
	<path class="st0" d="M83.92,44.47l-7.31,1.35l-0.07-1.95l1.32-0.15l-0.02-0.68l-1.33-0.07L76.44,41l7.38,0.71L83.92,44.47z
		 M79.16,43.63c0.83-0.13,1.85-0.26,3.08-0.4c-1.41-0.15-2.45-0.23-3.1-0.26L79.16,43.63z"/>
	<path class="st0" d="M83.89,46.72l-0.15,1.35c-0.1,0.9-0.2,1.5-0.31,1.81c-0.1,0.31-0.31,0.55-0.62,0.72
		c-0.31,0.17-0.77,0.22-1.39,0.15c-0.57-0.06-0.94-0.18-1.12-0.34c-0.18-0.16-0.27-0.46-0.26-0.88c-0.14,0.37-0.29,0.61-0.46,0.72
		c-0.17,0.11-0.32,0.18-0.46,0.19c-0.13,0.02-0.5-0.01-1.09-0.08l-1.93-0.22l0.2-1.76l2.43,0.27c0.39,0.04,0.64,0.04,0.74-0.01
		c0.1-0.05,0.17-0.21,0.19-0.47l-3.29-0.37l0.21-1.9L83.89,46.72z M82.43,48.48l-1.63-0.18c-0.02,0.21-0.01,0.37,0.04,0.46
		c0.05,0.09,0.23,0.16,0.56,0.19l0.4,0.04c0.23,0.03,0.39,0,0.47-0.07C82.35,48.85,82.41,48.7,82.43,48.48z"/>
	<path class="st0" d="M82.64,54.48l-0.42,1.29c-0.28,0.86-0.51,1.43-0.67,1.71c-0.17,0.28-0.42,0.47-0.75,0.57S80,58.1,79.4,57.9
		c-0.54-0.18-0.89-0.37-1.03-0.56c-0.14-0.2-0.17-0.5-0.07-0.91c-0.21,0.33-0.41,0.53-0.6,0.61c-0.19,0.07-0.35,0.11-0.49,0.09
		s-0.48-0.11-1.05-0.3l-1.84-0.61l0.56-1.69l2.32,0.77c0.37,0.12,0.62,0.17,0.72,0.14s0.2-0.17,0.29-0.42l-3.15-1.04l0.6-1.82
		L82.64,54.48z M80.85,55.9l-1.55-0.51c-0.07,0.2-0.09,0.36-0.06,0.46c0.03,0.1,0.2,0.2,0.5,0.3l0.38,0.13
		c0.22,0.07,0.38,0.08,0.47,0.03C80.7,56.24,80.78,56.11,80.85,55.9z"/>
	<path class="st0" d="M79.9,61.56l-6.66-3.12l0.81-1.73l6.66,3.12L79.9,61.56z"/>
	<path class="st0" d="M74.19,64.97l1.01-1.62l1.08,0.68c0.32,0.2,0.52,0.3,0.62,0.32c0.1,0.01,0.19-0.04,0.26-0.16
		c0.08-0.13,0.09-0.25,0.02-0.34c-0.07-0.09-0.27-0.24-0.58-0.44l-2.9-1.81c-0.3-0.19-0.51-0.29-0.63-0.32
		c-0.12-0.02-0.21,0.03-0.29,0.16c-0.08,0.12-0.08,0.23-0.01,0.32c0.07,0.09,0.28,0.25,0.62,0.46l0.78,0.49l-1.01,1.62l-0.24-0.15
		c-0.65-0.4-1.08-0.73-1.29-0.99c-0.21-0.26-0.32-0.61-0.33-1.05c-0.01-0.44,0.13-0.89,0.42-1.34c0.3-0.48,0.63-0.81,0.99-1.01
		c0.36-0.2,0.73-0.26,1.1-0.17c0.37,0.09,0.86,0.32,1.47,0.71l1.82,1.14c0.45,0.28,0.78,0.51,0.98,0.68
		c0.21,0.17,0.37,0.4,0.48,0.68c0.11,0.28,0.14,0.6,0.09,0.94s-0.18,0.69-0.4,1.05c-0.3,0.48-0.64,0.81-1.01,1.01
		S76.5,66.07,76.16,66c-0.34-0.07-0.8-0.29-1.38-0.66L74.19,64.97z"/>
	<path class="st0" d="M76.01,67.83l-2.04,2.45l-1.13-0.94l0.82-0.98l-1.07-0.89l-0.76,0.92l-1.08-0.89l0.76-0.92l-1.24-1.03
		l-0.9,1.08l-1.13-0.94l2.12-2.55L76.01,67.83z"/>
	<path class="st0" d="M68.14,75.6l-1.29-3.25l-3.51-2.32l1.51-1.27l2.62,1.92l-2.02-2.42l1.47-1.23l4.72,5.64l-1.47,1.23l-1.83-2.19
		l1.18,2.74L68.14,75.6z"/>
	<path class="st0" d="M67.08,76.34l-1.16,0.71c-0.77,0.47-1.31,0.76-1.62,0.87c-0.31,0.11-0.62,0.09-0.95-0.05
		c-0.32-0.14-0.64-0.48-0.97-1.01c-0.3-0.49-0.44-0.85-0.42-1.1c0.02-0.24,0.2-0.49,0.53-0.74c-0.37,0.12-0.65,0.14-0.85,0.08
		c-0.19-0.07-0.34-0.15-0.43-0.24s-0.3-0.4-0.61-0.9l-1.01-1.65l1.52-0.93l1.27,2.08c0.21,0.34,0.36,0.53,0.46,0.58
		c0.1,0.05,0.27,0,0.49-0.13l-1.73-2.83l1.63-1L67.08,76.34z M64.79,76.26l-0.85-1.39c-0.18,0.11-0.3,0.22-0.34,0.31
		c-0.04,0.1,0.02,0.28,0.19,0.56L64,76.08c0.12,0.2,0.24,0.31,0.35,0.33C64.45,76.43,64.6,76.38,64.79,76.26z"/>
	<path class="st0" d="M60.43,79.98l-3.1-6.67l1.73-0.81l3.1,6.67L60.43,79.98z"/>
	<path class="st0" d="M54.6,79.74l1.68-0.57l0.17,0.52c0.08,0.24,0.15,0.39,0.22,0.44c0.07,0.05,0.15,0.06,0.25,0.03
		c0.11-0.04,0.18-0.11,0.2-0.22c0.03-0.11,0.01-0.25-0.05-0.43c-0.08-0.23-0.17-0.4-0.27-0.49c-0.1-0.1-0.32-0.18-0.66-0.25
		c-0.97-0.21-1.61-0.43-1.92-0.67s-0.58-0.7-0.81-1.38c-0.17-0.5-0.23-0.88-0.2-1.16s0.2-0.55,0.47-0.82s0.64-0.48,1.08-0.63
		c0.49-0.16,0.93-0.21,1.33-0.14c0.4,0.07,0.71,0.23,0.91,0.47c0.2,0.25,0.39,0.63,0.57,1.16l0.15,0.46l-1.68,0.57l-0.29-0.85
		c-0.09-0.26-0.17-0.42-0.24-0.48s-0.17-0.07-0.29-0.03c-0.12,0.04-0.19,0.12-0.22,0.23c-0.03,0.12-0.01,0.27,0.05,0.45
		c0.14,0.41,0.28,0.66,0.44,0.75c0.16,0.09,0.51,0.2,1.06,0.35c0.55,0.15,0.92,0.26,1.11,0.35c0.19,0.09,0.38,0.23,0.55,0.44
		c0.18,0.21,0.33,0.49,0.45,0.86c0.18,0.53,0.24,0.95,0.19,1.24c-0.05,0.29-0.21,0.56-0.47,0.8c-0.26,0.24-0.6,0.43-1.03,0.58
		c-0.47,0.16-0.9,0.22-1.28,0.18c-0.38-0.04-0.67-0.16-0.85-0.35c-0.19-0.19-0.37-0.57-0.56-1.12L54.6,79.74z"/>
	<path class="st0" d="M53.8,82.23l-1.89,0.36c-0.51,0.1-0.91,0.13-1.2,0.1c-0.29-0.03-0.52-0.11-0.69-0.23
		c-0.17-0.13-0.3-0.29-0.39-0.5c-0.09-0.21-0.18-0.54-0.26-0.99l-0.12-0.63c-0.09-0.46-0.1-0.81-0.05-1.04
		c0.05-0.23,0.2-0.42,0.43-0.58s0.55-0.28,0.97-0.36l0.5-0.09l-0.55-2.91l1.88-0.35L53.8,82.23z M51.69,81.35l-0.35-1.84
		c-0.05,0.01-0.1,0.01-0.14,0.02c-0.17,0.03-0.28,0.1-0.33,0.2c-0.05,0.1-0.05,0.28,0,0.55l0.11,0.59c0.05,0.25,0.12,0.4,0.21,0.46
		C51.28,81.39,51.45,81.39,51.69,81.35z"/>
	<path class="st0" d="M46.67,83.23l-0.58-7.33L48,75.75l0.58,7.33L46.67,83.23z"/>
	<path class="st0" d="M45.36,83.31l-3.19-0.05l0.02-1.47l1.28,0.02l0.02-1.39l-1.19-0.02l0.02-1.4l1.19,0.02l0.03-1.62l-1.4-0.02
		l0.02-1.47l3.31,0.05L45.36,83.31z"/>
	<path class="st0" d="M37.08,80.41l1.76,0.25l-0.08,0.54c-0.04,0.25-0.04,0.42,0,0.49c0.04,0.08,0.11,0.12,0.21,0.14
		c0.11,0.02,0.21-0.02,0.28-0.1c0.07-0.08,0.12-0.22,0.15-0.41c0.03-0.24,0.03-0.43-0.02-0.56c-0.05-0.13-0.2-0.3-0.47-0.52
		c-0.77-0.62-1.25-1.1-1.42-1.46s-0.21-0.88-0.11-1.6c0.07-0.52,0.19-0.89,0.34-1.12c0.16-0.23,0.42-0.4,0.79-0.52
		c0.37-0.12,0.79-0.14,1.25-0.08c0.51,0.07,0.93,0.23,1.26,0.47c0.33,0.24,0.53,0.52,0.6,0.83c0.07,0.31,0.07,0.74-0.01,1.29
		l-0.07,0.48l-1.76-0.25l0.13-0.89c0.04-0.27,0.04-0.45,0-0.54c-0.04-0.08-0.12-0.14-0.25-0.15c-0.13-0.02-0.23,0.02-0.3,0.11
		c-0.08,0.09-0.13,0.23-0.15,0.43c-0.06,0.43-0.04,0.72,0.06,0.87c0.1,0.15,0.37,0.41,0.79,0.79c0.43,0.38,0.71,0.65,0.84,0.81
		c0.13,0.16,0.23,0.38,0.3,0.64c0.07,0.26,0.07,0.59,0.02,0.97c-0.08,0.56-0.21,0.96-0.39,1.19c-0.18,0.24-0.44,0.41-0.78,0.51
		s-0.73,0.12-1.18,0.06c-0.49-0.07-0.9-0.21-1.22-0.42c-0.32-0.21-0.52-0.44-0.6-0.7c-0.08-0.26-0.08-0.67,0-1.25L37.08,80.41z"/>
	<path class="st0" d="M33.36,81.8l-1.8-0.62c-0.57-0.2-0.99-0.39-1.25-0.58c-0.26-0.19-0.44-0.45-0.52-0.78
		c-0.09-0.33-0.03-0.8,0.18-1.4c0.14-0.41,0.3-0.67,0.48-0.78c0.18-0.12,0.48-0.15,0.88-0.11c-0.38-0.24-0.61-0.49-0.69-0.76
		c-0.07-0.27-0.03-0.63,0.13-1.08L31,75.03c0.16-0.47,0.34-0.8,0.52-0.99c0.19-0.19,0.41-0.28,0.67-0.29c0.26,0,0.76,0.12,1.49,0.38
		l2.09,0.72L33.36,81.8z M31.97,79.99l0.53-1.54c-0.08-0.02-0.14-0.04-0.18-0.06c-0.18-0.06-0.31-0.06-0.38,0.01
		c-0.08,0.07-0.19,0.31-0.33,0.72c-0.08,0.22-0.11,0.38-0.1,0.48c0.01,0.1,0.04,0.17,0.1,0.22C31.66,79.87,31.78,79.92,31.97,79.99z
		 M32.88,77.36l0.67-1.94c-0.26-0.08-0.43-0.1-0.53-0.05c-0.1,0.05-0.19,0.21-0.29,0.49l-0.22,0.65c-0.1,0.3-0.13,0.49-0.09,0.57
		C32.46,77.17,32.61,77.26,32.88,77.36z"/>
	<path class="st0" d="M24.83,78.21l2.42-7.03l1.73,0.9l-0.52,1.22l0.61,0.32l0.71-1.12l1.75,0.91l-4.25,6.08L24.83,78.21z
		 M27.9,74.47c-0.3,0.78-0.69,1.74-1.16,2.88c0.82-1.16,1.4-2.02,1.75-2.57L27.9,74.47z"/>
	<path class="st0" d="M22.87,77.07l-1.1-0.79c-0.73-0.53-1.21-0.91-1.43-1.15c-0.22-0.24-0.33-0.54-0.32-0.89
		c0-0.35,0.19-0.78,0.55-1.29c0.33-0.46,0.62-0.74,0.85-0.81c0.23-0.08,0.53-0.01,0.89,0.2c-0.25-0.3-0.39-0.55-0.4-0.75
		c-0.01-0.2,0-0.37,0.06-0.49c0.05-0.13,0.25-0.43,0.6-0.91l1.13-1.58l1.44,1.04l-1.42,1.98c-0.23,0.32-0.35,0.54-0.35,0.65
		s0.1,0.25,0.31,0.4l1.93-2.69l1.55,1.11L22.87,77.07z M22.05,74.94l0.95-1.33c-0.17-0.13-0.31-0.19-0.42-0.19
		c-0.1,0-0.25,0.13-0.44,0.39l-0.24,0.33c-0.14,0.19-0.19,0.34-0.17,0.45C21.77,74.69,21.87,74.81,22.05,74.94z"/>
	<path class="st0" d="M16.77,72.26l-0.92-0.99c-0.62-0.66-1.01-1.13-1.17-1.41c-0.17-0.28-0.21-0.59-0.14-0.93
		c0.07-0.34,0.34-0.73,0.79-1.16c0.42-0.39,0.75-0.6,0.99-0.63s0.52,0.09,0.83,0.37c-0.19-0.34-0.27-0.61-0.25-0.81
		c0.03-0.2,0.08-0.36,0.15-0.47c0.07-0.11,0.33-0.37,0.76-0.78l1.42-1.32l1.21,1.3l-1.79,1.67c-0.29,0.27-0.44,0.46-0.47,0.57
		s0.05,0.26,0.23,0.45l2.42-2.26l1.3,1.4L16.77,72.26z M16.38,70.01l1.19-1.12c-0.15-0.16-0.27-0.25-0.37-0.27
		c-0.1-0.02-0.27,0.08-0.51,0.3l-0.3,0.28c-0.17,0.16-0.25,0.29-0.25,0.4S16.23,69.85,16.38,70.01z"/>
	<path class="st0" d="M11.87,66.48l5.92-4.37l1.13,1.54L13,68.01L11.87,66.48z"/>
	<path class="st0" d="M11.58,59.82l0.94,1.66l-1.11,0.63c-0.32,0.18-0.51,0.32-0.57,0.4c-0.06,0.08-0.06,0.18,0.01,0.3
		c0.08,0.14,0.18,0.2,0.29,0.18c0.12-0.02,0.34-0.12,0.66-0.3L14.78,61c0.31-0.18,0.5-0.31,0.58-0.4c0.07-0.09,0.07-0.2,0-0.33
		c-0.07-0.12-0.16-0.18-0.28-0.16s-0.35,0.12-0.7,0.32l-0.8,0.46l-0.94-1.66l0.25-0.14c0.66-0.38,1.16-0.59,1.49-0.66
		c0.33-0.06,0.69,0.01,1.08,0.21c0.39,0.2,0.72,0.54,0.98,1.01c0.28,0.49,0.42,0.94,0.42,1.35c0,0.42-0.12,0.76-0.38,1.04
		c-0.25,0.28-0.69,0.6-1.32,0.95l-1.87,1.06c-0.46,0.26-0.82,0.44-1.06,0.54c-0.25,0.1-0.52,0.13-0.83,0.09
		c-0.3-0.04-0.59-0.16-0.87-0.37c-0.28-0.21-0.52-0.49-0.73-0.85c-0.28-0.49-0.41-0.95-0.4-1.37c0.01-0.43,0.13-0.77,0.35-1.03
		c0.23-0.26,0.64-0.56,1.23-0.9L11.58,59.82z"/>
	<path class="st0" d="M8.21,60.07L7.04,57.1l1.37-0.54l0.47,1.19l1.3-0.52l-0.44-1.11l1.3-0.52l0.44,1.11l1.5-0.6l-0.52-1.3
		l1.37-0.54l1.23,3.08L8.21,60.07z"/>
	<path class="st0" d="M5.17,49.37l3.47,0.45l3.73-1.94l0.37,1.94L9.8,51.17l3.09-0.6l0.36,1.88l-7.22,1.39l-0.36-1.88l2.8-0.54
		l-2.97-0.3L5.17,49.37z"/>
	<path class="st0" d="M5.05,48.02L5,46.67c-0.03-0.9-0.02-1.51,0.04-1.83c0.06-0.32,0.23-0.59,0.51-0.8
		c0.28-0.21,0.73-0.33,1.36-0.35c0.57-0.02,0.96,0.04,1.16,0.17s0.33,0.41,0.38,0.83c0.08-0.38,0.2-0.64,0.35-0.78
		s0.29-0.22,0.42-0.26s0.49-0.07,1.08-0.09l1.94-0.07l0.06,1.77l-2.44,0.09c-0.39,0.01-0.64,0.05-0.73,0.12
		C9.04,45.54,9,45.7,9.01,45.97l3.31-0.12l0.07,1.91L5.05,48.02z M6.23,46.06l1.63-0.06c-0.01-0.21-0.04-0.36-0.1-0.45
		c-0.06-0.08-0.25-0.12-0.58-0.11l-0.4,0.01c-0.23,0.01-0.38,0.06-0.45,0.14S6.23,45.84,6.23,46.06z"/>
	<path class="st0" d="M5.15,40.46l7.33,0.59l-0.15,1.91l-7.33-0.59L5.15,40.46z"/>
	<path class="st0" d="M8.26,35.49l-0.35,1.74l-0.53-0.11c-0.25-0.05-0.41-0.06-0.49-0.03c-0.08,0.03-0.13,0.1-0.15,0.2
		c-0.02,0.11,0.01,0.21,0.09,0.28c0.08,0.08,0.21,0.13,0.4,0.17c0.24,0.05,0.43,0.05,0.56,0.01c0.13-0.04,0.32-0.19,0.55-0.44
		c0.66-0.74,1.17-1.18,1.53-1.33c0.36-0.15,0.9-0.16,1.6-0.02c0.51,0.1,0.88,0.24,1.1,0.41c0.22,0.17,0.38,0.44,0.47,0.82
		c0.1,0.38,0.1,0.79,0.01,1.25c-0.1,0.5-0.28,0.91-0.54,1.23s-0.55,0.5-0.86,0.55c-0.32,0.05-0.74,0.02-1.28-0.08l-0.47-0.09
		l0.35-1.74l0.88,0.17c0.27,0.05,0.45,0.06,0.54,0.03c0.09-0.03,0.14-0.11,0.17-0.24s-0.01-0.23-0.09-0.31
		c-0.09-0.08-0.23-0.14-0.42-0.18c-0.42-0.08-0.71-0.08-0.87,0.01c-0.15,0.09-0.43,0.34-0.83,0.75c-0.4,0.4-0.69,0.67-0.86,0.79
		c-0.17,0.12-0.39,0.21-0.65,0.26c-0.27,0.05-0.59,0.04-0.97-0.04c-0.55-0.11-0.94-0.26-1.17-0.45c-0.23-0.19-0.38-0.46-0.46-0.8
		c-0.08-0.34-0.08-0.74,0.01-1.18c0.1-0.49,0.26-0.89,0.48-1.2c0.23-0.31,0.47-0.5,0.73-0.56c0.26-0.06,0.68-0.04,1.25,0.08
		L8.26,35.49z"/>
	<path class="st0" d="M6.52,33.49l0.65-1.81c0.18-0.49,0.35-0.85,0.52-1.09s0.35-0.39,0.55-0.47s0.4-0.11,0.62-0.08
		c0.22,0.03,0.55,0.12,0.98,0.27l0.6,0.22c0.44,0.16,0.75,0.32,0.92,0.48c0.17,0.16,0.26,0.39,0.29,0.67
		c0.02,0.28-0.04,0.62-0.18,1.01l-0.17,0.48l2.79,1l-0.65,1.8L6.52,33.49z M8.35,32.11l1.76,0.63c0.02-0.05,0.04-0.09,0.05-0.13
		c0.06-0.17,0.06-0.29,0-0.39c-0.06-0.09-0.22-0.19-0.47-0.28l-0.57-0.2c-0.24-0.08-0.4-0.1-0.5-0.05
		C8.52,31.74,8.43,31.88,8.35,32.11z"/>
	<path class="st0" d="M9.28,26.83l6.6,3.25l-0.84,1.72l-6.6-3.24L9.28,26.83z"/>
	<path class="st0" d="M9.91,25.62l1.69-2.71l1.25,0.78l-0.67,1.08l1.18,0.74l0.63-1.01l1.19,0.74l-0.63,1.01l1.37,0.85l0.74-1.19
		l1.25,0.78l-1.75,2.81L9.91,25.62z"/>
	<path class="st0" d="M16.7,20.03l-1.13,1.37l-0.42-0.35c-0.2-0.16-0.34-0.25-0.42-0.26c-0.08-0.01-0.16,0.03-0.23,0.11
		c-0.07,0.09-0.09,0.19-0.06,0.29c0.04,0.1,0.13,0.22,0.27,0.34c0.19,0.16,0.35,0.25,0.49,0.27c0.14,0.03,0.37-0.01,0.69-0.13
		c0.93-0.34,1.59-0.49,1.98-0.45s0.86,0.28,1.42,0.74c0.4,0.33,0.66,0.63,0.78,0.88s0.12,0.57,0.03,0.95s-0.29,0.75-0.58,1.11
		c-0.33,0.4-0.68,0.67-1.06,0.83c-0.38,0.16-0.72,0.18-1.02,0.08c-0.3-0.1-0.67-0.33-1.09-0.68l-0.37-0.31l1.13-1.37l0.69,0.57
		c0.21,0.17,0.37,0.27,0.46,0.28c0.09,0.01,0.18-0.03,0.26-0.13c0.08-0.1,0.1-0.2,0.06-0.31c-0.04-0.11-0.13-0.23-0.28-0.35
		c-0.33-0.27-0.59-0.41-0.77-0.4c-0.18,0.01-0.54,0.1-1.08,0.27c-0.55,0.17-0.92,0.27-1.13,0.29s-0.44,0-0.7-0.08
		c-0.26-0.08-0.54-0.25-0.84-0.49c-0.44-0.36-0.71-0.67-0.82-0.95c-0.11-0.28-0.12-0.59-0.03-0.93c0.09-0.34,0.28-0.69,0.57-1.04
		c0.32-0.38,0.65-0.66,0.99-0.83s0.65-0.22,0.91-0.15c0.26,0.07,0.62,0.29,1.07,0.66L16.7,20.03z"/>
	<path class="st0" d="M17.47,16.12l1.48-1.21c0.47-0.38,0.85-0.63,1.15-0.76c0.3-0.12,0.61-0.14,0.94-0.04s0.69,0.4,1.1,0.89
		c0.27,0.33,0.41,0.61,0.41,0.82c0,0.22-0.12,0.49-0.37,0.81c0.41-0.2,0.74-0.26,1.01-0.18c0.27,0.08,0.55,0.3,0.86,0.67l0.43,0.53
		c0.31,0.38,0.5,0.71,0.57,0.96c0.06,0.26,0.03,0.5-0.11,0.72c-0.14,0.23-0.5,0.58-1.1,1.07l-1.71,1.4L17.47,16.12z M19.75,15.88
		l1.04,1.27c0.06-0.05,0.11-0.1,0.14-0.12c0.15-0.12,0.21-0.23,0.19-0.33c-0.02-0.1-0.17-0.32-0.44-0.66
		c-0.15-0.18-0.26-0.29-0.36-0.33s-0.17-0.05-0.24-0.03S19.9,15.76,19.75,15.88z M21.51,18.03l1.3,1.59
		c0.2-0.18,0.31-0.32,0.32-0.42c0.01-0.11-0.08-0.27-0.27-0.5l-0.43-0.53c-0.2-0.24-0.35-0.37-0.44-0.38
		C21.9,17.78,21.74,17.86,21.51,18.03z"/>
	<path class="st0" d="M25.02,10.74l4.72,5.74l-1.68,1l-0.77-1.08l-0.59,0.35l0.58,1.19l-1.7,1.02l-2.94-6.81L25.02,10.74z
		 M26.58,15.31c-0.51-0.66-1.12-1.5-1.84-2.5c0.56,1.31,0.98,2.25,1.27,2.84L26.58,15.31z"/>
	<path class="st0" d="M26.98,9.68l1.25-0.52c0.83-0.35,1.41-0.55,1.73-0.61c0.32-0.06,0.63,0,0.93,0.19s0.57,0.57,0.81,1.15
		c0.22,0.53,0.3,0.91,0.25,1.15c-0.06,0.24-0.27,0.45-0.64,0.65c0.39-0.06,0.67-0.04,0.85,0.05c0.18,0.1,0.31,0.2,0.39,0.31
		c0.08,0.11,0.23,0.44,0.46,0.98l0.75,1.79l-1.64,0.69l-0.94-2.25c-0.15-0.36-0.27-0.58-0.37-0.64c-0.09-0.06-0.26-0.04-0.5,0.06
		l1.28,3.06l-1.76,0.74L26.98,9.68z M29.23,10.1l0.63,1.51c0.2-0.08,0.33-0.17,0.38-0.26s0.02-0.28-0.1-0.58l-0.16-0.37
		c-0.09-0.21-0.19-0.34-0.29-0.37C29.59,9.99,29.44,10.01,29.23,10.1z"/>
</g>
</svg>
