<?xml version="1.0" encoding="utf-8"?>
<!-- Generator: Adobe Illustrator 23.1.0, SVG Export Plug-In . SVG Version: 6.00 Build 0)  -->
<svg version="1.1" id="Layer_1" xmlns="http://www.w3.org/2000/svg" xmlns:xlink="http://www.w3.org/1999/xlink" x="0px" y="0px"
	 viewBox="0 0 90 90" style="enable-background:new 0 0 90 90;" xml:space="preserve">
<style type="text/css">
	.st0{fill:#FFFFFF;}
</style>
<g>
	<path class="st0" d="M49.45,7.29l-2.44-0.05l0.02-0.75c0.01-0.35-0.02-0.57-0.08-0.67s-0.16-0.15-0.31-0.15
		c-0.16,0-0.28,0.06-0.36,0.19c-0.08,0.13-0.13,0.32-0.13,0.58c-0.01,0.34,0.03,0.59,0.12,0.77c0.08,0.17,0.33,0.38,0.73,0.63
		c1.16,0.72,1.88,1.3,2.18,1.76s0.43,1.17,0.41,2.17c-0.02,0.72-0.11,1.25-0.29,1.59s-0.51,0.62-1,0.84
		c-0.49,0.22-1.05,0.33-1.69,0.31c-0.7-0.01-1.3-0.16-1.79-0.44c-0.49-0.28-0.81-0.62-0.96-1.04c-0.15-0.42-0.21-1-0.2-1.76
		l0.01-0.66l2.44,0.05l-0.03,1.23c-0.01,0.38,0.02,0.62,0.09,0.73c0.07,0.11,0.19,0.17,0.36,0.17c0.17,0,0.31-0.06,0.39-0.2
		s0.13-0.34,0.14-0.61c0.01-0.6-0.06-0.99-0.22-1.17c-0.16-0.19-0.57-0.5-1.21-0.94C45,9.41,44.57,9.09,44.36,8.89
		s-0.38-0.47-0.51-0.82c-0.13-0.35-0.19-0.79-0.18-1.33C43.68,5.96,43.8,5.4,44,5.04c0.21-0.35,0.53-0.63,0.98-0.82
		s0.98-0.28,1.6-0.27c0.68,0.01,1.26,0.14,1.74,0.37c0.48,0.23,0.79,0.52,0.94,0.85c0.15,0.34,0.21,0.91,0.2,1.71L49.45,7.29z"/>
	<path class="st0" d="M52.09,4.54l2.59,0.57c0.7,0.15,1.23,0.33,1.58,0.52c0.35,0.19,0.6,0.41,0.74,0.66
		c0.14,0.25,0.22,0.53,0.22,0.84c0,0.31-0.07,0.77-0.2,1.39l-0.19,0.86c-0.14,0.63-0.31,1.08-0.5,1.34
		c-0.19,0.26-0.48,0.43-0.86,0.51c-0.38,0.08-0.85,0.05-1.42-0.07l-0.69-0.15l-0.88,3.98l-2.57-0.57L52.09,4.54z M54.29,6.8
		l-0.56,2.51c0.07,0.02,0.13,0.04,0.19,0.05c0.24,0.05,0.41,0.03,0.53-0.07s0.22-0.33,0.3-0.69l0.18-0.81C55,7.45,55,7.22,54.91,7.1
		C54.83,6.97,54.62,6.87,54.29,6.8z"/>
	<path class="st0" d="M59.69,6.5l4.05,1.7l-0.78,1.87l-1.62-0.68l-0.74,1.77l1.52,0.64l-0.74,1.77l-1.52-0.64l-0.86,2.05l1.78,0.75
		l-0.78,1.87l-4.21-1.76L59.69,6.5z"/>
	<path class="st0" d="M68.6,16.35l-2.19-1.46l0.97-1.47c0.28-0.43,0.44-0.71,0.46-0.84s-0.04-0.26-0.2-0.36
		c-0.18-0.12-0.34-0.13-0.47-0.04s-0.34,0.36-0.63,0.79l-2.6,3.92c-0.27,0.41-0.43,0.69-0.46,0.85s0.03,0.29,0.2,0.4
		c0.16,0.11,0.31,0.12,0.45,0.02c0.13-0.09,0.35-0.37,0.66-0.83l0.7-1.06l2.19,1.46l-0.22,0.33c-0.58,0.87-1.05,1.45-1.42,1.73
		c-0.37,0.28-0.85,0.42-1.45,0.42s-1.21-0.21-1.83-0.62c-0.64-0.43-1.09-0.89-1.36-1.4c-0.26-0.51-0.33-1.01-0.19-1.52
		c0.14-0.5,0.48-1.17,1.03-1.99l1.63-2.46c0.4-0.61,0.73-1.05,0.97-1.33c0.24-0.28,0.56-0.49,0.96-0.63
		c0.39-0.14,0.83-0.18,1.3-0.09c0.47,0.08,0.95,0.28,1.42,0.6c0.65,0.43,1.1,0.91,1.35,1.44c0.25,0.53,0.32,1.02,0.21,1.48
		c-0.12,0.46-0.43,1.08-0.96,1.87L68.6,16.35z"/>
	<path class="st0" d="M74.63,15.97l-6.89,7.41l-1.93-1.79l6.89-7.41L74.63,15.97z"/>
	<path class="st0" d="M79.09,21.16l-7.02,7.45l-1.67-2.11l1.34-1.24l-0.58-0.74l-1.53,1l-1.68-2.14l8.78-5.21L79.09,21.16z
		 M73.12,24.1c0.82-0.81,1.85-1.8,3.09-2.95c-1.69,0.99-2.9,1.73-3.65,2.23L73.12,24.1z"/>
	<path class="st0" d="M82.17,26.24l-7.12,3.85l0.76,1.41l-1.78,0.96l-2.01-3.72l8.9-4.81L82.17,26.24z"/>
	<path class="st0" d="M86.3,38.24l-4.8-0.35l-4.98,2.96l-0.67-2.64l3.94-2.09l-4.21,1.06l-0.64-2.55l9.81-2.48l0.64,2.55l-3.81,0.96
		l4.1,0.17L86.3,38.24z"/>
	<path class="st0" d="M83.57,48.73l0.06-2.44l0.75,0.02c0.35,0.01,0.57-0.02,0.67-0.08c0.1-0.06,0.15-0.16,0.15-0.31
		c0-0.16-0.06-0.28-0.18-0.36c-0.13-0.08-0.32-0.13-0.58-0.14c-0.34-0.01-0.59,0.03-0.77,0.12c-0.17,0.08-0.39,0.33-0.64,0.73
		c-0.72,1.15-1.31,1.88-1.77,2.17c-0.45,0.29-1.18,0.43-2.17,0.4c-0.72-0.02-1.25-0.11-1.59-0.29c-0.34-0.18-0.62-0.51-0.83-1
		c-0.22-0.49-0.32-1.05-0.31-1.7c0.02-0.7,0.17-1.3,0.44-1.79c0.28-0.49,0.63-0.81,1.04-0.95s1-0.21,1.76-0.19l0.66,0.02l-0.06,2.44
		l-1.23-0.03c-0.38-0.01-0.62,0.02-0.73,0.08c-0.11,0.07-0.17,0.19-0.17,0.36c0,0.17,0.06,0.31,0.2,0.4s0.34,0.14,0.61,0.14
		c0.6,0.02,0.99-0.06,1.17-0.21c0.19-0.16,0.5-0.56,0.95-1.21c0.45-0.64,0.77-1.07,0.98-1.28c0.2-0.21,0.48-0.38,0.83-0.51
		c0.35-0.13,0.79-0.19,1.33-0.18c0.78,0.02,1.34,0.13,1.69,0.34c0.35,0.21,0.63,0.53,0.82,0.98c0.19,0.45,0.28,0.98,0.26,1.61
		c-0.02,0.68-0.14,1.26-0.37,1.74c-0.23,0.48-0.52,0.79-0.86,0.94c-0.34,0.15-0.91,0.21-1.71,0.19L83.57,48.73z"/>
	<path class="st0" d="M86.3,51.41l-0.58,2.58c-0.16,0.7-0.33,1.22-0.53,1.58c-0.2,0.35-0.42,0.6-0.67,0.74
		c-0.25,0.14-0.53,0.21-0.84,0.21c-0.31,0-0.77-0.07-1.39-0.21l-0.86-0.19c-0.63-0.14-1.07-0.31-1.33-0.51
		c-0.26-0.2-0.43-0.48-0.5-0.87c-0.08-0.38-0.05-0.85,0.08-1.41l0.16-0.69l-3.97-0.9l0.58-2.57L86.3,51.41z M84.03,53.59l-2.51-0.57
		c-0.02,0.07-0.04,0.13-0.05,0.19c-0.05,0.24-0.03,0.41,0.06,0.53c0.09,0.12,0.33,0.22,0.69,0.3l0.81,0.18
		c0.34,0.08,0.57,0.07,0.69-0.01C83.86,54.13,83.96,53.93,84.03,53.59z"/>
	<path class="st0" d="M84.3,59.02l-1.72,4.04l-1.86-0.79l0.69-1.62l-1.77-0.75L79,61.41l-1.77-0.75l0.64-1.51l-2.05-0.87l-0.76,1.78
		l-1.86-0.79l1.79-4.2L84.3,59.02z"/>
	<path class="st0" d="M74.4,67.88l1.47-2.18l1.46,0.98c0.42,0.28,0.71,0.44,0.84,0.46c0.14,0.02,0.26-0.04,0.37-0.2
		c0.12-0.18,0.13-0.34,0.04-0.47c-0.1-0.13-0.36-0.34-0.78-0.63l-3.9-2.62c-0.41-0.27-0.69-0.43-0.85-0.46s-0.29,0.03-0.41,0.2
		c-0.11,0.16-0.12,0.31-0.03,0.44c0.09,0.13,0.37,0.36,0.83,0.67l1.06,0.71l-1.47,2.18l-0.33-0.22c-0.87-0.58-1.44-1.06-1.73-1.43
		c-0.28-0.37-0.42-0.85-0.41-1.46c0.01-0.6,0.22-1.21,0.63-1.83c0.43-0.64,0.9-1.09,1.41-1.35c0.51-0.26,1.02-0.32,1.52-0.18
		c0.5,0.14,1.16,0.49,1.99,1.04l2.45,1.65c0.61,0.41,1.05,0.73,1.32,0.98c0.28,0.24,0.48,0.56,0.63,0.96
		c0.14,0.39,0.17,0.83,0.09,1.3c-0.08,0.47-0.29,0.95-0.6,1.42c-0.43,0.64-0.91,1.09-1.44,1.34c-0.53,0.25-1.02,0.32-1.48,0.2
		c-0.46-0.12-1.08-0.44-1.87-0.97L74.4,67.88z"/>
	<path class="st0" d="M74.75,73.92l-7.38-6.93l1.8-1.92L76.55,72L74.75,73.92z"/>
	<path class="st0" d="M69.56,78.32l-7.41-7.05l2.12-1.66l1.23,1.35l0.74-0.58l-0.99-1.53l2.14-1.67l5.17,8.8L69.56,78.32z
		 M66.65,72.34c0.81,0.82,1.79,1.86,2.93,3.1c-0.98-1.69-1.72-2.91-2.22-3.66L66.65,72.34z"/>
	<path class="st0" d="M64.44,81.39l-3.81-7.14L59.22,75l-0.95-1.79L62,71.23l4.76,8.93L64.44,81.39z"/>
	<path class="st0" d="M52.44,85.46l0.37-4.8l-2.94-4.99l2.64-0.65l2.08,3.96l-1.04-4.21l2.55-0.63l2.43,9.82l-2.55,0.63l-0.94-3.82
		l-0.19,4.1L52.44,85.46z"/>
	<path class="st0" d="M41.93,82.68l2.44,0.07l-0.02,0.75c-0.01,0.35,0.01,0.57,0.07,0.67s0.16,0.15,0.31,0.15
		c0.16,0,0.28-0.06,0.37-0.18c0.08-0.13,0.13-0.32,0.14-0.58c0.01-0.34-0.03-0.59-0.11-0.77c-0.08-0.17-0.32-0.39-0.72-0.64
		c-1.15-0.73-1.87-1.32-2.16-1.78c-0.29-0.46-0.42-1.18-0.39-2.17c0.02-0.72,0.12-1.25,0.3-1.58c0.18-0.34,0.51-0.61,1-0.83
		c0.49-0.22,1.06-0.32,1.7-0.3c0.7,0.02,1.3,0.17,1.79,0.45c0.49,0.28,0.81,0.63,0.95,1.05s0.2,1,0.18,1.76l-0.02,0.66l-2.44-0.07
		l0.04-1.23c0.01-0.38-0.02-0.62-0.08-0.73s-0.19-0.17-0.36-0.17c-0.17-0.01-0.31,0.06-0.4,0.19s-0.14,0.34-0.15,0.61
		c-0.02,0.6,0.05,0.99,0.21,1.18c0.16,0.19,0.56,0.51,1.2,0.96c0.64,0.45,1.06,0.78,1.27,0.98c0.21,0.2,0.38,0.48,0.5,0.83
		c0.13,0.35,0.19,0.79,0.17,1.33c-0.02,0.78-0.14,1.34-0.35,1.69c-0.21,0.35-0.54,0.62-0.98,0.81c-0.45,0.19-0.98,0.27-1.61,0.25
		c-0.68-0.02-1.26-0.15-1.74-0.38c-0.47-0.23-0.78-0.52-0.93-0.86s-0.21-0.91-0.18-1.72L41.93,82.68z"/>
	<path class="st0" d="M39.25,85.39l-2.58-0.6c-0.7-0.16-1.22-0.34-1.57-0.54c-0.35-0.2-0.6-0.42-0.74-0.67
		c-0.14-0.25-0.21-0.53-0.21-0.84c0-0.31,0.07-0.77,0.22-1.39l0.2-0.86c0.15-0.63,0.32-1.07,0.51-1.33c0.2-0.26,0.49-0.42,0.87-0.5
		c0.38-0.07,0.85-0.05,1.41,0.08l0.69,0.16l0.92-3.97l2.56,0.59L39.25,85.39z M37.07,83.11l0.58-2.51
		c-0.07-0.02-0.13-0.04-0.19-0.05c-0.24-0.05-0.41-0.03-0.53,0.06c-0.12,0.09-0.22,0.32-0.3,0.69l-0.19,0.81
		c-0.08,0.34-0.08,0.57,0.01,0.69S36.74,83.04,37.07,83.11z"/>
	<path class="st0" d="M31.67,83.36l-4.03-1.74l0.8-1.86l1.61,0.7l0.76-1.76l-1.51-0.65l0.76-1.77l1.51,0.65l0.88-2.04l-1.77-0.76
		l0.8-1.86l4.19,1.81L31.67,83.36z"/>
	<path class="st0" d="M22.86,73.43l2.18,1.48l-0.99,1.46c-0.29,0.42-0.44,0.7-0.47,0.84c-0.02,0.14,0.04,0.26,0.2,0.37
		c0.18,0.12,0.34,0.13,0.47,0.04s0.35-0.35,0.63-0.78l2.64-3.89c0.28-0.41,0.43-0.69,0.47-0.85c0.04-0.16-0.03-0.29-0.2-0.41
		c-0.16-0.11-0.31-0.12-0.44-0.03c-0.13,0.09-0.36,0.37-0.67,0.83l-0.71,1.05l-2.18-1.48l0.22-0.33c0.59-0.87,1.07-1.44,1.43-1.72
		c0.37-0.28,0.85-0.41,1.46-0.4c0.6,0.01,1.21,0.22,1.83,0.64c0.64,0.43,1.09,0.9,1.34,1.42s0.31,1.02,0.17,1.52
		s-0.49,1.16-1.05,1.98l-1.66,2.45c-0.41,0.6-0.74,1.04-0.98,1.32c-0.25,0.27-0.57,0.48-0.96,0.62s-0.83,0.17-1.3,0.08
		s-0.95-0.29-1.42-0.61c-0.64-0.44-1.09-0.92-1.34-1.45c-0.25-0.53-0.31-1.03-0.19-1.48c0.12-0.46,0.44-1.08,0.97-1.86L22.86,73.43z
		"/>
	<path class="st0" d="M16.83,73.74l6.96-7.34l1.91,1.81l-6.96,7.34L16.83,73.74z"/>
	<path class="st0" d="M12.42,68.51l7.09-7.38l1.64,2.13l-1.35,1.22l0.58,0.74l1.54-0.99l1.66,2.15l-8.83,5.13L12.42,68.51z
		 M18.42,65.64c-0.83,0.81-1.86,1.78-3.12,2.92c1.7-0.97,2.92-1.71,3.67-2.2L18.42,65.64z"/>
	<path class="st0" d="M9.39,63.4l7.16-3.78l-0.75-1.42l1.79-0.95l1.97,3.74l-8.95,4.72L9.39,63.4z"/>
	<path class="st0" d="M5.38,51.35l4.8,0.39l5.01-2.91l0.64,2.64l-3.97,2.05l4.22-1.02l0.62,2.56l-9.84,2.38l-0.62-2.56l3.82-0.92
		l-4.1-0.22L5.38,51.35z"/>
	<path class="st0" d="M8.21,40.88l-0.08,2.44l-0.75-0.03c-0.35-0.01-0.57,0.01-0.67,0.07c-0.1,0.06-0.15,0.16-0.15,0.31
		c-0.01,0.16,0.06,0.28,0.18,0.37c0.13,0.09,0.32,0.13,0.58,0.14c0.34,0.01,0.59-0.02,0.77-0.11c0.17-0.08,0.39-0.32,0.64-0.72
		c0.74-1.15,1.33-1.86,1.79-2.15c0.46-0.29,1.18-0.42,2.17-0.38c0.72,0.02,1.25,0.13,1.58,0.31c0.34,0.18,0.61,0.52,0.83,1.01
		c0.21,0.49,0.31,1.06,0.29,1.7c-0.02,0.7-0.18,1.3-0.46,1.79s-0.63,0.8-1.05,0.94s-1.01,0.2-1.76,0.17l-0.66-0.02l0.08-2.44
		l1.23,0.04c0.38,0.01,0.62-0.01,0.73-0.08c0.11-0.06,0.17-0.19,0.18-0.36c0.01-0.17-0.06-0.31-0.19-0.4
		c-0.13-0.09-0.34-0.14-0.61-0.15c-0.6-0.02-0.99,0.05-1.18,0.2c-0.19,0.16-0.51,0.56-0.96,1.2c-0.46,0.64-0.79,1.06-0.99,1.27
		c-0.2,0.21-0.48,0.37-0.83,0.5c-0.35,0.13-0.79,0.18-1.33,0.16c-0.77-0.03-1.34-0.15-1.69-0.36c-0.35-0.21-0.62-0.54-0.81-0.99
		c-0.19-0.45-0.27-0.98-0.25-1.61c0.02-0.68,0.15-1.26,0.39-1.73c0.24-0.47,0.53-0.78,0.87-0.93c0.34-0.14,0.91-0.2,1.72-0.17
		L8.21,40.88z"/>
	<path class="st0" d="M5.51,38.15l0.61-2.58c0.17-0.7,0.35-1.22,0.55-1.57c0.2-0.35,0.42-0.59,0.67-0.73
		c0.25-0.14,0.53-0.21,0.84-0.21c0.31,0,0.77,0.08,1.39,0.22l0.86,0.2c0.63,0.15,1.07,0.32,1.33,0.52c0.26,0.2,0.42,0.49,0.49,0.87
		s0.04,0.85-0.09,1.41L12,36.99l3.96,0.94l-0.61,2.56L5.51,38.15z M7.81,35.99l2.51,0.59c0.02-0.07,0.04-0.13,0.05-0.19
		c0.06-0.24,0.04-0.41-0.06-0.53c-0.09-0.12-0.32-0.22-0.69-0.31l-0.81-0.19c-0.34-0.08-0.57-0.08-0.69,0
		C7.99,35.45,7.88,35.66,7.81,35.99z"/>
	<path class="st0" d="M7.58,30.6l1.76-4.02l1.85,0.81L10.49,29l1.76,0.77l0.66-1.51l1.76,0.77l-0.66,1.51l2.04,0.89l0.77-1.77
		l1.85,0.81l-1.83,4.18L7.58,30.6z"/>
	<path class="st0" d="M17.57,21.84l-1.49,2.17l-1.45-0.99c-0.42-0.29-0.7-0.45-0.84-0.47c-0.14-0.03-0.26,0.04-0.37,0.2
		c-0.12,0.18-0.14,0.34-0.04,0.47c0.09,0.14,0.35,0.35,0.77,0.64l3.88,2.66c0.41,0.28,0.69,0.44,0.84,0.47s0.29-0.03,0.41-0.2
		c0.11-0.16,0.12-0.31,0.03-0.44s-0.36-0.36-0.82-0.67l-1.05-0.72l1.49-2.17L19.26,23c0.86,0.59,1.43,1.07,1.71,1.44
		s0.41,0.86,0.4,1.46c-0.01,0.6-0.23,1.21-0.65,1.82c-0.44,0.64-0.91,1.08-1.42,1.34c-0.51,0.25-1.02,0.31-1.52,0.16
		c-0.5-0.15-1.16-0.5-1.98-1.06l-2.44-1.67c-0.6-0.41-1.04-0.74-1.31-0.99c-0.27-0.25-0.48-0.57-0.62-0.96s-0.16-0.83-0.07-1.3
		c0.09-0.47,0.29-0.94,0.62-1.41c0.44-0.64,0.92-1.08,1.46-1.33c0.53-0.25,1.03-0.31,1.49-0.19c0.46,0.12,1.08,0.45,1.86,0.98
		L17.57,21.84z"/>
	<path class="st0" d="M17.28,15.81l7.31,7l-1.82,1.9l-7.31-7L17.28,15.81z"/>
	<path class="st0" d="M22.54,11.43l7.34,7.13l-2.14,1.63l-1.22-1.36l-0.75,0.57l0.98,1.54l-2.16,1.65l-5.08-8.85L22.54,11.43z
		 M25.38,17.44c-0.8-0.83-1.77-1.87-2.9-3.13c0.96,1.7,1.69,2.93,2.18,3.68L25.38,17.44z"/>
	<path class="st0" d="M27.67,8.43l3.74,7.18l1.42-0.74l0.94,1.8l-3.75,1.95l-4.67-8.97L27.67,8.43z"/>
	<path class="st0" d="M39.71,4.48L39.3,9.27l2.89,5.02l-2.65,0.63l-2.04-3.98l1,4.22l-2.56,0.61l-2.33-9.85l2.56-0.61l0.91,3.83
		l0.24-4.1L39.71,4.48z"/>
</g>
</svg>
